<svg xmlns="http://www.w3.org/2000/svg" width="24" height="24" viewBox="0 0 24 24" fill="none">
<path d="M10 20L5.8 21.8C5.13333 22.0833 4.5 22.0292 3.9 21.6375C3.3 21.2458 3 20.6917 3 19.975V7C3 6.45 3.19583 5.97917 3.5875 5.5875C3.97917 5.19583 4.45 5 5 5H15C15.55 5 16.0208 5.19583 16.4125 5.5875C16.8042 5.97917 17 6.45 17 7V19.975C17 20.6917 16.7 21.2458 16.1 21.6375C15.5 22.0292 14.8667 22.0833 14.2 21.8L10 20ZM10 17.8L15 19.95V7H5V19.95L10 17.8ZM20 20C19.7167 20 19.4792 19.9042 19.2875 19.7125C19.0958 19.5208 19 19.2833 19 19V3H7C6.71667 3 6.47917 2.90417 6.2875 2.7125C6.09583 2.52083 6 2.28333 6 2C6 1.71667 6.09583 1.47917 6.2875 1.2875C6.47917 1.09583 6.71667 1 7 1H19C19.55 1 20.0208 1.19583 20.4125 1.5875C20.8042 1.97917 21 2.45 21 3V19C21 19.2833 20.9042 19.5208 20.7125 19.7125C20.5208 19.9042 20.2833 20 20 20Z" fill="currentColor"/>
</svg>