<svg xmlns="http://www.w3.org/2000/svg" width="24" height="24" viewBox="0 0 24 24" fill="none"><path d="M8 22C7.45 22 6.97917 21.8042 6.5875 21.4125C6.19583 21.0208 6 20.55 6 20C6 19.45 6.19583 18.9792 6.5875 18.5875C6.97917 18.1958 7.45 18 8 18C8.55 18 9.02083 18.1958 9.4125 18.5875C9.80417 18.9792 10 19.45 10 20C10 20.55 9.80417 21.0208 9.4125 21.4125C9.02083 21.8042 8.55 22 8 22ZM18 22C17.45 22 16.9792 21.8042 16.5875 21.4125C16.1958 21.0208 16 20.55 16 20C16 19.45 16.1958 18.9792 16.5875 18.5875C16.9792 18.1958 17.45 18 18 18C18.55 18 19.0208 18.1958 19.4125 18.5875C19.8042 18.9792 20 19.45 20 20C20 20.55 19.8042 21.0208 19.4125 21.4125C19.0208 21.8042 18.55 22 18 22ZM7.15 6L9.55 11H16.55L19.3 6H7.15ZM6.2 4H20.95C21.3333 4 21.625 4.17083 21.825 4.5125C22.025 4.85417 22.0333 5.2 21.85 5.55L18.3 11.95C18.1167 12.2833 17.8708 12.5417 17.5625 12.725C17.2542 12.9083 16.9167 13 16.55 13H9.1L8 15H19C19.2833 15 19.5208 15.0958 19.7125 15.2875C19.9042 15.4792 20 15.7167 20 16C20 16.2833 19.9042 16.5208 19.7125 16.7125C19.5208 16.9042 19.2833 17 19 17H8C7.25 17 6.68333 16.6708 6.3 16.0125C5.91667 15.3542 5.9 14.7 6.25 14.05L7.6 11.6L4 4H3C2.71667 4 2.47917 3.90417 2.2875 3.7125C2.09583 3.52083 2 3.28333 2 3C2 2.71667 2.09583 2.47917 2.2875 2.2875C2.47917 2.09583 2.71667 2 3 2H4.625C4.80833 2 4.98333 2.05 5.15 2.15C5.31667 2.25 5.44167 2.39167 5.525 2.575L6.2 4Z" fill="currentColor"/></svg>