<svg width="24" height="24" viewBox="0 0 24 24" fill="none" xmlns="http://www.w3.org/2000/svg">
<g clip-path="url(#clip0_1_235)">
<path d="M5.82505 16L7.70005 17.875C7.88338 18.0584 7.97505 18.2875 7.97505 18.5625C7.97505 18.8375 7.88338 19.075 7.70005 19.275C7.50005 19.475 7.26255 19.575 6.98755 19.575C6.71255 19.575 6.47505 19.475 6.27505 19.275L2.70005 15.7C2.60005 15.6 2.52922 15.4917 2.48755 15.375C2.44588 15.2584 2.42505 15.1334 2.42505 15C2.42505 14.8667 2.44588 14.7417 2.48755 14.625C2.52922 14.5084 2.60005 14.4 2.70005 14.3L6.30005 10.7C6.50005 10.5 6.73338 10.4042 7.00005 10.4125C7.26672 10.4209 7.50005 10.525 7.70005 10.725C7.88338 10.925 7.97922 11.1584 7.98755 11.425C7.99588 11.6917 7.90005 11.925 7.70005 12.125L5.82505 14H12C12.2834 14 12.5209 14.0959 12.7125 14.2875C12.9042 14.4792 13 14.7167 13 15C13 15.2834 12.9042 15.5209 12.7125 15.7125C12.5209 15.9042 12.2834 16 12 16H5.82505ZM18.175 10H12C11.7167 10 11.4792 9.90422 11.2875 9.71255C11.0959 9.52088 11 9.28338 11 9.00005C11 8.71672 11.0959 8.47922 11.2875 8.28755C11.4792 8.09588 11.7167 8.00005 12 8.00005H18.175L16.3 6.12505C16.1167 5.94172 16.025 5.71255 16.025 5.43755C16.025 5.16255 16.1167 4.92505 16.3 4.72505C16.5 4.52505 16.7375 4.42505 17.0125 4.42505C17.2875 4.42505 17.525 4.52505 17.725 4.72505L21.3 8.30005C21.4 8.40005 21.4709 8.50838 21.5125 8.62505C21.5542 8.74172 21.575 8.86672 21.575 9.00005C21.575 9.13338 21.5542 9.25838 21.5125 9.37505C21.4709 9.49172 21.4 9.60005 21.3 9.70005L17.7 13.3C17.5 13.5 17.2667 13.5959 17 13.5875C16.7334 13.5792 16.5 13.475 16.3 13.275C16.1167 13.075 16.0209 12.8417 16.0125 12.575C16.0042 12.3084 16.1 12.075 16.3 11.875L18.175 10Z" fill="currentColor"/>
</g>
<defs>
<clipPath id="clip0_1_235">
<rect width="24" height="24" fill="white"/>
</clipPath>
</defs>
</svg>
