<svg width="24" height="24" viewBox="0 0 24 24" fill="none" xmlns="http://www.w3.org/2000/svg">
<g clip-path="url(#clip0_1_389)">
<path fill-rule="evenodd" clip-rule="evenodd" d="M12 4.875C11.6839 4.875 11.4351 4.97734 11.2062 5.20622C10.9773 5.4351 10.875 5.68391 10.875 6V18C10.875 18.3161 10.9773 18.5649 11.2062 18.7938C11.4351 19.0227 11.6839 19.125 12 19.125C12.3161 19.125 12.5649 19.0227 12.7938 18.7938C13.0227 18.5649 13.125 18.3161 13.125 18V6C13.125 5.68391 13.0227 5.4351 12.7938 5.20622C12.5649 4.97734 12.3161 4.875 12 4.875ZM9.96878 3.96878C10.5232 3.41433 11.2161 3.125 12 3.125C12.7839 3.125 13.4768 3.41433 14.0312 3.96878C14.5857 4.52323 14.875 5.21609 14.875 6V18C14.875 18.7839 14.5857 19.4768 14.0312 20.0312C13.4768 20.5857 12.7839 20.875 12 20.875C11.2161 20.875 10.5232 20.5857 9.96878 20.0312C9.41433 19.4768 9.125 18.7839 9.125 18V6C9.125 5.21609 9.41433 4.52323 9.96878 3.96878ZM5 9.875C4.68391 9.875 4.4351 9.97734 4.20622 10.2062C3.97734 10.4351 3.875 10.6839 3.875 11V18C3.875 18.3161 3.97734 18.5649 4.20622 18.7938C4.4351 19.0227 4.68391 19.125 5 19.125C5.31609 19.125 5.5649 19.0227 5.79378 18.7938C6.02266 18.5649 6.125 18.3161 6.125 18V11C6.125 10.6839 6.02266 10.4351 5.79378 10.2062C5.5649 9.97734 5.31609 9.875 5 9.875ZM2.96878 8.96878C3.52323 8.41433 4.21609 8.125 5 8.125C5.78391 8.125 6.47677 8.41433 7.03122 8.96878C7.58567 9.52323 7.875 10.2161 7.875 11V18C7.875 18.7839 7.58567 19.4768 7.03122 20.0312C6.47677 20.5857 5.78391 20.875 5 20.875C4.21609 20.875 3.52323 20.5857 2.96878 20.0312C2.41433 19.4768 2.125 18.7839 2.125 18V11C2.125 10.2161 2.41433 9.52323 2.96878 8.96878ZM19 13.875C18.6839 13.875 18.4351 13.9773 18.2062 14.2062C17.9773 14.4351 17.875 14.6839 17.875 15V18C17.875 18.3161 17.9773 18.5649 18.2062 18.7938C18.4351 19.0227 18.6839 19.125 19 19.125C19.3161 19.125 19.5649 19.0227 19.7938 18.7938C20.0227 18.5649 20.125 18.3161 20.125 18V15C20.125 14.6839 20.0227 14.4351 19.7938 14.2062C19.5649 13.9773 19.3161 13.875 19 13.875ZM16.9688 12.9688C17.5232 12.4143 18.2161 12.125 19 12.125C19.7839 12.125 20.4768 12.4143 21.0312 12.9688C21.5857 13.5232 21.875 14.2161 21.875 15V18C21.875 18.7839 21.5857 19.4768 21.0312 20.0312C20.4768 20.5857 19.7839 20.875 19 20.875C18.2161 20.875 17.5232 20.5857 16.9688 20.0312C16.4143 19.4768 16.125 18.7839 16.125 18V15C16.125 14.2161 16.4143 13.5232 16.9688 12.9688Z" fill="currentColor"/>
</g>
<defs>
<clipPath id="clip0_1_389">
<rect width="24" height="24" fill="white"/>
</clipPath>
</defs>
</svg>
