<svg width="24" height="24" viewBox="0 0 24 24" fill="none" xmlns="http://www.w3.org/2000/svg">
<path d="M12 13.4L14.9 16.3C15.0833 16.4833 15.3167 16.575 15.6 16.575C15.8833 16.575 16.1167 16.4833 16.3 16.3C16.4833 16.1167 16.575 15.8833 16.575 15.6C16.575 15.3167 16.4833 15.0833 16.3 14.9L13.4 12L16.3 9.1C16.4833 8.91667 16.575 8.68333 16.575 8.4C16.575 8.11667 16.4833 7.88333 16.3 7.7C16.1167 7.51667 15.8833 7.425 15.6 7.425C15.3167 7.425 15.0833 7.51667 14.9 7.7L12 10.6L9.1 7.7C8.91667 7.51667 8.68333 7.425 8.4 7.425C8.11667 7.425 7.88333 7.51667 7.7 7.7C7.51667 7.88333 7.425 8.11667 7.425 8.4C7.425 8.68333 7.51667 8.91667 7.7 9.1L10.6 12L7.7 14.9C7.51667 15.0833 7.425 15.3167 7.425 15.6C7.425 15.8833 7.51667 16.1167 7.7 16.3C7.88333 16.4833 8.11667 16.575 8.4 16.575C8.68333 16.575 8.91667 16.4833 9.1 16.3L12 13.4ZM5 21C4.45 21 3.97917 20.8042 3.5875 20.4125C3.19583 20.0208 3 19.55 3 19V5C3 4.45 3.19583 3.97917 3.5875 3.5875C3.97917 3.19583 4.45 3 5 3H19C19.55 3 20.0208 3.19583 20.4125 3.5875C20.8042 3.97917 21 4.45 21 5V19C21 19.55 20.8042 20.0208 20.4125 20.4125C20.0208 20.8042 19.55 21 19 21H5ZM5 19H19V5H5V19Z" fill="currentColor"/>
</svg>
