<svg width="24" height="24" viewBox="0 0 24 24" fill="none" xmlns="http://www.w3.org/2000/svg">
<path d="M17.2 19H5C4.71667 19 4.47917 18.9042 4.2875 18.7125C4.09583 18.5208 4 18.2833 4 18C4 17.7167 4.09583 17.4792 4.2875 17.2875C4.47917 17.0958 4.71667 17 5 17H17.2L16.85 16.65C16.6667 16.4667 16.575 16.2333 16.575 15.95C16.575 15.6667 16.6667 15.4333 16.85 15.25C17.0333 15.0667 17.2667 14.975 17.55 14.975C17.8333 14.975 18.0667 15.0667 18.25 15.25L20.3 17.3C20.5 17.5 20.6 17.7333 20.6 18C20.6 18.2667 20.5 18.5 20.3 18.7L18.25 20.75C18.0667 20.9333 17.8333 21.025 17.55 21.025C17.2667 21.025 17.0333 20.9333 16.85 20.75C16.6667 20.5667 16.575 20.3333 16.575 20.05C16.575 19.7667 16.6667 19.5333 16.85 19.35L17.2 19ZM9.8 11.2L9 13.425C8.93333 13.6083 8.825 13.75 8.675 13.85C8.525 13.95 8.35833 14 8.175 14C7.85833 14 7.6125 13.8708 7.4375 13.6125C7.2625 13.3542 7.23333 13.0833 7.35 12.8L10.775 3.6C10.8417 3.41667 10.9542 3.27083 11.1125 3.1625C11.2708 3.05417 11.45 3 11.65 3H12.35C12.55 3 12.7292 3.05417 12.8875 3.1625C13.0458 3.27083 13.1583 3.41667 13.225 3.6L16.65 12.825C16.75 13.1083 16.7167 13.375 16.55 13.625C16.3833 13.875 16.15 14 15.85 14C15.6667 14 15.4958 13.9458 15.3375 13.8375C15.1792 13.7292 15.0667 13.5833 15 13.4L14.25 11.2H9.8ZM10.35 9.6H13.65L12.05 5.05H11.95L10.35 9.6Z" fill="currentColor"/>
</svg>
