<svg width="24" height="24" viewBox="0 0 24 24" fill="none" xmlns="http://www.w3.org/2000/svg">
<g id="mds_ic_add_panel" clip-path="url(#clip0_4257_22)">
<g id="vector">
<path fill-rule="evenodd" clip-rule="evenodd" d="M3.5875 20.4125C3.97917 20.8042 4.45 21 5 21H14C14.5523 21 15 20.5523 15 20C15 19.4477 14.5523 19 14 19H13V5H19V14C19 14.5523 19.4477 15 20 15C20.5523 15 21 14.5523 21 14V5C21 4.45 20.8042 3.97917 20.4125 3.5875C20.0208 3.19583 19.55 3 19 3H5C4.45 3 3.97917 3.19583 3.5875 3.5875C3.19583 3.97917 3 4.45 3 5V19C3 19.55 3.19583 20.0208 3.5875 20.4125ZM11 19H5V5H11V19Z" fill="currentColor"/>
<path d="M19 21H18C17.7167 21 17.4792 20.9042 17.2875 20.7125C17.0958 20.5208 17 20.2833 17 20C17 19.7167 17.0958 19.4792 17.2875 19.2875C17.4792 19.0958 17.7167 19 18 19H19V18C19 17.7167 19.0958 17.4792 19.2875 17.2875C19.4792 17.0958 19.7167 17 20 17C20.2833 17 20.5208 17.0958 20.7125 17.2875C20.9042 17.4792 21 17.7167 21 18V19H22C22.2833 19 22.5208 19.0958 22.7125 19.2875C22.9042 19.4792 23 19.7167 23 20C23 20.2833 22.9042 20.5208 22.7125 20.7125C22.5208 20.9042 22.2833 21 22 21H21V22C21 22.2833 20.9042 22.5208 20.7125 22.7125C20.5208 22.9042 20.2833 23 20 23C19.7167 23 19.4792 22.9042 19.2875 22.7125C19.0958 22.5208 19 22.2833 19 22V21Z" fill="currentColor"/>
</g>
</g>
<defs>
<clipPath id="clip0_4257_22">
<rect width="24" height="24" fill="white"/>
</clipPath>
</defs>
</svg>
