<svg width="24" height="24" viewBox="0 0 24 24" fill="none" xmlns="http://www.w3.org/2000/svg">
<path d="M12 22C10.6167 22 9.31667 21.7375 8.1 21.2125C6.88333 20.6875 5.825 19.975 4.925 19.075C4.025 18.175 3.3125 17.1166 2.7875 15.9C2.2625 14.6833 2 13.3833 2 12C2 9.8333 2.625 7.8833 3.875 6.14997C5.125 4.41663 6.78333 3.2083 8.85 2.52497C9.33333 2.3583 9.77917 2.41663 10.1875 2.69997C10.5958 2.9833 10.8 3.36663 10.8 3.84997C10.8 4.1833 10.7042 4.48747 10.5125 4.76247C10.3208 5.03747 10.075 5.22497 9.775 5.32497C8.34167 5.77497 7.1875 6.61247 6.3125 7.83747C5.4375 9.06247 5 10.45 5 12C5 13.95 5.67917 15.6041 7.0375 16.9625C8.39583 18.3208 10.05 19 12 19C12.8667 19 13.7042 18.85 14.5125 18.55C15.3208 18.25 16.0417 17.8166 16.675 17.25C16.925 17.0166 17.2292 16.9 17.5875 16.9C17.9458 16.9 18.25 17.0166 18.5 17.25C18.8833 17.6 19.0833 17.9958 19.1 18.4375C19.1167 18.8791 18.9333 19.2666 18.55 19.6C17.65 20.3833 16.6458 20.9791 15.5375 21.3875C14.4292 21.7958 13.25 22 12 22ZM19 12C19 10.4666 18.5583 9.08747 17.675 7.86247C16.7917 6.63747 15.6333 5.79163 14.2 5.32497C13.9 5.22497 13.6542 5.03747 13.4625 4.76247C13.2708 4.48747 13.175 4.1833 13.175 3.84997C13.175 3.36663 13.3792 2.9833 13.7875 2.69997C14.1958 2.41663 14.6417 2.3583 15.125 2.52497C17.2083 3.22497 18.875 4.44163 20.125 6.17497C21.375 7.9083 22 9.84997 22 12C22 12.3 21.9875 12.6041 21.9625 12.9125C21.9375 13.2208 21.8917 13.5583 21.825 13.925C21.7417 14.4083 21.4958 14.7541 21.0875 14.9625C20.6792 15.1708 20.2333 15.1833 19.75 15C19.4333 14.8833 19.1875 14.6708 19.0125 14.3625C18.8375 14.0541 18.7833 13.7333 18.85 13.4C18.9 13.1166 18.9375 12.8666 18.9625 12.65C18.9875 12.4333 19 12.2166 19 12Z" fill="currentColor"/>
</svg>
