<svg width="24" height="24" viewBox="0 0 24 24" fill="none" xmlns="http://www.w3.org/2000/svg">
<path d="M7.825 13.55L7.1 12.825C6.9 12.625 6.66667 12.5292 6.4 12.5375C6.13333 12.5458 5.9 12.65 5.7 12.85C5.51667 13.05 5.42083 13.2833 5.4125 13.55C5.40417 13.8167 5.5 14.05 5.7 14.25L7.125 15.675C7.325 15.875 7.55833 15.975 7.825 15.975C8.09167 15.975 8.325 15.875 8.525 15.675L12.075 12.125C12.275 11.925 12.375 11.6917 12.375 11.425C12.375 11.1583 12.275 10.925 12.075 10.725C11.875 10.525 11.6375 10.425 11.3625 10.425C11.0875 10.425 10.85 10.525 10.65 10.725L7.825 13.55ZM16 11.975L15.1 11.075C14.9167 10.8917 14.6833 10.8 14.4 10.8C14.1167 10.8 13.8833 10.8917 13.7 11.075C13.5167 11.2583 13.425 11.4917 13.425 11.775C13.425 12.0583 13.5167 12.2917 13.7 12.475L14.6 13.375L13.7 14.275C13.5167 14.4583 13.425 14.6917 13.425 14.975C13.425 15.2583 13.5167 15.4917 13.7 15.675C13.8833 15.8583 14.1167 15.95 14.4 15.95C14.6833 15.95 14.9167 15.8583 15.1 15.675L16 14.775L16.9 15.675C17.0833 15.8583 17.3167 15.95 17.6 15.95C17.8833 15.95 18.1167 15.8583 18.3 15.675C18.4833 15.4917 18.575 15.2583 18.575 14.975C18.575 14.6917 18.4833 14.4583 18.3 14.275L17.4 13.375L18.3 12.475C18.4833 12.2917 18.575 12.0583 18.575 11.775C18.575 11.4917 18.4833 11.2583 18.3 11.075C18.1167 10.8917 17.8833 10.8 17.6 10.8C17.3167 10.8 17.0833 10.8917 16.9 11.075L16 11.975ZM4 20C3.45 20 2.97917 19.8042 2.5875 19.4125C2.19583 19.0208 2 18.55 2 18V6C2 5.45 2.19583 4.97917 2.5875 4.5875C2.97917 4.19583 3.45 4 4 4H9.175C9.44167 4 9.69583 4.05 9.9375 4.15C10.1792 4.25 10.3917 4.39167 10.575 4.575L12 6H20C20.55 6 21.0208 6.19583 21.4125 6.5875C21.8042 6.97917 22 7.45 22 8V18C22 18.55 21.8042 19.0208 21.4125 19.4125C21.0208 19.8042 20.55 20 20 20H4ZM4 18H20V8H11.175L9.175 6H4V18Z" fill="currentColor"/>
</svg>
