<svg width="24" height="24" viewBox="0 0 24 24" fill="none" xmlns="http://www.w3.org/2000/svg">
<path d="M8.00005 23C7.45005 23 6.97922 22.8042 6.58755 22.4125C6.19588 22.0208 6.00005 21.55 6.00005 21V18C6.00005 17.7167 6.09588 17.4792 6.28755 17.2875C6.47922 17.0958 6.71672 17 7.00005 17C7.28338 17 7.52088 17.0958 7.71255 17.2875C7.90422 17.4792 8.00005 17.7167 8.00005 18H18V6H8.00005C8.00005 6.28333 7.90422 6.52083 7.71255 6.7125C7.52088 6.90417 7.28338 7 7.00005 7C6.71672 7 6.47922 6.90417 6.28755 6.7125C6.09588 6.52083 6.00005 6.28333 6.00005 6V3C6.00005 2.45 6.19588 1.97917 6.58755 1.5875C6.97922 1.19583 7.45005 1 8.00005 1H18C18.55 1 19.0209 1.19583 19.4125 1.5875C19.8042 1.97917 20 2.45 20 3V21C20 21.55 19.8042 22.0208 19.4125 22.4125C19.0209 22.8042 18.55 23 18 23H8.00005ZM8.00005 20V21H18V20H8.00005ZM10 11.4L5.10005 16.3C4.91672 16.4833 4.68338 16.575 4.40005 16.575C4.11672 16.575 3.88338 16.4833 3.70005 16.3C3.51672 16.1167 3.42505 15.8833 3.42505 15.6C3.42505 15.3167 3.51672 15.0833 3.70005 14.9L8.60005 10H6.00005C5.71672 10 5.47922 9.90417 5.28755 9.7125C5.09588 9.52083 5.00005 9.28333 5.00005 9C5.00005 8.71667 5.09588 8.47917 5.28755 8.2875C5.47922 8.09583 5.71672 8 6.00005 8H11C11.2834 8 11.5209 8.09583 11.7125 8.2875C11.9042 8.47917 12 8.71667 12 9V14C12 14.2833 11.9042 14.5208 11.7125 14.7125C11.5209 14.9042 11.2834 15 11 15C10.7167 15 10.4792 14.9042 10.2875 14.7125C10.0959 14.5208 10 14.2833 10 14V11.4ZM8.00005 4H18V3H8.00005V4Z" fill="currentColor"/>
</svg>
