<svg width="24" height="24" viewBox="0 0 24 24" fill="none" xmlns="http://www.w3.org/2000/svg">
<path d="M18.8058 3.03982L18.2283 3.32852C18.2098 3.33782 18.1942 3.35211 18.1832 3.36978C18.1723 3.38745 18.1665 3.4078 18.1665 3.42857C18.1665 3.44934 18.1723 3.4697 18.1832 3.48737C18.1942 3.50504 18.2098 3.51932 18.2283 3.52862L18.8058 3.81745C18.9791 3.90408 19.1196 4.04458 19.2062 4.21785L19.495 4.79528C19.5043 4.81387 19.5186 4.8295 19.5362 4.84043C19.5539 4.85136 19.5743 4.85714 19.5951 4.85714C19.6159 4.85714 19.6362 4.85136 19.6539 4.84043C19.6716 4.8295 19.6859 4.81387 19.6952 4.79528L19.9839 4.21785C20.0706 4.04458 20.2111 3.90408 20.3843 3.81745L20.9618 3.52872C20.9804 3.51943 20.996 3.50515 21.007 3.48747C21.0179 3.46979 21.0237 3.44941 21.0237 3.42862C21.0237 3.40784 21.0179 3.38746 21.007 3.36978C20.996 3.3521 20.9804 3.33781 20.9618 3.32852L20.3844 3.03971C20.2112 2.95307 20.0707 2.81257 19.984 2.6393L19.6953 2.06186C19.686 2.04327 19.6717 2.02764 19.654 2.01671C19.6363 2.00579 19.616 2 19.5952 2C19.5744 2 19.554 2.00579 19.5363 2.01671C19.5187 2.02764 19.5044 2.04327 19.4951 2.06186L19.2062 2.6394C19.1196 2.81267 18.9791 2.95317 18.8058 3.03982Z" fill="currentColor"/>
<path d="M5.57679 11.2169L8.57104 9.71985C9.4695 9.27056 10.198 8.542 10.6473 7.64351L12.145 4.64873C12.1932 4.55234 12.2673 4.47127 12.3589 4.41461C12.4506 4.35795 12.5563 4.32794 12.664 4.32794C12.7718 4.32794 12.8775 4.35795 12.9691 4.41461C13.0608 4.47127 13.1349 4.55234 13.1831 4.64873L14.6803 7.64298C15.1295 8.54147 15.858 9.27003 16.7565 9.71932L19.7502 11.2169C19.8467 11.2651 19.9278 11.3392 19.9844 11.4309C20.0411 11.5225 20.0712 11.6282 20.0712 11.736C20.0712 11.8438 20.0411 11.9494 19.9844 12.0411C19.9278 12.1328 19.8467 12.2069 19.7502 12.255L16.756 13.7522C15.8575 14.2014 15.129 14.93 14.6797 15.8285L13.1826 18.8227C13.1344 18.9191 13.0603 19.0002 12.9686 19.0568C12.8769 19.1135 12.7713 19.1435 12.6635 19.1435C12.5557 19.1435 12.4501 19.1135 12.3584 19.0568C12.2667 19.0002 12.1926 18.9191 12.1444 18.8227L10.6473 15.8285C10.1981 14.93 9.46952 14.2014 8.57104 13.7522L5.57679 12.2545C5.4805 12.2063 5.39953 12.1322 5.34295 12.0406C5.28636 11.949 5.25639 11.8434 5.25639 11.7357C5.25639 11.628 5.28636 11.5225 5.34295 11.4308C5.39953 11.3392 5.4805 11.2651 5.57679 11.2169Z" fill="currentColor"/>
<path d="M2.09965 18.9428L3.25458 18.3653C3.60114 18.1921 3.88214 17.9111 4.05542 17.5645L4.63311 16.4094C4.6517 16.3723 4.68028 16.341 4.71564 16.3191C4.751 16.2973 4.79175 16.2857 4.83332 16.2857C4.87489 16.2857 4.91564 16.2973 4.951 16.3191C4.98636 16.341 5.01494 16.3723 5.03353 16.4094L5.61101 17.5643C5.78429 17.9109 6.0653 18.1919 6.41185 18.3651L7.56658 18.9428C7.60377 18.9613 7.63505 18.9899 7.65691 19.0253C7.67878 19.0606 7.69036 19.1014 7.69036 19.143C7.69036 19.1845 7.67878 19.2253 7.65691 19.2606C7.63505 19.296 7.60377 19.3246 7.56658 19.3432L6.41165 19.9206C6.06509 20.0939 5.78408 20.3749 5.61081 20.7214L5.03332 21.8763C5.01473 21.9135 4.98616 21.9447 4.95079 21.9666C4.91543 21.9884 4.87468 22 4.83312 22C4.79155 22 4.7508 21.9884 4.71544 21.9666C4.68007 21.9447 4.6515 21.9135 4.63291 21.8763L4.05542 20.7214C3.88215 20.3749 3.60114 20.0939 3.25458 19.9206L2.09965 19.343C2.06252 19.3244 2.03128 19.2958 2.00946 19.2604C1.98763 19.2251 1.97607 19.1844 1.97607 19.1429C1.97607 19.1013 1.98763 19.0606 2.00946 19.0253C2.03128 18.9899 2.06252 18.9614 2.09965 18.9428Z" fill="currentColor"/>
</svg>
