<svg width="24" height="24" viewBox="0 0 24 24" fill="none" xmlns="http://www.w3.org/2000/svg">
<path d="M12 21.0001C9.78333 21.0001 7.89583 20.2293 6.3375 18.6876C4.77917 17.1459 4 15.2834 4 13.1001C4 12.0001 4.20833 10.9834 4.625 10.0501C5.04167 9.11676 5.61667 8.28343 6.35 7.5501L10.95 3.0251C11.1 2.89176 11.2667 2.7876 11.45 2.7126C11.6333 2.6376 11.8167 2.6001 12 2.6001C12.1833 2.6001 12.3667 2.6376 12.55 2.7126C12.7333 2.7876 12.9 2.89176 13.05 3.0251L17.65 7.5501C18.3833 8.28343 18.9583 9.11676 19.375 10.0501C19.7917 10.9834 20 12.0001 20 13.1001C20 15.2834 19.2208 17.1459 17.6625 18.6876C16.1042 20.2293 14.2167 21.0001 12 21.0001ZM12 19.0001V4.8001L7.75 9.0001C7.16667 9.5501 6.72917 10.1709 6.4375 10.8626C6.14583 11.5543 6 12.3001 6 13.1001C6 14.7168 6.58333 16.1043 7.75 17.2626C8.91667 18.4209 10.3333 19.0001 12 19.0001Z" fill="currentColor"/>
</svg>
