<svg width="24" height="24" viewBox="0 0 24 24" fill="none" xmlns="http://www.w3.org/2000/svg">
<path fill-rule="evenodd" clip-rule="evenodd" d="M9.41207 14.7899C9.41207 16.6028 9.22351 18.0169 8.83493 19.1119C8.51334 20.0184 7.92375 21.1972 6.47181 21.4H5.92817C3.21093 21.4 1 19.2004 1 16.4972V2.80936C1 2.36279 1.36466 2 1.81355 2H16.8574C17.3063 2 17.671 2.36279 17.671 2.80936V13.9805H10.2256C9.77673 13.9805 9.41207 14.3433 9.41207 14.7899ZM13.5363 5.645H5.13568C4.6868 5.645 4.32214 6.00778 4.32214 6.45436C4.32214 6.90094 4.6868 7.26373 5.13568 7.26373H13.5363C13.9852 7.26373 14.3498 6.90094 14.3498 6.45436C14.3498 6.00778 13.9852 5.645 13.5363 5.645ZM4.32214 10.6221C4.32214 11.0687 4.6868 11.4315 5.13568 11.4315H13.5363C13.9852 11.4315 14.3498 11.0687 14.3498 10.6221C14.3498 10.1755 13.9852 9.81275 13.5363 9.81275H5.13568C4.6868 9.81275 4.32214 10.1755 4.32214 10.6221Z" fill="currentColor"/>
<path d="M22.1465 15.5964H19.7203C19.7126 15.5964 19.7047 15.5969 19.6968 15.5974C19.6889 15.5979 19.681 15.5983 19.6734 15.5983H11.0258C10.9282 18.4654 10.308 20.2793 9.45044 21.3991H17.94C20.708 21.3991 22.9601 19.1586 22.9601 16.4048C22.9601 15.9583 22.5954 15.5964 22.1465 15.5964Z" fill="currentColor"/>
</svg>
