<svg width="24" height="24" viewBox="0 0 34 23" fill="none" xmlns="http://www.w3.org/2000/svg">
<path fill-rule="evenodd" clip-rule="evenodd" d="M21.4419 0.0573702C15.3431 0.693077 10.8107 5.93827 11.1001 12.0256C11.1767 13.6391 11.5161 14.969 12.2335 16.4666C14.7363 21.6917 20.6915 24.2113 26.2083 22.3792C29.5504 21.2693 32.2402 18.6208 33.3953 15.3024C33.8945 13.8681 34 13.2035 34 11.4934C34 10.1726 33.9772 9.86821 33.8283 9.20352C33.369 7.15254 32.5144 5.43246 31.2005 3.91449C28.8296 1.17541 25.0496 -0.318704 21.4419 0.0573702ZM23.4629 2.43315C24.8762 2.59076 26.2075 3.0372 27.3063 3.7221C30.8982 5.96079 32.5028 10.2545 31.2427 14.2555C30.3084 17.2226 27.8586 19.5402 24.8502 20.3033C23.7797 20.5748 22.7203 20.6645 21.7637 20.5643C19.4363 20.3206 17.5395 19.3985 15.9581 17.742C12.6207 14.2461 12.6351 8.70767 15.9907 5.21243C17.5212 3.61822 19.4556 2.66232 21.614 2.43375C22.4505 2.34517 22.6727 2.3451 23.4629 2.43315ZM5.37037 4.11185C5.00507 4.2919 4.80912 4.61677 4.77546 5.09807C4.73927 5.61533 4.93872 5.95202 5.42908 6.20177C5.75796 6.36926 5.79542 6.37141 7.99212 6.35039C10.185 6.32936 10.226 6.32616 10.5023 6.15429C10.8832 5.91754 11.1036 5.47474 11.0551 5.0442C11.0128 4.66901 10.8378 4.39749 10.4822 4.15547C10.2403 3.9908 10.2012 3.98828 7.92539 3.98998C5.94879 3.9914 5.57896 4.00908 5.37037 4.11185ZM22.0405 5.7129C21.8793 5.8066 21.6787 6.00025 21.5947 6.14329C21.4499 6.3897 21.4407 6.53593 21.4197 8.94553C21.4046 10.6751 21.4245 11.5897 21.482 11.8064C21.5539 12.0778 21.7942 12.3546 23.1018 13.6726C23.9462 14.5237 24.7274 15.2677 24.8378 15.3259C25.0987 15.4635 25.6648 15.4613 25.9347 15.3218C26.3948 15.0838 26.6529 14.5097 26.534 13.9884C26.4786 13.7452 26.2447 13.4737 25.1251 12.3529L23.7826 11.0089V8.69853C23.7826 6.42484 23.7799 6.3842 23.6154 6.14247C23.2271 5.57186 22.5846 5.39664 22.0405 5.7129ZM0.747137 10.3879C0.644963 10.4287 0.482971 10.5353 0.387039 10.6247C-0.186546 11.1604 -0.114169 11.9989 0.54814 12.4897C0.753751 12.6421 0.833409 12.6456 4.65285 12.6657C8.41931 12.6855 8.55745 12.6813 8.83834 12.538C9.67512 12.1111 9.67735 10.8769 8.84213 10.4508C8.56748 10.3107 8.39368 10.3047 4.7441 10.3092C2.39708 10.3121 0.861498 10.3424 0.747137 10.3879ZM5.42908 16.785C4.93872 17.0348 4.73927 17.3715 4.77546 17.8887C4.80949 18.3759 5.00871 18.7006 5.38248 18.8779C5.60006 18.9812 5.96855 18.9985 7.93661 18.9985C10.1994 18.9985 10.2405 18.9959 10.4822 18.8313C10.8378 18.5893 11.0128 18.3178 11.0551 17.9426C11.1036 17.5121 10.8832 17.0693 10.5023 16.8325C10.226 16.6607 10.185 16.6575 7.99212 16.6364C5.79542 16.6154 5.75796 16.6176 5.42908 16.785Z" fill="currentColor"/>
</svg>
