<svg width="24" height="24" viewBox="0 0 24 24" fill="none" xmlns="http://www.w3.org/2000/svg">
<g clip-path="url(#clip0_1_229)">
<path d="M16.6 14.425L13.7 11.525C13.5 11.325 13.4042 11.0917 13.4125 10.825C13.4208 10.5583 13.5167 10.325 13.7 10.125C13.9 9.925 14.1333 9.82083 14.4 9.8125C14.6667 9.80417 14.9 9.9 15.1 10.1L19.725 14.725C19.825 14.825 19.8958 14.9333 19.9375 15.05C19.9792 15.1667 20 15.2917 20 15.425C20 15.5583 19.9792 15.6833 19.9375 15.8C19.8958 15.9167 19.825 16.025 19.725 16.125L15.15 20.7C14.95 20.9 14.7125 21 14.4375 21C14.1625 21 13.925 20.9 13.725 20.7C13.525 20.5 13.425 20.2667 13.425 20C13.425 19.7333 13.525 19.5 13.725 19.3L16.6 16.425L7.425 16.425C6.875 16.425 6.40417 16.2292 6.0125 15.8375C5.62083 15.4458 5.425 14.975 5.425 14.425L5.425 5.425C5.425 5.14167 5.52083 4.90417 5.7125 4.7125C5.90417 4.52083 6.14167 4.425 6.425 4.425C6.70834 4.425 6.94583 4.52083 7.1375 4.7125C7.32917 4.90417 7.425 5.14167 7.425 5.425L7.425 14.425L16.6 14.425Z" fill="currentColor"/>
</g>
<defs>
<clipPath id="clip0_1_229">
<rect width="24" height="24" fill="white" transform="matrix(-1 0 0 1 24 0)"/>
</clipPath>
</defs>
</svg>
