<svg width="24" height="24" viewBox="0 0 24 24" fill="none" xmlns="http://www.w3.org/2000/svg">
<g clip-path="url(#clip0_1_239)">
<path d="M6.3 14.575C6.3 14.3083 6.39583 14.075 6.5875 13.875C6.77917 13.675 7.025 13.575 7.325 13.575L16.475 13.575C16.775 13.575 17.0208 13.675 17.2125 13.875C17.4042 14.075 17.5 14.3083 17.5 14.575C17.5 14.7083 17.475 14.8333 17.425 14.95C17.375 15.0667 17.3 15.175 17.2 15.275L12.6 19.875C12.5 19.975 12.3917 20.0458 12.275 20.0875C12.1583 20.1292 12.0333 20.15 11.9 20.15C11.7667 20.15 11.6417 20.1292 11.525 20.0875C11.4083 20.0458 11.3 19.975 11.2 19.875L6.6 15.275C6.5 15.175 6.425 15.0667 6.375 14.95C6.325 14.8333 6.3 14.7083 6.3 14.575ZM8.525 15.075L11.9 18.45L15.275 15.075L8.525 15.075ZM6.3 8.575C6.3 8.44167 6.325 8.31667 6.375 8.2C6.425 8.08333 6.5 7.975 6.6 7.875L11.2 3.275C11.3 3.175 11.4083 3.10417 11.525 3.0625C11.6417 3.02083 11.7667 3 11.9 3C12.0333 3 12.1583 3.02083 12.275 3.0625C12.3917 3.10417 12.5 3.175 12.6 3.275L17.2 7.875C17.3 7.975 17.375 8.08333 17.425 8.2C17.475 8.31667 17.5 8.44167 17.5 8.575C17.5 8.84167 17.4042 9.075 17.2125 9.275C17.0208 9.475 16.775 9.575 16.475 9.575L7.325 9.575C7.025 9.575 6.77917 9.475 6.5875 9.275C6.39583 9.075 6.3 8.84167 6.3 8.575Z" fill="currentColor"/>
</g>
<defs>
<clipPath id="clip0_1_239">
<rect width="24" height="24" fill="white"/>
</clipPath>
</defs>
</svg>
