<svg width="24" height="24" viewBox="0 0 24 24" fill="none" xmlns="http://www.w3.org/2000/svg">
<path d="M8.85 15H12C12.2833 15 12.5208 14.9042 12.7125 14.7125C12.9042 14.5208 13 14.2833 13 14C13 13.7167 12.9042 13.4792 12.7125 13.2875C12.5208 13.0958 12.2833 13 12 13H8.85L9.725 12.1C9.90833 11.9167 10 11.6875 10 11.4125C10 11.1375 9.9 10.9 9.7 10.7C9.51667 10.5167 9.28333 10.425 9 10.425C8.71667 10.425 8.48333 10.5167 8.3 10.7L5.7 13.3C5.5 13.5 5.4 13.7333 5.4 14C5.4 14.2667 5.5 14.5 5.7 14.7L8.3 17.3C8.48333 17.4833 8.7125 17.5792 8.9875 17.5875C9.2625 17.5958 9.5 17.5 9.7 17.3C9.88333 17.1167 9.97917 16.8875 9.9875 16.6125C9.99583 16.3375 9.90833 16.1 9.725 15.9L8.85 15ZM15.15 11L14.275 11.9C14.0917 12.0833 14 12.3125 14 12.5875C14 12.8625 14.1 13.1 14.3 13.3C14.4833 13.4833 14.7167 13.575 15 13.575C15.2833 13.575 15.5167 13.4833 15.7 13.3L18.3 10.7C18.5 10.5 18.6 10.2667 18.6 10C18.6 9.73333 18.5 9.5 18.3 9.3L15.7 6.7C15.5167 6.51667 15.2875 6.42083 15.0125 6.4125C14.7375 6.40417 14.5 6.5 14.3 6.7C14.1167 6.88333 14.0208 7.1125 14.0125 7.3875C14.0042 7.6625 14.0917 7.9 14.275 8.1L15.15 9H12C11.7167 9 11.4792 9.09583 11.2875 9.2875C11.0958 9.47917 11 9.71667 11 10C11 10.2833 11.0958 10.5208 11.2875 10.7125C11.4792 10.9042 11.7167 11 12 11H15.15ZM12 22C10.6167 22 9.31667 21.7375 8.1 21.2125C6.88333 20.6875 5.825 19.975 4.925 19.075C4.025 18.175 3.3125 17.1167 2.7875 15.9C2.2625 14.6833 2 13.3833 2 12C2 10.6167 2.2625 9.31667 2.7875 8.1C3.3125 6.88333 4.025 5.825 4.925 4.925C5.825 4.025 6.88333 3.3125 8.1 2.7875C9.31667 2.2625 10.6167 2 12 2C13.3833 2 14.6833 2.2625 15.9 2.7875C17.1167 3.3125 18.175 4.025 19.075 4.925C19.975 5.825 20.6875 6.88333 21.2125 8.1C21.7375 9.31667 22 10.6167 22 12C22 13.3833 21.7375 14.6833 21.2125 15.9C20.6875 17.1167 19.975 18.175 19.075 19.075C18.175 19.975 17.1167 20.6875 15.9 21.2125C14.6833 21.7375 13.3833 22 12 22ZM12 20C14.2333 20 16.125 19.225 17.675 17.675C19.225 16.125 20 14.2333 20 12C20 9.76667 19.225 7.875 17.675 6.325C16.125 4.775 14.2333 4 12 4C9.76667 4 7.875 4.775 6.325 6.325C4.775 7.875 4 9.76667 4 12C4 14.2333 4.775 16.125 6.325 17.675C7.875 19.225 9.76667 20 12 20Z" fill="currentColor"/>
</svg>
