<svg width="24" height="24" viewBox="0 0 24 24" fill="none" xmlns="http://www.w3.org/2000/svg">
<path d="M10.575 19.575L1.525 10.525C1.325 10.325 1.175 10.1 1.075 9.85C0.975003 9.6 0.925003 9.35 0.925003 9.1C0.925003 8.81667 0.983336 8.54583 1.1 8.2875C1.21667 8.02917 1.39167 7.8 1.625 7.6C2.99167 6.41667 4.61667 5.52083 6.5 4.9125C8.38334 4.30417 10.2167 4 12 4C13.7833 4 15.6167 4.30417 17.5 4.9125C19.3833 5.52083 21.0083 6.41667 22.375 7.6C22.6083 7.8 22.7833 8.02917 22.9 8.2875C23.0167 8.54583 23.075 8.81667 23.075 9.1C23.075 9.35 23.025 9.6 22.925 9.85C22.825 10.1 22.675 10.325 22.475 10.525L13.425 19.575C13.225 19.775 13 19.925 12.75 20.025C12.5 20.125 12.25 20.175 12 20.175C11.75 20.175 11.5 20.125 11.25 20.025C11 19.925 10.775 19.775 10.575 19.575ZM12 18.15L21.1 9.05C19.7833 8.05 18.35 7.29167 16.8 6.775C15.25 6.25833 13.65 6 12 6C10.35 6 8.75 6.25833 7.2 6.775C5.65 7.29167 4.21667 8.05 2.9 9.05L12 18.15ZM11 14C11 14.2833 11.0958 14.5208 11.2875 14.7125C11.4792 14.9042 11.7167 15 12 15C12.2833 15 12.5208 14.9042 12.7125 14.7125C12.9042 14.5208 13 14.2833 13 14V11C13 10.7167 12.9042 10.4792 12.7125 10.2875C12.5208 10.0958 12.2833 10 12 10C11.7167 10 11.4792 10.0958 11.2875 10.2875C11.0958 10.4792 11 10.7167 11 11V14ZM12 9C12.2833 9 12.5208 8.90417 12.7125 8.7125C12.9042 8.52083 13 8.28333 13 8C13 7.71667 12.9042 7.47917 12.7125 7.2875C12.5208 7.09583 12.2833 7 12 7C11.7167 7 11.4792 7.09583 11.2875 7.2875C11.0958 7.47917 11 7.71667 11 8C11 8.28333 11.0958 8.52083 11.2875 8.7125C11.4792 8.90417 11.7167 9 12 9Z" fill="currentColor"/>
</svg>
