<svg width="24" height="24" viewBox="0 0 24 24" fill="none" xmlns="http://www.w3.org/2000/svg">
<path fill-rule="evenodd" clip-rule="evenodd" d="M2.875 4C2.875 3.93097 2.93096 3.875 3 3.875L21 3.875C21.069 3.875 21.125 3.93097 21.125 4L21.125 7C21.125 7.06904 21.069 7.125 21 7.125L20.5 7.125L20.5 8.875L21 8.875C22.0355 8.875 22.875 8.03554 22.875 7L22.875 4C22.875 2.96447 22.0355 2.125 21 2.125L3 2.125C1.96446 2.125 1.125 2.96447 1.125 4L1.125 7C1.125 8.03554 1.96446 8.875 3 8.875L3.5 8.875L3.5 7.125L3 7.125C2.93096 7.125 2.875 7.06904 2.875 7L2.875 4ZM4.5875 21.4125C4.97917 21.8042 5.45 22 6 22L18 22C18.55 22 19.0208 21.8042 19.4125 21.4125C19.8042 21.0208 20 20.55 20 20L20 5L4 5L4 20C4 20.55 4.19583 21.0208 4.5875 21.4125ZM16 20L16 7L18 7L18 20L16 20ZM6 7L12 7L12 20L6 20L6 7Z" fill="currentColor"/>
</svg>
