<svg width="24" height="24" viewBox="0 0 24 24" fill="none" xmlns="http://www.w3.org/2000/svg">
<g clip-path="url(#clip0_1_638)">
<path d="M10.7051 15.4749L15.5801 12.3499C15.8134 12.1999 15.9301 11.9915 15.9301 11.7249C15.9301 11.4582 15.8134 11.2499 15.5801 11.0999L10.7051 7.97485C10.4551 7.80819 10.2009 7.79569 9.94255 7.93735C9.68422 8.07902 9.55505 8.29985 9.55505 8.59985V14.8499C9.55505 15.1499 9.68422 15.3707 9.94255 15.5124C10.2009 15.654 10.4551 15.6415 10.7051 15.4749ZM12.0551 21.7249C10.6717 21.7249 9.37172 21.4624 8.15505 20.9374C6.93839 20.4124 5.88005 19.6999 4.98005 18.7999C4.08005 17.8999 3.36755 16.8415 2.84255 15.6249C2.31755 14.4082 2.05505 13.1082 2.05505 11.7249C2.05505 10.3415 2.31755 9.04152 2.84255 7.82485C3.36755 6.60819 4.08005 5.54985 4.98005 4.64985C5.88005 3.74985 6.93839 3.03735 8.15505 2.51235C9.37172 1.98735 10.6717 1.72485 12.0551 1.72485C13.4384 1.72485 14.7384 1.98735 15.9551 2.51235C17.1717 3.03735 18.2301 3.74985 19.1301 4.64985C20.0301 5.54985 20.7426 6.60819 21.2676 7.82485C21.7926 9.04152 22.0551 10.3415 22.0551 11.7249C22.0551 13.1082 21.7926 14.4082 21.2676 15.6249C20.7426 16.8415 20.0301 17.8999 19.1301 18.7999C18.2301 19.6999 17.1717 20.4124 15.9551 20.9374C14.7384 21.4624 13.4384 21.7249 12.0551 21.7249ZM12.0551 19.7249C14.2884 19.7249 16.1801 18.9499 17.7301 17.3999C19.2801 15.8499 20.0551 13.9582 20.0551 11.7249C20.0551 9.49152 19.2801 7.59985 17.7301 6.04985C16.1801 4.49985 14.2884 3.72485 12.0551 3.72485C9.82172 3.72485 7.93005 4.49985 6.38005 6.04985C4.83005 7.59985 4.05505 9.49152 4.05505 11.7249C4.05505 13.9582 4.83005 15.8499 6.38005 17.3999C7.93005 18.9499 9.82172 19.7249 12.0551 19.7249Z" fill="currentColor"/>
</g>
<defs>
<clipPath id="clip0_1_638">
<rect width="24" height="24" fill="white"/>
</clipPath>
</defs>
</svg>
