<svg width="24" height="24" viewBox="0 0 24 24" fill="none" xmlns="http://www.w3.org/2000/svg">
<path d="M12.97 11.6264V7.76218C12.97 7.51958 12.8849 7.31229 12.7145 7.1403C12.5442 6.96833 12.3348 6.88234 12.0862 6.88234C11.8377 6.88234 11.6256 6.96833 11.4499 7.1403C11.2742 7.31229 11.1864 7.51958 11.1864 7.76218V11.9828C11.1864 12.1192 11.2073 12.2427 11.2491 12.3532C11.291 12.4637 11.3538 12.5594 11.4375 12.6401L14.7704 16.0689C14.9399 16.2606 15.1548 16.3564 15.415 16.3564C15.6753 16.3564 15.9022 16.2606 16.0959 16.0689C16.2575 15.9091 16.3423 15.6967 16.3503 15.4315C16.3583 15.1664 16.2725 14.9441 16.093 14.7645L12.97 11.6264ZM12.0075 21.9971C10.6466 21.9971 9.35374 21.7336 8.12894 21.2066C6.90415 20.6796 5.84048 19.9649 4.93795 19.0625C4.03542 18.1601 3.32061 17.0966 2.79353 15.872C2.26646 14.6474 2.00293 13.3547 2.00293 11.994C2.00293 10.6291 2.26732 9.33939 2.79609 8.12488C3.32484 6.91036 4.041 5.85113 4.94459 4.94721C5.84819 4.04329 6.91129 3.32563 8.1339 2.79421C9.35653 2.26278 10.6475 1.99707 12.0067 1.99707C13.3717 1.99707 14.6613 2.26275 15.8755 2.79412C17.0897 3.32547 18.1488 4.04315 19.0528 4.94716C19.9569 5.8512 20.6745 6.91052 21.2059 8.12514C21.7372 9.33976 22.0029 10.6298 22.0029 11.9953C22.0029 13.3608 21.7372 14.653 21.2058 15.8718C20.6744 17.0906 19.9567 18.1518 19.0528 19.0554C18.1489 19.959 17.0899 20.6752 15.8759 21.2039C14.6619 21.7327 13.3724 21.9971 12.0075 21.9971Z" fill="currentColor"/>
</svg>
