<svg width="24" height="24" viewBox="0 0 24 24" fill="none" xmlns="http://www.w3.org/2000/svg">
<path d="M6.8499 12L9.2999 14.45C9.4999 14.65 9.59574 14.8833 9.5874 15.15C9.57907 15.4167 9.48324 15.65 9.2999 15.85C9.0999 16.05 8.8624 16.1542 8.5874 16.1625C8.3124 16.1708 8.0749 16.075 7.8749 15.875L4.6999 12.7C4.4999 12.5 4.3999 12.2667 4.3999 12C4.3999 11.7333 4.4999 11.5 4.6999 11.3L7.8749 8.125C8.0749 7.925 8.3124 7.82917 8.5874 7.8375C8.8624 7.84583 9.0999 7.95 9.2999 8.15C9.48324 8.35 9.57907 8.58333 9.5874 8.85C9.59574 9.11667 9.4999 9.35 9.2999 9.55L6.8499 12ZM6.9999 20V21H16.9999V20H6.9999ZM6.9999 4H16.9999V3H6.9999V4ZM17.1499 12L14.6999 9.55C14.4999 9.35 14.4041 9.11667 14.4124 8.85C14.4207 8.58333 14.5166 8.35 14.6999 8.15C14.8999 7.95 15.1374 7.84583 15.4124 7.8375C15.6874 7.82917 15.9249 7.925 16.1249 8.125L19.2999 11.3C19.4999 11.5 19.5999 11.7333 19.5999 12C19.5999 12.2667 19.4999 12.5 19.2999 12.7L16.1249 15.875C15.9249 16.075 15.6874 16.1708 15.4124 16.1625C15.1374 16.1542 14.8999 16.05 14.6999 15.85C14.5166 15.65 14.4207 15.4167 14.4124 15.15C14.4041 14.8833 14.4999 14.65 14.6999 14.45L17.1499 12ZM6.9999 23C6.4499 23 5.97907 22.8042 5.5874 22.4125C5.19574 22.0208 4.9999 21.55 4.9999 21V18C4.9999 17.7167 5.09574 17.4792 5.2874 17.2875C5.47907 17.0958 5.71657 17 5.9999 17C6.28324 17 6.52074 17.0958 6.7124 17.2875C6.90407 17.4792 6.9999 17.7167 6.9999 18H16.9999C16.9999 17.7167 17.0957 17.4792 17.2874 17.2875C17.4791 17.0958 17.7166 17 17.9999 17C18.2832 17 18.5207 17.0958 18.7124 17.2875C18.9041 17.4792 18.9999 17.7167 18.9999 18V21C18.9999 21.55 18.8041 22.0208 18.4124 22.4125C18.0207 22.8042 17.5499 23 16.9999 23H6.9999ZM6.9999 1H16.9999C17.5499 1 18.0207 1.19583 18.4124 1.5875C18.8041 1.97917 18.9999 2.45 18.9999 3V6C18.9999 6.28333 18.9041 6.52083 18.7124 6.7125C18.5207 6.90417 18.2832 7 17.9999 7C17.7166 7 17.4791 6.90417 17.2874 6.7125C17.0957 6.52083 16.9999 6.28333 16.9999 6H6.9999C6.9999 6.28333 6.90407 6.52083 6.7124 6.7125C6.52074 6.90417 6.28324 7 5.9999 7C5.71657 7 5.47907 6.90417 5.2874 6.7125C5.09574 6.52083 4.9999 6.28333 4.9999 6V3C4.9999 2.45 5.19574 1.97917 5.5874 1.5875C5.97907 1.19583 6.4499 1 6.9999 1Z" fill="currentColor"/>
</svg>
