<svg xmlns="http://www.w3.org/2000/svg" width="40" height="40" viewBox="0 0 40 40" fill="none">
  <path fill-rule="evenodd" clip-rule="evenodd" d="M24.4419 9.05737C18.3431 9.69308 13.8107 14.9383 14.1001 21.0256C14.1767 22.6391 14.5161 23.969 15.2335 25.4666C17.7363 30.6917 23.6915 33.2113 29.2083 31.3792C32.5504 30.2693 35.2402 27.6208 36.3953 24.3024C36.8945 22.8681 37 22.2035 37 20.4934C37 19.1726 36.9772 18.8682 36.8283 18.2035C36.369 16.1525 35.5144 14.4325 34.2005 12.9145C31.8296 10.1754 28.0496 8.6813 24.4419 9.05737ZM26.4629 11.4332C27.8762 11.5908 29.2075 12.0372 30.3063 12.7221C33.8982 14.9608 35.5028 19.2545 34.2427 23.2555C33.3084 26.2226 30.8586 28.5402 27.8502 29.3033C26.7797 29.5748 25.7203 29.6645 24.7637 29.5643C22.4363 29.3206 20.5395 28.3985 18.9581 26.742C15.6207 23.2461 15.6351 17.7077 18.9907 14.2124C20.5212 12.6182 22.4556 11.6623 24.614 11.4337C25.4505 11.3452 25.6727 11.3451 26.4629 11.4332ZM8.37037 13.1118C8.00507 13.2919 7.80912 13.6168 7.77546 14.0981C7.73927 14.6153 7.93872 14.952 8.42908 15.2018C8.75796 15.3693 8.79542 15.3714 10.9921 15.3504C13.185 15.3294 13.226 15.3262 13.5023 15.1543C13.8832 14.9175 14.1036 14.4747 14.0551 14.0442C14.0128 13.669 13.8378 13.3975 13.4822 13.1555C13.2403 12.9908 13.2012 12.9883 10.9254 12.99C8.94879 12.9914 8.57896 13.0091 8.37037 13.1118ZM25.0405 14.7129C24.8793 14.8066 24.6787 15.0002 24.5947 15.1433C24.4499 15.3897 24.4407 15.5359 24.4197 17.9455C24.4046 19.6751 24.4245 20.5897 24.482 20.8064C24.5539 21.0778 24.7942 21.3546 26.1018 22.6726C26.9462 23.5237 27.7274 24.2677 27.8378 24.3259C28.0987 24.4635 28.6648 24.4613 28.9347 24.3218C29.3948 24.0838 29.6529 23.5097 29.534 22.9884C29.4786 22.7452 29.2447 22.4737 28.1251 21.3529L26.7826 20.0089V17.6985C26.7826 15.4248 26.7799 15.3842 26.6154 15.1425C26.2271 14.5719 25.5846 14.3966 25.0405 14.7129ZM3.74714 19.3879C3.64496 19.4287 3.48297 19.5353 3.38704 19.6247C2.81345 20.1604 2.88583 20.9989 3.54814 21.4897C3.75375 21.6421 3.83341 21.6456 7.65285 21.6657C11.4193 21.6855 11.5575 21.6813 11.8383 21.538C12.6751 21.1111 12.6774 19.8769 11.8421 19.4508C11.5675 19.3107 11.3937 19.3047 7.7441 19.3092C5.39708 19.3121 3.8615 19.3424 3.74714 19.3879ZM8.42908 25.785C7.93872 26.0348 7.73927 26.3715 7.77546 26.8887C7.80949 27.3759 8.00871 27.7006 8.38248 27.8779C8.60006 27.9812 8.96855 27.9985 10.9366 27.9985C13.1994 27.9985 13.2405 27.9959 13.4822 27.8313C13.8378 27.5893 14.0128 27.3178 14.0551 26.9426C14.1036 26.5121 13.8832 26.0693 13.5023 25.8325C13.226 25.6607 13.185 25.6575 10.9921 25.6364C8.79542 25.6154 8.75796 25.6176 8.42908 25.785Z" fill="currentColor"/>
</svg>