<svg width="24" height="24" viewBox="0 0 24 24" fill="none" xmlns="http://www.w3.org/2000/svg">
<g clip-path="url(#clip0_1_724)">
<path d="M11.9999 18.5734L14.7961 15.7772C14.9975 15.582 15.2296 15.4843 15.4925 15.4843C15.7554 15.4843 15.9825 15.587 16.1739 15.7923C16.3652 15.977 16.4608 16.2062 16.4608 16.4799C16.4608 16.7536 16.3735 16.9806 16.1989 17.1609L12.6918 20.662C12.5923 20.7647 12.4834 20.8392 12.3649 20.8855C12.2464 20.9318 12.1235 20.955 11.9959 20.955C11.8684 20.955 11.7467 20.9318 11.6308 20.8855C11.5149 20.8392 11.4156 20.7647 11.3331 20.662L7.82601 17.1609C7.63471 16.9784 7.53906 16.75 7.53906 16.4757C7.53906 16.2013 7.63558 15.9717 7.82861 15.7867C8.02165 15.5851 8.25183 15.4853 8.51916 15.4873C8.7865 15.4893 9.01668 15.5859 9.20971 15.7772L11.9999 18.5734ZM11.9999 5.46367L9.20374 8.25984C9.00237 8.45514 8.77024 8.55279 8.50734 8.55279C8.24444 8.55279 8.01733 8.45012 7.82601 8.24477C7.63471 8.05608 7.53906 7.8249 7.53906 7.55122C7.53906 7.27755 7.63471 7.04419 7.82601 6.85114L11.3331 3.34409C11.4159 3.25772 11.5165 3.18632 11.6349 3.12987C11.7533 3.0734 11.8763 3.04517 12.0037 3.04517C12.1312 3.04517 12.2531 3.0734 12.3693 3.12987C12.4855 3.18632 12.593 3.25772 12.6918 3.34409L16.1989 6.85114C16.3735 7.04636 16.4608 7.28112 16.4608 7.55544C16.4608 7.82976 16.3643 8.06139 16.1713 8.25034C15.9782 8.45197 15.7476 8.5508 15.4794 8.54682C15.2112 8.54282 14.9815 8.44517 14.7902 8.25387L11.9999 5.46367Z" fill="currentColor"/>
</g>
<defs>
<clipPath id="clip0_1_724">
<rect width="24" height="24" fill="white"/>
</clipPath>
</defs>
</svg>
