<svg width="24" height="24" viewBox="0 0 24 24" fill="none" xmlns="http://www.w3.org/2000/svg">
<path d="M9.075 13.0001H3C2.71667 13.0001 2.47917 12.9043 2.2875 12.7126C2.09583 12.5209 2 12.2834 2 12.0001C2 11.7168 2.09583 11.4793 2.2875 11.2876C2.47917 11.0959 2.71667 11.0001 3 11.0001H9.075L6.75 8.6501C6.56667 8.46676 6.47083 8.2376 6.4625 7.9626C6.45417 7.6876 6.55 7.4501 6.75 7.2501C6.93333 7.06676 7.16667 6.9751 7.45 6.9751C7.73333 6.9751 7.96667 7.06676 8.15 7.2501L12.2 11.3001C12.4 11.5001 12.5 11.7334 12.5 12.0001C12.5 12.2668 12.4 12.5001 12.2 12.7001L8.15 16.7501C7.96667 16.9334 7.7375 17.0293 7.4625 17.0376C7.1875 17.0459 6.95 16.9501 6.75 16.7501C6.56667 16.5668 6.475 16.3334 6.475 16.0501C6.475 15.7668 6.56667 15.5334 6.75 15.3501L9.075 13.0001ZM14 17.0001C13.7167 17.0001 13.4792 16.9043 13.2875 16.7126C13.0958 16.5209 13 16.2834 13 16.0001C13 15.7168 13.0958 15.4793 13.2875 15.2876C13.4792 15.0959 13.7167 15.0001 14 15.0001H21C21.2833 15.0001 21.5208 15.0959 21.7125 15.2876C21.9042 15.4793 22 15.7168 22 16.0001C22 16.2834 21.9042 16.5209 21.7125 16.7126C21.5208 16.9043 21.2833 17.0001 21 17.0001H14ZM14 9.0001C13.7167 9.0001 13.4792 8.90426 13.2875 8.7126C13.0958 8.52093 13 8.28343 13 8.0001C13 7.71676 13.0958 7.47926 13.2875 7.2876C13.4792 7.09593 13.7167 7.0001 14 7.0001H21C21.2833 7.0001 21.5208 7.09593 21.7125 7.2876C21.9042 7.47926 22 7.71676 22 8.0001C22 8.28343 21.9042 8.52093 21.7125 8.7126C21.5208 8.90426 21.2833 9.0001 21 9.0001H14ZM17 13.0001C16.7167 13.0001 16.4792 12.9043 16.2875 12.7126C16.0958 12.5209 16 12.2834 16 12.0001C16 11.7168 16.0958 11.4793 16.2875 11.2876C16.4792 11.0959 16.7167 11.0001 17 11.0001H21C21.2833 11.0001 21.5208 11.0959 21.7125 11.2876C21.9042 11.4793 22 11.7168 22 12.0001C22 12.2834 21.9042 12.5209 21.7125 12.7126C21.5208 12.9043 21.2833 13.0001 21 13.0001H17Z" fill="currentColor"/>
</svg>
