<svg width="24" height="24" viewBox="0 0 24 24" fill="none" xmlns="http://www.w3.org/2000/svg">
<path fill-rule="evenodd" clip-rule="evenodd" d="M12.4016 8.17155C10.1924 8.17155 8.40157 9.96241 8.40157 12.1715C8.40157 14.3807 10.1924 16.1715 12.4016 16.1715C14.6107 16.1715 16.4016 14.3807 16.4016 12.1715C16.4016 9.96241 14.6107 8.17155 12.4016 8.17155ZM10.4016 12.1715C10.4016 11.067 11.297 10.1715 12.4016 10.1715C13.5061 10.1715 14.4016 11.067 14.4016 12.1715C14.4016 13.2761 13.5061 14.1715 12.4016 14.1715C11.297 14.1715 10.4016 13.2761 10.4016 12.1715Z" fill="currentColor"/>
<path fill-rule="evenodd" clip-rule="evenodd" d="M14.5229 2.87856C13.3513 1.70699 11.4518 1.70699 10.2803 2.87856L2.87868 10.2801C1.70711 11.4517 1.70711 13.3512 2.87868 14.5228L10.2803 21.9243C11.4518 23.0959 13.3513 23.0959 14.5229 21.9243L21.9245 14.5228C23.096 13.3512 23.096 11.4517 21.9245 10.2801L14.5229 2.87856ZM11.6945 4.29278C12.085 3.90225 12.7182 3.90225 13.1087 4.29278L20.5103 11.6943C20.9008 12.0849 20.9008 12.718 20.5103 13.1086L13.1087 20.5101C12.7182 20.9007 12.085 20.9007 11.6945 20.5101L4.29289 13.1086C3.90237 12.718 3.90237 12.0849 4.29289 11.6943L11.6945 4.29278Z" fill="currentColor"/>
<path d="M21.6999 2.48289L22.5049 3.28792C22.7783 3.56128 23.2215 3.56128 23.4949 3.28792C23.7683 3.01455 23.7683 2.57133 23.4949 2.29797L21.8484 0.651521C21.3798 0.182892 20.62 0.182891 20.1514 0.65152L18.5049 2.29797C18.2316 2.57133 18.2316 3.01455 18.5049 3.28792C18.7783 3.56128 19.2215 3.56128 19.4949 3.28792L20.2999 2.48289V5.79302C20.2999 6.17962 20.6133 6.49302 20.9999 6.49302C21.3865 6.49302 21.6999 6.17962 21.6999 5.79302V2.48289Z" fill="currentColor"/>
</svg>
