<svg width="24" height="24" viewBox="0 0 24 24" fill="none" xmlns="http://www.w3.org/2000/svg">
<path d="M12.4897 21.3807C12.2564 21.3807 12.0231 21.339 11.7897 21.2557C11.5564 21.1723 11.3481 21.0473 11.1647 20.8807C10.0814 19.8807 9.12308 18.9057 8.28975 17.9557C7.45641 17.0057 6.76058 16.0848 6.20225 15.1932C5.64391 14.3015 5.21891 13.4432 4.92725 12.6182C4.63558 11.7932 4.48975 11.0057 4.48975 10.2557C4.48975 7.75566 5.29391 5.764 6.90225 4.28066C8.51058 2.79733 10.3731 2.05566 12.4897 2.05566C14.6064 2.05566 16.4689 2.79733 18.0772 4.28066C19.6856 5.764 20.4897 7.75566 20.4897 10.2557C20.4897 11.0057 20.3439 11.7932 20.0522 12.6182C19.7606 13.4432 19.3356 14.3015 18.7772 15.1932C18.2189 16.0848 17.5231 17.0057 16.6897 17.9557C15.8564 18.9057 14.8981 19.8807 13.8147 20.8807C13.6314 21.0473 13.4231 21.1723 13.1897 21.2557C12.9564 21.339 12.7231 21.3807 12.4897 21.3807ZM12.4897 12.0557C13.0397 12.0557 13.5106 11.8598 13.9022 11.4682C14.2939 11.0765 14.4897 10.6057 14.4897 10.0557C14.4897 9.50566 14.2939 9.03483 13.9022 8.64316C13.5106 8.2515 13.0397 8.05566 12.4897 8.05566C11.9397 8.05566 11.4689 8.2515 11.0772 8.64316C10.6856 9.03483 10.4897 9.50566 10.4897 10.0557C10.4897 10.6057 10.6856 11.0765 11.0772 11.4682C11.4689 11.8598 11.9397 12.0557 12.4897 12.0557Z" fill="currentColor"/>
</svg>
