<svg width="24" height="24" viewBox="0 0 24 24" fill="none" xmlns="http://www.w3.org/2000/svg">
<path d="M12 21.8999C11.8833 21.8999 11.775 21.8916 11.675 21.8749C11.575 21.8582 11.475 21.8332 11.375 21.7999C9.125 21.0499 7.33333 19.6624 6 17.6374C4.66667 15.6124 4 13.4332 4 11.0999V6.3749C4 5.95824 4.12083 5.58324 4.3625 5.2499C4.60417 4.91657 4.91667 4.6749 5.3 4.5249L11.3 2.2749C11.5333 2.19157 11.7667 2.1499 12 2.1499C12.2333 2.1499 12.4667 2.19157 12.7 2.2749L18.7 4.5249C19.0833 4.6749 19.3958 4.91657 19.6375 5.2499C19.8792 5.58324 20 5.95824 20 6.3749V11.0999C20 12.3499 19.8042 13.5707 19.4125 14.7624C19.0208 15.9541 18.4583 17.0332 17.725 17.9999C17.5917 18.1832 17.4125 18.2791 17.1875 18.2874C16.9625 18.2957 16.7667 18.2166 16.6 18.0499L14 15.4499C13.7 15.6332 13.3792 15.7707 13.0375 15.8624C12.6958 15.9541 12.35 15.9999 12 15.9999C10.9 15.9999 9.95833 15.6082 9.175 14.8249C8.39167 14.0416 8 13.0999 8 11.9999C8 10.8999 8.39167 9.95824 9.175 9.1749C9.95833 8.39157 10.9 7.9999 12 7.9999C13.1 7.9999 14.0417 8.39157 14.825 9.1749C15.6083 9.95824 16 10.8999 16 11.9999C16 12.3666 15.9542 12.7207 15.8625 13.0624C15.7708 13.4041 15.6333 13.7332 15.45 14.0499L16.95 15.5499C17.2833 14.8666 17.5417 14.1499 17.725 13.3999C17.9083 12.6499 18 11.8832 18 11.0999V6.3749L12 4.1249L6 6.3749V11.0999C6 13.1166 6.56667 14.9499 7.7 16.5999C8.83333 18.2499 10.2667 19.3499 12 19.8999C12.2667 19.8166 12.5292 19.7166 12.7875 19.5999C13.0458 19.4832 13.3 19.3499 13.55 19.1999C13.7833 19.0666 14.0375 19.0166 14.3125 19.0499C14.5875 19.0832 14.8083 19.2166 14.975 19.4499C15.1417 19.6832 15.1958 19.9332 15.1375 20.1999C15.0792 20.4666 14.9333 20.6749 14.7 20.8249C14.3667 21.0249 14.0333 21.2041 13.7 21.3624C13.3667 21.5207 13.0083 21.6666 12.625 21.7999C12.525 21.8332 12.425 21.8582 12.325 21.8749C12.225 21.8916 12.1167 21.8999 12 21.8999ZM12 13.9999C12.55 13.9999 13.0208 13.8041 13.4125 13.4124C13.8042 13.0207 14 12.5499 14 11.9999C14 11.4499 13.8042 10.9791 13.4125 10.5874C13.0208 10.1957 12.55 9.9999 12 9.9999C11.45 9.9999 10.9792 10.1957 10.5875 10.5874C10.1958 10.9791 10 11.4499 10 11.9999C10 12.5499 10.1958 13.0207 10.5875 13.4124C10.9792 13.8041 11.45 13.9999 12 13.9999Z" fill="currentColor"/>
</svg>
