<svg width="24" height="24" viewBox="0 0 24 24" fill="none" xmlns="http://www.w3.org/2000/svg">
<path d="M4 14C3.45 14 2.97917 13.8042 2.5875 13.4125C2.19583 13.0208 2 12.55 2 12C2 11.45 2.19583 10.9792 2.5875 10.5875C2.97917 10.1958 3.45 10 4 10C4.55 10 5.02083 10.1958 5.4125 10.5875C5.80417 10.9792 6 11.45 6 12C6 12.55 5.80417 13.0208 5.4125 13.4125C5.02083 13.8042 4.55 14 4 14ZM4.95 17.6L7.9 14.65C8.08333 14.4667 8.31667 14.375 8.6 14.375C8.88333 14.375 9.11667 14.4667 9.3 14.65C9.48333 14.8333 9.575 15.0667 9.575 15.35C9.575 15.6333 9.48333 15.8667 9.3 16.05L6.35 19C6.16667 19.1833 5.93333 19.275 5.65 19.275C5.36667 19.275 5.13333 19.1833 4.95 19C4.76667 18.8167 4.675 18.5833 4.675 18.3C4.675 18.0167 4.76667 17.7833 4.95 17.6ZM7.95 9.3L5 6.35C4.81667 6.16667 4.725 5.93333 4.725 5.65C4.725 5.36667 4.81667 5.13333 5 4.95C5.18333 4.76667 5.41667 4.675 5.7 4.675C5.98333 4.675 6.21667 4.76667 6.4 4.95L9.35 7.9C9.53333 8.08333 9.625 8.31667 9.625 8.6C9.625 8.88333 9.53333 9.11667 9.35 9.3C9.16667 9.48333 8.93333 9.575 8.65 9.575C8.36667 9.575 8.13333 9.48333 7.95 9.3ZM12 22C11.45 22 10.9792 21.8042 10.5875 21.4125C10.1958 21.0208 10 20.55 10 20C10 19.45 10.1958 18.9792 10.5875 18.5875C10.9792 18.1958 11.45 18 12 18C12.55 18 13.0208 18.1958 13.4125 18.5875C13.8042 18.9792 14 19.45 14 20C14 20.55 13.8042 21.0208 13.4125 21.4125C13.0208 21.8042 12.55 22 12 22ZM12 6C11.45 6 10.9792 5.80417 10.5875 5.4125C10.1958 5.02083 10 4.55 10 4C10 3.45 10.1958 2.97917 10.5875 2.5875C10.9792 2.19583 11.45 2 12 2C12.55 2 13.0208 2.19583 13.4125 2.5875C13.8042 2.97917 14 3.45 14 4C14 4.55 13.8042 5.02083 13.4125 5.4125C13.0208 5.80417 12.55 6 12 6ZM14.65 7.9L17.65 4.95C17.8333 4.76667 18.0625 4.67083 18.3375 4.6625C18.6125 4.65417 18.85 4.75 19.05 4.95C19.2333 5.13333 19.325 5.36667 19.325 5.65C19.325 5.93333 19.2333 6.16667 19.05 6.35L16.075 9.325C15.875 9.525 15.6375 9.625 15.3625 9.625C15.0875 9.625 14.85 9.525 14.65 9.325C14.4667 9.125 14.3708 8.8875 14.3625 8.6125C14.3542 8.3375 14.45 8.1 14.65 7.9ZM17.65 19L14.7 16.05C14.5167 15.8667 14.425 15.6333 14.425 15.35C14.425 15.0667 14.5167 14.8333 14.7 14.65C14.8833 14.4667 15.1167 14.375 15.4 14.375C15.6833 14.375 15.9167 14.4667 16.1 14.65L19.05 17.6C19.2333 17.7833 19.325 18.0167 19.325 18.3C19.325 18.5833 19.2333 18.8167 19.05 19C18.8667 19.1833 18.6333 19.275 18.35 19.275C18.0667 19.275 17.8333 19.1833 17.65 19ZM20 14C19.45 14 18.9792 13.8042 18.5875 13.4125C18.1958 13.0208 18 12.55 18 12C18 11.45 18.1958 10.9792 18.5875 10.5875C18.9792 10.1958 19.45 10 20 10C20.55 10 21.0208 10.1958 21.4125 10.5875C21.8042 10.9792 22 11.45 22 12C22 12.55 21.8042 13.0208 21.4125 13.4125C21.0208 13.8042 20.55 14 20 14Z" fill="currentColor"/>
</svg>
