<svg width="24" height="24" viewBox="0 0 24 24" fill="none" xmlns="http://www.w3.org/2000/svg">
<path d="M19.1 22L14.25 17.15C12.7666 18.35 11.1541 19.2917 9.41245 19.975C7.67078 20.6583 5.88329 21 4.04995 21C3.64995 21 3.37495 20.9 3.22495 20.7C3.07495 20.5 2.99995 20.25 2.99995 19.95V15.9C2.99995 15.6667 3.07495 15.4625 3.22495 15.2875C3.37495 15.1125 3.56662 15 3.79995 14.95L7.24995 14.25C7.43329 14.2167 7.66245 14.2417 7.93745 14.325C8.21245 14.4083 8.41662 14.5167 8.54995 14.65L10.9 17C11.2 16.8167 11.525 16.6083 11.875 16.375C12.225 16.1417 12.5333 15.9167 12.8 15.7L2.09995 5C1.91662 4.81667 1.82495 4.58333 1.82495 4.3C1.82495 4.01667 1.91662 3.78333 2.09995 3.6C2.28328 3.41667 2.51662 3.325 2.79995 3.325C3.08328 3.325 3.31662 3.41667 3.49995 3.6L20.5 20.6C20.6833 20.7833 20.775 21.0167 20.775 21.3C20.775 21.5833 20.6833 21.8167 20.5 22C20.3166 22.1833 20.0833 22.275 19.8 22.275C19.5166 22.275 19.2833 22.1833 19.1 22ZM8.99995 17.9L7.34995 16.25L4.99995 16.75V18.95C5.68328 18.9 6.35828 18.7833 7.02495 18.6C7.69162 18.4167 8.34995 18.1833 8.99995 17.9ZM17.05 14.3L15.65 12.9C15.9 12.6167 16.1541 12.2917 16.4125 11.925C16.6708 11.5583 16.875 11.2167 17.025 10.9L14.6 8.45C14.4666 8.31667 14.375 8.12917 14.325 7.8875C14.275 7.64583 14.2666 7.45 14.3 7.3L14.95 3.8C15 3.56667 15.1125 3.375 15.2875 3.225C15.4625 3.075 15.6666 3 15.9 3H19.95C20.25 3 20.5 3.1 20.7 3.3C20.9 3.5 21 3.75 21 4.05C21 5.88333 20.65 7.67083 19.95 9.4125C19.25 11.1542 18.2833 12.7833 17.05 14.3ZM17.95 9C18.2333 8.35 18.45 7.69167 18.6 7.025C18.75 6.35833 18.8666 5.68333 18.95 5H16.75L16.3 7.35L17.95 9Z" fill="currentColor"/>
</svg>
