<svg width="24" height="24" viewBox="0 0 24 24" fill="none" xmlns="http://www.w3.org/2000/svg">
<path d="M3.315 9.93588C3.16065 9.83371 3.06156 9.69893 3.01773 9.53153C2.97388 9.36414 3.01138 9.19965 3.13023 9.03805C4.14471 7.57428 5.43819 6.43896 7.01065 5.63207C8.58312 4.82519 10.2621 4.42175 12.0476 4.42175C13.8143 4.42175 15.4786 4.80327 17.0406 5.5663C18.6025 6.32935 19.8991 7.43225 20.9302 8.875C21.0679 9.08153 21.113 9.26903 21.0656 9.4375C21.0181 9.60598 20.9255 9.74603 20.7878 9.85763C20.6501 9.95979 20.4934 10.0044 20.3177 9.99132C20.142 9.97827 19.9947 9.88153 19.8759 9.7011C18.9969 8.42937 17.8625 7.45944 16.4726 6.79132C15.0828 6.12321 13.6078 5.78444 12.0476 5.77502C10.4875 5.76559 9.02027 6.09965 7.646 6.7772C6.27172 7.45473 5.15089 8.43407 4.2835 9.71522C4.14582 9.92176 3.9844 10.0334 3.79925 10.05C3.6141 10.0667 3.45269 10.0286 3.315 9.93588ZM15.0563 22.3316C13.1346 21.9265 11.6261 21.0475 10.5308 19.6946C9.43547 18.3417 8.88783 16.7177 8.88783 14.8228C8.88783 13.933 9.19725 13.1788 9.8161 12.5603C10.4349 11.9418 11.1835 11.6326 12.0618 11.6326C12.94 11.6326 13.6886 11.9324 14.3074 12.5321C14.9262 13.1317 15.2357 13.867 15.2357 14.738C15.2357 15.2409 15.4157 15.6705 15.7759 16.0266C16.136 16.3828 16.5712 16.5609 17.0813 16.5609C17.5915 16.5609 18.0206 16.3828 18.3688 16.0266C18.717 15.6705 18.8911 15.2409 18.8911 14.738C18.8911 12.8801 18.2228 11.3139 16.8862 10.0397C15.5496 8.76539 13.9404 8.12825 12.0585 8.12825C10.1766 8.12825 8.57443 8.77717 7.25198 10.075C5.92951 11.3728 5.26828 12.9518 5.26828 14.812C5.26828 15.3815 5.30814 15.9475 5.38785 16.5098C5.46757 17.0721 5.61612 17.6638 5.8335 18.2848C5.90234 18.4913 5.90053 18.6741 5.82808 18.8332C5.75561 18.9922 5.63387 19.1062 5.46285 19.175C5.27299 19.2438 5.09671 19.2397 4.93403 19.1625C4.77134 19.0853 4.64616 18.9424 4.55848 18.7337C4.34616 18.1873 4.18584 17.5886 4.0775 16.9375C3.96917 16.2864 3.915 15.5815 3.915 14.8228C3.915 12.5685 4.70739 10.6677 6.29218 9.12062C7.87696 7.57352 9.79544 6.79997 12.0476 6.79997C14.307 6.79997 16.2357 7.56646 17.8335 9.09943C19.4313 10.6324 20.2302 12.5119 20.2302 14.738C20.2302 15.6185 19.925 16.3637 19.3145 16.9739C18.704 17.5841 17.9596 17.8891 17.0813 17.8891C16.203 17.8891 15.4503 17.5958 14.8232 17.0092C14.196 16.4226 13.8824 15.6938 13.8824 14.8228C13.8824 14.3105 13.7065 13.8763 13.3547 13.5201C13.0029 13.1639 12.5719 12.9859 12.0618 12.9859C11.5516 12.9859 11.1206 13.1639 10.7688 13.5201C10.417 13.8763 10.2411 14.3105 10.2411 14.8228C10.2411 16.4112 10.692 17.7471 11.5938 18.8304C12.4956 19.9138 13.7755 20.6485 15.4335 21.0348C15.6306 21.0753 15.7636 21.1728 15.8324 21.3272C15.9013 21.4815 15.9143 21.6442 15.8716 21.8152C15.8288 21.9696 15.7409 22.1049 15.608 22.2212C15.475 22.3375 15.2911 22.3743 15.0563 22.3316ZM6.5226 4.72502C6.33275 4.83661 6.14525 4.86922 5.9601 4.82285C5.77495 4.77647 5.63492 4.66777 5.54 4.49675C5.4639 4.34458 5.45194 4.18136 5.50413 4.00707C5.55629 3.83279 5.66789 3.69457 5.8389 3.5924C6.79109 3.0453 7.79435 2.64312 8.8487 2.38587C9.90305 2.12862 10.9741 2 12.0618 2C13.1473 2 14.203 2.12917 15.2291 2.3875C16.2552 2.64583 17.248 3.02138 18.2074 3.51413C18.4139 3.62573 18.5367 3.76577 18.5759 3.93425C18.615 4.10273 18.6002 4.26415 18.5313 4.4185C18.4531 4.57285 18.332 4.69043 18.1683 4.77123C18.0045 4.85201 17.8204 4.83661 17.6161 4.72502C16.7516 4.26559 15.8509 3.91976 14.9139 3.68752C13.977 3.45527 13.0262 3.33915 12.0618 3.33915C11.0951 3.33915 10.1427 3.45165 9.20468 3.67665C8.26663 3.90165 7.3726 4.25111 6.5226 4.72502ZM9.3313 21.8685C8.34797 20.854 7.615 19.7857 7.1324 18.6636C6.64979 17.5415 6.40848 16.2612 6.40848 14.8228C6.40848 13.2591 6.95848 11.9328 8.05848 10.844C9.15848 9.75526 10.4929 9.21088 12.0618 9.21088C13.6212 9.21088 14.9592 9.74584 16.0759 10.8158C17.1925 11.8857 17.7509 13.1931 17.7509 14.7381C17.7509 14.954 17.6933 15.1314 17.5781 15.2701C17.4628 15.4089 17.2973 15.4783 17.0813 15.4783C16.8726 15.4783 16.7065 15.4089 16.5829 15.2701C16.4594 15.1314 16.3976 14.954 16.3976 14.7381C16.3976 13.5634 15.9728 12.5718 15.1232 11.7631C14.2735 10.9544 13.2531 10.55 12.0618 10.55C10.861 10.55 9.84182 10.9638 9.00415 11.7913C8.16647 12.6189 7.74763 13.6294 7.74763 14.8228C7.74763 16.0975 7.9527 17.2033 8.36285 18.1402C8.77299 19.0772 9.42334 20.0159 10.3139 20.9565C10.4516 21.0942 10.5228 21.2509 10.5275 21.4267C10.5322 21.6024 10.4799 21.7544 10.3705 21.8826C10.2328 22.0391 10.0596 22.1103 9.85088 22.0962C9.64218 22.0821 9.46899 22.0062 9.3313 21.8685ZM17.1781 20.2674C15.5911 20.2674 14.2282 19.7792 13.0895 18.8028C11.9507 17.8263 11.3813 16.4808 11.3813 14.7663C11.3813 14.5765 11.4413 14.4127 11.5612 14.275C11.6811 14.1373 11.8444 14.0685 12.0509 14.0685C12.2574 14.0685 12.4206 14.1373 12.5406 14.275C12.6605 14.4127 12.7205 14.5765 12.7205 14.7663C12.7205 16.0917 13.1563 17.1143 14.0281 17.8343C14.8998 18.5542 15.9498 18.9141 17.1781 18.9141C17.3157 18.9141 17.4833 18.9011 17.6808 18.875C17.8782 18.8489 18.0723 18.8286 18.2629 18.8141C18.4505 18.7996 18.6127 18.844 18.7493 18.9473C18.8859 19.0506 18.9614 19.196 18.9759 19.3837C18.9904 19.5736 18.9465 19.7256 18.8444 19.8397C18.7422 19.9538 18.615 20.037 18.4629 20.0892C18.2005 20.1725 17.9522 20.223 17.7177 20.2408C17.4833 20.2585 17.3034 20.2674 17.1781 20.2674Z" fill="currentColor"/>
</svg>
