<svg width="24" height="24" viewBox="0 0 24 24" fill="none" xmlns="http://www.w3.org/2000/svg">
<g clip-path="url(#clip0_1_567)">
<path d="M10.625 12.9357L9.175 11.5107C8.99167 11.3274 8.7625 11.2357 8.4875 11.2357C8.2125 11.2357 7.975 11.3357 7.775 11.5357C7.59167 11.719 7.5 11.9524 7.5 12.2357C7.5 12.519 7.59167 12.7524 7.775 12.9357L9.925 15.0857C10.125 15.2857 10.3583 15.3857 10.625 15.3857C10.8917 15.3857 11.125 15.2857 11.325 15.0857L15.575 10.8357C15.775 10.6357 15.8708 10.4024 15.8625 10.1357C15.8542 9.86905 15.7583 9.63571 15.575 9.43571C15.375 9.23571 15.1375 9.13155 14.8625 9.12321C14.5875 9.11488 14.35 9.21071 14.15 9.41071L10.625 12.9357ZM7.825 21.9857L6.375 19.5357L3.625 18.9357C3.375 18.8857 3.175 18.7565 3.025 18.5482C2.875 18.3399 2.81667 18.1107 2.85 17.8607L3.125 15.0357L1.25 12.8857C1.08333 12.7024 1 12.4857 1 12.2357C1 11.9857 1.08333 11.769 1.25 11.5857L3.125 9.43571L2.85 6.61071C2.81667 6.36071 2.875 6.13155 3.025 5.92321C3.175 5.71488 3.375 5.58571 3.625 5.53571L6.375 4.93571L7.825 2.48571C7.95833 2.26905 8.14167 2.12321 8.375 2.04821C8.60833 1.97321 8.84167 1.98571 9.075 2.08571L11.675 3.18571L14.275 2.08571C14.5083 1.98571 14.7417 1.97321 14.975 2.04821C15.2083 2.12321 15.3917 2.26905 15.525 2.48571L16.975 4.93571L19.725 5.53571C19.975 5.58571 20.175 5.71488 20.325 5.92321C20.475 6.13155 20.5333 6.36071 20.5 6.61071L20.225 9.43571L22.1 11.5857C22.2667 11.769 22.35 11.9857 22.35 12.2357C22.35 12.4857 22.2667 12.7024 22.1 12.8857L20.225 15.0357L20.5 17.8607C20.5333 18.1107 20.475 18.3399 20.325 18.5482C20.175 18.7565 19.975 18.8857 19.725 18.9357L16.975 19.5357L15.525 21.9857C15.3917 22.2024 15.2083 22.3482 14.975 22.4232C14.7417 22.4982 14.5083 22.4857 14.275 22.3857L11.675 21.2857L9.075 22.3857C8.84167 22.4857 8.60833 22.4982 8.375 22.4232C8.14167 22.3482 7.95833 22.2024 7.825 21.9857Z" fill="currentColor"/>
</g>
<defs>
<clipPath id="clip0_1_567">
<rect width="24" height="24" fill="white"/>
</clipPath>
</defs>
</svg>
