<svg width="24" height="24" viewBox="0 0 24 24" fill="none" xmlns="http://www.w3.org/2000/svg">
<path d="M8 24C7.71667 24 7.47917 23.9042 7.2875 23.7125C7.09583 23.5208 7 23.2833 7 23C7 22.7167 7.09583 22.4792 7.2875 22.2875C7.47917 22.0958 7.71667 22 8 22C8.28333 22 8.52083 22.0958 8.7125 22.2875C8.90417 22.4792 9 22.7167 9 23C9 23.2833 8.90417 23.5208 8.7125 23.7125C8.52083 23.9042 8.28333 24 8 24ZM12 24C11.7167 24 11.4792 23.9042 11.2875 23.7125C11.0958 23.5208 11 23.2833 11 23C11 22.7167 11.0958 22.4792 11.2875 22.2875C11.4792 22.0958 11.7167 22 12 22C12.2833 22 12.5208 22.0958 12.7125 22.2875C12.9042 22.4792 13 22.7167 13 23C13 23.2833 12.9042 23.5208 12.7125 23.7125C12.5208 23.9042 12.2833 24 12 24ZM16 24C15.7167 24 15.4792 23.9042 15.2875 23.7125C15.0958 23.5208 15 23.2833 15 23C15 22.7167 15.0958 22.4792 15.2875 22.2875C15.4792 22.0958 15.7167 22 16 22C16.2833 22 16.5208 22.0958 16.7125 22.2875C16.9042 22.4792 17 22.7167 17 23C17 23.2833 16.9042 23.5208 16.7125 23.7125C16.5208 23.9042 16.2833 24 16 24ZM8 20C7.45 20 6.97917 19.8042 6.5875 19.4125C6.19583 19.0208 6 18.55 6 18V2C6 1.45 6.19583 0.979167 6.5875 0.5875C6.97917 0.195833 7.45 0 8 0H16C16.55 0 17.0208 0.195833 17.4125 0.5875C17.8042 0.979167 18 1.45 18 2V18C18 18.55 17.8042 19.0208 17.4125 19.4125C17.0208 19.8042 16.55 20 16 20H8ZM8 18H16V17H8V18ZM8 15H16V5H8V15ZM8 3H16V2H8V3Z" fill="currentColor"/>
</svg>
