<svg width="24" height="24" viewBox="0 0 24 24" fill="none" xmlns="http://www.w3.org/2000/svg">
<g clip-path="url(#clip0_1_281)">
<path d="M4.85 13.7249C4.3668 13.7249 3.9586 13.5541 3.6254 13.2125C3.2918 12.8709 3.125 12.4667 3.125 11.9999C3.125 11.5167 3.2958 11.1083 3.6374 10.7747C3.9794 10.4415 4.3836 10.2749 4.85 10.2749C5.3168 10.2749 5.721 10.4457 6.0626 10.7873C6.4042 11.1289 6.575 11.5331 6.575 11.9999C6.575 12.4831 6.4042 12.8915 6.0626 13.2251C5.721 13.5583 5.3168 13.7249 4.85 13.7249ZM12.0002 13.7249C11.517 13.7249 11.1086 13.5541 10.775 13.2125C10.4418 12.8709 10.2752 12.4667 10.2752 11.9999C10.2752 11.5167 10.446 11.1083 10.7876 10.7747C11.1292 10.4415 11.5334 10.2749 12.0002 10.2749C12.4834 10.2749 12.8918 10.4457 13.2254 10.7873C13.5586 11.1289 13.7252 11.5331 13.7252 11.9999C13.7252 12.4831 13.5544 12.8915 13.2128 13.2251C12.8712 13.5583 12.467 13.7249 12.0002 13.7249ZM19.1504 13.7249C18.6668 13.7249 18.2584 13.5541 17.9252 13.2125C17.592 12.8709 17.4254 12.4667 17.4254 11.9999C17.4254 11.5167 17.5962 11.1083 17.9378 10.7747C18.2794 10.4415 18.6836 10.2749 19.1504 10.2749C19.6336 10.2749 20.0418 10.4457 20.375 10.7873C20.7086 11.1289 20.8754 11.5331 20.8754 11.9999C20.8754 12.4831 20.7086 12.8915 20.375 13.2251C20.0418 13.5583 19.6336 13.7249 19.1504 13.7249Z" fill="currentColor"/>
</g>
<defs>
<clipPath id="clip0_1_281">
<rect width="24" height="24" fill="white"/>
</clipPath>
</defs>
</svg>
