<svg width="24" height="24" viewBox="0 0 24 24" fill="none" xmlns="http://www.w3.org/2000/svg">
<path d="M6 10H4V20H20V10H11C10.7167 10 10.4792 9.90417 10.2875 9.7125C10.0958 9.52083 10 9.28333 10 9C10 8.71667 10.0958 8.47917 10.2875 8.2875C10.4792 8.09583 10.7167 8 11 8H20C20.55 8 21.0208 8.19583 21.4125 8.5875C21.8042 8.97917 22 9.45 22 10V20C22 20.55 21.8042 21.0208 21.4125 21.4125C21.0208 21.8042 20.55 22 20 22H4C3.45 22 2.97917 21.8042 2.5875 21.4125C2.19583 21.0208 2 20.55 2 20V10C2 9.45 2.19583 8.97917 2.5875 8.5875C2.97917 8.19583 3.45 8 4 8H6V3C6 2.71667 6.09583 2.47917 6.2875 2.2875C6.47917 2.09583 6.71667 2 7 2H13C13.2833 2 13.5208 2.09583 13.7125 2.2875C13.9042 2.47917 14 2.71667 14 3V5C14 5.28333 13.9042 5.52083 13.7125 5.7125C13.5208 5.90417 13.2833 6 13 6H8V13C8 13.2833 7.90417 13.5208 7.7125 13.7125C7.52083 13.9042 7.28333 14 7 14C6.71667 14 6.47917 13.9042 6.2875 13.7125C6.09583 13.5208 6 13.2833 6 13V10Z" fill="currentColor"/>
</svg>
