<svg width="24" height="24" viewBox="0 0 24 24" fill="none" xmlns="http://www.w3.org/2000/svg">
<path d="M4.35005 10.5C5.46672 9.7 6.67505 9.08333 7.97505 8.65C9.27505 8.21667 10.6167 8 12 8C13.3834 8 14.725 8.21667 16.025 8.65C17.325 9.08333 18.5334 9.7 19.65 10.5L21.1 9.05C19.7834 8.05 18.35 7.29167 16.8 6.775C15.25 6.25833 13.65 6 12 6C10.35 6 8.75005 6.25833 7.20005 6.775C5.65005 7.29167 4.21672 8.05 2.90005 9.05L4.35005 10.5ZM10.575 19.575L1.52505 10.525C1.32505 10.325 1.17505 10.1 1.07505 9.85C0.975049 9.6 0.925049 9.35 0.925049 9.1C0.925049 8.81667 0.983382 8.54583 1.10005 8.2875C1.21672 8.02917 1.39172 7.8 1.62505 7.6C2.99172 6.41667 4.61672 5.52083 6.50005 4.9125C8.38338 4.30417 10.2167 4 12 4C13.7834 4 15.6167 4.30417 17.5 4.9125C19.3834 5.52083 21.0084 6.41667 22.375 7.6C22.6084 7.8 22.7834 8.02917 22.9 8.2875C23.0167 8.54583 23.075 8.81667 23.075 9.1C23.075 9.35 23.025 9.6 22.925 9.85C22.825 10.1 22.6751 10.325 22.475 10.525L13.425 19.575C13.225 19.775 13 19.925 12.75 20.025C12.5 20.125 12.25 20.175 12 20.175C11.75 20.175 11.5 20.125 11.25 20.025C11 19.925 10.775 19.775 10.575 19.575Z" fill="currentColor"/>
</svg>
