<svg width="24" height="24" viewBox="0 0 24 24" fill="none" xmlns="http://www.w3.org/2000/svg">
<path d="M5 13.4999C4.58333 13.4999 4.22917 13.3541 3.9375 13.0624C3.64583 12.7707 3.5 12.4166 3.5 11.9999C3.5 11.5832 3.64583 11.2291 3.9375 10.9374C4.22917 10.6457 4.58333 10.4999 5 10.4999C5.41667 10.4999 5.77083 10.6457 6.0625 10.9374C6.35417 11.2291 6.5 11.5832 6.5 11.9999C6.5 12.4166 6.35417 12.7707 6.0625 13.0624C5.77083 13.3541 5.41667 13.4999 5 13.4999ZM19 13.4999C18.5833 13.4999 18.2292 13.3541 17.9375 13.0624C17.6458 12.7707 17.5 12.4166 17.5 11.9999C17.5 11.5832 17.6458 11.2291 17.9375 10.9374C18.2292 10.6457 18.5833 10.4999 19 10.4999C19.4167 10.4999 19.7708 10.6457 20.0625 10.9374C20.3542 11.2291 20.5 11.5832 20.5 11.9999C20.5 12.4166 20.3542 12.7707 20.0625 13.0624C19.7708 13.3541 19.4167 13.4999 19 13.4999ZM11 20.5749V14.3999L7.1 18.2999C6.91667 18.4832 6.68333 18.5749 6.4 18.5749C6.11667 18.5749 5.88333 18.4832 5.7 18.2999C5.51667 18.1166 5.425 17.8832 5.425 17.5999C5.425 17.3166 5.51667 17.0832 5.7 16.8999L10.6 11.9999L5.7 7.0999C5.51667 6.91657 5.425 6.68324 5.425 6.3999C5.425 6.11657 5.51667 5.88324 5.7 5.6999C5.88333 5.51657 6.11667 5.4249 6.4 5.4249C6.68333 5.4249 6.91667 5.51657 7.1 5.6999L11 9.5999V3.4249C11 3.1249 11.1 2.87907 11.3 2.6874C11.5 2.49574 11.7333 2.3999 12 2.3999C12.1333 2.3999 12.2583 2.4249 12.375 2.4749C12.4917 2.5249 12.6 2.5999 12.7 2.6999L17 6.9999C17.1 7.0999 17.1708 7.20824 17.2125 7.3249C17.2542 7.44157 17.275 7.56657 17.275 7.6999C17.275 7.83324 17.2542 7.95824 17.2125 8.0749C17.1708 8.19157 17.1 8.2999 17 8.3999L13.4 11.9999L17 15.5999C17.1 15.6999 17.1708 15.8082 17.2125 15.9249C17.2542 16.0416 17.275 16.1666 17.275 16.2999C17.275 16.4332 17.2542 16.5582 17.2125 16.6749C17.1708 16.7916 17.1 16.8999 17 16.9999L12.7 21.2999C12.6 21.3999 12.4917 21.4749 12.375 21.5249C12.2583 21.5749 12.1333 21.5999 12 21.5999C11.7333 21.5999 11.5 21.5041 11.3 21.3124C11.1 21.1207 11 20.8749 11 20.5749ZM13 9.5999L14.9 7.6999L13 5.8499V9.5999ZM13 18.1499L14.9 16.2999L13 14.3999V18.1499Z" fill="currentColor"/>
</svg>
