<svg width="24" height="24" viewBox="0 0 24 24" fill="none" xmlns="http://www.w3.org/2000/svg">
<g clip-path="url(#clip0_1_184)">
<path d="M12.4166 11.1815C11.2042 11.1815 10.2193 10.8019 9.46203 10.0426C8.70474 9.28332 8.3261 8.29878 8.3261 7.089C8.3261 5.8792 8.70443 4.89525 9.46108 4.13715C10.2177 3.37905 11.2023 3 12.4147 3C13.6271 3 14.6133 3.37882 15.3735 4.13647C16.1335 4.89414 16.5136 5.87931 16.5136 7.09197C16.5136 8.29977 16.1339 9.28332 15.3744 10.0426C14.6149 10.8019 13.629 11.1815 12.4166 11.1815ZM18.9011 20.1424H5.9326C5.39202 20.1424 4.93477 19.9558 4.56085 19.5826C4.18695 19.2094 4 18.7518 4 18.2098V17.3854C4 16.6845 4.1729 16.0827 4.5187 15.5801C4.86448 15.0776 5.31151 14.6958 5.85977 14.4348C7.00579 13.9015 8.11446 13.5066 9.18577 13.2503C10.2571 12.9939 11.3328 12.8658 12.4129 12.8658C13.5007 12.8658 14.5755 12.9991 15.6372 13.2658C16.699 13.5324 17.8022 13.9237 18.9469 14.4397C19.5179 14.6975 19.9762 15.077 20.3216 15.5781C20.667 16.0792 20.8397 16.6817 20.8397 17.3854V18.2098C20.8397 18.7518 20.6521 19.2094 20.2771 19.5826C19.902 19.9558 19.4433 20.1424 18.9011 20.1424ZM5.9326 18.2098H18.9011V17.3995C18.9011 17.1354 18.829 16.8873 18.6848 16.6553C18.5405 16.4233 18.361 16.259 18.1462 16.1625C17.0828 15.6538 16.1027 15.3003 15.206 15.1019C14.3093 14.9035 13.3776 14.8044 12.4109 14.8044C11.4522 14.8044 10.5193 14.9045 9.61223 15.1049C8.70516 15.3053 7.73111 15.6575 6.69007 16.1616C6.46272 16.2639 6.27964 16.4282 6.14083 16.6543C6.00201 16.8805 5.9326 17.1288 5.9326 17.3995V18.2098ZM12.4156 9.24892C13.0338 9.24892 13.5483 9.04388 13.959 8.6338C14.3697 8.22373 14.575 7.70946 14.575 7.09097C14.575 6.47086 14.3701 5.95511 13.9602 5.54372C13.5503 5.13234 13.0363 4.92665 12.4181 4.92665C11.7999 4.92665 11.2854 5.13243 10.8747 5.544C10.464 5.95557 10.2587 6.47024 10.2587 7.08803C10.2587 7.70744 10.4636 8.22244 10.8735 8.63303C11.2834 9.04363 11.7974 9.24892 12.4156 9.24892Z" fill="currentColor"/>
</g>
<defs>
<clipPath id="clip0_1_184">
<rect width="24" height="24" fill="white"/>
</clipPath>
</defs>
</svg>
