<svg width="24" height="24" viewBox="0 0 24 24" fill="none" xmlns="http://www.w3.org/2000/svg">
<path d="M12.4 19.45L4.55 11.6C4.16667 11.2167 3.975 10.7667 3.975 10.25C3.975 9.73333 4.16667 9.28333 4.55 8.9L8.9 4.55C9.28333 4.16667 9.73333 3.975 10.25 3.975C10.7667 3.975 11.2167 4.16667 11.6 4.55L19.45 12.4C19.8333 12.7833 20.025 13.2333 20.025 13.75C20.025 14.2667 19.8333 14.7167 19.45 15.1L15.1 19.45C14.7167 19.8333 14.2667 20.025 13.75 20.025C13.2333 20.025 12.7833 19.8333 12.4 19.45ZM13.75 18L18 13.75L10.25 6L6 10.25L13.75 18ZM13.975 2.175L15.9 4.1C16.0833 4.28333 16.175 4.51667 16.175 4.8C16.175 5.08333 16.0833 5.31667 15.9 5.5C15.7167 5.68333 15.4833 5.775 15.2 5.775C14.9167 5.775 14.6833 5.68333 14.5 5.5L10.25 1.25C10.05 1.05 9.99583 0.816667 10.0875 0.55C10.1792 0.283333 10.3667 0.125 10.65 0.075C10.8833 0.0416667 11.1083 0.0208333 11.325 0.0125C11.5417 0.00416667 11.7667 0 12 0C13.65 0 15.2042 0.3125 16.6625 0.9375C18.1208 1.5625 19.3958 2.42083 20.4875 3.5125C21.5792 4.60417 22.4375 5.87917 23.0625 7.3375C23.6875 8.79583 24 10.35 24 12C24 12.2833 23.9042 12.5208 23.7125 12.7125C23.5208 12.9042 23.2833 13 23 13C22.7167 13 22.4792 12.9042 22.2875 12.7125C22.0958 12.5208 22 12.2833 22 12C22 10.8167 21.8 9.68333 21.4 8.6C21 7.51667 20.4458 6.54167 19.7375 5.675C19.0292 4.80833 18.1833 4.07083 17.2 3.4625C16.2167 2.85417 15.1417 2.425 13.975 2.175ZM10.025 21.825L8.1 19.9C7.91667 19.7167 7.825 19.4833 7.825 19.2C7.825 18.9167 7.91667 18.6833 8.1 18.5C8.28333 18.3167 8.51667 18.225 8.8 18.225C9.08333 18.225 9.31667 18.3167 9.5 18.5L13.75 22.75C13.95 22.95 14.0042 23.1875 13.9125 23.4625C13.8208 23.7375 13.6333 23.8917 13.35 23.925C13.1167 23.9583 12.8917 23.9792 12.675 23.9875C12.4583 23.9958 12.2333 24 12 24C10.35 24 8.79583 23.6875 7.3375 23.0625C5.87917 22.4375 4.60417 21.5792 3.5125 20.4875C2.42083 19.3958 1.5625 18.1208 0.9375 16.6625C0.3125 15.2042 0 13.65 0 12C0 11.7167 0.0958333 11.4792 0.2875 11.2875C0.479167 11.0958 0.716667 11 1 11C1.28333 11 1.52083 11.0958 1.7125 11.2875C1.90417 11.4792 2 11.7167 2 12C2 13.1833 2.2 14.3167 2.6 15.4C3 16.4833 3.55417 17.4583 4.2625 18.325C4.97083 19.1917 5.81667 19.9292 6.8 20.5375C7.78333 21.1458 8.85833 21.575 10.025 21.825Z" fill="currentColor"/>
</svg>
