<svg width="24" height="24" viewBox="0 0 24 24" fill="none" xmlns="http://www.w3.org/2000/svg">
<g clip-path="url(#clip0_1_222)">
<path d="M10.775 12L14.675 15.9C14.8584 16.0833 14.95 16.3166 14.95 16.6C14.95 16.8833 14.8584 17.1166 14.675 17.3C14.4917 17.4833 14.2584 17.575 13.975 17.575C13.6917 17.575 13.4584 17.4833 13.275 17.3L8.67502 12.7C8.57502 12.6 8.50419 12.4916 8.46252 12.375C8.42086 12.2583 8.40002 12.1333 8.40002 12C8.40002 11.8666 8.42086 11.7416 8.46252 11.625C8.50419 11.5083 8.57502 11.4 8.67502 11.3L13.275 6.69995C13.4584 6.51662 13.6917 6.42495 13.975 6.42495C14.2584 6.42495 14.4917 6.51662 14.675 6.69995C14.8584 6.88328 14.95 7.11662 14.95 7.39995C14.95 7.68328 14.8584 7.91662 14.675 8.09995L10.775 12Z" fill="currentColor"/>
</g>
<defs>
<clipPath id="clip0_1_222">
<rect width="24" height="24" fill="white"/>
</clipPath>
</defs>
</svg>
