<svg width="24" height="24" viewBox="0 0 24 24" fill="none" xmlns="http://www.w3.org/2000/svg">
<g clip-path="url(#clip0_1_194)">
<path d="M10.845 22.303C10.395 22.303 10.0075 22.1508 9.6825 21.8462C9.3575 21.5417 9.16167 21.1694 9.095 20.7295L8.87 19.0545C8.65333 18.9699 8.44917 18.8684 8.2575 18.75C8.06583 18.6316 7.87833 18.5047 7.695 18.3693L6.145 19.0292C5.72833 19.2153 5.31167 19.2322 4.895 19.0799C4.47833 18.9277 4.15333 18.6569 3.92 18.2678L2.745 16.1867C2.51167 15.7976 2.445 15.3831 2.545 14.9432C2.645 14.5033 2.87 14.1395 3.22 13.8519L4.545 12.8367C4.52833 12.7183 4.52 12.6041 4.52 12.4941V11.8089C4.52 11.6989 4.52833 11.5847 4.545 11.4663L3.22 10.4511C2.87 10.1635 2.645 9.79975 2.545 9.35985C2.445 8.91995 2.51167 8.50543 2.745 8.11629L3.92 6.03523C4.15333 5.64609 4.47833 5.37538 4.895 5.22311C5.31167 5.07083 5.72833 5.08775 6.145 5.27386L7.695 5.93371C7.87833 5.79836 8.07 5.67146 8.27 5.55303C8.47 5.4346 8.67 5.33308 8.87 5.24848L9.095 3.57348C9.16167 3.13359 9.3575 2.76136 9.6825 2.45682C10.0075 2.15227 10.395 2 10.845 2H13.195C13.645 2 14.0325 2.15227 14.3575 2.45682C14.6825 2.76136 14.8783 3.13359 14.945 3.57348L15.17 5.24848C15.3867 5.33308 15.5908 5.4346 15.7825 5.55303C15.9742 5.67146 16.1617 5.79836 16.345 5.93371L17.895 5.27386C18.3117 5.08775 18.7283 5.07083 19.145 5.22311C19.5617 5.37538 19.8867 5.64609 20.12 6.03523L21.295 8.11629C21.5283 8.50543 21.595 8.91995 21.495 9.35985C21.395 9.79975 21.17 10.1635 20.82 10.4511L19.495 11.4663C19.5117 11.5847 19.52 11.6989 19.52 11.8089V12.4941C19.52 12.6041 19.5033 12.7183 19.47 12.8367L20.795 13.8519C21.145 14.1395 21.37 14.5033 21.47 14.9432C21.57 15.3831 21.5033 15.7976 21.27 16.1867L20.07 18.2678C19.8367 18.6569 19.5117 18.9277 19.095 19.0799C18.6783 19.2322 18.2617 19.2153 17.845 19.0292L16.345 18.3693C16.1617 18.5047 15.97 18.6316 15.77 18.75C15.57 18.8684 15.37 18.9699 15.17 19.0545L14.945 20.7295C14.8783 21.1694 14.6825 21.5417 14.3575 21.8462C14.0325 22.1508 13.645 22.303 13.195 22.303H10.845ZM12.07 15.7045C13.0367 15.7045 13.8617 15.3577 14.545 14.664C15.2283 13.9703 15.57 13.1328 15.57 12.1515C15.57 11.1702 15.2283 10.3327 14.545 9.63902C13.8617 8.94533 13.0367 8.59848 12.07 8.59848C11.0867 8.59848 10.2575 8.94533 9.5825 9.63902C8.9075 10.3327 8.57 11.1702 8.57 12.1515C8.57 13.1328 8.9075 13.9703 9.5825 14.664C10.2575 15.3577 11.0867 15.7045 12.07 15.7045Z" fill="currentColor"/>
</g>
<defs>
<clipPath id="clip0_1_194">
<rect width="24" height="24" fill="white"/>
</clipPath>
</defs>
</svg>
