<svg width="24" height="24" viewBox="0 0 24 24" fill="none" xmlns="http://www.w3.org/2000/svg">
<g clip-path="url(#clip0_1_514)">
<path d="M21 8.4C21.5333 8.4 22 8.6 22.4 9C22.8 9.4 23 9.86667 23 10.4V12.4C23 12.5167 22.9833 12.6417 22.95 12.775C22.9167 12.9083 22.8833 13.0333 22.85 13.15L19.85 20.2C19.7 20.5333 19.45 20.8167 19.1 21.05C18.75 21.2833 18.3833 21.4 18 21.4H7V8.4L13 2.45C13.25 2.2 13.5458 2.05417 13.8875 2.0125C14.2292 1.97083 14.5583 2.03333 14.875 2.2C15.1917 2.36667 15.425 2.6 15.575 2.9C15.725 3.2 15.7583 3.50833 15.675 3.825L14.55 8.4H21ZM9 9.25V19.4H18L21 12.4V10.4H12L13.35 4.9L9 9.25ZM4 21.4C3.45 21.4 2.97917 21.2042 2.5875 20.8125C2.19583 20.4208 2 19.95 2 19.4V10.4C2 9.85 2.19583 9.37917 2.5875 8.9875C2.97917 8.59583 3.45 8.4 4 8.4H7V10.4H4V19.4H7V21.4H4Z" fill="currentColor"/>
</g>
<defs>
<clipPath id="clip0_1_514">
<rect width="24" height="24" fill="white"/>
</clipPath>
</defs>
</svg>
