<svg width="24" height="24" viewBox="0 0 24 24" fill="none" xmlns="http://www.w3.org/2000/svg">
<path d="M11 6C9.95 6 9.00417 6.2875 8.1625 6.8625C7.32083 7.4375 6.71667 8.19167 6.35 9.125C6.25 9.375 6.0875 9.5625 5.8625 9.6875C5.6375 9.8125 5.39167 9.85 5.125 9.8C4.85833 9.75 4.64583 9.62083 4.4875 9.4125C4.32917 9.20417 4.29167 8.98333 4.375 8.75C4.825 7.35 5.65 6.20833 6.85 5.325C8.05 4.44167 9.43333 4 11 4C11.9833 4 12.9042 4.1875 13.7625 4.5625C14.6208 4.9375 15.3667 5.45 16 6.1V5C16 4.71667 16.0958 4.47917 16.2875 4.2875C16.4792 4.09583 16.7167 4 17 4C17.2833 4 17.5208 4.09583 17.7125 4.2875C17.9042 4.47917 18 4.71667 18 5V9C18 9.28333 17.9042 9.52083 17.7125 9.7125C17.5208 9.90417 17.2833 10 17 10H13C12.7167 10 12.4792 9.90417 12.2875 9.7125C12.0958 9.52083 12 9.28333 12 9C12 8.71667 12.0958 8.47917 12.2875 8.2875C12.4792 8.09583 12.7167 8 13 8H15C14.5167 7.4 13.9375 6.91667 13.2625 6.55C12.5875 6.18333 11.8333 6 11 6ZM11 18C10.0167 18 9.09583 17.8125 8.2375 17.4375C7.37917 17.0625 6.63333 16.55 6 15.9V17C6 17.2833 5.90417 17.5208 5.7125 17.7125C5.52083 17.9042 5.28333 18 5 18C4.71667 18 4.47917 17.9042 4.2875 17.7125C4.09583 17.5208 4 17.2833 4 17V13C4 12.7167 4.09583 12.4792 4.2875 12.2875C4.47917 12.0958 4.71667 12 5 12H9C9.28333 12 9.52083 12.0958 9.7125 12.2875C9.90417 12.4792 10 12.7167 10 13C10 13.2833 9.90417 13.5208 9.7125 13.7125C9.52083 13.9042 9.28333 14 9 14H7C7.48333 14.6 8.0625 15.0833 8.7375 15.45C9.4125 15.8167 10.1667 16 11 16C12.0333 16 12.9625 15.725 13.7875 15.175C14.6125 14.625 15.2167 13.9 15.6 13C15.7167 12.7333 15.8875 12.5208 16.1125 12.3625C16.3375 12.2042 16.5917 12.15 16.875 12.2C17.1583 12.2667 17.3667 12.4167 17.5 12.65C17.6333 12.8833 17.6583 13.1333 17.575 13.4C17.4583 13.7333 17.3208 14.0458 17.1625 14.3375C17.0042 14.6292 16.8167 14.9167 16.6 15.2L20.3 18.9C20.4833 19.0833 20.575 19.3167 20.575 19.6C20.575 19.8833 20.4833 20.1167 20.3 20.3C20.1167 20.4833 19.8833 20.575 19.6 20.575C19.3167 20.575 19.0833 20.4833 18.9 20.3L15.2 16.6C14.6 17.05 13.9458 17.3958 13.2375 17.6375C12.5292 17.8792 11.7833 18 11 18Z" fill="currentColor"/>
</svg>
