<svg width="24" height="24" viewBox="0 0 24 24" fill="none" xmlns="http://www.w3.org/2000/svg">
<path d="M11.9326 15C11.0992 15 10.3909 14.7083 9.80757 14.125C9.22424 13.5417 8.93257 12.8333 8.93257 12V6C8.93257 5.16667 9.22424 4.45833 9.80757 3.875C10.3909 3.29167 11.0992 3 11.9326 3C12.7659 3 13.4742 3.29167 14.0576 3.875C14.6409 4.45833 14.9326 5.16667 14.9326 6V12C14.9326 12.8333 14.6409 13.5417 14.0576 14.125C13.4742 14.7083 12.7659 15 11.9326 15ZM10.9326 21V18.925C9.39924 18.7083 8.08674 18.0583 6.99507 16.975C5.9034 15.8917 5.2409 14.575 5.00757 13.025C4.97424 12.7417 5.04924 12.5 5.23257 12.3C5.4159 12.1 5.64924 12 5.93257 12C6.2159 12 6.4534 12.0958 6.64507 12.2875C6.83674 12.4792 6.9659 12.7167 7.03257 13C7.2659 14.1667 7.84507 15.125 8.77007 15.875C9.69507 16.625 10.7492 17 11.9326 17C13.1326 17 14.1909 16.6208 15.1076 15.8625C16.0242 15.1042 16.5992 14.15 16.8326 13C16.8992 12.7167 17.0284 12.4792 17.2201 12.2875C17.4117 12.0958 17.6492 12 17.9326 12C18.2159 12 18.4492 12.1 18.6326 12.3C18.8159 12.5 18.8909 12.7417 18.8576 13.025C18.6242 14.5417 17.9659 15.85 16.8826 16.95C15.7992 18.05 14.4826 18.7083 12.9326 18.925V21C12.9326 21.2833 12.8367 21.5208 12.6451 21.7125C12.4534 21.9042 12.2159 22 11.9326 22C11.6492 22 11.4117 21.9042 11.2201 21.7125C11.0284 21.5208 10.9326 21.2833 10.9326 21Z" fill="currentColor"/>
</svg>
