<svg width="24" height="24" viewBox="0 0 24 24" fill="none" xmlns="http://www.w3.org/2000/svg">
<path d="M10.6 12L8.7 13.9C8.51667 14.0833 8.425 14.3167 8.425 14.6C8.425 14.8833 8.51667 15.1167 8.7 15.3C8.88333 15.4833 9.11667 15.575 9.4 15.575C9.68333 15.575 9.91667 15.4833 10.1 15.3L12 13.4L13.9 15.3C14.0833 15.4833 14.3167 15.575 14.6 15.575C14.8833 15.575 15.1167 15.4833 15.3 15.3C15.4833 15.1167 15.575 14.8833 15.575 14.6C15.575 14.3167 15.4833 14.0833 15.3 13.9L13.4 12L15.3 10.1C15.4833 9.91667 15.575 9.68333 15.575 9.4C15.575 9.11667 15.4833 8.88333 15.3 8.7C15.1167 8.51667 14.8833 8.425 14.6 8.425C14.3167 8.425 14.0833 8.51667 13.9 8.7L12 10.6L10.1 8.7C9.91667 8.51667 9.68333 8.425 9.4 8.425C9.11667 8.425 8.88333 8.51667 8.7 8.7C8.51667 8.88333 8.425 9.11667 8.425 9.4C8.425 9.68333 8.51667 9.91667 8.7 10.1L10.6 12ZM4 20C3.45 20 2.97917 19.8042 2.5875 19.4125C2.19583 19.0208 2 18.55 2 18V6C2 5.45 2.19583 4.97917 2.5875 4.5875C2.97917 4.19583 3.45 4 4 4H20C20.55 4 21.0208 4.19583 21.4125 4.5875C21.8042 4.97917 22 5.45 22 6V18C22 18.55 21.8042 19.0208 21.4125 19.4125C21.0208 19.8042 20.55 20 20 20H4ZM4 18H20V6H4V18Z" fill="currentColor"/>
</svg>
