<svg width="24" height="24" viewBox="0 0 24 24" fill="none" xmlns="http://www.w3.org/2000/svg">
<g clip-path="url(#clip0_4642_8)">
<path fill-rule="evenodd" clip-rule="evenodd" d="M8.67031 16.4619C9.5599 17.3758 10.6707 17.8327 12.0026 17.8327C13.2669 17.8327 14.3319 17.421 15.1976 16.5976L14.7811 16.1811L13.8077 15.2077L9.7406 11.1406C9.53047 10.9305 8.9543 10.3543 8.49324 9.89324C8.399 10.0211 8.58024 9.76275 8.49324 9.89324C8.20332 10.3281 7.95366 10.7774 7.74427 11.2411C7.47205 11.8438 7.33594 12.4466 7.33594 13.0494C7.33594 14.4105 7.78073 15.548 8.67031 16.4619ZM16.6407 13.6321C16.6598 13.4427 16.6693 13.2484 16.6693 13.0494C16.6693 12.4466 16.5332 11.8438 16.2609 11.2411C15.9887 10.6383 15.6484 10.0598 15.2401 9.50564C14.8318 8.95148 14.3894 8.43134 13.913 7.94523C13.4366 7.45912 12.9943 7.0362 12.5859 6.67648C12.5082 6.5987 12.4182 6.5428 12.3161 6.50877C12.2141 6.47474 12.1095 6.45773 12.0026 6.45773C11.8957 6.45773 11.7911 6.47474 11.6891 6.50877C11.587 6.5428 11.497 6.5987 11.4193 6.67648C11.1367 6.92541 10.8378 7.2046 10.5227 7.51406L16.6407 13.6321ZM12.462 15.9442C12.3793 16.0268 12.2797 16.073 12.163 16.0827C11.5408 16.1216 10.9234 15.9515 10.3109 15.5723C9.69844 15.1931 9.30955 14.5612 9.14427 13.6765C9.1151 13.5404 9.14427 13.4213 9.23177 13.3192C9.31927 13.2171 9.43108 13.1661 9.56719 13.1661C9.67413 13.1661 9.76892 13.2001 9.85156 13.2681C9.9342 13.3362 9.98524 13.4237 10.0047 13.5306C10.1214 14.182 10.4033 14.6317 10.8505 14.8796C11.2977 15.1275 11.7207 15.2369 12.1193 15.2077C12.2554 15.198 12.3672 15.2345 12.4547 15.3171C12.5422 15.3997 12.5859 15.5091 12.5859 15.6452C12.5859 15.7619 12.5446 15.8615 12.462 15.9442Z" fill="currentColor"/>
<path d="M12 22C10.6167 22 9.31667 21.7375 8.1 21.2125C6.88333 20.6875 5.825 19.975 4.925 19.075C4.025 18.175 3.3125 17.1167 2.7875 15.9C2.2625 14.6833 2 13.3833 2 12C2 10.6167 2.2625 9.31667 2.7875 8.1C3.3125 6.88333 4.025 5.825 4.925 4.925C5.825 4.025 6.88333 3.3125 8.1 2.7875C9.31667 2.2625 10.6167 2 12 2C13.3833 2 14.6833 2.2625 15.9 2.7875C17.1167 3.3125 18.175 4.025 19.075 4.925C19.975 5.825 20.6875 6.88333 21.2125 8.1C21.7375 9.31667 22 10.6167 22 12C22 13.3833 21.7375 14.6833 21.2125 15.9C20.6875 17.1167 19.975 18.175 19.075 19.075C18.175 19.975 17.1167 20.6875 15.9 21.2125C14.6833 21.7375 13.3833 22 12 22ZM12 20C12.9 20 13.7667 19.8542 14.6 19.5625C15.4333 19.2708 16.2 18.85 16.9 18.3L15.1976 16.5976L8.49324 9.89324L5.7 7.1C5.15 7.8 4.72917 8.56667 4.4375 9.4C4.14583 10.2333 4 11.1 4 12C4 14.2333 4.775 16.125 6.325 17.675C7.875 19.225 9.76667 20 12 20ZM18.3 16.9C18.85 16.2 19.2708 15.4333 19.5625 14.6C19.8542 13.7667 20 12.9 20 12C20 9.76667 19.225 7.875 17.675 6.325C16.125 4.775 14.2333 4 12 4C11.1 4 10.2333 4.14583 9.4 4.4375C8.56667 4.72917 7.8 5.15 7.1 5.7L18.3 16.9Z" fill="currentColor"/>
</g>
<defs>
<clipPath id="clip0_4642_8">
<rect width="24" height="24" fill="white"/>
</clipPath>
</defs>
</svg>
