<svg width="24" height="24" viewBox="0 0 24 24" fill="none" xmlns="http://www.w3.org/2000/svg">
<path d="M12 11.6L14.5 14.1C14.6833 14.2833 14.775 14.5167 14.775 14.8C14.775 15.0833 14.6833 15.3167 14.5 15.5C14.3167 15.6833 14.0833 15.775 13.8 15.775C13.5167 15.775 13.2833 15.6833 13.1 15.5L10.3 12.7C10.2 12.6 10.125 12.4875 10.075 12.3625C10.025 12.2375 10 12.1083 10 11.975V8C10 7.71667 10.0958 7.47917 10.2875 7.2875C10.4792 7.09583 10.7167 7 11 7C11.2833 7 11.5208 7.09583 11.7125 7.2875C11.9042 7.47917 12 7.71667 12 8V11.6ZM18 6H16C15.7167 6 15.4792 5.90417 15.2875 5.7125C15.0958 5.52083 15 5.28333 15 5C15 4.71667 15.0958 4.47917 15.2875 4.2875C15.4792 4.09583 15.7167 4 16 4H18V2C18 1.71667 18.0958 1.47917 18.2875 1.2875C18.4792 1.09583 18.7167 1 19 1C19.2833 1 19.5208 1.09583 19.7125 1.2875C19.9042 1.47917 20 1.71667 20 2V4H22C22.2833 4 22.5208 4.09583 22.7125 4.2875C22.9042 4.47917 23 4.71667 23 5C23 5.28333 22.9042 5.52083 22.7125 5.7125C22.5208 5.90417 22.2833 6 22 6H20V8C20 8.28333 19.9042 8.52083 19.7125 8.7125C19.5208 8.90417 19.2833 9 19 9C18.7167 9 18.4792 8.90417 18.2875 8.7125C18.0958 8.52083 18 8.28333 18 8V6ZM11 21C9.75 21 8.57917 20.7667 7.4875 20.3C6.39583 19.8333 5.44167 19.1917 4.625 18.375C3.80833 17.5583 3.16667 16.6042 2.7 15.5125C2.23333 14.4208 2 13.25 2 12C2 10.75 2.23333 9.57917 2.7 8.4875C3.16667 7.39583 3.80833 6.44167 4.625 5.625C5.44167 4.80833 6.39583 4.16667 7.4875 3.7C8.57917 3.23333 9.75 3 11 3C11.1833 3 11.3542 3.00417 11.5125 3.0125C11.6708 3.02083 11.8417 3.04167 12.025 3.075C12.3083 3.075 12.5458 3.17083 12.7375 3.3625C12.9292 3.55417 13.025 3.79167 13.025 4.075C13.025 4.35833 12.9292 4.59583 12.7375 4.7875C12.5458 4.97917 12.3083 5.075 12.025 5.075C11.8417 5.075 11.6708 5.0625 11.5125 5.0375C11.3542 5.0125 11.1833 5 11 5C9.03333 5 7.375 5.675 6.025 7.025C4.675 8.375 4 10.0333 4 12C4 13.9667 4.675 15.625 6.025 16.975C7.375 18.325 9.03333 19 11 19C12.9667 19 14.625 18.325 15.975 16.975C17.325 15.625 18 13.9667 18 12C18 11.7167 18.0958 11.4792 18.2875 11.2875C18.4792 11.0958 18.7167 11 19 11C19.2833 11 19.5208 11.0958 19.7125 11.2875C19.9042 11.4792 20 11.7167 20 12C20 13.25 19.7667 14.4208 19.3 15.5125C18.8333 16.6042 18.1917 17.5583 17.375 18.375C16.5583 19.1917 15.6042 19.8333 14.5125 20.3C13.4208 20.7667 12.25 21 11 21Z" fill="currentColor"/>
</svg>
