<svg width="24" height="24" viewBox="0 0 24 24" fill="none" xmlns="http://www.w3.org/2000/svg">
<path d="M13.6533 1.73705C13.3127 1.37177 12.7404 1.35179 12.3752 1.69242C12.0099 2.03304 11.9899 2.6053 12.3305 2.97057L12.8842 3.56426C12.5669 3.53213 12.2453 3.51569 11.92 3.51569C6.69159 3.51569 2.45312 7.75416 2.45312 12.9826C2.45312 18.211 6.69159 22.4495 11.92 22.4495C17.1484 22.4495 21.3869 18.211 21.3869 12.9826C21.3869 12.4276 20.937 11.9777 20.3821 11.9777C19.8271 11.9777 19.3772 12.4276 19.3772 12.9826C19.3772 17.1011 16.0385 20.4398 11.92 20.4398C7.8015 20.4398 4.46278 17.1011 4.46278 12.9826C4.46278 8.86407 7.8015 5.52535 11.92 5.52535C12.2378 5.52535 12.5507 5.54518 12.8574 5.58359L12.2185 6.17935C11.8532 6.51998 11.8332 7.09223 12.1738 7.45751C12.5145 7.82279 13.0867 7.84277 13.452 7.50214L15.7738 5.33702C16.1391 4.99639 16.1591 4.42414 15.8184 4.05886L13.6533 1.73705Z" fill="currentColor"/>
<path fill-rule="evenodd" clip-rule="evenodd" d="M10.0132 16.4216H9.05862C8.99163 16.4216 8.93469 16.4015 8.8878 16.3613C8.8476 16.3211 8.82751 16.2675 8.82751 16.2005C8.82751 16.167 8.83421 16.1335 8.8476 16.1C8.861 16.0665 8.87105 16.0364 8.87775 16.0096L11.1487 9.60882C11.1621 9.56193 11.1922 9.51504 11.2391 9.46814C11.2927 9.41455 11.363 9.38776 11.4501 9.38776H12.5755C12.6626 9.38776 12.7296 9.41455 12.7765 9.46814C12.8301 9.51504 12.8636 9.56193 12.877 9.60882L15.0876 15.9292C15.0943 15.9426 15.1077 15.9828 15.1278 16.0498C15.1546 16.1168 15.168 16.167 15.168 16.2005C15.168 16.2675 15.1445 16.3211 15.0976 16.3613C15.0574 16.4015 15.0039 16.4216 14.9369 16.4216H13.932C13.8517 16.4216 13.7914 16.4048 13.7512 16.3713C13.711 16.3311 13.6842 16.2909 13.6708 16.2507L13.2689 15.0349H10.6563L10.2544 16.2407C10.2343 16.3077 10.1974 16.3546 10.1438 16.3814C10.0969 16.4082 10.0534 16.4216 10.0132 16.4216ZM11.0984 13.7286L11.9953 11.0834L12.8468 13.7286H11.0984Z" fill="currentColor"/>
<path d="M16.2427 8.34288C17.4656 8.34288 18.4569 9.33424 18.4569 10.5571C18.4569 10.6826 18.4994 10.7878 18.5842 10.8727C18.6691 10.9576 18.7743 11 18.8998 11C19.0253 11 19.1304 10.9576 19.2153 10.8727C19.3002 10.7878 19.3426 10.6826 19.3426 10.5571C19.3426 9.33424 20.334 8.34288 21.5569 8.34288C21.6824 8.34288 21.7876 8.30044 21.8724 8.21556C21.9573 8.13068 21.9998 8.0255 21.9998 7.90002C21.9998 7.77455 21.9573 7.66937 21.8724 7.58449C21.7876 7.49961 21.6824 7.45717 21.5569 7.45717C20.334 7.45717 19.3426 6.46581 19.3426 5.2429C19.3426 5.11743 19.3002 5.01225 19.2153 4.92737C19.1304 4.84249 19.0253 4.80005 18.8998 4.80005C18.7743 4.80005 18.6691 4.84249 18.5842 4.92737C18.4994 5.01225 18.4569 5.11743 18.4569 5.2429C18.4569 6.46581 17.4656 7.45717 16.2427 7.45717C16.1172 7.45717 16.012 7.49961 15.9271 7.58449C15.8422 7.66937 15.7998 7.77455 15.7998 7.90002C15.7998 8.0255 15.8422 8.13068 15.9271 8.21556C16.012 8.30044 16.1172 8.34288 16.2427 8.34288Z" fill="currentColor"/>
</svg>
