<svg width="24" height="24" viewBox="0 0 24 24" fill="none" xmlns="http://www.w3.org/2000/svg">
<path d="M9 21C8.45 21 7.97917 20.8042 7.5875 20.4125C7.19583 20.0208 7 19.55 7 19V9C7 8.45 7.19583 7.97917 7.5875 7.5875C7.97917 7.19583 8.45 7 9 7H19C19.55 7 20.0208 7.19583 20.4125 7.5875C20.8042 7.97917 21 8.45 21 9V19C21 19.55 20.8042 20.0208 20.4125 20.4125C20.0208 20.8042 19.55 21 19 21H9ZM10 11H18C18.2833 11 18.5208 10.9042 18.7125 10.7125C18.9042 10.5208 19 10.2833 19 10C19 9.71667 18.9042 9.47917 18.7125 9.2875C18.5208 9.09583 18.2833 9 18 9H10C9.71667 9 9.47917 9.09583 9.2875 9.2875C9.09583 9.47917 9 9.71667 9 10C9 10.2833 9.09583 10.5208 9.2875 10.7125C9.47917 10.9042 9.71667 11 10 11ZM13 15H15V13H13V15ZM13 19H15V17H13V19ZM9 15H11V13H10C9.71667 13 9.47917 13.0958 9.2875 13.2875C9.09583 13.4792 9 13.7167 9 14V15ZM17 15H19V14C19 13.7167 18.9042 13.4792 18.7125 13.2875C18.5208 13.0958 18.2833 13 18 13H17V15ZM11 17H9V18C9 18.2833 9.09583 18.5208 9.2875 18.7125C9.47917 18.9042 9.71667 19 10 19H11V17ZM17 17V19H18C18.2833 19 18.5208 18.9042 18.7125 18.7125C18.9042 18.5208 19 18.2833 19 18V17H17ZM3 5C3 4.45 3.19583 3.97917 3.5875 3.5875C3.97917 3.19583 4.45 3 5 3H16C16.2833 3 16.5208 3.09583 16.7125 3.2875C16.9042 3.47917 17 3.71667 17 4C17 4.28333 16.9042 4.52083 16.7125 4.7125C16.5208 4.90417 16.2833 5 16 5H5V16C5 16.2833 4.90417 16.5208 4.7125 16.7125C4.52083 16.9042 4.28333 17 4 17C3.71667 17 3.47917 16.9042 3.2875 16.7125C3.09583 16.5208 3 16.2833 3 16V5Z" fill="currentColor"/>
</svg>
