<svg width="24" height="24" viewBox="0 0 24 24" fill="none" xmlns="http://www.w3.org/2000/svg">
<path d="M12.4169 22.6788C12.304 22.6788 12.1972 22.6716 12.0964 22.6571C11.9956 22.6426 11.9052 22.6125 11.825 22.5668C9.4163 21.7875 7.50996 20.3291 6.10597 18.1918C4.70199 16.0544 4 13.7495 4 11.2772V6.3837C4 5.97012 4.11527 5.5965 4.34582 5.26285C4.57637 4.9292 4.88502 4.68561 5.27175 4.53207L11.756 2.10598C11.9639 2.03533 12.1842 2 12.4169 2C12.6495 2 12.8781 2.03533 13.1027 2.10598L19.587 4.53207C19.9574 4.67796 20.2587 4.9189 20.4911 5.2549C20.7235 5.59092 20.8397 5.96718 20.8397 6.3837V11.2772C20.8397 13.7495 20.1367 16.0544 18.7307 18.1918C17.3247 20.3291 15.4257 21.7875 13.0337 22.5668C12.9369 22.6042 12.8381 22.6322 12.7373 22.6508C12.6365 22.6695 12.5297 22.6788 12.4169 22.6788ZM12.4169 20.8022C14.3096 20.1362 15.8635 18.9271 17.0785 17.1746C18.2936 15.4222 18.9011 13.4557 18.9011 11.275V6.3812L12.4169 3.9386L5.9326 6.3858V11.2775C5.9326 13.4565 6.54012 15.4222 7.75517 17.1746C8.97021 18.9271 10.5241 20.1362 12.4169 20.8022Z" fill="currentColor"/>
<path d="M9.10099 7.54553C8.97806 7.67323 8.9166 7.82778 8.9166 8.00978C8.9166 8.19178 8.97806 8.34454 9.10099 8.46746C9.22391 8.59039 9.37608 8.65185 9.55867 8.65185H11.6066C11.9981 8.65185 12.3668 8.76583 12.7129 8.99318C13.059 9.22053 13.2774 9.5165 13.3681 9.8805H9.55867C9.37667 9.8805 9.22391 9.94197 9.10099 10.0649C8.97806 10.1878 8.9166 10.34 8.9166 10.5226C8.9166 10.7052 8.97806 10.8573 9.10099 10.9803C9.22391 11.1032 9.37608 11.1646 9.55867 11.1646H13.3681C13.2953 11.6199 13.0972 11.9613 12.7744 12.1886C12.451 12.416 12.0846 12.5299 11.6752 12.5299H10.3917C10.1733 12.5299 9.98652 12.6075 9.83197 12.7621C9.67742 12.9166 9.59985 13.1034 9.59985 13.3218C9.59985 13.4495 9.6273 13.5838 9.6816 13.7246C9.7359 13.8654 9.80452 13.977 9.88627 14.0593L13.2727 17.6779C13.3455 17.7417 13.423 17.7918 13.5048 17.8282C13.5865 17.8646 13.6731 17.8831 13.7644 17.8831C14.0556 17.8831 14.2585 17.7554 14.3718 17.5006C14.4858 17.2458 14.4422 17.0089 14.2423 16.7905L11.4157 13.8004H11.8936C12.6037 13.7729 13.2225 13.5295 13.7506 13.07C14.2787 12.6105 14.5926 11.9756 14.6929 11.1652H15.2938C15.4758 11.1652 15.6285 11.1038 15.7515 10.9809C15.8744 10.8579 15.9358 10.7058 15.9358 10.5232C15.9358 10.3406 15.8744 10.1884 15.7515 10.0655C15.6285 9.94256 15.4764 9.8811 15.2938 9.8811H14.7066C14.6517 9.69015 14.5538 9.46697 14.413 9.21217C14.2722 8.95737 14.1194 8.7706 13.9553 8.65245H15.2932C15.4752 8.65245 15.6279 8.59099 15.7509 8.46806C15.8738 8.34514 15.9352 8.19297 15.9352 8.01038C15.9352 7.82778 15.8738 7.67383 15.7509 7.54613C15.6279 7.41843 15.4758 7.35518 15.2932 7.35518H9.55808C9.37608 7.35518 9.22391 7.41843 9.10099 7.54553Z" fill="currentColor"/>
</svg>
