<svg width="24" height="24" viewBox="0 0 24 24" fill="none" xmlns="http://www.w3.org/2000/svg">
<path d="M11.825 13H15C15.2833 13 15.5208 12.9042 15.7125 12.7125C15.9042 12.5208 16 12.2833 16 12C16 11.7167 15.9042 11.4792 15.7125 11.2875C15.5208 11.0958 15.2833 11 15 11H11.825L12.725 10.1C12.9083 9.91667 13 9.6875 13 9.4125C13 9.1375 12.9 8.9 12.7 8.7C12.5167 8.51667 12.2833 8.425 12 8.425C11.7167 8.425 11.4833 8.51667 11.3 8.7L8.7 11.3C8.5 11.5 8.4 11.7333 8.4 12C8.4 12.2667 8.5 12.5 8.7 12.7L11.3 15.3C11.4833 15.4833 11.7125 15.5792 11.9875 15.5875C12.2625 15.5958 12.5 15.5 12.7 15.3C12.8833 15.1167 12.975 14.8833 12.975 14.6C12.975 14.3167 12.8833 14.0833 12.7 13.9L11.825 13ZM5 21C4.45 21 3.97917 20.8042 3.5875 20.4125C3.19583 20.0208 3 19.55 3 19V5C3 4.45 3.19583 3.97917 3.5875 3.5875C3.97917 3.19583 4.45 3 5 3H9.2C9.41667 2.4 9.77917 1.91667 10.2875 1.55C10.7958 1.18333 11.3667 1 12 1C12.6333 1 13.2042 1.18333 13.7125 1.55C14.2208 1.91667 14.5833 2.4 14.8 3H19C19.55 3 20.0208 3.19583 20.4125 3.5875C20.8042 3.97917 21 4.45 21 5V19C21 19.55 20.8042 20.0208 20.4125 20.4125C20.0208 20.8042 19.55 21 19 21H5ZM5 19H19V5H5V19ZM12 4.25C12.2167 4.25 12.3958 4.17917 12.5375 4.0375C12.6792 3.89583 12.75 3.71667 12.75 3.5C12.75 3.28333 12.6792 3.10417 12.5375 2.9625C12.3958 2.82083 12.2167 2.75 12 2.75C11.7833 2.75 11.6042 2.82083 11.4625 2.9625C11.3208 3.10417 11.25 3.28333 11.25 3.5C11.25 3.71667 11.3208 3.89583 11.4625 4.0375C11.6042 4.17917 11.7833 4.25 12 4.25Z" fill="currentColor"/>
</svg>
