<svg width="24" height="24" viewBox="0 0 24 24" fill="none" xmlns="http://www.w3.org/2000/svg">
<path d="M4 20C3.45 20 2.97917 19.8042 2.5875 19.4125C2.19583 19.0208 2 18.55 2 18V6C2 5.45 2.19583 4.97917 2.5875 4.5875C2.97917 4.19583 3.45 4 4 4H9.175C9.44167 4 9.69583 4.05 9.9375 4.15C10.1792 4.25 10.3917 4.39167 10.575 4.575L12 6H20C20.55 6 21.0208 6.19583 21.4125 6.5875C21.8042 6.97917 22 7.45 22 8V18C22 18.55 21.8042 19.0208 21.4125 19.4125C21.0208 19.8042 20.55 20 20 20H4ZM4 18H20V8H11.175L9.175 6H4V18ZM14.5 15.5V10.5H15.875L17.5 12.125V15.5H14.5ZM14 17H18C18.2833 17 18.5208 16.9042 18.7125 16.7125C18.9042 16.5208 19 16.2833 19 16V11.925C19 11.7917 18.975 11.6625 18.925 11.5375C18.875 11.4125 18.8 11.3 18.7 11.2L16.8 9.3C16.7 9.2 16.5875 9.125 16.4625 9.075C16.3375 9.025 16.2083 9 16.075 9H14C13.7167 9 13.4792 9.09583 13.2875 9.2875C13.0958 9.47917 13 9.71667 13 10V16C13 16.2833 13.0958 16.5208 13.2875 16.7125C13.4792 16.9042 13.7167 17 14 17Z" fill="currentColor"/>
</svg>
