<svg width="24" height="24" viewBox="0 0 24 24" fill="none" xmlns="http://www.w3.org/2000/svg">
<path d="M15.625 12.7751L13.85 11.0001H15C15.2833 11.0001 15.5208 11.0959 15.7125 11.2876C15.9041 11.4793 16 11.7168 16 12.0001C16 12.1668 15.9666 12.3168 15.9 12.4501C15.8333 12.5834 15.7416 12.6918 15.625 12.7751ZM20.5 21.9001C20.3166 22.0834 20.0833 22.1751 19.8 22.1751C19.5166 22.1751 19.2833 22.0834 19.1 21.9001L2.09995 4.9001C1.91662 4.71676 1.82495 4.48343 1.82495 4.2001C1.82495 3.91676 1.91662 3.68343 2.09995 3.5001C2.28328 3.31676 2.51662 3.2251 2.79995 3.2251C3.08328 3.2251 3.31662 3.31676 3.49995 3.5001L20.5 20.5001C20.6833 20.6834 20.775 20.9168 20.775 21.2001C20.775 21.4834 20.6833 21.7168 20.5 21.9001ZM6.99995 17.0001C5.61662 17.0001 4.43745 16.5126 3.46245 15.5376C2.48745 14.5626 1.99995 13.3834 1.99995 12.0001C1.99995 10.8501 2.34995 9.8251 3.04995 8.9251C3.74995 8.0251 4.64995 7.43343 5.74995 7.1501L7.59995 9.0001H6.99995C6.16662 9.0001 5.45828 9.29176 4.87495 9.8751C4.29162 10.4584 3.99995 11.1668 3.99995 12.0001C3.99995 12.8334 4.29162 13.5418 4.87495 14.1251C5.45828 14.7084 6.16662 15.0001 6.99995 15.0001H9.99995C10.2833 15.0001 10.5208 15.0959 10.7125 15.2876C10.9041 15.4793 11 15.7168 11 16.0001C11 16.2834 10.9041 16.5209 10.7125 16.7126C10.5208 16.9043 10.2833 17.0001 9.99995 17.0001H6.99995ZM8.99995 13.0001C8.71662 13.0001 8.47912 12.9043 8.28745 12.7126C8.09579 12.5209 7.99995 12.2834 7.99995 12.0001C7.99995 11.7168 8.09579 11.4793 8.28745 11.2876C8.47912 11.0959 8.71662 11.0001 8.99995 11.0001H9.62495L11.6 13.0001H8.99995ZM18.5 15.8001C18.35 15.5668 18.2958 15.3168 18.3375 15.0501C18.3791 14.7834 18.5166 14.5751 18.75 14.4251C19.1333 14.1418 19.4375 13.7918 19.6625 13.3751C19.8875 12.9584 20 12.5001 20 12.0001C20 11.1668 19.7083 10.4584 19.125 9.8751C18.5416 9.29176 17.8333 9.0001 17 9.0001H14C13.7166 9.0001 13.4791 8.90426 13.2875 8.7126C13.0958 8.52093 13 8.28343 13 8.0001C13 7.71676 13.0958 7.47926 13.2875 7.2876C13.4791 7.09593 13.7166 7.0001 14 7.0001H17C18.3833 7.0001 19.5625 7.4876 20.5375 8.4626C21.5125 9.4376 22 10.6168 22 12.0001C22 12.8168 21.8125 13.5793 21.4375 14.2876C21.0625 14.9959 20.5416 15.5834 19.875 16.0501C19.6416 16.2001 19.3916 16.2543 19.125 16.2126C18.8583 16.1709 18.65 16.0334 18.5 15.8001Z" fill="currentColor"/>
</svg>
