<svg width="24" height="24" viewBox="0 0 24 24" fill="none" xmlns="http://www.w3.org/2000/svg">
<path d="M10 22C9.45 22 8.97917 21.8042 8.5875 21.4125C8.19583 21.0208 8 20.55 8 20V19L5.2 13.425C5.11667 13.2917 5.0625 13.1458 5.0375 12.9875C5.0125 12.8292 5 12.675 5 12.525V9C5 8.63333 5.09167 8.3 5.275 8C5.45833 7.7 5.7 7.45833 6 7.275V4C6 3.45 6.19583 2.97917 6.5875 2.5875C6.97917 2.19583 7.45 2 8 2H16C16.55 2 17.0208 2.19583 17.4125 2.5875C17.8042 2.97917 18 3.45 18 4V7.275C18.3 7.45833 18.5417 7.7 18.725 8C18.9083 8.3 19 8.63333 19 9V12.525C19 12.675 18.9875 12.8292 18.9625 12.9875C18.9375 13.1458 18.8833 13.2917 18.8 13.425L16 19V20C16 20.55 15.8042 21.0208 15.4125 21.4125C15.0208 21.8042 14.55 22 14 22H10ZM8 7H10V5.5C10 5.36667 10.05 5.25 10.15 5.15C10.25 5.05 10.3667 5 10.5 5C10.6333 5 10.75 5.05 10.85 5.15C10.95 5.25 11 5.36667 11 5.5V7H13V5.5C13 5.36667 13.05 5.25 13.15 5.15C13.25 5.05 13.3667 5 13.5 5C13.6333 5 13.75 5.05 13.85 5.15C13.95 5.25 14 5.36667 14 5.5V7H16V4H8V7ZM10 20H14V18.5L17 12.5V9H7V12.5L10 18.5V20Z" fill="currentColor"/>
</svg>
