<svg width="24" height="24" viewBox="0 0 24 24" fill="none" xmlns="http://www.w3.org/2000/svg">
<path d="M4 20C3.45 20 2.97917 19.8042 2.5875 19.4125C2.19583 19.0208 2 18.55 2 18V6C2 5.45 2.19583 4.97917 2.5875 4.5875C2.97917 4.19583 3.45 4 4 4H9.175C9.44167 4 9.69583 4.05 9.9375 4.15C10.1792 4.25 10.3917 4.39167 10.575 4.575L12 6H20C20.55 6 21.0208 6.19583 21.4125 6.5875C21.8042 6.97917 22 7.45 22 8V18C22 18.55 21.8042 19.0208 21.4125 19.4125C21.0208 19.8042 20.55 20 20 20H4ZM12.2 14L11.275 14.925C11.0917 15.1083 11 15.3417 11 15.625C11 15.9083 11.0917 16.1417 11.275 16.325C11.4583 16.5083 11.6917 16.6 11.975 16.6C12.2583 16.6 12.4917 16.5083 12.675 16.325L15.3 13.7C15.5 13.5 15.6 13.2667 15.6 13C15.6 12.7333 15.5 12.5 15.3 12.3L12.675 9.675C12.4917 9.49167 12.2583 9.4 11.975 9.4C11.6917 9.4 11.4583 9.49167 11.275 9.675C11.0917 9.85833 11 10.0917 11 10.375C11 10.6583 11.0917 10.8917 11.275 11.075L12.2 12H9C8.71667 12 8.47917 12.0958 8.2875 12.2875C8.09583 12.4792 8 12.7167 8 13C8 13.2833 8.09583 13.5208 8.2875 13.7125C8.47917 13.9042 8.71667 14 9 14H12.2Z" fill="currentColor"/>
</svg>
