<svg width="24" height="24" viewBox="0 0 24 24" fill="none" xmlns="http://www.w3.org/2000/svg">
<g clip-path="url(#clip0_1_697)">
<path d="M7.45217 17.9185C5.92729 17.9185 4.63738 17.3911 3.58242 16.3364C2.52747 15.2816 2 13.992 2 12.4674C2 10.9428 2.52747 9.65043 3.58242 8.59025C4.63738 7.53008 5.92729 7 7.45217 7H10.5674C10.8607 7 11.1053 7.10309 11.301 7.30927C11.4967 7.51546 11.5946 7.76356 11.5946 8.05358C11.5946 8.34361 11.4967 8.58943 11.301 8.79105C11.1053 8.99267 10.8607 9.09347 10.5674 9.09347H7.45217C6.49879 9.09347 5.69831 9.41905 5.05073 10.0702C4.40314 10.7213 4.07935 11.5181 4.07935 12.4604C4.07935 13.4027 4.40314 14.2014 5.05073 14.8565C5.69831 15.5116 6.49879 15.8391 7.45217 15.8391H10.5674C10.8603 15.8391 11.1047 15.9399 11.3007 16.1413C11.4966 16.3428 11.5946 16.5886 11.5946 16.8786C11.5946 17.1686 11.4967 17.4144 11.301 17.616C11.1053 17.8177 10.8607 17.9185 10.5674 17.9185H7.45217ZM9.19347 13.3522C8.93662 13.3522 8.72296 13.2673 8.55247 13.0976C8.38198 12.9279 8.29673 12.715 8.29673 12.4589C8.29673 12.1934 8.37726 11.9812 8.53832 11.8222C8.69939 11.6632 8.91777 11.5837 9.19347 11.5837H15.7728C16.0134 11.5837 16.2189 11.6646 16.3891 11.8266C16.5594 11.9885 16.6446 12.2022 16.6446 12.4677C16.6446 12.7238 16.5641 12.9353 16.4033 13.102C16.2424 13.2688 16.0323 13.3522 15.7728 13.3522H9.19347ZM14.413 17.9185C14.094 17.9185 13.8366 17.8162 13.6406 17.6117C13.4447 17.4071 13.3468 17.1598 13.3468 16.8698C13.3468 16.5798 13.4447 16.3355 13.6406 16.1369C13.8366 15.9384 14.094 15.8391 14.413 15.8391H17.4891C18.4425 15.8391 19.243 15.5135 19.8906 14.8624C20.5382 14.2112 20.8619 13.4145 20.8619 12.4722C20.8619 11.5299 20.5382 10.7312 19.8906 10.0761C19.243 9.42101 18.4425 9.09347 17.4891 9.09347H14.413C14.094 9.09347 13.8366 8.9912 13.6406 8.78665C13.4447 8.58212 13.3468 8.33483 13.3468 8.0448C13.3468 7.75478 13.4447 7.50814 13.6406 7.30488C13.8366 7.10163 14.094 7 14.413 7H17.4891C19.014 7 20.3063 7.52972 21.3659 8.58915C22.4256 9.6486 22.9554 10.9406 22.9554 12.4652C22.9554 13.9898 22.4256 15.2798 21.3659 16.3353C20.3063 17.3907 19.014 17.9185 17.4891 17.9185H14.413Z" fill="currentColor"/>
</g>
<defs>
<clipPath id="clip0_1_697">
<rect width="24" height="24" fill="white"/>
</clipPath>
</defs>
</svg>
