<svg width="24" height="24" viewBox="0 0 24 24" fill="none" xmlns="http://www.w3.org/2000/svg">
<path d="M6 17H18C18.2833 17 18.5208 17.0959 18.7125 17.2875C18.9042 17.4792 19 17.7167 19 18C19 18.2834 18.9042 18.5209 18.7125 18.7125C18.5208 18.9042 18.2833 19 18 19H6C5.71667 19 5.47917 18.9042 5.2875 18.7125C5.09583 18.5209 5 18.2834 5 18C5 17.7167 5.09583 17.4792 5.2875 17.2875C5.47917 17.0959 5.71667 17 6 17ZM6.375 13.45L11.175 6.25005C11.275 6.10005 11.3958 5.98755 11.5375 5.91255C11.6792 5.83755 11.8333 5.80005 12 5.80005C12.1667 5.80005 12.3208 5.83755 12.4625 5.91255C12.6042 5.98755 12.725 6.10005 12.825 6.25005L17.625 13.45C17.8583 13.7834 17.875 14.125 17.675 14.475C17.475 14.825 17.175 15 16.775 15H7.225C6.825 15 6.525 14.825 6.325 14.475C6.125 14.125 6.14167 13.7834 6.375 13.45ZM9.05 13H14.95L12 8.60005L9.05 13Z" fill="currentColor"/>
</svg>
