<svg width="24" height="24" viewBox="0 0 24 24" fill="none" xmlns="http://www.w3.org/2000/svg">
<path fill-rule="evenodd" clip-rule="evenodd" d="M10.5081 16.892H9.39207C9.27507 16.892 9.17807 16.852 9.09708 16.771C9.01607 16.69 8.97607 16.5909 8.97607 16.4749V7.89795C8.97607 7.78094 9.01607 7.68295 9.09708 7.60196C9.17807 7.52097 9.27608 7.48096 9.39308 7.48096H13.0091C13.5651 7.48096 14.0581 7.59796 14.4881 7.83096C14.9271 8.06396 15.2721 8.39996 15.5231 8.83896C15.7831 9.27795 15.9131 9.81195 15.9131 10.439V10.8419C15.9131 11.469 15.7831 12.016 15.5231 12.482C15.2721 12.94 14.9271 13.2979 14.4881 13.558C14.0581 13.809 13.5651 13.934 13.0091 13.934H10.9251V16.4749C10.9251 16.5919 10.8851 16.69 10.8041 16.771C10.7231 16.852 10.6251 16.892 10.5081 16.892ZM12.8461 9.30997H10.9241V12.107H12.8461C13.0611 12.107 13.2501 12.058 13.4111 11.959C13.5811 11.86 13.7151 11.7119 13.8141 11.515C13.9131 11.318 13.9621 11.081 13.9621 10.8029V10.615C13.9621 10.3369 13.9131 10.099 13.8141 9.90195C13.7161 9.70395 13.5811 9.55695 13.4111 9.45795C13.2491 9.35895 13.0611 9.30997 12.8461 9.30997Z" fill="currentColor"/>
<path fill-rule="evenodd" clip-rule="evenodd" d="M5 3H19C20.105 3 21 3.89499 21 5V19C21 20.105 20.105 21 19 21H5C3.895 21 3 20.105 3 19V5C3 3.89499 3.895 3 5 3ZM5 19H19V5H5V19Z" fill="currentColor"/>
</svg>
