<svg width="24" height="24" viewBox="0 0 24 24" fill="none" xmlns="http://www.w3.org/2000/svg">
<path d="M4 19C3.71667 19 3.47917 18.9042 3.2875 18.7125C3.09583 18.5208 3 18.2833 3 18V14C3 13.7167 3.09583 13.4792 3.2875 13.2875C3.47917 13.0958 3.71667 13 4 13H20C20.2833 13 20.5208 13.0958 20.7125 13.2875C20.9042 13.4792 21 13.7167 21 14V18C21 18.2833 20.9042 18.5208 20.7125 18.7125C20.5208 18.9042 20.2833 19 20 19H4ZM4 11C3.71667 11 3.47917 10.9042 3.2875 10.7125C3.09583 10.5208 3 10.2833 3 10C3 9.71667 3.09583 9.47917 3.2875 9.2875C3.47917 9.09583 3.71667 9 4 9H20C20.2833 9 20.5208 9.09583 20.7125 9.2875C20.9042 9.47917 21 9.71667 21 10C21 10.2833 20.9042 10.5208 20.7125 10.7125C20.5208 10.9042 20.2833 11 20 11H4ZM4 7C3.71667 7 3.47917 6.90417 3.2875 6.7125C3.09583 6.52083 3 6.28333 3 6C3 5.71667 3.09583 5.47917 3.2875 5.2875C3.47917 5.09583 3.71667 5 4 5H20C20.2833 5 20.5208 5.09583 20.7125 5.2875C20.9042 5.47917 21 5.71667 21 6C21 6.28333 20.9042 6.52083 20.7125 6.7125C20.5208 6.90417 20.2833 7 20 7H4Z" fill="currentColor"/>
</svg>
