<svg width="24" height="24" viewBox="0 0 24 24" fill="none" xmlns="http://www.w3.org/2000/svg">
<g clip-path="url(#clip0_1_703)">
<path d="M3 20.6V2.4C3 2.28333 3.05 2.20417 3.15 2.1625C3.25 2.12083 3.34167 2.14167 3.425 2.225L4.15 2.95C4.25 3.05 4.36667 3.1 4.5 3.1C4.63333 3.1 4.75 3.05 4.85 2.95L5.65 2.15C5.75 2.05 5.86667 2 6 2C6.13333 2 6.25 2.05 6.35 2.15L7.15 2.95C7.25 3.05 7.36667 3.1 7.5 3.1C7.63333 3.1 7.75 3.05 7.85 2.95L8.65 2.15C8.75 2.05 8.86667 2 9 2C9.13333 2 9.25 2.05 9.35 2.15L10.15 2.95C10.25 3.05 10.3667 3.1 10.5 3.1C10.6333 3.1 10.75 3.05 10.85 2.95L11.65 2.15C11.75 2.05 11.8667 2 12 2C12.1333 2 12.25 2.05 12.35 2.15L13.15 2.95C13.25 3.05 13.3667 3.1 13.5 3.1C13.6333 3.1 13.75 3.05 13.85 2.95L14.65 2.15C14.75 2.05 14.8667 2 15 2C15.1333 2 15.25 2.05 15.35 2.15L16.15 2.95C16.25 3.05 16.3667 3.1 16.5 3.1C16.6333 3.1 16.75 3.05 16.85 2.95L17.65 2.15C17.75 2.05 17.8667 2 18 2C18.1333 2 18.25 2.05 18.35 2.15L19.15 2.95C19.25 3.05 19.3667 3.1 19.5 3.1C19.6333 3.1 19.75 3.05 19.85 2.95L20.575 2.225C20.6583 2.14167 20.75 2.12083 20.85 2.1625C20.95 2.20417 21 2.28333 21 2.4V20.6C21 20.8333 20.9 20.9917 20.7 21.075C20.5 21.1583 20.3167 21.1167 20.15 20.95L19.85 20.65C19.75 20.55 19.6333 20.5 19.5 20.5C19.3667 20.5 19.25 20.55 19.15 20.65L18.35 21.45C18.25 21.55 18.1333 21.6 18 21.6C17.8667 21.6 17.75 21.55 17.65 21.45L16.85 20.65C16.75 20.55 16.6333 20.5 16.5 20.5C16.3667 20.5 16.25 20.55 16.15 20.65L15.35 21.45C15.25 21.55 15.1333 21.6 15 21.6C14.8667 21.6 14.75 21.55 14.65 21.45L13.85 20.65C13.75 20.55 13.6333 20.5 13.5 20.5C13.3667 20.5 13.25 20.55 13.15 20.65L12.35 21.45C12.25 21.55 12.1333 21.6 12 21.6C11.8667 21.6 11.75 21.55 11.65 21.45L10.85 20.65C10.75 20.55 10.6333 20.5 10.5 20.5C10.3667 20.5 10.25 20.55 10.15 20.65L9.35 21.45C9.25 21.55 9.13333 21.6 9 21.6C8.86667 21.6 8.75 21.55 8.65 21.45L7.85 20.65C7.75 20.55 7.63333 20.5 7.5 20.5C7.36667 20.5 7.25 20.55 7.15 20.65L6.35 21.45C6.25 21.55 6.13333 21.6 6 21.6C5.86667 21.6 5.75 21.55 5.65 21.45L4.85 20.65C4.75 20.55 4.63333 20.5 4.5 20.5C4.36667 20.5 4.25 20.55 4.15 20.65L3.85 20.95C3.68333 21.1167 3.5 21.1583 3.3 21.075C3.1 20.9917 3 20.8333 3 20.6ZM7 16.8H17C17.2833 16.8 17.5208 16.7042 17.7125 16.5125C17.9042 16.3208 18 16.0833 18 15.8C18 15.5167 17.9042 15.2792 17.7125 15.0875C17.5208 14.8958 17.2833 14.8 17 14.8H7C6.71667 14.8 6.47917 14.8958 6.2875 15.0875C6.09583 15.2792 6 15.5167 6 15.8C6 16.0833 6.09583 16.3208 6.2875 16.5125C6.47917 16.7042 6.71667 16.8 7 16.8ZM7 12.8H17C17.2833 12.8 17.5208 12.7042 17.7125 12.5125C17.9042 12.3208 18 12.0833 18 11.8C18 11.5167 17.9042 11.2792 17.7125 11.0875C17.5208 10.8958 17.2833 10.8 17 10.8H7C6.71667 10.8 6.47917 10.8958 6.2875 11.0875C6.09583 11.2792 6 11.5167 6 11.8C6 12.0833 6.09583 12.3208 6.2875 12.5125C6.47917 12.7042 6.71667 12.8 7 12.8ZM7 8.8H17C17.2833 8.8 17.5208 8.70417 17.7125 8.5125C17.9042 8.32083 18 8.08333 18 7.8C18 7.51667 17.9042 7.27917 17.7125 7.0875C17.5208 6.89583 17.2833 6.8 17 6.8H7C6.71667 6.8 6.47917 6.89583 6.2875 7.0875C6.09583 7.27917 6 7.51667 6 7.8C6 8.08333 6.09583 8.32083 6.2875 8.5125C6.47917 8.70417 6.71667 8.8 7 8.8Z" fill="currentColor"/>
</g>
<defs>
<clipPath id="clip0_1_703">
<rect width="24" height="24" fill="white"/>
</clipPath>
</defs>
</svg>
