<svg width="24" height="24" viewBox="0 0 24 24" fill="none" xmlns="http://www.w3.org/2000/svg">
<g clip-path="url(#clip0_1_632)">
<path d="M10 16.1411C10.2833 16.1411 10.5208 16.0453 10.7125 15.8536C10.9042 15.6619 11 15.4244 11 15.1411V9.14111C11 8.85778 10.9042 8.62028 10.7125 8.42861C10.5208 8.23695 10.2833 8.14111 10 8.14111C9.71667 8.14111 9.47917 8.23695 9.2875 8.42861C9.09583 8.62028 9 8.85778 9 9.14111V15.1411C9 15.4244 9.09583 15.6619 9.2875 15.8536C9.47917 16.0453 9.71667 16.1411 10 16.1411ZM14 16.1411C14.2833 16.1411 14.5208 16.0453 14.7125 15.8536C14.9042 15.6619 15 15.4244 15 15.1411V9.14111C15 8.85778 14.9042 8.62028 14.7125 8.42861C14.5208 8.23695 14.2833 8.14111 14 8.14111C13.7167 8.14111 13.4792 8.23695 13.2875 8.42861C13.0958 8.62028 13 8.85778 13 9.14111V15.1411C13 15.4244 13.0958 15.6619 13.2875 15.8536C13.4792 16.0453 13.7167 16.1411 14 16.1411ZM12 22.1411C10.6167 22.1411 9.31667 21.8786 8.1 21.3536C6.88333 20.8286 5.825 20.1161 4.925 19.2161C4.025 18.3161 3.3125 17.2578 2.7875 16.0411C2.2625 14.8244 2 13.5244 2 12.1411C2 10.7578 2.2625 9.45778 2.7875 8.24111C3.3125 7.02445 4.025 5.96611 4.925 5.06611C5.825 4.16611 6.88333 3.45361 8.1 2.92861C9.31667 2.40361 10.6167 2.14111 12 2.14111C13.3833 2.14111 14.6833 2.40361 15.9 2.92861C17.1167 3.45361 18.175 4.16611 19.075 5.06611C19.975 5.96611 20.6875 7.02445 21.2125 8.24111C21.7375 9.45778 22 10.7578 22 12.1411C22 13.5244 21.7375 14.8244 21.2125 16.0411C20.6875 17.2578 19.975 18.3161 19.075 19.2161C18.175 20.1161 17.1167 20.8286 15.9 21.3536C14.6833 21.8786 13.3833 22.1411 12 22.1411ZM12 20.1411C14.2333 20.1411 16.125 19.3661 17.675 17.8161C19.225 16.2661 20 14.3744 20 12.1411C20 9.90778 19.225 8.01611 17.675 6.46611C16.125 4.91611 14.2333 4.14111 12 4.14111C9.76667 4.14111 7.875 4.91611 6.325 6.46611C4.775 8.01611 4 9.90778 4 12.1411C4 14.3744 4.775 16.2661 6.325 17.8161C7.875 19.3661 9.76667 20.1411 12 20.1411Z" fill="currentColor"/>
</g>
<defs>
<clipPath id="clip0_1_632">
<rect width="24" height="24" fill="white"/>
</clipPath>
</defs>
</svg>
