<svg width="24" height="24" viewBox="0 0 24 24" fill="none" xmlns="http://www.w3.org/2000/svg">
<path d="M3 24C2.71667 24 2.47917 23.9042 2.2875 23.7125C2.09583 23.5208 2 23.2833 2 23V21C2 20.7167 2.09583 20.4792 2.2875 20.2875C2.47917 20.0958 2.71667 20 3 20H21C21.2833 20 21.5208 20.0958 21.7125 20.2875C21.9042 20.4792 22 20.7167 22 21V23C22 23.2833 21.9042 23.5208 21.7125 23.7125C21.5208 23.9042 21.2833 24 21 24H3ZM7.125 17C6.74167 17 6.4375 16.8375 6.2125 16.5125C5.9875 16.1875 5.94167 15.8417 6.075 15.475L10.475 3.75C10.5583 3.51667 10.7 3.33333 10.9 3.2C11.1 3.06667 11.3167 3 11.55 3H12.45C12.7 3 12.9208 3.06667 13.1125 3.2C13.3042 3.33333 13.4417 3.51667 13.525 3.75L17.95 15.5C18.0833 15.8667 18.0375 16.2083 17.8125 16.525C17.5875 16.8417 17.2833 17 16.9 17C16.6667 17 16.45 16.9333 16.25 16.8C16.05 16.6667 15.9083 16.4833 15.825 16.25L14.85 13.4H9.2L8.175 16.275C8.09167 16.5083 7.95417 16.6875 7.7625 16.8125C7.57083 16.9375 7.35833 17 7.125 17ZM9.9 11.4H14.1L12.05 5.6H11.95L9.9 11.4Z" fill="currentColor"/>
</svg>
