<svg width="24" height="24" viewBox="0 0 24 24" fill="none" xmlns="http://www.w3.org/2000/svg">
<path d="M7 14C6.71667 14 6.47917 13.9042 6.2875 13.7125C6.09583 13.5208 6 13.2833 6 13C6 12.7167 6.09583 12.4792 6.2875 12.2875C6.47917 12.0958 6.71667 12 7 12C7.28333 12 7.52083 12.0958 7.7125 12.2875C7.90417 12.4792 8 12.7167 8 13C8 13.2833 7.90417 13.5208 7.7125 13.7125C7.52083 13.9042 7.28333 14 7 14ZM22 4V16.45C22 16.7333 21.9042 16.9708 21.7125 17.1625C21.5208 17.3542 21.2833 17.45 21 17.45C20.75 17.45 20.5208 17.3667 20.3125 17.2C20.1042 17.0333 20 16.7833 20 16.45V4H7.275C6.94167 4 6.69167 3.89583 6.525 3.6875C6.35833 3.47917 6.275 3.25 6.275 3C6.275 2.75 6.35833 2.52083 6.525 2.3125C6.69167 2.10417 6.94167 2 7.275 2H20C20.55 2 21.0208 2.19583 21.4125 2.5875C21.8042 2.97917 22 3.45 22 4ZM17 11H14.275C13.9417 11 13.6917 10.8958 13.525 10.6875C13.3583 10.4792 13.275 10.25 13.275 10C13.275 9.75 13.3583 9.52083 13.525 9.3125C13.6917 9.10417 13.9417 9 14.275 9H17C17.2833 9 17.5208 9.09583 17.7125 9.2875C17.9042 9.47917 18 9.71667 18 10C18 10.2833 17.9042 10.5208 17.7125 10.7125C17.5208 10.9042 17.2833 11 17 11ZM6 18L3.7 20.3C3.38333 20.6167 3.02083 20.6875 2.6125 20.5125C2.20417 20.3375 2 20.025 2 19.575V4.8L1.4 4.2C1.21667 4.01667 1.125 3.78333 1.125 3.5C1.125 3.21667 1.21667 2.98333 1.4 2.8C1.58333 2.61667 1.81667 2.525 2.1 2.525C2.38333 2.525 2.61667 2.61667 2.8 2.8L21.2 21.2C21.3833 21.3833 21.4792 21.6125 21.4875 21.8875C21.4958 22.1625 21.4 22.4 21.2 22.6C21.0167 22.7833 20.7833 22.875 20.5 22.875C20.2167 22.875 19.9833 22.7833 19.8 22.6L15.15 18H6ZM7 11C6.71667 11 6.47917 10.9042 6.2875 10.7125C6.09583 10.5208 6 10.2833 6 10C6 9.71667 6.09583 9.47917 6.2875 9.2875C6.47917 9.09583 6.71667 9 7 9C7.28333 9 7.52083 9.09583 7.7125 9.2875C7.90417 9.47917 8 9.71667 8 10C8 10.2833 7.90417 10.5208 7.7125 10.7125C7.52083 10.9042 7.28333 11 7 11ZM17 8H11C10.7167 8 10.4792 7.90417 10.2875 7.7125C10.0958 7.52083 10 7.28333 10 7C10 6.71667 10.0958 6.47917 10.2875 6.2875C10.4792 6.09583 10.7167 6 11 6H17C17.2833 6 17.5208 6.09583 17.7125 6.2875C17.9042 6.47917 18 6.71667 18 7C18 7.28333 17.9042 7.52083 17.7125 7.7125C17.5208 7.90417 17.2833 8 17 8ZM4 6.8V17.125L5.15 16H13.2L4 6.8Z" fill="currentColor"/>
</svg>
