<svg width="24" height="24" viewBox="0 0 24 24" fill="none" xmlns="http://www.w3.org/2000/svg">
<g clip-path="url(#clip0_5709_541)">
<path d="M11 20.5C8.6404 20.5 6.63383 19.6732 4.9803 18.0197C3.32677 16.3662 2.5 14.3596 2.5 12C2.5 9.6404 3.32677 7.63383 4.9803 5.9803C6.63383 4.32677 8.6404 3.5 11 3.5C12.1377 3.5 13.2126 3.71071 14.2246 4.13212C14.967 4.44131 15.6471 4.83926 16.2649 5.32599C16.6359 5.61832 16.6387 6.16524 16.3047 6.49925C15.9793 6.82462 15.4563 6.82424 15.0887 6.54749C14.6325 6.20409 14.1346 5.92058 13.5948 5.69697C12.7948 5.36565 11.9299 5.2 11 5.2C9.11111 5.2 7.50556 5.86111 6.18333 7.18333C4.86111 8.50556 4.2 10.1111 4.2 12C4.2 13.8889 4.86111 15.4944 6.18333 16.8167C7.50556 18.1389 9.11111 18.8 11 18.8C11.9299 18.8 12.7948 18.6343 13.5948 18.303C14.1346 18.0794 14.6325 17.7959 15.0887 17.4525C15.4563 17.1758 15.9793 17.1754 16.3047 17.5008C16.6387 17.8348 16.6359 18.3817 16.2649 18.674C15.6471 19.1607 14.967 19.5587 14.2246 19.8679C13.2126 20.2893 12.1377 20.5 11 20.5ZM18.1792 15.5438C17.8494 15.8736 17.3148 15.8736 16.9849 15.5439C16.655 15.2141 16.655 14.6792 16.9848 14.3494L18.4843 12.85H10.7821C10.3127 12.85 9.93212 12.4694 9.93212 12C9.93212 11.5306 10.3127 11.15 10.7821 11.15H18.4843L16.9849 9.6506C16.655 9.32075 16.655 8.78595 16.9849 8.45614C17.3148 8.12638 17.8494 8.12641 18.1792 8.45621L20.9216 11.1986C21.3642 11.6412 21.3642 12.3588 20.9216 12.8014L18.1792 15.5438Z" fill="#44475B"/>
</g>
<defs>
<clipPath id="clip0_5709_541">
<rect width="24" height="24" fill="white"/>
</clipPath>
</defs>
</svg>
