<svg width="24" height="24" viewBox="0 0 24 24" fill="none" xmlns="http://www.w3.org/2000/svg">
<path d="M11 14.3999L7.09995 18.2999C6.91662 18.4832 6.68328 18.5749 6.39995 18.5749C6.11662 18.5749 5.88328 18.4832 5.69995 18.2999C5.51662 18.1166 5.42495 17.8832 5.42495 17.5999C5.42495 17.3166 5.51662 17.0832 5.69995 16.8999L9.89995 12.6999L2.09995 4.8999C1.91662 4.71657 1.82495 4.48324 1.82495 4.1999C1.82495 3.91657 1.91662 3.68324 2.09995 3.4999C2.28328 3.31657 2.51662 3.2249 2.79995 3.2249C3.08328 3.2249 3.31662 3.31657 3.49995 3.4999L20.5 20.4999C20.6833 20.6832 20.775 20.9166 20.775 21.1999C20.775 21.4832 20.6833 21.7166 20.5 21.8999C20.3166 22.0832 20.0833 22.1749 19.8 22.1749C19.5166 22.1749 19.2833 22.0832 19.1 21.8999L15.6 18.3999L12.7 21.2999C12.6 21.3999 12.4916 21.4749 12.375 21.5249C12.2583 21.5749 12.1333 21.5999 12 21.5999C11.7333 21.5999 11.5 21.5041 11.3 21.3124C11.1 21.1207 11 20.8749 11 20.5749V14.3999ZM13 18.1499L14.15 16.9999L13 15.8499V18.1499ZM14.1 11.2999L12.7 9.8999L14.9 7.6999L13 5.8499V10.1999L11 8.1999V3.4249C11 3.1249 11.1 2.87907 11.3 2.6874C11.5 2.49574 11.7333 2.3999 12 2.3999C12.1333 2.3999 12.2583 2.4249 12.375 2.4749C12.4916 2.5249 12.6 2.5999 12.7 2.6999L17 6.9999C17.1 7.0999 17.1708 7.20824 17.2125 7.3249C17.2541 7.44157 17.275 7.56657 17.275 7.6999C17.275 7.83324 17.2541 7.95824 17.2125 8.0749C17.1708 8.19157 17.1 8.2999 17 8.3999L14.1 11.2999Z" fill="currentColor"/>
</svg>
