<svg width="24" height="24" viewBox="0 0 24 24" fill="none" xmlns="http://www.w3.org/2000/svg">
<path d="M17.65 7.5751C18.45 8.3751 19.0416 9.2376 19.425 10.1626C19.8083 11.0876 20 12.0668 20 13.1001C20 13.3834 19.9875 13.6584 19.9625 13.9251C19.9375 14.1918 19.9 14.4501 19.85 14.7001C19.8 14.9501 19.675 15.1459 19.475 15.2876C19.275 15.4293 19.0583 15.5001 18.825 15.5001C18.675 15.5001 18.5291 15.4751 18.3875 15.4251C18.2458 15.3751 18.1083 15.2834 17.975 15.1501L12.575 9.7501C12.3916 9.56676 12.25 9.35426 12.15 9.1126C12.05 8.87093 12 8.61676 12 8.3501V4.8001L10.475 6.3001C10.2916 6.48343 10.0583 6.57093 9.77495 6.5626C9.49162 6.55426 9.25828 6.45843 9.07495 6.2751C8.87495 6.0751 8.77912 5.8376 8.78745 5.5626C8.79578 5.2876 8.89995 5.05843 9.09995 4.8751L10.95 3.0501C11.1 2.9001 11.2666 2.7876 11.45 2.7126C11.6333 2.6376 11.8166 2.6001 12 2.6001C12.1833 2.6001 12.3666 2.6376 12.55 2.7126C12.7333 2.7876 12.9 2.9001 13.05 3.0501L17.65 7.5751ZM12 21.0001C9.78328 21.0001 7.89578 20.2376 6.33745 18.7126C4.77912 17.1876 3.99995 15.3168 3.99995 13.1001C3.99995 12.2501 4.13328 11.4334 4.39995 10.6501C4.66662 9.86676 5.06662 9.11676 5.59995 8.4001L2.09995 4.9001C1.91662 4.71676 1.82495 4.48343 1.82495 4.2001C1.82495 3.91676 1.91662 3.68343 2.09995 3.5001C2.28328 3.31676 2.51662 3.2251 2.79995 3.2251C3.08328 3.2251 3.31662 3.31676 3.49995 3.5001L20.5 20.5001C20.6833 20.6834 20.775 20.9168 20.775 21.2001C20.775 21.4834 20.6833 21.7168 20.5 21.9001C20.3166 22.0834 20.0833 22.1751 19.8 22.1751C19.5166 22.1751 19.2833 22.0834 19.1 21.9001L16.7 19.5001C16 20.0168 15.2375 20.3959 14.4125 20.6376C13.5875 20.8793 12.7833 21.0001 12 21.0001ZM12 19.0001V14.8251L6.99995 9.8251C6.64995 10.3584 6.39578 10.8959 6.23745 11.4376C6.07912 11.9793 5.99995 12.5334 5.99995 13.1001C5.99995 14.7668 6.58328 16.1668 7.74995 17.3001C8.91662 18.4334 10.3333 19.0001 12 19.0001Z" fill="currentColor"/>
</svg>
