<svg width="24" height="24" viewBox="0 0 24 24" fill="none" xmlns="http://www.w3.org/2000/svg">
<g clip-path="url(#clip0_1_680)">
<path d="M5.40532 20.4881C4.87432 20.4881 4.42597 20.3052 4.06027 19.9395C3.69457 19.5738 3.51172 19.1255 3.51172 18.5945C3.51172 18.0634 3.69457 17.615 4.06027 17.249C4.42597 16.883 4.87432 16.7 5.40532 16.7C5.93634 16.7 6.38483 16.883 6.75079 17.249C7.11678 17.615 7.29977 18.0634 7.29977 18.5945C7.29977 19.1255 7.11678 19.5738 6.75079 19.9395C6.38483 20.3052 5.93634 20.4881 5.40532 20.4881ZM12.002 20.4881C11.4752 20.4881 11.0274 20.3052 10.6587 19.9395C10.2901 19.5738 10.1057 19.1255 10.1057 18.5945C10.1057 18.0634 10.2893 17.615 10.6565 17.249C11.0236 16.883 11.4706 16.7 11.9975 16.7C12.5244 16.7 12.9721 16.883 13.3408 17.249C13.7095 17.615 13.8938 18.0634 13.8938 18.5945C13.8938 19.1255 13.7102 19.5738 13.3431 19.9395C12.9759 20.3052 12.5289 20.4881 12.002 20.4881ZM18.5942 20.4881C18.0632 20.4881 17.6147 20.3052 17.2487 19.9395C16.8828 19.5738 16.6998 19.1255 16.6998 18.5945C16.6998 18.0634 16.8828 17.615 17.2487 17.249C17.6147 16.883 18.0632 16.7 18.5942 16.7C19.1252 16.7 19.5736 16.883 19.9393 17.249C20.305 17.615 20.4878 18.0634 20.4878 18.5945C20.4878 19.1255 20.305 19.5738 19.9393 19.9395C19.5736 20.3052 19.1252 20.4881 18.5942 20.4881ZM5.40532 13.894C4.87432 13.894 4.42597 13.7105 4.06027 13.3433C3.69457 12.9762 3.51172 12.5292 3.51172 12.0023C3.51172 11.4754 3.69457 11.0276 4.06027 10.659C4.42597 10.2903 4.87432 10.106 5.40532 10.106C5.93634 10.106 6.38483 10.2896 6.75079 10.6567C7.11678 11.0238 7.29977 11.4709 7.29977 11.9977C7.29977 12.5246 7.11678 12.9724 6.75079 13.341C6.38483 13.7097 5.93634 13.894 5.40532 13.894ZM12.002 13.894C11.4752 13.894 11.0274 13.7105 10.6587 13.3433C10.2901 12.9762 10.1057 12.5292 10.1057 12.0023C10.1057 11.4754 10.2893 11.0276 10.6565 10.659C11.0236 10.2903 11.4706 10.106 11.9975 10.106C12.5244 10.106 12.9721 10.2896 13.3408 10.6567C13.7095 11.0238 13.8938 11.4709 13.8938 11.9977C13.8938 12.5246 13.7102 12.9724 13.3431 13.341C12.9759 13.7097 12.5289 13.894 12.002 13.894ZM18.5942 13.894C18.0632 13.894 17.6147 13.7105 17.2487 13.3433C16.8828 12.9762 16.6998 12.5292 16.6998 12.0023C16.6998 11.4754 16.8828 11.0276 17.2487 10.659C17.6147 10.2903 18.0632 10.106 18.5942 10.106C19.1252 10.106 19.5736 10.2896 19.9393 10.6567C20.305 11.0238 20.4878 11.4709 20.4878 11.9977C20.4878 12.5246 20.305 12.9724 19.9393 13.341C19.5736 13.7097 19.1252 13.894 18.5942 13.894ZM5.40532 7.30001C4.87432 7.30001 4.42597 7.11702 4.06027 6.75104C3.69457 6.38507 3.51172 5.93658 3.51172 5.40556C3.51172 4.87456 3.69457 4.42621 4.06027 4.06051C4.42597 3.69481 4.87432 3.51196 5.40532 3.51196C5.93634 3.51196 6.38483 3.69481 6.75079 4.06051C7.11678 4.42621 7.29977 4.87456 7.29977 5.40556C7.29977 5.93658 7.11678 6.38507 6.75079 6.75104C6.38483 7.11702 5.93634 7.30001 5.40532 7.30001ZM12.002 7.30001C11.4752 7.30001 11.0274 7.11702 10.6587 6.75104C10.2901 6.38507 10.1057 5.93658 10.1057 5.40556C10.1057 4.87456 10.2893 4.42621 10.6565 4.06051C11.0236 3.69481 11.4706 3.51196 11.9975 3.51196C12.5244 3.51196 12.9721 3.69481 13.3408 4.06051C13.7095 4.42621 13.8938 4.87456 13.8938 5.40556C13.8938 5.93658 13.7102 6.38507 13.3431 6.75104C12.9759 7.11702 12.5289 7.30001 12.002 7.30001ZM18.5942 7.30001C18.0632 7.30001 17.6147 7.11702 17.2487 6.75104C16.8828 6.38507 16.6998 5.93658 16.6998 5.40556C16.6998 4.87456 16.8828 4.42621 17.2487 4.06051C17.6147 3.69481 18.0632 3.51196 18.5942 3.51196C19.1252 3.51196 19.5736 3.69481 19.9393 4.06051C20.305 4.42621 20.4878 4.87456 20.4878 5.40556C20.4878 5.93658 20.305 6.38507 19.9393 6.75104C19.5736 7.11702 19.1252 7.30001 18.5942 7.30001Z" fill="currentColor"/>
</g>
<defs>
<clipPath id="clip0_1_680">
<rect width="24" height="24" fill="white"/>
</clipPath>
</defs>
</svg>
