<svg width="24" height="24" viewBox="0 0 24 24" fill="none" xmlns="http://www.w3.org/2000/svg">
<path d="M12 22C10.6167 22 9.31667 21.7375 8.1 21.2125C6.88333 20.6875 5.825 19.975 4.925 19.075C4.025 18.175 3.3125 17.1167 2.7875 15.9C2.2625 14.6833 2 13.3833 2 12C2 10.6167 2.2625 9.31667 2.7875 8.1C3.3125 6.88333 4.025 5.825 4.925 4.925C5.825 4.025 6.88333 3.3125 8.1 2.7875C9.31667 2.2625 10.6167 2 12 2C13.3833 2 14.6833 2.2625 15.9 2.7875C17.1167 3.3125 18.175 4.025 19.075 4.925C19.975 5.825 20.6875 6.88333 21.2125 8.1C21.7375 9.31667 22 10.6167 22 12C22 13.3833 21.7375 14.6833 21.2125 15.9C20.6875 17.1167 19.975 18.175 19.075 19.075C18.175 19.975 17.1167 20.6875 15.9 21.2125C14.6833 21.7375 13.3833 22 12 22ZM8.75 9.8L9.625 10.7C9.775 10.85 9.95 10.925 10.15 10.925C10.35 10.925 10.525 10.85 10.675 10.7C10.825 10.55 10.9 10.3708 10.9 10.1625C10.9 9.95417 10.825 9.775 10.675 9.625L9.8 8.75L10.7 7.875C10.85 7.725 10.925 7.55 10.925 7.35C10.925 7.15 10.85 6.975 10.7 6.825C10.55 6.675 10.3708 6.6 10.1625 6.6C9.95417 6.6 9.775 6.675 9.625 6.825L8.75 7.7L7.875 6.8C7.725 6.65 7.55 6.575 7.35 6.575C7.15 6.575 6.975 6.65 6.825 6.8C6.675 6.95 6.6 7.12917 6.6 7.3375C6.6 7.54583 6.675 7.725 6.825 7.875L7.7 8.75L6.8 9.625C6.65 9.775 6.575 9.95 6.575 10.15C6.575 10.35 6.65 10.525 6.8 10.675C6.95 10.825 7.12917 10.9 7.3375 10.9C7.54583 10.9 7.725 10.825 7.875 10.675L8.75 9.8ZM12 20C14.2167 20 16.1042 19.2208 17.6625 17.6625C19.2208 16.1042 20 14.2167 20 12C20 10.9 19.7917 9.86667 19.375 8.9C18.9583 7.93333 18.3833 7.08333 17.65 6.35L6.35 17.65C7.08333 18.3833 7.93333 18.9583 8.9 19.375C9.86667 19.7917 10.9 20 12 20ZM14.05 15.475L16.025 13.525C16.175 13.3917 16.35 13.3208 16.55 13.3125C16.75 13.3042 16.925 13.375 17.075 13.525C17.225 13.675 17.3 13.85 17.3 14.05C17.3 14.25 17.225 14.425 17.075 14.575L14.75 16.9C14.55 17.1 14.3167 17.2 14.05 17.2C13.7833 17.2 13.55 17.1 13.35 16.9L12.175 15.725C12.025 15.575 11.95 15.4 11.95 15.2C11.95 15 12.025 14.825 12.175 14.675C12.325 14.525 12.5042 14.45 12.7125 14.45C12.9208 14.45 13.1 14.525 13.25 14.675L14.05 15.475Z" fill="currentColor"/>
</svg>
