<svg width="24" height="24" viewBox="0 0 24 24" fill="none" xmlns="http://www.w3.org/2000/svg">
<path fill-rule="evenodd" clip-rule="evenodd" d="M14.6659 5.43445C11.0067 5.81587 8.2872 8.96299 8.46082 12.6154C8.50678 13.5835 8.71045 14.3814 9.14087 15.28C10.6426 18.415 14.2157 19.9268 17.5258 18.8275C19.531 18.1616 21.1449 16.5725 21.8379 14.5814C22.1375 13.7209 22.2008 13.3221 22.2008 12.2961C22.2008 11.5036 22.1871 11.321 22.0978 10.9221C21.8222 9.69155 21.3094 8.6595 20.5211 7.74872C19.0986 6.10527 16.8305 5.2088 14.6659 5.43445ZM15.8785 6.85992C16.7265 6.95448 17.5253 7.22235 18.1846 7.63329C20.3397 8.9765 21.3024 11.5527 20.5464 13.9533C19.9858 15.7336 18.516 17.1241 16.7109 17.582C16.0686 17.7449 15.433 17.7987 14.859 17.7386C13.4625 17.5924 12.3245 17.0391 11.3756 16.0452C9.3732 13.9477 9.38185 10.6246 11.3952 8.52748C12.3135 7.57096 13.4742 6.99742 14.7692 6.86027C15.2711 6.80713 15.4044 6.80708 15.8785 6.85992ZM5.02301 7.86713C4.80383 7.97516 4.68625 8.17009 4.66606 8.45887C4.64435 8.76922 4.76401 8.97124 5.05823 9.12109C5.25556 9.22158 5.27803 9.22287 6.59605 9.21026C7.91175 9.19764 7.93636 9.19572 8.10218 9.0926C8.33067 8.95055 8.46296 8.68487 8.43384 8.42654C8.40847 8.20143 8.30348 8.03852 8.09009 7.89331C7.94497 7.79451 7.92147 7.79299 6.55601 7.79402C5.37005 7.79486 5.14816 7.80547 5.02301 7.86713ZM15.0251 8.82776C14.9284 8.88398 14.808 9.00017 14.7576 9.086C14.6707 9.23384 14.6652 9.32159 14.6526 10.7673C14.6435 11.8051 14.6555 12.3539 14.69 12.4839C14.7331 12.6467 14.8773 12.8128 15.6619 13.6036C16.1685 14.1142 16.6372 14.5606 16.7035 14.5956C16.86 14.6781 17.1996 14.6768 17.3616 14.5931C17.6377 14.4503 17.7925 14.1058 17.7212 13.7931C17.6879 13.6471 17.5476 13.4843 16.8758 12.8117L16.0704 12.0054V10.6191C16.0704 9.25493 16.0687 9.23054 15.97 9.08551C15.737 8.74314 15.3516 8.63801 15.0251 8.82776ZM2.24906 11.6328C2.18776 11.6573 2.09056 11.7212 2.033 11.7749C1.68885 12.0962 1.73228 12.5993 2.12967 12.8939C2.25303 12.9853 2.30083 12.9874 4.59249 12.9994C6.85237 13.0113 6.93525 13.0088 7.10378 12.9228C7.60586 12.6667 7.60719 11.9261 7.10606 11.6705C6.94127 11.5865 6.83699 11.5828 4.64724 11.5855C3.23903 11.5873 2.31768 11.6054 2.24906 11.6328ZM5.05823 15.4711C4.76401 15.6209 4.64435 15.8229 4.66606 16.1333C4.68648 16.4256 4.80601 16.6204 5.03027 16.7268C5.16082 16.7887 5.38191 16.7991 6.56275 16.7991C7.9204 16.7991 7.9451 16.7975 8.09009 16.6988C8.30348 16.5536 8.40847 16.3907 8.43384 16.1656C8.46296 15.9073 8.33067 15.6416 8.10218 15.4995C7.93636 15.3964 7.91175 15.3945 6.59605 15.3819C5.27803 15.3693 5.25556 15.3706 5.05823 15.4711Z" fill="currentColor"/>
</svg>
