<svg width="24" height="24" viewBox="0 0 24 24" fill="none" xmlns="http://www.w3.org/2000/svg">
<path d="M12 20C10.5 20 9.19168 19.5292 8.07501 18.5875C6.95835 17.6458 6.29168 16.45 6.07501 15C6.04168 14.7333 6.11668 14.5 6.30001 14.3C6.48335 14.1 6.71668 14 7.00001 14C7.28335 14 7.52085 14.0708 7.71251 14.2125C7.90418 14.3542 8.02501 14.5417 8.07501 14.775C8.25835 15.725 8.72085 16.5 9.46251 17.1C10.2042 17.7 11.05 18 12 18C12.95 18 13.7958 17.7 14.5375 17.1C15.2792 16.5 15.7417 15.725 15.925 14.775C15.975 14.5417 16.0958 14.3542 16.2875 14.2125C16.4792 14.0708 16.7167 14 17 14C17.2833 14 17.5167 14.1 17.7 14.3C17.8833 14.5 17.9583 14.7333 17.925 15C17.7083 16.45 17.0417 17.6458 15.925 18.5875C14.8083 19.5292 13.5 20 12 20ZM11 11.15V6C11 5.71667 11.0958 5.47917 11.2875 5.2875C11.4792 5.09583 11.7167 5 12 5C12.2833 5 12.5208 5.09583 12.7125 5.2875C12.9042 5.47917 13 5.71667 13 6V11.15L13.9 10.25C14.1 10.05 14.3333 9.95417 14.6 9.9625C14.8667 9.97083 15.1 10.075 15.3 10.275C15.4833 10.475 15.5792 10.7083 15.5875 10.975C15.5958 11.2417 15.5 11.475 15.3 11.675L12.7 14.275C12.6 14.375 12.4917 14.4458 12.375 14.4875C12.2583 14.5292 12.1333 14.55 12 14.55C11.8667 14.55 11.7417 14.5292 11.625 14.4875C11.5083 14.4458 11.4 14.375 11.3 14.275L8.70001 11.675C8.51668 11.4917 8.42501 11.2625 8.42501 10.9875C8.42501 10.7125 8.51668 10.475 8.70001 10.275C8.90001 10.075 9.13751 9.975 9.41251 9.975C9.68751 9.975 9.92501 10.075 10.125 10.275L11 11.15Z" fill="currentColor"/>
</svg>
