<svg width="24" height="24" viewBox="0 0 24 24" fill="none" xmlns="http://www.w3.org/2000/svg">
<path d="M19.0749 21.9L15.9999 18.85H17.9999V19C17.9999 19.55 17.8041 20.0208 17.4124 20.4125C17.0207 20.8042 16.5499 21 15.9999 21H7.9999C7.4499 21 6.97907 20.8042 6.5874 20.4125C6.19574 20.0208 5.9999 19.55 5.9999 19V17H3.9999C3.4499 17 2.97907 16.8042 2.5874 16.4125C2.19574 16.0208 1.9999 15.55 1.9999 15V11C1.9999 10.15 2.29157 9.4375 2.8749 8.8625C3.45824 8.2875 4.16657 8 4.9999 8H5.1499L2.0749 4.925C1.8749 4.725 1.7749 4.4875 1.7749 4.2125C1.7749 3.9375 1.8749 3.7 2.0749 3.5C2.2749 3.3 2.5124 3.2 2.7874 3.2C3.0624 3.2 3.2999 3.3 3.4999 3.5L20.4999 20.5C20.6999 20.7 20.7999 20.9333 20.7999 21.2C20.7999 21.4667 20.6999 21.7 20.4999 21.9C20.2999 22.1 20.0624 22.2 19.7874 22.2C19.5124 22.2 19.2749 22.1 19.0749 21.9ZM7.9999 19H15.9999V18.85L12.1499 15H7.9999V19ZM21.9999 15C21.9999 15.55 21.8041 16.0208 21.4124 16.4125C21.0207 16.8042 20.5499 17 19.9999 17H19.8499C19.5666 17 19.3291 16.9042 19.1374 16.7125C18.9457 16.5208 18.8499 16.2833 18.8499 16C18.8499 15.7167 18.9457 15.4792 19.1374 15.2875C19.3291 15.0958 19.5666 15 19.8499 15H19.9999V11C19.9999 10.7167 19.9041 10.4792 19.7124 10.2875C19.5207 10.0958 19.2832 10 18.9999 10H12.9249C12.5916 10 12.3416 9.89583 12.1749 9.6875C12.0082 9.47917 11.9249 9.25 11.9249 9C11.9249 8.75 12.0082 8.52083 12.1749 8.3125C12.3416 8.10417 12.5916 8 12.9249 8H18.9999C19.8499 8 20.5624 8.2875 21.1374 8.8625C21.7124 9.4375 21.9999 10.15 21.9999 11V15ZM3.9999 11V15H5.9999C5.9999 14.45 6.19574 13.9792 6.5874 13.5875C6.97907 13.1958 7.4499 13 7.9999 13H10.1499L7.1499 10H4.9999C4.71657 10 4.47907 10.0958 4.2874 10.2875C4.09574 10.4792 3.9999 10.7167 3.9999 11ZM15.9999 8V5H7.9249C7.59157 5 7.34157 4.89583 7.1749 4.6875C7.00824 4.47917 6.9249 4.25 6.9249 4C6.9249 3.75 7.00824 3.52083 7.1749 3.3125C7.34157 3.10417 7.59157 3 7.9249 3H15.9999C16.5499 3 17.0207 3.19583 17.4124 3.5875C17.8041 3.97917 17.9999 4.45 17.9999 5V8H15.9999ZM17.9999 12.5C18.2832 12.5 18.5207 12.4042 18.7124 12.2125C18.9041 12.0208 18.9999 11.7833 18.9999 11.5C18.9999 11.2167 18.9041 10.9792 18.7124 10.7875C18.5207 10.5958 18.2832 10.5 17.9999 10.5C17.7166 10.5 17.4791 10.5958 17.2874 10.7875C17.0957 10.9792 16.9999 11.2167 16.9999 11.5C16.9999 11.7833 17.0957 12.0208 17.2874 12.2125C17.4791 12.4042 17.7166 12.5 17.9999 12.5ZM18.9999 10H19.9999H12.9249H18.9999Z" fill="currentColor"/>
</svg>
