<svg width="24" height="24" viewBox="0 0 24 24" fill="none" xmlns="http://www.w3.org/2000/svg">
<path d="M1.75001 13.05C1.55001 12.85 1.45417 12.6166 1.46251 12.35C1.47084 12.0833 1.57501 11.85 1.77501 11.65C1.97501 11.4666 2.20834 11.3708 2.47501 11.3625C2.74167 11.3541 2.97501 11.45 3.17501 11.65L7.42501 15.9C7.62501 16.1 7.72084 16.3333 7.71251 16.6C7.70417 16.8666 7.60001 17.1 7.40001 17.3C7.20001 17.4833 6.96667 17.5791 6.70001 17.5875C6.43334 17.5958 6.20001 17.5 6.00001 17.3L1.75001 13.05ZM12.35 15.175L20.85 6.67496C21.05 6.47496 21.2833 6.37913 21.55 6.38746C21.8167 6.3958 22.05 6.49996 22.25 6.69996C22.4333 6.89996 22.5292 7.1333 22.5375 7.39996C22.5458 7.66663 22.45 7.89996 22.25 8.09996L13.05 17.3C12.85 17.5 12.6167 17.6 12.35 17.6C12.0833 17.6 11.85 17.5 11.65 17.3L7.40001 13.05C7.21667 12.8666 7.12501 12.6375 7.12501 12.3625C7.12501 12.0875 7.21667 11.85 7.40001 11.65C7.60001 11.45 7.83751 11.35 8.11251 11.35C8.38751 11.35 8.62501 11.45 8.82501 11.65L12.35 15.175ZM16.575 8.12496L13.05 11.65C12.8667 11.8333 12.6375 11.925 12.3625 11.925C12.0875 11.925 11.85 11.8333 11.65 11.65C11.45 11.45 11.35 11.2125 11.35 10.9375C11.35 10.6625 11.45 10.425 11.65 10.225L15.175 6.69996C15.3583 6.51663 15.5875 6.42496 15.8625 6.42496C16.1375 6.42496 16.375 6.51663 16.575 6.69996C16.775 6.89996 16.875 7.13746 16.875 7.41246C16.875 7.68746 16.775 7.92496 16.575 8.12496Z" fill="currentColor"/>
</svg>
