<svg width="24" height="24" viewBox="0 0 24 24" fill="none" xmlns="http://www.w3.org/2000/svg">
<path fill-rule="evenodd" clip-rule="evenodd" d="M11.9975 2H12.0025C17.5163 2 22 6.48625 22 12C22 17.5138 17.5163 22 12.0025 22C9.96875 22 8.0825 21.395 6.50125 20.3475L3.59773 21.2757C3.20755 21.4004 2.84116 21.0288 2.97144 20.6404L3.90375 17.8612C2.705 16.215 2 14.1875 2 12C2 6.485 6.48375 2 11.9975 2ZM15.8587 17.5325C16.6225 17.3675 17.58 16.8025 17.8212 16.1213C18.0625 15.4388 18.0625 14.8575 17.9925 14.7338C17.936 14.6356 17.8023 14.5712 17.6028 14.4752C17.5508 14.4502 17.4944 14.423 17.4337 14.3925C17.14 14.2463 15.7112 13.54 15.4412 13.4463C15.1762 13.3463 14.9237 13.3813 14.7237 13.6638C14.6857 13.717 14.6478 13.7704 14.61 13.8235C14.3687 14.1628 14.136 14.4902 13.9425 14.6988C13.7662 14.8863 13.4787 14.91 13.2375 14.81C13.2112 14.7991 13.1811 14.7869 13.1473 14.7732C12.7653 14.619 11.9181 14.2768 10.8925 13.3638C10.0275 12.5938 9.44 11.635 9.27 11.3475C9.10309 11.0591 9.24706 10.89 9.38012 10.7337C9.38258 10.7308 9.38504 10.7279 9.3875 10.725C9.47328 10.6189 9.55654 10.5305 9.6402 10.4417C9.70039 10.3778 9.76078 10.3136 9.8225 10.2425C9.83166 10.232 9.84057 10.2217 9.84925 10.2117C9.98029 10.0611 10.0583 9.97135 10.1462 9.78377C10.2462 9.59002 10.175 9.39002 10.1037 9.24252C10.0547 9.13922 9.75189 8.40447 9.49193 7.77372C9.38069 7.50382 9.27729 7.25296 9.205 7.07877C9.01125 6.61502 8.86375 6.59752 8.57 6.58502C8.56101 6.58457 8.55192 6.58411 8.54275 6.58365C8.44989 6.57895 8.34762 6.57377 8.235 6.57377C7.8525 6.57377 7.45375 6.68627 7.2125 6.93252C7.20407 6.94113 7.19528 6.95007 7.18616 6.95934C6.87752 7.27323 6.19 7.97245 6.19 9.36627C6.19 10.7628 7.18088 12.1143 7.36422 12.3644C7.36927 12.3713 7.37371 12.3773 7.3775 12.3825C7.38853 12.397 7.40932 12.4271 7.43958 12.4709C7.81393 13.0131 9.63729 15.6536 12.3562 16.78C14.6537 17.7325 15.3362 17.6438 15.8587 17.5325Z" fill="currentColor"/>
</svg>
