<svg width="24" height="24" viewBox="0 0 24 24" fill="none" xmlns="http://www.w3.org/2000/svg">
<path d="M8.40003 22C7.95003 22 7.6417 21.7958 7.47503 21.3875C7.30837 20.9792 7.38337 20.6167 7.70003 20.3L20.3 7.675C20.6167 7.35833 20.9792 7.28333 21.3875 7.45C21.7959 7.61667 22 7.925 22 8.375V20.5C22 20.9167 21.8542 21.2708 21.5625 21.5625C21.2709 21.8542 20.9167 22 20.5 22H8.40003ZM18 20H20V10.8L18 12.8V20ZM11.05 13.1C10.65 13.1 10.3 12.95 10 12.65C9.70003 12.35 9.55003 12 9.55003 11.6C9.55003 11.2 9.70003 10.85 10 10.55C10.3 10.25 10.65 10.1 11.05 10.1C11.45 10.1 11.8 10.25 12.1 10.55C12.4 10.85 12.55 11.2 12.55 11.6C12.55 12 12.4 12.35 12.1 12.65C11.8 12.95 11.45 13.1 11.05 13.1ZM11.05 8.45C10.6167 8.45 10.1875 8.5125 9.76253 8.6375C9.33753 8.7625 8.93337 8.95833 8.55003 9.225C8.33337 9.35833 8.10003 9.425 7.85003 9.425C7.60003 9.425 7.38337 9.33333 7.20003 9.15C7.0167 8.96667 6.9292 8.75 6.93753 8.5C6.94587 8.25 7.05003 8.05 7.25003 7.9C7.8167 7.48333 8.42087 7.17083 9.06253 6.9625C9.7042 6.75417 10.3667 6.65 11.05 6.65C11.7334 6.65 12.3959 6.75417 13.0375 6.9625C13.6792 7.17083 14.2834 7.48333 14.85 7.9C15.05 8.05 15.1542 8.25 15.1625 8.5C15.1709 8.75 15.0834 8.96667 14.9 9.15C14.7167 9.33333 14.5 9.425 14.25 9.425C14 9.425 13.7667 9.35833 13.55 9.225C13.1667 8.95833 12.7625 8.7625 12.3375 8.6375C11.9125 8.5125 11.4834 8.45 11.05 8.45ZM11.05 4.85C10.15 4.85 9.27087 4.99167 8.41253 5.275C7.5542 5.55833 6.75003 5.99167 6.00003 6.575C5.80003 6.74167 5.57087 6.82917 5.31253 6.8375C5.0542 6.84583 4.83337 6.75833 4.65003 6.575C4.4667 6.39167 4.38337 6.175 4.40003 5.925C4.4167 5.675 4.52503 5.46667 4.72503 5.3C5.6417 4.53333 6.6417 3.95833 7.72503 3.575C8.80837 3.19167 9.9167 3 11.05 3C12.1834 3 13.2959 3.19167 14.3875 3.575C15.4792 3.95833 16.4917 4.53333 17.425 5.3C17.625 5.46667 17.7334 5.675 17.75 5.925C17.7667 6.175 17.6834 6.39167 17.5 6.575C17.3167 6.75833 17.0959 6.84583 16.8375 6.8375C16.5792 6.82917 16.35 6.74167 16.15 6.575C15.4 5.99167 14.5875 5.55833 13.7125 5.275C12.8375 4.99167 11.95 4.85 11.05 4.85Z" fill="currentColor"/>
</svg>
