<svg width="24" height="24" viewBox="0 0 24 24" fill="none" xmlns="http://www.w3.org/2000/svg">
<path d="M19.8 22.6L18.2 21H4C3.45 21 2.97917 20.8042 2.5875 20.4125C2.19583 20.0208 2 19.55 2 19V8C2 7.45 2.19583 6.97917 2.5875 6.5875C2.97917 6.19583 3.45 6 4 6H6L8 8H4V19H16.175L1.4 4.2C1.21667 4.01667 1.12083 3.7875 1.1125 3.5125C1.10417 3.2375 1.2 3 1.4 2.8C1.58333 2.61667 1.81667 2.525 2.1 2.525C2.38333 2.525 2.61667 2.61667 2.8 2.8L21.2 21.2C21.3833 21.3833 21.475 21.6167 21.475 21.9C21.475 22.1833 21.3833 22.4167 21.2 22.6C21.0167 22.7833 20.7833 22.875 20.5 22.875C20.2167 22.875 19.9833 22.7833 19.8 22.6ZM22 8V16.75C22 17.0833 21.8958 17.3333 21.6875 17.5C21.4792 17.6667 21.25 17.75 21 17.75C20.75 17.75 20.5208 17.6625 20.3125 17.4875C20.1042 17.3125 20 17.0583 20 16.725V8H11.675C11.4083 8 11.1542 7.95 10.9125 7.85C10.6708 7.75 10.4583 7.60833 10.275 7.425L8.575 5.725C8.39167 5.54167 8.25 5.32917 8.15 5.0875C8.05 4.84583 8 4.59167 8 4.325V4C8 3.45 8.19583 2.97917 8.5875 2.5875C8.97917 2.19583 9.45 2 10 2H14C14.55 2 15.0208 2.19583 15.4125 2.5875C15.8042 2.97917 16 3.45 16 4V6H20C20.55 6 21.0208 6.19583 21.4125 6.5875C21.8042 6.97917 22 7.45 22 8ZM10 6H14V4H10V6Z" fill="currentColor"/>
</svg>
