<svg width="24" height="24" viewBox="0 0 24 24" fill="none" xmlns="http://www.w3.org/2000/svg">
<g clip-path="url(#clip0_1_710)">
<path d="M7.69174 17.1163H13.0988C13.3271 17.1163 13.5262 17.0322 13.6961 16.8639C13.866 16.6956 13.951 16.4867 13.951 16.2373C13.951 16.0084 13.866 15.8095 13.6961 15.6405C13.5262 15.4715 13.3271 15.387 13.0988 15.387H7.69174C7.44279 15.387 7.23436 15.4725 7.06644 15.6436C6.89853 15.8147 6.81457 16.0162 6.81457 16.2482C6.81457 16.4969 6.89853 16.7037 7.06644 16.8688C7.23436 17.0338 7.44279 17.1163 7.69174 17.1163ZM7.69174 12.8582H16.339C16.5673 12.8582 16.7664 12.7736 16.9363 12.6045C17.1062 12.4355 17.1912 12.2256 17.1912 11.9749C17.1912 11.7409 17.1062 11.5414 16.9363 11.3764C16.7664 11.2113 16.5673 11.1288 16.339 11.1288H7.69174C7.44279 11.1288 7.23436 11.213 7.06644 11.3812C6.89853 11.5495 6.81457 11.75 6.81457 11.9829C6.81457 12.2323 6.89853 12.4406 7.06644 12.6076C7.23436 12.7746 7.44279 12.8582 7.69174 12.8582ZM7.69374 8.58806H16.339C16.5673 8.58806 16.7664 8.50352 16.9363 8.33443C17.1062 8.16535 17.1912 7.95548 17.1912 7.70481C17.1912 7.47479 17.1062 7.27628 16.9363 7.10926C16.7664 6.94223 16.5673 6.85871 16.339 6.85871H7.69374C7.44423 6.85871 7.23532 6.94384 7.06702 7.11411C6.89872 7.28438 6.81457 7.48492 6.81457 7.71573C6.81457 7.96322 6.89872 8.17048 7.06702 8.33751C7.23532 8.50454 7.44423 8.58806 7.69374 8.58806ZM4.55369 21.3788C4.03669 21.3788 3.58534 21.186 3.19964 20.8003C2.81394 20.4146 2.62109 19.9632 2.62109 19.4462V4.55381C2.62109 4.03516 2.81394 3.5824 3.19964 3.19553C3.58534 2.80867 4.03669 2.61523 4.55369 2.61523H19.4461C19.9647 2.61523 20.4175 2.80867 20.8044 3.19553C21.1912 3.5824 21.3847 4.03516 21.3847 4.55381V19.4462C21.3847 19.9632 21.1912 20.4146 20.8044 20.8003C20.4175 21.186 19.9647 21.3788 19.4461 21.3788H4.55369Z" fill="currentColor"/>
</g>
<defs>
<clipPath id="clip0_1_710">
<rect width="24" height="24" fill="white"/>
</clipPath>
</defs>
</svg>
