<svg width="24" height="24" viewBox="0 0 24 24" fill="none" xmlns="http://www.w3.org/2000/svg">
<g clip-path="url(#clip0_1_548)">
<path d="M12.3334 16.5898C12.6167 16.5898 12.8542 16.494 13.0459 16.3023C13.2375 16.1107 13.3334 15.8732 13.3334 15.5898C13.3334 15.3065 13.2375 15.069 13.0459 14.8773C12.8542 14.6857 12.6167 14.5898 12.3334 14.5898C12.05 14.5898 11.8125 14.6857 11.6209 14.8773C11.4292 15.069 11.3334 15.3065 11.3334 15.5898C11.3334 15.8732 11.4292 16.1107 11.6209 16.3023C11.8125 16.494 12.05 16.5898 12.3334 16.5898ZM12.3334 12.5898C12.6167 12.5898 12.8542 12.494 13.0459 12.3023C13.2375 12.1107 13.3334 11.8732 13.3334 11.5898V7.58984C13.3334 7.30651 13.2375 7.06901 13.0459 6.87734C12.8542 6.68568 12.6167 6.58984 12.3334 6.58984C12.05 6.58984 11.8125 6.68568 11.6209 6.87734C11.4292 7.06901 11.3334 7.30651 11.3334 7.58984V11.5898C11.3334 11.8732 11.4292 12.1107 11.6209 12.3023C11.8125 12.494 12.05 12.5898 12.3334 12.5898ZM12.3334 21.5898C10.95 21.5898 9.65004 21.3273 8.43337 20.8023C7.21671 20.2773 6.15837 19.5648 5.25837 18.6648C4.35837 17.7648 3.64587 16.7065 3.12087 15.4898C2.59587 14.2732 2.33337 12.9732 2.33337 11.5898C2.33337 10.2065 2.59587 8.90651 3.12087 7.68984C3.64587 6.47318 4.35837 5.41484 5.25837 4.51484C6.15837 3.61484 7.21671 2.90234 8.43337 2.37734C9.65004 1.85234 10.95 1.58984 12.3334 1.58984C13.7167 1.58984 15.0167 1.85234 16.2334 2.37734C17.45 2.90234 18.5084 3.61484 19.4084 4.51484C20.3084 5.41484 21.0209 6.47318 21.5459 7.68984C22.0709 8.90651 22.3334 10.2065 22.3334 11.5898C22.3334 12.9732 22.0709 14.2732 21.5459 15.4898C21.0209 16.7065 20.3084 17.7648 19.4084 18.6648C18.5084 19.5648 17.45 20.2773 16.2334 20.8023C15.0167 21.3273 13.7167 21.5898 12.3334 21.5898ZM12.3334 19.5898C14.5667 19.5898 16.4584 18.8148 18.0084 17.2648C19.5584 15.7148 20.3334 13.8232 20.3334 11.5898C20.3334 9.35651 19.5584 7.46484 18.0084 5.91484C16.4584 4.36484 14.5667 3.58984 12.3334 3.58984C10.1 3.58984 8.20837 4.36484 6.65837 5.91484C5.10837 7.46484 4.33337 9.35651 4.33337 11.5898C4.33337 13.8232 5.10837 15.7148 6.65837 17.2648C8.20837 18.8148 10.1 19.5898 12.3334 19.5898Z" fill="currentColor"/>
</g>
<defs>
<clipPath id="clip0_1_548">
<rect width="24" height="24" fill="white"/>
</clipPath>
</defs>
</svg>
