<svg width="24" height="24" viewBox="0 0 24 24" fill="none" xmlns="http://www.w3.org/2000/svg">
<g clip-path="url(#clip0_1_635)">
<path d="M10.0031 16.1411C10.2864 16.1411 10.5239 16.0453 10.7156 15.8536C10.9073 15.6619 11.0031 15.4244 11.0031 15.1411V9.14111C11.0031 8.85778 10.9073 8.62028 10.7156 8.42861C10.5239 8.23695 10.2864 8.14111 10.0031 8.14111C9.71978 8.14111 9.48228 8.23695 9.29061 8.42861C9.09895 8.62028 9.00311 8.85778 9.00311 9.14111V15.1411C9.00311 15.4244 9.09895 15.6619 9.29061 15.8536C9.48228 16.0453 9.71978 16.1411 10.0031 16.1411ZM14.0031 16.1411C14.2864 16.1411 14.5239 16.0453 14.7156 15.8536C14.9073 15.6619 15.0031 15.4244 15.0031 15.1411V9.14111C15.0031 8.85778 14.9073 8.62028 14.7156 8.42861C14.5239 8.23695 14.2864 8.14111 14.0031 8.14111C13.7198 8.14111 13.4823 8.23695 13.2906 8.42861C13.0989 8.62028 13.0031 8.85778 13.0031 9.14111V15.1411C13.0031 15.4244 13.0989 15.6619 13.2906 15.8536C13.4823 16.0453 13.7198 16.1411 14.0031 16.1411ZM12.0031 22.1411C10.6198 22.1411 9.31978 21.8786 8.10311 21.3536C6.88645 20.8286 5.82811 20.1161 4.92811 19.2161C4.02811 18.3161 3.31561 17.2578 2.79061 16.0411C2.26561 14.8244 2.00311 13.5244 2.00311 12.1411C2.00311 10.7578 2.26561 9.45778 2.79061 8.24111C3.31561 7.02445 4.02811 5.96611 4.92811 5.06611C5.82811 4.16611 6.88645 3.45361 8.10311 2.92861C9.31978 2.40361 10.6198 2.14111 12.0031 2.14111C13.3864 2.14111 14.6864 2.40361 15.9031 2.92861C17.1198 3.45361 18.1781 4.16611 19.0781 5.06611C19.9781 5.96611 20.6906 7.02445 21.2156 8.24111C21.7406 9.45778 22.0031 10.7578 22.0031 12.1411C22.0031 13.5244 21.7406 14.8244 21.2156 16.0411C20.6906 17.2578 19.9781 18.3161 19.0781 19.2161C18.1781 20.1161 17.1198 20.8286 15.9031 21.3536C14.6864 21.8786 13.3864 22.1411 12.0031 22.1411Z" fill="currentColor"/>
</g>
<defs>
<clipPath id="clip0_1_635">
<rect width="24" height="24" fill="white"/>
</clipPath>
</defs>
</svg>
