<svg width="24" height="24" viewBox="0 0 24 24" fill="none" xmlns="http://www.w3.org/2000/svg">
<path d="M5 21C4.45 21 3.97917 20.8042 3.5875 20.4125C3.19583 20.0208 3 19.55 3 19V5C3 4.45 3.19583 3.97917 3.5875 3.5875C3.97917 3.19583 4.45 3 5 3H19C19.55 3 20.0208 3.19583 20.4125 3.5875C20.8042 3.97917 21 4.45 21 5V19C21 19.55 20.8042 20.0208 20.4125 20.4125C20.0208 20.8042 19.55 21 19 21H5ZM13 16.5L19 10.5V5H5V16.5L8.3 13.2C8.5 13 8.73333 12.9 9 12.9C9.26667 12.9 9.5 13 9.7 13.2L13 16.5ZM12.75 12C12.5333 12 12.3542 11.9292 12.2125 11.7875C12.0708 11.6458 12 11.4667 12 11.25V6.75C12 6.53333 12.0708 6.35417 12.2125 6.2125C12.3542 6.07083 12.5333 6 12.75 6C12.9667 6 13.1458 6.07083 13.2875 6.2125C13.4292 6.35417 13.5 6.53333 13.5 6.75V11.25C13.5 11.4667 13.4292 11.6458 13.2875 11.7875C13.1458 11.9292 12.9667 12 12.75 12ZM15.2 9L16.475 10.9C16.625 11.1333 16.6333 11.375 16.5 11.625C16.3667 11.875 16.1583 12 15.875 12C15.7583 12 15.65 11.9708 15.55 11.9125C15.45 11.8542 15.3667 11.775 15.3 11.675L13.5 9L15.3 6.325C15.3667 6.225 15.45 6.14583 15.55 6.0875C15.65 6.02917 15.7583 6 15.875 6C16.1583 6 16.3708 6.125 16.5125 6.375C16.6542 6.625 16.6417 6.86667 16.475 7.1L15.2 9ZM8.5 10.5H10.25C10.4667 10.5 10.6458 10.5708 10.7875 10.7125C10.9292 10.8542 11 11.0333 11 11.25C11 11.4667 10.9292 11.6458 10.7875 11.7875C10.6458 11.9292 10.4667 12 10.25 12H7.75C7.53333 12 7.35417 11.9292 7.2125 11.7875C7.07083 11.6458 7 11.4667 7 11.25V9C7 8.78333 7.07083 8.60417 7.2125 8.4625C7.35417 8.32083 7.53333 8.25 7.75 8.25H9.5V7.5H7.75C7.53333 7.5 7.35417 7.42917 7.2125 7.2875C7.07083 7.14583 7 6.96667 7 6.75C7 6.53333 7.07083 6.35417 7.2125 6.2125C7.35417 6.07083 7.53333 6 7.75 6H10.25C10.4667 6 10.6458 6.07083 10.7875 6.2125C10.9292 6.35417 11 6.53333 11 6.75V9C11 9.21667 10.9292 9.39583 10.7875 9.5375C10.6458 9.67917 10.4667 9.75 10.25 9.75H8.5V10.5ZM9 15L5 19H19V13L13.7 18.3C13.5 18.5 13.2667 18.6 13 18.6C12.7333 18.6 12.5 18.5 12.3 18.3L9 15Z" fill="currentColor"/>
</svg>
