<svg width="24" height="24" viewBox="0 0 24 24" fill="none" xmlns="http://www.w3.org/2000/svg">
<g clip-path="url(#clip0_1_520)">
<path d="M4 15C3.46667 15 3 14.8 2.6 14.4C2.2 14 2 13.5333 2 13V11C2 10.8833 2.01667 10.7583 2.05 10.625C2.08333 10.4917 2.11667 10.3667 2.15 10.25L5.15 3.2C5.3 2.86667 5.55 2.58333 5.9 2.35C6.25 2.11667 6.61667 2 7 2H18V15L12 20.95C11.75 21.2 11.4542 21.3458 11.1125 21.3875C10.7708 21.4292 10.4417 21.3667 10.125 21.2C9.80833 21.0333 9.575 20.8 9.425 20.5C9.275 20.2 9.24167 19.8917 9.325 19.575L10.45 15H4ZM16 14.15V4H7L4 11V13H13L11.65 18.5L16 14.15ZM21 2C21.55 2 22.0208 2.19583 22.4125 2.5875C22.8042 2.97917 23 3.45 23 4V13C23 13.55 22.8042 14.0208 22.4125 14.4125C22.0208 14.8042 21.55 15 21 15H18V13H21V4H18V2H21Z" fill="currentColor"/>
</g>
<defs>
<clipPath id="clip0_1_520">
<rect width="24" height="24" fill="white"/>
</clipPath>
</defs>
</svg>
