<svg width="24" height="24" viewBox="0 0 24 24" fill="none" xmlns="http://www.w3.org/2000/svg">
<path d="M17 15.15C16.8 15.15 16.6208 15.1958 16.4625 15.2875C16.3042 15.3792 16.1667 15.5 16.05 15.65C15.95 15.7833 15.825 15.875 15.675 15.925C15.525 15.975 15.3833 15.9667 15.25 15.9C15.1 15.8333 14.9875 15.725 14.9125 15.575C14.8375 15.425 14.8417 15.2833 14.925 15.15C15.1417 14.8 15.4333 14.5208 15.8 14.3125C16.1667 14.1042 16.5667 14 17 14C17.6167 14 18.1542 14.2 18.6125 14.6C19.0708 15 19.3 15.5 19.3 16.1C19.3 16.2833 19.275 16.4542 19.225 16.6125C19.175 16.7708 19.1 16.9167 19 17.05C18.8167 17.3167 18.6 17.5542 18.35 17.7625C18.1 17.9708 17.9 18.2167 17.75 18.5C17.75 18.5167 17.7083 18.6333 17.625 18.85C17.5917 19.0167 17.5208 19.1583 17.4125 19.275C17.3042 19.3917 17.1667 19.45 17 19.45C16.8167 19.45 16.6667 19.3875 16.55 19.2625C16.4333 19.1375 16.3833 18.9917 16.4 18.825C16.4167 18.6917 16.4375 18.5708 16.4625 18.4625C16.4875 18.3542 16.5333 18.2417 16.6 18.125C16.7667 17.8417 16.9792 17.6 17.2375 17.4C17.4958 17.2 17.7167 16.9667 17.9 16.7C17.95 16.6333 18.0083 16.4417 18.075 16.125C18.075 15.8417 17.9667 15.6083 17.75 15.425C17.5333 15.2417 17.2833 15.15 17 15.15ZM17 22C16.7667 22 16.5667 21.9208 16.4 21.7625C16.2333 21.6042 16.15 21.4083 16.15 21.175C16.15 20.9417 16.2333 20.7417 16.4 20.575C16.5667 20.4083 16.7667 20.325 17 20.325C17.2333 20.325 17.4292 20.4083 17.5875 20.575C17.7458 20.7417 17.825 20.9417 17.825 21.175C17.825 21.4083 17.7458 21.6042 17.5875 21.7625C17.4292 21.9208 17.2333 22 17 22ZM8 22C7.71667 22 7.47917 21.9042 7.2875 21.7125C7.09583 21.5208 7 21.2833 7 21V5C7 4.71667 7.09583 4.47917 7.2875 4.2875C7.47917 4.09583 7.71667 4 8 4H10V3C10 2.71667 10.0958 2.47917 10.2875 2.2875C10.4792 2.09583 10.7167 2 11 2H13C13.2833 2 13.5208 2.09583 13.7125 2.2875C13.9042 2.47917 14 2.71667 14 3V4H16C16.2833 4 16.5208 4.09583 16.7125 4.2875C16.9042 4.47917 17 4.71667 17 5V11C17 11.2833 16.9042 11.5208 16.7125 11.7125C16.5208 11.9042 16.2833 12 16 12C15.7167 12 15.4792 11.9042 15.2875 11.7125C15.0958 11.5208 15 11.2833 15 11V6H9V20H11.525C11.8083 20 12.0458 20.0958 12.2375 20.2875C12.4292 20.4792 12.525 20.7167 12.525 21C12.525 21.2833 12.4292 21.5208 12.2375 21.7125C12.0458 21.9042 11.8083 22 11.525 22H8Z" fill="currentColor"/>
</svg>
