<svg width="24" height="24" viewBox="0 0 24 24" fill="none" xmlns="http://www.w3.org/2000/svg">
<path d="M17 22C15.6167 22 14.4375 21.5125 13.4625 20.5375C12.4875 19.5625 12 18.3833 12 17C12 15.6167 12.4875 14.4375 13.4625 13.4625C14.4375 12.4875 15.6167 12 17 12C18.3833 12 19.5625 12.4875 20.5375 13.4625C21.5125 14.4375 22 15.6167 22 17C22 18.3833 21.5125 19.5625 20.5375 20.5375C19.5625 21.5125 18.3833 22 17 22ZM17.5 16.8V14.5C17.5 14.3667 17.45 14.25 17.35 14.15C17.25 14.05 17.1333 14 17 14C16.8667 14 16.75 14.05 16.65 14.15C16.55 14.25 16.5 14.3667 16.5 14.5V16.775C16.5 16.9083 16.525 17.0375 16.575 17.1625C16.625 17.2875 16.7 17.4 16.8 17.5L18.325 19.025C18.425 19.125 18.5417 19.175 18.675 19.175C18.8083 19.175 18.925 19.125 19.025 19.025C19.125 18.925 19.175 18.8083 19.175 18.675C19.175 18.5417 19.125 18.425 19.025 18.325L17.5 16.8ZM5 21C4.45 21 3.97917 20.8042 3.5875 20.4125C3.19583 20.0208 3 19.55 3 19V5C3 4.45 3.19583 3.97917 3.5875 3.5875C3.97917 3.19583 4.45 3 5 3H9.175C9.35833 2.41667 9.71667 1.9375 10.25 1.5625C10.7833 1.1875 11.3667 1 12 1C12.6667 1 13.2625 1.1875 13.7875 1.5625C14.3125 1.9375 14.6667 2.41667 14.85 3H19C19.55 3 20.0208 3.19583 20.4125 3.5875C20.8042 3.97917 21 4.45 21 5V9C21 9.28333 20.9042 9.52083 20.7125 9.7125C20.5208 9.90417 20.2833 10 20 10C19.7167 10 19.4792 9.90417 19.2875 9.7125C19.0958 9.52083 19 9.28333 19 9V5H17V7C17 7.28333 16.9042 7.52083 16.7125 7.7125C16.5208 7.90417 16.2833 8 16 8H8C7.71667 8 7.47917 7.90417 7.2875 7.7125C7.09583 7.52083 7 7.28333 7 7V5H5V19H9.5C9.78333 19 10.0208 19.0958 10.2125 19.2875C10.4042 19.4792 10.5 19.7167 10.5 20C10.5 20.2833 10.4042 20.5208 10.2125 20.7125C10.0208 20.9042 9.78333 21 9.5 21H5ZM12 5C12.2833 5 12.5208 4.90417 12.7125 4.7125C12.9042 4.52083 13 4.28333 13 4C13 3.71667 12.9042 3.47917 12.7125 3.2875C12.5208 3.09583 12.2833 3 12 3C11.7167 3 11.4792 3.09583 11.2875 3.2875C11.0958 3.47917 11 3.71667 11 4C11 4.28333 11.0958 4.52083 11.2875 4.7125C11.4792 4.90417 11.7167 5 12 5Z" fill="currentColor"/>
</svg>
