<svg width="24" height="24" viewBox="0 0 24 24" fill="none" xmlns="http://www.w3.org/2000/svg">
<g clip-path="url(#clip0_1_18)">
<path d="M21.24 2.77C20.73 2.26 20.1 2 19.37 2H4.64C3.91 2 3.28 2.26 2.77 2.77C2.26 3.28 2 3.91 2 4.64V19.37C2 20.1 2.26 20.73 2.77 21.24C3.28 21.75 3.91 22.01 4.64 22.01H19.37C20.1 22.01 20.73 21.75 21.24 21.24C21.75 20.73 22.01 20.1 22.01 19.37V4.63C22.01 3.9 21.75 3.27 21.24 2.76V2.77ZM19.69 4.32V19.7C19.69 19.79 19.75 19.64 19.69 19.7C19.63 19.76 19.78 19.7 19.69 19.7H4.32C4.23 19.7 4.38 19.76 4.32 19.7C4.29 19.67 4.34 19.74 4.32 19.7V4.31C4.23 4.31 4.38 4.25 4.32 4.31H19.7C19.64 4.25 19.79 4.31 19.7 4.31C19.7 4.22 19.76 4.37 19.7 4.31L19.69 4.32Z" fill="currentColor"/>
<path d="M6.01 16.75C5.78 16.75 5.54 16.67 5.35 16.5C4.93 16.14 4.89 15.5 5.26 15.09L8.76 11.09C8.94 10.88 9.2 10.76 9.48 10.75C9.75 10.73 10.02 10.85 10.22 11.04L12.41 13.23L16.72 7.63C17.06 7.19 17.68 7.11 18.12 7.45C18.56 7.79 18.64 8.41 18.3 8.85L13.3 15.35C13.12 15.58 12.86 15.72 12.57 15.74C12.27 15.74 12 15.65 11.8 15.45L9.56 13.21L6.76 16.41C6.56 16.64 6.29 16.75 6.01 16.75Z" fill="currentColor"/>
</g>
<defs>
<clipPath id="clip0_1_18">
<rect width="24" height="24" fill="white"/>
</clipPath>
</defs>
</svg>
