<svg width="24" height="24" viewBox="0 0 24 24" fill="none" xmlns="http://www.w3.org/2000/svg">
<path d="M3 20C2.71667 20 2.47917 19.9042 2.2875 19.7125C2.09583 19.5208 2 19.2833 2 19C2 18.7167 2.09583 18.4792 2.2875 18.2875C2.47917 18.0958 2.71667 18 3 18C3.28333 18 3.52083 18.0958 3.7125 18.2875C3.90417 18.4792 4 18.7167 4 19C4 19.2833 3.90417 19.5208 3.7125 19.7125C3.52083 19.9042 3.28333 20 3 20ZM7 20C6.71667 20 6.47917 19.9042 6.2875 19.7125C6.09583 19.5208 6 19.2833 6 19C6 18.7167 6.09583 18.4792 6.2875 18.2875C6.47917 18.0958 6.71667 18 7 18C7.28333 18 7.52083 18.0958 7.7125 18.2875C7.90417 18.4792 8 18.7167 8 19C8 19.2833 7.90417 19.5208 7.7125 19.7125C7.52083 19.9042 7.28333 20 7 20ZM11 20C10.7167 20 10.4792 19.9042 10.2875 19.7125C10.0958 19.5208 10 19.2833 10 19C10 18.7167 10.0958 18.4792 10.2875 18.2875C10.4792 18.0958 10.7167 18 11 18C11.2833 18 11.5208 18.0958 11.7125 18.2875C11.9042 18.4792 12 18.7167 12 19C12 19.2833 11.9042 19.5208 11.7125 19.7125C11.5208 19.9042 11.2833 20 11 20ZM15 20C14.7167 20 14.4792 19.9042 14.2875 19.7125C14.0958 19.5208 14 19.2833 14 19C14 18.7167 14.0958 18.4792 14.2875 18.2875C14.4792 18.0958 14.7167 18 15 18C15.2833 18 15.5208 18.0958 15.7125 18.2875C15.9042 18.4792 16 18.7167 16 19C16 19.2833 15.9042 19.5208 15.7125 19.7125C15.5208 19.9042 15.2833 20 15 20ZM19 20C18.7167 20 18.4792 19.9042 18.2875 19.7125C18.0958 19.5208 18 19.2833 18 19C18 18.7167 18.0958 18.4792 18.2875 18.2875C18.4792 18.0958 18.7167 18 19 18H20V17C20 16.7167 20.0958 16.4792 20.2875 16.2875C20.4792 16.0958 20.7167 16 21 16C21.2833 16 21.5208 16.0958 21.7125 16.2875C21.9042 16.4792 22 16.7167 22 17V18C22 18.55 21.8042 19.0208 21.4125 19.4125C21.0208 19.8042 20.55 20 20 20H19ZM3 16C2.71667 16 2.47917 15.9042 2.2875 15.7125C2.09583 15.5208 2 15.2833 2 15C2 14.7167 2.09583 14.4792 2.2875 14.2875C2.47917 14.0958 2.71667 14 3 14C3.28333 14 3.52083 14.0958 3.7125 14.2875C3.90417 14.4792 4 14.7167 4 15C4 15.2833 3.90417 15.5208 3.7125 15.7125C3.52083 15.9042 3.28333 16 3 16ZM21 14C20.7167 14 20.4792 13.9042 20.2875 13.7125C20.0958 13.5208 20 13.2833 20 13C20 12.7167 20.0958 12.4792 20.2875 12.2875C20.4792 12.0958 20.7167 12 21 12C21.2833 12 21.5208 12.0958 21.7125 12.2875C21.9042 12.4792 22 12.7167 22 13C22 13.2833 21.9042 13.5208 21.7125 13.7125C21.5208 13.9042 21.2833 14 21 14ZM3 12C2.71667 12 2.47917 11.9042 2.2875 11.7125C2.09583 11.5208 2 11.2833 2 11C2 10.7167 2.09583 10.4792 2.2875 10.2875C2.47917 10.0958 2.71667 10 3 10C3.28333 10 3.52083 10.0958 3.7125 10.2875C3.90417 10.4792 4 10.7167 4 11C4 11.2833 3.90417 11.5208 3.7125 11.7125C3.52083 11.9042 3.28333 12 3 12ZM12 8V5C12 4.71667 12.0958 4.47917 12.2875 4.2875C12.4792 4.09583 12.7167 4 13 4H20C20.55 4 21.0208 4.19583 21.4125 4.5875C21.8042 4.97917 22 5.45 22 6V9C22 9.28333 21.9042 9.52083 21.7125 9.7125C21.5208 9.90417 21.2833 10 21 10H14C13.45 10 12.9792 9.80417 12.5875 9.4125C12.1958 9.02083 12 8.55 12 8ZM3 8C2.71667 8 2.47917 7.90417 2.2875 7.7125C2.09583 7.52083 2 7.28333 2 7V6C2 5.45 2.19583 4.97917 2.5875 4.5875C2.97917 4.19583 3.45 4 4 4H5C5.28333 4 5.52083 4.09583 5.7125 4.2875C5.90417 4.47917 6 4.71667 6 5C6 5.28333 5.90417 5.52083 5.7125 5.7125C5.52083 5.90417 5.28333 6 5 6H4V7C4 7.28333 3.90417 7.52083 3.7125 7.7125C3.52083 7.90417 3.28333 8 3 8ZM9 6C8.71667 6 8.47917 5.90417 8.2875 5.7125C8.09583 5.52083 8 5.28333 8 5C8 4.71667 8.09583 4.47917 8.2875 4.2875C8.47917 4.09583 8.71667 4 9 4C9.28333 4 9.52083 4.09583 9.7125 4.2875C9.90417 4.47917 10 4.71667 10 5C10 5.28333 9.90417 5.52083 9.7125 5.7125C9.52083 5.90417 9.28333 6 9 6Z" fill="currentColor"/>
</svg>
