<svg width="24" height="24" viewBox="0 0 24 24" fill="none" xmlns="http://www.w3.org/2000/svg">
<path d="M10.2 13.7H13.85L14.475 15.525C14.525 15.6583 14.6125 15.7708 14.7375 15.8625C14.8625 15.9542 15 16 15.15 16C15.4 16 15.5958 15.8958 15.7375 15.6875C15.8792 15.4792 15.9083 15.2583 15.825 15.025L12.975 7.475C12.925 7.325 12.8333 7.20833 12.7 7.125C12.5667 7.04167 12.425 7 12.275 7H11.725C11.575 7 11.4333 7.04167 11.3 7.125C11.1667 7.20833 11.075 7.325 11.025 7.475L8.175 15C8.09167 15.2333 8.12083 15.4583 8.2625 15.675C8.40417 15.8917 8.60833 16 8.875 16C9.04167 16 9.1875 15.9542 9.3125 15.8625C9.4375 15.7708 9.525 15.65 9.575 15.5L10.2 13.7ZM10.65 12.4L11.95 8.65H12.05L13.35 12.4H10.65ZM8.65 20H6C5.45 20 4.97917 19.8042 4.5875 19.4125C4.19583 19.0208 4 18.55 4 18V15.35L2.075 13.4C1.89167 13.2 1.75 12.9792 1.65 12.7375C1.55 12.4958 1.5 12.25 1.5 12C1.5 11.75 1.55 11.5042 1.65 11.2625C1.75 11.0208 1.89167 10.8 2.075 10.6L4 8.65V6C4 5.45 4.19583 4.97917 4.5875 4.5875C4.97917 4.19583 5.45 4 6 4H8.65L10.6 2.075C10.8 1.89167 11.0208 1.75 11.2625 1.65C11.5042 1.55 11.75 1.5 12 1.5C12.25 1.5 12.4958 1.55 12.7375 1.65C12.9792 1.75 13.2 1.89167 13.4 2.075L15.35 4H18C18.55 4 19.0208 4.19583 19.4125 4.5875C19.8042 4.97917 20 5.45 20 6V8.65L21.925 10.6C22.1083 10.8 22.25 11.0208 22.35 11.2625C22.45 11.5042 22.5 11.75 22.5 12C22.5 12.25 22.45 12.4958 22.35 12.7375C22.25 12.9792 22.1083 13.2 21.925 13.4L20 15.35V18C20 18.55 19.8042 19.0208 19.4125 19.4125C19.0208 19.8042 18.55 20 18 20H15.35L13.4 21.925C13.2 22.1083 12.9792 22.25 12.7375 22.35C12.4958 22.45 12.25 22.5 12 22.5C11.75 22.5 11.5042 22.45 11.2625 22.35C11.0208 22.25 10.8 22.1083 10.6 21.925L8.65 20ZM9.5 18L12 20.5L14.5 18H18V14.5L20.5 12L18 9.5V6H14.5L12 3.5L9.5 6H6V9.5L3.5 12L6 14.5V18H9.5Z" fill="currentColor"/>
</svg>
