<svg width="20" height="20" viewBox="0 0 20 20" fill="none" xmlns="http://www.w3.org/2000/svg">
<path d="M4.13052 15.8334C3.89441 15.8334 3.69649 15.7536 3.53677 15.5938C3.37705 15.4341 3.29719 15.2362 3.29719 15.0001C3.29719 14.764 3.37705 14.5661 3.53677 14.4063C3.69649 14.2466 3.89441 14.1667 4.13052 14.1667H4.96386V8.33342C4.96386 7.18064 5.31108 6.15633 6.00552 5.2605C6.69997 4.36466 7.60274 3.77786 8.71386 3.50008V2.91675C8.71386 2.56953 8.83538 2.27439 9.07844 2.03133C9.3215 1.78828 9.61663 1.66675 9.96386 1.66675C10.3111 1.66675 10.6062 1.78828 10.8493 2.03133C11.0923 2.27439 11.2139 2.56953 11.2139 2.91675V3.50008C12.325 3.77786 13.2277 4.36466 13.9222 5.2605C14.6166 6.15633 14.9639 7.18064 14.9639 8.33342V14.1667H15.7972C16.0333 14.1667 16.2312 14.2466 16.3909 14.4063C16.5507 14.5661 16.6305 14.764 16.6305 15.0001C16.6305 15.2362 16.5507 15.4341 16.3909 15.5938C16.2312 15.7536 16.0333 15.8334 15.7972 15.8334H4.13052ZM9.96386 18.3334C9.50552 18.3334 9.11316 18.1702 8.78677 17.8438C8.46038 17.5174 8.29719 17.1251 8.29719 16.6667H11.6305C11.6305 17.1251 11.4673 17.5174 11.1409 17.8438C10.8146 18.1702 10.4222 18.3334 9.96386 18.3334ZM6.63052 14.1667H13.2972V8.33342C13.2972 7.41675 12.9708 6.63203 12.318 5.97925C11.6652 5.32647 10.8805 5.00008 9.96386 5.00008C9.04719 5.00008 8.26247 5.32647 7.60969 5.97925C6.95691 6.63203 6.63052 7.41675 6.63052 8.33342V14.1667ZM2.46386 8.33342C2.22774 8.33342 2.02983 8.24314 1.87011 8.06258C1.71038 7.88203 1.64441 7.67369 1.67219 7.43758C1.7833 6.39592 2.07497 5.42717 2.54719 4.53133C3.01941 3.6355 3.62358 2.85425 4.35969 2.18758C4.54024 2.0348 4.74511 1.96536 4.97427 1.97925C5.20344 1.99314 5.38747 2.0973 5.52636 2.29175C5.66524 2.48619 5.7208 2.69453 5.69302 2.91675C5.66524 3.13897 5.56108 3.33341 5.38052 3.50008C4.83886 4.01397 4.39441 4.61119 4.04719 5.29175C3.69997 5.9723 3.4708 6.70842 3.35969 7.50008C3.33191 7.73619 3.23469 7.93411 3.06802 8.09383C2.90136 8.25355 2.69997 8.33342 2.46386 8.33342ZM17.4639 8.33342C17.2277 8.33342 17.0264 8.25355 16.8597 8.09383C16.693 7.93411 16.5958 7.73619 16.568 7.50008C16.4569 6.70842 16.2277 5.9723 15.8805 5.29175C15.5333 4.61119 15.0889 4.01397 14.5472 3.50008C14.3666 3.33341 14.2625 3.13897 14.2347 2.91675C14.2069 2.69453 14.2625 2.48619 14.4014 2.29175C14.5402 2.0973 14.7243 1.99314 14.9534 1.97925C15.1826 1.96536 15.3875 2.0348 15.568 2.18758C16.3041 2.85425 16.9083 3.6355 17.3805 4.53133C17.8527 5.42717 18.1444 6.39592 18.2555 7.43758C18.2833 7.67369 18.2173 7.88203 18.0576 8.06258C17.8979 8.24314 17.7 8.33342 17.4639 8.33342Z" fill="#353839"/>
</svg>
