<svg width="24" height="24" viewBox="0 0 24 24" fill="none" xmlns="http://www.w3.org/2000/svg">
<path d="M10.95 13.6999L9.52499 12.2749C9.32499 12.0749 9.09166 11.9749 8.82499 11.9749C8.55833 11.9749 8.32499 12.0749 8.12499 12.2749C7.92499 12.4749 7.82499 12.7124 7.82499 12.9874C7.82499 13.2624 7.92499 13.4999 8.12499 13.6999L10.25 15.8499C10.45 16.0499 10.6833 16.1499 10.95 16.1499C11.2167 16.1499 11.45 16.0499 11.65 15.8499L15.9 11.5999C16.1 11.3999 16.2 11.1624 16.2 10.8874C16.2 10.6124 16.1 10.3749 15.9 10.1749C15.7 9.9749 15.4625 9.8749 15.1875 9.8749C14.9125 9.8749 14.675 9.9749 14.475 10.1749L10.95 13.6999ZM12 21.9999C10.75 21.9999 9.57916 21.7624 8.48749 21.2874C7.39583 20.8124 6.44583 20.1707 5.63749 19.3624C4.82916 18.5541 4.18749 17.6041 3.71249 16.5124C3.23749 15.4207 2.99999 14.2499 2.99999 12.9999C2.99999 11.7499 3.23749 10.5791 3.71249 9.4874C4.18749 8.39574 4.82916 7.44574 5.63749 6.6374C6.44583 5.82907 7.39583 5.1874 8.48749 4.7124C9.57916 4.2374 10.75 3.9999 12 3.9999C13.25 3.9999 14.4208 4.2374 15.5125 4.7124C16.6042 5.1874 17.5542 5.82907 18.3625 6.6374C19.1708 7.44574 19.8125 8.39574 20.2875 9.4874C20.7625 10.5791 21 11.7499 21 12.9999C21 14.2499 20.7625 15.4207 20.2875 16.5124C19.8125 17.6041 19.1708 18.5541 18.3625 19.3624C17.5542 20.1707 16.6042 20.8124 15.5125 21.2874C14.4208 21.7624 13.25 21.9999 12 21.9999ZM2.04999 7.2999C1.86666 7.11657 1.77499 6.88324 1.77499 6.5999C1.77499 6.31657 1.86666 6.08324 2.04999 5.8999L4.89999 3.0499C5.08333 2.86657 5.31666 2.7749 5.59999 2.7749C5.88333 2.7749 6.11666 2.86657 6.29999 3.0499C6.48333 3.23324 6.57499 3.46657 6.57499 3.7499C6.57499 4.03324 6.48333 4.26657 6.29999 4.4499L3.44999 7.2999C3.26666 7.48324 3.03333 7.5749 2.74999 7.5749C2.46666 7.5749 2.23333 7.48324 2.04999 7.2999ZM21.95 7.2999C21.7667 7.48324 21.5333 7.5749 21.25 7.5749C20.9667 7.5749 20.7333 7.48324 20.55 7.2999L17.7 4.4499C17.5167 4.26657 17.425 4.03324 17.425 3.7499C17.425 3.46657 17.5167 3.23324 17.7 3.0499C17.8833 2.86657 18.1167 2.7749 18.4 2.7749C18.6833 2.7749 18.9167 2.86657 19.1 3.0499L21.95 5.8999C22.1333 6.08324 22.225 6.31657 22.225 6.5999C22.225 6.88324 22.1333 7.11657 21.95 7.2999ZM12 19.9999C13.95 19.9999 15.6042 19.3207 16.9625 17.9624C18.3208 16.6041 19 14.9499 19 12.9999C19 11.0499 18.3208 9.39574 16.9625 8.0374C15.6042 6.67907 13.95 5.9999 12 5.9999C10.05 5.9999 8.39583 6.67907 7.03749 8.0374C5.67916 9.39574 4.99999 11.0499 4.99999 12.9999C4.99999 14.9499 5.67916 16.6041 7.03749 17.9624C8.39583 19.3207 10.05 19.9999 12 19.9999Z" fill="currentColor"/>
</svg>
