<svg width="24" height="24" viewBox="0 0 24 24" fill="none" xmlns="http://www.w3.org/2000/svg">
<path d="M16 16H11V11H16V16ZM16 9H4V4H16V9ZM9 16H4V11H9V16ZM16 18C16.55 18 17.0208 17.8042 17.4125 17.4125C17.8042 17.0208 18 16.55 18 16V4C18 3.45 17.8042 2.97917 17.4125 2.5875C17.0208 2.19583 16.55 2 16 2H4C3.45 2 2.97917 2.19583 2.5875 2.5875C2.19583 2.97917 2 3.45 2 4V16C2 16.55 2.19583 17.0208 2.5875 17.4125C2.97917 17.8042 3.45 18 4 18H16ZM20 22C20.55 22 21.0208 21.8042 21.4125 21.4125C21.8042 21.0208 22 20.55 22 20V7C22 6.71667 21.9042 6.47917 21.7125 6.2875C21.5208 6.09583 21.2833 6 21 6C20.7167 6 20.4792 6.09583 20.2875 6.2875C20.0958 6.47917 20 6.71667 20 7V20H7C6.71667 20 6.47917 20.0958 6.2875 20.2875C6.09583 20.4792 6 20.7167 6 21C6 21.2833 6.09583 21.5208 6.2875 21.7125C6.47917 21.9042 6.71667 22 7 22H20Z" fill="currentColor"/>
</svg>
