<svg width="24" height="24" viewBox="0 0 24 24" fill="none" xmlns="http://www.w3.org/2000/svg">
<path d="M13.8 13.2L13 15.425C12.9333 15.6083 12.825 15.75 12.675 15.85C12.525 15.95 12.3583 16 12.175 16C11.8583 16 11.6125 15.8708 11.4375 15.6125C11.2625 15.3542 11.2333 15.0833 11.35 14.8L14.775 5.6C14.8417 5.41667 14.9542 5.27083 15.1125 5.1625C15.2708 5.05417 15.45 5 15.65 5H16.35C16.55 5 16.7292 5.05417 16.8875 5.1625C17.0458 5.27083 17.1583 5.41667 17.225 5.6L20.65 14.825C20.7667 15.1083 20.7375 15.375 20.5625 15.625C20.3875 15.875 20.1417 16 19.825 16C19.6417 16 19.475 15.9458 19.325 15.8375C19.175 15.7292 19.0667 15.5833 19 15.4L18.2 13.2H13.8ZM14.35 11.6H17.65L16.05 7.05H15.95L14.35 11.6ZM4.99999 16.15V4C4.99999 3.71667 5.09582 3.47917 5.28749 3.2875C5.47915 3.09583 5.71665 3 5.99999 3C6.28332 3 6.52082 3.09583 6.71249 3.2875C6.90415 3.47917 6.99999 3.71667 6.99999 4V16.15L7.39999 15.775C7.59999 15.5917 7.83332 15.5 8.09999 15.5C8.36665 15.5 8.59999 15.6 8.79999 15.8C8.98332 15.9833 9.07499 16.2167 9.07499 16.5C9.07499 16.7833 8.98332 17.0167 8.79999 17.2L6.69999 19.3C6.49999 19.5 6.26665 19.6 5.99999 19.6C5.73332 19.6 5.49999 19.5 5.29999 19.3L3.19999 17.2C3.01665 17.0167 2.92499 16.7833 2.92499 16.5C2.92499 16.2167 3.02499 15.975 3.22499 15.775C3.40832 15.5917 3.63332 15.5 3.89999 15.5C4.16665 15.5 4.39999 15.5917 4.59999 15.775L4.99999 16.15Z" fill="currentColor"/>
</svg>
