<svg width="24" height="24" viewBox="0 0 24 24" fill="none" xmlns="http://www.w3.org/2000/svg">
<path d="M10.7 15.5L10.85 16.225C10.9 16.4583 11.0125 16.6458 11.1875 16.7875C11.3625 16.9292 11.5667 17 11.8 17H12.2C12.4333 17 12.6375 16.925 12.8125 16.775C12.9875 16.625 13.1 16.4333 13.15 16.2L13.3 15.5C13.5 15.4167 13.6875 15.3292 13.8625 15.2375C14.0375 15.1458 14.2167 15.0333 14.4 14.9L15.125 15.125C15.3417 15.1917 15.5542 15.1833 15.7625 15.1C15.9708 15.0167 16.1333 14.8833 16.25 14.7L16.45 14.35C16.5667 14.15 16.6083 13.9333 16.575 13.7C16.5417 13.4667 16.4333 13.275 16.25 13.125L15.7 12.65C15.7333 12.4167 15.75 12.2 15.75 12C15.75 11.8 15.7333 11.5833 15.7 11.35L16.25 10.875C16.4333 10.725 16.5417 10.5375 16.575 10.3125C16.6083 10.0875 16.5667 9.875 16.45 9.675L16.225 9.3C16.1083 9.11667 15.95 8.98333 15.75 8.9C15.55 8.81667 15.3417 8.80833 15.125 8.875L14.4 9.1C14.2167 8.96667 14.0375 8.85417 13.8625 8.7625C13.6875 8.67083 13.5 8.58333 13.3 8.5L13.15 7.775C13.1 7.54167 12.9875 7.35417 12.8125 7.2125C12.6375 7.07083 12.4333 7 12.2 7H11.8C11.5667 7 11.3625 7.075 11.1875 7.225C11.0125 7.375 10.9 7.56667 10.85 7.8L10.7 8.5C10.5 8.58333 10.3125 8.67083 10.1375 8.7625C9.9625 8.85417 9.78333 8.96667 9.6 9.1L8.875 8.875C8.65833 8.80833 8.44583 8.81667 8.2375 8.9C8.02917 8.98333 7.86667 9.11667 7.75 9.3L7.55 9.65C7.43333 9.85 7.39167 10.0667 7.425 10.3C7.45833 10.5333 7.56667 10.725 7.75 10.875L8.3 11.35C8.26667 11.5833 8.25 11.8 8.25 12C8.25 12.2 8.26667 12.4167 8.3 12.65L7.75 13.125C7.56667 13.275 7.45833 13.4625 7.425 13.6875C7.39167 13.9125 7.43333 14.125 7.55 14.325L7.775 14.7C7.89167 14.8833 8.05 15.0167 8.25 15.1C8.45 15.1833 8.65833 15.1917 8.875 15.125L9.6 14.9C9.78333 15.0333 9.9625 15.1458 10.1375 15.2375C10.3125 15.3292 10.5 15.4167 10.7 15.5ZM12 14C11.45 14 10.9792 13.8042 10.5875 13.4125C10.1958 13.0208 10 12.55 10 12C10 11.45 10.1958 10.9792 10.5875 10.5875C10.9792 10.1958 11.45 10 12 10C12.55 10 13.0208 10.1958 13.4125 10.5875C13.8042 10.9792 14 11.45 14 12C14 12.55 13.8042 13.0208 13.4125 13.4125C13.0208 13.8042 12.55 14 12 14ZM5 21C4.45 21 3.97917 20.8042 3.5875 20.4125C3.19583 20.0208 3 19.55 3 19V5C3 4.45 3.19583 3.97917 3.5875 3.5875C3.97917 3.19583 4.45 3 5 3H19C19.55 3 20.0208 3.19583 20.4125 3.5875C20.8042 3.97917 21 4.45 21 5V19C21 19.55 20.8042 20.0208 20.4125 20.4125C20.0208 20.8042 19.55 21 19 21H5ZM5 19H19V5H5V19Z" fill="currentColor"/>
</svg>
