<svg width="24" height="24" viewBox="0 0 24 24" fill="none" xmlns="http://www.w3.org/2000/svg">
<path d="M5 20C4.71667 20 4.47917 19.9042 4.2875 19.7125C4.09583 19.5208 4 19.2833 4 19V14C4 13.7167 4.09583 13.4792 4.2875 13.2875C4.47917 13.0958 4.71667 13 5 13H6C6.28333 13 6.52083 13.0958 6.7125 13.2875C6.90417 13.4792 7 13.7167 7 14V19C7 19.2833 6.90417 19.5208 6.7125 19.7125C6.52083 19.9042 6.28333 20 6 20H5ZM17 20C16.7167 20 16.4792 19.9042 16.2875 19.7125C16.0958 19.5208 16 19.2833 16 19V5C16 4.71667 16.0958 4.47917 16.2875 4.2875C16.4792 4.09583 16.7167 4 17 4H18C18.2833 4 18.5208 4.09583 18.7125 4.2875C18.9042 4.47917 19 4.71667 19 5V19C19 19.2833 18.9042 19.5208 18.7125 19.7125C18.5208 19.9042 18.2833 20 18 20H17ZM11 20C10.7167 20 10.4792 19.9042 10.2875 19.7125C10.0958 19.5208 10 19.2833 10 19V10C10 9.71667 10.0958 9.47917 10.2875 9.2875C10.4792 9.09583 10.7167 9 11 9H12C12.2833 9 12.5208 9.09583 12.7125 9.2875C12.9042 9.47917 13 9.71667 13 10V19C13 19.2833 12.9042 19.5208 12.7125 19.7125C12.5208 19.9042 12.2833 20 12 20H11Z" fill="currentColor"/>
</svg>
