<svg width="24" height="24" viewBox="0 0 24 24" fill="none" xmlns="http://www.w3.org/2000/svg">
<path d="M19.0749 21.9L8.1249 10.975C8.09157 11.1417 8.0624 11.3083 8.0374 11.475C8.0124 11.6417 7.9999 11.8167 7.9999 12C7.9999 12.4333 8.0624 12.8333 8.1874 13.2C8.3124 13.5667 8.48324 13.9167 8.6999 14.25C8.86657 14.4833 8.94574 14.7375 8.9374 15.0125C8.92907 15.2875 8.83324 15.5167 8.6499 15.7C8.4499 15.9 8.20824 16.0042 7.9249 16.0125C7.64157 16.0208 7.41657 15.9083 7.2499 15.675C6.86657 15.1583 6.5624 14.5917 6.3374 13.975C6.1124 13.3583 5.9999 12.7 5.9999 12C5.9999 11.5333 6.0499 11.0833 6.1499 10.65C6.2499 10.2167 6.39157 9.80833 6.5749 9.425L5.0999 7.95C4.7499 8.55 4.47907 9.1875 4.2874 9.8625C4.09574 10.5375 3.9999 11.25 3.9999 12C3.9999 12.9667 4.15824 13.8792 4.4749 14.7375C4.79157 15.5958 5.24157 16.375 5.8249 17.075C6.00824 17.2917 6.10407 17.5375 6.1124 17.8125C6.12074 18.0875 6.0249 18.325 5.8249 18.525C5.6249 18.725 5.38324 18.825 5.0999 18.825C4.81657 18.825 4.58324 18.7167 4.3999 18.5C3.6499 17.6167 3.0624 16.625 2.6374 15.525C2.2124 14.425 1.9999 13.25 1.9999 12C1.9999 10.9667 2.14157 9.99167 2.4249 9.075C2.70824 8.15833 3.11657 7.3 3.6499 6.5L2.0749 4.925C1.8749 4.725 1.7749 4.4875 1.7749 4.2125C1.7749 3.9375 1.8749 3.7 2.0749 3.5C2.2749 3.3 2.5124 3.2 2.7874 3.2C3.0624 3.2 3.2999 3.3 3.4999 3.5L20.4999 20.5C20.6999 20.7 20.7999 20.9333 20.7999 21.2C20.7999 21.4667 20.6999 21.7 20.4999 21.9C20.2999 22.1 20.0624 22.2 19.7874 22.2C19.5124 22.2 19.2749 22.1 19.0749 21.9ZM19.9999 12C19.9999 10.9333 19.7957 9.9125 19.3874 8.9375C18.9791 7.9625 18.3999 7.1 17.6499 6.35C16.8999 5.6 16.0374 5.02083 15.0624 4.6125C14.0874 4.20417 13.0666 4 11.9999 4C11.3666 4 10.7374 4.06667 10.1124 4.2C9.4874 4.33333 8.90824 4.56667 8.3749 4.9C8.14157 5.05 7.88324 5.0875 7.5999 5.0125C7.31657 4.9375 7.0999 4.78333 6.9499 4.55C6.7999 4.31667 6.75824 4.06667 6.8249 3.8C6.89157 3.53333 7.04157 3.33333 7.2749 3.2C8.00824 2.81667 8.77074 2.52083 9.5624 2.3125C10.3541 2.10417 11.1666 2 11.9999 2C13.3332 2 14.6082 2.25 15.8249 2.75C17.0416 3.25 18.1249 3.975 19.0749 4.925C20.0249 5.875 20.7499 6.95833 21.2499 8.175C21.7499 9.39167 21.9999 10.6667 21.9999 12C21.9999 12.8167 21.8999 13.6208 21.6999 14.4125C21.4999 15.2042 21.2082 15.9667 20.8249 16.7C20.6916 16.9333 20.4957 17.0792 20.2374 17.1375C19.9791 17.1958 19.7332 17.1583 19.4999 17.025C19.2666 16.8917 19.1124 16.6917 19.0374 16.425C18.9624 16.1583 18.9916 15.9 19.1249 15.65C19.4249 15.0833 19.6457 14.4917 19.7874 13.875C19.9291 13.2583 19.9999 12.6333 19.9999 12ZM14.8249 9.175C14.4416 8.79167 14.0082 8.5 13.5249 8.3C13.0416 8.1 12.5332 8 11.9999 8C11.8166 8 11.6416 8.0125 11.4749 8.0375C11.3082 8.0625 11.1416 8.09167 10.9749 8.125C10.6916 8.19167 10.4374 8.15417 10.2124 8.0125C9.9874 7.87083 9.84157 7.65833 9.7749 7.375C9.70824 7.09167 9.74574 6.8375 9.8874 6.6125C10.0291 6.3875 10.2416 6.24167 10.5249 6.175C10.7582 6.10833 10.9999 6.0625 11.2499 6.0375C11.4999 6.0125 11.7499 6 11.9999 6C12.7999 6 13.5666 6.15 14.2999 6.45C15.0332 6.75 15.6832 7.18333 16.2499 7.75C16.8166 8.31667 17.2499 8.96667 17.5499 9.7C17.8499 10.4333 17.9999 11.2 17.9999 12C17.9999 12.25 17.9874 12.5 17.9624 12.75C17.9374 13 17.8916 13.2417 17.8249 13.475C17.7582 13.7583 17.6124 13.9708 17.3874 14.1125C17.1624 14.2542 16.9082 14.2917 16.6249 14.225C16.3416 14.1583 16.1291 14.0125 15.9874 13.7875C15.8457 13.5625 15.8082 13.3083 15.8749 13.025C15.9082 12.8583 15.9374 12.6917 15.9624 12.525C15.9874 12.3583 15.9999 12.1833 15.9999 12C15.9999 11.4667 15.8999 10.9583 15.6999 10.475C15.4999 9.99167 15.2082 9.55833 14.8249 9.175Z" fill="currentColor"/>
</svg>
