<svg width="24" height="24" viewBox="0 0 24 24" fill="none" xmlns="http://www.w3.org/2000/svg">
<path d="M6.70005 19.3C6.51672 19.1166 6.42505 18.8833 6.42505 18.5999C6.42505 18.3166 6.51672 18.0833 6.70005 17.9L11 13.6V6.87495L9.12505 8.74995C8.92505 8.94995 8.69172 9.04995 8.42505 9.04995C8.15838 9.04995 7.92505 8.94995 7.72505 8.74995C7.52505 8.54995 7.42505 8.31245 7.42505 8.03745C7.42505 7.76245 7.52505 7.52495 7.72505 7.32495L11.3 3.72495C11.4 3.62495 11.5084 3.55412 11.625 3.51245C11.7417 3.47078 11.8667 3.44995 12 3.44995C12.1334 3.44995 12.2584 3.47078 12.375 3.51245C12.4917 3.55412 12.6 3.62495 12.7 3.72495L16.325 7.34995C16.525 7.54995 16.625 7.78328 16.625 8.04995C16.625 8.31662 16.525 8.54995 16.325 8.74995C16.125 8.94995 15.8875 9.04995 15.6125 9.04995C15.3375 9.04995 15.1 8.94995 14.9 8.74995L13 6.87495V13.575C13 13.8416 12.95 14.0958 12.85 14.3375C12.75 14.5791 12.6084 14.7916 12.425 14.975L8.10005 19.3C7.91672 19.4833 7.68338 19.5749 7.40005 19.5749C7.11672 19.5749 6.88338 19.4833 6.70005 19.3ZM17.3 19.325C17.1167 19.5083 16.8834 19.6 16.6 19.6C16.3167 19.6 16.0834 19.5083 15.9 19.325L14.1 17.55C13.9 17.35 13.8 17.1166 13.8 16.85C13.8 16.5833 13.9 16.3499 14.1 16.15C14.3 15.95 14.5375 15.85 14.8125 15.85C15.0875 15.85 15.325 15.95 15.525 16.15L17.3 17.925C17.4834 18.1083 17.5792 18.3375 17.5875 18.6125C17.5959 18.8875 17.5 19.125 17.3 19.325Z" fill="currentColor"/>
</svg>
