<svg width="24" height="24" viewBox="0 0 24 24" fill="none" xmlns="http://www.w3.org/2000/svg">
<path d="M10.7329 16.911H9.61695C9.49995 16.911 9.40195 16.87 9.32095 16.789C9.23995 16.708 9.19995 16.609 9.19995 16.493V7.91602C9.19995 7.79901 9.23995 7.70102 9.32095 7.62003C9.40195 7.53903 9.49995 7.49902 9.61695 7.49902H14.726C14.8429 7.49902 14.9409 7.53903 15.0219 7.62003C15.103 7.70102 15.143 7.79901 15.143 7.91602V8.91101C15.143 9.02802 15.103 9.12604 15.0219 9.20703C14.9409 9.28802 14.8429 9.32803 14.726 9.32803H11.1499V11.6H13.919C14.0359 11.6 14.1339 11.64 14.215 11.721C14.296 11.802 14.336 11.901 14.336 12.017V13.012C14.336 13.129 14.296 13.227 14.215 13.308C14.1339 13.389 14.035 13.429 13.919 13.429H11.1499V16.494C11.1499 16.611 11.11 16.709 11.029 16.79C10.948 16.871 10.85 16.911 10.7329 16.911Z" fill="currentColor"/>
<path fill-rule="evenodd" clip-rule="evenodd" d="M5 3H19C20.105 3 21 3.89499 21 5V19C21 20.105 20.105 21 19 21H5C3.895 21 3 20.105 3 19V5C3 3.89499 3.895 3 5 3ZM5 19H19V5H5V19Z" fill="currentColor"/>
</svg>
