<svg width="24" height="24" viewBox="0 0 24 24" fill="none" xmlns="http://www.w3.org/2000/svg">
<path fill-rule="evenodd" clip-rule="evenodd" d="M12.4016 8.17169C10.1924 8.17169 8.40157 9.96255 8.40157 12.1717C8.40157 14.3808 10.1924 16.1717 12.4016 16.1717C14.6107 16.1717 16.4016 14.3808 16.4016 12.1717C16.4016 9.96255 14.6107 8.17169 12.4016 8.17169ZM10.4016 12.1717C10.4016 11.0671 11.297 10.1717 12.4016 10.1717C13.5061 10.1717 14.4016 11.0671 14.4016 12.1717C14.4016 13.2763 13.5061 14.1717 12.4016 14.1717C11.297 14.1717 10.4016 13.2763 10.4016 12.1717Z" fill="currentColor"/>
<path fill-rule="evenodd" clip-rule="evenodd" d="M14.5229 2.8787C13.3513 1.70713 11.4518 1.70713 10.2803 2.8787L2.87868 10.2803C1.70711 11.4518 1.70711 13.3513 2.87868 14.5229L10.2803 21.9245C11.4518 23.0961 13.3513 23.0961 14.5229 21.9245L21.9245 14.5229C23.096 13.3513 23.096 11.4518 21.9245 10.2803L14.5229 2.8787ZM11.6945 4.29291C12.085 3.90239 12.7182 3.90239 13.1087 4.29291L20.5103 11.6945C20.9008 12.085 20.9008 12.7182 20.5103 13.1087L13.1087 20.5103C12.7182 20.9008 12.085 20.9008 11.6945 20.5103L4.29289 13.1087C3.90237 12.7182 3.90237 12.085 4.29289 11.6945L11.6945 4.29291Z" fill="currentColor"/>
<path d="M20.3 4.30993L19.495 3.5049C19.2217 3.23154 18.7784 3.23154 18.5051 3.5049C18.2317 3.77827 18.2317 4.22149 18.5051 4.49485L20.1515 6.1413C20.6201 6.60993 21.3799 6.60993 21.8486 6.1413L23.495 4.49485C23.7684 4.22149 23.7684 3.77827 23.495 3.5049C23.2217 3.23154 22.7784 3.23154 22.5051 3.5049L21.7 4.30993V0.999805C21.7 0.613205 21.3866 0.299805 21 0.299805C20.6134 0.299805 20.3 0.613205 20.3 0.999805V4.30993Z" fill="currentColor"/>
</svg>
