<svg width="24" height="24" viewBox="0 0 24 24" fill="none" xmlns="http://www.w3.org/2000/svg">
<path d="M3 22C2.45 22 1.97917 21.8042 1.5875 21.4125C1.19583 21.0208 1 20.55 1 20V10C1 9.71667 1.09583 9.47917 1.2875 9.2875C1.47917 9.09583 1.71667 9 2 9C2.28333 9 2.52083 9.09583 2.7125 9.2875C2.90417 9.47917 3 9.71667 3 10V20H19C19.2833 20 19.5208 20.0958 19.7125 20.2875C19.9042 20.4792 20 20.7167 20 21C20 21.2833 19.9042 21.5208 19.7125 21.7125C19.5208 21.9042 19.2833 22 19 22H3ZM7 18C6.45 18 5.97917 17.8042 5.5875 17.4125C5.19583 17.0208 5 16.55 5 16V6C5 5.71667 5.09583 5.47917 5.2875 5.2875C5.47917 5.09583 5.71667 5 6 5H10V3C10 2.45 10.1958 1.97917 10.5875 1.5875C10.9792 1.19583 11.45 1 12 1H16C16.55 1 17.0208 1.19583 17.4125 1.5875C17.8042 1.97917 18 2.45 18 3V5H22C22.2833 5 22.5208 5.09583 22.7125 5.2875C22.9042 5.47917 23 5.71667 23 6V16C23 16.55 22.8042 17.0208 22.4125 17.4125C22.0208 17.8042 21.55 18 21 18H7ZM7 16H21V7H7V16ZM12 5H16V3H12V5ZM12 14.225C12 14.425 12.0875 14.5667 12.2625 14.65C12.4375 14.7333 12.6083 14.725 12.775 14.625L16.825 12.05C16.975 11.95 17.05 11.8083 17.05 11.625C17.05 11.4417 16.975 11.3 16.825 11.2L12.775 8.625C12.6083 8.525 12.4375 8.51667 12.2625 8.6C12.0875 8.68333 12 8.825 12 9.025V14.225Z" fill="currentColor"/>
</svg>
