<svg width="24" height="24" viewBox="0 0 24 24" fill="none" xmlns="http://www.w3.org/2000/svg">
<path d="M11 4V14C11 14.2833 10.9042 14.5208 10.7125 14.7125C10.5208 14.9042 10.2833 15 10 15C9.71667 15 9.47917 14.9042 9.2875 14.7125C9.09583 14.5208 9 14.2833 9 14V10C7.9 10 6.95833 9.60833 6.175 8.825C5.39167 8.04167 5 7.1 5 6C5 4.9 5.39167 3.95833 6.175 3.175C6.95833 2.39167 7.9 2 9 2H16C16.2833 2 16.5208 2.09583 16.7125 2.2875C16.9042 2.47917 17 2.71667 17 3C17 3.28333 16.9042 3.52083 16.7125 3.7125C16.5208 3.90417 16.2833 4 16 4H15V14C15 14.2833 14.9042 14.5208 14.7125 14.7125C14.5208 14.9042 14.2833 15 14 15C13.7167 15 13.4792 14.9042 13.2875 14.7125C13.0958 14.5208 13 14.2833 13 14V4H11ZM9 8V4C8.45 4 7.97917 4.19583 7.5875 4.5875C7.19583 4.97917 7 5.45 7 6C7 6.55 7.19583 7.02083 7.5875 7.4125C7.97917 7.80417 8.45 8 9 8ZM17.2 19H4C3.71667 19 3.47917 18.9042 3.2875 18.7125C3.09583 18.5208 3 18.2833 3 18C3 17.7167 3.09583 17.4792 3.2875 17.2875C3.47917 17.0958 3.71667 17 4 17H17.2L16.3 16.1C16.1167 15.9167 16.025 15.6833 16.025 15.4C16.025 15.1167 16.1167 14.8833 16.3 14.7C16.4833 14.5167 16.7167 14.425 17 14.425C17.2833 14.425 17.5167 14.5167 17.7 14.7L20.3 17.3C20.5 17.5 20.6 17.7333 20.6 18C20.6 18.2667 20.5 18.5 20.3 18.7L17.7 21.3C17.5167 21.4833 17.2833 21.575 17 21.575C16.7167 21.575 16.4833 21.4833 16.3 21.3C16.1167 21.1167 16.025 20.8833 16.025 20.6C16.025 20.3167 16.1167 20.0833 16.3 19.9L17.2 19Z" fill="currentColor"/>
</svg>
