<svg width="24" height="24" viewBox="0 0 24 24" fill="currentColor" xmlns="http://www.w3.org/2000/svg">
<path fill-rule="evenodd" clip-rule="evenodd" d="M9.01393 3.8229C10.0284 3.8229 10.8507 4.64525 10.8507 5.65967V12.3305C10.8507 12.8377 11.2619 13.2489 11.7691 13.2489H18.4399C19.4544 13.2489 20.2767 14.0713 20.2767 15.0857V19.213C20.2767 20.2275 19.4544 21.0498 18.4399 21.0498H4.88658C3.87216 21.0498 3.0498 20.2275 3.0498 19.213V5.65967C3.0498 4.64525 3.87216 3.8229 4.88658 3.8229H9.01393ZM4.70272 19.3969H18.6238V14.9018H11.0346C10.0201 14.9018 9.19779 14.0795 9.19779 13.0651V5.47581H4.70272V19.3969Z" fill="currentColor"/>
<path fill-rule="evenodd" clip-rule="evenodd" d="M19.213 3.0498C20.2275 3.0498 21.0498 3.87216 21.0498 4.88658V9.93232C21.0498 10.9467 20.2275 11.7691 19.213 11.7691H14.1673C13.1529 11.7691 12.3305 10.9467 12.3305 9.93232V4.88658C12.3305 3.87216 13.1529 3.0498 14.1673 3.0498H19.213ZM13.9834 10.1162H19.3969V4.70272H13.9834V10.1162Z" fill="currentColor"/>
</svg>
