<svg width="24" height="24" viewBox="0 0 24 24" fill="none" xmlns="http://www.w3.org/2000/svg">
<path d="M5 22C4.45 22 3.97917 21.8042 3.5875 21.4125C3.19583 21.0208 3 20.55 3 20V6C3 5.45 3.19583 4.97917 3.5875 4.5875C3.97917 4.19583 4.45 4 5 4H6V3C6 2.71667 6.09583 2.47917 6.2875 2.2875C6.47917 2.09583 6.71667 2 7 2C7.28333 2 7.52083 2.09583 7.7125 2.2875C7.90417 2.47917 8 2.71667 8 3V4H16V3C16 2.71667 16.0958 2.47917 16.2875 2.2875C16.4792 2.09583 16.7167 2 17 2C17.2833 2 17.5208 2.09583 17.7125 2.2875C17.9042 2.47917 18 2.71667 18 3V4H19C19.55 4 20.0208 4.19583 20.4125 4.5875C20.8042 4.97917 21 5.45 21 6V20C21 20.55 20.8042 21.0208 20.4125 21.4125C20.0208 21.8042 19.55 22 19 22H5ZM5 20H19V10H5V20ZM5 8H19V6H5V8Z" fill="currentColor"/>
<path d="M7.38545 18.1747C7.18246 18.1747 6.97064 18.1041 6.80295 17.954C6.43227 17.6363 6.39696 17.0714 6.72352 16.7096L9.43012 13.5744C9.58899 13.389 9.81846 13.2831 10.0656 13.2743C10.3039 13.2567 10.5422 13.3626 10.7187 13.5303L12.5084 15.3214L15.7644 11.8447C16.0645 11.4564 16.6117 11.3858 17 11.6859C17.3883 11.9859 17.4589 12.5331 17.1589 12.9215L13.2939 17.1925C13.135 17.3955 12.9056 17.519 12.6496 17.5367C12.3848 17.5367 12.1465 17.4573 11.97 17.2807L10.1362 15.4454L8.04739 17.8746C7.87087 18.0776 7.63258 18.1747 7.38545 18.1747Z" fill="currentColor"/>
</svg>
