<svg width="24" height="24" viewBox="0 0 24 24" fill="none" xmlns="http://www.w3.org/2000/svg">
<path d="M5 21C4.71667 21 4.47917 20.9042 4.2875 20.7125C4.09583 20.5208 4 20.2833 4 20V17C4 16.45 4.19583 15.9792 4.5875 15.5875C4.97917 15.1958 5.45 15 6 15H18C18.55 15 19.0208 15.1958 19.4125 15.5875C19.8042 15.9792 20 16.45 20 17V20C20 20.2833 19.9042 20.5208 19.7125 20.7125C19.5208 20.9042 19.2833 21 19 21C18.7167 21 18.4792 20.9042 18.2875 20.7125C18.0958 20.5208 18 20.2833 18 20V17H6V20C6 20.2833 5.90417 20.5208 5.7125 20.7125C5.52083 20.9042 5.28333 21 5 21ZM4.5 14C4.08333 14 3.72917 13.8542 3.4375 13.5625C3.14583 13.2708 3 12.9167 3 12.5C3 12.0833 3.14583 11.7292 3.4375 11.4375C3.72917 11.1458 4.08333 11 4.5 11C4.91667 11 5.27083 11.1458 5.5625 11.4375C5.85417 11.7292 6 12.0833 6 12.5C6 12.9167 5.85417 13.2708 5.5625 13.5625C5.27083 13.8542 4.91667 14 4.5 14ZM7 14V5C7 4.45 7.19583 3.97917 7.5875 3.5875C7.97917 3.19583 8.45 3 9 3H15C15.55 3 16.0208 3.19583 16.4125 3.5875C16.8042 3.97917 17 4.45 17 5V14H7ZM19.5 14C19.0833 14 18.7292 13.8542 18.4375 13.5625C18.1458 13.2708 18 12.9167 18 12.5C18 12.0833 18.1458 11.7292 18.4375 11.4375C18.7292 11.1458 19.0833 11 19.5 11C19.9167 11 20.2708 11.1458 20.5625 11.4375C20.8542 11.7292 21 12.0833 21 12.5C21 12.9167 20.8542 13.2708 20.5625 13.5625C20.2708 13.8542 19.9167 14 19.5 14ZM9 12H15V5H9V12Z" fill="currentColor"/>
</svg>
