<svg width="24" height="24" viewBox="0 0 24 24" fill="none" xmlns="http://www.w3.org/2000/svg">
<path d="M6.82501 20H17.175L12 14.825L6.82501 20ZM4.42501 22C3.97501 22 3.66251 21.7958 3.48751 21.3875C3.31251 20.9791 3.38335 20.6166 3.70001 20.3L10.6 13.4L3.10001 5.92498C2.90001 5.74164 2.80418 5.51248 2.81251 5.23748C2.82085 4.96248 2.91668 4.72498 3.10001 4.52498C3.30001 4.32498 3.53751 4.22498 3.81251 4.22498C4.08751 4.22498 4.32501 4.32498 4.52501 4.52498L21.5 21.5C21.7 21.7 21.7958 21.9333 21.7875 22.2C21.7792 22.4666 21.675 22.7 21.475 22.9C21.275 23.0833 21.0417 23.1791 20.775 23.1875C20.5083 23.1958 20.275 23.1 20.075 22.9L19.175 22H4.42501ZM22 4.42498V16.775C22 17.1083 21.8958 17.3583 21.6875 17.525C21.4792 17.6916 21.25 17.775 21 17.775C20.75 17.775 20.5208 17.6875 20.3125 17.5125C20.1042 17.3375 20 17.0833 20 16.75V6.82498L15.525 11.3C15.3417 11.4833 15.1125 11.575 14.8375 11.575C14.5625 11.575 14.325 11.4833 14.125 11.3C13.925 11.1 13.825 10.8625 13.825 10.5875C13.825 10.3125 13.925 10.075 14.125 9.87497L20.3 3.69998C20.6167 3.38331 20.9792 3.31248 21.3875 3.48748C21.7958 3.66248 22 3.97498 22 4.42498Z" fill="currentColor"/>
</svg>
