<svg width="24" height="24" viewBox="0 0 24 24" fill="none" xmlns="http://www.w3.org/2000/svg">
<path d="M11.9924 2C11.4401 2 10.9924 2.44772 10.9924 3C10.9924 3.55228 11.4401 4 11.9924 4C16.4107 4 19.9924 7.58172 19.9924 12C19.9924 16.4183 16.4107 20 11.9924 20C9.81168 20 7.83645 19.1288 6.39243 17.7132C5.99804 17.3266 5.36491 17.3329 4.97828 17.7272C4.59166 18.1216 4.59795 18.7548 4.99234 19.1414C6.79507 20.9086 9.26727 22 11.9924 22C17.5152 22 21.9924 17.5228 21.9924 12C21.9924 6.47715 17.5152 2 11.9924 2Z" fill="currentColor"/>
<path d="M9.31069 4.39858C9.83419 4.2226 10.1159 3.65555 9.93991 3.13206C9.76393 2.60856 9.19689 2.32685 8.67339 2.50284L8.62172 2.52036C8.09915 2.69907 7.82039 3.26756 7.9991 3.79014C8.17781 4.31271 8.7463 4.59147 9.26888 4.41276L9.31069 4.39858Z" fill="currentColor"/>
<path d="M7.16392 4.23132C7.50296 4.66729 7.42438 5.29556 6.98841 5.6346C6.9658 5.65218 6.94333 5.66987 6.92098 5.68766C6.48892 6.03167 5.85979 5.96029 5.51578 5.52823C5.17178 5.09617 5.24316 4.46704 5.67522 4.12303C5.70353 4.10049 5.732 4.07808 5.76064 4.05581C6.19661 3.71677 6.82488 3.79535 7.16392 4.23132Z" fill="currentColor"/>
<path d="M5.20887 7.61396C5.50115 7.14535 5.35821 6.52853 4.88961 6.23625C4.421 5.94397 3.80418 6.08691 3.5119 6.55552C3.49269 6.58631 3.47366 6.6172 3.45482 6.64817C3.16772 7.11997 3.31745 7.73517 3.78925 8.02227C4.26105 8.30937 4.87625 8.15964 5.16335 7.68784C5.17838 7.66314 5.19356 7.63851 5.20887 7.61396Z" fill="currentColor"/>
<path d="M3.43754 8.89755C3.97541 9.02289 4.30983 9.56054 4.18448 10.0984C4.17787 10.1268 4.17141 10.1552 4.16509 10.1836C4.04528 10.7227 3.51109 11.0627 2.97196 10.9428C2.43283 10.823 2.09291 10.2888 2.21272 9.74972C2.22053 9.71461 2.22851 9.67954 2.23668 9.6445C2.36202 9.10662 2.89967 8.7722 3.43754 8.89755Z" fill="currentColor"/>
<path d="M3.99595 12.7887C3.9459 12.2387 3.45945 11.8334 2.90944 11.8835C2.35942 11.9335 1.95413 12.42 2.00418 12.97C2.00745 13.006 2.01092 13.0419 2.01457 13.0778C2.07046 13.6273 2.56118 14.0274 3.11063 13.9715C3.66008 13.9156 4.06019 13.4249 4.00431 12.8755C4.00137 12.8466 3.99858 12.8177 3.99595 12.7887Z" fill="currentColor"/>
<path d="M3.35247 14.8853C3.85167 14.649 4.44788 14.8622 4.68414 15.3614L4.70251 15.3998C4.94184 15.8976 4.73235 16.4951 4.23462 16.7344C3.73688 16.9737 3.13938 16.7643 2.90005 16.2665L2.87639 16.2169C2.64013 15.7178 2.85328 15.1215 3.35247 14.8853Z" fill="currentColor"/>
<path d="M8.44209 11.65L10.5921 13.8L15.5421 8.84995C15.7254 8.66662 15.9588 8.57495 16.2421 8.57495C16.5254 8.57495 16.7588 8.66662 16.9421 8.84995C17.1254 9.03328 17.2171 9.26662 17.2171 9.54995C17.2171 9.83328 17.1254 10.0666 16.9421 10.25L11.2921 15.9C11.0921 16.1 10.8588 16.2 10.5921 16.2C10.3254 16.2 10.0921 16.1 9.89209 15.9L7.04209 13.05C6.85876 12.8666 6.76709 12.6333 6.76709 12.35C6.76709 12.0666 6.85876 11.8333 7.04209 11.65C7.22542 11.4666 7.45876 11.375 7.74209 11.375C8.02542 11.375 8.25876 11.4666 8.44209 11.65Z" fill="currentColor"/>
</svg>
