<svg width="24" height="24" viewBox="0 0 24 24" fill="none" xmlns="http://www.w3.org/2000/svg">
<path d="M13.2 10.3501L9.55001 6.7001C9.23335 6.38343 9.16251 6.02093 9.33751 5.6126C9.51251 5.20426 9.82501 5.0001 10.275 5.0001H18.5C18.9167 5.0001 19.2708 5.14593 19.5625 5.4376C19.8542 5.72926 20 6.08343 20 6.5001C20 6.91676 19.8542 7.27093 19.5625 7.5626C19.2708 7.85426 18.9167 8.0001 18.5 8.0001H14.2L13.2 10.3501ZM19.1 21.9001L11.5 14.3001L9.90001 18.0751C9.78335 18.3584 9.59585 18.5834 9.33751 18.7501C9.07918 18.9168 8.80001 19.0001 8.50001 19.0001C7.96668 19.0001 7.55001 18.7751 7.25001 18.3251C6.95001 17.8751 6.90835 17.4001 7.12501 16.9001L9.20001 12.0001L2.10001 4.9001C1.91668 4.71676 1.82501 4.48343 1.82501 4.2001C1.82501 3.91676 1.91668 3.68343 2.10001 3.5001C2.28335 3.31676 2.51668 3.2251 2.80001 3.2251C3.08335 3.2251 3.31668 3.31676 3.50001 3.5001L20.5 20.5001C20.6833 20.6834 20.775 20.9168 20.775 21.2001C20.775 21.4834 20.6833 21.7168 20.5 21.9001C20.3167 22.0834 20.0833 22.1751 19.8 22.1751C19.5167 22.1751 19.2833 22.0834 19.1 21.9001Z" fill="currentColor"/>
</svg>
