<svg width="24" height="24" viewBox="0 0 24 24" fill="none" xmlns="http://www.w3.org/2000/svg">
<g clip-path="url(#clip0_1_322)">
<path d="M17.575 8.4L6.675 19.3C6.49167 19.4833 6.25833 19.575 5.975 19.575C5.69167 19.575 5.45833 19.4833 5.275 19.3C5.09167 19.1167 5 18.8833 5 18.6C5 18.3167 5.09167 18.0833 5.275 17.9L16.175 7H10.575C10.2917 7 10.0542 6.90417 9.8625 6.7125C9.67083 6.52083 9.575 6.28333 9.575 6C9.575 5.71667 9.67083 5.47917 9.8625 5.2875C10.0542 5.09583 10.2917 5 10.575 5H18.575C18.8583 5 19.0958 5.09583 19.2875 5.2875C19.4792 5.47917 19.575 5.71667 19.575 6V14C19.575 14.2833 19.4792 14.5208 19.2875 14.7125C19.0958 14.9042 18.8583 15 18.575 15C18.2917 15 18.0542 14.9042 17.8625 14.7125C17.6708 14.5208 17.575 14.2833 17.575 14V8.4Z" fill="currentColor"/>
</g>
<defs>
<clipPath id="clip0_1_322">
<rect width="24" height="24" fill="white"/>
</clipPath>
</defs>
</svg>
