<svg width="24" height="24" viewBox="0 0 24 24" fill="none" xmlns="http://www.w3.org/2000/svg">
<path d="M12 21L9.24995 21.775C9.06662 21.825 8.89578 21.7917 8.73745 21.675C8.57912 21.5583 8.49995 21.4 8.49995 21.2V20.8C8.49995 20.7 8.52079 20.6125 8.56245 20.5375C8.60412 20.4625 8.66662 20.3917 8.74995 20.325L10.5 19V13.5L3.09995 15.675C2.81662 15.7583 2.56245 15.7125 2.33745 15.5375C2.11245 15.3625 1.99995 15.1333 1.99995 14.85V14.5C1.99995 14.35 2.03745 14.2083 2.11245 14.075C2.18745 13.9417 2.29162 13.8333 2.42495 13.75L7.79995 10.6L2.09995 4.9C1.91662 4.71667 1.82495 4.48333 1.82495 4.2C1.82495 3.91667 1.91662 3.68333 2.09995 3.5C2.28328 3.31667 2.51662 3.225 2.79995 3.225C3.08328 3.225 3.31662 3.31667 3.49995 3.5L20.5 20.5C20.6833 20.6833 20.775 20.9167 20.775 21.2C20.775 21.4833 20.6833 21.7167 20.5 21.9C20.3166 22.0833 20.0833 22.175 19.8 22.175C19.5166 22.175 19.2833 22.0833 19.1 21.9L13.5 16.3V19L15.225 20.275C15.3083 20.3417 15.375 20.425 15.425 20.525C15.475 20.625 15.5 20.7333 15.5 20.85V21.05C15.5 21.2833 15.4041 21.4708 15.2125 21.6125C15.0208 21.7542 14.8083 21.7917 14.575 21.725L12 21ZM12 2C12.4166 2 12.7708 2.14583 13.0625 2.4375C13.3541 2.72917 13.5 3.08333 13.5 3.5V9L21.525 13.725C21.675 13.8083 21.7916 13.9208 21.875 14.0625C21.9583 14.2042 22 14.3667 22 14.55V14.725C22 15.0583 21.875 15.3167 21.625 15.5C21.375 15.6833 21.0916 15.7333 20.775 15.65L17.55 14.675L10.5 7.65V3.5C10.5 3.08333 10.6458 2.72917 10.9375 2.4375C11.2291 2.14583 11.5833 2 12 2Z" fill="currentColor"/>
</svg>
