<svg width="24" height="24" viewBox="0 0 24 24" fill="none" xmlns="http://www.w3.org/2000/svg">
<mask id="mask0_3238_458" style="mask-type:alpha" maskUnits="userSpaceOnUse" x="0" y="0" width="24" height="24">
<rect width="24" height="24" fill="currentColor"/>
</mask>
<g mask="url(#mask0_3238_458)">
<path d="M4 20C3.45 20 2.97917 19.8042 2.5875 19.4125C2.19583 19.0208 2 18.55 2 18V6C2 5.45 2.19583 4.97917 2.5875 4.5875C2.97917 4.19583 3.45 4 4 4H20C20.55 4 21.0208 4.19583 21.4125 4.5875C21.8042 4.97917 22 5.45 22 6V10C22 10.2833 21.9042 10.5208 21.7125 10.7125C21.5208 10.9042 21.2833 11 21 11C20.7167 11 20.4792 10.9042 20.2875 10.7125C20.0958 10.5208 20 10.2833 20 10V8L12.525 12.675C12.4417 12.725 12.3542 12.7625 12.2625 12.7875C12.1708 12.8125 12.0833 12.825 12 12.825C11.9167 12.825 11.8292 12.8125 11.7375 12.7875C11.6458 12.7625 11.5583 12.725 11.475 12.675L4 8V18H11C11.2833 18 11.5208 18.0958 11.7125 18.2875C11.9042 18.4792 12 18.7167 12 19C12 19.2833 11.9042 19.5208 11.7125 19.7125C11.5208 19.9042 11.2833 20 11 20H4ZM12 11L20 6H4L12 11ZM4 18V11V11.075V8V8.25V6.8C4 6.61667 4 6.61667 4 6.8V6.7875V8.25V8V18ZM19 23C17.6167 23 16.4375 22.5125 15.4625 21.5375C14.4875 20.5625 14 19.3833 14 18C14 16.6167 14.4875 15.4375 15.4625 14.4625C16.4375 13.4875 17.6167 13 19 13C20.3833 13 21.5625 13.4875 22.5375 14.4625C23.5125 15.4375 24 16.6167 24 18C24 19.3833 23.5125 20.5625 22.5375 21.5375C21.5625 22.5125 20.3833 23 19 23ZM16.5 18.5H21.5C21.6333 18.5 21.75 18.45 21.85 18.35C21.95 18.25 22 18.1333 22 18C22 17.8667 21.95 17.75 21.85 17.65C21.75 17.55 21.6333 17.5 21.5 17.5H16.5C16.3667 17.5 16.25 17.55 16.15 17.65C16.05 17.75 16 17.8667 16 18C16 18.1333 16.05 18.25 16.15 18.35C16.25 18.45 16.3667 18.5 16.5 18.5Z" fill="currentColor"/>
</g>
</svg>
