<svg width="24" height="24" viewBox="0 0 24 24" fill="none" xmlns="http://www.w3.org/2000/svg">
<g clip-path="url(#clip0_1_465)">
<path d="M11.1138 14.7V16.7C11.1138 16.9833 11.2096 17.2208 11.4013 17.4125C11.5929 17.6041 11.8304 17.7 12.1138 17.7C12.3971 17.7 12.6346 17.6041 12.8263 17.4125C13.0179 17.2208 13.1138 16.9833 13.1138 16.7V14.7H15.1138C15.3971 14.7 15.6346 14.6041 15.8263 14.4125C16.0179 14.2208 16.1138 13.9833 16.1138 13.7C16.1138 13.4166 16.0179 13.1791 15.8263 12.9875C15.6346 12.7958 15.3971 12.7 15.1138 12.7H13.1138V10.7C13.1138 10.4166 13.0179 10.1791 12.8263 9.98745C12.6346 9.79578 12.3971 9.69995 12.1138 9.69995C11.8304 9.69995 11.5929 9.79578 11.4013 9.98745C11.2096 10.1791 11.1138 10.4166 11.1138 10.7V12.7H9.11377C8.83044 12.7 8.59294 12.7958 8.40127 12.9875C8.2096 13.1791 8.11377 13.4166 8.11377 13.7C8.11377 13.9833 8.2096 14.2208 8.40127 14.4125C8.59294 14.6041 8.83044 14.7 9.11377 14.7H11.1138ZM4.11377 21.7C3.56377 21.7 3.09294 21.5041 2.70127 21.1125C2.3096 20.7208 2.11377 20.25 2.11377 19.7V7.69995C2.11377 7.14995 2.3096 6.67912 2.70127 6.28745C3.09294 5.89578 3.56377 5.69995 4.11377 5.69995H8.11377V3.69995C8.11377 3.14995 8.3096 2.67912 8.70127 2.28745C9.09294 1.89578 9.56377 1.69995 10.1138 1.69995H14.1138C14.6638 1.69995 15.1346 1.89578 15.5263 2.28745C15.9179 2.67912 16.1138 3.14995 16.1138 3.69995V5.69995H20.1138C20.6638 5.69995 21.1346 5.89578 21.5263 6.28745C21.9179 6.67912 22.1138 7.14995 22.1138 7.69995V19.7C22.1138 20.25 21.9179 20.7208 21.5263 21.1125C21.1346 21.5041 20.6638 21.7 20.1138 21.7H4.11377ZM4.11377 19.7H20.1138V7.69995H4.11377V19.7ZM10.1138 5.69995H14.1138V3.69995H10.1138V5.69995Z" fill="currentColor"/>
</g>
<defs>
<clipPath id="clip0_1_465">
<rect width="24" height="24" fill="white"/>
</clipPath>
</defs>
</svg>
