<svg width="24" height="24" viewBox="0 0 24 24" fill="none" xmlns="http://www.w3.org/2000/svg">
<g clip-path="url(#clip0_1_225)">
<path d="M14.95 12C14.95 12.1333 14.9292 12.2583 14.8875 12.375C14.8459 12.4916 14.775 12.6 14.675 12.7L10.075 17.3C9.89169 17.4833 9.65836 17.575 9.37502 17.575C9.09169 17.575 8.85836 17.4833 8.67502 17.3C8.49169 17.1166 8.40002 16.8833 8.40002 16.6C8.40002 16.3166 8.49169 16.0833 8.67502 15.9L12.575 12L8.67502 8.09995C8.49169 7.91662 8.40002 7.68328 8.40002 7.39995C8.40002 7.11662 8.49169 6.88328 8.67502 6.69995C8.85836 6.51662 9.09169 6.42495 9.37502 6.42495C9.65836 6.42495 9.89169 6.51662 10.075 6.69995L14.675 11.3C14.775 11.4 14.8459 11.5083 14.8875 11.625C14.9292 11.7416 14.95 11.8666 14.95 12Z" fill="currentColor"/>
</g>
<defs>
<clipPath id="clip0_1_225">
<rect width="24" height="24" fill="white"/>
</clipPath>
</defs>
</svg>
