<svg width="24" height="24" viewBox="0 0 24 24" fill="none" xmlns="http://www.w3.org/2000/svg">
<path d="M12 20.9999C10.9167 20.9999 9.9125 20.7332 8.9875 20.1999C8.0625 19.6666 7.33333 18.9332 6.8 17.9999H5C4.71667 17.9999 4.47917 17.9041 4.2875 17.7124C4.09583 17.5207 4 17.2832 4 16.9999C4 16.7166 4.09583 16.4791 4.2875 16.2874C4.47917 16.0957 4.71667 15.9999 5 15.9999H6.1C6.05 15.6666 6.02083 15.3332 6.0125 14.9999C6.00417 14.6666 6 14.3332 6 13.9999H5C4.71667 13.9999 4.47917 13.9041 4.2875 13.7124C4.09583 13.5207 4 13.2832 4 12.9999C4 12.7166 4.09583 12.4791 4.2875 12.2874C4.47917 12.0957 4.71667 11.9999 5 11.9999H6C6 11.6666 6.00417 11.3332 6.0125 10.9999C6.02083 10.6666 6.05 10.3332 6.1 9.9999H5C4.71667 9.9999 4.47917 9.90407 4.2875 9.7124C4.09583 9.52074 4 9.28324 4 8.9999C4 8.71657 4.09583 8.47907 4.2875 8.2874C4.47917 8.09574 4.71667 7.9999 5 7.9999H6.8C7.03333 7.61657 7.29583 7.25824 7.5875 6.9249C7.87917 6.59157 8.21667 6.2999 8.6 6.0499L7.675 5.0999C7.49167 4.91657 7.4 4.6874 7.4 4.4124C7.4 4.1374 7.5 3.8999 7.7 3.6999C7.88333 3.51657 8.11667 3.4249 8.4 3.4249C8.68333 3.4249 8.91667 3.51657 9.1 3.6999L10.55 5.1499C11.0167 4.9999 11.4917 4.9249 11.975 4.9249C12.4583 4.9249 12.9333 4.9999 13.4 5.1499L14.9 3.6749C15.0833 3.49157 15.3125 3.3999 15.5875 3.3999C15.8625 3.3999 16.1 3.4999 16.3 3.6999C16.4833 3.88324 16.575 4.11657 16.575 4.3999C16.575 4.68324 16.4833 4.91657 16.3 5.0999L15.35 6.0499C15.7333 6.2999 16.0792 6.5874 16.3875 6.9124C16.6958 7.2374 16.9667 7.5999 17.2 7.9999H19C19.2833 7.9999 19.5208 8.09574 19.7125 8.2874C19.9042 8.47907 20 8.71657 20 8.9999C20 9.28324 19.9042 9.52074 19.7125 9.7124C19.5208 9.90407 19.2833 9.9999 19 9.9999H17.9C17.95 10.3332 17.9792 10.6666 17.9875 10.9999C17.9958 11.3332 18 11.6666 18 11.9999H19C19.2833 11.9999 19.5208 12.0957 19.7125 12.2874C19.9042 12.4791 20 12.7166 20 12.9999C20 13.2832 19.9042 13.5207 19.7125 13.7124C19.5208 13.9041 19.2833 13.9999 19 13.9999H18C18 14.3332 17.9958 14.6666 17.9875 14.9999C17.9792 15.3332 17.95 15.6666 17.9 15.9999H19C19.2833 15.9999 19.5208 16.0957 19.7125 16.2874C19.9042 16.4791 20 16.7166 20 16.9999C20 17.2832 19.9042 17.5207 19.7125 17.7124C19.5208 17.9041 19.2833 17.9999 19 17.9999H17.2C16.6667 18.9332 15.9375 19.6666 15.0125 20.1999C14.0875 20.7332 13.0833 20.9999 12 20.9999ZM12 18.9999C13.1 18.9999 14.0417 18.6082 14.825 17.8249C15.6083 17.0416 16 16.0999 16 14.9999V10.9999C16 9.8999 15.6083 8.95824 14.825 8.1749C14.0417 7.39157 13.1 6.9999 12 6.9999C10.9 6.9999 9.95833 7.39157 9.175 8.1749C8.39167 8.95824 8 9.8999 8 10.9999V14.9999C8 16.0999 8.39167 17.0416 9.175 17.8249C9.95833 18.6082 10.9 18.9999 12 18.9999ZM11 15.9999H13C13.2833 15.9999 13.5208 15.9041 13.7125 15.7124C13.9042 15.5207 14 15.2832 14 14.9999C14 14.7166 13.9042 14.4791 13.7125 14.2874C13.5208 14.0957 13.2833 13.9999 13 13.9999H11C10.7167 13.9999 10.4792 14.0957 10.2875 14.2874C10.0958 14.4791 10 14.7166 10 14.9999C10 15.2832 10.0958 15.5207 10.2875 15.7124C10.4792 15.9041 10.7167 15.9999 11 15.9999ZM11 11.9999H13C13.2833 11.9999 13.5208 11.9041 13.7125 11.7124C13.9042 11.5207 14 11.2832 14 10.9999C14 10.7166 13.9042 10.4791 13.7125 10.2874C13.5208 10.0957 13.2833 9.9999 13 9.9999H11C10.7167 9.9999 10.4792 10.0957 10.2875 10.2874C10.0958 10.4791 10 10.7166 10 10.9999C10 11.2832 10.0958 11.5207 10.2875 11.7124C10.4792 11.9041 10.7167 11.9999 11 11.9999Z" fill="currentColor"/>
</svg>
