<svg width="24" height="24" viewBox="0 0 24 24" fill="none" xmlns="http://www.w3.org/2000/svg">
<g clip-path="url(#clip0_3443_39)">
<path d="M9.52317 12.1836C9.34853 11.6596 8.78221 11.3765 8.25826 11.5511C7.73432 11.7258 7.45116 12.2921 7.62581 12.816C8.1461 14.3769 9.55324 16.0689 11.9999 16.0689C14.4467 16.0689 15.8538 14.3769 16.3741 12.816C16.5487 12.2921 16.2656 11.7258 15.7416 11.5511C15.2177 11.3765 14.6514 11.6596 14.4767 12.1836C14.1406 13.1918 13.3369 14.0689 11.9999 14.0689C10.663 14.0689 9.85924 13.1918 9.52317 12.1836Z" fill="currentColor"/>
<path fill-rule="evenodd" clip-rule="evenodd" d="M4.47411 8.05486L4.32927 8.77908H2C1.44772 8.77908 1 9.2268 1 9.77908C1 10.3314 1.44772 10.7791 2 10.7791H2.1747L4.51509 19.4472C4.76245 20.3634 5.59351 20.9998 6.54249 20.9998H17.4577C18.4067 20.9998 19.2377 20.3634 19.4851 19.4472L21.8255 10.7791H22C22.5523 10.7791 23 10.3314 23 9.77908C23 9.2268 22.5523 8.77908 22 8.77908H19.6707L19.5258 8.05487C19.1121 5.9863 17.2958 4.49732 15.1863 4.49732L8.81362 4.49731C6.70409 4.49731 4.88783 5.9863 4.47411 8.05486ZM17.5647 8.4471L17.6311 8.77908H6.36888L6.43527 8.4471C6.66202 7.31338 7.65746 6.49731 8.81362 6.49731L15.1863 6.49732C16.3425 6.49732 17.3379 7.31338 17.5647 8.4471ZM18.8719 10.7791C18.8571 10.7794 18.8424 10.7794 18.8278 10.7791H4.24631L6.44594 18.9259C6.45772 18.9695 6.4973 18.9998 6.54249 18.9998H17.4577C17.5029 18.9998 17.5425 18.9695 17.5542 18.9259L19.7539 10.7791H18.8719Z" fill="currentColor"/>
</g>
<defs>
<clipPath id="clip0_3443_39">
<rect width="24" height="24" fill="currentColor"/>
</clipPath>
</defs>
</svg>
