<svg width="24" height="24" viewBox="0 0 24 24" fill="none" xmlns="http://www.w3.org/2000/svg">
<g clip-path="url(#clip0_1_284)">
<path d="M11.9999 20.8752C11.5167 20.8752 11.1083 20.7044 10.7747 20.3628C10.4415 20.0208 10.2749 19.6166 10.2749 19.1502C10.2749 18.6834 10.4457 18.2792 10.7873 17.9376C11.1289 17.596 11.5331 17.4252 11.9999 17.4252C12.4831 17.4252 12.8915 17.596 13.2251 17.9376C13.5583 18.2792 13.7249 18.6834 13.7249 19.1502C13.7249 19.6334 13.5541 20.0416 13.2125 20.3748C12.8709 20.7084 12.4667 20.8752 11.9999 20.8752ZM11.9999 13.725C11.5167 13.725 11.1083 13.5542 10.7747 13.2126C10.4415 12.871 10.2749 12.4668 10.2749 12C10.2749 11.5168 10.4457 11.1084 10.7873 10.7748C11.1289 10.4416 11.5331 10.275 11.9999 10.275C12.4831 10.275 12.8915 10.4458 13.2251 10.7874C13.5583 11.129 13.7249 11.5332 13.7249 12C13.7249 12.4832 13.5541 12.8916 13.2125 13.2252C12.8709 13.5584 12.4667 13.725 11.9999 13.725ZM11.9999 6.57476C11.5167 6.57476 11.1083 6.40396 10.7747 6.06236C10.4415 5.72076 10.2749 5.31656 10.2749 4.84976C10.2749 4.36656 10.4457 3.95836 10.7873 3.62516C11.1289 3.29156 11.5331 3.12476 11.9999 3.12476C12.4831 3.12476 12.8915 3.29156 13.2251 3.62516C13.5583 3.95836 13.7249 4.36656 13.7249 4.84976C13.7249 5.33336 13.5541 5.74176 13.2125 6.07496C12.8709 6.40816 12.4667 6.57476 11.9999 6.57476Z" fill="currentColor"/>
</g>
<defs>
<clipPath id="clip0_1_284">
<rect width="24" height="24" fill="white"/>
</clipPath>
</defs>
</svg>
