<svg width="25" height="24" viewBox="0 0 25 24" fill="none" xmlns="http://www.w3.org/2000/svg">
<g clip-path="url(#clip0_5709_539)">
<path fill-rule="evenodd" clip-rule="evenodd" d="M3.8175 19.6058C4.16262 19.951 4.57751 20.1235 5.06216 20.1235H9.46803C9.7177 20.1235 9.92698 20.0391 10.0959 19.8702C10.2648 19.7013 10.3492 19.492 10.3492 19.2423C10.3492 18.9927 10.2648 18.7834 10.0959 18.6145C9.92698 18.4456 9.7177 18.3612 9.46803 18.3612H5.06216V9.54941H17.3986V10.4306C17.3986 10.6802 17.4831 10.8895 17.652 11.0584C17.8208 11.2273 18.0301 11.3118 18.2798 11.3118C18.5295 11.3118 18.7387 11.2273 18.9076 11.0584C19.0765 10.8895 19.161 10.6802 19.161 10.4306V6.0247C19.161 5.54006 18.9884 5.12517 18.6433 4.78004C18.2982 4.43492 17.8833 4.26235 17.3986 4.26235H16.5174V3.38118C16.5174 3.13151 16.433 2.92223 16.2641 2.75334C16.0952 2.58445 15.8859 2.5 15.6363 2.5C15.3866 2.5 15.1773 2.58445 15.0084 2.75334C14.8395 2.92223 14.7551 3.13151 14.7551 3.38118V4.26235H7.70568V3.38118C7.70568 3.13151 7.62124 2.92223 7.45235 2.75334C7.28345 2.58445 7.07417 2.5 6.82451 2.5C6.57484 2.5 6.36556 2.58445 6.19667 2.75334C6.02778 2.92223 5.94333 3.13151 5.94333 3.38118V4.26235H5.06216C4.57751 4.26235 4.16262 4.43492 3.8175 4.78004C3.47237 5.12517 3.2998 5.54006 3.2998 6.0247V18.3612C3.2998 18.8458 3.47237 19.2607 3.8175 19.6058ZM17.3986 7.78705H5.06216V6.0247H17.3986V7.78705Z" fill="currentColor"/>
<path d="M13.0956 20.1813C14.0251 21.091 15.1288 21.5459 16.4069 21.5459C16.6491 21.5459 16.8781 21.5259 17.0939 21.486C17.3095 21.4462 17.5252 21.3945 17.741 21.331C17.927 21.2661 18.058 21.1386 18.134 20.9483C18.2102 20.7581 18.1996 20.5699 18.1023 20.3839C18.0109 20.1921 17.8645 20.0648 17.6633 20.002C17.4619 19.9391 17.2573 19.9291 17.0493 19.9719C16.9471 19.9809 16.8426 19.9917 16.7358 20.0043C16.6291 20.0169 16.5194 20.0231 16.4069 20.0231C15.5391 20.0231 14.7943 19.7166 14.1723 19.1036C13.5504 18.4904 13.2498 17.7351 13.2706 16.8376V16.8551L13.5833 17.1524C13.7148 17.2839 13.863 17.3497 14.0278 17.3497C14.1926 17.3497 14.3407 17.2839 14.4723 17.1524C14.6037 17.0209 14.6694 16.8768 14.6694 16.7201C14.6694 16.5634 14.6037 16.4193 14.4723 16.2878L13.047 14.8538C12.892 14.6988 12.7128 14.6213 12.5093 14.6213C12.3058 14.6213 12.1265 14.6988 11.9716 14.8538L10.5463 16.2878C10.4148 16.4193 10.3491 16.566 10.3491 16.7279C10.3491 16.8898 10.4148 17.0365 10.5463 17.1679C10.6778 17.2994 10.8245 17.3667 10.9864 17.3696C11.1483 17.3725 11.295 17.3082 11.4264 17.1767L11.748 16.8551V16.864C11.7169 18.1658 12.1661 19.2716 13.0956 20.1813Z" fill="currentColor"/>
<path d="M16.1131 13.7344C16.2198 13.7218 16.3294 13.7156 16.442 13.7156C17.3097 13.7156 18.056 14.0221 18.6809 14.6352C19.3057 15.2483 19.6077 16.0037 19.587 16.9011V16.8836L19.2898 16.562C19.1583 16.4305 19.0102 16.3648 18.8454 16.3648C18.6805 16.3648 18.5324 16.4305 18.4009 16.562C18.2694 16.6935 18.201 16.8417 18.1959 17.0065C18.1907 17.1713 18.2539 17.3194 18.3854 17.451L19.8107 18.885C19.9655 19.0341 20.1433 19.1101 20.3439 19.113C20.5445 19.1159 20.7223 19.0399 20.8773 18.885L22.3026 17.4598C22.434 17.3283 22.4997 17.1801 22.4997 17.0153C22.4997 16.8504 22.434 16.7023 22.3026 16.5708C22.171 16.4393 22.0243 16.3735 21.8624 16.3735C21.7005 16.3735 21.5539 16.4393 21.4224 16.5708L21.1097 16.8836V16.8747C21.1408 15.5729 20.6926 14.4671 19.7653 13.5574C18.8381 12.6477 17.7303 12.1929 16.442 12.1929C16.2159 12.1929 15.9924 12.2114 15.7716 12.2483C15.5507 12.2853 15.3353 12.3355 15.1254 12.399C14.9336 12.4639 14.8048 12.5914 14.739 12.7817C14.6733 12.972 14.6838 13.163 14.7707 13.3548C14.8518 13.5466 14.9916 13.674 15.1899 13.7369C15.3884 13.7996 15.5916 13.8096 15.7996 13.7668C15.9018 13.7578 16.0063 13.747 16.1131 13.7344Z" fill="currentColor"/>
</g>
<defs>
<clipPath id="clip0_5709_539">
<rect width="24" height="24" fill="white" transform="translate(0.5)"/>
</clipPath>
</defs>
</svg>
