<svg width="24" height="24" viewBox="0 0 24 24" fill="none" xmlns="http://www.w3.org/2000/svg">
<path d="M19.1 21.875L17 19.8V20H3C2.45 20 1.97917 19.8042 1.5875 19.4125C1.19583 19.0209 1 18.55 1 18V17.2C1 16.6334 1.14583 16.1125 1.4375 15.6375C1.72917 15.1625 2.11667 14.8 2.6 14.55C3.63333 14.0334 4.68333 13.6459 5.75 13.3875C6.81667 13.1292 7.9 13 9 13C9.21667 13 9.42917 13.0042 9.6375 13.0125C9.84583 13.0209 10.05 13.0334 10.25 13.05L9.2 12H9C7.9 12 6.95833 11.6084 6.175 10.825C5.39167 10.0417 5 9.10005 5 8.00005V7.80005L2.1 4.90005C1.9 4.70005 1.80417 4.46255 1.8125 4.18755C1.82083 3.91255 1.925 3.67505 2.125 3.47505C2.325 3.27505 2.5625 3.17505 2.8375 3.17505C3.1125 3.17505 3.35 3.27505 3.55 3.47505L20.525 20.475C20.725 20.6751 20.825 20.9084 20.825 21.175C20.825 21.4417 20.725 21.675 20.525 21.875C20.325 22.0751 20.0875 22.175 19.8125 22.175C19.5375 22.175 19.3 22.0751 19.1 21.875ZM18 11H16C15.7167 11 15.4792 10.9042 15.2875 10.7125C15.0958 10.5209 15 10.2834 15 10C15 9.71672 15.0958 9.47922 15.2875 9.28755C15.4792 9.09588 15.7167 9.00005 16 9.00005H18V7.00005C18 6.71672 18.0958 6.47922 18.2875 6.28755C18.4792 6.09588 18.7167 6.00005 19 6.00005C19.2833 6.00005 19.5208 6.09588 19.7125 6.28755C19.9042 6.47922 20 6.71672 20 7.00005V9.00005H22C22.2833 9.00005 22.5208 9.09588 22.7125 9.28755C22.9042 9.47922 23 9.71672 23 10C23 10.2834 22.9042 10.5209 22.7125 10.7125C22.5208 10.9042 22.2833 11 22 11H20V13C20 13.2834 19.9042 13.5209 19.7125 13.7125C19.5208 13.9042 19.2833 14 19 14C18.7167 14 18.4792 13.9042 18.2875 13.7125C18.0958 13.5209 18 13.2834 18 13V11ZM12.6 9.70005L11 8.10005V8.00005C11 7.45005 10.8042 6.97922 10.4125 6.58755C10.0208 6.19588 9.55 6.00005 9 6.00005H8.9L7.3 4.40005C7.55 4.26672 7.82083 4.16672 8.1125 4.10005C8.40417 4.03338 8.7 4.00005 9 4.00005C10.1 4.00005 11.0417 4.39172 11.825 5.17505C12.6083 5.95838 13 6.90005 13 8.00005C13 8.30005 12.9667 8.59588 12.9 8.88755C12.8333 9.17922 12.7333 9.45005 12.6 9.70005ZM3 18H15L12.85 15.65C12.2167 15.4334 11.575 15.2709 10.925 15.1625C10.275 15.0542 9.63333 15 9 15C8.06667 15 7.14167 15.1125 6.225 15.3375C5.30833 15.5625 4.4 15.9 3.5 16.35C3.35 16.4334 3.22917 16.55 3.1375 16.7C3.04583 16.85 3 17.0167 3 17.2V18Z" fill="currentColor"/>
</svg>
