<svg width="24" height="24" viewBox="0 0 24 24" fill="none" xmlns="http://www.w3.org/2000/svg">
<path d="M19 10.425L13.425 16C13.225 16.2 13 16.35 12.75 16.45C12.5 16.55 12.25 16.6 12 16.6C11.75 16.6 11.5 16.55 11.25 16.45C11 16.35 10.775 16.2 10.575 16L3.70005 9.125C3.51672 8.94167 3.42505 8.7125 3.42505 8.4375C3.42505 8.1625 3.51672 7.925 3.70005 7.725C3.90005 7.525 4.13755 7.425 4.41255 7.425C4.68755 7.425 4.92505 7.525 5.12505 7.725L12 14.6L17.6 9H14C13.7167 9 13.4792 8.90417 13.2875 8.7125C13.0959 8.52083 13 8.28333 13 8C13 7.71667 13.0959 7.47917 13.2875 7.2875C13.4792 7.09583 13.7167 7 14 7H20C20.2834 7 20.5209 7.09583 20.7125 7.2875C20.9042 7.47917 21 7.71667 21 8V14C21 14.2833 20.9042 14.5208 20.7125 14.7125C20.5209 14.9042 20.2834 15 20 15C19.7167 15 19.4792 14.9042 19.2875 14.7125C19.0959 14.5208 19 14.2833 19 14V10.425Z" fill="currentColor"/>
</svg>
