<svg width="24" height="24" viewBox="0 0 24 24" fill="none" xmlns="http://www.w3.org/2000/svg">
<path d="M4 11C3.45 11 2.97917 10.8042 2.5875 10.4125C2.19583 10.0208 2 9.55 2 9V6C2 5.45 2.19583 4.97917 2.5875 4.5875C2.97917 4.19583 3.45 4 4 4H12C12.2833 4 12.5208 4.09583 12.7125 4.2875C12.9042 4.47917 13 4.71667 13 5V10C13 10.2833 12.9042 10.5208 12.7125 10.7125C12.5208 10.9042 12.2833 11 12 11H4ZM4 9H11V6H4V9ZM4 20C3.45 20 2.97917 19.8042 2.5875 19.4125C2.19583 19.0208 2 18.55 2 18V15C2 14.45 2.19583 13.9792 2.5875 13.5875C2.97917 13.1958 3.45 13 4 13H14C14.2833 13 14.5208 13.0958 14.7125 13.2875C14.9042 13.4792 15 13.7167 15 14V19C15 19.2833 14.9042 19.5208 14.7125 19.7125C14.5208 19.9042 14.2833 20 14 20H4ZM4 18H13V15H4V18ZM17 11H16C15.7167 11 15.4792 10.9042 15.2875 10.7125C15.0958 10.5208 15 10.2833 15 10V5C15 4.71667 15.0958 4.47917 15.2875 4.2875C15.4792 4.09583 15.7167 4 16 4H20.525C20.875 4 21.15 4.14583 21.35 4.4375C21.55 4.72917 21.5833 5.04167 21.45 5.375L20 9H20.45C20.8167 9 21.0917 9.15417 21.275 9.4625C21.4583 9.77083 21.4833 10.0917 21.35 10.425L17.95 19.65C17.9 19.7833 17.825 19.875 17.725 19.925C17.625 19.975 17.5167 19.9833 17.4 19.95C17.2833 19.9167 17.1875 19.8583 17.1125 19.775C17.0375 19.6917 17 19.5833 17 19.45V11ZM6.25 7.5C6.25 7.28333 6.17917 7.10417 6.0375 6.9625C5.89583 6.82083 5.71667 6.75 5.5 6.75C5.28333 6.75 5.10417 6.82083 4.9625 6.9625C4.82083 7.10417 4.75 7.28333 4.75 7.5C4.75 7.71667 4.82083 7.89583 4.9625 8.0375C5.10417 8.17917 5.28333 8.25 5.5 8.25C5.71667 8.25 5.89583 8.17917 6.0375 8.0375C6.17917 7.89583 6.25 7.71667 6.25 7.5ZM5.5 17.25C5.71667 17.25 5.89583 17.1792 6.0375 17.0375C6.17917 16.8958 6.25 16.7167 6.25 16.5C6.25 16.2833 6.17917 16.1042 6.0375 15.9625C5.89583 15.8208 5.71667 15.75 5.5 15.75C5.28333 15.75 5.10417 15.8208 4.9625 15.9625C4.82083 16.1042 4.75 16.2833 4.75 16.5C4.75 16.7167 4.82083 16.8958 4.9625 17.0375C5.10417 17.1792 5.28333 17.25 5.5 17.25Z" fill="currentColor"/>
</svg>
