<svg width="24" height="24" viewBox="0 0 24 24" fill="none" xmlns="http://www.w3.org/2000/svg">
<path d="M19.25 16.525C18.9833 16.4417 18.7917 16.2792 18.675 16.0375C18.5583 15.7958 18.5417 15.55 18.625 15.3C18.7583 14.9167 18.8542 14.5458 18.9125 14.1875C18.9708 13.8292 19 13.4667 19 13.1C19 11.1333 18.3208 9.45833 16.9625 8.075C15.6042 6.69167 13.95 6 12 6C11.5667 6 11.1708 6.025 10.8125 6.075C10.4542 6.125 10.1167 6.20833 9.8 6.325C9.56667 6.40833 9.3375 6.3875 9.1125 6.2625C8.8875 6.1375 8.73333 5.94167 8.65 5.675C8.56667 5.40833 8.59167 5.15 8.725 4.9C8.85833 4.65 9.06667 4.48333 9.35 4.4C9.76667 4.26667 10.1958 4.16667 10.6375 4.1C11.0792 4.03333 11.5333 4 12 4C13.2667 4 14.4458 4.2375 15.5375 4.7125C16.6292 5.1875 17.5792 5.8375 18.3875 6.6625C19.1958 7.4875 19.8333 8.45417 20.3 9.5625C20.7667 10.6708 21 11.85 21 13.1C21 13.5333 20.9625 13.975 20.8875 14.425C20.8125 14.875 20.7 15.3333 20.55 15.8C20.4667 16.0833 20.2958 16.2958 20.0375 16.4375C19.7792 16.5792 19.5167 16.6083 19.25 16.525ZM17.7 4.45C17.5167 4.26667 17.425 4.03333 17.425 3.75C17.425 3.46667 17.5167 3.23333 17.7 3.05C17.8833 2.86667 18.1167 2.775 18.4 2.775C18.6833 2.775 18.9167 2.86667 19.1 3.05L21.95 5.9C22.1333 6.08333 22.225 6.31667 22.225 6.6C22.225 6.88333 22.1333 7.11667 21.95 7.3C21.7667 7.48333 21.5333 7.575 21.25 7.575C20.9667 7.575 20.7333 7.48333 20.55 7.3L17.7 4.45ZM12 22C10.7667 22 9.60417 21.7667 8.5125 21.3C7.42083 20.8333 6.46667 20.2 5.65 19.4C4.83333 18.6 4.1875 17.6583 3.7125 16.575C3.2375 15.4917 3 14.3333 3 13.1C3 12.0667 3.15417 11.0958 3.4625 10.1875C3.77083 9.27917 4.21667 8.45 4.8 7.7L3.95 6.85L3.45 7.35C3.26667 7.53333 3.03333 7.625 2.75 7.625C2.46667 7.625 2.23333 7.53333 2.05 7.35C1.86667 7.16667 1.775 6.93333 1.775 6.65C1.775 6.36667 1.86667 6.13333 2.05 5.95L2.55 5.45L1.4 4.3C1.21667 4.11667 1.125 3.88333 1.125 3.6C1.125 3.31667 1.21667 3.08333 1.4 2.9C1.58333 2.71667 1.81667 2.625 2.1 2.625C2.38333 2.625 2.61667 2.71667 2.8 2.9L21.2 21.3C21.3833 21.4833 21.475 21.7167 21.475 22C21.475 22.2833 21.3833 22.5167 21.2 22.7C21.0167 22.8833 20.7833 22.975 20.5 22.975C20.2167 22.975 19.9833 22.8833 19.8 22.7L17.35 20.25C16.6 20.8 15.7708 21.2292 14.8625 21.5375C13.9542 21.8458 13 22 12 22ZM12 20.025C12.7 20.025 13.3833 19.9167 14.05 19.7C14.7167 19.4833 15.3333 19.1833 15.9 18.8L6.2 9.15C5.81667 9.73333 5.52083 10.3625 5.3125 11.0375C5.10417 11.7125 5 12.4 5 13.1C5 15.0333 5.68333 16.6708 7.05 18.0125C8.41667 19.3542 10.0667 20.025 12 20.025Z" fill="currentColor"/>
</svg>
