<svg width="24" height="24" viewBox="0 0 24 24" fill="none" xmlns="http://www.w3.org/2000/svg">
<path d="M8.5 16H16C16.8333 16 17.5417 15.7083 18.125 15.125C18.7083 14.5417 19 13.8333 19 13C19 12.1667 18.7083 11.4583 18.125 10.875C17.5417 10.2917 16.8333 10 16 10C15.8667 9.03333 15.425 8.20833 14.675 7.525C13.925 6.84167 13.0833 6.5 12.15 6.5C11.3 6.5 10.5292 6.71667 9.8375 7.15C9.14583 7.58333 8.63333 8.2 8.3 9C7.35 9.08333 6.5625 9.44583 5.9375 10.0875C5.3125 10.7292 5 11.5333 5 12.5C5 13.4667 5.34167 14.2917 6.025 14.975C6.70833 15.6583 7.53333 16 8.5 16ZM8.5 14C8.08333 14 7.72917 13.8542 7.4375 13.5625C7.14583 13.2708 7 12.9167 7 12.5C7 12.0833 7.14583 11.7292 7.4375 11.4375C7.72917 11.1458 8.08333 11 8.5 11H10V10.5C10 9.95 10.1958 9.47917 10.5875 9.0875C10.9792 8.69583 11.45 8.5 12 8.5C12.55 8.5 13.0208 8.69583 13.4125 9.0875C13.8042 9.47917 14 9.95 14 10.5V12H16C16.2833 12 16.5208 12.0958 16.7125 12.2875C16.9042 12.4792 17 12.7167 17 13C17 13.2833 16.9042 13.5208 16.7125 13.7125C16.5208 13.9042 16.2833 14 16 14H8.5ZM12 22C10.6167 22 9.31667 21.7375 8.1 21.2125C6.88333 20.6875 5.825 19.975 4.925 19.075C4.025 18.175 3.3125 17.1167 2.7875 15.9C2.2625 14.6833 2 13.3833 2 12C2 10.6167 2.2625 9.31667 2.7875 8.1C3.3125 6.88333 4.025 5.825 4.925 4.925C5.825 4.025 6.88333 3.3125 8.1 2.7875C9.31667 2.2625 10.6167 2 12 2C13.3833 2 14.6833 2.2625 15.9 2.7875C17.1167 3.3125 18.175 4.025 19.075 4.925C19.975 5.825 20.6875 6.88333 21.2125 8.1C21.7375 9.31667 22 10.6167 22 12C22 13.3833 21.7375 14.6833 21.2125 15.9C20.6875 17.1167 19.975 18.175 19.075 19.075C18.175 19.975 17.1167 20.6875 15.9 21.2125C14.6833 21.7375 13.3833 22 12 22ZM12 20C14.2333 20 16.125 19.225 17.675 17.675C19.225 16.125 20 14.2333 20 12C20 9.76667 19.225 7.875 17.675 6.325C16.125 4.775 14.2333 4 12 4C9.76667 4 7.875 4.775 6.325 6.325C4.775 7.875 4 9.76667 4 12C4 14.2333 4.775 16.125 6.325 17.675C7.875 19.225 9.76667 20 12 20Z" fill="currentColor"/>
</svg>
