<svg width="24" height="24" viewBox="0 0 24 24" fill="none" xmlns="http://www.w3.org/2000/svg">
<path d="M10 15.4L4.1 21.3C3.91667 21.4834 3.68334 21.575 3.4 21.575C3.11667 21.575 2.88334 21.4834 2.7 21.3C2.51667 21.1167 2.425 20.8834 2.425 20.6C2.425 20.3167 2.51667 20.0834 2.7 19.9L8.6 14H5C4.71667 14 4.47917 13.9042 4.2875 13.7125C4.09584 13.5209 4 13.2834 4 13C4 12.7167 4.09584 12.4792 4.2875 12.2875C4.47917 12.0959 4.71667 12 5 12H11C11.2833 12 11.5208 12.0959 11.7125 12.2875C11.9042 12.4792 12 12.7167 12 13V19C12 19.2834 11.9042 19.5209 11.7125 19.7125C11.5208 19.9042 11.2833 20 11 20C10.7167 20 10.4792 19.9042 10.2875 19.7125C10.0958 19.5209 10 19.2834 10 19V15.4ZM15.4 10H19C19.2833 10 19.5208 10.0959 19.7125 10.2875C19.9042 10.4792 20 10.7167 20 11C20 11.2834 19.9042 11.5209 19.7125 11.7125C19.5208 11.9042 19.2833 12 19 12H13C12.7167 12 12.4792 11.9042 12.2875 11.7125C12.0958 11.5209 12 11.2834 12 11V5.00005C12 4.71672 12.0958 4.47922 12.2875 4.28755C12.4792 4.09588 12.7167 4.00005 13 4.00005C13.2833 4.00005 13.5208 4.09588 13.7125 4.28755C13.9042 4.47922 14 4.71672 14 5.00005V8.60005L19.9 2.70005C20.0833 2.51672 20.3167 2.42505 20.6 2.42505C20.8833 2.42505 21.1167 2.51672 21.3 2.70005C21.4833 2.88338 21.575 3.11672 21.575 3.40005C21.575 3.68338 21.4833 3.91672 21.3 4.10005L15.4 10Z" fill="currentColor"/>
</svg>
