<svg width="24" height="24" viewBox="0 0 24 24" fill="none" xmlns="http://www.w3.org/2000/svg">
<path d="M12 21.0001C9.78335 21.0001 7.89585 20.2293 6.33751 18.6876C4.77918 17.1459 4.00001 15.2834 4.00001 13.1001C4.00001 12.2501 4.13335 11.4334 4.40001 10.6501C4.66668 9.86676 5.06668 9.11676 5.60001 8.4001L2.10001 4.9001C1.91668 4.71676 1.82501 4.48343 1.82501 4.2001C1.82501 3.91676 1.91668 3.68343 2.10001 3.5001C2.28335 3.31676 2.51668 3.2251 2.80001 3.2251C3.08335 3.2251 3.31668 3.31676 3.50001 3.5001L20.5 20.5001C20.6833 20.6834 20.775 20.9168 20.775 21.2001C20.775 21.4834 20.6833 21.7168 20.5 21.9001C20.3167 22.0834 20.0833 22.1751 19.8 22.1751C19.5167 22.1751 19.2833 22.0834 19.1 21.9001L16.7 19.5001C16.0167 19.9834 15.2833 20.3543 14.5 20.6126C13.7167 20.8709 12.8833 21.0001 12 21.0001ZM12 19.0001C12.6 19.0001 13.1708 18.9168 13.7125 18.7501C14.2542 18.5834 14.7667 18.3501 15.25 18.0501L7.00001 9.8501C6.65001 10.3834 6.39585 10.9168 6.23751 11.4501C6.07918 11.9834 6.00001 12.5334 6.00001 13.1001C6.00001 14.7334 6.58335 16.1251 7.75001 17.2751C8.91668 18.4251 10.3333 19.0001 12 19.0001ZM17.65 7.5501C18.65 8.5501 19.3292 9.6876 19.6875 10.9626C20.0458 12.2376 20.075 13.5251 19.775 14.8251C19.725 15.0584 19.6083 15.2418 19.425 15.3751C19.2417 15.5084 19.0333 15.5751 18.8 15.5751C18.4333 15.5751 18.1708 15.4251 18.0125 15.1251C17.8542 14.8251 17.8167 14.5084 17.9 14.1751C18.15 13.2584 18.1083 12.3376 17.775 11.4126C17.4417 10.4876 16.9333 9.68343 16.25 9.0001L12 4.8001L10.5 6.2751C10.3167 6.45843 10.0833 6.54593 9.80001 6.5376C9.51668 6.52926 9.28335 6.43343 9.10001 6.2501C8.90001 6.0501 8.80001 5.8126 8.80001 5.5376C8.80001 5.2626 8.90001 5.03343 9.10001 4.8501L10.95 3.0251C11.1 2.8751 11.2667 2.76676 11.45 2.7001C11.6333 2.63343 11.8167 2.6001 12 2.6001C12.1833 2.6001 12.3667 2.6376 12.55 2.7126C12.7333 2.7876 12.9 2.89176 13.05 3.0251L17.65 7.5501Z" fill="currentColor"/>
</svg>
