<svg width="24" height="24" viewBox="0 0 24 24" fill="none" xmlns="http://www.w3.org/2000/svg">
<g clip-path="url(#clip0_1_652)">
<path d="M10.359 10.7358H11.359C11.6423 10.7358 11.8798 10.64 12.0715 10.4483C12.2632 10.2567 12.359 10.0192 12.359 9.73584V8.73584C12.359 8.45251 12.2632 8.21501 12.0715 8.02334C11.8798 7.83167 11.6423 7.73584 11.359 7.73584H9.85901C9.72568 7.73584 9.60901 7.78584 9.50901 7.88584C9.40901 7.98584 9.35901 8.10251 9.35901 8.23584V12.2358C9.35901 12.3692 9.40901 12.4858 9.50901 12.5858C9.60901 12.6858 9.72568 12.7358 9.85901 12.7358C9.99234 12.7358 10.109 12.6858 10.209 12.5858C10.309 12.4858 10.359 12.3692 10.359 12.2358V10.7358ZM10.359 9.73584V8.73584H11.359V9.73584H10.359ZM15.359 12.7358C15.6423 12.7358 15.8798 12.64 16.0715 12.4483C16.2632 12.2567 16.359 12.0192 16.359 11.7358V8.73584C16.359 8.45251 16.2632 8.21501 16.0715 8.02334C15.8798 7.83167 15.6423 7.73584 15.359 7.73584H13.859C13.7257 7.73584 13.609 7.78584 13.509 7.88584C13.409 7.98584 13.359 8.10251 13.359 8.23584V12.2358C13.359 12.3692 13.409 12.4858 13.509 12.5858C13.609 12.6858 13.7257 12.7358 13.859 12.7358H15.359ZM14.359 11.7358V8.73584H15.359V11.7358H14.359ZM18.359 10.7358H18.859C18.9923 10.7358 19.109 10.6858 19.209 10.5858C19.309 10.4858 19.359 10.3692 19.359 10.2358C19.359 10.1025 19.309 9.98584 19.209 9.88584C19.109 9.78584 18.9923 9.73584 18.859 9.73584H18.359V8.73584H18.859C18.9923 8.73584 19.109 8.68584 19.209 8.58584C19.309 8.48584 19.359 8.36917 19.359 8.23584C19.359 8.10251 19.309 7.98584 19.209 7.88584C19.109 7.78584 18.9923 7.73584 18.859 7.73584H17.859C17.7257 7.73584 17.609 7.78584 17.509 7.88584C17.409 7.98584 17.359 8.10251 17.359 8.23584V12.2358C17.359 12.3692 17.409 12.4858 17.509 12.5858C17.609 12.6858 17.7257 12.7358 17.859 12.7358C17.9923 12.7358 18.109 12.6858 18.209 12.5858C18.309 12.4858 18.359 12.3692 18.359 12.2358V10.7358ZM8.35901 18.2358C7.80901 18.2358 7.33818 18.04 6.94651 17.6483C6.55484 17.2567 6.35901 16.7858 6.35901 16.2358V4.23584C6.35901 3.68584 6.55484 3.21501 6.94651 2.82334C7.33818 2.43167 7.80901 2.23584 8.35901 2.23584H20.359C20.909 2.23584 21.3798 2.43167 21.7715 2.82334C22.1632 3.21501 22.359 3.68584 22.359 4.23584V16.2358C22.359 16.7858 22.1632 17.2567 21.7715 17.6483C21.3798 18.04 20.909 18.2358 20.359 18.2358H8.35901ZM8.35901 16.2358H20.359V4.23584H8.35901V16.2358ZM4.35901 22.2358C3.80901 22.2358 3.33818 22.04 2.94651 21.6483C2.55484 21.2567 2.35901 20.7858 2.35901 20.2358V7.23584C2.35901 6.95251 2.45484 6.71501 2.64651 6.52334C2.83818 6.33167 3.07568 6.23584 3.35901 6.23584C3.64234 6.23584 3.87984 6.33167 4.07151 6.52334C4.26318 6.71501 4.35901 6.95251 4.35901 7.23584V20.2358H17.359C17.6423 20.2358 17.8798 20.3317 18.0715 20.5233C18.2632 20.715 18.359 20.9525 18.359 21.2358C18.359 21.5192 18.2632 21.7567 18.0715 21.9483C17.8798 22.14 17.6423 22.2358 17.359 22.2358H4.35901Z" fill="currentColor"/>
</g>
<defs>
<clipPath id="clip0_1_652">
<rect width="24" height="24" fill="white"/>
</clipPath>
</defs>
</svg>
