<svg width="24" height="24" viewBox="0 0 24 24" fill="none" xmlns="http://www.w3.org/2000/svg">
<path d="M1 14.25V9.75C1 9.53333 1.07083 9.35417 1.2125 9.2125C1.35417 9.07083 1.53333 9 1.75 9C1.96667 9 2.14583 9.07083 2.2875 9.2125C2.42917 9.35417 2.5 9.53333 2.5 9.75V11H4.5V9.75C4.5 9.53333 4.57083 9.35417 4.7125 9.2125C4.85417 9.07083 5.03333 9 5.25 9C5.46667 9 5.64583 9.07083 5.7875 9.2125C5.92917 9.35417 6 9.53333 6 9.75V14.25C6 14.4667 5.92917 14.6458 5.7875 14.7875C5.64583 14.9292 5.46667 15 5.25 15C5.03333 15 4.85417 14.9292 4.7125 14.7875C4.57083 14.6458 4.5 14.4667 4.5 14.25V12.5H2.5V14.25C2.5 14.4667 2.42917 14.6458 2.2875 14.7875C2.14583 14.9292 1.96667 15 1.75 15C1.53333 15 1.35417 14.9292 1.2125 14.7875C1.07083 14.6458 1 14.4667 1 14.25ZM8.5 14.25V10.5H7.75C7.53333 10.5 7.35417 10.4292 7.2125 10.2875C7.07083 10.1458 7 9.96667 7 9.75C7 9.53333 7.07083 9.35417 7.2125 9.2125C7.35417 9.07083 7.53333 9 7.75 9H10.75C10.9667 9 11.1458 9.07083 11.2875 9.2125C11.4292 9.35417 11.5 9.53333 11.5 9.75C11.5 9.96667 11.4292 10.1458 11.2875 10.2875C11.1458 10.4292 10.9667 10.5 10.75 10.5H10V14.25C10 14.4667 9.92917 14.6458 9.7875 14.7875C9.64583 14.9292 9.46667 15 9.25 15C9.03333 15 8.85417 14.9292 8.7125 14.7875C8.57083 14.6458 8.5 14.4667 8.5 14.25ZM14 14.25V10.5H13.25C13.0333 10.5 12.8542 10.4292 12.7125 10.2875C12.5708 10.1458 12.5 9.96667 12.5 9.75C12.5 9.53333 12.5708 9.35417 12.7125 9.2125C12.8542 9.07083 13.0333 9 13.25 9H16.25C16.4667 9 16.6458 9.07083 16.7875 9.2125C16.9292 9.35417 17 9.53333 17 9.75C17 9.96667 16.9292 10.1458 16.7875 10.2875C16.6458 10.4292 16.4667 10.5 16.25 10.5H15.5V14.25C15.5 14.4667 15.4292 14.6458 15.2875 14.7875C15.1458 14.9292 14.9667 15 14.75 15C14.5333 15 14.3542 14.9292 14.2125 14.7875C14.0708 14.6458 14 14.4667 14 14.25ZM18 14.25V9.75C18 9.53333 18.0708 9.35417 18.2125 9.2125C18.3542 9.07083 18.5333 9 18.75 9H21.5C21.9 9 22.25 9.15 22.55 9.45C22.85 9.75 23 10.1 23 10.5V11.5C23 11.9 22.85 12.25 22.55 12.55C22.25 12.85 21.9 13 21.5 13H19.5V14.25C19.5 14.4667 19.4292 14.6458 19.2875 14.7875C19.1458 14.9292 18.9667 15 18.75 15C18.5333 15 18.3542 14.9292 18.2125 14.7875C18.0708 14.6458 18 14.4667 18 14.25ZM19.5 11.5H21.5V10.5H19.5V11.5Z" fill="currentColor"/>
</svg>
