<svg width="24" height="24" viewBox="0 0 24 24" fill="none" xmlns="http://www.w3.org/2000/svg">
<path d="M17 6.80011L16.65 7.15011C16.4667 7.33344 16.2333 7.42511 15.95 7.42511C15.6667 7.42511 15.4333 7.33344 15.25 7.15011C15.0667 6.96678 14.975 6.73344 14.975 6.45011C14.975 6.16678 15.0667 5.93344 15.25 5.75011L17.3 3.70011C17.5 3.50011 17.7333 3.40428 18 3.41261C18.2667 3.42094 18.5 3.51678 18.7 3.70011L20.775 5.72511C20.975 5.92511 21.0708 6.16261 21.0625 6.43761C21.0542 6.71261 20.95 6.95011 20.75 7.15011C20.55 7.33344 20.3167 7.42928 20.05 7.43761C19.7833 7.44594 19.55 7.35011 19.35 7.15011L19 6.80011V19.0001C19 19.2834 18.9042 19.5209 18.7125 19.7126C18.5208 19.9043 18.2833 20.0001 18 20.0001C17.7167 20.0001 17.4792 19.9043 17.2875 19.7126C17.0958 19.5209 17 19.2834 17 19.0001V6.80011ZM11.2 14.2001L13.425 15.0001C13.6083 15.0668 13.75 15.1751 13.85 15.3251C13.95 15.4751 14 15.6418 14 15.8251C14 16.1418 13.8708 16.3876 13.6125 16.5626C13.3542 16.7376 13.0833 16.7668 12.8 16.6501L3.6 13.2251C3.41667 13.1584 3.27083 13.0459 3.1625 12.8876C3.05417 12.7293 3 12.5501 3 12.3501V11.6501C3 11.4501 3.05417 11.2709 3.1625 11.1126C3.27083 10.9543 3.41667 10.8418 3.6 10.7751L12.825 7.35011C13.1083 7.25011 13.375 7.28344 13.625 7.45011C13.875 7.61678 14 7.85011 14 8.15011C14 8.33344 13.9458 8.50428 13.8375 8.66261C13.7292 8.82094 13.5833 8.93344 13.4 9.00011L11.2 9.75011V14.2001ZM9.6 13.6501V10.3501L5.05 11.9501V12.0501L9.6 13.6501Z" fill="currentColor"/>
</svg>
