<svg width="24" height="24" viewBox="0 0 24 24" fill="none" xmlns="http://www.w3.org/2000/svg">
<path d="M22 9V15C22 16.1 21.1 17 20 17C19.4477 17 19 16.5523 19 16C19 15.4477 19.4477 15 20 15V9H4V15H9C9.55228 15 10 15.4477 10 16C10 16.5523 9.55228 17 9 17H4C2.9 17 2 16.1 2 15V9C2 7.9 2.9 7 4 7H20C21.1 7 22 7.9 22 9ZM14.5 19C15.2012 17.4497 16.4497 16.2012 18 15.5C16.4497 14.7988 15.2012 13.5503 14.5 12C13.7988 13.5503 12.5503 14.7988 11 15.5C12.5503 16.2012 13.7988 17.4497 14.5 19ZM17 14L17.1528 13.6599C17.4538 12.99 17.99 12.4538 18.6599 12.1528L19 12L18.6599 11.8472C17.99 11.5462 17.4538 11.01 17.1528 10.3401L17 10L16.8472 10.3401C16.5462 11.01 16.01 11.5462 15.3401 11.8472L15 12L15.3401 12.1528C16.01 12.4538 16.5462 12.99 16.8472 13.6599L17 14ZM14.5 19C15.2012 17.4497 16.4497 16.2012 18 15.5C16.4497 14.7988 15.2012 13.5503 14.5 12C13.7988 13.5503 12.5503 14.7988 11 15.5C12.5503 16.2012 13.7988 17.4497 14.5 19ZM17 14L17.1528 13.6599C17.4538 12.99 17.99 12.4538 18.6599 12.1528L19 12L18.6599 11.8472C17.99 11.5462 17.4538 11.01 17.1528 10.3401L17 10L16.8472 10.3401C16.5462 11.01 16.01 11.5462 15.3401 11.8472L15 12L15.3401 12.1528C16.01 12.4538 16.5462 12.99 16.8472 13.6599L17 14Z" fill="currentColor"/>
</svg>
