<svg width="24" height="24" viewBox="0 0 24 24" fill="none" xmlns="http://www.w3.org/2000/svg">
<path d="M9 12C9.28333 12 9.52083 11.9042 9.7125 11.7125C9.90417 11.5208 10 11.2833 10 11V8C10 7.71667 9.90417 7.47917 9.7125 7.2875C9.52083 7.09583 9.28333 7 9 7C8.71667 7 8.47917 7.09583 8.2875 7.2875C8.09583 7.47917 8 7.71667 8 8V11C8 11.2833 8.09583 11.5208 8.2875 11.7125C8.47917 11.9042 8.71667 12 9 12ZM11 18H13C13.2833 18 13.5208 17.9042 13.7125 17.7125C13.9042 17.5208 14 17.2833 14 17V16C14 15.45 13.8042 14.9792 13.4125 14.5875C13.0208 14.1958 12.55 14 12 14C11.45 14 10.9792 14.1958 10.5875 14.5875C10.1958 14.9792 10 15.45 10 16V17C10 17.2833 10.0958 17.5208 10.2875 17.7125C10.4792 17.9042 10.7167 18 11 18ZM15 12C15.2833 12 15.5208 11.9042 15.7125 11.7125C15.9042 11.5208 16 11.2833 16 11V8C16 7.71667 15.9042 7.47917 15.7125 7.2875C15.5208 7.09583 15.2833 7 15 7C14.7167 7 14.4792 7.09583 14.2875 7.2875C14.0958 7.47917 14 7.71667 14 8V11C14 11.2833 14.0958 11.5208 14.2875 11.7125C14.4792 11.9042 14.7167 12 15 12ZM12 22C10.6167 22 9.31667 21.7375 8.1 21.2125C6.88333 20.6875 5.825 19.975 4.925 19.075C4.025 18.175 3.3125 17.1167 2.7875 15.9C2.2625 14.6833 2 13.3833 2 12C2 10.6167 2.2625 9.31667 2.7875 8.1C3.3125 6.88333 4.025 5.825 4.925 4.925C5.825 4.025 6.88333 3.3125 8.1 2.7875C9.31667 2.2625 10.6167 2 12 2C13.3833 2 14.6833 2.2625 15.9 2.7875C17.1167 3.3125 18.175 4.025 19.075 4.925C19.975 5.825 20.6875 6.88333 21.2125 8.1C21.7375 9.31667 22 10.6167 22 12C22 13.3833 21.7375 14.6833 21.2125 15.9C20.6875 17.1167 19.975 18.175 19.075 19.075C18.175 19.975 17.1167 20.6875 15.9 21.2125C14.6833 21.7375 13.3833 22 12 22ZM12 20C14.2333 20 16.125 19.225 17.675 17.675C19.225 16.125 20 14.2333 20 12C20 9.76667 19.225 7.875 17.675 6.325C16.125 4.775 14.2333 4 12 4C9.76667 4 7.875 4.775 6.325 6.325C4.775 7.875 4 9.76667 4 12C4 14.2333 4.775 16.125 6.325 17.675C7.875 19.225 9.76667 20 12 20Z" fill="currentColor"/>
</svg>
