<svg width="24" height="24" viewBox="0 0 24 24" fill="none" xmlns="http://www.w3.org/2000/svg">
<path d="M17.1 17.55C16.9167 17.7167 16.7208 17.725 16.5125 17.575C16.3042 17.425 16.2417 17.2333 16.325 17C16.4083 16.7 16.4667 16.3958 16.5 16.0875C16.5333 15.7792 16.55 15.4583 16.55 15.125C16.55 13.7917 16.2583 12.5708 15.675 11.4625C15.0917 10.3542 14.3 9.43333 13.3 8.7L11.85 10.15C11.6833 10.3167 11.5 10.3583 11.3 10.275C11.1 10.1917 11 10.0333 11 9.8V4C11 3.71667 11.0958 3.47917 11.2875 3.2875C11.4792 3.09583 11.7167 3 12 3H17.8C18.0333 3 18.1917 3.1 18.275 3.3C18.3583 3.5 18.3167 3.68333 18.15 3.85L16.7 5.3C17.5667 6.08333 18.2583 7.01667 18.775 8.1C19.2917 9.18333 19.55 10.3583 19.55 11.625C19.55 12.375 19.4542 13.0958 19.2625 13.7875C19.0708 14.4792 18.8083 15.1333 18.475 15.75C18.2917 16.0667 18.0875 16.3875 17.8625 16.7125C17.6375 17.0375 17.3833 17.3167 17.1 17.55ZM5.85001 20.15L7.30001 18.7C6.41668 17.9167 5.72085 16.9833 5.21251 15.9C4.70418 14.8167 4.45001 13.6417 4.45001 12.375C4.45001 11.625 4.54585 10.9042 4.73751 10.2125C4.92918 9.52083 5.19168 8.86667 5.52501 8.25C5.70835 7.93333 5.91668 7.6125 6.15001 7.2875C6.38335 6.9625 6.64168 6.68333 6.92501 6.45C7.10835 6.28333 7.30418 6.27083 7.51251 6.4125C7.72085 6.55417 7.78335 6.74167 7.70001 6.975C7.61668 7.275 7.55418 7.58333 7.51251 7.9C7.47085 8.21667 7.45001 8.54167 7.45001 8.875C7.45001 10.2083 7.74585 11.4292 8.33751 12.5375C8.92918 13.6458 9.71668 14.5667 10.7 15.3L12.15 13.85C12.3167 13.6833 12.5 13.6417 12.7 13.725C12.9 13.8083 13 13.9667 13 14.2V20C13 20.2833 12.9042 20.5208 12.7125 20.7125C12.5208 20.9042 12.2833 21 12 21H6.20001C5.96668 21 5.80835 20.9 5.72501 20.7C5.64168 20.5 5.68335 20.3167 5.85001 20.15Z" fill="currentColor"/>
</svg>
