<svg width="24" height="24" viewBox="0 0 24 24" fill="none" xmlns="http://www.w3.org/2000/svg">
<path d="M12 14L10 12L12 9.99995L14 12L12 14ZM9.87501 8.12495L7.37501 5.62495L10.575 2.42495C10.775 2.22495 11 2.07495 11.25 1.97495C11.5 1.87495 11.75 1.82495 12 1.82495C12.25 1.82495 12.5 1.87495 12.75 1.97495C13 2.07495 13.225 2.22495 13.425 2.42495L16.625 5.62495L14.125 8.12495L12 5.99995L9.87501 8.12495ZM5.62501 16.625L2.42501 13.425C2.22501 13.225 2.07501 13 1.97501 12.75C1.87501 12.5 1.82501 12.25 1.82501 12C1.82501 11.75 1.87501 11.5 1.97501 11.25C2.07501 11 2.22501 10.775 2.42501 10.575L5.62501 7.37495L8.12501 9.87495L6.00001 12L8.12501 14.125L5.62501 16.625ZM18.375 16.625L15.875 14.125L18 12L15.875 9.87495L18.375 7.37495L21.575 10.575C21.775 10.775 21.925 11 22.025 11.25C22.125 11.5 22.175 11.75 22.175 12C22.175 12.25 22.125 12.5 22.025 12.75C21.925 13 21.775 13.225 21.575 13.425L18.375 16.625ZM10.575 21.575L7.37501 18.375L9.87501 15.875L12 18L14.125 15.875L16.625 18.375L13.425 21.575C13.225 21.775 13 21.925 12.75 22.025C12.5 22.125 12.25 22.175 12 22.175C11.75 22.175 11.5 22.125 11.25 22.025C11 21.925 10.775 21.775 10.575 21.575Z" fill="currentColor"/>
</svg>
