<svg width="24" height="24" viewBox="0 0 24 24" fill="none" xmlns="http://www.w3.org/2000/svg">
<path d="M12 11C11.7167 11 11.4792 10.9042 11.2875 10.7125C11.0958 10.5208 11 10.2833 11 10C11 9.71667 11.0958 9.47917 11.2875 9.2875C11.4792 9.09583 11.7167 9 12 9C12.2833 9 12.5208 9.09583 12.7125 9.2875C12.9042 9.47917 13 9.71667 13 10C13 10.2833 12.9042 10.5208 12.7125 10.7125C12.5208 10.9042 12.2833 11 12 11ZM16 11C15.7167 11 15.4792 10.9042 15.2875 10.7125C15.0958 10.5208 15 10.2833 15 10C15 9.71667 15.0958 9.47917 15.2875 9.2875C15.4792 9.09583 15.7167 9 16 9C16.2833 9 16.5208 9.09583 16.7125 9.2875C16.9042 9.47917 17 9.71667 17 10C17 10.2833 16.9042 10.5208 16.7125 10.7125C16.5208 10.9042 16.2833 11 16 11ZM20 11C19.7167 11 19.4792 10.9042 19.2875 10.7125C19.0958 10.5208 19 10.2833 19 10C19 9.71667 19.0958 9.47917 19.2875 9.2875C19.4792 9.09583 19.7167 9 20 9C20.2833 9 20.5208 9.09583 20.7125 9.2875C20.9042 9.47917 21 9.71667 21 10C21 10.2833 20.9042 10.5208 20.7125 10.7125C20.5208 10.9042 20.2833 11 20 11ZM19.95 21C17.8667 21 15.8083 20.5458 13.775 19.6375C11.7417 18.7292 9.89167 17.4417 8.225 15.775C6.55833 14.1083 5.27083 12.2583 4.3625 10.225C3.45417 8.19167 3 6.13333 3 4.05C3 3.75 3.1 3.5 3.3 3.3C3.5 3.1 3.75 3 4.05 3H8.1C8.33333 3 8.54167 3.07917 8.725 3.2375C8.90833 3.39583 9.01667 3.58333 9.05 3.8L9.7 7.3C9.73333 7.56667 9.725 7.79167 9.675 7.975C9.625 8.15833 9.53333 8.31667 9.4 8.45L6.975 10.9C7.30833 11.5167 7.70417 12.1125 8.1625 12.6875C8.62083 13.2625 9.125 13.8167 9.675 14.35C10.1917 14.8667 10.7333 15.3458 11.3 15.7875C11.8667 16.2292 12.4667 16.6333 13.1 17L15.45 14.65C15.6 14.5 15.7958 14.3875 16.0375 14.3125C16.2792 14.2375 16.5167 14.2167 16.75 14.25L20.2 14.95C20.4333 15.0167 20.625 15.1375 20.775 15.3125C20.925 15.4875 21 15.6833 21 15.9V19.95C21 20.25 20.9 20.5 20.7 20.7C20.5 20.9 20.25 21 19.95 21ZM6.025 9L7.675 7.35L7.25 5H5.025C5.10833 5.68333 5.225 6.35833 5.375 7.025C5.525 7.69167 5.74167 8.35 6.025 9ZM14.975 17.95C15.625 18.2333 16.2875 18.4583 16.9625 18.625C17.6375 18.7917 18.3167 18.9 19 18.95V16.75L16.65 16.275L14.975 17.95Z" fill="currentColor"/>
</svg>
