<svg width="24" height="24" viewBox="0 0 24 24" fill="none" xmlns="http://www.w3.org/2000/svg">
<g clip-path="url(#clip0_1_319)">
<path d="M18.575 19C18.8583 19 19.0958 18.9042 19.2875 18.7125C19.4791 18.5209 19.575 18.2834 19.575 18V10C19.575 9.71672 19.4791 9.47922 19.2875 9.28755C19.0958 9.09588 18.8583 9.00005 18.575 9.00005C18.2916 9.00005 18.0541 9.09588 17.8625 9.28755C17.6708 9.47922 17.575 9.71672 17.575 10V15.6L6.67495 4.70005C6.49162 4.51672 6.25828 4.42505 5.97495 4.42505C5.69162 4.42505 5.45828 4.51672 5.27495 4.70005C5.09162 4.88338 4.99995 5.11672 4.99995 5.40005C4.99995 5.68338 5.09162 5.91672 5.27495 6.10005L16.175 17H10.575C10.2916 17 10.0541 17.0959 9.86245 17.2875C9.67078 17.4792 9.57495 17.7167 9.57495 18C9.57495 18.2834 9.67078 18.5209 9.86245 18.7125C10.0541 18.9042 10.2916 19 10.575 19H18.575Z" fill="currentColor"/>
</g>
<defs>
<clipPath id="clip0_1_319">
<rect width="24" height="24" fill="white"/>
</clipPath>
</defs>
</svg>
