<svg width="24" height="24" viewBox="0 0 24 24" fill="none" xmlns="http://www.w3.org/2000/svg">
<g clip-path="url(#clip0_1_687)">
<path d="M4.58147 14.8293C4.27187 14.8293 4.01911 14.7271 3.82317 14.5225C3.62726 14.318 3.5293 14.0707 3.5293 13.7807C3.5293 13.4907 3.62726 13.2464 3.82317 13.0478C4.01911 12.8493 4.27187 12.75 4.58147 12.75H19.4434C19.7368 12.75 19.9837 12.8507 20.1841 13.0522C20.3845 13.2537 20.4847 13.4994 20.4847 13.7894C20.4847 14.0795 20.3845 14.3253 20.1841 14.5269C19.9837 14.7285 19.7368 14.8293 19.4434 14.8293H4.58147ZM4.58147 11.25C4.27187 11.25 4.01911 11.1477 3.82317 10.9432C3.62726 10.7386 3.5293 10.4913 3.5293 10.2013C3.5293 9.9113 3.62726 9.66466 3.82317 9.46139C4.01911 9.25813 4.27187 9.15649 4.58147 9.15649H19.4434C19.7368 9.15649 19.9837 9.25959 20.1841 9.46577C20.3845 9.67197 20.4847 9.92008 20.4847 10.2101C20.4847 10.5001 20.3845 10.7459 20.1841 10.9476C19.9837 11.1492 19.7368 11.25 19.4434 11.25H4.58147Z" fill="currentColor"/>
</g>
<defs>
<clipPath id="clip0_1_687">
<rect width="24" height="24" fill="white"/>
</clipPath>
</defs>
</svg>
