<svg width="24" height="24" viewBox="0 0 24 24" fill="none" xmlns="http://www.w3.org/2000/svg">
<path d="M6 15C5.45 15 4.97917 14.8042 4.5875 14.4125C4.19583 14.0208 4 13.55 4 13V10C4 9.71667 4.09583 9.47917 4.2875 9.2875C4.47917 9.09583 4.71667 9 5 9C5.28333 9 5.52083 9.09583 5.7125 9.2875C5.90417 9.47917 6 9.71667 6 10V13H18V10C18 9.71667 18.0958 9.47917 18.2875 9.2875C18.4792 9.09583 18.7167 9 19 9C19.2833 9 19.5208 9.09583 19.7125 9.2875C19.9042 9.47917 20 9.71667 20 10V13C20 13.55 19.8042 14.0208 19.4125 14.4125C19.0208 14.8042 18.55 15 18 15H6Z" fill="currentColor"/>
</svg>
