<svg width="24" height="24" viewBox="0 0 24 24" fill="none" xmlns="http://www.w3.org/2000/svg">
<g clip-path="url(#clip0_1_545)">
<path d="M2.98846 21C2.80513 21 2.63846 20.9542 2.48846 20.8625C2.33846 20.7708 2.22179 20.65 2.13846 20.5C2.05513 20.35 2.00929 20.1875 2.00096 20.0125C1.99263 19.8375 2.03846 19.6667 2.13846 19.5L11.3885 3.5C11.4885 3.33333 11.6176 3.20833 11.776 3.125C11.9343 3.04167 12.0968 3 12.2635 3C12.4301 3 12.5926 3.04167 12.751 3.125C12.9093 3.20833 13.0385 3.33333 13.1385 3.5L22.3885 19.5C22.4885 19.6667 22.5343 19.8375 22.526 20.0125C22.5176 20.1875 22.4718 20.35 22.3885 20.5C22.3051 20.65 22.1885 20.7708 22.0385 20.8625C21.8885 20.9542 21.7218 21 21.5385 21H2.98846ZM12.2635 18C12.5468 18 12.7843 17.9042 12.976 17.7125C13.1676 17.5208 13.2635 17.2833 13.2635 17C13.2635 16.7167 13.1676 16.4792 12.976 16.2875C12.7843 16.0958 12.5468 16 12.2635 16C11.9801 16 11.7426 16.0958 11.551 16.2875C11.3593 16.4792 11.2635 16.7167 11.2635 17C11.2635 17.2833 11.3593 17.5208 11.551 17.7125C11.7426 17.9042 11.9801 18 12.2635 18ZM12.2635 15C12.5468 15 12.7843 14.9042 12.976 14.7125C13.1676 14.5208 13.2635 14.2833 13.2635 14V11C13.2635 10.7167 13.1676 10.4792 12.976 10.2875C12.7843 10.0958 12.5468 10 12.2635 10C11.9801 10 11.7426 10.0958 11.551 10.2875C11.3593 10.4792 11.2635 10.7167 11.2635 11V14C11.2635 14.2833 11.3593 14.5208 11.551 14.7125C11.7426 14.9042 11.9801 15 12.2635 15Z" fill="currentColor"/>
</g>
<defs>
<clipPath id="clip0_1_545">
<rect width="24" height="24" fill="white"/>
</clipPath>
</defs>
</svg>
