<svg width="24" height="24" viewBox="0 0 24 24" fill="none" xmlns="http://www.w3.org/2000/svg">
<g clip-path="url(#clip0_1_43)">
<path d="M20.88 3.12C20.47 2.71 19.97 2.5 19.37 2.5H4.63C4.03 2.5 3.53 2.7 3.12 3.12C2.7 3.54 2.5 4.03 2.5 4.64V19.37C2.5 19.97 2.7 20.47 3.12 20.88C3.53 21.3 4.03 21.5 4.63 21.5H19.36C19.96 21.5 20.46 21.3 20.87 20.88C21.29 20.46 21.49 19.97 21.49 19.37V4.63C21.49 4.03 21.29 3.53 20.87 3.11L20.88 3.12ZM18.29 8.61L13.29 15.11C13.11 15.34 12.85 15.48 12.56 15.5C12.26 15.51 11.99 15.41 11.79 15.21L9.55 12.97L6.75 16.17C6.55 16.4 6.28 16.51 6 16.51C5.77 16.51 5.53 16.43 5.34 16.26C4.92 15.9 4.88 15.26 5.25 14.85L8.75 10.85C8.93 10.64 9.19 10.52 9.47 10.51C9.74 10.48 10.01 10.61 10.21 10.8L12.4 12.99L16.71 7.39C17.05 6.95 17.67 6.87 18.11 7.21C18.55 7.55 18.63 8.17 18.29 8.61Z" fill="currentColor"/>
</g>
<defs>
<clipPath id="clip0_1_43">
<rect width="24" height="24" fill="white"/>
</clipPath>
</defs>
</svg>
