<svg width="24" height="24" viewBox="0 0 24 24" fill="none" xmlns="http://www.w3.org/2000/svg">
<path d="M11 18.5C11 18.1167 10.8708 17.7375 10.6125 17.3625C10.3542 16.9875 10.0667 16.5959 9.75 16.1875C9.43333 15.7792 9.14583 15.3542 8.8875 14.9125C8.62917 14.4709 8.5 14 8.5 13.5C8.5 12.5334 8.84167 11.7084 9.525 11.025C10.2083 10.3417 11.0333 10 12 10C12.9667 10 13.7917 10.3417 14.475 11.025C15.1583 11.7084 15.5 12.5334 15.5 13.5C15.5 14 15.3708 14.4709 15.1125 14.9125C14.8542 15.3542 14.5667 15.7792 14.25 16.1875C13.9333 16.5959 13.6458 16.9875 13.3875 17.3625C13.1292 17.7375 13 18.1167 13 18.5H11ZM12 21C11.7167 21 11.4792 20.9042 11.2875 20.7125C11.0958 20.5209 11 20.2834 11 20V19.5H13V20C13 20.2834 12.9042 20.5209 12.7125 20.7125C12.5208 20.9042 12.2833 21 12 21ZM18 18C17.85 17.85 17.7625 17.6584 17.7375 17.425C17.7125 17.1917 17.7667 16.9834 17.9 16.8C18.25 16.25 18.5208 15.6542 18.7125 15.0125C18.9042 14.3709 19 13.7 19 13C19 12.0834 18.8375 11.2209 18.5125 10.4125C18.1875 9.60422 17.7333 8.88338 17.15 8.25005C16.9667 8.03338 16.8708 7.79588 16.8625 7.53755C16.8542 7.27922 16.95 7.05005 17.15 6.85005C17.35 6.65005 17.5917 6.55005 17.875 6.55005C18.1583 6.55005 18.3917 6.65005 18.575 6.85005C19.325 7.65005 19.9167 8.57505 20.35 9.62505C20.7833 10.675 21 11.8 21 13C21 13.9 20.875 14.7625 20.625 15.5875C20.375 16.4125 20.025 17.175 19.575 17.875C19.3917 18.1584 19.1417 18.3084 18.825 18.325C18.5083 18.3417 18.2333 18.2334 18 18ZM4.425 17.875C3.975 17.175 3.625 16.4125 3.375 15.5875C3.125 14.7625 3 13.9 3 13C3 10.5 3.875 8.37505 5.625 6.62505C7.375 4.87505 9.5 4.00005 12 4.00005H12.2L11.3 3.10005C11.1167 2.91672 11.025 2.68338 11.025 2.40005C11.025 2.11672 11.1167 1.88338 11.3 1.70005C11.4833 1.51672 11.7167 1.42505 12 1.42505C12.2833 1.42505 12.5167 1.51672 12.7 1.70005L15.3 4.30005C15.4 4.40005 15.4708 4.50838 15.5125 4.62505C15.5542 4.74172 15.575 4.86672 15.575 5.00005C15.575 5.13338 15.5542 5.25838 15.5125 5.37505C15.4708 5.49172 15.4 5.60005 15.3 5.70005L12.7 8.30005C12.5 8.50005 12.2667 8.59588 12 8.58755C11.7333 8.57922 11.5 8.47505 11.3 8.27505C11.1 8.07505 11 7.83755 11 7.56255C11 7.28755 11.1 7.05005 11.3 6.85005L12.15 6.00005H12C10.0667 6.00005 8.41667 6.68338 7.05 8.05005C5.68333 9.41672 5 11.0667 5 13C5 13.7 5.09583 14.3709 5.2875 15.0125C5.47917 15.6542 5.75 16.25 6.1 16.8C6.23333 16.9834 6.2875 17.1917 6.2625 17.425C6.2375 17.6584 6.15 17.85 6 18C5.76667 18.2334 5.49167 18.3417 5.175 18.325C4.85833 18.3084 4.60833 18.1584 4.425 17.875Z" fill="currentColor"/>
</svg>
