<svg width="24" height="24" viewBox="0 0 24 24" fill="none" xmlns="http://www.w3.org/2000/svg">
<g clip-path="url(#clip0_1_30)">
<path d="M20.8998 10.6199L13.1798 2.56991C12.6098 1.97991 11.7498 1.78991 10.9898 2.09991C10.2298 2.40991 9.7398 3.12991 9.7398 3.95991V6.48991L5.9898 2.57991C5.4198 1.98991 4.5598 1.79991 3.7998 2.10991C3.0398 2.41991 2.5498 3.13991 2.5498 3.96991V20.0499C2.5498 20.8699 3.0398 21.5999 3.7998 21.9099C4.0398 22.0099 4.2998 22.0599 4.5498 22.0599C5.0798 22.0599 5.5998 21.8499 5.9898 21.4399L9.7398 17.5299V20.0599C9.7398 20.8799 10.2298 21.6099 10.9898 21.9199C11.2298 22.0199 11.4898 22.0699 11.7398 22.0699C12.2698 22.0699 12.7898 21.8599 13.1798 21.4499L20.8998 13.3999C21.6398 12.6199 21.6398 11.4099 20.8998 10.6299V10.6199ZM4.5398 20.0499V3.94991L12.2598 11.9999L4.5398 20.0499ZM11.7298 20.0499V15.4399L13.6998 13.3899C14.4398 12.6099 14.4398 11.3999 13.6998 10.6199L11.7298 8.56991V3.94991L19.4698 12.0299L11.7298 20.0499Z" fill="currentColor"/>
</g>
<defs>
<clipPath id="clip0_1_30">
<rect width="24" height="24" fill="white"/>
</clipPath>
</defs>
</svg>
