<svg width="24" height="24" viewBox="0 0 24 24" fill="none" xmlns="http://www.w3.org/2000/svg">
<path d="M4.99999 7.85005L4.09999 8.72505C3.91665 8.90838 3.68749 9.00005 3.41249 9.00005C3.13749 9.00005 2.89999 8.90005 2.69999 8.70005C2.51665 8.51672 2.42499 8.28338 2.42499 8.00005C2.42499 7.71672 2.51665 7.48338 2.69999 7.30005L5.29999 4.70005C5.39999 4.60005 5.50832 4.52922 5.62499 4.48755C5.74165 4.44588 5.86665 4.42505 5.99999 4.42505C6.13332 4.42505 6.25832 4.44588 6.37499 4.48755C6.49165 4.52922 6.59999 4.60005 6.69999 4.70005L9.29999 7.30005C9.48332 7.48338 9.57915 7.71255 9.58749 7.98755C9.59582 8.26255 9.49999 8.50005 9.29999 8.70005C9.11665 8.88338 8.88749 8.97922 8.61249 8.98755C8.33749 8.99588 8.09999 8.90838 7.89999 8.72505L6.99999 7.85005V16.15L7.89999 15.275C8.08332 15.0917 8.31249 15 8.58749 15C8.86249 15 9.09999 15.1 9.29999 15.3C9.48332 15.4834 9.57499 15.7167 9.57499 16C9.57499 16.2834 9.48332 16.5167 9.29999 16.7L6.69999 19.3C6.59999 19.4 6.49165 19.4709 6.37499 19.5125C6.25832 19.5542 6.13332 19.575 5.99999 19.575C5.86665 19.575 5.74165 19.5542 5.62499 19.5125C5.50832 19.4709 5.39999 19.4 5.29999 19.3L2.69999 16.7C2.51665 16.5167 2.42082 16.2875 2.41249 16.0125C2.40415 15.7375 2.49999 15.5 2.69999 15.3C2.88332 15.1167 3.11249 15.0209 3.38749 15.0125C3.66249 15.0042 3.89999 15.0917 4.09999 15.275L4.99999 16.15V7.85005ZM13 19C12.7167 19 12.4792 18.9042 12.2875 18.7125C12.0958 18.5209 12 18.2834 12 18C12 17.7167 12.0958 17.4792 12.2875 17.2875C12.4792 17.0959 12.7167 17 13 17H21C21.2833 17 21.5208 17.0959 21.7125 17.2875C21.9042 17.4792 22 17.7167 22 18C22 18.2834 21.9042 18.5209 21.7125 18.7125C21.5208 18.9042 21.2833 19 21 19H13ZM13 13C12.7167 13 12.4792 12.9042 12.2875 12.7125C12.0958 12.5209 12 12.2834 12 12C12 11.7167 12.0958 11.4792 12.2875 11.2875C12.4792 11.0959 12.7167 11 13 11H21C21.2833 11 21.5208 11.0959 21.7125 11.2875C21.9042 11.4792 22 11.7167 22 12C22 12.2834 21.9042 12.5209 21.7125 12.7125C21.5208 12.9042 21.2833 13 21 13H13ZM13 7.00005C12.7167 7.00005 12.4792 6.90422 12.2875 6.71255C12.0958 6.52088 12 6.28338 12 6.00005C12 5.71672 12.0958 5.47922 12.2875 5.28755C12.4792 5.09588 12.7167 5.00005 13 5.00005H21C21.2833 5.00005 21.5208 5.09588 21.7125 5.28755C21.9042 5.47922 22 5.71672 22 6.00005C22 6.28338 21.9042 6.52088 21.7125 6.71255C21.5208 6.90422 21.2833 7.00005 21 7.00005H13Z" fill="currentColor"/>
</svg>
