<svg width="24" height="24" viewBox="0 0 24 24" fill="none" xmlns="http://www.w3.org/2000/svg">
<path d="M11 4V14C11 14.2833 10.9042 14.5208 10.7125 14.7125C10.5208 14.9042 10.2833 15 9.99999 15C9.71666 15 9.47916 14.9042 9.28749 14.7125C9.09583 14.5208 8.99999 14.2833 8.99999 14V10C7.89999 10 6.95833 9.60833 6.17499 8.825C5.39166 8.04167 4.99999 7.1 4.99999 6C4.99999 4.9 5.39166 3.95833 6.17499 3.175C6.95833 2.39167 7.89999 2 8.99999 2H16C16.2833 2 16.5208 2.09583 16.7125 2.2875C16.9042 2.47917 17 2.71667 17 3C17 3.28333 16.9042 3.52083 16.7125 3.7125C16.5208 3.90417 16.2833 4 16 4H15V14C15 14.2833 14.9042 14.5208 14.7125 14.7125C14.5208 14.9042 14.2833 15 14 15C13.7167 15 13.4792 14.9042 13.2875 14.7125C13.0958 14.5208 13 14.2833 13 14V4H11ZM6.79999 19L7.69999 19.9C7.88333 20.0833 7.97499 20.3167 7.97499 20.6C7.97499 20.8833 7.88333 21.1167 7.69999 21.3C7.51666 21.4833 7.28333 21.575 6.99999 21.575C6.71666 21.575 6.48333 21.4833 6.29999 21.3L3.69999 18.7C3.49999 18.5 3.39999 18.2667 3.39999 18C3.39999 17.7333 3.49999 17.5 3.69999 17.3L6.29999 14.7C6.48333 14.5167 6.71666 14.425 6.99999 14.425C7.28333 14.425 7.51666 14.5167 7.69999 14.7C7.88333 14.8833 7.97499 15.1167 7.97499 15.4C7.97499 15.6833 7.88333 15.9167 7.69999 16.1L6.79999 17H20C20.2833 17 20.5208 17.0958 20.7125 17.2875C20.9042 17.4792 21 17.7167 21 18C21 18.2833 20.9042 18.5208 20.7125 18.7125C20.5208 18.9042 20.2833 19 20 19H6.79999ZM8.99999 8V4C8.44999 4 7.97916 4.19583 7.58749 4.5875C7.19583 4.97917 6.99999 5.45 6.99999 6C6.99999 6.55 7.19583 7.02083 7.58749 7.4125C7.97916 7.80417 8.44999 8 8.99999 8Z" fill="currentColor"/>
</svg>
