<svg width="24" height="24" viewBox="0 0 24 24" fill="none" xmlns="http://www.w3.org/2000/svg">
<path d="M7 22C6.45 22 5.97917 21.8042 5.5875 21.4125C5.19583 21.0208 5 20.55 5 20V10C5 9.45 5.19583 8.97917 5.5875 8.5875C5.97917 8.19583 6.45 8 7 8H17C17.55 8 18.0208 8.19583 18.4125 8.5875C18.8042 8.97917 19 9.45 19 10V20C19 20.55 18.8042 21.0208 18.4125 21.4125C18.0208 21.8042 17.55 22 17 22H7ZM11 19V19.5C11 19.7833 11.0958 20.0208 11.2875 20.2125C11.4792 20.4042 11.7167 20.5 12 20.5C12.2833 20.5 12.5208 20.4042 12.7125 20.2125C12.9042 20.0208 13 19.7833 13 19.5V19H11ZM11 18H13C13 17.6167 13.1292 17.2333 13.3875 16.85C13.6458 16.4667 13.9333 16.075 14.25 15.675C14.5667 15.2583 14.8542 14.8333 15.1125 14.4C15.3708 13.9667 15.5 13.5 15.5 13C15.5 12.0333 15.1583 11.2083 14.475 10.525C13.7917 9.84167 12.9667 9.5 12 9.5C11.0333 9.5 10.2083 9.84167 9.525 10.525C8.84167 11.2083 8.5 12.0333 8.5 13C8.5 13.5 8.62917 13.9667 8.8875 14.4C9.14583 14.8333 9.43333 15.2583 9.75 15.675C10.0667 16.075 10.3542 16.4667 10.6125 16.85C10.8708 17.2333 11 17.6167 11 18ZM6 6.5C6 6.08333 6.14583 5.72917 6.4375 5.4375C6.72917 5.14583 7.08333 5 7.5 5H16.5C16.9167 5 17.2708 5.14583 17.5625 5.4375C17.8542 5.72917 18 6.08333 18 6.5H6ZM7 3.5C7 3.08333 7.14583 2.72917 7.4375 2.4375C7.72917 2.14583 8.08333 2 8.5 2H15.5C15.9167 2 16.2708 2.14583 16.5625 2.4375C16.8542 2.72917 17 3.08333 17 3.5H7Z" fill="currentColor"/>
</svg>
