<svg width="24" height="24" viewBox="0 0 24 24" fill="none" xmlns="http://www.w3.org/2000/svg">
<path d="M14.1 19.2L19.05 14.25C19.2333 14.0667 19.4667 13.975 19.75 13.975C20.0333 13.975 20.2667 14.0667 20.45 14.25C20.6333 14.4333 20.725 14.6667 20.725 14.95C20.725 15.2333 20.6333 15.4667 20.45 15.65L15.525 20.575C15.325 20.775 15.1 20.925 14.85 21.025C14.6 21.125 14.35 21.175 14.1 21.175C13.85 21.175 13.6 21.125 13.35 21.025C13.1 20.925 12.875 20.775 12.675 20.575L10.55 18.45C10.3667 18.2667 10.275 18.0333 10.275 17.75C10.275 17.4667 10.3667 17.2333 10.55 17.05C10.7333 16.8667 10.9667 16.775 11.25 16.775C11.5333 16.775 11.7667 16.8667 11.95 17.05L14.1 19.2ZM6.35001 12.7L5.42501 15.325C5.34167 15.525 5.21667 15.6875 5.05001 15.8125C4.88334 15.9375 4.69167 16 4.47501 16C4.10834 16 3.82501 15.85 3.62501 15.55C3.42501 15.25 3.39167 14.9333 3.52501 14.6L7.57501 3.725C7.65834 3.50833 7.79584 3.33333 7.98751 3.2C8.17917 3.06667 8.39167 3 8.62501 3H9.42501C9.65834 3 9.87084 3.06667 10.0625 3.2C10.2542 3.33333 10.3917 3.50833 10.475 3.725L14.525 14.575C14.6583 14.925 14.6208 15.25 14.4125 15.55C14.2042 15.85 13.9083 16 13.525 16C13.2917 16 13.0833 15.9333 12.9 15.8C12.7167 15.6667 12.5833 15.4917 12.5 15.275L11.6 12.7H6.35001ZM7.05001 10.8H10.95L9.05001 5.4H8.95001L7.05001 10.8Z" fill="currentColor"/>
</svg>
