<svg width="20" height="20" viewBox="0 0 20 20" fill="currentColor" xmlns="http://www.w3.org/2000/svg">
<g id="mds_ic_cashless">
<g id="vector">
<path d="M16.9025 4.35918H8.39215L7.65415 3.00479C7.47989 2.66182 7.06125 2.52713 6.72036 2.7007C6.37878 2.87496 6.2427 3.29291 6.41627 3.63449L13.2687 17.0046C13.3916 17.2462 13.6353 17.3844 13.8887 17.3844C13.9942 17.3844 14.1025 17.3601 14.2025 17.3094C14.5441 17.1352 14.6802 16.7172 14.5066 16.3756L14.0158 15.4113H16.9025C17.6343 15.4113 18.2279 14.8177 18.2279 14.0859V5.68454C18.2279 4.95278 17.6343 4.35918 16.9025 4.35918ZM11.7142 10.8874L10.4514 8.40609C10.4979 8.40192 10.5416 8.38595 10.5895 8.38595C11.4268 8.38595 12.1044 9.06426 12.1044 9.89946C12.1044 10.2827 11.9496 10.6215 11.7142 10.8874ZM16.8394 14.022H13.3097L12.371 12.1774C13.0507 11.6476 13.493 10.8284 13.493 9.89946C13.493 8.29639 12.1926 6.99741 10.5895 6.99741C10.3125 6.99741 10.0473 7.04115 9.79527 7.11682L9.09892 5.74772H16.8394V14.022Z" fill="currentColor"/>
<path d="M10.4267 14.022H3.22155V5.7477H6.21664L5.50987 4.35915H3.15837C2.42661 4.35915 1.83301 4.95276 1.83301 5.68452V14.0852C1.83301 14.817 2.42661 15.4106 3.15837 15.4106H11.1335L10.4267 14.022Z" fill="currentColor"/>
<path d="M9.3405 11.353C8.69893 11.1767 8.22538 10.5955 8.22538 9.89977C8.22538 9.7123 8.26982 9.53871 8.33231 9.37346L7.6088 7.95144C7.13317 8.46456 6.83669 9.14363 6.83669 9.89977C6.83669 11.503 8.1372 12.8021 9.74045 12.8021C9.85015 12.8021 9.95292 12.7792 10.0598 12.7667L9.3405 11.353Z" fill="currentColor"/>
</g>
</g>
</svg>
