<svg width="24" height="24" viewBox="0 0 24 24" fill="none" xmlns="http://www.w3.org/2000/svg">
<path d="M10 21V17H9C8.71667 17 8.47917 16.9042 8.2875 16.7125C8.09583 16.5208 8 16.2833 8 16V10C8 9.16667 8.29167 8.45833 8.875 7.875C9.45833 7.29167 10.1667 7 11 7C11.8333 7 12.5417 7.29167 13.125 7.875C13.7083 8.45833 14 9.16667 14 10C14.6 10.25 15.0833 10.65 15.45 11.2C15.8167 11.75 16 12.35 16 13V16C16 16.2833 15.9042 16.5208 15.7125 16.7125C15.5208 16.9042 15.2833 17 15 17H13V21C13 21.2833 12.9042 21.5208 12.7125 21.7125C12.5208 21.9042 12.2833 22 12 22H11C10.7167 22 10.4792 21.9042 10.2875 21.7125C10.0958 21.5208 10 21.2833 10 21ZM11 6C10.45 6 9.97917 5.80417 9.5875 5.4125C9.19583 5.02083 9 4.55 9 4C9 3.45 9.19583 2.97917 9.5875 2.5875C9.97917 2.19583 10.45 2 11 2C11.55 2 12.0208 2.19583 12.4125 2.5875C12.8042 2.97917 13 3.45 13 4C13 4.55 12.8042 5.02083 12.4125 5.4125C12.0208 5.80417 11.55 6 11 6Z" fill="currentColor"/>
</svg>
