<svg width="24" height="24" viewBox="0 0 24 24" fill="none" xmlns="http://www.w3.org/2000/svg">
<path d="M11 5.1V4C11 3.71667 11.0958 3.47917 11.2875 3.2875C11.4792 3.09583 11.7167 3 12 3C12.2833 3 12.5208 3.09583 12.7125 3.2875C12.9042 3.47917 13 3.71667 13 4V5.05C13.5 5.15 13.9708 5.32917 14.4125 5.5875C14.8542 5.84583 15.2417 6.16667 15.575 6.55C15.7583 6.78333 15.8375 7.0375 15.8125 7.3125C15.7875 7.5875 15.6583 7.81667 15.425 8C15.1917 8.18333 14.9375 8.2625 14.6625 8.2375C14.3875 8.2125 14.1583 8.08333 13.975 7.85C13.7417 7.56667 13.4583 7.34583 13.125 7.1875C12.7917 7.02917 12.4333 6.95 12.05 6.95C11.8667 6.95 11.6875 6.975 11.5125 7.025C11.3375 7.075 11.1667 7.14167 11 7.225C10.7333 7.34167 10.4708 7.35 10.2125 7.25C9.95418 7.15 9.76668 6.96667 9.65001 6.7C9.53335 6.43333 9.52501 6.17083 9.62501 5.9125C9.72501 5.65417 9.90835 5.46667 10.175 5.35C10.3083 5.28333 10.4458 5.23333 10.5875 5.2C10.7292 5.16667 10.8667 5.13333 11 5.1ZM19.1 21.9L15.2 18C14.95 18.25 14.6083 18.4542 14.175 18.6125C13.7417 18.7708 13.35 18.8667 13 18.9V20C13 20.2833 12.9042 20.5208 12.7125 20.7125C12.5208 20.9042 12.2833 21 12 21C11.7167 21 11.4792 20.9042 11.2875 20.7125C11.0958 20.5208 11 20.2833 11 20V18.85C10.2667 18.6667 9.62501 18.3625 9.07501 17.9375C8.52501 17.5125 8.08335 16.9833 7.75001 16.35C7.61668 16.0833 7.59168 15.8083 7.67501 15.525C7.75835 15.2417 7.93335 15.0333 8.20001 14.9C8.48335 14.7667 8.76251 14.75 9.03751 14.85C9.31251 14.95 9.52501 15.1333 9.67501 15.4C9.92501 15.8667 10.2625 16.25 10.6875 16.55C11.1125 16.85 11.6167 17 12.2 17C12.5 17 12.775 16.9625 13.025 16.8875C13.275 16.8125 13.5167 16.7 13.75 16.55L2.10001 4.9C1.91668 4.71667 1.82501 4.48333 1.82501 4.2C1.82501 3.91667 1.91668 3.68333 2.10001 3.5C2.28335 3.31667 2.51668 3.225 2.80001 3.225C3.08335 3.225 3.31668 3.31667 3.50001 3.5L20.5 20.5C20.6833 20.6833 20.775 20.9167 20.775 21.2C20.775 21.4833 20.6833 21.7167 20.5 21.9C20.3167 22.0833 20.0833 22.175 19.8 22.175C19.5167 22.175 19.2833 22.0833 19.1 21.9Z" fill="currentColor"/>
</svg>
