<svg width="24" height="24" viewBox="0 0 24 24" fill="none" xmlns="http://www.w3.org/2000/svg">
<g clip-path="url(#clip0_1_523)">
<path d="M4 15C3.46667 15 3 14.8 2.6 14.4C2.2 14 2 13.5333 2 13V11C2 10.8833 2.0125 10.7583 2.0375 10.625C2.0625 10.4917 2.1 10.3667 2.15 10.25L5.15 3.2C5.3 2.86667 5.55 2.58333 5.9 2.35C6.25 2.11667 6.61667 2 7 2H15C15.55 2 16.0208 2.19583 16.4125 2.5875C16.8042 2.97917 17 3.45 17 4V14.175C17 14.4417 16.9458 14.6958 16.8375 14.9375C16.7292 15.1792 16.5833 15.3917 16.4 15.575L10.975 20.975C10.725 21.2083 10.4292 21.35 10.0875 21.4C9.74583 21.45 9.41667 21.3917 9.1 21.225C8.78333 21.0583 8.55417 20.825 8.4125 20.525C8.27083 20.225 8.24167 19.9167 8.325 19.6L9.45 15H4ZM21 2C21.55 2 22.0208 2.19583 22.4125 2.5875C22.8042 2.97917 23 3.45 23 4V13C23 13.55 22.8042 14.0208 22.4125 14.4125C22.0208 14.8042 21.55 15 21 15C20.45 15 19.9792 14.8042 19.5875 14.4125C19.1958 14.0208 19 13.55 19 13V4C19 3.45 19.1958 2.97917 19.5875 2.5875C19.9792 2.19583 20.45 2 21 2Z" fill="currentColor"/>
</g>
<defs>
<clipPath id="clip0_1_523">
<rect width="24" height="24" fill="white"/>
</clipPath>
</defs>
</svg>
