<svg width="24" height="24" viewBox="0 0 24 24" fill="none" xmlns="http://www.w3.org/2000/svg">
<g clip-path="url(#clip0_2383_15)">
<path d="M12.987 16.6L17.887 11.7C18.087 11.5 18.3203 11.4042 18.587 11.4125C18.8536 11.4208 19.087 11.525 19.287 11.725C19.4703 11.925 19.5661 12.1583 19.5745 12.425C19.5828 12.6917 19.487 12.925 19.287 13.125L12.687 19.725C12.587 19.825 12.4786 19.8958 12.362 19.9375C12.2453 19.9792 12.1203 20 11.987 20C11.8536 20 11.7286 19.9792 11.612 19.9375C11.4953 19.8958 11.387 19.825 11.287 19.725L4.68695 13.125C4.50362 12.9417 4.41195 12.7125 4.41195 12.4375C4.41195 12.1625 4.50362 11.925 4.68695 11.725C4.88695 11.525 5.12445 11.425 5.39945 11.425C5.67445 11.425 5.91195 11.525 6.11195 11.725L10.987 16.6L10.987 5.425C10.987 5.14167 11.0828 4.90417 11.2745 4.7125C11.4661 4.52083 11.7036 4.425 11.987 4.425C12.2703 4.425 12.5078 4.52083 12.6995 4.7125C12.8911 4.90417 12.987 5.14167 12.987 5.425L12.987 16.6Z" fill="currentColor"/>
</g>
<defs>
<clipPath id="clip0_2383_15">
<rect width="24" height="24" fill="white"/>
</clipPath>
</defs>
</svg>
