<svg width="24" height="24" viewBox="0 0 24 24" fill="none" xmlns="http://www.w3.org/2000/svg">
<path d="M18.6 16L13.4 10.85L10.825 13.425C10.4417 13.8084 9.96665 14 9.39999 14C8.83332 14 8.35832 13.8084 7.97499 13.425L2.69999 8.10005C2.51665 7.91672 2.42082 7.68755 2.41249 7.41255C2.40415 7.13755 2.49999 6.90005 2.69999 6.70005C2.88332 6.51672 3.11665 6.42505 3.39999 6.42505C3.68332 6.42505 3.91665 6.51672 4.09999 6.70005L9.39999 12L11.975 9.42505C12.3583 9.04172 12.8333 8.85005 13.4 8.85005C13.9667 8.85005 14.4417 9.04172 14.825 9.42505L20 14.6V13C20 12.7167 20.0958 12.4792 20.2875 12.2875C20.4792 12.0959 20.7167 12 21 12C21.2833 12 21.5208 12.0959 21.7125 12.2875C21.9042 12.4792 22 12.7167 22 13V17C22 17.2834 21.9042 17.5209 21.7125 17.7125C21.5208 17.9042 21.2833 18 21 18H17C16.7167 18 16.4792 17.9042 16.2875 17.7125C16.0958 17.5209 16 17.2834 16 17C16 16.7167 16.0958 16.4792 16.2875 16.2875C16.4792 16.0959 16.7167 16 17 16H18.6Z" fill="currentColor"/>
</svg>
