<svg width="24" height="24" viewBox="0 0 24 24" fill="none" xmlns="http://www.w3.org/2000/svg">
<g clip-path="url(#clip0_2960_28)">
<path d="M3.63718 3.43335L12.3772 12.0043L3.70218 20.6543C3.56061 20.4693 3.45047 20.2622 3.37618 20.0413C3.33717 19.7912 3.33717 19.5365 3.37618 19.2863V4.56635C3.35018 4.17135 3.44118 3.77635 3.63618 3.43335M16.1422 8.26635L13.2892 11.0923L4.65318 2.59935C4.93318 2.50235 5.23318 2.47535 5.52618 2.52135C5.98618 2.64735 6.42518 2.84135 6.82818 3.09435L14.6442 7.41935C15.1522 7.69235 15.6472 7.97935 16.1422 8.26635ZM13.2902 12.9293L16.1292 15.7173L14.0712 16.8633L7.79218 20.3533C7.27218 20.6403 6.75018 20.9143 6.24218 21.2273C6.02486 21.3628 5.78111 21.4503 5.52725 21.4839C5.27339 21.5175 5.01528 21.4965 4.77018 21.4223L13.2902 12.9293ZM20.6502 12.0043C20.658 12.3541 20.5699 12.6994 20.3954 13.0026C20.2208 13.3058 19.9666 13.5554 19.6602 13.7243L17.3142 15.0263L14.2272 12.0043L17.3272 8.93035C18.1222 9.37335 18.9042 9.81635 19.6852 10.2333C19.9968 10.4073 20.2528 10.6659 20.4234 10.9794C20.594 11.2928 20.6733 11.6482 20.6502 12.0043Z" fill="currentColor"/>
</g>
<defs>
<clipPath id="clip0_2960_28">
<rect width="24" height="24" fill="white"/>
</clipPath>
</defs>
</svg>
