<svg width="24" height="24" viewBox="0 0 24 24" fill="none" xmlns="http://www.w3.org/2000/svg">
<path d="M12 16.6L15.2 12H12.35L14.35 5H9V13H12V16.6ZM17.375 12.35L11.375 21.025C11.275 21.175 11.1458 21.275 10.9875 21.325C10.8292 21.375 10.675 21.375 10.525 21.325C10.375 21.275 10.25 21.1875 10.15 21.0625C10.05 20.9375 10 20.7833 10 20.6V15H9C8.45 15 7.97917 14.8042 7.5875 14.4125C7.19583 14.0208 7 13.55 7 13V5C7 4.45 7.19583 3.97917 7.5875 3.5875C7.97917 3.19583 8.45 3 9 3H14.85C15.3833 3 15.8125 3.20833 16.1375 3.625C16.4625 4.04167 16.5583 4.5 16.425 5L15 10H16.125C16.725 10 17.1708 10.2667 17.4625 10.8C17.7542 11.3333 17.725 11.85 17.375 12.35Z" fill="currentColor"/>
</svg>
