<svg width="24" height="24" viewBox="0 0 24 24" fill="none" xmlns="http://www.w3.org/2000/svg">
<g clip-path="url(#clip0_1_248)">
<path fill-rule="evenodd" clip-rule="evenodd" d="M17.525 15.375C17.575 15.2583 17.6 15.1333 17.6 15C17.6 14.7333 17.5042 14.5 17.3125 14.3C17.1209 14.1 16.875 14 16.575 14H7.42503C7.12503 14 6.87919 14.1 6.68753 14.3C6.49586 14.5 6.40003 14.7333 6.40003 15C6.40003 15.1333 6.42503 15.2583 6.47503 15.375C6.52503 15.4917 6.60003 15.6 6.70003 15.7L11.3 20.3C11.4 20.4 11.5084 20.4708 11.625 20.5125C11.7417 20.5542 11.8667 20.575 12 20.575C12.1334 20.575 12.2584 20.5542 12.375 20.5125C12.4917 20.4708 12.6 20.4 12.7 20.3L17.3 15.7C17.4 15.6 17.475 15.4917 17.525 15.375ZM8.62503 15.5H15.375L12 18.875L8.62503 15.5Z" fill="currentColor"/>
<path fill-rule="evenodd" clip-rule="evenodd" d="M6.47502 9.2C6.42502 9.31667 6.40002 9.44167 6.40002 9.575C6.40002 9.84167 6.49586 10.075 6.68752 10.275C6.87919 10.475 7.12502 10.575 7.42502 10.575H16.575C16.875 10.575 17.1209 10.475 17.3125 10.275C17.5042 10.075 17.6 9.84167 17.6 9.575C17.6 9.44167 17.575 9.31667 17.525 9.2C17.475 9.08333 17.4 8.975 17.3 8.875L12.7 4.275C12.6 4.175 12.4917 4.10417 12.375 4.0625C12.2584 4.02083 12.1334 4 12 4C11.8667 4 11.7417 4.02083 11.625 4.0625C11.5084 4.10417 11.4 4.175 11.3 4.275L6.70002 8.875C6.60002 8.975 6.52502 9.08333 6.47502 9.2ZM15.375 9.075H8.62502L12 5.7L15.375 9.075Z" fill="currentColor"/>
</g>
<defs>
<clipPath id="clip0_1_248">
<rect width="24" height="24" fill="white"/>
</clipPath>
</defs>
</svg>
