<svg width="24" height="24" viewBox="0 0 24 24" fill="none" xmlns="http://www.w3.org/2000/svg">
<path d="M10.5 16L11.65 17.15C11.75 17.25 11.8667 17.3 12 17.3C12.1333 17.3 12.25 17.25 12.35 17.15L13.5 16H15.5C15.6333 16 15.75 15.95 15.85 15.85C15.95 15.75 16 15.6333 16 15.5V13.5L17.15 12.35C17.25 12.25 17.3 12.1333 17.3 12C17.3 11.8667 17.25 11.75 17.15 11.65L16 10.5V8.5C16 8.36667 15.95 8.25 15.85 8.15C15.75 8.05 15.6333 8 15.5 8H13.5L12.35 6.85C12.25 6.75 12.1333 6.7 12 6.7C11.8667 6.7 11.75 6.75 11.65 6.85L10.5 8H8.5C8.36667 8 8.25 8.05 8.15 8.15C8.05 8.25 8 8.36667 8 8.5V10.5L6.85 11.65C6.75 11.75 6.7 11.8667 6.7 12C6.7 12.1333 6.75 12.25 6.85 12.35L8 13.5V15.5C8 15.6333 8.05 15.75 8.15 15.85C8.25 15.95 8.36667 16 8.5 16H10.5ZM12 15V9C12.8333 9 13.5417 9.29167 14.125 9.875C14.7083 10.4583 15 11.1667 15 12C15 12.8333 14.7083 13.5417 14.125 14.125C13.5417 14.7083 12.8333 15 12 15ZM4 20C3.45 20 2.97917 19.8042 2.5875 19.4125C2.19583 19.0208 2 18.55 2 18V6C2 5.45 2.19583 4.97917 2.5875 4.5875C2.97917 4.19583 3.45 4 4 4H20C20.55 4 21.0208 4.19583 21.4125 4.5875C21.8042 4.97917 22 5.45 22 6V18C22 18.55 21.8042 19.0208 21.4125 19.4125C21.0208 19.8042 20.55 20 20 20H4ZM4 18H20V6H4V18Z" fill="currentColor"/>
</svg>
