<svg width="24" height="24" viewBox="0 0 24 24" fill="none" xmlns="http://www.w3.org/2000/svg">
<path d="M17.3 23.3L15.3 21.3C15.2 21.2 15.125 21.0875 15.075 20.9625C15.025 20.8375 15 20.7083 15 20.575V19.5L7.89999 12.4C7.74999 12.4333 7.59999 12.4583 7.44999 12.475C7.29999 12.4917 7.14999 12.5 6.99999 12.5V10.3C7.83332 10.3333 8.68332 10.1542 9.54999 9.7625C10.4167 9.37083 11.1167 8.88333 11.65 8.3L13.05 6.75C13.2667 6.5 13.5208 6.3125 13.8125 6.1875C14.1042 6.0625 14.4167 6 14.75 6C15.3833 6 15.9167 6.21667 16.35 6.65C16.7833 7.08333 17 7.61667 17 8.25V14C17 14.4333 16.9208 14.8292 16.7625 15.1875C16.6042 15.5458 16.3833 15.8667 16.1 16.15L12.5 12.6V10.3C12.1667 10.5833 11.8083 10.8417 11.425 11.075C11.0417 11.3083 10.6333 11.5167 10.2 11.7L16.5 18H17.575C17.7083 18 17.8375 18.025 17.9625 18.075C18.0875 18.125 18.2 18.2 18.3 18.3L20.3 20.3C20.5 20.5 20.6 20.7333 20.6 21C20.6 21.2667 20.5 21.5 20.3 21.7L18.7 23.3C18.5 23.5 18.2667 23.6 18 23.6C17.7333 23.6 17.5 23.5 17.3 23.3ZM8.99999 17L6.24999 19.75C6.03332 19.9667 5.78332 20.075 5.49999 20.075C5.21665 20.075 4.96665 19.9667 4.74999 19.75C4.53332 19.5333 4.42499 19.2833 4.42499 19C4.42499 18.7167 4.53332 18.4667 4.74999 18.25L8.49999 14.5L11 17H8.99999ZM15 5C14.45 5 13.9792 4.80417 13.5875 4.4125C13.1958 4.02083 13 3.55 13 3C13 2.45 13.1958 1.97917 13.5875 1.5875C13.9792 1.19583 14.45 1 15 1C15.55 1 16.0208 1.19583 16.4125 1.5875C16.8042 1.97917 17 2.45 17 3C17 3.55 16.8042 4.02083 16.4125 4.4125C16.0208 4.80417 15.55 5 15 5ZM6.99999 12.5C6.69999 12.5 6.44165 12.3917 6.22499 12.175C6.00832 11.9583 5.89999 11.7 5.89999 11.4C5.89999 11.1 6.00832 10.8417 6.22499 10.625C6.44165 10.4083 6.69999 10.3 6.99999 10.3C7.29999 10.3 7.55832 10.4083 7.77499 10.625C7.99165 10.8417 8.09999 11.1 8.09999 11.4C8.09999 11.7 7.99165 11.9583 7.77499 12.175C7.55832 12.3917 7.29999 12.5 6.99999 12.5Z" fill="currentColor"/>
</svg>
