<svg width="24" height="24" viewBox="0 0 24 24" fill="none" xmlns="http://www.w3.org/2000/svg">
<path d="M17.0001 21C16.7168 21 16.4793 20.9042 16.2876 20.7125C16.0959 20.5208 16.0001 20.2833 16.0001 20V17C16.0001 16.7167 16.0959 16.4792 16.2876 16.2875C16.4793 16.0958 16.7168 16 17.0001 16V15C17.0001 14.45 17.1959 13.9792 17.5876 13.5875C17.9793 13.1958 18.4501 13 19.0001 13C19.5501 13 20.0209 13.1958 20.4126 13.5875C20.8043 13.9792 21.0001 14.45 21.0001 15V16C21.2834 16 21.5209 16.0958 21.7126 16.2875C21.9043 16.4792 22.0001 16.7167 22.0001 17V20C22.0001 20.2833 21.9043 20.5208 21.7126 20.7125C21.5209 20.9042 21.2834 21 21.0001 21H17.0001ZM18.0001 16H20.0001V15C20.0001 14.7167 19.9043 14.4792 19.7126 14.2875C19.5209 14.0958 19.2834 14 19.0001 14C18.7168 14 18.4793 14.0958 18.2876 14.2875C18.0959 14.4792 18.0001 14.7167 18.0001 15V16ZM12.0001 4C13.8834 4 15.7043 4.29583 17.4626 4.8875C19.2209 5.47917 20.8334 6.35 22.3001 7.5C22.5334 7.68333 22.7126 7.90417 22.8376 8.1625C22.9626 8.42083 23.0334 8.69167 23.0501 8.975C23.0668 9.25833 23.0209 9.5375 22.9126 9.8125C22.8043 10.0875 22.6334 10.3417 22.4001 10.575L21.2751 11.725C21.0751 11.9083 20.8376 12.0042 20.5626 12.0125C20.2876 12.0208 20.0501 11.925 19.8501 11.725C19.6501 11.525 19.5501 11.2875 19.5501 11.0125C19.5501 10.7375 19.6501 10.5 19.8501 10.3L21.1001 9.05C19.7834 8.05 18.3501 7.29167 16.8001 6.775C15.2501 6.25833 13.6501 6 12.0001 6C10.3501 6 8.75011 6.25833 7.20011 6.775C5.65011 7.29167 4.21678 8.05 2.90011 9.05L12.0001 18.15L12.2751 17.875C12.4751 17.675 12.7126 17.575 12.9876 17.575C13.2626 17.575 13.5001 17.675 13.7001 17.875C13.9001 18.075 14.0001 18.3125 14.0001 18.5875C14.0001 18.8625 13.9001 19.1 13.7001 19.3L13.4251 19.575C13.2251 19.775 13.0001 19.925 12.7501 20.025C12.5001 20.125 12.2501 20.175 12.0001 20.175C11.7501 20.175 11.5001 20.125 11.2501 20.025C11.0001 19.925 10.7751 19.775 10.5751 19.575L1.57511 10.575C1.35844 10.3583 1.19594 10.1125 1.08761 9.8375C0.979277 9.5625 0.933444 9.28333 0.950111 9C0.966777 8.71667 1.03344 8.44583 1.15011 8.1875C1.26678 7.92917 1.44178 7.7 1.67511 7.5C3.14178 6.35 4.75844 5.47917 6.52511 4.8875C8.29178 4.29583 10.1168 4 12.0001 4Z" fill="currentColor"/>
</svg>
