<svg width="24" height="24" viewBox="0 0 24 24" fill="none" xmlns="http://www.w3.org/2000/svg">
<g clip-path="url(#clip0_1_468)">
<path d="M4 21.7C3.45 21.7 2.97917 21.5041 2.5875 21.1125C2.19583 20.7208 2 20.25 2 19.7V7.69995C2 7.14995 2.19583 6.67912 2.5875 6.28745C2.97917 5.89578 3.45 5.69995 4 5.69995H8V3.69995C8 3.14995 8.19583 2.67912 8.5875 2.28745C8.97917 1.89578 9.45 1.69995 10 1.69995H14C14.55 1.69995 15.0208 1.89578 15.4125 2.28745C15.8042 2.67912 16 3.14995 16 3.69995V5.69995H20C20.55 5.69995 21.0208 5.89578 21.4125 6.28745C21.8042 6.67912 22 7.14995 22 7.69995V19.7C22 20.25 21.8042 20.7208 21.4125 21.1125C21.0208 21.5041 20.55 21.7 20 21.7H4ZM10 5.69995H14V3.69995H10V5.69995ZM11 14.7V16.7C11 16.9833 11.0958 17.2208 11.2875 17.4125C11.4792 17.6041 11.7167 17.7 12 17.7C12.2833 17.7 12.5208 17.6041 12.7125 17.4125C12.9042 17.2208 13 16.9833 13 16.7V14.7H15C15.2833 14.7 15.5208 14.6041 15.7125 14.4125C15.9042 14.2208 16 13.9833 16 13.7C16 13.4166 15.9042 13.1791 15.7125 12.9875C15.5208 12.7958 15.2833 12.7 15 12.7H13V10.7C13 10.4166 12.9042 10.1791 12.7125 9.98745C12.5208 9.79578 12.2833 9.69995 12 9.69995C11.7167 9.69995 11.4792 9.79578 11.2875 9.98745C11.0958 10.1791 11 10.4166 11 10.7V12.7H9C8.71667 12.7 8.47917 12.7958 8.2875 12.9875C8.09583 13.1791 8 13.4166 8 13.7C8 13.9833 8.09583 14.2208 8.2875 14.4125C8.47917 14.6041 8.71667 14.7 9 14.7H11Z" fill="currentColor"/>
</g>
<defs>
<clipPath id="clip0_1_468">
<rect width="24" height="24" fill="white"/>
</clipPath>
</defs>
</svg>
