<svg width="24" height="24" viewBox="0 0 24 24" fill="none" xmlns="http://www.w3.org/2000/svg">
<path d="M8.02499 20H6.12499C5.75833 20 5.42083 19.9083 5.11249 19.725C4.80416 19.5417 4.55833 19.2917 4.37499 18.975L1.04999 12.975C0.866661 12.675 0.774994 12.35 0.774994 12C0.774994 11.65 0.866661 11.325 1.04999 11.025L4.54999 4.775C4.68333 4.54167 4.86249 4.35417 5.08749 4.2125C5.31249 4.07083 5.56666 4 5.84999 4H7.72499C8.00833 4 8.22083 4.125 8.36249 4.375C8.50416 4.625 8.50833 4.875 8.37499 5.125L4.49999 12L7.09999 16.65L14.325 4.95C14.5083 4.65 14.75 4.41667 15.05 4.25C15.35 4.08333 15.675 4 16.025 4H17.825C18.1917 4 18.5292 4.09167 18.8375 4.275C19.1458 4.45833 19.3917 4.70833 19.575 5.025L22.95 11.025C23.1333 11.325 23.225 11.65 23.225 12C23.225 12.35 23.1333 12.675 22.95 12.975L19.45 19.225C19.3167 19.4583 19.1375 19.6458 18.9125 19.7875C18.6875 19.9292 18.4333 20 18.15 20H16.275C15.9917 20 15.7792 19.875 15.6375 19.625C15.4958 19.375 15.4917 19.125 15.625 18.875L19.5 12L16.9 7.4L9.72499 19.05C9.54166 19.35 9.29999 19.5833 8.99999 19.75C8.69999 19.9167 8.37499 20 8.02499 20Z" fill="currentColor"/>
</svg>
