<svg width="24" height="24" viewBox="0 0 24 24" fill="none" xmlns="http://www.w3.org/2000/svg">
<path d="M12 18.5V19C12 19.2833 11.9042 19.5208 11.7125 19.7125C11.5208 19.9042 11.2833 20 11 20C10.7167 20 10.4792 19.9042 10.2875 19.7125C10.0958 19.5208 10 19.2833 10 19V14C10 13.8833 10.0083 13.7667 10.025 13.65C10.0417 13.5333 10.0667 13.425 10.1 13.325L11.15 10.35C11.2833 9.95 11.525 9.625 11.875 9.375C12.225 9.125 12.6167 9 13.05 9H18.95C19.3833 9 19.775 9.125 20.125 9.375C20.475 9.625 20.7167 9.95 20.85 10.35L21.9 13.325C21.9333 13.425 21.9583 13.5333 21.975 13.65C21.9917 13.7667 22 13.8833 22 14V19C22 19.2833 21.9042 19.5208 21.7125 19.7125C21.5208 19.9042 21.2833 20 21 20C20.7167 20 20.4792 19.9042 20.2875 19.7125C20.0958 19.5208 20 19.2833 20 19V18.5H12ZM12 12.5H20L19.3 10.5H12.7L12 12.5ZM13 16.5C13.2833 16.5 13.5208 16.4042 13.7125 16.2125C13.9042 16.0208 14 15.7833 14 15.5C14 15.2167 13.9042 14.9792 13.7125 14.7875C13.5208 14.5958 13.2833 14.5 13 14.5C12.7167 14.5 12.4792 14.5958 12.2875 14.7875C12.0958 14.9792 12 15.2167 12 15.5C12 15.7833 12.0958 16.0208 12.2875 16.2125C12.4792 16.4042 12.7167 16.5 13 16.5ZM19 16.5C19.2833 16.5 19.5208 16.4042 19.7125 16.2125C19.9042 16.0208 20 15.7833 20 15.5C20 15.2167 19.9042 14.9792 19.7125 14.7875C19.5208 14.5958 19.2833 14.5 19 14.5C18.7167 14.5 18.4792 14.5958 18.2875 14.7875C18.0958 14.9792 18 15.2167 18 15.5C18 15.7833 18.0958 16.0208 18.2875 16.2125C18.4792 16.4042 18.7167 16.5 19 16.5ZM4.2 20C3.96667 20 3.80833 19.9 3.725 19.7C3.64167 19.5 3.68333 19.3167 3.85 19.15L5 18C4.16667 18 3.45833 17.7083 2.875 17.125C2.29167 16.5417 2 15.8333 2 15V7C2 5.9 2.49167 5.125 3.475 4.675C4.45833 4.225 6.13333 4 8.5 4C10.9667 4 12.6667 4.21667 13.6 4.65C14.5333 5.08333 15 5.86667 15 7C15 7.28333 14.9042 7.52083 14.7125 7.7125C14.5208 7.90417 14.2833 8 14 8C13.7167 8 13.4792 7.90417 13.2875 7.7125C13.0958 7.52083 13 7.28333 13 7H4V13H8C8.28333 13 8.52083 13.0958 8.7125 13.2875C8.90417 13.4792 9 13.7167 9 14V19C9 19.2833 8.90417 19.5208 8.7125 19.7125C8.52083 19.9042 8.28333 20 8 20H4.2ZM5 16C5.28333 16 5.52083 15.9042 5.7125 15.7125C5.90417 15.5208 6 15.2833 6 15C6 14.7167 5.90417 14.4792 5.7125 14.2875C5.52083 14.0958 5.28333 14 5 14C4.71667 14 4.47917 14.0958 4.2875 14.2875C4.09583 14.4792 4 14.7167 4 15C4 15.2833 4.09583 15.5208 4.2875 15.7125C4.47917 15.9042 4.71667 16 5 16ZM11.5 17H20.5V14H11.5V17Z" fill="currentColor"/>
</svg>
