<svg xmlns="http://www.w3.org/2000/svg" width="24" height="24" fill="currentColor" xmlns:v="https://vecta.io/nano"><path d="M12.917 13.833h-2.75c-.26 0-.477.088-.653.264s-.264.393-.264.653.088.477.264.653.393.264.653.264h.917c0 .26.088.478.264.653s.393.264.65.264.466-.093.623-.28a1.31 1.31 0 0 0 .297-.637h.917c.26 0 .478-.088.653-.264s.264-.393.264-.653V12c0-.26-.088-.477-.264-.653s-.393-.264-.653-.264h-2.75v-.917h2.75c.26 0 .478-.088.653-.263s.264-.393.264-.653-.088-.477-.264-.653-.393-.264-.653-.264h-.917c0-.26-.088-.477-.264-.653s-.393-.264-.65-.264-.466.093-.623.28a1.31 1.31 0 0 0-.296.637h-.917c-.26 0-.477.088-.653.264s-.264.393-.264.653V12c0 .26.088.477.264.653s.393.264.653.264h2.75v.917z"/><path fill-rule="evenodd" d="M2 6a2 2 0 0 1 2-2h16a2 2 0 0 1 2 2v12a2 2 0 0 1-2 2H4a2 2 0 0 1-2-2V6zm2 0v12h16V6H4z"/></svg>