<svg width="24" height="24" viewBox="0 0 24 24" fill="none" xmlns="http://www.w3.org/2000/svg">
<g clip-path="url(#clip0_1_181)">
<path d="M11.9998 11.7892C10.7874 11.7892 9.80256 11.4095 9.04528 10.6503C8.28799 9.89098 7.90935 8.90645 7.90935 7.69667C7.90935 6.48687 8.28768 5.50292 9.04433 4.74482C9.80098 3.98672 10.7855 3.60767 11.9979 3.60767C13.2103 3.60767 14.1966 3.98649 14.9567 4.74414C15.7168 5.50181 16.0969 6.48697 16.0969 7.69964C16.0969 8.90744 15.7171 9.89098 14.9577 10.6503C14.1982 11.4095 13.2122 11.7892 11.9998 11.7892ZM3.58325 18.8175V17.9931C3.58325 17.2933 3.75419 16.6905 4.09608 16.1847C4.43798 15.6789 4.88696 15.2982 5.44303 15.0425C6.58904 14.5091 7.69856 14.1143 8.77158 13.8579C9.84458 13.6016 10.9202 13.4734 11.9985 13.4734C13.0847 13.4734 14.1587 13.6068 15.2205 13.8734C16.2823 14.1401 17.3862 14.5298 18.5322 15.0425C19.106 15.2935 19.5646 15.6721 19.9079 16.1783C20.2513 16.6844 20.4229 17.2893 20.4229 17.9931V18.8175C20.4229 19.3636 20.2364 19.8223 19.8635 20.1934C19.4905 20.5645 19.0308 20.7501 18.4844 20.7501H5.51585C4.9711 20.7501 4.51281 20.5645 4.14098 20.1934C3.76916 19.8223 3.58325 19.3636 3.58325 18.8175Z" fill="currentColor"/>
</g>
<defs>
<clipPath id="clip0_1_181">
<rect width="24" height="24" fill="white"/>
</clipPath>
</defs>
</svg>
