<svg width="24" height="24" viewBox="0 0 24 24" fill="none" xmlns="http://www.w3.org/2000/svg">
<path d="M11 11.825V15C11 15.2833 11.0958 15.5208 11.2875 15.7125C11.4792 15.9042 11.7167 16 12 16C12.2833 16 12.5208 15.9042 12.7125 15.7125C12.9042 15.5208 13 15.2833 13 15V11.85L13.9 12.725C14.1 12.9083 14.3333 13.0042 14.6 13.0125C14.8667 13.0208 15.1 12.925 15.3 12.725C15.5 12.525 15.6 12.2875 15.6 12.0125C15.6 11.7375 15.5 11.5 15.3 11.3L12.7 8.7C12.5 8.5 12.2667 8.4 12 8.4C11.7333 8.4 11.5 8.5 11.3 8.7L8.7 11.3C8.5 11.5 8.40417 11.7333 8.4125 12C8.42083 12.2667 8.525 12.5 8.725 12.7C8.925 12.8833 9.15833 12.9792 9.425 12.9875C9.69167 12.9958 9.925 12.9 10.125 12.7L11 11.825ZM4 20C3.45 20 2.97917 19.8042 2.5875 19.4125C2.19583 19.0208 2 18.55 2 18V6C2 5.45 2.19583 4.97917 2.5875 4.5875C2.97917 4.19583 3.45 4 4 4H20C20.55 4 21.0208 4.19583 21.4125 4.5875C21.8042 4.97917 22 5.45 22 6V18C22 18.55 21.8042 19.0208 21.4125 19.4125C21.0208 19.8042 20.55 20 20 20H4ZM4 18H20V6H4V18Z" fill="currentColor"/>
</svg>
