<svg xmlns="http://www.w3.org/2000/svg" width="24" height="24" viewBox="0 0 24 24" fill="none">
  <g clip-path="url(#clip0_1_39)">
    <path d="M10.975 13.025L9.04995 11.1C8.89843 10.95 8.69806 10.875 8.44883 10.875C8.19958 10.875 7.99162 10.9557 7.82495 11.1171C7.67495 11.2763 7.59995 11.4786 7.59995 11.7238C7.59995 11.9691 7.67495 12.1695 7.82495 12.325L10.1 14.625C10.309 14.875 10.5765 15 10.9022 15C11.228 15 11.5022 14.875 11.725 14.625L16.15 10.225C16.3166 10.075 16.4 9.88338 16.4 9.65005C16.4 9.41672 16.3225 9.20838 16.1677 9.02505C15.9796 8.85838 15.7673 8.77922 15.5311 8.78755C15.2948 8.79588 15.1011 8.88338 14.95 9.05005L10.975 13.025ZM12 22.4C11.8633 22.4 11.7316 22.3896 11.605 22.3688C11.4783 22.348 11.3683 22.3084 11.275 22.25C8.89162 21.4834 6.99162 20.0181 5.57495 17.8541C4.15828 15.6901 3.44995 13.3796 3.44995 10.9224V6.20005C3.44995 5.71527 3.58424 5.27312 3.85283 4.87362C4.12143 4.47412 4.48713 4.19127 4.94995 4.02505L11.225 1.67505C11.4583 1.59172 11.7166 1.55005 12 1.55005C12.2833 1.55005 12.55 1.59172 12.8 1.67505L19.075 4.02505C19.5214 4.1836 19.883 4.46381 20.1598 4.86567C20.4366 5.26752 20.575 5.71232 20.575 6.20005V10.9224C20.575 13.3796 19.8625 15.6901 18.4375 17.8541C17.0125 20.0181 15.1166 21.4834 12.75 22.25C12.64 22.3 12.5216 22.3375 12.395 22.3625C12.2683 22.3875 12.1366 22.4 12 22.4ZM12 20.2C13.8166 19.4834 15.3166 18.2848 16.5 16.6043C17.6833 14.9238 18.275 13.0295 18.275 10.9213V6.19755L12 3.85005L5.72495 6.20965V10.9097C5.72495 13.0256 6.31662 14.9238 7.49995 16.6043C8.68328 18.2848 10.1833 19.4834 12 20.2Z" fill="currentColor"/>
  </g>
  <defs>
    <clipPath id="clip0_1_39">
      <rect width="24" height="24" fill="white"/>
    </clipPath>
  </defs>
</svg>