<svg width="24" height="24" viewBox="0 0 24 24" fill="none" xmlns="http://www.w3.org/2000/svg">
<path d="M9.85 16C9.61667 16 9.41667 15.9167 9.25 15.75C9.08333 15.5833 9 15.3833 9 15.15V11.85C9 11.6167 9.08333 11.4167 9.25 11.25C9.41667 11.0833 9.61667 11 9.85 11H10V10C10 9.45 10.1958 8.97917 10.5875 8.5875C10.9792 8.19583 11.45 8 12 8C12.55 8 13.0208 8.19583 13.4125 8.5875C13.8042 8.97917 14 9.45 14 10V11H14.15C14.3833 11 14.5833 11.0833 14.75 11.25C14.9167 11.4167 15 11.6167 15 11.85V15.15C15 15.3833 14.9167 15.5833 14.75 15.75C14.5833 15.9167 14.3833 16 14.15 16H9.85ZM11 11H13V10C13 9.71667 12.9042 9.47917 12.7125 9.2875C12.5208 9.09583 12.2833 9 12 9C11.7167 9 11.4792 9.09583 11.2875 9.2875C11.0958 9.47917 11 9.71667 11 10V11ZM3 19C2.45 19 1.97917 18.8042 1.5875 18.4125C1.19583 18.0208 1 17.55 1 17V7C1 6.45 1.19583 5.97917 1.5875 5.5875C1.97917 5.19583 2.45 5 3 5H21C21.55 5 22.0208 5.19583 22.4125 5.5875C22.8042 5.97917 23 6.45 23 7V17C23 17.55 22.8042 18.0208 22.4125 18.4125C22.0208 18.8042 21.55 19 21 19H3ZM4 17V7H3V17H4ZM6 17H18V7H6V17ZM20 17H21V7H20V17Z" fill="currentColor"/>
</svg>
