<svg width="24" height="24" viewBox="0 0 24 24" fill="none" xmlns="http://www.w3.org/2000/svg">
<path d="M9 21C8.71667 21 8.47917 20.9042 8.2875 20.7125C8.09583 20.5208 8 20.2833 8 20V19H4C3.45 19 2.97917 18.8042 2.5875 18.4125C2.19583 18.0208 2 17.55 2 17V5C2 4.45 2.19583 3.97917 2.5875 3.5875C2.97917 3.19583 3.45 3 4 3H20C20.55 3 21.0208 3.19583 21.4125 3.5875C21.8042 3.97917 22 4.45 22 5V7C22 7.28333 21.9042 7.52083 21.7125 7.7125C21.5208 7.90417 21.2833 8 21 8C20.7167 8 20.4792 7.90417 20.2875 7.7125C20.0958 7.52083 20 7.28333 20 7V5H4V17H20V12H12.8L13.95 13.15C14.1333 13.3333 14.225 13.5667 14.225 13.85C14.225 14.1333 14.1333 14.3667 13.95 14.55C13.7667 14.7333 13.5333 14.825 13.25 14.825C12.9667 14.825 12.7333 14.7333 12.55 14.55L9.7 11.7C9.5 11.5 9.4 11.2667 9.4 11C9.4 10.7333 9.5 10.5 9.7 10.3L12.55 7.45C12.7333 7.26667 12.9667 7.175 13.25 7.175C13.5333 7.175 13.7667 7.26667 13.95 7.45C14.1333 7.63333 14.225 7.86667 14.225 8.15C14.225 8.43333 14.1333 8.66667 13.95 8.85L12.8 10H20C20.55 10 21.0208 10.1958 21.4125 10.5875C21.8042 10.9792 22 11.45 22 12V17C22 17.55 21.8042 18.0208 21.4125 18.4125C21.0208 18.8042 20.55 19 20 19H16V20C16 20.2833 15.9042 20.5208 15.7125 20.7125C15.5208 20.9042 15.2833 21 15 21H9Z" fill="currentColor"/>
</svg>
