<svg width="24" height="24" viewBox="0 0 24 24" fill="none" xmlns="http://www.w3.org/2000/svg">
<path d="M11 16C10.6 16 10.2125 15.9667 9.83751 15.9C9.46251 15.8333 9.10001 15.7333 8.75001 15.6C8.48334 15.5 8.30001 15.3167 8.20001 15.05C8.10001 14.7833 8.11667 14.5167 8.25001 14.25C8.38334 14 8.57501 13.8375 8.82501 13.7625C9.07501 13.6875 9.34167 13.6917 9.62501 13.775C9.84167 13.8583 10.0667 13.9167 10.3 13.95C10.5333 13.9833 10.7667 14 11 14C12.25 14 13.3125 13.5625 14.1875 12.6875C15.0625 11.8125 15.5 10.75 15.5 9.5C15.5 8.25 15.0625 7.1875 14.1875 6.3125C13.3125 5.4375 12.25 5 11 5C9.85001 5 8.85417 5.3875 8.01251 6.1625C7.17084 6.9375 6.68334 7.9 6.55001 9.05L7.10001 8.5C7.28334 8.31667 7.51667 8.225 7.80001 8.225C8.08334 8.225 8.31667 8.31667 8.50001 8.5C8.68334 8.68333 8.77501 8.91667 8.77501 9.2C8.77501 9.48333 8.68334 9.71667 8.50001 9.9L6.20001 12.2C6.00001 12.4 5.76667 12.5 5.50001 12.5C5.23334 12.5 5.00001 12.4 4.80001 12.2L2.50001 9.9C2.31667 9.71667 2.22501 9.48333 2.22501 9.2C2.22501 8.91667 2.32501 8.675 2.52501 8.475C2.70834 8.29167 2.93334 8.2 3.20001 8.2C3.46667 8.2 3.70001 8.29167 3.90001 8.475L4.55001 9.1C4.65001 7.38333 5.31667 5.9375 6.55001 4.7625C7.78334 3.5875 9.26667 3 11 3C12.8167 3 14.3542 3.62917 15.6125 4.8875C16.8708 6.14583 17.5 7.68333 17.5 9.5C17.5 10.2 17.3917 10.8833 17.175 11.55C16.9583 12.2167 16.6333 12.8 16.2 13.3L21.25 18.35C21.4333 18.5333 21.525 18.7667 21.525 19.05C21.525 19.3333 21.4333 19.5667 21.25 19.75C21.0667 19.9333 20.8333 20.025 20.55 20.025C20.2667 20.025 20.0333 19.9333 19.85 19.75L14.8 14.7C14.2667 15.1333 13.675 15.4583 13.025 15.675C12.375 15.8917 11.7 16 11 16Z" fill="currentColor"/>
</svg>
