<svg width="24" height="24" viewBox="0 0 24 24" fill="none" xmlns="http://www.w3.org/2000/svg">
<g clip-path="url(#clip0_1_188)">
<path d="M8.25 18.5C6.51667 18.5 5.04167 17.8917 3.825 16.675C2.60833 15.4583 2 13.9833 2 12.25C2 10.5167 2.60833 9.04167 3.825 7.825C5.04167 6.60833 6.51667 6 8.25 6H17.5C18.75 6 19.8125 6.4375 20.6875 7.3125C21.5625 8.1875 22 9.25 22 10.5C22 11.75 21.5625 12.8125 20.6875 13.6875C19.8125 14.5625 18.75 15 17.5 15H8.75C7.98333 15 7.33333 14.7333 6.8 14.2C6.26667 13.6667 6 13.0167 6 12.25C6 11.4833 6.26667 10.8333 6.8 10.3C7.33333 9.76667 7.98333 9.5 8.75 9.5H17C17.2833 9.5 17.5208 9.59583 17.7125 9.7875C17.9042 9.97917 18 10.2167 18 10.5C18 10.7833 17.9042 11.0208 17.7125 11.2125C17.5208 11.4042 17.2833 11.5 17 11.5H8.75C8.53333 11.5 8.35417 11.5708 8.2125 11.7125C8.07083 11.8542 8 12.0333 8 12.25C8 12.4667 8.07083 12.6458 8.2125 12.7875C8.35417 12.9292 8.53333 13 8.75 13H17.5C18.2 12.9833 18.7917 12.7375 19.275 12.2625C19.7583 11.7875 20 11.2 20 10.5C20 9.8 19.7583 9.20833 19.275 8.725C18.7917 8.24167 18.2 8 17.5 8H8.25C7.06667 7.98333 6.0625 8.39167 5.2375 9.225C4.4125 10.0583 4 11.0667 4 12.25C4 13.4167 4.4125 14.4083 5.2375 15.225C6.0625 16.0417 7.06667 16.4667 8.25 16.5H17C17.2833 16.5 17.5208 16.5958 17.7125 16.7875C17.9042 16.9792 18 17.2167 18 17.5C18 17.7833 17.9042 18.0208 17.7125 18.2125C17.5208 18.4042 17.2833 18.5 17 18.5H8.25Z" fill="currentColor"/>
</g>
<defs>
<clipPath id="clip0_1_188">
<rect width="24" height="24" fill="white"/>
</clipPath>
</defs>
</svg>
