<svg width="24" height="24" viewBox="0 0 24 24" fill="none" xmlns="http://www.w3.org/2000/svg">
<path d="M2.56865 3.39002C1.70341 3.39002 1 4.09676 1 4.96479V5.96578C1 6.13146 1.13431 6.26578 1.3 6.26578H3.83731C4.00299 6.26578 4.13731 6.13146 4.13731 5.96578V4.96479C4.13731 4.09676 3.4339 3.39215 2.56865 3.39215V3.39002Z" fill="#44475B"/>
<path d="M22.3505 15.9797H19.6426V5.56116C19.6426 3.99913 18.3652 2.72998 16.7966 2.72998H3.96469C4.71342 3.19477 5.21616 4.02248 5.21616 4.96479V5.26616C5.22479 5.33408 5.23127 5.40199 5.23127 5.47203V18.5498C5.23127 20.0057 6.42232 21.19 7.88741 21.19H20.2446C21.7636 21.19 23 19.9612 23 18.4501V16.6185C23 16.2662 22.7109 15.9818 22.3527 15.9818L22.3505 15.9797ZM9.35249 7.40759C9.50569 7.0383 9.98901 6.86215 10.2889 6.5629C10.591 6.26153 10.7658 5.77976 11.1369 5.62696C11.521 5.46778 11.9892 5.69063 12.3992 5.69063C12.8091 5.69063 13.2774 5.46778 13.6614 5.62696C14.0326 5.77976 14.2073 6.26153 14.5094 6.5629C14.8115 6.86427 15.2927 7.0383 15.4459 7.40759C15.6055 7.79173 15.3811 8.25864 15.3811 8.66613C15.3811 9.07362 15.6034 9.54265 15.4459 9.92467C15.2927 10.294 14.8093 10.4701 14.5094 10.7694C14.2095 11.0686 14.0326 11.5525 13.6614 11.7053C13.2774 11.8645 12.8091 11.6416 12.3992 11.6416C11.9892 11.6416 11.521 11.8645 11.1369 11.7053C10.7658 11.5525 10.591 11.0707 10.2889 10.7694C9.98686 10.468 9.50569 10.294 9.35249 9.92467C9.19282 9.54053 9.41722 9.07362 9.41722 8.66613C9.41722 8.25864 9.19498 7.78961 9.35249 7.40759ZM9.02883 13.8382C9.02883 13.4859 9.31797 13.2015 9.67615 13.2015H15.12C15.4782 13.2015 15.7674 13.4859 15.7674 13.8382C15.7674 14.1905 15.4782 14.4749 15.12 14.4749H9.67615C9.31797 14.4749 9.02883 14.1905 9.02883 13.8382ZM21.7032 18.4479C21.7032 19.2565 21.0473 19.9145 20.2424 19.9145H10.4918C10.7636 19.49 10.9211 18.987 10.9211 18.4479V17.2531H21.7032V18.4479Z" fill="#44475B"/>
</svg>
