<svg width="24" height="24" viewBox="0 0 24 24" fill="none" xmlns="http://www.w3.org/2000/svg">
<g clip-path="url(#clip0_1_27)">
<path d="M13.07 10.93H20.12C19.87 9.09995 19.09 7.51995 17.78 6.19995C16.47 4.87995 14.9 4.10995 13.07 3.86995V10.92V10.93ZM10.92 20.1299V3.87995C8.89996 4.14995 7.21996 5.04995 5.86996 6.58995C4.51996 8.12995 3.83996 9.93995 3.83996 12C3.83996 14.06 4.51996 15.87 5.86996 17.41C7.21996 18.95 8.89996 19.86 10.92 20.12V20.1299ZM13.07 20.1299C14.89 19.8499 16.45 19.06 17.75 17.77C19.05 16.48 19.84 14.92 20.13 13.08H13.08V20.1299H13.07ZM12 22.2999C10.58 22.2999 9.24996 22.03 7.98996 21.49C6.72996 20.9499 5.63996 20.21 4.71996 19.29C3.78996 18.36 3.05996 17.28 2.51996 16.03C1.97996 14.78 1.70996 13.44 1.70996 12C1.70996 10.56 1.97996 9.21995 2.51996 7.95995C3.05996 6.69995 3.78996 5.60995 4.71996 4.68995C5.64996 3.76995 6.72996 3.03995 7.97996 2.49995C9.22996 1.96995 10.57 1.69995 12.01 1.69995C13.45 1.69995 14.76 1.96995 16.02 2.50995C17.28 3.04995 18.37 3.78995 19.29 4.70995C20.22 5.63995 20.95 6.72995 21.49 7.98995C22.03 9.24995 22.3 10.59 22.3 12C22.3 13.41 22.03 14.78 21.5 16.03C20.97 17.28 20.24 18.37 19.31 19.29C18.38 20.21 17.29 20.9499 16.04 21.49C14.78 22.03 13.44 22.2999 12 22.2999Z" fill="currentColor"/>
</g>
<defs>
<clipPath id="clip0_1_27">
<rect width="24" height="24" fill="white"/>
</clipPath>
</defs>
</svg>
