<svg width="24" height="24" viewBox="0 0 24 24" fill="none" xmlns="http://www.w3.org/2000/svg">
<path d="M15.85 9C15.6167 9 15.4167 8.91667 15.25 8.75C15.0833 8.58333 15 8.38333 15 8.15V4.85C15 4.61667 15.0833 4.41667 15.25 4.25C15.4167 4.08333 15.6167 4 15.85 4H16V3C16 2.45 16.1958 1.97917 16.5875 1.5875C16.9792 1.19583 17.45 1 18 1C18.55 1 19.0208 1.19583 19.4125 1.5875C19.8042 1.97917 20 2.45 20 3V4H20.15C20.3833 4 20.5833 4.08333 20.75 4.25C20.9167 4.41667 21 4.61667 21 4.85V8.15C21 8.38333 20.9167 8.58333 20.75 8.75C20.5833 8.91667 20.3833 9 20.15 9H15.85ZM17 4H19V3C19 2.71667 18.9042 2.47917 18.7125 2.2875C18.5208 2.09583 18.2833 2 18 2C17.7167 2 17.4792 2.09583 17.2875 2.2875C17.0958 2.47917 17 2.71667 17 3V4ZM11.025 20.775L9.1 18.85C8.91667 18.6667 8.825 18.4333 8.825 18.15C8.825 17.8667 8.91667 17.6333 9.1 17.45C9.28333 17.2667 9.51667 17.175 9.8 17.175C10.0833 17.175 10.3167 17.2667 10.5 17.45L14.75 21.7C14.95 21.9 15.0083 22.1333 14.925 22.4C14.8417 22.6667 14.6583 22.825 14.375 22.875C14.1417 22.9083 13.9125 22.9292 13.6875 22.9375C13.4625 22.9458 13.2333 22.95 13 22.95C11.35 22.95 9.79583 22.6333 8.3375 22C6.87917 21.3667 5.60833 20.5083 4.525 19.425C3.44167 18.3417 2.58333 17.0708 1.95 15.6125C1.31667 14.1542 1 12.6 1 10.95C1 10.6667 1.09583 10.4292 1.2875 10.2375C1.47917 10.0458 1.71667 9.95 2 9.95C2.28333 9.95 2.52083 10.0458 2.7125 10.2375C2.90417 10.4292 3 10.6667 3 10.95C3 12.15 3.20417 13.2917 3.6125 14.375C4.02083 15.4583 4.58333 16.4333 5.3 17.3C6.01667 18.1667 6.86667 18.9042 7.85 19.5125C8.83333 20.1208 9.89167 20.5417 11.025 20.775ZM14.75 18.95C14.5167 18.95 14.2792 18.9042 14.0375 18.8125C13.7958 18.7208 13.5833 18.5833 13.4 18.4L5.55 10.55C5.36667 10.3667 5.22917 10.1542 5.1375 9.9125C5.04583 9.67083 5 9.43333 5 9.2C5 8.95 5.04583 8.70833 5.1375 8.475C5.22917 8.24167 5.36667 8.03333 5.55 7.85L9.9 3.5C10.0833 3.31667 10.2958 3.175 10.5375 3.075C10.7792 2.975 11.0167 2.925 11.25 2.925C11.5 2.925 11.7417 2.975 11.975 3.075C12.2083 3.175 12.4167 3.31667 12.6 3.5L13.025 3.925C13.2083 4.10833 13.3042 4.33333 13.3125 4.6C13.3208 4.86667 13.2333 5.1 13.05 5.3C12.8667 5.5 12.6333 5.60417 12.35 5.6125C12.0667 5.62083 11.825 5.525 11.625 5.325L11.25 4.95L7 9.2L14.75 16.95L19 12.7L18.65 12.35C18.4667 12.1667 18.375 11.9333 18.375 11.65C18.375 11.3667 18.4667 11.1333 18.65 10.95C18.8333 10.7667 19.0667 10.675 19.35 10.675C19.6333 10.675 19.8667 10.7667 20.05 10.95L20.45 11.35C20.6333 11.5333 20.775 11.7417 20.875 11.975C20.975 12.2083 21.025 12.45 21.025 12.7C21.025 12.9333 20.975 13.1708 20.875 13.4125C20.775 13.6542 20.6333 13.8667 20.45 14.05L16.1 18.4C15.9167 18.5833 15.7083 18.7208 15.475 18.8125C15.2417 18.9042 15 18.95 14.75 18.95Z" fill="currentColor"/>
</svg>
