<svg width="24" height="24" viewBox="0 0 24 24" fill="none" xmlns="http://www.w3.org/2000/svg">
<path d="M8.175 14.975L11.025 7.475C11.075 7.325 11.1667 7.20833 11.3 7.125C11.4333 7.04167 11.575 7 11.725 7H12.275C12.425 7 12.5667 7.04167 12.7 7.125C12.8333 7.20833 12.925 7.325 12.975 7.475L15.825 15.05C15.9083 15.2833 15.8833 15.5 15.75 15.7C15.6167 15.9 15.425 16 15.175 16C15.025 16 14.8833 15.9542 14.75 15.8625C14.6167 15.7708 14.525 15.65 14.475 15.5L13.85 13.7H10.2L9.575 15.525C9.525 15.675 9.43333 15.7917 9.3 15.875C9.16667 15.9583 9.025 16 8.875 16C8.60833 16 8.40417 15.8917 8.2625 15.675C8.12083 15.4583 8.09167 15.225 8.175 14.975ZM10.65 12.4H13.35L12.05 8.65H11.95L10.65 12.4ZM1 22V18C1 17.7167 1.09583 17.4792 1.2875 17.2875C1.47917 17.0958 1.71667 17 2 17H3V7H2C1.71667 7 1.47917 6.90417 1.2875 6.7125C1.09583 6.52083 1 6.28333 1 6V2C1 1.71667 1.09583 1.47917 1.2875 1.2875C1.47917 1.09583 1.71667 1 2 1H6C6.28333 1 6.52083 1.09583 6.7125 1.2875C6.90417 1.47917 7 1.71667 7 2V3H17V2C17 1.71667 17.0958 1.47917 17.2875 1.2875C17.4792 1.09583 17.7167 1 18 1H22C22.2833 1 22.5208 1.09583 22.7125 1.2875C22.9042 1.47917 23 1.71667 23 2V6C23 6.28333 22.9042 6.52083 22.7125 6.7125C22.5208 6.90417 22.2833 7 22 7H21V17H22C22.2833 17 22.5208 17.0958 22.7125 17.2875C22.9042 17.4792 23 17.7167 23 18V22C23 22.2833 22.9042 22.5208 22.7125 22.7125C22.5208 22.9042 22.2833 23 22 23H18C17.7167 23 17.4792 22.9042 17.2875 22.7125C17.0958 22.5208 17 22.2833 17 22V21H7V22C7 22.2833 6.90417 22.5208 6.7125 22.7125C6.52083 22.9042 6.28333 23 6 23H2C1.71667 23 1.47917 22.9042 1.2875 22.7125C1.09583 22.5208 1 22.2833 1 22ZM7 19H17V18C17 17.7167 17.0958 17.4792 17.2875 17.2875C17.4792 17.0958 17.7167 17 18 17H19V7H18C17.7167 7 17.4792 6.90417 17.2875 6.7125C17.0958 6.52083 17 6.28333 17 6V5H7V6C7 6.28333 6.90417 6.52083 6.7125 6.7125C6.52083 6.90417 6.28333 7 6 7H5V17H6C6.28333 17 6.52083 17.0958 6.7125 17.2875C6.90417 17.4792 7 17.7167 7 18V19ZM3 5H5V3H3V5ZM19 5H21V3H19V5ZM19 21H21V19H19V21ZM3 21H5V19H3V21Z" fill="currentColor"/>
</svg>
