<svg width="24" height="24" viewBox="0 0 24 24" fill="none" xmlns="http://www.w3.org/2000/svg">
<path d="M12.5 12L6.325 6.3C6.225 6.2 6.14583 6.0875 6.0875 5.9625C6.02917 5.8375 6 5.70833 6 5.575V5C6 4.71667 6.09583 4.47917 6.2875 4.2875C6.47917 4.09583 6.71667 4 7 4H16.5C16.9167 4 17.2708 4.14583 17.5625 4.4375C17.8542 4.72917 18 5.08333 18 5.5C18 5.91667 17.8542 6.27083 17.5625 6.5625C17.2708 6.85417 16.9167 7 16.5 7H10.775L15.375 11.275C15.5917 11.475 15.7 11.7167 15.7 12C15.7 12.2833 15.5917 12.525 15.375 12.725L10.775 17H16.5C16.9167 17 17.2708 17.1458 17.5625 17.4375C17.8542 17.7292 18 18.0833 18 18.5C18 18.9167 17.8542 19.2708 17.5625 19.5625C17.2708 19.8542 16.9167 20 16.5 20H6.725C6.525 20 6.35417 19.9292 6.2125 19.7875C6.07083 19.6458 6 19.475 6 19.275V18.325C6 18.225 6.01667 18.1292 6.05 18.0375C6.08333 17.9458 6.14167 17.8583 6.225 17.775L12.5 12Z" fill="currentColor"/>
</svg>
