<svg width="24" height="24" viewBox="0 0 24 24" fill="none" xmlns="http://www.w3.org/2000/svg">
<g clip-path="url(#clip0_1_641)">
<path d="M10.65 15.4749L15.525 12.3499C15.7583 12.1999 15.875 11.9915 15.875 11.7249C15.875 11.4582 15.7583 11.2499 15.525 11.0999L10.65 7.97485C10.4 7.80819 10.1458 7.79569 9.8875 7.93735C9.62917 8.07902 9.5 8.29985 9.5 8.59985V14.8499C9.5 15.1499 9.62917 15.3707 9.8875 15.5124C10.1458 15.654 10.4 15.6415 10.65 15.4749ZM12 21.7249C10.6167 21.7249 9.31667 21.4624 8.1 20.9374C6.88333 20.4124 5.825 19.6999 4.925 18.7999C4.025 17.8999 3.3125 16.8415 2.7875 15.6249C2.2625 14.4082 2 13.1082 2 11.7249C2 10.3415 2.2625 9.04152 2.7875 7.82485C3.3125 6.60819 4.025 5.54985 4.925 4.64985C5.825 3.74985 6.88333 3.03735 8.1 2.51235C9.31667 1.98735 10.6167 1.72485 12 1.72485C13.3833 1.72485 14.6833 1.98735 15.9 2.51235C17.1167 3.03735 18.175 3.74985 19.075 4.64985C19.975 5.54985 20.6875 6.60819 21.2125 7.82485C21.7375 9.04152 22 10.3415 22 11.7249C22 13.1082 21.7375 14.4082 21.2125 15.6249C20.6875 16.8415 19.975 17.8999 19.075 18.7999C18.175 19.6999 17.1167 20.4124 15.9 20.9374C14.6833 21.4624 13.3833 21.7249 12 21.7249Z" fill="currentColor"/>
</g>
<defs>
<clipPath id="clip0_1_641">
<rect width="24" height="24" fill="white"/>
</clipPath>
</defs>
</svg>
