<svg width="24" height="24" viewBox="0 0 24 24" fill="none" xmlns="http://www.w3.org/2000/svg">
<path d="M6 18L3.7 20.3C3.38333 20.6167 3.02083 20.6875 2.6125 20.5125C2.20417 20.3375 2 20.025 2 19.575V4C2 3.45 2.19583 2.97917 2.5875 2.5875C2.97917 2.19583 3.45 2 4 2H20C20.55 2 21.0208 2.19583 21.4125 2.5875C21.8042 2.97917 22 3.45 22 4V9C22 9.28333 21.9042 9.52083 21.7125 9.7125C21.5208 9.90417 21.2833 10 21 10C20.7167 10 20.4792 9.90417 20.2875 9.7125C20.0958 9.52083 20 9.28333 20 9V4H4V17.125L5.15 16H14C14.2833 16 14.5208 16.0958 14.7125 16.2875C14.9042 16.4792 15 16.7167 15 17C15 17.2833 14.9042 17.5208 14.7125 17.7125C14.5208 17.9042 14.2833 18 14 18H6ZM19 18H18C17.7167 18 17.4792 17.9042 17.2875 17.7125C17.0958 17.5208 17 17.2833 17 17V13C17 12.7167 17.0958 12.4792 17.2875 12.2875C17.4792 12.0958 17.7167 12 18 12H20.875C21.1417 12 21.3458 12.1125 21.4875 12.3375C21.6292 12.5625 21.65 12.8 21.55 13.05L20.3 16H21.275C21.5583 16 21.775 16.1167 21.925 16.35C22.075 16.5833 22.0833 16.825 21.95 17.075L19.475 22.05C19.4083 22.1667 19.3125 22.2125 19.1875 22.1875C19.0625 22.1625 19 22.0833 19 21.95V18Z" fill="currentColor"/>
</svg>
