<svg width="24" height="24" viewBox="0 0 24 24" fill="none" xmlns="http://www.w3.org/2000/svg">
<path d="M4 17C3.45 17 2.97917 16.8041 2.5875 16.4125C2.19583 16.0208 2 15.55 2 15V7.14997C2 6.89997 2.07083 6.65414 2.2125 6.41247C2.35417 6.17081 2.55 5.98331 2.8 5.84997L9.6 2.44997C9.88333 2.31664 10.1833 2.24581 10.5 2.23747C10.8167 2.22914 11.1167 2.29997 11.4 2.44997L18.05 5.84997C18.25 5.94997 18.4208 6.10831 18.5625 6.32498C18.7042 6.54164 18.8 6.76664 18.85 6.99997H15.925L10.5 4.24997L4 7.47498V17ZM7 21C6.45 21 5.97917 20.8041 5.5875 20.4125C5.19583 20.0208 5 19.55 5 19V9.99997C5 9.44997 5.19583 8.97914 5.5875 8.58747C5.97917 8.19581 6.45 7.99997 7 7.99997H20C20.55 7.99997 21.0208 8.19581 21.4125 8.58747C21.8042 8.97914 22 9.44997 22 9.99997V19C22 19.55 21.8042 20.0208 21.4125 20.4125C21.0208 20.8041 20.55 21 20 21H7ZM12.575 14.875L7 12V19H20V12L14.425 14.875C14.1417 15.025 13.8333 15.1 13.5 15.1C13.1667 15.1 12.8583 15.025 12.575 14.875ZM13.5 13.35L20 9.99997H7L13.5 13.35Z" fill="currentColor"/>
</svg>
