<svg width="24" height="24" viewBox="0 0 24 24" fill="none" xmlns="http://www.w3.org/2000/svg">
<path d="M22.3634 16.0484H19.6513V5.63095C19.6513 4.06908 18.3801 2.80005 16.8204 2.80005H3.82242C3.82242 2.80005 3.80332 2.80217 3.79483 2.80217C3.77573 2.80217 3.75875 2.80005 3.73965 2.80005C2.22871 2.80005 1 4.02876 1 5.5397V7.37109C1 7.72336 1.28436 8.00773 1.63664 8.00773H5.2888V18.6162C5.2888 20.072 6.47294 21.2561 7.92872 21.2561H20.2603C21.7713 21.2561 23 20.0274 23 18.5165V16.6851C23 16.3328 22.7156 16.0484 22.3634 16.0484ZM9.67734 16.6851V18.5165C9.67734 19.325 9.01949 19.9828 8.21096 19.9828H7.93084C7.17749 19.9828 6.56419 19.3695 6.56419 18.6162V5.5397C6.56419 5.00069 6.40716 4.49774 6.13765 4.07332H16.8225C17.682 4.07332 18.3801 4.7715 18.3801 5.63095V16.0484H10.314C9.96171 16.0484 9.67734 16.3328 9.67734 16.6851ZM21.7267 18.5165C21.7267 19.325 21.0689 19.9828 20.2603 19.9828H10.5241C10.7936 19.5584 10.9506 19.0555 10.9506 18.5165V17.3217H21.7289V18.5165H21.7267Z" fill="#44475B"/>
<path d="M15.1479 13.2706H9.71527C9.363 13.2706 9.07864 13.555 9.07864 13.9072C9.07864 14.2595 9.363 14.5439 9.71527 14.5439H15.1479C15.5002 14.5439 15.7845 14.2595 15.7845 13.9072C15.7845 13.555 15.5002 13.2706 15.1479 13.2706Z" fill="#44475B"/>
<path d="M9.39276 9.99425C9.54556 10.3635 10.0273 10.5396 10.3286 10.8389C10.63 11.1381 10.804 11.6219 11.1732 11.7747C11.5552 11.9339 12.0242 11.711 12.4316 11.711C12.8391 11.711 13.3081 11.9339 13.6901 11.7747C14.0593 11.6219 14.2354 11.1402 14.5347 10.8389C14.836 10.5375 15.3177 10.3635 15.4705 9.99425C15.6297 9.61227 15.4068 9.14328 15.4068 8.73584C15.4068 8.32839 15.6297 7.8594 15.4705 7.47742C15.3177 7.10817 14.836 6.93204 14.5347 6.63282C14.2333 6.33148 14.0593 5.84976 13.6901 5.69696C13.3081 5.5378 12.8391 5.76063 12.4316 5.76063C12.0242 5.76063 11.5552 5.5378 11.1732 5.69696C10.804 5.84976 10.6278 6.33148 10.3286 6.63282C10.0273 6.93416 9.54556 7.10817 9.39276 7.47742C9.23361 7.8594 9.45643 8.32839 9.45643 8.73584C9.45643 9.14328 9.23361 9.61227 9.39276 9.99425Z" fill="#44475B"/>
</svg>
