<svg width="24" height="24" viewBox="0 0 24 24" fill="none" xmlns="http://www.w3.org/2000/svg">
<g clip-path="url(#clip0_6192_11)">
<path d="M16.3896 19.79H6.89959C6.34959 19.79 5.85959 19.48 5.62959 18.98C5.39959 18.48 5.47959 17.91 5.83959 17.49L10.5496 12.01L5.83959 6.50996C5.47959 6.08996 5.39959 5.51996 5.62959 5.01996C5.85959 4.51996 6.34959 4.20996 6.89959 4.20996H16.3896C17.2196 4.20996 17.8996 4.88996 17.8996 5.71996V8.68996C17.8996 9.09996 17.5596 9.43996 17.1496 9.43996C16.7396 9.43996 16.3996 9.09996 16.3996 8.68996V5.71996H7.12959L12.1096 11.51C12.3496 11.79 12.3496 12.21 12.1096 12.49L7.12959 18.29H16.3896V15.31C16.3996 14.9 16.7396 14.56 17.1496 14.56C17.5596 14.56 17.8996 14.9 17.8996 15.31V18.28C17.8996 19.11 17.2196 19.79 16.3896 19.79Z" fill="#353839"/>
<path d="M16.3096 8.69043V5.80957H7.3262L12.1778 11.4512C12.4467 11.7649 12.4467 12.2351 12.1778 12.5488L7.3262 18.2002H16.2998V15.3076C16.3111 14.8502 16.6894 14.4698 17.1494 14.4697C17.609 14.4697 17.9891 14.85 17.9893 15.3096V18.2803C17.9891 19.1598 17.2692 19.8798 16.3897 19.8799H6.89945C6.31481 19.8798 5.79274 19.5498 5.54788 19.0176C5.30313 18.4855 5.38876 17.8782 5.77152 17.4316L10.4307 12.0088L5.77152 6.56836C5.38875 6.1218 5.30315 5.51449 5.54788 4.98242C5.79274 4.45014 6.3148 4.12017 6.89945 4.12012L6.89959 4.20996C6.34959 4.20996 5.85959 4.51996 5.62959 5.01996L5.55765 5.20996C5.42368 5.65984 5.52453 6.14239 5.83959 6.50996L10.5496 12.01L5.83959 17.49L5.71781 17.6543C5.4646 18.0515 5.4285 18.5426 5.62959 18.98C5.8308 19.4174 6.23104 19.7091 6.69632 19.7754L6.89959 19.79H16.3896L16.543 19.7822C17.2512 19.7098 17.8191 19.1418 17.8916 18.4336L17.8996 18.28V15.31C17.8996 14.9 17.5596 14.56 17.1496 14.56C16.7396 14.56 16.3996 14.9 16.3896 15.31V18.29H7.12959L12.1096 12.49C12.3496 12.21 12.3496 11.79 12.1096 11.51L7.12959 5.71996H16.3996V8.68996L16.4034 8.76562C16.4395 9.11586 16.7231 9.40013 17.0733 9.43652L17.1496 9.43996C17.5341 9.43996 17.8568 9.14095 17.8955 8.76562L17.8996 8.68996V5.71996C17.8995 4.94183 17.3017 4.29536 16.543 4.21777L16.3896 4.20996L16.3897 4.12012C17.2693 4.12017 17.9892 4.84016 17.9893 5.71973V8.69043C17.989 9.14993 17.609 9.53027 17.1494 9.53027C16.69 9.53019 16.3099 9.14988 16.3096 8.69043ZM16.3897 4.12012L16.3896 4.20996H6.89959L6.89945 4.12012H16.3897Z" fill="#353839"/>
</g>
<defs>
<clipPath id="clip0_6192_11">
<rect width="24" height="24" fill="white"/>
</clipPath>
</defs>
</svg>
