<svg width="24" height="24" viewBox="0 0 24 24" fill="none" xmlns="http://www.w3.org/2000/svg">
<path d="M12 6C11.45 6 10.9792 5.80417 10.5875 5.4125C10.1958 5.02083 9.99999 4.55 9.99999 4C9.99999 3.45 10.1958 2.97917 10.5875 2.5875C10.9792 2.19583 11.45 2 12 2C12.55 2 13.0208 2.19583 13.4125 2.5875C13.8042 2.97917 14 3.45 14 4C14 4.55 13.8042 5.02083 13.4125 5.4125C13.0208 5.80417 12.55 6 12 6ZM8.99999 21V9C8.18333 8.93333 7.35833 8.84167 6.52499 8.725C5.69166 8.60833 4.87499 8.45833 4.07499 8.275C3.79166 8.20833 3.56249 8.05 3.38749 7.8C3.21249 7.55 3.16666 7.28333 3.24999 7C3.33333 6.71667 3.50833 6.50833 3.77499 6.375C4.04166 6.24167 4.32499 6.20833 4.62499 6.275C5.79166 6.525 7.00416 6.70833 8.26249 6.825C9.52083 6.94167 10.7667 7 12 7C13.2333 7 14.4792 6.94167 15.7375 6.825C16.9958 6.70833 18.2083 6.525 19.375 6.275C19.675 6.20833 19.9583 6.24167 20.225 6.375C20.4917 6.50833 20.6667 6.71667 20.75 7C20.8333 7.28333 20.7875 7.55 20.6125 7.8C20.4375 8.05 20.2083 8.20833 19.925 8.275C19.125 8.45833 18.3083 8.60833 17.475 8.725C16.6417 8.84167 15.8167 8.93333 15 9V21C15 21.2833 14.9042 21.5208 14.7125 21.7125C14.5208 21.9042 14.2833 22 14 22C13.7167 22 13.4792 21.9042 13.2875 21.7125C13.0958 21.5208 13 21.2833 13 21V16H11V21C11 21.2833 10.9042 21.5208 10.7125 21.7125C10.5208 21.9042 10.2833 22 9.99999 22C9.71666 22 9.47916 21.9042 9.28749 21.7125C9.09583 21.5208 8.99999 21.2833 8.99999 21Z" fill="currentColor"/>
</svg>
