<svg width="24" height="24" viewBox="0 0 24 24" fill="none" xmlns="http://www.w3.org/2000/svg">
<g id="mds_ic_split_panel">
<path id="vector" d="M13 5C13 4.45 13.1958 3.97917 13.5875 3.5875C13.9792 3.19583 14.45 3 15 3L19 3C19.55 3 20.0208 3.19583 20.4125 3.5875C20.8042 3.97917 21 4.45 21 5L21 19C21 19.55 20.8042 20.0208 20.4125 20.4125C20.0208 20.8042 19.55 21 19 21L15 21C14.45 21 13.9792 20.8042 13.5875 20.4125C13.1958 20.0208 13 19.55 13 19L13 5ZM15 5L15 19L19 19L19 5L15 5ZM3 5C3 4.45 3.19583 3.97917 3.5875 3.5875C3.97917 3.19583 4.45 3 5 3L9 3C9.55 3 10.0208 3.19583 10.4125 3.5875C10.8042 3.97917 11 4.45 11 5L11 19C11 19.55 10.8042 20.0208 10.4125 20.4125C10.0208 20.8042 9.55 21 9 21L5 21C4.45 21 3.97917 20.8042 3.5875 20.4125C3.19583 20.0208 3 19.55 3 19L3 5ZM5 5L5 19L9 19L9 5L5 5Z" fill="currentColor"/>
</g>
</svg>
