<svg width="24" height="24" viewBox="0 0 24 24" fill="none" xmlns="http://www.w3.org/2000/svg">
<g clip-path="url(#clip0_3443_51)">
<path fill-rule="evenodd" clip-rule="evenodd" d="M4.47411 8.05486L4.32927 8.77908H2.5C1.94772 8.77908 1.5 9.2268 1.5 9.77908C1.5 10.3314 1.94772 10.7791 2.5 10.7791H2.69258L4.99778 19.3169C5.18625 20.0149 5.81943 20.4998 6.54246 20.4998H17.4577C18.1807 20.4998 18.8139 20.0149 19.0024 19.3168L21.3076 10.7791H21.5C22.0523 10.7791 22.5 10.3314 22.5 9.77908C22.5 9.2268 22.0523 8.77908 21.5 8.77908H19.6707L19.5258 8.05487C19.1121 5.9863 17.2958 4.49731 15.1863 4.49731H8.81362C6.70409 4.49731 4.88783 5.9863 4.47411 8.05486ZM17.5647 8.4471L17.6311 8.77908H6.36888L6.43527 8.4471C6.66202 7.31338 7.65746 6.49731 8.81362 6.49731L15.1863 6.49732C16.3425 6.49732 17.3379 7.31338 17.5647 8.4471ZM9.42838 12.2155C9.27119 11.7439 8.7615 11.4891 8.28996 11.6463C7.81841 11.8035 7.56356 12.3132 7.72075 12.7847C8.23183 14.318 9.60879 15.9692 12 15.9692C14.3912 15.9692 15.7682 14.318 16.2793 12.7847C16.4365 12.3132 16.1816 11.8035 15.7101 11.6463C15.2385 11.4891 14.7288 11.7439 14.5717 12.2155C14.2264 13.2513 13.3924 14.1692 12 14.1692C10.6076 14.1692 9.77365 13.2513 9.42838 12.2155Z" fill="currentColor"/>
</g>
<defs>
<clipPath id="clip0_3443_51">
<rect width="24" height="24" fill="currentColor"/>
</clipPath>
</defs>
</svg>
