<svg width="24" height="24" viewBox="0 0 24 24" fill="none" xmlns="http://www.w3.org/2000/svg">
<path d="M17 21C16.7167 21 16.4792 20.9042 16.2875 20.7125C16.0958 20.5208 16 20.2833 16 20V12.05C16 11.7667 16.0958 11.5292 16.2875 11.3375C16.4792 11.1458 16.7167 11.05 17 11.05H21C21.2833 11.05 21.5208 11.1458 21.7125 11.3375C21.9042 11.5292 22 11.7667 22 12.05V20C22 20.2833 21.9042 20.5208 21.7125 20.7125C21.5208 20.9042 21.2833 21 21 21H17ZM17 19H21V13.05H17V19ZM9 21C8.71667 21 8.47917 20.9042 8.2875 20.7125C8.09583 20.5208 8 20.2833 8 20C8 19.7167 8.09583 19.4792 8.2875 19.2875C8.47917 19.0958 8.71667 19 9 19H10V17H4C3.45 17 2.97917 16.8042 2.5875 16.4125C2.19583 16.0208 2 15.55 2 15V5C2 4.45 2.19583 3.97917 2.5875 3.5875C2.97917 3.19583 3.45 3 4 3H18C18.55 3 19.0208 3.19583 19.4125 3.5875C19.8042 3.97917 20 4.45 20 5V8.05C20 8.33333 19.9042 8.57083 19.7125 8.7625C19.5208 8.95417 19.2833 9.05 19 9.05C18.7167 9.05 18.4792 8.95417 18.2875 8.7625C18.0958 8.57083 18 8.33333 18 8.05V5H4V15H13C13.2833 15 13.5208 15.0958 13.7125 15.2875C13.9042 15.4792 14 15.7167 14 16C14 16.2833 13.9042 16.5208 13.7125 16.7125C13.5208 16.9042 13.2833 17 13 17H12V19H13C13.2833 19 13.5208 19.0958 13.7125 19.2875C13.9042 19.4792 14 19.7167 14 20C14 20.2833 13.9042 20.5208 13.7125 20.7125C13.5208 20.9042 13.2833 21 13 21H9ZM11 12L12.7 13.275C12.8 13.3583 12.8958 13.3667 12.9875 13.3C13.0792 13.2333 13.1083 13.1417 13.075 13.025L12.45 10.9L14.2 9.5C14.2833 9.41667 14.3083 9.32083 14.275 9.2125C14.2417 9.10417 14.1667 9.05 14.05 9.05H11.9L11.25 7C11.2167 6.88333 11.1333 6.825 11 6.825C10.8667 6.825 10.7833 6.88333 10.75 7L10.1 9.05H7.95C7.83333 9.05 7.75833 9.10417 7.725 9.2125C7.69167 9.32083 7.71667 9.41667 7.8 9.5L9.55 10.9L8.925 13.025C8.89167 13.1417 8.92083 13.2333 9.0125 13.3C9.10417 13.3667 9.2 13.3583 9.3 13.275L11 12Z" fill="currentColor"/>
</svg>
