<svg width="24" height="24" viewBox="0 0 24 24" fill="none" xmlns="http://www.w3.org/2000/svg">
<g clip-path="url(#clip0_1_462)">
<path d="M19.5 4.59995L18.325 4.07495C18.1083 4.00828 18 3.86245 18 3.63745C18 3.41245 18.1083 3.24995 18.325 3.14995L19.5 2.64995L20 1.47495C20.1 1.29162 20.2542 1.19995 20.4625 1.19995C20.6708 1.19995 20.8167 1.29162 20.9 1.47495L21.425 2.64995L22.6 3.17495C22.8 3.25828 22.9 3.40828 22.9 3.62495C22.9 3.84162 22.8 3.99162 22.6 4.07495L21.425 4.59995L20.925 5.77495C20.8417 5.97495 20.6875 6.07495 20.4625 6.07495C20.2375 6.07495 20.0917 5.97495 20.025 5.77495L19.5 4.59995ZM4.625 22.25L1.85 19.475C1.61667 19.2583 1.5 19.0041 1.5 18.7125C1.5 18.4208 1.61667 18.1583 1.85 17.9249L13.4 6.37495C13.6333 6.14162 13.9125 6.02495 14.2375 6.02495C14.5625 6.02495 14.8417 6.14162 15.075 6.37495L17.75 9.02495C17.95 9.24162 18.05 9.52079 18.05 9.86245C18.05 10.2041 17.95 10.4833 17.75 10.7L6.175 22.25C5.94167 22.4833 5.67917 22.6 5.3875 22.6C5.09583 22.6 4.84167 22.4833 4.625 22.25ZM5.3 20.35L13.1 12.55L11.525 10.975L3.725 18.775L5.3 20.35Z" fill="currentColor"/>
</g>
<defs>
<clipPath id="clip0_1_462">
<rect width="24" height="24" fill="white"/>
</clipPath>
</defs>
</svg>
