<svg width="24" height="24" viewBox="0 0 24 24" fill="none" xmlns="http://www.w3.org/2000/svg">
<path d="M17.15 13H13C12.7167 13 12.4792 12.9042 12.2875 12.7125C12.0958 12.5208 12 12.2833 12 12C12 11.7167 12.0958 11.4792 12.2875 11.2875C12.4792 11.0958 12.7167 11 13 11H17.15L16.275 10.1C16.0917 9.91667 16 9.6875 16 9.4125C16 9.1375 16.1 8.9 16.3 8.7C16.4833 8.51667 16.7167 8.425 17 8.425C17.2833 8.425 17.5167 8.51667 17.7 8.7L20.3 11.3C20.5 11.5 20.6 11.7333 20.6 12C20.6 12.2667 20.5 12.5 20.3 12.7L17.7 15.3C17.5167 15.4833 17.2875 15.5792 17.0125 15.5875C16.7375 15.5958 16.5 15.5 16.3 15.3C16.1167 15.1167 16.0208 14.8875 16.0125 14.6125C16.0042 14.3375 16.0917 14.1 16.275 13.9L17.15 13ZM7 20V21H17V20H7ZM7 4H17V3H7V4ZM7 23C6.45 23 5.97917 22.8042 5.5875 22.4125C5.19583 22.0208 5 21.55 5 21V3C5 2.45 5.19583 1.97917 5.5875 1.5875C5.97917 1.19583 6.45 1 7 1H17C17.55 1 18.0208 1.19583 18.4125 1.5875C18.8042 1.97917 19 2.45 19 3V6C19 6.28333 18.9042 6.52083 18.7125 6.7125C18.5208 6.90417 18.2833 7 18 7C17.7167 7 17.4792 6.90417 17.2875 6.7125C17.0958 6.52083 17 6.28333 17 6H7V18H17C17 17.7167 17.0958 17.4792 17.2875 17.2875C17.4792 17.0958 17.7167 17 18 17C18.2833 17 18.5208 17.0958 18.7125 17.2875C18.9042 17.4792 19 17.7167 19 18V21C19 21.55 18.8042 22.0208 18.4125 22.4125C18.0208 22.8042 17.55 23 17 23H7Z" fill="currentColor"/>
</svg>
