<svg width="24" height="24" viewBox="0 0 24 24" fill="none" xmlns="http://www.w3.org/2000/svg">
<path d="M11 17.8L10.1 18.7C9.91667 18.8833 9.68333 18.975 9.4 18.975C9.11667 18.975 8.88333 18.8833 8.7 18.7C8.51667 18.5167 8.425 18.2833 8.425 18C8.425 17.7167 8.51667 17.4833 8.7 17.3L11.3 14.7C11.4 14.6 11.5083 14.5292 11.625 14.4875C11.7417 14.4458 11.8667 14.425 12 14.425C12.1333 14.425 12.2583 14.4458 12.375 14.4875C12.4917 14.5292 12.6 14.6 12.7 14.7L15.3 17.3C15.4833 17.4833 15.575 17.7167 15.575 18C15.575 18.2833 15.4833 18.5167 15.3 18.7C15.1167 18.8833 14.8833 18.975 14.6 18.975C14.3167 18.975 14.0833 18.8833 13.9 18.7L13 17.8V21C13 21.2833 12.9042 21.5208 12.7125 21.7125C12.5208 21.9042 12.2833 22 12 22C11.7167 22 11.4792 21.9042 11.2875 21.7125C11.0958 21.5208 11 21.2833 11 21V17.8ZM5 13C4.71667 13 4.47917 12.9042 4.2875 12.7125C4.09583 12.5208 4 12.2833 4 12C4 11.7167 4.09583 11.4792 4.2875 11.2875C4.47917 11.0958 4.71667 11 5 11H19C19.2833 11 19.5208 11.0958 19.7125 11.2875C19.9042 11.4792 20 11.7167 20 12C20 12.2833 19.9042 12.5208 19.7125 12.7125C19.5208 12.9042 19.2833 13 19 13H5ZM11 6.2V3C11 2.71667 11.0958 2.47917 11.2875 2.2875C11.4792 2.09583 11.7167 2 12 2C12.2833 2 12.5208 2.09583 12.7125 2.2875C12.9042 2.47917 13 2.71667 13 3V6.2L13.9 5.3C14.0833 5.11667 14.3167 5.025 14.6 5.025C14.8833 5.025 15.1167 5.11667 15.3 5.3C15.4833 5.48333 15.575 5.71667 15.575 6C15.575 6.28333 15.4833 6.51667 15.3 6.7L12.7 9.3C12.6 9.4 12.4917 9.47083 12.375 9.5125C12.2583 9.55417 12.1333 9.575 12 9.575C11.8667 9.575 11.7417 9.55417 11.625 9.5125C11.5083 9.47083 11.4 9.4 11.3 9.3L8.7 6.7C8.51667 6.51667 8.425 6.28333 8.425 6C8.425 5.71667 8.51667 5.48333 8.7 5.3C8.88333 5.11667 9.11667 5.025 9.4 5.025C9.68333 5.025 9.91667 5.11667 10.1 5.3L11 6.2Z" fill="currentColor"/>
</svg>
