<svg width="24" height="24" viewBox="0 0 24 24" fill="none" xmlns="http://www.w3.org/2000/svg">
<path d="M17.75 22C17.5333 22 17.3542 21.9292 17.2125 21.7875C17.0708 21.6458 17 21.4667 17 21.25C17 21.0333 17.0708 20.8542 17.2125 20.7125C17.3542 20.5708 17.5333 20.5 17.75 20.5H19.5V19.75H18.75C18.5333 19.75 18.3542 19.6792 18.2125 19.5375C18.0708 19.3958 18 19.2167 18 19C18 18.7833 18.0708 18.6042 18.2125 18.4625C18.3542 18.3208 18.5333 18.25 18.75 18.25H19.5V17.5H17.75C17.5333 17.5 17.3542 17.4292 17.2125 17.2875C17.0708 17.1458 17 16.9667 17 16.75C17 16.5333 17.0708 16.3542 17.2125 16.2125C17.3542 16.0708 17.5333 16 17.75 16H20C20.2833 16 20.5208 16.0958 20.7125 16.2875C20.9042 16.4792 21 16.7167 21 17V18C21 18.2833 20.9042 18.5208 20.7125 18.7125C20.5208 18.9042 20.2833 19 20 19C20.2833 19 20.5208 19.0958 20.7125 19.2875C20.9042 19.4792 21 19.7167 21 20V21C21 21.2833 20.9042 21.5208 20.7125 21.7125C20.5208 21.9042 20.2833 22 20 22H17.75ZM17.75 15C17.5333 15 17.3542 14.9292 17.2125 14.7875C17.0708 14.6458 17 14.4667 17 14.25V12.25C17 11.9667 17.0958 11.7292 17.2875 11.5375C17.4792 11.3458 17.7167 11.25 18 11.25H19.5V10.5H17.75C17.5333 10.5 17.3542 10.4292 17.2125 10.2875C17.0708 10.1458 17 9.96667 17 9.75C17 9.53333 17.0708 9.35417 17.2125 9.2125C17.3542 9.07083 17.5333 9 17.75 9H20C20.2833 9 20.5208 9.09583 20.7125 9.2875C20.9042 9.47917 21 9.71667 21 10V11.75C21 12.0333 20.9042 12.2708 20.7125 12.4625C20.5208 12.6542 20.2833 12.75 20 12.75H18.5V13.5H20.25C20.4667 13.5 20.6458 13.5708 20.7875 13.7125C20.9292 13.8542 21 14.0333 21 14.25C21 14.4667 20.9292 14.6458 20.7875 14.7875C20.6458 14.9292 20.4667 15 20.25 15H17.75ZM19.25 8C19.0333 8 18.8542 7.92917 18.7125 7.7875C18.5708 7.64583 18.5 7.46667 18.5 7.25V3.5H17.75C17.5333 3.5 17.3542 3.42917 17.2125 3.2875C17.0708 3.14583 17 2.96667 17 2.75C17 2.53333 17.0708 2.35417 17.2125 2.2125C17.3542 2.07083 17.5333 2 17.75 2H19.25C19.4667 2 19.6458 2.07083 19.7875 2.2125C19.9292 2.35417 20 2.53333 20 2.75V7.25C20 7.46667 19.9292 7.64583 19.7875 7.7875C19.6458 7.92917 19.4667 8 19.25 8ZM4 19C3.71667 19 3.47917 18.9042 3.2875 18.7125C3.09583 18.5208 3 18.2833 3 18C3 17.7167 3.09583 17.4792 3.2875 17.2875C3.47917 17.0958 3.71667 17 4 17H14C14.2833 17 14.5208 17.0958 14.7125 17.2875C14.9042 17.4792 15 17.7167 15 18C15 18.2833 14.9042 18.5208 14.7125 18.7125C14.5208 18.9042 14.2833 19 14 19H4ZM4 13C3.71667 13 3.47917 12.9042 3.2875 12.7125C3.09583 12.5208 3 12.2833 3 12C3 11.7167 3.09583 11.4792 3.2875 11.2875C3.47917 11.0958 3.71667 11 4 11H14C14.2833 11 14.5208 11.0958 14.7125 11.2875C14.9042 11.4792 15 11.7167 15 12C15 12.2833 14.9042 12.5208 14.7125 12.7125C14.5208 12.9042 14.2833 13 14 13H4ZM4 7C3.71667 7 3.47917 6.90417 3.2875 6.7125C3.09583 6.52083 3 6.28333 3 6C3 5.71667 3.09583 5.47917 3.2875 5.2875C3.47917 5.09583 3.71667 5 4 5H14C14.2833 5 14.5208 5.09583 14.7125 5.2875C14.9042 5.47917 15 5.71667 15 6C15 6.28333 14.9042 6.52083 14.7125 6.7125C14.5208 6.90417 14.2833 7 14 7H4Z" fill="currentColor"/>
</svg>
