<svg width="24" height="24" viewBox="0 0 24 24" fill="currentColor" xmlns="http://www.w3.org/2000/svg">
<g id="mds_ic_mtf">
<g id="vector">
<path fill-rule="evenodd" clip-rule="evenodd" d="M20.9963 10.3433C20.9688 10.0652 20.9273 9.79127 20.8727 9.5221C20.2206 6.30971 17.6903 3.77938 14.4779 3.1273C14.2087 3.07266 13.9348 3.03121 13.6567 3.00365C13.2061 2.95899 12.8382 3.33036 12.8382 3.78315V9.5221C12.8382 10.4277 13.5723 11.1618 14.4779 11.1618H20.2169C20.6696 11.1618 21.041 10.7939 20.9963 10.3433ZM14.4779 9.5221V4.80963C16.7827 5.40284 18.5972 7.21733 19.1904 9.5221H14.4779Z" fill="currentColor"/>
<path fill-rule="evenodd" clip-rule="evenodd" d="M11.1985 21C15.1649 21 18.4734 18.1834 19.233 14.4412C19.2876 14.172 19.3291 13.8981 19.3566 13.62C19.4013 13.1694 19.0299 12.8015 18.5771 12.8015H11.1985V5.42285C11.1985 4.97006 10.8306 4.59869 10.38 4.64335C10.1019 4.67091 9.82797 4.71236 9.5588 4.767C5.81661 5.52662 3 8.83513 3 12.8015C3 17.3294 6.67059 21 11.1985 21ZM9.5588 12.8015C9.5588 13.7071 10.2929 14.4412 11.1985 14.4412H17.5507C16.8226 17.2701 14.2546 19.3603 11.1985 19.3603C7.57617 19.3603 4.6397 16.4238 4.6397 12.8015C4.6397 9.74536 6.72994 7.17743 9.5588 6.44933V12.8015Z" fill="currentColor"/>
</g>
</g>
</svg>
