<svg width="24" height="24" viewBox="0 0 24 24" fill="none" xmlns="http://www.w3.org/2000/svg">
<path d="M9.55011 13.1499L18.0001 4.6999C18.2001 4.4999 18.4376 4.3999 18.7126 4.3999C18.9876 4.3999 19.2251 4.4999 19.4251 4.6999C19.6251 4.8999 19.7251 5.1374 19.7251 5.4124C19.7251 5.6874 19.6251 5.9249 19.4251 6.1249L10.2501 15.2999C10.0501 15.4999 9.81678 15.5999 9.55011 15.5999C9.28344 15.5999 9.05011 15.4999 8.85011 15.2999L4.57511 11.0249C4.37511 10.8249 4.27928 10.5874 4.28761 10.3124C4.29594 10.0374 4.40011 9.7999 4.60011 9.5999C4.80011 9.3999 5.03761 9.2999 5.31261 9.2999C5.58761 9.2999 5.82511 9.3999 6.02511 9.5999L9.55011 13.1499ZM6.00011 19.9999C5.71678 19.9999 5.47928 19.9041 5.28761 19.7124C5.09594 19.5207 5.00011 19.2832 5.00011 18.9999C5.00011 18.7166 5.09594 18.4791 5.28761 18.2874C5.47928 18.0957 5.71678 17.9999 6.00011 17.9999H18.0001C18.2834 17.9999 18.5209 18.0957 18.7126 18.2874C18.9043 18.4791 19.0001 18.7166 19.0001 18.9999C19.0001 19.2832 18.9043 19.5207 18.7126 19.7124C18.5209 19.9041 18.2834 19.9999 18.0001 19.9999H6.00011Z" fill="currentColor"/>
</svg>
