<svg width="24" height="24" viewBox="0 0 24 24" fill="none" xmlns="http://www.w3.org/2000/svg">
<g clip-path="url(#clip0_1_129)">
<path d="M9.54996 14.15L18.025 5.675C18.225 5.475 18.4625 5.375 18.7375 5.375C19.0125 5.375 19.25 5.475 19.45 5.675C19.65 5.875 19.75 6.1125 19.75 6.3875C19.75 6.6625 19.65 6.9 19.45 7.1L10.25 16.3C10.05 16.5 9.81663 16.6 9.54996 16.6C9.2833 16.6 9.04996 16.5 8.84996 16.3L4.54996 12C4.34996 11.8 4.25413 11.5625 4.26246 11.2875C4.2708 11.0125 4.37496 10.775 4.57496 10.575C4.77496 10.375 5.01246 10.275 5.28746 10.275C5.56246 10.275 5.79996 10.375 5.99996 10.575L9.54996 14.15Z" fill="currentColor"/>
</g>
<defs>
<clipPath id="clip0_1_129">
<rect width="24" height="24" fill="white"/>
</clipPath>
</defs>
</svg>
