<svg width="24" height="24" viewBox="0 0 24 24" fill="none" xmlns="http://www.w3.org/2000/svg">
<path d="M8 22C7.71667 22 7.47917 21.9042 7.2875 21.7125C7.09583 21.5208 7 21.2833 7 21V5C7 4.71667 7.09583 4.47917 7.2875 4.2875C7.47917 4.09583 7.71667 4 8 4H10V3C10 2.71667 10.0958 2.47917 10.2875 2.2875C10.4792 2.09583 10.7167 2 11 2H13C13.2833 2 13.5208 2.09583 13.7125 2.2875C13.9042 2.47917 14 2.71667 14 3V4H16C16.2833 4 16.5208 4.09583 16.7125 4.2875C16.9042 4.47917 17 4.71667 17 5V11C17 11.2833 16.9042 11.5208 16.7125 11.7125C16.5208 11.9042 16.2833 12 16 12C15.7167 12 15.4792 11.9042 15.2875 11.7125C15.0958 11.5208 15 11.2833 15 11V6H9V18H10.225C10.4417 18 10.625 18.0708 10.775 18.2125C10.925 18.3542 11.0167 18.5417 11.05 18.775C11.1 19.1417 11.1792 19.4917 11.2875 19.825C11.3958 20.1583 11.5333 20.4833 11.7 20.8C11.8333 21.0833 11.8333 21.3542 11.7 21.6125C11.5667 21.8708 11.3583 22 11.075 22H8ZM16.5 19H14.95C14.75 19 14.6042 18.9125 14.5125 18.7375C14.4208 18.5625 14.4333 18.3917 14.55 18.225L17.05 14.65C17.1333 14.55 17.2292 14.5167 17.3375 14.55C17.4458 14.5833 17.5 14.6667 17.5 14.8V17H19.05C19.25 17 19.3958 17.0875 19.4875 17.2625C19.5792 17.4375 19.5667 17.6083 19.45 17.775L16.95 21.35C16.8667 21.45 16.7708 21.4833 16.6625 21.45C16.5542 21.4167 16.5 21.3333 16.5 21.2V19Z" fill="currentColor"/>
</svg>
