<svg width="24" height="24" viewBox="0 0 24 24" fill="none" xmlns="http://www.w3.org/2000/svg">
<path d="M3.975 20C3.69167 20 3.45833 19.9042 3.275 19.7125C3.09167 19.5208 3 19.2833 3 19C3 18.7167 3.1 18.4792 3.3 18.2875C3.5 18.0958 3.74167 18 4.025 18C4.30833 18 4.54167 18.0958 4.725 18.2875C4.90833 18.4792 5 18.7167 5 19C5 19.2833 4.9 19.5208 4.7 19.7125C4.5 19.9042 4.25833 20 3.975 20ZM7.975 20C7.69167 20 7.45833 19.9042 7.275 19.7125C7.09167 19.5208 7 19.2833 7 19C7 18.7167 7.1 18.4792 7.3 18.2875C7.5 18.0958 7.74167 18 8.025 18C8.30833 18 8.54167 18.0958 8.725 18.2875C8.90833 18.4792 9 18.7167 9 19C9 19.2833 8.9 19.5208 8.7 19.7125C8.5 19.9042 8.25833 20 7.975 20ZM11.975 20C11.6917 20 11.4583 19.9042 11.275 19.7125C11.0917 19.5208 11 19.2833 11 19C11 18.7167 11.0958 18.4792 11.2875 18.2875C11.4792 18.0958 11.7167 18 12 18C12.2833 18 12.5208 18.0958 12.7125 18.2875C12.9042 18.4792 13 18.7167 13 19C13 19.2833 12.9 19.5208 12.7 19.7125C12.5 19.9042 12.2583 20 11.975 20ZM16 20C15.7167 20 15.4792 19.9042 15.2875 19.7125C15.0958 19.5208 15 19.2833 15 19C15 18.7167 15.1 18.4792 15.3 18.2875C15.5 18.0958 15.7417 18 16.025 18C16.3083 18 16.5417 18.0958 16.725 18.2875C16.9083 18.4792 17 18.7167 17 19C17 19.2833 16.9042 19.5208 16.7125 19.7125C16.5208 19.9042 16.2833 20 16 20ZM20 20C19.7167 20 19.4792 19.9042 19.2875 19.7125C19.0958 19.5208 19 19.2833 19 19C19 18.7167 19.0958 18.4792 19.2875 18.2875C19.4792 18.0958 19.7167 18 20 18C20.2833 18 20.5208 18.0958 20.7125 18.2875C20.9042 18.4792 21 18.7167 21 19C21 19.2833 20.9042 19.5208 20.7125 19.7125C20.5208 19.9042 20.2833 20 20 20ZM3.975 16C3.69167 16 3.45833 15.9042 3.275 15.7125C3.09167 15.5208 3 15.2833 3 15C3 14.7167 3.09583 14.4792 3.2875 14.2875C3.47917 14.0958 3.71667 14 4 14H7.025C7.30833 14 7.54167 14.0958 7.725 14.2875C7.90833 14.4792 8 14.7167 8 15C8 15.2833 7.90417 15.5208 7.7125 15.7125C7.52083 15.9042 7.28333 16 7 16H3.975ZM10.475 16C10.1917 16 9.95833 15.9042 9.775 15.7125C9.59167 15.5208 9.5 15.2833 9.5 15C9.5 14.7167 9.59583 14.4792 9.7875 14.2875C9.97917 14.0958 10.2167 14 10.5 14H13.525C13.8083 14 14.0417 14.0958 14.225 14.2875C14.4083 14.4792 14.5 14.7167 14.5 15C14.5 15.2833 14.4042 15.5208 14.2125 15.7125C14.0208 15.9042 13.7833 16 13.5 16H10.475ZM16.975 16C16.6917 16 16.4583 15.9042 16.275 15.7125C16.0917 15.5208 16 15.2833 16 15C16 14.7167 16.0958 14.4792 16.2875 14.2875C16.4792 14.0958 16.7167 14 17 14H20.025C20.3083 14 20.5417 14.0958 20.725 14.2875C20.9083 14.4792 21 14.7167 21 15C21 15.2833 20.9042 15.5208 20.7125 15.7125C20.5208 15.9042 20.2833 16 20 16H16.975ZM3.975 12C3.69167 12 3.45833 11.9042 3.275 11.7125C3.09167 11.5208 3 11.2833 3 11C3 10.7167 3.09583 10.4792 3.2875 10.2875C3.47917 10.0958 3.71667 10 4 10H10.025C10.3083 10 10.5417 10.0958 10.725 10.2875C10.9083 10.4792 11 10.7167 11 11C11 11.2833 10.9042 11.5208 10.7125 11.7125C10.5208 11.9042 10.2833 12 10 12H3.975ZM13.975 12C13.6917 12 13.4583 11.9042 13.275 11.7125C13.0917 11.5208 13 11.2833 13 11C13 10.7167 13.0958 10.4792 13.2875 10.2875C13.4792 10.0958 13.7167 10 14 10H20.025C20.3083 10 20.5417 10.0958 20.725 10.2875C20.9083 10.4792 21 10.7167 21 11C21 11.2833 20.9042 11.5208 20.7125 11.7125C20.5208 11.9042 20.2833 12 20 12H13.975ZM4 8C3.71667 8 3.47917 7.90417 3.2875 7.7125C3.09583 7.52083 3 7.28333 3 7V5C3 4.71667 3.09583 4.47917 3.2875 4.2875C3.47917 4.09583 3.71667 4 4 4H20C20.2833 4 20.5208 4.09583 20.7125 4.2875C20.9042 4.47917 21 4.71667 21 5V7C21 7.28333 20.9042 7.52083 20.7125 7.7125C20.5208 7.90417 20.2833 8 20 8H4Z" fill="currentColor"/>
</svg>
