<svg width="24" height="24" viewBox="0 0 24 24" fill="none" xmlns="http://www.w3.org/2000/svg">
<path d="M8 22C6.61667 22 5.4375 21.5125 4.4625 20.5375C3.4875 19.5625 3 18.3833 3 17C3 15.85 3.35833 14.825 4.075 13.925C4.79167 13.025 5.70833 12.4333 6.825 12.15C7.09167 12.0833 7.34167 12.1208 7.575 12.2625C7.80833 12.4042 7.95833 12.6083 8.025 12.875C8.09167 13.1417 8.05417 13.3917 7.9125 13.625C7.77083 13.8583 7.56667 14.0083 7.3 14.075C6.61667 14.2417 6.0625 14.5958 5.6375 15.1375C5.2125 15.6792 5 16.3 5 17C5 17.8333 5.29167 18.5417 5.875 19.125C6.45833 19.7083 7.16667 20 8 20C8.68333 20 9.29167 19.7917 9.825 19.375C10.3583 18.9583 10.7167 18.425 10.9 17.775C10.9833 17.5083 11.1417 17.3042 11.375 17.1625C11.6083 17.0208 11.8583 16.9917 12.125 17.075C12.3917 17.1583 12.5958 17.3167 12.7375 17.55C12.8792 17.7833 12.9083 18.0333 12.825 18.3C12.525 19.4 11.9292 20.2917 11.0375 20.975C10.1458 21.6583 9.13333 22 8 22ZM16 6.5C15.45 6.5 14.9792 6.30417 14.5875 5.9125C14.1958 5.52083 14 5.05 14 4.5C14 3.95 14.1958 3.47917 14.5875 3.0875C14.9792 2.69583 15.45 2.5 16 2.5C16.55 2.5 17.0208 2.69583 17.4125 3.0875C17.8042 3.47917 18 3.95 18 4.5C18 5.05 17.8042 5.52083 17.4125 5.9125C17.0208 6.30417 16.55 6.5 16 6.5ZM11 16C10.2667 16 9.7 15.6875 9.3 15.0625C8.9 14.4375 8.85 13.7833 9.15 13.1L11 9H8.725L8.45 9.7C8.36667 9.93333 8.20833 10.1125 7.975 10.2375C7.74167 10.3625 7.5 10.3833 7.25 10.3C6.96667 10.2167 6.75833 10.0458 6.625 9.7875C6.49167 9.52917 6.48333 9.25833 6.6 8.975L6.9 8.2C7.05 7.81667 7.29583 7.52083 7.6375 7.3125C7.97917 7.10417 8.35 7 8.75 7H13.95C14.7 7 15.2708 7.30417 15.6625 7.9125C16.0542 8.52083 16.1 9.16667 15.8 9.85L14.15 13.5H17C17.55 13.5 18.0208 13.6958 18.4125 14.0875C18.8042 14.4792 19 14.95 19 15.5V20C19 20.2833 18.9042 20.5208 18.7125 20.7125C18.5208 20.9042 18.2833 21 18 21C17.7167 21 17.4792 20.9042 17.2875 20.7125C17.0958 20.5208 17 20.2833 17 20V16H11Z" fill="currentColor"/>
</svg>
