<svg width="24" height="24" viewBox="0 0 24 24" fill="none" xmlns="http://www.w3.org/2000/svg">
<path d="M6.67499 19C5.87499 19 5.28333 18.6542 4.89999 17.9625C4.51666 17.2708 4.54166 16.5917 4.97499 15.925L7.49999 12L4.97499 8.075C4.54166 7.40833 4.51666 6.72917 4.89999 6.0375C5.28333 5.34583 5.87499 5 6.67499 5H15C15.3333 5 15.6458 5.075 15.9375 5.225C16.2292 5.375 16.4667 5.58333 16.65 5.85L20.175 10.85C20.425 11.2 20.55 11.5833 20.55 12C20.55 12.4167 20.425 12.8 20.175 13.15L16.65 18.15C16.4667 18.4167 16.2292 18.625 15.9375 18.775C15.6458 18.925 15.3333 19 15 19H6.67499ZM15 17L18.55 12L15 7H6.64999L9.19999 10.9C9.41666 11.2333 9.52499 11.6 9.52499 12C9.52499 12.4 9.41666 12.7667 9.19999 13.1L6.64999 17H15Z" fill="currentColor"/>
</svg>
