<svg width="24" height="24" viewBox="0 0 24 24" fill="none" xmlns="http://www.w3.org/2000/svg">
<g clip-path="url(#clip0_1_655)">
<path d="M10 10.7358H11C11.2833 10.7358 11.5208 10.64 11.7125 10.4483C11.9042 10.2567 12 10.0192 12 9.73584V8.73584C12 8.45251 11.9042 8.21501 11.7125 8.02334C11.5208 7.83167 11.2833 7.73584 11 7.73584H9.5C9.36667 7.73584 9.25 7.78584 9.15 7.88584C9.05 7.98584 9 8.10251 9 8.23584V12.2358C9 12.3692 9.05 12.4858 9.15 12.5858C9.25 12.6858 9.36667 12.7358 9.5 12.7358C9.63333 12.7358 9.75 12.6858 9.85 12.5858C9.95 12.4858 10 12.3692 10 12.2358V10.7358ZM10 9.73584V8.73584H11V9.73584H10ZM15 12.7358C15.2833 12.7358 15.5208 12.64 15.7125 12.4483C15.9042 12.2567 16 12.0192 16 11.7358V8.73584C16 8.45251 15.9042 8.21501 15.7125 8.02334C15.5208 7.83167 15.2833 7.73584 15 7.73584H13.5C13.3667 7.73584 13.25 7.78584 13.15 7.88584C13.05 7.98584 13 8.10251 13 8.23584V12.2358C13 12.3692 13.05 12.4858 13.15 12.5858C13.25 12.6858 13.3667 12.7358 13.5 12.7358H15ZM14 11.7358V8.73584H15V11.7358H14ZM18 10.7358H18.5C18.6333 10.7358 18.75 10.6858 18.85 10.5858C18.95 10.4858 19 10.3692 19 10.2358C19 10.1025 18.95 9.98584 18.85 9.88584C18.75 9.78584 18.6333 9.73584 18.5 9.73584H18V8.73584H18.5C18.6333 8.73584 18.75 8.68584 18.85 8.58584C18.95 8.48584 19 8.36917 19 8.23584C19 8.10251 18.95 7.98584 18.85 7.88584C18.75 7.78584 18.6333 7.73584 18.5 7.73584H17.5C17.3667 7.73584 17.25 7.78584 17.15 7.88584C17.05 7.98584 17 8.10251 17 8.23584V12.2358C17 12.3692 17.05 12.4858 17.15 12.5858C17.25 12.6858 17.3667 12.7358 17.5 12.7358C17.6333 12.7358 17.75 12.6858 17.85 12.5858C17.95 12.4858 18 12.3692 18 12.2358V10.7358ZM8 18.2358C7.45 18.2358 6.97917 18.04 6.5875 17.6483C6.19583 17.2567 6 16.7858 6 16.2358V4.23584C6 3.68584 6.19583 3.21501 6.5875 2.82334C6.97917 2.43167 7.45 2.23584 8 2.23584H20C20.55 2.23584 21.0208 2.43167 21.4125 2.82334C21.8042 3.21501 22 3.68584 22 4.23584V16.2358C22 16.7858 21.8042 17.2567 21.4125 17.6483C21.0208 18.04 20.55 18.2358 20 18.2358H8ZM4 22.2358C3.45 22.2358 2.97917 22.04 2.5875 21.6483C2.19583 21.2567 2 20.7858 2 20.2358V7.23584C2 6.95251 2.09583 6.71501 2.2875 6.52334C2.47917 6.33167 2.71667 6.23584 3 6.23584C3.28333 6.23584 3.52083 6.33167 3.7125 6.52334C3.90417 6.71501 4 6.95251 4 7.23584V20.2358H17C17.2833 20.2358 17.5208 20.3317 17.7125 20.5233C17.9042 20.715 18 20.9525 18 21.2358C18 21.5192 17.9042 21.7567 17.7125 21.9483C17.5208 22.14 17.2833 22.2358 17 22.2358H4Z" fill="currentColor"/>
</g>
<defs>
<clipPath id="clip0_1_655">
<rect width="24" height="24" fill="white"/>
</clipPath>
</defs>
</svg>
