<svg width="24" height="24" viewBox="0 0 24 24" fill="none" xmlns="http://www.w3.org/2000/svg">
<path d="M8.00001 24C7.71668 24 7.47918 23.9042 7.28751 23.7125C7.09585 23.5208 7.00001 23.2833 7.00001 23C7.00001 22.7167 7.09585 22.4792 7.28751 22.2875C7.47918 22.0958 7.71668 22 8.00001 22C8.28335 22 8.52085 22.0958 8.71251 22.2875C8.90418 22.4792 9.00001 22.7167 9.00001 23C9.00001 23.2833 8.90418 23.5208 8.71251 23.7125C8.52085 23.9042 8.28335 24 8.00001 24ZM12 24C11.7167 24 11.4792 23.9042 11.2875 23.7125C11.0958 23.5208 11 23.2833 11 23C11 22.7167 11.0958 22.4792 11.2875 22.2875C11.4792 22.0958 11.7167 22 12 22C12.2833 22 12.5208 22.0958 12.7125 22.2875C12.9042 22.4792 13 22.7167 13 23C13 23.2833 12.9042 23.5208 12.7125 23.7125C12.5208 23.9042 12.2833 24 12 24ZM16 24C15.7167 24 15.4792 23.9042 15.2875 23.7125C15.0958 23.5208 15 23.2833 15 23C15 22.7167 15.0958 22.4792 15.2875 22.2875C15.4792 22.0958 15.7167 22 16 22C16.2833 22 16.5208 22.0958 16.7125 22.2875C16.9042 22.4792 17 22.7167 17 23C17 23.2833 16.9042 23.5208 16.7125 23.7125C16.5208 23.9042 16.2833 24 16 24ZM12 14C11.1667 14 10.4583 13.7083 9.87501 13.125C9.29168 12.5417 9.00001 11.8333 9.00001 11V5C9.00001 4.16667 9.29168 3.45833 9.87501 2.875C10.4583 2.29167 11.1667 2 12 2C12.8333 2 13.5417 2.29167 14.125 2.875C14.7083 3.45833 15 4.16667 15 5V11C15 11.8333 14.7083 12.5417 14.125 13.125C13.5417 13.7083 12.8333 14 12 14ZM11 20V17.9C9.46668 17.7 8.15418 17.0583 7.06251 15.975C5.97085 14.8917 5.30835 13.575 5.07501 12.025C5.04168 11.7417 5.11668 11.5 5.30001 11.3C5.48335 11.1 5.71668 11 6.00001 11C6.28335 11 6.52085 11.0958 6.71251 11.2875C6.90418 11.4792 7.03335 11.7167 7.10001 12C7.33335 13.1667 7.91251 14.125 8.83751 14.875C9.76251 15.625 10.8167 16 12 16C13.2 16 14.2583 15.6208 15.175 14.8625C16.0917 14.1042 16.6667 13.15 16.9 12C16.9667 11.7167 17.0958 11.4792 17.2875 11.2875C17.4792 11.0958 17.7167 11 18 11C18.2833 11 18.5167 11.1 18.7 11.3C18.8833 11.5 18.9583 11.7417 18.925 12.025C18.6917 13.5417 18.0333 14.85 16.95 15.95C15.8667 17.05 14.55 17.7 13 17.9V20C13 20.2833 12.9042 20.5208 12.7125 20.7125C12.5208 20.9042 12.2833 21 12 21C11.7167 21 11.4792 20.9042 11.2875 20.7125C11.0958 20.5208 11 20.2833 11 20ZM12 12C12.2833 12 12.5208 11.9042 12.7125 11.7125C12.9042 11.5208 13 11.2833 13 11V5C13 4.71667 12.9042 4.47917 12.7125 4.2875C12.5208 4.09583 12.2833 4 12 4C11.7167 4 11.4792 4.09583 11.2875 4.2875C11.0958 4.47917 11 4.71667 11 5V11C11 11.2833 11.0958 11.5208 11.2875 11.7125C11.4792 11.9042 11.7167 12 12 12Z" fill="currentColor"/>
</svg>
