<svg width="21" height="20" viewBox="0 0 21 20" fill="none" xmlns="http://www.w3.org/2000/svg">
<mask id="mask0_2221_28402" style="mask-type:alpha" maskUnits="userSpaceOnUse" x="0" y="0" width="21" height="20">
<path d="M20.5 0H0.5V20H20.5V0Z" fill="#D9D9D9"/>
</mask>
<g mask="url(#mask0_2221_28402)">
<path d="M15.0794 7.524C15.0793 7.99729 14.6955 8.38114 14.2222 8.38114C13.7489 8.38114 13.3652 7.99729 13.3651 7.524V5.71429H7.55509L10.8464 9.43164L10.9008 9.50028C11.1545 9.85298 11.1051 10.3478 10.7727 10.642C10.4405 10.9361 9.94366 10.9254 9.62428 10.6311L9.56233 10.5684L5.6399 6.13783C4.90555 5.30816 5.49451 4.00012 6.60252 4H13.7937C14.5037 4 15.0794 4.57563 15.0794 5.28571V7.524Z" fill="#F2F5F7"/>
<path d="M15.0794 12.4759C15.0793 12.0026 14.6955 11.6187 14.2222 11.6187C13.7489 11.6187 13.3652 12.0026 13.3651 12.4759V14.2856H7.55509L10.8464 10.5682L10.9008 10.4996C11.1545 10.1469 11.1051 9.65206 10.7727 9.35784C10.4405 9.06376 9.94366 9.07446 9.62428 9.36871L9.56234 9.43149L5.6399 13.8621C4.90555 14.6917 5.49451 15.9998 6.60252 15.9999H13.7937C14.5037 15.9999 15.0794 15.4242 15.0794 14.7141V12.4759Z" fill="#F2F5F7"/>
</g>
</svg>
