<svg width="24" height="24" viewBox="0 0 24 24" fill="none" xmlns="http://www.w3.org/2000/svg">
<path d="M10 4C9.71667 4 9.47917 3.90417 9.2875 3.7125C9.09583 3.52083 9 3.28333 9 3C9 2.71667 9.09583 2.47917 9.2875 2.2875C9.47917 2.09583 9.71667 2 10 2H14C14.2833 2 14.5208 2.09583 14.7125 2.2875C14.9042 2.47917 15 2.71667 15 3C15 3.28333 14.9042 3.52083 14.7125 3.7125C14.5208 3.90417 14.2833 4 14 4H10ZM12 15C12.2833 15 12.5208 14.9042 12.7125 14.7125C12.9042 14.5208 13 14.2833 13 14V10C13 9.71667 12.9042 9.47917 12.7125 9.2875C12.5208 9.09583 12.2833 9 12 9C11.7167 9 11.4792 9.09583 11.2875 9.2875C11.0958 9.47917 11 9.71667 11 10V14C11 14.2833 11.0958 14.5208 11.2875 14.7125C11.4792 14.9042 11.7167 15 12 15ZM12 23C10.7667 23 9.60417 22.7625 8.5125 22.2875C7.42083 21.8125 6.46667 21.1667 5.65 20.35C4.83333 19.5333 4.1875 18.5792 3.7125 17.4875C3.2375 16.3958 3 15.2333 3 14C3 12.7667 3.2375 11.6042 3.7125 10.5125C4.1875 9.42083 4.83333 8.46667 5.65 7.65C6.46667 6.83333 7.42083 6.1875 8.5125 5.7125C9.60417 5.2375 10.7667 5 12 5C13.0333 5 14.025 5.16667 14.975 5.5C15.925 5.83333 16.8167 6.31667 17.65 6.95L18.35 6.25C18.5333 6.06667 18.7667 5.975 19.05 5.975C19.3333 5.975 19.5667 6.06667 19.75 6.25C19.9333 6.43333 20.025 6.66667 20.025 6.95C20.025 7.23333 19.9333 7.46667 19.75 7.65L19.05 8.35C19.6833 9.18333 20.1667 10.075 20.5 11.025C20.8333 11.975 21 12.9667 21 14C21 15.2333 20.7625 16.3958 20.2875 17.4875C19.8125 18.5792 19.1667 19.5333 18.35 20.35C17.5333 21.1667 16.5792 21.8125 15.4875 22.2875C14.3958 22.7625 13.2333 23 12 23ZM12 21C13.9333 21 15.5833 20.3167 16.95 18.95C18.3167 17.5833 19 15.9333 19 14C19 12.0667 18.3167 10.4167 16.95 9.05C15.5833 7.68333 13.9333 7 12 7C10.0667 7 8.41667 7.68333 7.05 9.05C5.68333 10.4167 5 12.0667 5 14C5 15.9333 5.68333 17.5833 7.05 18.95C8.41667 20.3167 10.0667 21 12 21Z" fill="currentColor"/>
</svg>
