<svg width="16" height="16" viewBox="0 0 16 16" fill="none" xmlns="http://www.w3.org/2000/svg">
<path d="M4.98877 8.27722C4.98877 9.01056 5.24988 9.63833 5.7721 10.1606C6.29432 10.6828 6.9221 10.9439 7.65544 10.9439C8.15544 10.9439 8.61655 10.8189 9.03877 10.5689C9.46099 10.3189 9.78877 9.97167 10.0221 9.52722C10.111 9.34945 10.2415 9.22445 10.4138 9.15222C10.586 9.08 10.761 9.08278 10.9388 9.16056C11.0943 9.23833 11.211 9.355 11.2888 9.51056C11.3665 9.66611 11.3665 9.82167 11.2888 9.97722C10.9554 10.6772 10.461 11.2356 9.80544 11.6522C9.14988 12.0689 8.43321 12.2772 7.65544 12.2772C6.54432 12.2772 5.59988 11.8883 4.8221 11.1106C4.04432 10.3328 3.65544 9.38833 3.65544 8.27722C3.65544 7.48833 3.86377 6.76334 4.28044 6.10222C4.6971 5.44111 5.26655 4.94945 5.98877 4.62722C6.14432 4.56056 6.29988 4.56333 6.45544 4.63556C6.61099 4.70778 6.7221 4.82167 6.78877 4.97722C6.86655 5.155 6.86655 5.33278 6.78877 5.51056C6.71099 5.68833 6.58321 5.82167 6.40544 5.91056C5.96099 6.14389 5.61377 6.47167 5.36377 6.89389C5.11377 7.31611 4.98877 7.77722 4.98877 8.27722ZM2.3221 8.27722C2.3221 9.76611 2.83877 11.0272 3.8721 12.0606C4.90544 13.0939 6.16655 13.6106 7.65544 13.6106C9.05544 13.6106 10.2554 13.1494 11.2554 12.2272C12.2554 11.305 12.8221 10.1494 12.9554 8.76056C12.9777 8.57167 13.061 8.40778 13.2054 8.26889C13.3499 8.13 13.5165 8.06611 13.7054 8.07722C13.8943 8.08833 14.0499 8.15778 14.1721 8.28556C14.2943 8.41333 14.3499 8.57167 14.3388 8.76056C14.2832 9.62722 14.0665 10.4356 13.6888 11.1856C13.311 11.9356 12.8193 12.5911 12.2138 13.1522C11.6082 13.7133 10.9138 14.1522 10.1304 14.4689C9.3471 14.7856 8.5221 14.9439 7.65544 14.9439C6.73321 14.9439 5.86655 14.7689 5.05544 14.4189C4.24432 14.0689 3.53877 13.5939 2.93877 12.9939C2.33877 12.3939 1.86377 11.6883 1.51377 10.8772C1.16377 10.0661 0.98877 9.19945 0.98877 8.27722C0.988769 6.53278 1.58321 5.01334 2.7721 3.71889C3.96099 2.42445 5.42766 1.71611 7.1721 1.59389C7.34988 1.57167 7.50266 1.62445 7.63044 1.75222C7.75821 1.88 7.82766 2.03833 7.83877 2.22722C7.84988 2.41611 7.78877 2.58556 7.65544 2.73556C7.5221 2.88556 7.36099 2.97167 7.1721 2.99389C5.83877 3.16056 4.6971 3.74111 3.7471 4.73556C2.7971 5.73 2.3221 6.91056 2.3221 8.27722Z" fill="currentColor"/>
<path d="M14.8106 5.59272C14.9442 5.72627 15.0109 5.87978 15.0109 6.05261C15.0109 6.22546 14.9442 6.37894 14.8106 6.51251C14.6771 6.64604 14.5235 6.71276 14.3507 6.71276H10.2968L7.7354 9.27418C7.47505 9.53453 7.05294 9.53453 6.79259 9.27418C6.53224 9.01383 6.53224 8.59172 6.79259 8.33137L9.35401 5.76995V1.71606C9.35401 1.54323 9.42073 1.38972 9.55426 1.25616C9.68783 1.1226 9.84131 1.05591 10.0142 1.05591C10.1868 1.05597 10.3401 1.12232 10.4736 1.2557C10.6071 1.38923 10.6738 1.54281 10.6739 1.7156V5.39292L14.3507 5.39246C14.5235 5.39246 14.6771 5.45921 14.8106 5.59272Z" fill="currentColor"/>
</svg>
