<svg width="24" height="24" viewBox="0 0 24 24" fill="none" xmlns="http://www.w3.org/2000/svg">
<path d="M11 12.3999L7.09999 16.2999C6.91665 16.4832 6.68332 16.5749 6.39999 16.5749C6.11665 16.5749 5.88332 16.4832 5.69999 16.2999C5.51665 16.1166 5.42499 15.8832 5.42499 15.5999C5.42499 15.3166 5.51665 15.0832 5.69999 14.8999L10.6 9.9999L5.69999 5.0999C5.51665 4.91657 5.42499 4.68324 5.42499 4.3999C5.42499 4.11657 5.51665 3.88324 5.69999 3.6999C5.88332 3.51657 6.11665 3.4249 6.39999 3.4249C6.68332 3.4249 6.91665 3.51657 7.09999 3.6999L11 7.5999V1.4249C11 1.1249 11.1 0.879069 11.3 0.687402C11.5 0.495736 11.7333 0.399902 12 0.399902C12.1333 0.399902 12.2583 0.424902 12.375 0.474902C12.4917 0.524902 12.6 0.599902 12.7 0.699902L17 4.9999C17.1 5.0999 17.1708 5.20824 17.2125 5.3249C17.2542 5.44157 17.275 5.56657 17.275 5.6999C17.275 5.83324 17.2542 5.95824 17.2125 6.0749C17.1708 6.19157 17.1 6.2999 17 6.3999L13.4 9.9999L17 13.5999C17.1 13.6999 17.1708 13.8082 17.2125 13.9249C17.2542 14.0416 17.275 14.1666 17.275 14.2999C17.275 14.4332 17.2542 14.5582 17.2125 14.6749C17.1708 14.7916 17.1 14.8999 17 14.9999L12.7 19.2999C12.6 19.3999 12.4917 19.4749 12.375 19.5249C12.2583 19.5749 12.1333 19.5999 12 19.5999C11.7333 19.5999 11.5 19.5041 11.3 19.3124C11.1 19.1207 11 18.8749 11 18.5749V12.3999ZM13 16.1499L14.9 14.2999L13 12.3999V16.1499ZM13 7.5999L14.9 5.6999L13 3.8499V7.5999ZM7.99999 23.9999C7.71665 23.9999 7.47915 23.9041 7.28749 23.7124C7.09582 23.5207 6.99999 23.2832 6.99999 22.9999C6.99999 22.7166 7.09582 22.4791 7.28749 22.2874C7.47915 22.0957 7.71665 21.9999 7.99999 21.9999C8.28332 21.9999 8.52082 22.0957 8.71249 22.2874C8.90415 22.4791 8.99999 22.7166 8.99999 22.9999C8.99999 23.2832 8.90415 23.5207 8.71249 23.7124C8.52082 23.9041 8.28332 23.9999 7.99999 23.9999ZM12 23.9999C11.7167 23.9999 11.4792 23.9041 11.2875 23.7124C11.0958 23.5207 11 23.2832 11 22.9999C11 22.7166 11.0958 22.4791 11.2875 22.2874C11.4792 22.0957 11.7167 21.9999 12 21.9999C12.2833 21.9999 12.5208 22.0957 12.7125 22.2874C12.9042 22.4791 13 22.7166 13 22.9999C13 23.2832 12.9042 23.5207 12.7125 23.7124C12.5208 23.9041 12.2833 23.9999 12 23.9999ZM16 23.9999C15.7167 23.9999 15.4792 23.9041 15.2875 23.7124C15.0958 23.5207 15 23.2832 15 22.9999C15 22.7166 15.0958 22.4791 15.2875 22.2874C15.4792 22.0957 15.7167 21.9999 16 21.9999C16.2833 21.9999 16.5208 22.0957 16.7125 22.2874C16.9042 22.4791 17 22.7166 17 22.9999C17 23.2832 16.9042 23.5207 16.7125 23.7124C16.5208 23.9041 16.2833 23.9999 16 23.9999Z" fill="currentColor"/>
</svg>
