<svg width="24" height="24" viewBox="0 0 24 24" fill="none" xmlns="http://www.w3.org/2000/svg">
<path d="M3.175 3.1749L5 4.9999H4V15.9999H13.2L1.4 4.1999C1.21667 4.01657 1.125 3.78324 1.125 3.4999C1.125 3.21657 1.21667 2.98324 1.4 2.7999C1.58333 2.61657 1.81667 2.5249 2.1 2.5249C2.38333 2.5249 2.61667 2.61657 2.8 2.7999L21.2 21.1999C21.3833 21.3832 21.475 21.6166 21.475 21.8999C21.475 22.1832 21.3833 22.4166 21.2 22.5999C21.0167 22.7832 20.7833 22.8749 20.5 22.8749C20.2167 22.8749 19.9833 22.7832 19.8 22.5999L15.2 17.9999H14V19.9999H15C15.2833 19.9999 15.5208 20.0957 15.7125 20.2874C15.9042 20.4791 16 20.7166 16 20.9999C16 21.2832 15.9042 21.5207 15.7125 21.7124C15.5208 21.9041 15.2833 21.9999 15 21.9999H9C8.71667 21.9999 8.47917 21.9041 8.2875 21.7124C8.09583 21.5207 8 21.2832 8 20.9999C8 20.7166 8.09583 20.4791 8.2875 20.2874C8.47917 20.0957 8.71667 19.9999 9 19.9999H10V17.9999H4C3.45 17.9999 2.97917 17.8041 2.5875 17.4124C2.19583 17.0207 2 16.5499 2 15.9999V4.9999C2 4.38324 2.19583 3.9249 2.5875 3.6249L3.175 3.1749ZM22 4.9999V15.4999C22 15.8332 21.8958 16.0832 21.6875 16.2499C21.4792 16.4166 21.25 16.4999 21 16.4999C20.75 16.4999 20.5208 16.4124 20.3125 16.2374C20.1042 16.0624 20 15.8082 20 15.4749V4.9999H9C8.66667 4.9999 8.41667 4.89574 8.25 4.6874C8.08333 4.47907 8 4.2499 8 3.9999C8 3.7499 8.08333 3.52074 8.25 3.3124C8.41667 3.10407 8.66667 2.9999 9 2.9999H20C20.55 2.9999 21.0208 3.19574 21.4125 3.5874C21.8042 3.97907 22 4.4499 22 4.9999Z" fill="currentColor"/>
</svg>
