<svg width="24" height="24" viewBox="0 0 24 24" fill="none" xmlns="http://www.w3.org/2000/svg">
<g clip-path="url(#clip0_1_142)">
<path d="M4.52511 19.5497H5.87511L16.0001 9.37492L14.6501 8.02492L4.52511 18.1997V19.5497ZM20.1251 8.20012L15.8501 3.89992L16.9751 2.77492C17.3751 2.37492 17.8625 2.17912 18.4373 2.18752C19.0125 2.19592 19.5083 2.40011 19.9247 2.80011L21.2747 4.17472C21.6915 4.57472 21.8915 5.05812 21.8747 5.62492C21.8583 6.19172 21.6501 6.67512 21.2501 7.07512L20.1251 8.20012ZM3.55011 21.6251C3.23331 21.6251 2.97071 21.5167 2.76231 21.2999C2.55391 21.0831 2.44971 20.8247 2.44971 20.5247V17.8001C2.44971 17.6501 2.47471 17.5083 2.52471 17.3747C2.57471 17.2415 2.64971 17.1249 2.74971 17.0249L14.6999 5.07472L18.9749 9.34972L7.07511 21.2999C6.95831 21.4167 6.83331 21.5001 6.70011 21.5501C6.56651 21.6001 6.42471 21.6251 6.27471 21.6251H3.55011ZM15.3497 8.72512L14.6501 8.02492L16.0001 9.37492L15.3497 8.72512Z" fill="currentColor"/>
</g>
<defs>
<clipPath id="clip0_1_142">
<rect width="24" height="24" fill="white"/>
</clipPath>
</defs>
</svg>
