<svg width="24" height="24" viewBox="0 0 24 24" fill="none" xmlns="http://www.w3.org/2000/svg">
<path d="M11 22.0001V21.0001C8.91672 20.7668 7.12922 19.9043 5.63755 18.4126C4.14588 16.9209 3.28338 15.1334 3.05005 13.0501H2.05005C1.76672 13.0501 1.52922 12.9543 1.33755 12.7626C1.14588 12.5709 1.05005 12.3334 1.05005 12.0501C1.05005 11.7668 1.14588 11.5293 1.33755 11.3376C1.52922 11.1459 1.76672 11.0501 2.05005 11.0501H3.05005C3.28338 8.96676 4.14588 7.17926 5.63755 5.6876C7.12922 4.19593 8.91672 3.33343 11 3.1001V2.1001C11 1.81676 11.0959 1.57926 11.2875 1.3876C11.4792 1.19593 11.7167 1.1001 12 1.1001C12.2834 1.1001 12.5209 1.19593 12.7125 1.3876C12.9042 1.57926 13 1.81676 13 2.1001V3.1001C15.0834 3.33343 16.8709 4.19593 18.3625 5.6876C19.8542 7.17926 20.7167 8.96676 20.95 11.0501H21.95C22.2334 11.0501 22.4709 11.1459 22.6625 11.3376C22.8542 11.5293 22.95 11.7668 22.95 12.0501C22.95 12.3334 22.8542 12.5709 22.6625 12.7626C22.4709 12.9543 22.2334 13.0501 21.95 13.0501H20.95C20.7167 15.1334 19.8542 16.9209 18.3625 18.4126C16.8709 19.9043 15.0834 20.7668 13 21.0001V22.0001C13 22.2834 12.9042 22.5209 12.7125 22.7126C12.5209 22.9043 12.2834 23.0001 12 23.0001C11.7167 23.0001 11.4792 22.9043 11.2875 22.7126C11.0959 22.5209 11 22.2834 11 22.0001ZM12 19.0501C13.9334 19.0501 15.5834 18.3668 16.95 17.0001C18.3167 15.6334 19 13.9834 19 12.0501C19 10.1168 18.3167 8.46676 16.95 7.1001C15.5834 5.73343 13.9334 5.0501 12 5.0501C10.0667 5.0501 8.41672 5.73343 7.05005 7.1001C5.68338 8.46676 5.00005 10.1168 5.00005 12.0501C5.00005 13.9834 5.68338 15.6334 7.05005 17.0001C8.41672 18.3668 10.0667 19.0501 12 19.0501Z" fill="currentColor"/>
</svg>
