<svg width="24" height="24" viewBox="0 0 24 24" fill="none" xmlns="http://www.w3.org/2000/svg">
<path d="M6 7.4V9C6 9.28333 5.90417 9.52083 5.7125 9.7125C5.52083 9.90417 5.28333 10 5 10C4.71667 10 4.47917 9.90417 4.2875 9.7125C4.09583 9.52083 4 9.28333 4 9V5C4 4.71667 4.09583 4.47917 4.2875 4.2875C4.47917 4.09583 4.71667 4 5 4H9C9.28333 4 9.52083 4.09583 9.7125 4.2875C9.90417 4.47917 10 4.71667 10 5C10 5.28333 9.90417 5.52083 9.7125 5.7125C9.52083 5.90417 9.28333 6 9 6H7.4L12.425 11.025C12.6083 11.2083 12.75 11.4208 12.85 11.6625C12.95 11.9042 13 12.1583 13 12.425V19C13 19.2833 12.9042 19.5208 12.7125 19.7125C12.5208 19.9042 12.2833 20 12 20C11.7167 20 11.4792 19.9042 11.2875 19.7125C11.0958 19.5208 11 19.2833 11 19V12.4L6 7.4ZM18 7.4L15.55 9.875C15.35 10.075 15.1125 10.175 14.8375 10.175C14.5625 10.175 14.325 10.075 14.125 9.875C13.925 9.675 13.825 9.43333 13.825 9.15C13.825 8.86667 13.925 8.625 14.125 8.425L16.6 6H15C14.7167 6 14.4792 5.90417 14.2875 5.7125C14.0958 5.52083 14 5.28333 14 5C14 4.71667 14.0958 4.47917 14.2875 4.2875C14.4792 4.09583 14.7167 4 15 4H19C19.2833 4 19.5208 4.09583 19.7125 4.2875C19.9042 4.47917 20 4.71667 20 5V9C20 9.28333 19.9042 9.52083 19.7125 9.7125C19.5208 9.90417 19.2833 10 19 10C18.7167 10 18.4792 9.90417 18.2875 9.7125C18.0958 9.52083 18 9.28333 18 9V7.4Z" fill="currentColor"/>
</svg>
