<svg width="24" height="24" viewBox="0 0 24 24" fill="none" xmlns="http://www.w3.org/2000/svg">
<path d="M9.266 18.78H8.006C7.886 18.78 7.784 18.744 7.7 18.672C7.628 18.6 7.592 18.504 7.592 18.384C7.592 18.324 7.598 18.264 7.61 18.204C7.634 18.132 7.67 18.048 7.718 17.952L14.036 6.504C14.084 6.408 14.15 6.33 14.234 6.27C14.33 6.21 14.438 6.18 14.558 6.18H15.8C15.92 6.18 16.016 6.222 16.088 6.306C16.16 6.378 16.196 6.474 16.196 6.594C16.196 6.678 16.178 6.756 16.142 6.828C16.118 6.9 16.088 6.972 16.052 7.044L9.824 18.348C9.776 18.432 9.71 18.528 9.626 18.636C9.542 18.732 9.422 18.78 9.266 18.78ZM7.952 12.48C7.448 12.48 6.968 12.372 6.512 12.156C6.068 11.94 5.702 11.604 5.414 11.148C5.138 10.692 5 10.098 5 9.366V9.132C5 8.4 5.138 7.806 5.414 7.35C5.702 6.882 6.068 6.54 6.512 6.324C6.968 6.108 7.448 6 7.952 6C8.468 6 8.948 6.108 9.392 6.324C9.836 6.54 10.196 6.882 10.472 7.35C10.748 7.806 10.886 8.4 10.886 9.132V9.366C10.886 10.098 10.748 10.692 10.472 11.148C10.196 11.604 9.836 11.94 9.392 12.156C8.948 12.372 8.468 12.48 7.952 12.48ZM7.952 10.644C8.216 10.644 8.438 10.548 8.618 10.356C8.798 10.164 8.888 9.828 8.888 9.348V9.132C8.888 8.652 8.798 8.316 8.618 8.124C8.438 7.932 8.216 7.836 7.952 7.836C7.688 7.836 7.466 7.932 7.286 8.124C7.106 8.316 7.016 8.652 7.016 9.132V9.348C7.016 9.828 7.106 10.164 7.286 10.356C7.466 10.548 7.688 10.644 7.952 10.644ZM15.89 18.96C15.386 18.96 14.906 18.852 14.45 18.636C14.006 18.42 13.64 18.084 13.352 17.628C13.076 17.172 12.938 16.578 12.938 15.846V15.612C12.938 14.88 13.076 14.286 13.352 13.83C13.64 13.362 14.006 13.02 14.45 12.804C14.906 12.588 15.386 12.48 15.89 12.48C16.406 12.48 16.886 12.588 17.33 12.804C17.774 13.02 18.134 13.362 18.41 13.83C18.686 14.286 18.824 14.88 18.824 15.612V15.846C18.824 16.578 18.686 17.172 18.41 17.628C18.134 18.084 17.774 18.42 17.33 18.636C16.886 18.852 16.406 18.96 15.89 18.96ZM15.89 17.124C16.154 17.124 16.376 17.028 16.556 16.836C16.736 16.644 16.826 16.308 16.826 15.828V15.612C16.826 15.132 16.736 14.796 16.556 14.604C16.376 14.412 16.154 14.316 15.89 14.316C15.626 14.316 15.404 14.412 15.224 14.604C15.044 14.796 14.954 15.132 14.954 15.612V15.828C14.954 16.308 15.044 16.644 15.224 16.836C15.404 17.028 15.626 17.124 15.89 17.124Z" fill="currentColor"/>
</svg>
