<svg width="24" height="24" viewBox="0 0 24 24" fill="none" xmlns="http://www.w3.org/2000/svg">
<path d="M7 10.6C7 10.4833 6.95 10.4042 6.85 10.3625C6.75 10.3208 6.65833 10.3417 6.575 10.425L5.35 11.65C5.25 11.75 5.2 11.8667 5.2 12C5.2 12.1333 5.25 12.25 5.35 12.35L6.575 13.575C6.65833 13.6583 6.75 13.6792 6.85 13.6375C6.95 13.5958 7 13.5167 7 13.4V10.6ZM13.4 15H10.6C10.4833 15 10.4042 15.05 10.3625 15.15C10.3208 15.25 10.3417 15.3417 10.425 15.425L11.65 16.65C11.75 16.75 11.8667 16.8 12 16.8C12.1333 16.8 12.25 16.75 12.35 16.65L13.575 15.425C13.6583 15.3417 13.6792 15.25 13.6375 15.15C13.5958 15.05 13.5167 15 13.4 15ZM13.4 9C13.5167 9 13.5958 8.95 13.6375 8.85C13.6792 8.75 13.6583 8.65833 13.575 8.575L12.35 7.35C12.25 7.25 12.1333 7.2 12 7.2C11.8667 7.2 11.75 7.25 11.65 7.35L10.425 8.575C10.3417 8.65833 10.3208 8.75 10.3625 8.85C10.4042 8.95 10.4833 9 10.6 9H13.4ZM17 10.6V13.4C17 13.5167 17.05 13.5958 17.15 13.6375C17.25 13.6792 17.3417 13.6583 17.425 13.575L18.65 12.35C18.75 12.25 18.8 12.1333 18.8 12C18.8 11.8667 18.75 11.75 18.65 11.65L17.425 10.425C17.3417 10.3417 17.25 10.3208 17.15 10.3625C17.05 10.4042 17 10.4833 17 10.6ZM4 20C3.45 20 2.97917 19.8042 2.5875 19.4125C2.19583 19.0208 2 18.55 2 18V6C2 5.45 2.19583 4.97917 2.5875 4.5875C2.97917 4.19583 3.45 4 4 4H20C20.55 4 21.0208 4.19583 21.4125 4.5875C21.8042 4.97917 22 5.45 22 6V18C22 18.55 21.8042 19.0208 21.4125 19.4125C21.0208 19.8042 20.55 20 20 20H4ZM4 18H20V6H4V18Z" fill="currentColor"/>
</svg>
