<svg width="24" height="24" viewBox="0 0 24 24" fill="none" xmlns="http://www.w3.org/2000/svg">
<path d="M8 22C7.71667 22 7.47917 21.9042 7.2875 21.7125C7.09583 21.5208 7 21.2833 7 21V5C7 4.71667 7.09583 4.47917 7.2875 4.2875C7.47917 4.09583 7.71667 4 8 4H10V3C10 2.71667 10.0958 2.47917 10.2875 2.2875C10.4792 2.09583 10.7167 2 11 2H13C13.2833 2 13.5208 2.09583 13.7125 2.2875C13.9042 2.47917 14 2.71667 14 3V4H16C16.2833 4 16.5208 4.09583 16.7125 4.2875C16.9042 4.47917 17 4.71667 17 5V21C17 21.2833 16.9042 21.5208 16.7125 21.7125C16.5208 21.9042 16.2833 22 16 22H8ZM9 20H15V6H9V20ZM12 14C12.2833 14 12.5208 13.9042 12.7125 13.7125C12.9042 13.5208 13 13.2833 13 13V9C13 8.71667 12.9042 8.47917 12.7125 8.2875C12.5208 8.09583 12.2833 8 12 8C11.7167 8 11.4792 8.09583 11.2875 8.2875C11.0958 8.47917 11 8.71667 11 9V13C11 13.2833 11.0958 13.5208 11.2875 13.7125C11.4792 13.9042 11.7167 14 12 14ZM12 18C12.2833 18 12.5208 17.9042 12.7125 17.7125C12.9042 17.5208 13 17.2833 13 17C13 16.7167 12.9042 16.4792 12.7125 16.2875C12.5208 16.0958 12.2833 16 12 16C11.7167 16 11.4792 16.0958 11.2875 16.2875C11.0958 16.4792 11 16.7167 11 17C11 17.2833 11.0958 17.5208 11.2875 17.7125C11.4792 17.9042 11.7167 18 12 18Z" fill="currentColor"/>
</svg>
