<svg width="24" height="24" viewBox="0 0 24 24" fill="none" xmlns="http://www.w3.org/2000/svg">
<path d="M5 21C4.45 21 3.97917 20.8042 3.5875 20.4125C3.19583 20.0208 3 19.55 3 19V8C3 7.71667 3.09583 7.47917 3.2875 7.2875C3.47917 7.09583 3.71667 7 4 7C4.28333 7 4.52083 7.09583 4.7125 7.2875C4.90417 7.47917 5 7.71667 5 8V19H16C16.2833 19 16.5208 19.0958 16.7125 19.2875C16.9042 19.4792 17 19.7167 17 20C17 20.2833 16.9042 20.5208 16.7125 20.7125C16.5208 20.9042 16.2833 21 16 21H5ZM12 17C11.7167 17 11.4792 16.9042 11.2875 16.7125C11.0958 16.5208 11 16.2833 11 16C11 15.7167 11.0958 15.4792 11.2875 15.2875C11.4792 15.0958 11.7167 15 12 15C12.2833 15 12.5208 15.0958 12.7125 15.2875C12.9042 15.4792 13 15.7167 13 16C13 16.2833 12.9042 16.5208 12.7125 16.7125C12.5208 16.9042 12.2833 17 12 17ZM8 5C7.71667 5 7.47917 4.90417 7.2875 4.7125C7.09583 4.52083 7 4.28333 7 4C7 3.71667 7.09583 3.47917 7.2875 3.2875C7.47917 3.09583 7.71667 3 8 3C8.28333 3 8.52083 3.09583 8.7125 3.2875C8.90417 3.47917 9 3.71667 9 4C9 4.28333 8.90417 4.52083 8.7125 4.7125C8.52083 4.90417 8.28333 5 8 5ZM12 5C11.7167 5 11.4792 4.90417 11.2875 4.7125C11.0958 4.52083 11 4.28333 11 4C11 3.71667 11.0958 3.47917 11.2875 3.2875C11.4792 3.09583 11.7167 3 12 3C12.2833 3 12.5208 3.09583 12.7125 3.2875C12.9042 3.47917 13 3.71667 13 4C13 4.28333 12.9042 4.52083 12.7125 4.7125C12.5208 4.90417 12.2833 5 12 5ZM16 5C15.7167 5 15.4792 4.90417 15.2875 4.7125C15.0958 4.52083 15 4.28333 15 4C15 3.71667 15.0958 3.47917 15.2875 3.2875C15.4792 3.09583 15.7167 3 16 3C16.2833 3 16.5208 3.09583 16.7125 3.2875C16.9042 3.47917 17 3.71667 17 4C17 4.28333 16.9042 4.52083 16.7125 4.7125C16.5208 4.90417 16.2833 5 16 5ZM20 5C19.7167 5 19.4792 4.90417 19.2875 4.7125C19.0958 4.52083 19 4.28333 19 4C19 3.71667 19.0958 3.47917 19.2875 3.2875C19.4792 3.09583 19.7167 3 20 3C20.2833 3 20.5208 3.09583 20.7125 3.2875C20.9042 3.47917 21 3.71667 21 4C21 4.28333 20.9042 4.52083 20.7125 4.7125C20.5208 4.90417 20.2833 5 20 5ZM8 9C7.71667 9 7.47917 8.90417 7.2875 8.7125C7.09583 8.52083 7 8.28333 7 8C7 7.71667 7.09583 7.47917 7.2875 7.2875C7.47917 7.09583 7.71667 7 8 7C8.28333 7 8.52083 7.09583 8.7125 7.2875C8.90417 7.47917 9 7.71667 9 8C9 8.28333 8.90417 8.52083 8.7125 8.7125C8.52083 8.90417 8.28333 9 8 9ZM8 13C7.71667 13 7.47917 12.9042 7.2875 12.7125C7.09583 12.5208 7 12.2833 7 12C7 11.7167 7.09583 11.4792 7.2875 11.2875C7.47917 11.0958 7.71667 11 8 11C8.28333 11 8.52083 11.0958 8.7125 11.2875C8.90417 11.4792 9 11.7167 9 12C9 12.2833 8.90417 12.5208 8.7125 12.7125C8.52083 12.9042 8.28333 13 8 13ZM8 17C7.71667 17 7.47917 16.9042 7.2875 16.7125C7.09583 16.5208 7 16.2833 7 16C7 15.7167 7.09583 15.4792 7.2875 15.2875C7.47917 15.0958 7.71667 15 8 15C8.28333 15 8.52083 15.0958 8.7125 15.2875C8.90417 15.4792 9 15.7167 9 16C9 16.2833 8.90417 16.5208 8.7125 16.7125C8.52083 16.9042 8.28333 17 8 17ZM16 17C15.7167 17 15.4792 16.9042 15.2875 16.7125C15.0958 16.5208 15 16.2833 15 16C15 15.7167 15.0958 15.4792 15.2875 15.2875C15.4792 15.0958 15.7167 15 16 15C16.2833 15 16.5208 15.0958 16.7125 15.2875C16.9042 15.4792 17 15.7167 17 16C17 16.2833 16.9042 16.5208 16.7125 16.7125C16.5208 16.9042 16.2833 17 16 17ZM20 9C19.7167 9 19.4792 8.90417 19.2875 8.7125C19.0958 8.52083 19 8.28333 19 8C19 7.71667 19.0958 7.47917 19.2875 7.2875C19.4792 7.09583 19.7167 7 20 7C20.2833 7 20.5208 7.09583 20.7125 7.2875C20.9042 7.47917 21 7.71667 21 8C21 8.28333 20.9042 8.52083 20.7125 8.7125C20.5208 8.90417 20.2833 9 20 9ZM20 13C19.7167 13 19.4792 12.9042 19.2875 12.7125C19.0958 12.5208 19 12.2833 19 12C19 11.7167 19.0958 11.4792 19.2875 11.2875C19.4792 11.0958 19.7167 11 20 11C20.2833 11 20.5208 11.0958 20.7125 11.2875C20.9042 11.4792 21 11.7167 21 12C21 12.2833 20.9042 12.5208 20.7125 12.7125C20.5208 12.9042 20.2833 13 20 13ZM20 17C19.7167 17 19.4792 16.9042 19.2875 16.7125C19.0958 16.5208 19 16.2833 19 16C19 15.7167 19.0958 15.4792 19.2875 15.2875C19.4792 15.0958 19.7167 15 20 15C20.2833 15 20.5208 15.0958 20.7125 15.2875C20.9042 15.4792 21 15.7167 21 16C21 16.2833 20.9042 16.5208 20.7125 16.7125C20.5208 16.9042 20.2833 17 20 17Z" fill="currentColor"/>
</svg>
