<svg width="24" height="24" viewBox="0 0 24 24" fill="none" xmlns="http://www.w3.org/2000/svg">
<path d="M20.15 12.0001L16.3 8.10011C16.1167 7.91678 16.0208 7.68761 16.0125 7.41261C16.0042 7.13761 16.1 6.90011 16.3 6.70011C16.4833 6.51678 16.7167 6.42511 17 6.42511C17.2833 6.42511 17.5167 6.51678 17.7 6.70011L22.3 11.3001C22.4 11.4001 22.4708 11.5084 22.5125 11.6251C22.5542 11.7418 22.575 11.8668 22.575 12.0001C22.575 12.1334 22.5542 12.2584 22.5125 12.3751C22.4708 12.4918 22.4 12.6001 22.3 12.7001L17.7 17.3001C17.5167 17.4834 17.2875 17.5793 17.0125 17.5876C16.7375 17.5959 16.5 17.5001 16.3 17.3001C16.1167 17.1168 16.025 16.8834 16.025 16.6001C16.025 16.3168 16.1167 16.0834 16.3 15.9001L20.15 12.0001ZM3.84999 12.0001L7.69999 15.9001C7.88332 16.0834 7.97915 16.3126 7.98749 16.5876C7.99582 16.8626 7.89999 17.1001 7.69999 17.3001C7.51665 17.4834 7.28332 17.5751 6.99999 17.5751C6.71665 17.5751 6.48332 17.4834 6.29999 17.3001L1.69999 12.7001C1.59999 12.6001 1.52915 12.4918 1.48749 12.3751C1.44582 12.2584 1.42499 12.1334 1.42499 12.0001C1.42499 11.8668 1.44582 11.7418 1.48749 11.6251C1.52915 11.5084 1.59999 11.4001 1.69999 11.3001L6.29999 6.70011C6.48332 6.51678 6.71249 6.42094 6.98749 6.41261C7.26249 6.40428 7.49999 6.50011 7.69999 6.70011C7.88332 6.88344 7.97499 7.11678 7.97499 7.40011C7.97499 7.68344 7.88332 7.91678 7.69999 8.10011L3.84999 12.0001ZM7.99999 13.0001C7.71665 13.0001 7.47915 12.9043 7.28749 12.7126C7.09582 12.5209 6.99999 12.2834 6.99999 12.0001C6.99999 11.7168 7.09582 11.4793 7.28749 11.2876C7.47915 11.0959 7.71665 11.0001 7.99999 11.0001C8.28332 11.0001 8.52082 11.0959 8.71249 11.2876C8.90415 11.4793 8.99999 11.7168 8.99999 12.0001C8.99999 12.2834 8.90415 12.5209 8.71249 12.7126C8.52082 12.9043 8.28332 13.0001 7.99999 13.0001ZM12 13.0001C11.7167 13.0001 11.4792 12.9043 11.2875 12.7126C11.0958 12.5209 11 12.2834 11 12.0001C11 11.7168 11.0958 11.4793 11.2875 11.2876C11.4792 11.0959 11.7167 11.0001 12 11.0001C12.2833 11.0001 12.5208 11.0959 12.7125 11.2876C12.9042 11.4793 13 11.7168 13 12.0001C13 12.2834 12.9042 12.5209 12.7125 12.7126C12.5208 12.9043 12.2833 13.0001 12 13.0001ZM16 13.0001C15.7167 13.0001 15.4792 12.9043 15.2875 12.7126C15.0958 12.5209 15 12.2834 15 12.0001C15 11.7168 15.0958 11.4793 15.2875 11.2876C15.4792 11.0959 15.7167 11.0001 16 11.0001C16.2833 11.0001 16.5208 11.0959 16.7125 11.2876C16.9042 11.4793 17 11.7168 17 12.0001C17 12.2834 16.9042 12.5209 16.7125 12.7126C16.5208 12.9043 16.2833 13.0001 16 13.0001Z" fill="currentColor"/>
</svg>
