<svg width="24" height="24" viewBox="0 0 24 24" fill="none" xmlns="http://www.w3.org/2000/svg">
<path d="M9 8.85V12C9 12.2833 9.09583 12.5208 9.2875 12.7125C9.47917 12.9042 9.71667 13 10 13C10.2833 13 10.5208 12.9042 10.7125 12.7125C10.9042 12.5208 11 12.2833 11 12V8.85L11.9 9.725C12.0833 9.90833 12.3125 10 12.5875 10C12.8625 10 13.1 9.9 13.3 9.7C13.4833 9.51667 13.575 9.28333 13.575 9C13.575 8.71667 13.4833 8.48333 13.3 8.3L10.725 5.725C10.525 5.525 10.2875 5.425 10.0125 5.425C9.7375 5.425 9.5 5.525 9.3 5.725L6.7 8.3C6.51667 8.48333 6.42083 8.7125 6.4125 8.9875C6.40417 9.2625 6.5 9.5 6.7 9.7C6.88333 9.88333 7.1125 9.97917 7.3875 9.9875C7.6625 9.99583 7.9 9.90833 8.1 9.725L9 8.85ZM13 15.15L12.1 14.275C11.9167 14.0917 11.6875 14 11.4125 14C11.1375 14 10.9 14.1 10.7 14.3C10.5167 14.4833 10.425 14.7167 10.425 15C10.425 15.2833 10.5167 15.5167 10.7 15.7L13.3 18.3C13.5 18.5 13.7375 18.6 14.0125 18.6C14.2875 18.6 14.525 18.5 14.725 18.3L17.3 15.7C17.4833 15.5167 17.5792 15.2875 17.5875 15.0125C17.5958 14.7375 17.5 14.5 17.3 14.3C17.1167 14.1167 16.8875 14.0208 16.6125 14.0125C16.3375 14.0042 16.1 14.0917 15.9 14.275L15 15.15V12C15 11.7167 14.9042 11.4792 14.7125 11.2875C14.5208 11.0958 14.2833 11 14 11C13.7167 11 13.4792 11.0958 13.2875 11.2875C13.0958 11.4792 13 11.7167 13 12V15.15ZM12 22C10.6167 22 9.31667 21.7375 8.1 21.2125C6.88333 20.6875 5.825 19.975 4.925 19.075C4.025 18.175 3.3125 17.1167 2.7875 15.9C2.2625 14.6833 2 13.3833 2 12C2 10.6167 2.2625 9.31667 2.7875 8.1C3.3125 6.88333 4.025 5.825 4.925 4.925C5.825 4.025 6.88333 3.3125 8.1 2.7875C9.31667 2.2625 10.6167 2 12 2C13.3833 2 14.6833 2.2625 15.9 2.7875C17.1167 3.3125 18.175 4.025 19.075 4.925C19.975 5.825 20.6875 6.88333 21.2125 8.1C21.7375 9.31667 22 10.6167 22 12C22 13.3833 21.7375 14.6833 21.2125 15.9C20.6875 17.1167 19.975 18.175 19.075 19.075C18.175 19.975 17.1167 20.6875 15.9 21.2125C14.6833 21.7375 13.3833 22 12 22ZM12 20C14.2333 20 16.125 19.225 17.675 17.675C19.225 16.125 20 14.2333 20 12C20 9.76667 19.225 7.875 17.675 6.325C16.125 4.775 14.2333 4 12 4C9.76667 4 7.875 4.775 6.325 6.325C4.775 7.875 4 9.76667 4 12C4 14.2333 4.775 16.125 6.325 17.675C7.875 19.225 9.76667 20 12 20Z" fill="currentColor"/>
</svg>
