<svg width="24" height="24" viewBox="0 0 24 24" fill="none" xmlns="http://www.w3.org/2000/svg">
<path d="M12 7C11.7167 7 11.4792 6.90417 11.2875 6.7125C11.0959 6.52083 11 6.28333 11 6V3C11 2.71667 11.0959 2.47917 11.2875 2.2875C11.4792 2.09583 11.7167 2 12 2C12.2834 2 12.5209 2.09583 12.7125 2.2875C12.9042 2.47917 13 2.71667 13 3V6C13 6.28333 12.9042 6.52083 12.7125 6.7125C12.5209 6.90417 12.2834 7 12 7ZM16.9 9.1C16.7167 8.9 16.6209 8.66667 16.6125 8.4C16.6042 8.13333 16.7 7.9 16.9 7.7L19.025 5.575C19.225 5.375 19.4625 5.27917 19.7375 5.2875C20.0125 5.29583 20.25 5.4 20.45 5.6C20.6334 5.8 20.7292 6.03333 20.7375 6.3C20.7459 6.56667 20.65 6.8 20.45 7L18.325 9.125C18.125 9.325 17.8875 9.42083 17.6125 9.4125C17.3375 9.40417 17.1 9.3 16.9 9.1ZM7.10005 9.1C6.90005 9.3 6.66255 9.40417 6.38755 9.4125C6.11255 9.42083 5.87505 9.325 5.67505 9.125L3.55005 7C3.35005 6.8 3.25422 6.56667 3.26255 6.3C3.27088 6.03333 3.36672 5.8 3.55005 5.6C3.75005 5.4 3.98755 5.29583 4.26255 5.2875C4.53755 5.27917 4.77505 5.375 4.97505 5.575L7.10005 7.7C7.30005 7.9 7.39588 8.13333 7.38755 8.4C7.37922 8.66667 7.28338 8.9 7.10005 9.1ZM3.40005 20.4L1.10005 18.15C0.900049 17.95 0.800049 17.7167 0.800049 17.45C0.800049 17.1833 0.900049 16.95 1.10005 16.75C2.56672 15.1667 4.25838 13.9792 6.17505 13.1875C8.09172 12.3958 10.0334 12 12 12C13.9667 12 15.9042 12.3958 17.8125 13.1875C19.7209 13.9792 21.4167 15.1667 22.9 16.75C23.1 16.95 23.2 17.1833 23.2 17.45C23.2 17.7167 23.1 17.95 22.9 18.15L20.6 20.4C20.4167 20.5833 20.2042 20.6833 19.9625 20.7C19.7209 20.7167 19.5 20.65 19.3 20.5L16.4 18.3C16.2667 18.2 16.1667 18.0833 16.1 17.95C16.0334 17.8167 16 17.6667 16 17.5V14.65C15.3667 14.45 14.7167 14.2917 14.05 14.175C13.3834 14.0583 12.7 14 12 14C11.3 14 10.6167 14.0583 9.95005 14.175C9.28338 14.2917 8.63338 14.45 8.00005 14.65V17.5C8.00005 17.6667 7.96672 17.8167 7.90005 17.95C7.83338 18.0833 7.73338 18.2 7.60005 18.3L4.70005 20.5C4.50005 20.65 4.27922 20.7167 4.03755 20.7C3.79588 20.6833 3.58338 20.5833 3.40005 20.4ZM6.00005 15.35C5.51672 15.6 5.05005 15.8875 4.60005 16.2125C4.15005 16.5375 3.68338 16.9 3.20005 17.3L4.20005 18.3L6.00005 16.9V15.35ZM18 15.4V16.9L19.8 18.3L20.8 17.35C20.3167 16.9167 19.85 16.5417 19.4 16.225C18.95 15.9083 18.4834 15.6333 18 15.4Z" fill="currentColor"/>
</svg>
