<svg width="24" height="24" viewBox="0 0 24 24" fill="none" xmlns="http://www.w3.org/2000/svg">
<path d="M14.925 3C15.1917 3 15.4458 3.05 15.6875 3.15C15.9292 3.25 16.1417 3.39167 16.325 3.575L20.425 7.675C20.6083 7.85833 20.75 8.07083 20.85 8.3125C20.95 8.55417 21 8.80833 21 9.075V15C21 15.2833 20.9042 15.5208 20.7125 15.7125C20.5208 15.9042 20.2833 16 20 16C19.7167 16 19.4792 15.9042 19.2875 15.7125C19.0958 15.5208 19 15.2833 19 15V9.1L14.9 5H9.00001C8.71668 5 8.47918 4.90417 8.28751 4.7125C8.09585 4.52083 8.00001 4.28333 8.00001 4C8.00001 3.71667 8.09585 3.47917 8.28751 3.2875C8.47918 3.09583 8.71668 3 9.00001 3H14.925ZM13 10.2V8C13 7.71667 12.9042 7.47917 12.7125 7.2875C12.5208 7.09583 12.2833 7 12 7C11.7167 7 11.4792 7.09583 11.2875 7.2875C11.0958 7.47917 11 7.71667 11 8V8.2L13 10.2ZM9.07501 21C8.80835 21 8.55418 20.9458 8.31251 20.8375C8.07085 20.7292 7.85835 20.5833 7.67501 20.4L3.57501 16.275C3.39168 16.0917 3.25001 15.8792 3.15001 15.6375C3.05001 15.3958 3.00001 15.1417 3.00001 14.875V9.075C3.00001 8.80833 3.05001 8.55417 3.15001 8.3125C3.25001 8.07083 3.39168 7.85833 3.57501 7.675L4.20001 7.05L2.10001 4.9C1.91668 4.71667 1.82085 4.4875 1.81251 4.2125C1.80418 3.9375 1.90001 3.7 2.10001 3.5C2.28335 3.31667 2.51668 3.225 2.80001 3.225C3.08335 3.225 3.31668 3.31667 3.50001 3.5L20.5 20.5C20.6833 20.6833 20.775 20.9167 20.775 21.2C20.775 21.4833 20.6833 21.7167 20.5 21.9C20.3167 22.0833 20.0833 22.175 19.8 22.175C19.5167 22.175 19.2833 22.0833 19.1 21.9L16.95 19.75L16.35 20.375C16.1667 20.575 15.95 20.7292 15.7 20.8375C15.45 20.9458 15.1833 21 14.9 21H9.07501ZM9.10001 19H14.9L15.55 18.35L5.65001 8.45L5.00001 9.1V14.9L9.10001 19ZM12 17C11.7167 17 11.4792 16.9042 11.2875 16.7125C11.0958 16.5208 11 16.2833 11 16C11 15.7167 11.0958 15.4792 11.2875 15.2875C11.4792 15.0958 11.7167 15 12 15C12.2833 15 12.5208 15.0958 12.7125 15.2875C12.9042 15.4792 13 15.7167 13 16C13 16.2833 12.9042 16.5208 12.7125 16.7125C12.5208 16.9042 12.2833 17 12 17Z" fill="currentColor"/>
</svg>
