<svg width="24" height="24" viewBox="0 0 24 24" fill="none" xmlns="http://www.w3.org/2000/svg">
<g clip-path="url(#clip0_330_9333)">
<path d="M3.14961 6.21064V4.35759C3.14961 3.72247 2.63474 3.20759 1.99961 3.20759C1.36448 3.20759 0.849609 3.72247 0.849609 4.35759V8.16712C0.849609 9.32823 1.79088 10.2695 2.95199 10.2695H6.76151C7.39664 10.2695 7.91151 9.75463 7.91151 9.1195C7.91151 8.48437 7.39664 7.9695 6.76151 7.9695H4.38446C4.78517 7.50997 5.42279 6.89426 6.30746 6.30118C7.76248 5.32574 9.82427 4.45522 12.4758 4.45522C15.0673 4.45522 17.109 5.51969 18.5268 6.61663C19.2344 7.16412 19.7758 7.71192 20.138 8.12004C20.3187 8.3236 20.4534 8.49093 20.5407 8.60403C20.5843 8.66054 20.616 8.70336 20.6355 8.73023L20.6555 8.75823L20.6586 8.7626C20.9868 9.23928 21.6391 9.36062 22.1168 9.03339C22.5952 8.70569 22.7174 8.05219 22.3897 7.57376L21.5234 8.16713C22.3897 7.57376 22.3899 7.57415 22.3897 7.57376L22.3886 7.57214L22.3872 7.57008L22.3834 7.56466L22.3722 7.5487C22.3632 7.53583 22.3508 7.51852 22.3353 7.49707C22.3042 7.45419 22.2601 7.3947 22.2032 7.321C22.0895 7.17368 21.9242 6.96899 21.7087 6.72612C21.2785 6.24139 20.6429 5.59871 19.8118 4.95572C18.1523 3.67171 15.6701 2.35522 12.4758 2.35522C9.34149 2.35522 6.87946 3.38947 5.13809 4.55689C4.33116 5.09784 3.66432 5.67772 3.14961 6.21064Z" fill="currentColor"/>
<path d="M3.14961 11.9767C3.14961 11.3416 2.63474 10.8267 1.99961 10.8267C1.36448 10.8267 0.849609 11.3416 0.849609 11.9767V18.6434C0.849609 19.8045 1.79088 20.7458 2.95199 20.7458H21.0472C22.2083 20.7458 23.1496 19.8045 23.1496 18.6434V11.9767C23.1496 11.3416 22.6347 10.8267 21.9996 10.8267C21.3645 10.8267 20.8496 11.3416 20.8496 11.9767V18.4458H3.14961V11.9767Z" fill="currentColor"/>
<path d="M9.95197 12.001C9.95197 11.4751 9.52558 11.0487 8.99959 11.0487C8.47361 11.0487 8.04721 11.4751 8.04721 12.001C8.04721 14.1839 9.81675 15.9534 11.9996 15.9534C14.1824 15.9534 15.952 14.1839 15.952 12.001C15.952 11.4751 15.5256 11.0487 14.9996 11.0487C14.4736 11.0487 14.0472 11.4751 14.0472 12.001C14.0472 13.1319 13.1305 14.0487 11.9996 14.0487C10.8687 14.0487 9.95197 13.1319 9.95197 12.001Z" fill="currentColor"/>
</g>
<defs>
<clipPath id="clip0_330_9333">
<rect width="24" height="24" fill="white"/>
</clipPath>
</defs>
</svg>
