<svg width="24" height="24" viewBox="0 0 24 24" fill="none" xmlns="http://www.w3.org/2000/svg">
<mask id="mask0_2509_34379" style="mask-type:alpha" maskUnits="userSpaceOnUse" x="0" y="0" width="24" height="">
<path d="M16 0H0V16H16V0Z" fill="currentColor"/>
</mask>
<g mask="url(#mask0_2509_34379)">
<path d="M11.663 6.01921C11.6629 6.39785 11.3559 6.70492 10.9773 6.70492C10.5986 6.70492 10.2916 6.39785 10.2916 6.01921V4.57144H5.64358L8.27661 7.54532L8.32015 7.60023C8.52312 7.8824 8.48355 8.27828 8.2177 8.51361C7.95194 8.74888 7.55444 8.74031 7.29894 8.5049L7.24938 8.45471L4.11143 4.91028C3.52396 4.24654 3.99512 3.20011 4.88153 3.20001H10.6344C11.2025 3.20001 11.663 3.66052 11.663 4.22858V6.01921Z" fill="currentColor"/>
<path d="M11.663 9.98094C11.6629 9.60229 11.3559 9.29523 10.9773 9.29523C10.5986 9.29523 10.2916 9.60229 10.2916 9.98094V11.4287H5.64358L8.27661 8.45482L8.32015 8.39989C8.52312 8.11772 8.48356 7.72189 8.2177 7.48651C7.95194 7.25125 7.55444 7.25981 7.29894 7.49521L7.24939 7.54543L4.11143 11.0899C3.52396 11.7536 3.99512 12.8001 4.88153 12.8001H10.6344C11.2025 12.8001 11.663 12.3396 11.663 11.7715V9.98094Z" fill="currentColor"/>
</g>
</svg>