<svg width="24" height="24" viewBox="0 0 24 24" fill="none" xmlns="http://www.w3.org/2000/svg">
<path d="M18.625 14.375C18.425 14.575 18.1916 14.6708 17.925 14.6625C17.6583 14.6542 17.425 14.55 17.225 14.35C17.025 14.15 16.925 13.9125 16.925 13.6375C16.925 13.3625 17.025 13.125 17.225 12.925L21.1 9.05C19.7833 8.05 18.35 7.29167 16.8 6.775C15.25 6.25833 13.65 6 12 6C11.5166 6 11.0333 6.025 10.55 6.075C10.0666 6.125 9.58329 6.19167 9.09995 6.275C8.81662 6.325 8.56662 6.275 8.34995 6.125C8.13328 5.975 7.99995 5.75833 7.94995 5.475C7.89995 5.20833 7.94995 4.9625 8.09995 4.7375C8.24995 4.5125 8.46662 4.375 8.74995 4.325C9.28329 4.225 9.82078 4.14583 10.3625 4.0875C10.9041 4.02917 11.45 4 12 4C14.0833 4 16.0791 4.3625 17.9875 5.0875C19.8958 5.8125 21.6333 6.88333 23.2 8.3C23.3166 8.38333 23.4 8.49167 23.45 8.625C23.5 8.75833 23.525 8.89167 23.525 9.025C23.525 9.15833 23.5041 9.2875 23.4625 9.4125C23.4208 9.5375 23.35 9.65 23.25 9.75L18.625 14.375ZM12 18.15L13.675 16.5L4.92495 7.75C4.57495 7.93333 4.23328 8.1375 3.89995 8.3625C3.56662 8.5875 3.23328 8.81667 2.89995 9.05L12 18.15ZM19.775 22.575L15.1 17.9L12.7 20.3C12.6 20.4 12.4916 20.475 12.375 20.525C12.2583 20.575 12.1333 20.6 12 20.6C11.8666 20.6 11.7416 20.575 11.625 20.525C11.5083 20.475 11.4 20.4 11.3 20.3L0.749951 9.75C0.649951 9.65 0.574951 9.5375 0.524951 9.4125C0.474951 9.2875 0.449951 9.15833 0.449951 9.025C0.449951 8.89167 0.474951 8.75833 0.524951 8.625C0.574951 8.49167 0.658285 8.375 0.774951 8.275C1.20828 7.89167 1.64995 7.53333 2.09995 7.2C2.54995 6.86667 3.00828 6.56667 3.47495 6.3L1.37495 4.2C1.17495 4 1.07912 3.76667 1.08745 3.5C1.09578 3.23333 1.19995 3 1.39995 2.8C1.59995 2.6 1.83745 2.5 2.11245 2.5C2.38745 2.5 2.62495 2.6 2.82495 2.8L21.2 21.175C21.4 21.375 21.5 21.6083 21.5 21.875C21.5 22.1417 21.4 22.375 21.2 22.575C21 22.775 20.7625 22.875 20.4875 22.875C20.2125 22.875 19.975 22.775 19.775 22.575Z" fill="currentColor"/>
</svg>
