<svg width="24" height="24" viewBox="0 0 24 24" fill="none" xmlns="http://www.w3.org/2000/svg">
<path d="M15.7812 17.3507H14.8917C14.7944 17.3507 14.7118 17.3216 14.6437 17.2632C14.5854 17.1952 14.5562 17.1126 14.5562 17.0153V7.49242C14.5562 7.39519 14.5854 7.31255 14.6437 7.2445C14.7118 7.17644 14.7944 7.14242 14.8917 7.14242H18.5667C19.1889 7.14242 19.7333 7.26394 20.2 7.507C20.6764 7.74033 21.0458 8.08547 21.3083 8.54242C21.5806 8.99936 21.7167 9.55839 21.7167 10.2195V10.5841C21.7167 11.2452 21.5806 11.8188 21.3083 12.3049C21.0458 12.7813 20.6764 13.1507 20.2 13.4132C19.7333 13.6757 19.1889 13.807 18.5667 13.807H16.1167V17.0153C16.1167 17.1126 16.0826 17.1952 16.0146 17.2632C15.9465 17.3216 15.8687 17.3507 15.7812 17.3507ZM16.1167 8.61533V12.3341H18.4646C18.7757 12.3341 19.0576 12.2709 19.3104 12.1445C19.5632 12.0181 19.7674 11.8237 19.9229 11.5612C20.0785 11.2987 20.1562 10.9681 20.1562 10.5695V10.307C20.1562 9.90839 20.0785 9.58269 19.9229 9.32992C19.7674 9.07714 19.5632 8.89728 19.3104 8.79033C19.0576 8.67367 18.7757 8.61533 18.4646 8.61533H16.1167Z" fill="currentColor"/>
<path d="M12.3979 17.3507H11.5083C11.4111 17.3507 11.3285 17.3216 11.2604 17.2632C11.2021 17.1952 11.1729 17.1126 11.1729 17.0153V7.49242C11.1729 7.39519 11.2021 7.31255 11.2604 7.2445C11.3285 7.17644 11.4111 7.14242 11.5083 7.14242H12.3979C12.4854 7.14242 12.5632 7.17644 12.6312 7.2445C12.6993 7.31255 12.7333 7.39519 12.7333 7.49242V17.0153C12.7333 17.1126 12.6993 17.1952 12.6312 17.2632C12.5632 17.3216 12.4854 17.3507 12.3979 17.3507Z" fill="currentColor"/>
<path d="M5.74792 17.5C5.06736 17.5 4.48889 17.3979 4.0125 17.1937C3.53611 16.9896 3.14722 16.7271 2.84583 16.4062C2.55417 16.0854 2.34028 15.7451 2.20417 15.3854C2.06806 15.0257 2 14.6854 2 14.3646C2 14.2771 2.02917 14.1993 2.0875 14.1313C2.15556 14.0632 2.23819 14.0292 2.33542 14.0292H3.21042C3.30764 14.0292 3.38056 14.0632 3.42917 14.1313C3.4875 14.1993 3.52153 14.2674 3.53125 14.3354C3.55069 14.4521 3.58958 14.6125 3.64792 14.8167C3.70625 15.0111 3.80833 15.2104 3.95417 15.4146C4.10972 15.609 4.32847 15.7743 4.61042 15.9104C4.90208 16.0465 5.28125 16.1146 5.74792 16.1146C6.16597 16.1146 6.52569 16.066 6.82708 15.9688C7.13819 15.8715 7.37639 15.7111 7.54167 15.4875C7.70694 15.2542 7.78958 14.9528 7.78958 14.5833C7.78958 14.2333 7.6875 13.9563 7.48333 13.7521C7.27917 13.5479 7.01181 13.3875 6.68125 13.2708C6.36042 13.1444 6.00556 13.0326 5.61667 12.9354C5.22778 12.8285 4.83403 12.7069 4.43542 12.5708C4.03681 12.4347 3.67222 12.2549 3.34167 12.0313C3.02083 11.8076 2.75833 11.516 2.55417 11.1563C2.35972 10.7868 2.2625 10.3201 2.2625 9.75625C2.2625 9.15347 2.39861 8.65278 2.67083 8.25417C2.95278 7.84583 3.35625 7.53472 3.88125 7.32083C4.40625 7.10694 5.03819 7 5.77708 7C6.38958 7 6.90972 7.08264 7.3375 7.24792C7.76528 7.41319 8.11042 7.63194 8.37292 7.90417C8.64514 8.16667 8.83958 8.45833 8.95625 8.77917C9.08264 9.1 9.14583 9.41597 9.14583 9.72708C9.14583 9.82431 9.11181 9.90694 9.04375 9.975C8.97569 10.0333 8.89305 10.0625 8.79583 10.0625H7.92083C7.72639 10.0625 7.60972 9.96042 7.57083 9.75625C7.54167 9.52292 7.46875 9.30417 7.35208 9.1C7.24514 8.88611 7.06528 8.71597 6.8125 8.58958C6.55972 8.45347 6.20486 8.38542 5.74792 8.38542C5.36875 8.38542 5.03333 8.42431 4.74167 8.50208C4.45 8.57986 4.22153 8.71597 4.05625 8.91042C3.90069 9.10486 3.82292 9.38681 3.82292 9.75625C3.82292 10.1063 3.925 10.3882 4.12917 10.6021C4.33333 10.8062 4.59583 10.9764 4.91667 11.1125C5.24722 11.2389 5.60694 11.3507 5.99583 11.4479C6.39444 11.5451 6.78819 11.6618 7.17708 11.7979C7.57569 11.934 7.93542 12.1139 8.25625 12.3375C8.5868 12.5514 8.84931 12.8382 9.04375 13.1979C9.24792 13.5576 9.35 14.0194 9.35 14.5833C9.35 15.1181 9.24792 15.575 9.04375 15.9542C8.83958 16.3236 8.5625 16.625 8.2125 16.8583C7.87222 17.0819 7.48819 17.2472 7.06042 17.3542C6.63264 17.4514 6.19514 17.5 5.74792 17.5Z" fill="currentColor"/>
</svg>
