<svg width="24" height="24" viewBox="0 0 24 24" fill="none" xmlns="http://www.w3.org/2000/svg">
<path d="M11.05 17L15.2 14.35C15.5 14.15 15.65 13.8667 15.65 13.5C15.65 13.1333 15.5 12.85 15.2 12.65L11.05 10C10.7167 9.78333 10.375 9.76667 10.025 9.95C9.675 10.1333 9.5 10.425 9.5 10.825V16.175C9.5 16.575 9.675 16.8667 10.025 17.05C10.375 17.2333 10.7167 17.2167 11.05 17ZM4 21C3.45 21 2.97917 20.8042 2.5875 20.4125C2.19583 20.0208 2 19.55 2 19V7C2 6.71667 2.09583 6.47917 2.2875 6.2875C2.47917 6.09583 2.71667 6 3 6H8V4C8 3.45 8.19583 2.97917 8.5875 2.5875C8.97917 2.19583 9.45 2 10 2H14C14.55 2 15.0208 2.19583 15.4125 2.5875C15.8042 2.97917 16 3.45 16 4V6H21C21.2833 6 21.5208 6.09583 21.7125 6.2875C21.9042 6.47917 22 6.71667 22 7V19C22 19.55 21.8042 20.0208 21.4125 20.4125C21.0208 20.8042 20.55 21 20 21H4ZM4 19H20V8H4V19ZM10 6H14V4H10V6Z" fill="currentColor"/>
</svg>
