<svg width="24" height="24" viewBox="0 0 24 24" fill="none" xmlns="http://www.w3.org/2000/svg">
<path d="M2 14.0001C1.45 14.0001 0.979167 13.8043 0.5875 13.4126C0.195833 13.0209 0 12.5501 0 12.0001V6.0001C0 5.8001 0.0416667 5.60843 0.125 5.4251C0.208333 5.24176 0.316667 5.08343 0.45 4.9501L3.6 1.8001C3.75 1.6501 3.91667 1.5376 4.1 1.4626C4.28333 1.3876 4.46667 1.3501 4.65 1.3501C5.08333 1.3501 5.45833 1.51676 5.775 1.8501C6.09167 2.18343 6.20833 2.60843 6.125 3.1251L5.8 5.0001H11C11.2833 5.0001 11.5208 5.09593 11.7125 5.2876C11.9042 5.47926 12 5.71676 12 6.0001V7.2501C12 7.3501 11.9917 7.44593 11.975 7.5376C11.9583 7.62926 11.9333 7.71676 11.9 7.8001L9.65 13.1001C9.53333 13.3834 9.34583 13.6043 9.0875 13.7626C8.82917 13.9209 8.55 14.0001 8.25 14.0001H2ZM7.95 12.0001L10 7.1501V7.0001H3.35L3.95 4.3001L2 6.2001V12.0001H7.95ZM13 19.0001C12.7167 19.0001 12.4792 18.9043 12.2875 18.7126C12.0958 18.5209 12 18.2834 12 18.0001V16.7501C12 16.6501 12.0083 16.5543 12.025 16.4626C12.0417 16.3709 12.0667 16.2834 12.1 16.2001L14.35 10.9001C14.4833 10.6168 14.675 10.3959 14.925 10.2376C15.175 10.0793 15.45 10.0001 15.75 10.0001H22C22.55 10.0001 23.0208 10.1959 23.4125 10.5876C23.8042 10.9793 24 11.4501 24 12.0001V18.0001C24 18.2001 23.9625 18.3876 23.8875 18.5626C23.8125 18.7376 23.7 18.9001 23.55 19.0501L20.4 22.2001C20.25 22.3501 20.0833 22.4626 19.9 22.5376C19.7167 22.6126 19.5333 22.6501 19.35 22.6501C18.9167 22.6501 18.5417 22.4834 18.225 22.1501C17.9083 21.8168 17.7917 21.3918 17.875 20.8751L18.2 19.0001H13ZM16.05 12.0001L14 16.8501V17.0001H20.65L20.05 19.7001L22 17.8001V12.0001H16.05Z" fill="currentColor"/>
</svg>
