<svg width="24" height="24" viewBox="0 0 24 24" fill="none" xmlns="http://www.w3.org/2000/svg">
<g clip-path="url(#clip0_1_644)">
<path d="M5.4251 13.5623C5.3751 13.4207 5.3501 13.2833 5.3501 13.1501C5.3501 13.0001 5.3751 12.8583 5.4251 12.7247C5.4751 12.5915 5.5583 12.4665 5.6747 12.3497L8.2499 9.7751C8.4167 9.6083 8.6209 9.5249 8.8625 9.5249C9.1041 9.5249 9.3165 9.6165 9.4997 9.7997C9.6665 9.9833 9.7541 10.1959 9.7625 10.4375C9.7709 10.6791 9.6833 10.8833 9.4997 11.0501L8.2499 12.2999H15.7499L14.5001 11.0747C14.3001 10.8915 14.2001 10.6749 14.2001 10.4249C14.2001 10.1749 14.3001 9.9583 14.5001 9.7751C14.6665 9.6083 14.8747 9.5249 15.1247 9.5249C15.3747 9.5249 15.5915 9.6083 15.7751 9.7751L18.3497 12.3497C18.4497 12.4665 18.5247 12.5915 18.5747 12.7247C18.6247 12.8583 18.6497 13.0001 18.6497 13.1501C18.6497 13.2833 18.6247 13.4207 18.5747 13.5623C18.5247 13.7039 18.4497 13.8247 18.3497 13.9247L15.7751 16.4999C15.5915 16.6831 15.3747 16.7747 15.1247 16.7747C14.8747 16.7747 14.6665 16.6831 14.5001 16.4999C14.3001 16.3167 14.2001 16.1001 14.2001 15.8501C14.2001 15.6001 14.3001 15.3833 14.5001 15.1997L15.7499 13.9751H8.2499L9.4997 15.2249C9.6833 15.3917 9.7709 15.5959 9.7625 15.8375C9.7541 16.0791 9.6665 16.2915 9.4997 16.4747C9.3165 16.6583 9.1041 16.7543 8.8625 16.7627C8.6209 16.7707 8.4167 16.6831 8.2499 16.4999L5.6747 13.9247C5.5583 13.8247 5.4751 13.7039 5.4251 13.5623Z" fill="currentColor"/>
<path fill-rule="evenodd" clip-rule="evenodd" d="M2.08745 20.9375C2.52905 21.3791 3.04985 21.5999 3.64985 21.5999H20.3502C20.9502 21.5999 21.471 21.3791 21.9126 20.9375C22.3542 20.4959 22.575 19.9667 22.575 19.3499V6.8999C22.575 6.2999 22.3542 5.7791 21.9126 5.3375C21.471 4.8959 20.9502 4.6751 20.3502 4.6751H17.025L15.0252 2.3501H9.00005L7.00025 4.6751H3.64985C3.04985 4.6751 2.52905 4.8959 2.08745 5.3375C1.64585 5.7791 1.42505 6.2999 1.42505 6.8999V19.3499C1.42505 19.9667 1.64585 20.4959 2.08745 20.9375ZM20.3502 6.8999V19.3499H3.64985V6.8999H7.99985L10.0248 4.5749H13.9998L16.0002 6.8999H20.3502Z" fill="currentColor"/>
</g>
<defs>
<clipPath id="clip0_1_644">
<rect width="24" height="24" fill="white"/>
</clipPath>
</defs>
</svg>
