<svg width="24" height="24" viewBox="0 0 24 24" fill="none" xmlns="http://www.w3.org/2000/svg">
<path d="M4 11.475C4 12.6583 4.39583 13.675 5.1875 14.525C5.97917 15.375 6.96667 15.85 8.15 15.95L7.3 15.1C7.11667 14.9167 7.025 14.6833 7.025 14.4C7.025 14.1167 7.11667 13.8833 7.3 13.7C7.48333 13.5167 7.71667 13.425 8 13.425C8.28333 13.425 8.51667 13.5167 8.7 13.7L11.3 16.3C11.5 16.5 11.6 16.7333 11.6 17C11.6 17.2667 11.5 17.5 11.3 17.7L8.7 20.3C8.51667 20.4833 8.28333 20.575 8 20.575C7.71667 20.575 7.48333 20.4833 7.3 20.3C7.11667 20.1167 7.025 19.8833 7.025 19.6C7.025 19.3167 7.11667 19.0833 7.3 18.9L8.2 18C6.45 17.9 4.97917 17.225 3.7875 15.975C2.59583 14.725 2 13.2333 2 11.5C2 9.68333 2.62917 8.14583 3.8875 6.8875C5.14583 5.62917 6.68333 5 8.5 5H11C11.2833 5 11.5208 5.09583 11.7125 5.2875C11.9042 5.47917 12 5.71667 12 6C12 6.28333 11.9042 6.52083 11.7125 6.7125C11.5208 6.90417 11.2833 7 11 7H8.5C7.25 7 6.1875 7.43333 5.3125 8.3C4.4375 9.16667 4 10.225 4 11.475ZM15 16H21C21.2833 16 21.5208 16.0958 21.7125 16.2875C21.9042 16.4792 22 16.7167 22 17C22 17.2833 21.9042 17.5208 21.7125 17.7125C21.5208 17.9042 21.2833 18 21 18H15C14.7167 18 14.4792 17.9042 14.2875 17.7125C14.0958 17.5208 14 17.2833 14 17C14 16.7167 14.0958 16.4792 14.2875 16.2875C14.4792 16.0958 14.7167 16 15 16ZM15 10.5H21C21.2833 10.5 21.5208 10.5958 21.7125 10.7875C21.9042 10.9792 22 11.2167 22 11.5C22 11.7833 21.9042 12.0208 21.7125 12.2125C21.5208 12.4042 21.2833 12.5 21 12.5H15C14.7167 12.5 14.4792 12.4042 14.2875 12.2125C14.0958 12.0208 14 11.7833 14 11.5C14 11.2167 14.0958 10.9792 14.2875 10.7875C14.4792 10.5958 14.7167 10.5 15 10.5ZM15 5H21C21.2833 5 21.5208 5.09583 21.7125 5.2875C21.9042 5.47917 22 5.71667 22 6C22 6.28333 21.9042 6.52083 21.7125 6.7125C21.5208 6.90417 21.2833 7 21 7H15C14.7167 7 14.4792 6.90417 14.2875 6.7125C14.0958 6.52083 14 6.28333 14 6C14 5.71667 14.0958 5.47917 14.2875 5.2875C14.4792 5.09583 14.7167 5 15 5Z" fill="currentColor"/>
</svg>
