<svg width="24" height="24" viewBox="0 0 24 24" fill="none" xmlns="http://www.w3.org/2000/svg">
<path d="M9 16H15.5C16.2 16 16.7917 15.7583 17.275 15.275C17.7583 14.7917 18 14.2 18 13.5C18 12.8 17.7583 12.2083 17.275 11.725C16.7917 11.2417 16.2 11 15.5 11H15.45C15.3167 10.15 14.9458 9.4375 14.3375 8.8625C13.7292 8.2875 13 8 12.15 8C11.45 8 10.8 8.175 10.2 8.525C9.6 8.875 9.15 9.36667 8.85 10H8.725C7.94167 10 7.29167 10.3 6.775 10.9C6.25833 11.5 6 12.2 6 13C6 13.8333 6.29167 14.5417 6.875 15.125C7.45833 15.7083 8.16667 16 9 16ZM9 14C8.71667 14 8.47917 13.9042 8.2875 13.7125C8.09583 13.5208 8 13.2833 8 13C8 12.7167 8.09583 12.4792 8.2875 12.2875C8.47917 12.0958 8.71667 12 9 12H10.25V11.75C10.25 11.2667 10.4208 10.8542 10.7625 10.5125C11.1042 10.1708 11.5167 10 12 10C12.4833 10 12.8958 10.1708 13.2375 10.5125C13.5792 10.8542 13.75 11.2667 13.75 11.75V13H15.5C15.6333 13 15.75 13.05 15.85 13.15C15.95 13.25 16 13.3667 16 13.5C16 13.6333 15.95 13.75 15.85 13.85C15.75 13.95 15.6333 14 15.5 14H9ZM4 20C3.45 20 2.97917 19.8042 2.5875 19.4125C2.19583 19.0208 2 18.55 2 18V6C2 5.45 2.19583 4.97917 2.5875 4.5875C2.97917 4.19583 3.45 4 4 4H20C20.55 4 21.0208 4.19583 21.4125 4.5875C21.8042 4.97917 22 5.45 22 6V18C22 18.55 21.8042 19.0208 21.4125 19.4125C21.0208 19.8042 20.55 20 20 20H4ZM4 18H20V6H4V18Z" fill="currentColor"/>
</svg>
