<svg width="24" height="24" viewBox="0 0 24 24" fill="none" xmlns="http://www.w3.org/2000/svg">
<path d="M4.94999 7.325L4.19999 6.6C3.99999 6.41667 3.90415 6.1875 3.91249 5.9125C3.92082 5.6375 4.01665 5.4 4.19999 5.2C4.39999 5 4.63749 4.89583 4.91249 4.8875C5.18749 4.87917 5.42499 4.975 5.62499 5.175L6.34999 5.9C6.53332 6.08333 6.62915 6.3125 6.63749 6.5875C6.64582 6.8625 6.54999 7.1 6.34999 7.3C6.16665 7.48333 5.93749 7.57917 5.66249 7.5875C5.38749 7.59583 5.14999 7.50833 4.94999 7.325ZM11 4V3C11 2.71667 11.0958 2.47917 11.2875 2.2875C11.4792 2.09583 11.7167 2 12 2C12.2833 2 12.5208 2.09583 12.7125 2.2875C12.9042 2.47917 13 2.71667 13 3V4C13 4.28333 12.9042 4.52083 12.7125 4.7125C12.5208 4.90417 12.2833 5 12 5C11.7167 5 11.4792 4.90417 11.2875 4.7125C11.0958 4.52083 11 4.28333 11 4ZM17.7 5.875L18.4 5.175C18.5833 4.99167 18.8125 4.9 19.0875 4.9C19.3625 4.9 19.6 5 19.8 5.2C19.9833 5.38333 20.075 5.61667 20.075 5.9C20.075 6.18333 19.9833 6.41667 19.8 6.6L19.1 7.3C18.9167 7.48333 18.6875 7.57917 18.4125 7.5875C18.1375 7.59583 17.9 7.50833 17.7 7.325C17.5 7.125 17.4 6.88333 17.4 6.6C17.4 6.31667 17.5 6.075 17.7 5.875ZM8.99999 20V17L6.57499 14.575C6.39165 14.3917 6.24999 14.1792 6.14999 13.9375C6.04999 13.6958 5.99999 13.4417 5.99999 13.175V11C5.99999 10.45 6.19582 9.97917 6.58749 9.5875C6.97915 9.19583 7.44999 9 7.99999 9H16C16.55 9 17.0208 9.19583 17.4125 9.5875C17.8042 9.97917 18 10.45 18 11V13.175C18 13.4417 17.95 13.6958 17.85 13.9375C17.75 14.1792 17.6083 14.3917 17.425 14.575L15 17V20C15 20.55 14.8042 21.0208 14.4125 21.4125C14.0208 21.8042 13.55 22 13 22H11C10.45 22 9.97915 21.8042 9.58749 21.4125C9.19582 21.0208 8.99999 20.55 8.99999 20ZM11 20H13V16.175L16 13.175V11H7.99999V13.175L11 16.175V20Z" fill="currentColor"/>
</svg>
