<svg width="24" height="24" viewBox="0 0 24 24" fill="none" xmlns="http://www.w3.org/2000/svg">
<path d="M18.2 13H12.95C12.7667 14.5333 12.2417 15.9208 11.375 17.1625C10.5083 18.4042 9.38333 19.3667 8 20.05C7.96667 20.8833 7.66667 21.5833 7.1 22.15C6.53333 22.7167 5.83333 23 5 23C4.16667 23 3.45833 22.7083 2.875 22.125C2.29167 21.5417 2 20.8333 2 20C2 19.1667 2.29167 18.4583 2.875 17.875C3.45833 17.2917 4.16667 17 5 17C5.45 17 5.88333 17.1042 6.3 17.3125C6.71667 17.5208 7.06667 17.8 7.35 18.15C8.33333 17.6167 9.13333 16.9 9.75 16C10.3667 15.1 10.75 14.1 10.9 13H7.8C7.6 13.6 7.24167 14.0833 6.725 14.45C6.20833 14.8167 5.63333 15 5 15C4.16667 15 3.45833 14.7083 2.875 14.125C2.29167 13.5417 2 12.8333 2 12C2 11.1667 2.29167 10.4583 2.875 9.875C3.45833 9.29167 4.16667 9 5 9C5.63333 9 6.20833 9.18333 6.725 9.55C7.24167 9.91667 7.6 10.4 7.8 11H10.9C10.75 9.9 10.3667 8.9 9.75 8C9.13333 7.1 8.33333 6.38333 7.35 5.85C7.06667 6.2 6.71667 6.47917 6.3 6.6875C5.88333 6.89583 5.45 7 5 7C4.16667 7 3.45833 6.70833 2.875 6.125C2.29167 5.54167 2 4.83333 2 4C2 3.16667 2.29167 2.45833 2.875 1.875C3.45833 1.29167 4.16667 1 5 1C5.83333 1 6.53333 1.28333 7.1 1.85C7.66667 2.41667 7.96667 3.11667 8 3.95C9.35 4.65 10.4667 5.61667 11.35 6.85C12.2333 8.08333 12.7667 9.46667 12.95 11H18.2L17.3 10.1C17.1167 9.91667 17.025 9.68333 17.025 9.4C17.025 9.11667 17.1167 8.88333 17.3 8.7C17.4833 8.51667 17.7167 8.425 18 8.425C18.2833 8.425 18.5167 8.51667 18.7 8.7L21.3 11.3C21.4 11.4 21.4708 11.5083 21.5125 11.625C21.5542 11.7417 21.575 11.8667 21.575 12C21.575 12.1333 21.5542 12.2583 21.5125 12.375C21.4708 12.4917 21.4 12.6 21.3 12.7L18.7 15.3C18.5167 15.4833 18.2833 15.575 18 15.575C17.7167 15.575 17.4833 15.4833 17.3 15.3C17.1167 15.1167 17.025 14.8833 17.025 14.6C17.025 14.3167 17.1167 14.0833 17.3 13.9L18.2 13Z" fill="currentColor"/>
</svg>
