<svg width="24" height="24" viewBox="0 0 24 24" fill="none" xmlns="http://www.w3.org/2000/svg">
<g clip-path="url(#clip0_1_517)">
<path d="M21 8.41731C21.5333 8.41731 22 8.61731 22.4 9.01731C22.8 9.41731 23 9.88397 23 10.4173V12.4173C23 12.534 22.9875 12.659 22.9625 12.7923C22.9375 12.9256 22.9 13.0506 22.85 13.1673L19.85 20.2173C19.7 20.5506 19.45 20.834 19.1 21.0673C18.75 21.3006 18.3833 21.4173 18 21.4173H10C9.45 21.4173 8.97917 21.2215 8.5875 20.8298C8.19583 20.4381 8 19.9673 8 19.4173V9.24231C8 8.97564 8.05417 8.72148 8.1625 8.47981C8.27083 8.23814 8.41667 8.02564 8.6 7.84231L14.025 2.44231C14.275 2.20897 14.5708 2.06731 14.9125 2.01731C15.2542 1.96731 15.5833 2.02564 15.9 2.19231C16.2167 2.35897 16.4458 2.59231 16.5875 2.89231C16.7292 3.19231 16.7583 3.50064 16.675 3.81731L15.55 8.41731H21ZM4 21.4173C3.45 21.4173 2.97917 21.2215 2.5875 20.8298C2.19583 20.4381 2 19.9673 2 19.4173V10.4173C2 9.86731 2.19583 9.39647 2.5875 9.00481C2.97917 8.61314 3.45 8.41731 4 8.41731C4.55 8.41731 5.02083 8.61314 5.4125 9.00481C5.80417 9.39647 6 9.86731 6 10.4173V19.4173C6 19.9673 5.80417 20.4381 5.4125 20.8298C5.02083 21.2215 4.55 21.4173 4 21.4173Z" fill="currentColor"/>
</g>
<defs>
<clipPath id="clip0_1_517">
<rect width="24" height="24" fill="white"/>
</clipPath>
</defs>
</svg>
