<svg width="24" height="24" viewBox="0 0 24 24" fill="none" xmlns="http://www.w3.org/2000/svg">
<path d="M18.85 15.8999L3.725 11.6999C3.50833 11.6332 3.33333 11.5166 3.2 11.3499C3.06667 11.1832 3 10.9832 3 10.7499V6.8749C3 6.65824 3.0875 6.4874 3.2625 6.3624C3.4375 6.2374 3.625 6.20824 3.825 6.2749L4.2 6.3999C4.3 6.43324 4.38333 6.48324 4.45 6.5499C4.51667 6.61657 4.56667 6.6999 4.6 6.7999L5.2 8.5999L10 9.9499V3.1249C10 2.84157 10.1125 2.60824 10.3375 2.4249C10.5625 2.24157 10.8167 2.19157 11.1 2.2749L11.525 2.3749C11.675 2.40824 11.8042 2.47907 11.9125 2.5874C12.0208 2.69574 12.1 2.8249 12.15 2.9749L14.75 11.2499L19.75 12.6499C20.1333 12.7499 20.4375 12.9541 20.6625 13.2624C20.8875 13.5707 21 13.9166 21 14.2999C21 14.8499 20.775 15.2916 20.325 15.6249C19.875 15.9582 19.3833 16.0499 18.85 15.8999ZM4 20.9999C3.71667 20.9999 3.47917 20.9041 3.2875 20.7124C3.09583 20.5207 3 20.2832 3 19.9999C3 19.7166 3.09583 19.4791 3.2875 19.2874C3.47917 19.0957 3.71667 18.9999 4 18.9999H20C20.2833 18.9999 20.5208 19.0957 20.7125 19.2874C20.9042 19.4791 21 19.7166 21 19.9999C21 20.2832 20.9042 20.5207 20.7125 20.7124C20.5208 20.9041 20.2833 20.9999 20 20.9999H4Z" fill="currentColor"/>
</svg>
