<svg width="24" height="24" viewBox="0 0 24 24" fill="none" xmlns="http://www.w3.org/2000/svg">
<path d="M2.74999 19.25L8.07499 13.925C8.45832 13.5416 8.93332 13.35 9.49999 13.35C10.0667 13.35 10.5417 13.5416 10.925 13.925L13.5 16.5L19.9 9.27495C20.0833 9.05828 20.3208 8.94995 20.6125 8.94995C20.9042 8.94995 21.15 9.04995 21.35 9.24995C21.5333 9.43328 21.6292 9.65412 21.6375 9.91245C21.6458 10.1708 21.5583 10.4 21.375 10.6L14.9 17.9C14.5167 18.3333 14.0417 18.5625 13.475 18.5875C12.9083 18.6125 12.4167 18.4166 12 18L9.49999 15.5L4.24999 20.75C4.03332 20.9666 3.78332 21.075 3.49999 21.075C3.21665 21.075 2.96665 20.9666 2.74999 20.75C2.53332 20.5333 2.42499 20.2833 2.42499 20C2.42499 19.7166 2.53332 19.4666 2.74999 19.25ZM2.74999 13.25L8.07499 7.92495C8.45832 7.54162 8.93332 7.34995 9.49999 7.34995C10.0667 7.34995 10.5417 7.54162 10.925 7.92495L13.5 10.5L19.9 3.27495C20.0833 3.05828 20.3208 2.94995 20.6125 2.94995C20.9042 2.94995 21.15 3.04995 21.35 3.24995C21.5333 3.43328 21.6292 3.65412 21.6375 3.91245C21.6458 4.17078 21.5583 4.39995 21.375 4.59995L14.9 11.9C14.5167 12.3333 14.0417 12.5625 13.475 12.5875C12.9083 12.6125 12.4167 12.4166 12 12L9.49999 9.49995L4.24999 14.75C4.03332 14.9666 3.78332 15.075 3.49999 15.075C3.21665 15.075 2.96665 14.9666 2.74999 14.75C2.53332 14.5333 2.42499 14.2833 2.42499 14C2.42499 13.7166 2.53332 13.4666 2.74999 13.25Z" fill="currentColor"/>
</svg>
