<svg width="24" height="24" viewBox="0 0 24 24" fill="none" xmlns="http://www.w3.org/2000/svg">
<path d="M3 23V18.8C2.41667 18.6 1.9375 18.2458 1.5625 17.7375C1.1875 17.2292 1 16.65 1 16V14H7V16C7 16.65 6.8125 17.2292 6.4375 17.7375C6.0625 18.2458 5.58333 18.6 5 18.8V23H3ZM11 23V18.8C10.4167 18.6 9.9375 18.2458 9.5625 17.7375C9.1875 17.2292 9 16.65 9 16V14H15V16C15 16.65 14.8125 17.2292 14.4375 17.7375C14.0625 18.2458 13.5833 18.6 13 18.8V23H11ZM19 23V18.8C18.4167 18.6 17.9375 18.2458 17.5625 17.7375C17.1875 17.2292 17 16.65 17 16V14H23V16C23 16.65 22.8125 17.2292 22.4375 17.7375C22.0625 18.2458 21.5833 18.6 21 18.8V23H19ZM1 12V7C1 6.71667 1.09583 6.47917 1.2875 6.2875C1.47917 6.09583 1.71667 6 2 6H3V2C3 1.71667 3.09583 1.47917 3.2875 1.2875C3.47917 1.09583 3.71667 1 4 1C4.28333 1 4.52083 1.09583 4.7125 1.2875C4.90417 1.47917 5 1.71667 5 2V6H6C6.28333 6 6.52083 6.09583 6.7125 6.2875C6.90417 6.47917 7 6.71667 7 7V12H1ZM9 12V7C9 6.71667 9.09583 6.47917 9.2875 6.2875C9.47917 6.09583 9.71667 6 10 6H11V2C11 1.71667 11.0958 1.47917 11.2875 1.2875C11.4792 1.09583 11.7167 1 12 1C12.2833 1 12.5208 1.09583 12.7125 1.2875C12.9042 1.47917 13 1.71667 13 2V6H14C14.2833 6 14.5208 6.09583 14.7125 6.2875C14.9042 6.47917 15 6.71667 15 7V12H9ZM17 12V7C17 6.71667 17.0958 6.47917 17.2875 6.2875C17.4792 6.09583 17.7167 6 18 6H19V2C19 1.71667 19.0958 1.47917 19.2875 1.2875C19.4792 1.09583 19.7167 1 20 1C20.2833 1 20.5208 1.09583 20.7125 1.2875C20.9042 1.47917 21 1.71667 21 2V6H22C22.2833 6 22.5208 6.09583 22.7125 6.2875C22.9042 6.47917 23 6.71667 23 7V12H17Z" fill="currentColor"/>
</svg>
