<svg width="24" height="24" viewBox="0 0 24 24" fill="none" xmlns="http://www.w3.org/2000/svg">
<path d="M20 20.9999H3.99999C3.71666 20.9999 3.47916 20.9041 3.28749 20.7124C3.09582 20.5207 2.99999 20.2832 2.99999 19.9999C2.99999 19.7165 3.09582 19.4791 3.28749 19.2874C3.47916 19.0957 3.71666 18.9999 3.99999 18.9999H20C20.2833 18.9999 20.5208 19.0957 20.7125 19.2874C20.9042 19.4791 21 19.7165 21 19.9999C21 20.2832 20.9042 20.5207 20.7125 20.7124C20.5208 20.9041 20.2833 20.9999 20 20.9999ZM5.29999 12.3999L10.1 11.0999L6.62499 5.19988C6.49166 4.96655 6.46666 4.71655 6.54999 4.44988C6.63332 4.18322 6.81666 4.00822 7.09999 3.92488L7.52499 3.79988C7.67499 3.74988 7.82499 3.74155 7.97499 3.77488C8.12499 3.80822 8.25832 3.87488 8.37499 3.97488L14.85 9.79988L19.85 8.44988C20.3833 8.29988 20.8667 8.39988 21.3 8.74988C21.7333 9.09988 21.95 9.56655 21.95 10.1499C21.95 10.5166 21.8375 10.8415 21.6125 11.1249C21.3875 11.4082 21.1 11.5999 20.75 11.6999L5.57499 15.7999C5.35832 15.8666 5.14999 15.8582 4.94999 15.7749C4.74999 15.6916 4.59166 15.5499 4.47499 15.3499L2.44999 11.8999C2.33332 11.7165 2.32082 11.5249 2.41249 11.3249C2.50416 11.1249 2.65832 11.0082 2.87499 10.9749L3.24999 10.8999C3.34999 10.8832 3.44166 10.8874 3.52499 10.9124C3.60832 10.9374 3.69166 10.9832 3.77499 11.0499L5.29999 12.3999Z" fill="currentColor"/>
</svg>
