<svg width="24" height="24" viewBox="0 0 24 24" fill="none" xmlns="http://www.w3.org/2000/svg">
<path d="M3 18C2.45 18 1.97917 17.8042 1.5875 17.4125C1.19583 17.0208 1 16.55 1 16V4C1 3.45 1.19583 2.97917 1.5875 2.5875C1.97917 2.19583 2.45 2 3 2H19C19.55 2 20.0208 2.19583 20.4125 2.5875C20.8042 2.97917 21 3.45 21 4V8C21 8.28333 20.9042 8.52083 20.7125 8.7125C20.5208 8.90417 20.2833 9 20 9C19.7167 9 19.4792 8.90417 19.2875 8.7125C19.0958 8.52083 19 8.28333 19 8V6L11.525 10.675C11.4417 10.725 11.3542 10.7625 11.2625 10.7875C11.1708 10.8125 11.0833 10.825 11 10.825C10.9167 10.825 10.8292 10.8125 10.7375 10.7875C10.6458 10.7625 10.5583 10.725 10.475 10.675L3 6V16H12C12.2833 16 12.5208 16.0958 12.7125 16.2875C12.9042 16.4792 13 16.7167 13 17C13 17.2833 12.9042 17.5208 12.7125 17.7125C12.5208 17.9042 12.2833 18 12 18H3ZM11 9L19 4H3L11 9ZM19 22C17.9 22 16.9583 21.6083 16.175 20.825C15.3917 20.0417 15 19.1 15 18V13.5C15 12.8 15.2417 12.2083 15.725 11.725C16.2083 11.2417 16.8 11 17.5 11C18.2 11 18.7917 11.2417 19.275 11.725C19.7583 12.2083 20 12.8 20 13.5V17C20 17.2833 19.9042 17.5208 19.7125 17.7125C19.5208 17.9042 19.2833 18 19 18C18.7167 18 18.4792 17.9042 18.2875 17.7125C18.0958 17.5208 18 17.2833 18 17V13.5C18 13.3667 17.95 13.25 17.85 13.15C17.75 13.05 17.6333 13 17.5 13C17.3667 13 17.25 13.05 17.15 13.15C17.05 13.25 17 13.3667 17 13.5V18C17 18.55 17.1958 19.0208 17.5875 19.4125C17.9792 19.8042 18.45 20 19 20C19.55 20 20.0208 19.8042 20.4125 19.4125C20.8042 19.0208 21 18.55 21 18V15C21 14.7167 21.0958 14.4792 21.2875 14.2875C21.4792 14.0958 21.7167 14 22 14C22.2833 14 22.5208 14.0958 22.7125 14.2875C22.9042 14.4792 23 14.7167 23 15V18C23 19.1 22.6083 20.0417 21.825 20.825C21.0417 21.6083 20.1 22 19 22Z" fill="currentColor"/>
</svg>
