<svg width="24" height="24" viewBox="0 0 24 24" fill="none" xmlns="http://www.w3.org/2000/svg">
<path d="M9.6 14.95H14.4L15.275 17.375C15.3417 17.5583 15.4583 17.7083 15.625 17.825C15.7917 17.9417 15.975 18 16.175 18C16.5083 18 16.7792 17.8625 16.9875 17.5875C17.1958 17.3125 17.2333 17.0083 17.1 16.675L13.3 6.625C13.2167 6.44167 13.0917 6.29167 12.925 6.175C12.7583 6.05833 12.575 6 12.375 6H11.625C11.425 6 11.2417 6.05833 11.075 6.175C10.9083 6.29167 10.7833 6.44167 10.7 6.625L6.9 16.675C6.76667 16.9917 6.8 17.2917 7 17.575C7.2 17.8583 7.46667 18 7.8 18C8.01667 18 8.20417 17.9417 8.3625 17.825C8.52083 17.7083 8.64167 17.55 8.725 17.35L9.6 14.95ZM10.2 13.2L11.95 8.25H12.05L13.8 13.2H10.2ZM4 22C3.45 22 2.97917 21.8042 2.5875 21.4125C2.19583 21.0208 2 20.55 2 20V4C2 3.45 2.19583 2.97917 2.5875 2.5875C2.97917 2.19583 3.45 2 4 2H20C20.55 2 21.0208 2.19583 21.4125 2.5875C21.8042 2.97917 22 3.45 22 4V20C22 20.55 21.8042 21.0208 21.4125 21.4125C21.0208 21.8042 20.55 22 20 22H4ZM4 20H20V4H4V20Z" fill="currentColor"/>
</svg>
