<svg width="24" height="24" viewBox="0 0 24 24" fill="none" xmlns="http://www.w3.org/2000/svg">
<path d="M22 8.9999V16.9999C22 17.3332 21.8958 17.5832 21.6875 17.7499C21.4792 17.9166 21.25 17.9999 21 17.9999C20.75 17.9999 20.5208 17.9124 20.3125 17.7374C20.1042 17.5624 20 17.3082 20 16.9749V8.9999H12.5C11.95 8.9999 11.4792 8.80407 11.0875 8.4124C10.6958 8.02074 10.5 7.5499 10.5 6.9999V4.9999H8.025C7.69167 4.9999 7.44167 4.89574 7.275 4.6874C7.10833 4.47907 7.025 4.2499 7.025 3.9999C7.025 3.7499 7.10833 3.52074 7.275 3.3124C7.44167 3.10407 7.69167 2.9999 8.025 2.9999H10.5C11.05 2.9999 11.5208 3.19574 11.9125 3.5874C12.3042 3.97907 12.5 4.4499 12.5 4.9999V6.9999H20C20.55 6.9999 21.0208 7.19574 21.4125 7.5874C21.8042 7.97907 22 8.4499 22 8.9999ZM19.8 22.6249L18.15 20.9999H4C3.45 20.9999 2.97917 20.8041 2.5875 20.4124C2.19583 20.0207 2 19.5499 2 18.9999V4.7999L1.4 4.1999C1.21667 4.01657 1.125 3.78324 1.125 3.4999C1.125 3.21657 1.21667 2.98324 1.4 2.7999C1.58333 2.61657 1.81667 2.5249 2.1 2.5249C2.38333 2.5249 2.61667 2.61657 2.8 2.7999L21.2 21.1999C21.3833 21.3832 21.4792 21.6124 21.4875 21.8874C21.4958 22.1624 21.4 22.3999 21.2 22.5999C21.0167 22.7832 20.7875 22.8791 20.5125 22.8874C20.2375 22.8957 20 22.8082 19.8 22.6249ZM4 18.9999H6V16.9999H4V18.9999ZM4 14.9999H6V12.9999H4V14.9999ZM4 10.9999H6V8.9999H4V10.9999ZM8 18.9999H10V16.9999H8V18.9999ZM8 14.9999H10V12.9999H8V14.9999ZM12 18.9999H16.15L14.15 16.9999H12V18.9999ZM18 12.9999H16V10.9999H18V12.9999Z" fill="currentColor"/>
</svg>
