<svg width="24" height="24" viewBox="0 0 24 24" fill="none" xmlns="http://www.w3.org/2000/svg">
<path d="M3.02499 17V7C3.02499 6.45 3.22083 5.97917 3.61249 5.5875C4.00416 5.19583 4.47499 5 5.02499 5H19C19.55 5 20.0208 5.19583 20.4125 5.5875C20.8042 5.97917 21 6.45 21 7V17C21 17.55 20.8042 18.0208 20.4125 18.4125C20.0208 18.8042 19.55 19 19 19H5.02499C4.47499 19 4.00416 18.8042 3.61249 18.4125C3.22083 18.0208 3.02499 17.55 3.02499 17ZM4.99999 17H8.32499V7H4.99999V17ZM10.325 17H13.65V7H10.325V17ZM15.65 17H18.975V7H15.65V17Z" fill="currentColor"/>
</svg>
