<svg width="24" height="24" viewBox="0 0 24 24" fill="none" xmlns="http://www.w3.org/2000/svg">
<g clip-path="url(#clip0_1_693)">
<path d="M3.53158 11.375C3.25664 11.375 3.02794 11.2838 2.84548 11.1013C2.66301 10.9188 2.57178 10.6902 2.57178 10.4152V3.51251C2.57178 3.23758 2.66301 3.00888 2.84548 2.82641C3.02794 2.64396 3.25664 2.55273 3.53158 2.55273H10.4343C10.7052 2.55273 10.9329 2.64396 11.1174 2.82641C11.3018 3.00888 11.3941 3.23758 11.3941 3.51251V10.4152C11.3941 10.6902 11.3018 10.9188 11.1174 11.1013C10.9329 11.2838 10.7052 11.375 10.4343 11.375H3.53158ZM13.5848 11.375C13.3099 11.375 13.0812 11.2838 12.8988 11.1013C12.7163 10.9188 12.6251 10.6902 12.6251 10.4152V3.51251C12.6251 3.23758 12.7163 3.00888 12.8988 2.82641C13.0812 2.64396 13.3099 2.55273 13.5848 2.55273H20.4876C20.7625 2.55273 20.9912 2.64396 21.1737 2.82641C21.3561 3.00888 21.4473 3.23758 21.4473 3.51251V10.4152C21.4473 10.6902 21.3561 10.9188 21.1737 11.1013C20.9912 11.2838 20.7625 11.375 20.4876 11.375H13.5848ZM3.53158 21.4283C3.25664 21.4283 3.02794 21.3371 2.84548 21.1546C2.66301 20.9721 2.57178 20.7434 2.57178 20.4685V13.5658C2.57178 13.2948 2.66301 13.0671 2.84548 12.8827C3.02794 12.6982 3.25664 12.606 3.53158 12.606H10.4343C10.7052 12.606 10.9329 12.6982 11.1174 12.8827C11.3018 13.0671 11.3941 13.2948 11.3941 13.5658V20.4685C11.3941 20.7434 11.3018 20.9721 11.1174 21.1546C10.9329 21.3371 10.7052 21.4283 10.4343 21.4283H3.53158ZM17.0565 21.4283C16.7627 21.4283 16.5243 21.3348 16.3414 21.1477C16.1584 20.9607 16.0669 20.7279 16.0669 20.4495V17.9864H13.5789C13.3129 17.9864 13.0875 17.8923 12.9025 17.7039C12.7175 17.5156 12.6251 17.2831 12.6251 17.0065C12.6251 16.7369 12.7186 16.5097 12.9056 16.325C13.0927 16.1402 13.3254 16.0478 13.6039 16.0478H16.0669V13.5348C16.0669 13.2904 16.1611 13.0744 16.3494 12.8871C16.5377 12.6997 16.7702 12.606 17.0469 12.606C17.3164 12.606 17.5436 12.6994 17.7284 12.8862C17.9131 13.0731 18.0055 13.2976 18.0055 13.5598V16.0478H20.5185C20.763 16.0478 20.9789 16.1449 21.1663 16.3389C21.3536 16.533 21.4473 16.7523 21.4473 16.9968C21.4473 17.2906 21.3539 17.529 21.1671 17.712C20.9802 17.8949 20.7557 17.9864 20.4935 17.9864H18.0055V20.4745C18.0055 20.7404 17.9085 20.9659 17.7144 21.1508C17.5203 21.3358 17.301 21.4283 17.0565 21.4283Z" fill="currentColor"/>
</g>
<defs>
<clipPath id="clip0_1_693">
<rect width="24" height="24" fill="white"/>
</clipPath>
</defs>
</svg>
