<svg width="24" height="24" viewBox="0 0 24 24" fill="none" xmlns="http://www.w3.org/2000/svg">
<g clip-path="url(#clip0_1_362)">
<path d="M10 21L5.8 22.8C5.13333 23.0833 4.5 23.0292 3.9 22.6375C3.3 22.2458 3 21.6917 3 20.975V8C3 7.45 3.19583 6.97917 3.5875 6.5875C3.97917 6.19583 4.45 6 5 6H15C15.55 6 16.0208 6.19583 16.4125 6.5875C16.8042 6.97917 17 7.45 17 8V20.975C17 21.6917 16.7 22.2458 16.1 22.6375C15.5 23.0292 14.8667 23.0833 14.2 22.8L10 21ZM20 21C19.7167 21 19.4792 20.9042 19.2875 20.7125C19.0958 20.5208 19 20.2833 19 20V4H7C6.71667 4 6.47917 3.90417 6.2875 3.7125C6.09583 3.52083 6 3.28333 6 3C6 2.71667 6.09583 2.47917 6.2875 2.2875C6.47917 2.09583 6.71667 2 7 2H19C19.55 2 20.0208 2.19583 20.4125 2.5875C20.8042 2.97917 21 3.45 21 4V20C21 20.2833 20.9042 20.5208 20.7125 20.7125C20.5208 20.9042 20.2833 21 20 21Z" fill="currentColor"/>
</g>
<defs>
<clipPath id="clip0_1_362">
<rect width="24" height="24" fill="white"/>
</clipPath>
</defs>
</svg>
