<svg width="24" height="24" viewBox="0 0 24 24" fill="none" xmlns="http://www.w3.org/2000/svg">
<path d="M5.25 20C4.96667 20 4.72917 19.9042 4.5375 19.7125C4.34583 19.5208 4.25 19.2833 4.25 19V10C4.25 9.71667 4.34583 9.47917 4.5375 9.2875C4.72917 9.09583 4.96667 9 5.25 9H6.75C7.03333 9 7.27083 9.09583 7.4625 9.2875C7.65417 9.47917 7.75 9.71667 7.75 10V19C7.75 19.2833 7.65417 19.5208 7.4625 19.7125C7.27083 19.9042 7.03333 20 6.75 20H5.25ZM5.25 8C4.96667 8 4.72917 7.90417 4.5375 7.7125C4.34583 7.52083 4.25 7.28333 4.25 7V5C4.25 4.71667 4.34583 4.47917 4.5375 4.2875C4.72917 4.09583 4.96667 4 5.25 4H6.75C7.03333 4 7.27083 4.09583 7.4625 4.2875C7.65417 4.47917 7.75 4.71667 7.75 5V7C7.75 7.28333 7.65417 7.52083 7.4625 7.7125C7.27083 7.90417 7.03333 8 6.75 8H5.25ZM11.25 20C10.9667 20 10.7292 19.9042 10.5375 19.7125C10.3458 19.5208 10.25 19.2833 10.25 19V13C10.25 12.7167 10.3458 12.4792 10.5375 12.2875C10.7292 12.0958 10.9667 12 11.25 12H12.75C13.0333 12 13.2708 12.0958 13.4625 12.2875C13.6542 12.4792 13.75 12.7167 13.75 13V19C13.75 19.2833 13.6542 19.5208 13.4625 19.7125C13.2708 19.9042 13.0333 20 12.75 20H11.25ZM11.25 11C10.9667 11 10.7292 10.9042 10.5375 10.7125C10.3458 10.5208 10.25 10.2833 10.25 10V8C10.25 7.71667 10.3458 7.47917 10.5375 7.2875C10.7292 7.09583 10.9667 7 11.25 7H12.75C13.0333 7 13.2708 7.09583 13.4625 7.2875C13.6542 7.47917 13.75 7.71667 13.75 8V10C13.75 10.2833 13.6542 10.5208 13.4625 10.7125C13.2708 10.9042 13.0333 11 12.75 11H11.25ZM17.25 20C16.9667 20 16.7292 19.9042 16.5375 19.7125C16.3458 19.5208 16.25 19.2833 16.25 19V16C16.25 15.7167 16.3458 15.4792 16.5375 15.2875C16.7292 15.0958 16.9667 15 17.25 15H18.75C19.0333 15 19.2708 15.0958 19.4625 15.2875C19.6542 15.4792 19.75 15.7167 19.75 16V19C19.75 19.2833 19.6542 19.5208 19.4625 19.7125C19.2708 19.9042 19.0333 20 18.75 20H17.25ZM17.25 14C16.9667 14 16.7292 13.9042 16.5375 13.7125C16.3458 13.5208 16.25 13.2833 16.25 13V11C16.25 10.7167 16.3458 10.4792 16.5375 10.2875C16.7292 10.0958 16.9667 10 17.25 10H18.75C19.0333 10 19.2708 10.0958 19.4625 10.2875C19.6542 10.4792 19.75 10.7167 19.75 11V13C19.75 13.2833 19.6542 13.5208 19.4625 13.7125C19.2708 13.9042 19.0333 14 18.75 14H17.25Z" fill="currentColor"/>
</svg>
