<svg width="24" height="24" viewBox="0 0 24 24" fill="none" xmlns="http://www.w3.org/2000/svg">
<path fill-rule="evenodd" clip-rule="evenodd" d="M11.9995 7.5C9.51423 7.5 7.49951 9.51472 7.49951 12C7.49951 14.4853 9.51423 16.5 11.9995 16.5C14.4848 16.5 16.4995 14.4853 16.4995 12C16.4995 9.51472 14.4848 7.5 11.9995 7.5ZM9.49951 12C9.49951 10.6193 10.6188 9.5 11.9995 9.5C13.3802 9.5 14.4995 10.6193 14.4995 12C14.4995 13.3807 13.3802 14.5 11.9995 14.5C10.6188 14.5 9.49951 13.3807 9.49951 12Z" fill="currentColor"/>
<path fill-rule="evenodd" clip-rule="evenodd" d="M13.7628 2.04512C12.7114 1.28119 11.2876 1.28118 10.2361 2.04512L3.07669 7.24674C2.02523 8.01068 1.58526 9.36478 1.98688 10.6008L4.72154 19.0173C5.12316 20.2533 6.27502 21.0902 7.5747 21.0902H16.4242C17.7239 21.0902 18.8758 20.2533 19.2774 19.0173L22.0121 10.6008C22.4137 9.36478 21.9737 8.01068 20.9223 7.24674L13.7628 2.04512ZM11.4117 3.66315C11.7622 3.40851 12.2368 3.40851 12.5873 3.66315L19.7467 8.86478C20.0972 9.11942 20.2438 9.57079 20.11 9.98281L17.3753 18.3992C17.2414 18.8112 16.8575 19.0902 16.4242 19.0902H7.5747C7.14148 19.0902 6.75752 18.8112 6.62365 18.3992L3.88899 9.98281C3.75512 9.57079 3.90178 9.11942 4.25226 8.86478L11.4117 3.66315Z" fill="currentColor"/>
</svg>
