<svg width="24" height="24" viewBox="0 0 24 24" fill="none" xmlns="http://www.w3.org/2000/svg">
<path d="M6.9 12C6.9 12.15 6.89167 12.3042 6.875 12.4625C6.85833 12.6208 6.83333 12.775 6.8 12.925C6.75 13.2083 6.78333 13.4792 6.9 13.7375C7.01667 13.9958 7.20833 14.175 7.475 14.275C7.74167 14.375 7.99583 14.3667 8.2375 14.25C8.47917 14.1333 8.63333 13.9417 8.7 13.675C8.76667 13.4083 8.81667 13.1333 8.85 12.85C8.88333 12.5667 8.9 12.2833 8.9 12C8.9 11.7167 8.88333 11.4333 8.85 11.15C8.81667 10.8667 8.76667 10.5917 8.7 10.325C8.63333 10.0583 8.47917 9.86667 8.2375 9.75C7.99583 9.63333 7.74167 9.625 7.475 9.725C7.20833 9.825 7.01667 10.0042 6.9 10.2625C6.78333 10.5208 6.75 10.7917 6.8 11.075C6.83333 11.225 6.85833 11.3792 6.875 11.5375C6.89167 11.6958 6.9 11.85 6.9 12ZM10.4 12C10.4 12.4 10.375 12.7917 10.325 13.175C10.275 13.5583 10.2 13.9333 10.1 14.3C10.0167 14.5833 10.0292 14.85 10.1375 15.1C10.2458 15.35 10.425 15.525 10.675 15.625C10.9417 15.7417 11.2042 15.7375 11.4625 15.6125C11.7208 15.4875 11.8917 15.2833 11.975 15C12.125 14.5167 12.2333 14.025 12.3 13.525C12.3667 13.025 12.4 12.5167 12.4 12C12.4 11.4833 12.3667 10.975 12.3 10.475C12.2333 9.975 12.125 9.48333 11.975 9C11.8917 8.71667 11.7208 8.5125 11.4625 8.3875C11.2042 8.2625 10.9417 8.25833 10.675 8.375C10.425 8.475 10.2458 8.65 10.1375 8.9C10.0292 9.15 10.0167 9.41667 10.1 9.7C10.2 10.0667 10.275 10.4417 10.325 10.825C10.375 11.2083 10.4 11.6 10.4 12ZM13.9 12C13.9 12.6167 13.8583 13.2208 13.775 13.8125C13.6917 14.4042 13.5583 14.9833 13.375 15.55C13.2917 15.8333 13.2958 16.1083 13.3875 16.375C13.4792 16.6417 13.6583 16.8333 13.925 16.95C14.1917 17.0667 14.4542 17.0667 14.7125 16.95C14.9708 16.8333 15.1417 16.6333 15.225 16.35C15.4583 15.65 15.6292 14.9417 15.7375 14.225C15.8458 13.5083 15.9 12.7667 15.9 12C15.9 11.2333 15.8458 10.4917 15.7375 9.775C15.6292 9.05833 15.4583 8.35 15.225 7.65C15.1417 7.36667 14.9708 7.16667 14.7125 7.05C14.4542 6.93333 14.1917 6.93333 13.925 7.05C13.6583 7.16667 13.4792 7.35833 13.3875 7.625C13.2958 7.89167 13.2917 8.16667 13.375 8.45C13.5583 9.01667 13.6917 9.59583 13.775 10.1875C13.8583 10.7792 13.9 11.3833 13.9 12ZM12 22C10.6167 22 9.31667 21.7375 8.1 21.2125C6.88333 20.6875 5.825 19.975 4.925 19.075C4.025 18.175 3.3125 17.1167 2.7875 15.9C2.2625 14.6833 2 13.3833 2 12C2 10.6167 2.2625 9.31667 2.7875 8.1C3.3125 6.88333 4.025 5.825 4.925 4.925C5.825 4.025 6.88333 3.3125 8.1 2.7875C9.31667 2.2625 10.6167 2 12 2C13.3833 2 14.6833 2.2625 15.9 2.7875C17.1167 3.3125 18.175 4.025 19.075 4.925C19.975 5.825 20.6875 6.88333 21.2125 8.1C21.7375 9.31667 22 10.6167 22 12C22 13.3833 21.7375 14.6833 21.2125 15.9C20.6875 17.1167 19.975 18.175 19.075 19.075C18.175 19.975 17.1167 20.6875 15.9 21.2125C14.6833 21.7375 13.3833 22 12 22ZM12 20C14.2333 20 16.125 19.225 17.675 17.675C19.225 16.125 20 14.2333 20 12C20 9.76667 19.225 7.875 17.675 6.325C16.125 4.775 14.2333 4 12 4C9.76667 4 7.875 4.775 6.325 6.325C4.775 7.875 4 9.76667 4 12C4 14.2333 4.775 16.125 6.325 17.675C7.875 19.225 9.76667 20 12 20Z" fill="currentColor"/>
</svg>
