<svg width="24" height="24" viewBox="0 0 24 24" fill="none" xmlns="http://www.w3.org/2000/svg">
<g clip-path="url(#clip0_1_209)">
<path d="M16.9 12L19.3 14.4C19.4834 14.5833 19.575 14.8166 19.575 15.1C19.575 15.3833 19.4834 15.6166 19.3 15.8C19.1167 15.9833 18.8834 16.075 18.6 16.075C18.3167 16.075 18.0834 15.9833 17.9 15.8L14.8 12.7C14.7 12.6 14.6292 12.4916 14.5875 12.375C14.5459 12.2583 14.525 12.1333 14.525 12C14.525 11.8666 14.5459 11.7416 14.5875 11.625C14.6292 11.5083 14.7 11.4 14.8 11.3L17.9 8.19995C18.0834 8.01662 18.3167 7.92495 18.6 7.92495C18.8834 7.92495 19.1167 8.01662 19.3 8.19995C19.4834 8.38328 19.575 8.61662 19.575 8.89995C19.575 9.18328 19.4834 9.41662 19.3 9.59995L16.9 12ZM7.10005 12L4.70005 9.59995C4.51672 9.41662 4.42505 9.18328 4.42505 8.89995C4.42505 8.61662 4.51672 8.38328 4.70005 8.19995C4.88338 8.01662 5.11672 7.92495 5.40005 7.92495C5.68338 7.92495 5.91672 8.01662 6.10005 8.19995L9.20005 11.3C9.30005 11.4 9.37088 11.5083 9.41255 11.625C9.45422 11.7416 9.47505 11.8666 9.47505 12C9.47505 12.1333 9.45422 12.2583 9.41255 12.375C9.37088 12.4916 9.30005 12.6 9.20005 12.7L6.10005 15.8C5.91672 15.9833 5.68338 16.075 5.40005 16.075C5.11672 16.075 4.88338 15.9833 4.70005 15.8C4.51672 15.6166 4.42505 15.3833 4.42505 15.1C4.42505 14.8166 4.51672 14.5833 4.70005 14.4L7.10005 12Z" fill="currentColor"/>
</g>
<defs>
<clipPath id="clip0_1_209">
<rect width="24" height="24" fill="white" transform="translate(0 24) rotate(-90)"/>
</clipPath>
</defs>
</svg>
