<svg width="24" height="24" viewBox="0 0 24 24" fill="none" xmlns="http://www.w3.org/2000/svg">
<path d="M5.4 19.5999C4.65 18.8499 4.0625 17.9833 3.6375 16.9999C3.2125 16.0166 3 14.9999 3 13.9499C3 12.8999 3.2 11.8624 3.6 10.8374C4 9.81243 4.65 8.84993 5.55 7.94993C6.55 6.94993 7.9625 6.1916 9.7875 5.67493C11.6125 5.15826 13.975 4.9416 16.875 5.02493C17.3083 5.0416 17.7083 5.13326 18.075 5.29993C18.4417 5.4666 18.7667 5.6916 19.05 5.97493C19.3333 6.25826 19.5583 6.58743 19.725 6.96243C19.8917 7.33743 19.9833 7.7416 20 8.17493C20.0333 9.5416 19.9958 10.8041 19.8875 11.9624C19.7792 13.1208 19.6042 14.1666 19.3625 15.0999C19.1208 16.0333 18.8125 16.8624 18.4375 17.5874C18.0625 18.3124 17.6167 18.9333 17.1 19.4499C16.2167 20.3333 15.2792 20.9791 14.2875 21.3874C13.2958 21.7958 12.2833 21.9999 11.25 21.9999C10.1667 21.9999 9.10833 21.7874 8.075 21.3624C7.04167 20.9374 6.15 20.3499 5.4 19.5999ZM8.2 19.1999C8.68333 19.4833 9.17917 19.6874 9.6875 19.8124C10.1958 19.9374 10.7167 19.9999 11.25 19.9999C12.0167 19.9999 12.775 19.8458 13.525 19.5374C14.275 19.2291 14.9917 18.7333 15.675 18.0499C15.975 17.7499 16.2792 17.3291 16.5875 16.7874C16.8958 16.2458 17.1625 15.5374 17.3875 14.6624C17.6125 13.7874 17.7833 12.7291 17.9 11.4874C18.0167 10.2458 18.0333 8.7666 17.95 7.04993C17.1333 7.0166 16.2125 7.0041 15.1875 7.01243C14.1625 7.02076 13.1417 7.09993 12.125 7.24993C11.1083 7.39993 10.1417 7.6416 9.225 7.97493C8.30833 8.30826 7.55833 8.7666 6.975 9.34993C6.225 10.0999 5.70833 10.8416 5.425 11.5749C5.14167 12.3083 5 13.0166 5 13.6999C5 14.6833 5.1875 15.5458 5.5625 16.2874C5.9375 17.0291 6.26667 17.5499 6.55 17.8499C7.25 16.5166 8.175 15.2374 9.325 14.0124C10.475 12.7874 11.8167 11.7833 13.35 10.9999C12.15 12.0499 11.1042 13.2374 10.2125 14.5624C9.32083 15.8874 8.65 17.4333 8.2 19.1999Z" fill="currentColor"/>
</svg>
