<svg width="24" height="24" viewBox="0 0 24 24" fill="none" xmlns="http://www.w3.org/2000/svg">
<path d="M5 10.425V14C5 14.2833 4.90417 14.5208 4.7125 14.7125C4.52083 14.9042 4.28333 15 4 15C3.71667 15 3.47917 14.9042 3.2875 14.7125C3.09583 14.5208 3 14.2833 3 14V8C3 7.71667 3.09583 7.47917 3.2875 7.2875C3.47917 7.09583 3.71667 7 4 7H10C10.2833 7 10.5208 7.09583 10.7125 7.2875C10.9042 7.47917 11 7.71667 11 8C11 8.28333 10.9042 8.52083 10.7125 8.7125C10.5208 8.90417 10.2833 9 10 9H6.4L12 14.6L18.9 7.7C19.1 7.5 19.3333 7.40417 19.6 7.4125C19.8667 7.42083 20.1 7.525 20.3 7.725C20.4833 7.925 20.5792 8.15833 20.5875 8.425C20.5958 8.69167 20.5 8.925 20.3 9.125L13.425 16C13.225 16.2 13 16.35 12.75 16.45C12.5 16.55 12.25 16.6 12 16.6C11.75 16.6 11.5 16.55 11.25 16.45C11 16.35 10.775 16.2 10.575 16L5 10.425Z" fill="currentColor"/>
</svg>
