<svg width="24" height="24" viewBox="0 0 24 24" fill="none" xmlns="http://www.w3.org/2000/svg">
<g clip-path="url(#clip0_2484_46)">
<path d="M5.20689 7.93117C4.5408 7.92961 4 8.46915 4 9.13524C4 9.80022 4.53908 10.3393 5.20407 10.3393H11.9494L4.35102 17.9458C4.12625 18.1708 4 18.4776 4 18.7956C4 19.4584 4.54109 20 5.20383 20C5.52231 20 5.82931 19.8734 6.05439 19.6481L13.6523 12.0421V18.7945C13.6523 19.4603 14.192 20 14.8577 20C15.5235 20 16.0632 19.4603 16.0632 18.7945V10.9631C16.0632 9.29399 14.706 7.93677 13.0369 7.93677H7.6L5.20689 7.93117Z" fill="currentColor"/>
<path d="M20 18.9083C20 19.5112 19.5112 20 18.9083 20C18.3054 20 17.8166 19.5112 17.8166 18.9083V10.6512C17.8166 8.18967 15.8103 6.18335 13.3488 6.18335H5.09168C4.48876 6.18335 4 5.69459 4 5.09168C4 4.48876 4.48876 4 5.09168 4H13.3488C17.0158 4 20 6.98419 20 10.6512V18.9083Z" fill="currentColor"/>
</g>
<defs>
<clipPath id="clip0_2484_46">
<rect width="24" height="24" fill="white"/>
</clipPath>
</defs>
</svg>
