<svg width="24" height="24" viewBox="0 0 24 24" fill="none" xmlns="http://www.w3.org/2000/svg">
<g clip-path="url(#clip0_1_21)">
<path fill-rule="evenodd" clip-rule="evenodd" d="M12.4948 7.09707C9.78968 7.09707 7.5967 9.28996 7.5967 11.9951C7.5967 14.7002 9.78968 16.8931 12.4948 16.8931C15.1999 16.8931 17.3929 14.7002 17.3929 11.9951C17.3929 9.28996 15.1999 7.09707 12.4948 7.09707ZM9.3967 11.9951C9.3967 10.2841 10.7837 8.89707 12.4948 8.89707C14.2059 8.89707 15.5929 10.2841 15.5929 11.9951C15.5929 13.706 14.2059 15.0931 12.4948 15.0931C10.7837 15.0931 9.3967 13.706 9.3967 11.9951Z" fill="currentColor"/>
<path fill-rule="evenodd" clip-rule="evenodd" d="M19.8613 2C20.5909 2 21.2206 2.25987 21.7304 2.76962V2.75962C22.2401 3.26937 22.5 3.89905 22.5 4.62869V19.3613C22.5 20.091 22.2401 20.7206 21.7304 21.2304C21.2206 21.7401 20.5909 22 19.8613 22H4.13874C3.40909 22 2.77939 21.7401 2.26963 21.2304C1.75988 20.7206 1.5 20.091 1.5 19.3613V4.63868C1.5 3.90905 1.75988 3.27936 2.26963 2.76962C2.77939 2.25987 3.40909 2 4.13874 2H19.8613ZM3.8189 16.0935H6.49762V13.8935H3.8189V10.0965H6.49762V7.89652H3.8189V4.30885H20.1911L20.1811 4.31884V19.6912H3.8189V16.0935Z" fill="currentColor"/>
</g>
<defs>
<clipPath id="clip0_1_21">
<rect width="24" height="24" fill="white"/>
</clipPath>
</defs>
</svg>
