<svg width="24" height="24" viewBox="0 0 24 24" fill="none" xmlns="http://www.w3.org/2000/svg">
<g clip-path="url(#clip0_4970_37)">
<path d="M10.4751 21.9998C10.0085 21.9998 9.57097 21.8999 9.16264 21.6999C8.75431 21.4998 8.40847 21.2165 8.12514 20.8498L3.10014 14.4748C2.96681 14.3249 2.90847 14.1457 2.92514 13.9373C2.94181 13.729 3.01681 13.5582 3.15014 13.4248C3.48347 13.0748 3.88347 12.8665 4.35014 12.7998C4.81681 12.7332 5.25014 12.8248 5.65014 13.0748L7.50014 14.1998V5.99985C7.50014 5.71652 7.59597 5.47902 7.78764 5.28735C7.97931 5.09568 8.21681 4.99985 8.50014 4.99985C8.78347 4.99985 9.02514 5.09568 9.22514 5.28735C9.42514 5.47902 9.52514 5.71652 9.52514 5.99985V15.9998C9.52514 16.3832 9.35431 16.6707 9.01264 16.8623C8.67097 17.054 8.33347 17.0498 8.00014 16.8498L7.10014 16.2998L9.70014 19.6248C9.80014 19.7415 9.91681 19.8332 10.0501 19.8998C10.1835 19.9665 10.3251 19.9998 10.4751 19.9998H16.0001C16.5501 19.9998 17.021 19.804 17.4126 19.4123C17.8043 19.0207 18.0001 18.5498 18.0001 17.9998V13.9998C18.0001 13.7165 17.9043 13.479 17.7126 13.2873C17.521 13.0957 17.2835 12.9998 17.0001 12.9998H12.5251C12.2418 12.9998 12.0043 12.904 11.8126 12.7123C11.621 12.5207 11.5251 12.2832 11.5251 11.9998C11.5251 11.7165 11.621 11.479 11.8126 11.2873C12.0043 11.0957 12.2418 10.9998 12.5251 10.9998H17.0001C17.8335 10.9998 18.5418 11.2915 19.1251 11.8748C19.7085 12.4582 20.0001 13.1665 20.0001 13.9998V17.9998C20.0001 19.0998 19.6085 20.0415 18.8251 20.8249C18.0418 21.6082 17.1001 21.9998 16.0001 21.9998H10.4751Z" fill="currentColor"/>
<path fill-rule="evenodd" clip-rule="evenodd" d="M13.0949 3.50678C13.0949 2.72679 13.7272 2.09448 14.5072 2.09448H18.4932C19.2732 2.09448 19.9055 2.72679 19.9055 3.50678V7.49273C19.9055 8.27272 19.2732 8.90503 18.4932 8.90503H14.5072C13.7272 8.90503 13.0949 8.27272 13.0949 7.49273V3.50678Z" fill="currentColor"/>
<path fill-rule="evenodd" clip-rule="evenodd" d="M5.09492 3.50683C5.09492 2.72684 5.72723 2.09453 6.50722 2.09453H10.4932C11.2732 2.09453 11.9055 2.72684 11.9055 3.50683V7.49277C11.9055 8.27277 11.2732 8.90507 10.4932 8.90507H9.9002V7.69453H10.4932C10.6046 7.69453 10.6949 7.6042 10.6949 7.49277V3.50683C10.6949 3.3954 10.6046 3.30507 10.4932 3.30507H6.50722C6.3958 3.30507 6.30547 3.3954 6.30547 3.50683V7.49277C6.30547 7.6042 6.3958 7.69453 6.50722 7.69453H7.1002V8.90507H6.50722C5.72723 8.90507 5.09492 8.27276 5.09492 7.49277V3.50683Z" fill="currentColor"/>
</g>
<defs>
<clipPath id="clip0_4970_37">
<rect width="24" height="24" fill="white"/>
</clipPath>
</defs>
</svg>
