<svg width="24" height="24" viewBox="0 0 24 24" fill="none" xmlns="http://www.w3.org/2000/svg">
<path d="M3 18.5V5.49997C3 5.1333 3.14583 4.85414 3.4375 4.66247C3.72917 4.4708 4.04167 4.44164 4.375 4.57497L14.35 8.74997C14.6667 8.8833 14.8583 9.07914 14.925 9.33747C14.9917 9.5958 14.975 9.84164 14.875 10.075C14.775 10.3083 14.6083 10.4916 14.375 10.625C14.1417 10.7583 13.8667 10.7583 13.55 10.625L5 6.99997V10.5L8.1 11.275C8.28333 11.325 8.42083 11.4166 8.5125 11.55C8.60417 11.6833 8.65 11.8333 8.65 12C8.65 12.1666 8.60417 12.3166 8.5125 12.45C8.42083 12.5833 8.28333 12.675 8.1 12.725L5 13.5V17L8.725 15.425C9.04167 15.2916 9.3125 15.2875 9.5375 15.4125C9.7625 15.5375 9.925 15.7166 10.025 15.95C10.125 16.1833 10.1417 16.4291 10.075 16.6875C10.0083 16.9458 9.81667 17.1416 9.5 17.275L4.4 19.425C4.06667 19.5583 3.75 19.5291 3.45 19.3375C3.15 19.1458 3 18.8666 3 18.5ZM17 22C15.6167 22 14.4375 21.5125 13.4625 20.5375C12.4875 19.5625 12 18.3833 12 17C12 15.6166 12.4875 14.4375 13.4625 13.4625C14.4375 12.4875 15.6167 12 17 12C18.3833 12 19.5625 12.4875 20.5375 13.4625C21.5125 14.4375 22 15.6166 22 17C22 18.3833 21.5125 19.5625 20.5375 20.5375C19.5625 21.5125 18.3833 22 17 22ZM17.5 16.8V14.5C17.5 14.3666 17.45 14.25 17.35 14.15C17.25 14.05 17.1333 14 17 14C16.8667 14 16.75 14.05 16.65 14.15C16.55 14.25 16.5 14.3666 16.5 14.5V16.775C16.5 16.9083 16.525 17.0375 16.575 17.1625C16.625 17.2875 16.7 17.4 16.8 17.5L18.3 19C18.4 19.1 18.5167 19.15 18.65 19.15C18.7833 19.15 18.9 19.1 19 19C19.1 18.9 19.15 18.7833 19.15 18.65C19.15 18.5166 19.1 18.4 19 18.3L17.5 16.8Z" fill="currentColor"/>
</svg>
