<svg width="24" height="24" viewBox="0 0 24 24" fill="none" xmlns="http://www.w3.org/2000/svg">
<g clip-path="url(#clip0_1_33)">
<path d="M21.0001 20.1801H3.00007C1.52007 20.1801 0.320068 18.9801 0.320068 17.5001V6.50007C0.320068 5.02007 1.52007 3.82007 3.00007 3.82007H21.0001C22.4801 3.82007 23.6801 5.02007 23.6801 6.50007V17.5001C23.6801 18.9801 22.4801 20.1801 21.0001 20.1801ZM2.67007 6.17007C2.49007 6.17007 2.67007 5.99007 2.67007 6.17007V17.8201C2.49007 17.8201 2.67007 18.0001 2.67007 17.8201H21.3301C21.3301 18.0001 21.5101 17.8201 21.3301 17.8201V6.17007C21.3301 5.99007 21.5101 6.17007 21.3301 6.17007H2.67007Z" fill="currentColor"/>
<path d="M12.0001 16.5001C11.1101 16.5001 10.2401 16.2401 9.50007 15.7401C8.76007 15.2401 8.18007 14.5501 7.84007 13.7201C7.50007 12.8901 7.41007 11.9901 7.59007 11.1201C7.76007 10.2501 8.19007 9.45007 8.82007 8.82007C9.45007 8.19007 10.2501 7.76007 11.1201 7.59007C11.9901 7.42007 12.8901 7.50007 13.7201 7.85007C14.5501 8.19007 15.2501 8.77007 15.7401 9.51007C16.2401 10.2501 16.5001 11.1201 16.5001 12.0101C16.5001 13.2101 16.0301 14.3401 15.1801 15.1901C14.3401 16.0301 13.1801 16.5101 12.0001 16.5101V16.5001ZM12.0001 9.50007C11.8401 9.50007 11.6701 9.52007 11.5101 9.55007C11.0201 9.65007 10.5801 9.88007 10.2301 10.2301C9.88007 10.5801 9.64007 11.0201 9.55007 11.5101C9.46007 12.0001 9.50007 12.5001 9.69007 12.9601C9.88007 13.4201 10.2001 13.8101 10.6101 14.0801C11.5701 14.7201 12.9501 14.5801 13.7701 13.7701C14.2401 13.3001 14.5001 12.6701 14.5001 12.0001C14.5001 11.5001 14.3501 11.0201 14.0801 10.6101C13.8001 10.2001 13.4201 9.88007 12.9601 9.69007C12.6601 9.56007 12.3301 9.50007 12.0101 9.50007H12.0001Z" fill="currentColor"/>
</g>
<defs>
<clipPath id="clip0_1_33">
<rect width="24" height="24" fill="white"/>
</clipPath>
</defs>
</svg>
