<svg width="24" height="24" viewBox="0 0 24 24" fill="none" xmlns="http://www.w3.org/2000/svg">
<path d="M5.825 19.525C5.625 19.725 5.38333 19.825 5.1 19.825C4.81667 19.825 4.58333 19.7167 4.4 19.5C3.65 18.6167 3.0625 17.625 2.6375 16.525C2.2125 15.425 2 14.25 2 13C2 11.6167 2.2625 10.3167 2.7875 9.1C3.3125 7.88333 4.025 6.825 4.925 5.925C5.825 5.025 6.88333 4.3125 8.1 3.7875C9.31667 3.2625 10.6167 3 12 3C13.3833 3 14.6833 3.2625 15.9 3.7875C17.1167 4.3125 18.175 5.025 19.075 5.925C19.975 6.825 20.6875 7.88333 21.2125 9.1C21.7375 10.3167 22 11.6167 22 13C22 14.25 21.7875 15.425 21.3625 16.525C20.9375 17.625 20.35 18.6167 19.6 19.5C19.4167 19.7167 19.1875 19.8292 18.9125 19.8375C18.6375 19.8458 18.4 19.75 18.2 19.55C18.0167 19.3667 17.925 19.1333 17.925 18.85C17.925 18.5667 18.0167 18.3167 18.2 18.1C18.7667 17.4 19.2083 16.6167 19.525 15.75C19.8417 14.8833 20 13.9667 20 13C20 10.7667 19.225 8.875 17.675 7.325C16.125 5.775 14.2333 5 12 5C9.76667 5 7.875 5.775 6.325 7.325C4.775 8.875 4 10.7667 4 13C4 13.9667 4.15833 14.8792 4.475 15.7375C4.79167 16.5958 5.24167 17.375 5.825 18.075C6.00833 18.2917 6.10417 18.5375 6.1125 18.8125C6.12083 19.0875 6.025 19.325 5.825 19.525ZM8.65 16.7C8.45 16.9 8.20833 17.0042 7.925 17.0125C7.64167 17.0208 7.41667 16.9083 7.25 16.675C6.86667 16.1583 6.5625 15.5917 6.3375 14.975C6.1125 14.3583 6 13.7 6 13C6 11.3333 6.58333 9.91667 7.75 8.75C8.91667 7.58333 10.3333 7 12 7C13.6667 7 15.0833 7.58333 16.25 8.75C17.4167 9.91667 18 11.3333 18 13C18 13.7 17.8875 14.3625 17.6625 14.9875C17.4375 15.6125 17.1333 16.175 16.75 16.675C16.5833 16.8917 16.3583 17.0042 16.075 17.0125C15.7917 17.0208 15.55 16.925 15.35 16.725C15.1667 16.5417 15.0708 16.3083 15.0625 16.025C15.0542 15.7417 15.1333 15.4833 15.3 15.25C15.5167 14.9167 15.6875 14.5625 15.8125 14.1875C15.9375 13.8125 16 13.4167 16 13C16 11.9 15.6083 10.9583 14.825 10.175C14.0417 9.39167 13.1 9 12 9C10.9 9 9.95833 9.39167 9.175 10.175C8.39167 10.9583 8 11.9 8 13C8 13.4333 8.0625 13.8333 8.1875 14.2C8.3125 14.5667 8.48333 14.9167 8.7 15.25C8.86667 15.4833 8.94583 15.7375 8.9375 16.0125C8.92917 16.2875 8.83333 16.5167 8.65 16.7ZM12 15C11.45 15 10.9792 14.8042 10.5875 14.4125C10.1958 14.0208 10 13.55 10 13C10 12.45 10.1958 11.9792 10.5875 11.5875C10.9792 11.1958 11.45 11 12 11C12.55 11 13.0208 11.1958 13.4125 11.5875C13.8042 11.9792 14 12.45 14 13C14 13.55 13.8042 14.0208 13.4125 14.4125C13.0208 14.8042 12.55 15 12 15Z" fill="currentColor"/>
</svg>
