<svg width="24" height="24" viewBox="0 0 24 24" fill="none" xmlns="http://www.w3.org/2000/svg">
<path fill-rule="evenodd" clip-rule="evenodd" d="M7.3999 3C7.95219 3 8.3999 3.44772 8.3999 4V5.11071C9.88453 5.23743 11.05 6.48266 11.05 8.0001V16.0001C11.05 17.5175 9.88453 18.7628 8.3999 18.8895V20C8.3999 20.5523 7.95219 21 7.3999 21C6.84762 21 6.3999 20.5523 6.3999 20V18.8895C4.91537 18.7627 3.75 17.5175 3.75 16.0001V8.0001C3.75 6.48273 4.91537 5.23754 6.3999 5.11073V4C6.3999 3.44772 6.84762 3 7.3999 3ZM5.55 8.0001C5.55 7.39258 6.04249 6.9001 6.65 6.9001H8.15C8.75751 6.9001 9.25 7.39258 9.25 8.0001V16.0001C9.25 16.6076 8.75751 17.1001 8.15 17.1001H6.65C6.04249 17.1001 5.55 16.6076 5.55 16.0001V8.0001Z" fill="currentColor"/>
<path fill-rule="evenodd" clip-rule="evenodd" d="M16.6499 3C17.2022 3 17.6499 3.44772 17.6499 4V7.55603C19.1345 7.68274 20.3 8.92797 20.3 10.4454V13.5565C20.3 15.074 19.1345 16.3192 17.6499 16.4459V20C17.6499 20.5523 17.2022 21 16.6499 21C16.0976 21 15.6499 20.5523 15.6499 20V16.4459C14.1654 16.3191 13 15.0739 13 13.5565V10.4454C13 8.92804 14.1654 7.68285 15.6499 7.55604V4C15.6499 3.44772 16.0976 3 16.6499 3ZM14.8 10.4454C14.8 9.8379 15.2925 9.34541 15.9 9.34541H17.4C18.0075 9.34541 18.5 9.8379 18.5 10.4454V13.5565C18.5 14.164 18.0075 14.6565 17.4 14.6565H15.9C15.2925 14.6565 14.8 14.164 14.8 13.5565V10.4454Z" fill="currentColor"/>
</svg>
