<svg width="24" height="24" viewBox="0 0 24 24" fill="none" xmlns="http://www.w3.org/2000/svg">
<g clip-path="url(#clip0_1_661)">
<path d="M9.39136 18.0293H15.3914C15.6747 18.0293 15.9122 17.9335 16.1039 17.7418C16.2955 17.5501 16.3914 17.3126 16.3914 17.0293C16.3914 16.746 16.2955 16.5085 16.1039 16.3168C15.9122 16.1251 15.6747 16.0293 15.3914 16.0293H9.39136C9.10802 16.0293 8.87052 16.1251 8.67886 16.3168C8.48719 16.5085 8.39136 16.746 8.39136 17.0293C8.39136 17.3126 8.48719 17.5501 8.67886 17.7418C8.87052 17.9335 9.10802 18.0293 9.39136 18.0293ZM9.39136 14.0293H15.3914C15.6747 14.0293 15.9122 13.9335 16.1039 13.7418C16.2955 13.5501 16.3914 13.3126 16.3914 13.0293C16.3914 12.746 16.2955 12.5085 16.1039 12.3168C15.9122 12.1251 15.6747 12.0293 15.3914 12.0293H9.39136C9.10802 12.0293 8.87052 12.1251 8.67886 12.3168C8.48719 12.5085 8.39136 12.746 8.39136 13.0293C8.39136 13.3126 8.48719 13.5501 8.67886 13.7418C8.87052 13.9335 9.10802 14.0293 9.39136 14.0293ZM6.39136 22.0293C5.84136 22.0293 5.37052 21.8335 4.97886 21.4418C4.58719 21.0501 4.39136 20.5793 4.39136 20.0293V4.0293C4.39136 3.4793 4.58719 3.00846 4.97886 2.6168C5.37052 2.22513 5.84136 2.0293 6.39136 2.0293H13.5664C13.833 2.0293 14.0872 2.0793 14.3289 2.1793C14.5705 2.2793 14.783 2.42096 14.9664 2.6043L19.8164 7.4543C19.9997 7.63763 20.1414 7.85013 20.2414 8.0918C20.3414 8.33346 20.3914 8.58763 20.3914 8.8543V20.0293C20.3914 20.5793 20.1955 21.0501 19.8039 21.4418C19.4122 21.8335 18.9414 22.0293 18.3914 22.0293H6.39136ZM13.3914 8.0293C13.3914 8.31263 13.4872 8.55013 13.6789 8.7418C13.8705 8.93346 14.108 9.0293 14.3914 9.0293H18.3914L13.3914 4.0293V8.0293Z" fill="currentColor"/>
</g>
<defs>
<clipPath id="clip0_1_661">
<rect width="24" height="24" fill="white"/>
</clipPath>
</defs>
</svg>
