<svg width="24" height="24" viewBox="0 0 24 24" fill="none" xmlns="http://www.w3.org/2000/svg">
<path d="M11.6 18.9999L3.00001 10.3999C2.81667 10.2166 2.72501 9.98326 2.72501 9.69993C2.72501 9.4166 2.81667 9.18326 3.00001 8.99993C3.18334 8.8166 3.41667 8.72493 3.70001 8.72493C3.98334 8.72493 4.21667 8.8166 4.40001 8.99993L13 17.5999V16.9999C13 16.7166 13.0958 16.4791 13.2875 16.2874C13.4792 16.0958 13.7167 15.9999 14 15.9999C14.2833 15.9999 14.5208 16.0958 14.7125 16.2874C14.9042 16.4791 15 16.7166 15 16.9999V19.9999C15 20.2833 14.9042 20.5208 14.7125 20.7124C14.5208 20.9041 14.2833 20.9999 14 20.9999H11C10.7167 20.9999 10.4792 20.9041 10.2875 20.7124C10.0958 20.5208 10 20.2833 10 19.9999C10 19.7166 10.0958 19.4791 10.2875 19.2874C10.4792 19.0958 10.7167 18.9999 11 18.9999H11.6ZM11.9 8.29993L9.80001 9.27493C9.63334 9.35826 9.46251 9.38743 9.28751 9.36243C9.11251 9.33743 8.95834 9.25826 8.82501 9.12493C8.59167 8.8916 8.50417 8.62493 8.56251 8.32493C8.62084 8.02493 8.79167 7.80826 9.07501 7.67493L18.025 3.62493C18.2083 3.5416 18.3917 3.5166 18.575 3.54993C18.7583 3.58326 18.9167 3.6666 19.05 3.79993L19.55 4.29993C19.6833 4.43326 19.7667 4.5916 19.8 4.77493C19.8333 4.95826 19.8083 5.1416 19.725 5.32493L15.625 14.2999C15.4917 14.5833 15.275 14.7499 14.975 14.7999C14.675 14.8499 14.4167 14.7666 14.2 14.5499C14.0667 14.4166 13.9833 14.2583 13.95 14.0749C13.9167 13.8916 13.9417 13.7083 14.025 13.5249L15.05 11.4499L11.9 8.29993ZM13.45 7.54993L15.75 9.89993L17.85 5.54993L17.8 5.49993L13.45 7.54993Z" fill="currentColor"/>
</svg>
