<svg width="24" height="24" viewBox="0 0 24 24" fill="none" xmlns="http://www.w3.org/2000/svg">
<path d="M17.35 17.175L20.9 13.625C21.1 13.425 21.3333 13.3292 21.6 13.3375C21.8667 13.3458 22.1 13.45 22.3 13.65C22.4833 13.85 22.5792 14.0833 22.5875 14.35C22.5958 14.6167 22.5 14.85 22.3 15.05L18.05 19.3C17.85 19.5 17.6167 19.6 17.35 19.6C17.0833 19.6 16.85 19.5 16.65 19.3L14.525 17.15C14.3417 16.9667 14.2458 16.7375 14.2375 16.4625C14.2292 16.1875 14.325 15.95 14.525 15.75C14.7083 15.5667 14.9417 15.475 15.225 15.475C15.5083 15.475 15.7417 15.5667 15.925 15.75L17.35 17.175ZM6 18L3.7 20.3C3.38333 20.6167 3.02083 20.6875 2.6125 20.5125C2.20417 20.3375 2 20.025 2 19.575V4C2 3.45 2.19583 2.97917 2.5875 2.5875C2.97917 2.19583 3.45 2 4 2H20C20.55 2 21.0208 2.19583 21.4125 2.5875C21.8042 2.97917 22 3.45 22 4V10C22 10.2833 21.9042 10.5208 21.7125 10.7125C21.5208 10.9042 21.2833 11 21 11C20.7167 11 20.4792 10.9042 20.2875 10.7125C20.0958 10.5208 20 10.2833 20 10V4H4V17.125L5.15 16H11C11.2833 16 11.5208 16.0958 11.7125 16.2875C11.9042 16.4792 12 16.7167 12 17C12 17.2833 11.9042 17.5208 11.7125 17.7125C11.5208 17.9042 11.2833 18 11 18H6Z" fill="currentColor"/>
</svg>
