<svg width="24" height="24" viewBox="0 0 24 24" fill="none" xmlns="http://www.w3.org/2000/svg">
<path d="M4 21C3.45 21 2.97917 20.8042 2.5875 20.4125C2.19583 20.0208 2 19.55 2 19V13C2 12.7167 2.09583 12.4792 2.2875 12.2875C2.47917 12.0958 2.71667 12 3 12C3.28333 12 3.52083 12.0958 3.7125 12.2875C3.90417 12.4792 4 12.7167 4 13V19H12C12.2833 19 12.5208 19.0958 12.7125 19.2875C12.9042 19.4792 13 19.7167 13 20C13 20.2833 12.9042 20.5208 12.7125 20.7125C12.5208 20.9042 12.2833 21 12 21H4ZM8 17C7.45 17 6.97917 16.8042 6.5875 16.4125C6.19583 16.0208 6 15.55 6 15V9C6 8.71667 6.09583 8.47917 6.2875 8.2875C6.47917 8.09583 6.71667 8 7 8C7.28333 8 7.52083 8.09583 7.7125 8.2875C7.90417 8.47917 8 8.71667 8 9V15H16C16.2833 15 16.5208 15.0958 16.7125 15.2875C16.9042 15.4792 17 15.7167 17 16C17 16.2833 16.9042 16.5208 16.7125 16.7125C16.5208 16.9042 16.2833 17 16 17H8ZM12 13C11.45 13 10.9792 12.8042 10.5875 12.4125C10.1958 12.0208 10 11.55 10 11V5C10 4.45 10.1958 3.97917 10.5875 3.5875C10.9792 3.19583 11.45 3 12 3H20C20.55 3 21.0208 3.19583 21.4125 3.5875C21.8042 3.97917 22 4.45 22 5V11C22 11.55 21.8042 12.0208 21.4125 12.4125C21.0208 12.8042 20.55 13 20 13H12ZM12 11H20V7H12V11Z" fill="currentColor"/>
</svg>
