<svg width="24" height="24" viewBox="0 0 24 24" fill="none" xmlns="http://www.w3.org/2000/svg">
<path fill-rule="evenodd" clip-rule="evenodd" d="M22 4.7V10.7H4V16.7H11V18.7H4C3.45 18.7 2.97917 18.5042 2.5875 18.1125C2.19583 17.7208 2 17.25 2 16.7V4.7C2 4.15 2.19583 3.67916 2.5875 3.2875C2.97917 2.89583 3.45 2.7 4 2.7H20C20.55 2.7 21.0208 2.89583 21.4125 3.2875C21.8042 3.67916 22 4.15 22 4.7ZM4 6.7H20V4.7H4V6.7Z" fill="currentColor"/>
<path d="M13.7249 17.2004C13.7249 15.3917 15.1912 13.9254 16.9999 13.9254C18.186 13.9254 19.2248 14.5559 19.7995 15.5H18.5C18.1134 15.5 17.8 15.8134 17.8 16.2C17.8 16.5866 18.1134 16.9 18.5 16.9H21C21.7269 16.9 22.2 16.493 22.2 15.7V13.2C22.2 12.8134 21.8866 12.5 21.5 12.5C21.1134 12.5 20.8 12.8134 20.8 13.2V14.3919C19.9393 13.2292 18.5576 12.4754 16.9999 12.4754C14.3904 12.4754 12.2749 14.5908 12.2749 17.2004C12.2749 19.8099 14.3904 21.9254 16.9999 21.9254C18.6976 21.9254 20.1861 21.0301 21.0191 19.6859C21.3018 19.2297 20.9273 18.7002 20.3907 18.7002C20.0967 18.7002 19.8337 18.8693 19.6622 19.1081C19.0679 19.936 18.0969 20.4754 16.9999 20.4754C15.1912 20.4754 13.7249 19.0091 13.7249 17.2004Z" fill="currentColor"/>
</svg>
