<svg width="24" height="24" viewBox="0 0 24 24" fill="none" xmlns="http://www.w3.org/2000/svg">
<path d="M4 21C3.45 21 2.97917 20.8042 2.5875 20.4125C2.19583 20.0208 2 19.55 2 19V8C2 7.45 2.19583 6.97917 2.5875 6.5875C2.97917 6.19583 3.45 6 4 6H8V4C8 3.45 8.19583 2.97917 8.5875 2.5875C8.97917 2.19583 9.45 2 10 2H14C14.55 2 15.0208 2.19583 15.4125 2.5875C15.8042 2.97917 16 3.45 16 4V6H20C20.55 6 21.0208 6.19583 21.4125 6.5875C21.8042 6.97917 22 7.45 22 8V19C22 19.55 21.8042 20.0208 21.4125 20.4125C21.0208 20.8042 20.55 21 20 21H4ZM4 19H20V8H4V19ZM10 6H14V4H10V6ZM12.2 13.5L10.3 15.4C10.1167 15.5833 10.025 15.8167 10.025 16.1C10.025 16.3833 10.1167 16.6167 10.3 16.8C10.4833 16.9833 10.7167 17.075 11 17.075C11.2833 17.075 11.5167 16.9833 11.7 16.8L14.3 14.2C14.5 14 14.6 13.7667 14.6 13.5C14.6 13.2333 14.5 13 14.3 12.8L11.7 10.2C11.5167 10.0167 11.2833 9.925 11 9.925C10.7167 9.925 10.4833 10.0167 10.3 10.2C10.1167 10.3833 10.025 10.6167 10.025 10.9C10.025 11.1833 10.1167 11.4167 10.3 11.6L12.2 13.5Z" fill="currentColor"/>
</svg>
