<svg width="24" height="24" viewBox="0 0 24 24" fill="none" xmlns="http://www.w3.org/2000/svg">
<path d="M12 7C11.5 7 11.0167 7.075 10.55 7.225C10.0834 7.375 9.64169 7.59167 9.22502 7.875C8.99169 8.04167 8.73335 8.11667 8.45002 8.1C8.16669 8.08333 7.92502 7.975 7.72502 7.775C7.52502 7.575 7.42502 7.3375 7.42502 7.0625C7.42502 6.7875 7.54169 6.56667 7.77502 6.4C8.39169 5.95 9.05835 5.60417 9.77502 5.3625C10.4917 5.12083 11.2334 5 12 5C12.7667 5 13.5084 5.12083 14.225 5.3625C14.9417 5.60417 15.6084 5.95 16.225 6.4C16.4584 6.56667 16.575 6.7875 16.575 7.0625C16.575 7.3375 16.475 7.575 16.275 7.775C16.075 7.975 15.8334 8.08333 15.55 8.1C15.2667 8.11667 15.0084 8.04167 14.775 7.875C14.3584 7.59167 13.9209 7.375 13.4625 7.225C13.0042 7.075 12.5167 7 12 7ZM12 3C10.9834 3 9.99585 3.16667 9.03752 3.5C8.07919 3.83333 7.20002 4.31667 6.40002 4.95C6.16669 5.13333 5.91669 5.22083 5.65002 5.2125C5.38335 5.20417 5.15002 5.1 4.95002 4.9C4.75002 4.7 4.65835 4.4625 4.67502 4.1875C4.69169 3.9125 4.80835 3.68333 5.02502 3.5C6.02502 2.7 7.11669 2.08333 8.30002 1.65C9.48335 1.21667 10.7167 1 12 1C13.2834 1 14.5167 1.21667 15.7 1.65C16.8834 2.08333 17.975 2.7 18.975 3.5C19.1917 3.68333 19.3084 3.9125 19.325 4.1875C19.3417 4.4625 19.25 4.7 19.05 4.9C18.85 5.1 18.6167 5.20417 18.35 5.2125C18.0834 5.22083 17.8334 5.13333 17.6 4.95C16.8 4.31667 15.9209 3.83333 14.9625 3.5C14.0042 3.16667 13.0167 3 12 3ZM10 22C9.45002 22 8.97919 21.8042 8.58752 21.4125C8.19585 21.0208 8.00002 20.55 8.00002 20V12C8.00002 11.45 8.19585 10.9792 8.58752 10.5875C8.97919 10.1958 9.45002 10 10 10H14C14.55 10 15.0209 10.1958 15.4125 10.5875C15.8042 10.9792 16 11.45 16 12V20C16 20.55 15.8042 21.0208 15.4125 21.4125C15.0209 21.8042 14.55 22 14 22H10ZM14 20V12H10V20H14Z" fill="currentColor"/>
</svg>
