<svg width="24" height="24" viewBox="0 0 24 24" fill="none" xmlns="http://www.w3.org/2000/svg">
<g clip-path="url(#clip0_6192_11)">
<path d="M16.3896 19.79H6.89956C6.34956 19.79 5.85956 19.48 5.62956 18.98C5.39956 18.48 5.47956 17.91 5.83956 17.49L10.5496 12.01L5.83956 6.50996C5.47956 6.08996 5.39956 5.51996 5.62956 5.01996C5.85956 4.51996 6.34956 4.20996 6.89956 4.20996H16.3896C17.2196 4.20996 17.8996 4.88996 17.8996 5.71996V8.68996C17.8996 9.09996 17.5596 9.43996 17.1496 9.43996C16.7396 9.43996 16.3996 9.09996 16.3996 8.68996V5.71996H7.12956L12.1096 11.51C12.3496 11.79 12.3496 12.21 12.1096 12.49L7.12956 18.29H16.3896V15.31C16.3996 14.9 16.7396 14.56 17.1496 14.56C17.5596 14.56 17.8996 14.9 17.8996 15.31V18.28C17.8996 19.11 17.2196 19.79 16.3896 19.79Z" fill="#353839"/>
</g>
<defs>
<clipPath id="clip0_6192_11">
<rect width="24" height="24" fill="white"/>
</clipPath>
</defs>
</svg>
