<svg width="24" height="24" viewBox="0 0 24 24" fill="none" xmlns="http://www.w3.org/2000/svg">
<path d="M17.2 6.8C17.25 6.85 17.2833 6.9125 17.3 6.9875C17.3167 7.0625 17.3083 7.14167 17.275 7.225L15.2 11.425C15.1167 11.575 14.9958 11.6667 14.8375 11.7C14.6792 11.7333 14.5333 11.6833 14.4 11.55L12.45 9.6C12.3167 9.46667 12.2667 9.32083 12.3 9.1625C12.3333 9.00417 12.425 8.88333 12.575 8.8L16.775 6.725C16.8583 6.69167 16.9375 6.68333 17.0125 6.7C17.0875 6.71667 17.15 6.75 17.2 6.8ZM12 20C12.7167 20 13.4167 19.9083 14.1 19.725C14.7833 19.5417 15.4333 19.2667 16.05 18.9L12.05 14.9L7.22499 17.275C7.05833 17.3583 6.91249 17.3375 6.78749 17.2125C6.66249 17.0875 6.64166 16.9417 6.72499 16.775L9.04999 11.9L5.09999 7.95C4.73333 8.56667 4.45833 9.21667 4.27499 9.9C4.09166 10.5833 3.99999 11.2833 3.99999 12C3.99999 14.2333 4.77499 16.125 6.32499 17.675C7.87499 19.225 9.76666 20 12 20ZM12 22C10.6167 22 9.31666 21.7375 8.09999 21.2125C6.88333 20.6875 5.82499 19.975 4.92499 19.075C4.02499 18.175 3.31249 17.1167 2.78749 15.9C2.26249 14.6833 1.99999 13.3833 1.99999 12C1.99999 11.0167 2.14166 10.0583 2.42499 9.125C2.70833 8.19167 3.11666 7.31667 3.64999 6.5L2.07499 4.925C1.87499 4.725 1.77499 4.4875 1.77499 4.2125C1.77499 3.9375 1.87499 3.7 2.07499 3.5C2.27499 3.3 2.51249 3.2 2.78749 3.2C3.06249 3.2 3.29999 3.3 3.49999 3.5L20.5 20.5C20.6833 20.6833 20.775 20.9167 20.775 21.2C20.775 21.4833 20.6833 21.7167 20.5 21.9C20.3 22.1 20.0625 22.2 19.7875 22.2C19.5125 22.2 19.275 22.1 19.075 21.9L17.5 20.35C16.6833 20.8833 15.8083 21.2917 14.875 21.575C13.9417 21.8583 12.9833 22 12 22ZM7.84999 2.9C8.49999 2.6 9.17499 2.375 9.87499 2.225C10.575 2.075 11.2833 2 12 2C13.3333 2 14.6083 2.25 15.825 2.75C17.0417 3.25 18.125 3.975 19.075 4.925C20.025 5.875 20.75 6.95833 21.25 8.175C21.75 9.39167 22 10.6667 22 12C22 12.7167 21.925 13.425 21.775 14.125C21.625 14.825 21.4 15.5 21.1 16.15C20.9833 16.4 20.7917 16.5625 20.525 16.6375C20.2583 16.7125 20.0083 16.6833 19.775 16.55C19.5417 16.4167 19.3833 16.2167 19.3 15.95C19.2167 15.6833 19.2333 15.4167 19.35 15.15C19.5667 14.65 19.7292 14.1333 19.8375 13.6C19.9458 13.0667 20 12.5333 20 12C20 9.76667 19.225 7.875 17.675 6.325C16.125 4.775 14.2333 4 12 4C11.4667 4 10.9333 4.05417 10.4 4.1625C9.86666 4.27083 9.34999 4.43333 8.84999 4.65C8.58333 4.76667 8.31666 4.78333 8.04999 4.7C7.78333 4.61667 7.58333 4.45833 7.44999 4.225C7.31666 3.99167 7.28749 3.74167 7.36249 3.475C7.43749 3.20833 7.59999 3.01667 7.84999 2.9Z" fill="currentColor"/>
</svg>
