<svg width="24" height="24" viewBox="0 0 24 24" fill="none" xmlns="http://www.w3.org/2000/svg">
<path d="M19.125 14.6251C18.9417 14.9084 18.7125 15.0584 18.4375 15.0751C18.1625 15.0918 17.925 15.0251 17.725 14.8751C17.525 14.7251 17.3875 14.5209 17.3125 14.2626C17.2375 14.0043 17.3 13.7334 17.5 13.4501L18.55 12.0001L15 7.0001H10.275C9.94168 7.0001 9.69168 6.89593 9.52501 6.6876C9.35835 6.47926 9.27501 6.2501 9.27501 6.0001C9.27501 5.7501 9.35835 5.52093 9.52501 5.3126C9.69168 5.10426 9.94168 5.0001 10.275 5.0001H15C15.3333 5.0001 15.6417 5.07093 15.925 5.2126C16.2083 5.35426 16.45 5.56676 16.65 5.8501L20.175 10.8501C20.3083 11.0334 20.4042 11.2209 20.4625 11.4126C20.5208 11.6043 20.55 11.8001 20.55 12.0001C20.55 12.2001 20.5208 12.3959 20.4625 12.5876C20.4042 12.7793 20.3083 12.9668 20.175 13.1501L19.125 14.6251ZM5.00001 19.0001C4.45001 19.0001 3.97918 18.8043 3.58751 18.4126C3.19585 18.0209 3.00001 17.5501 3.00001 17.0001V7.0001C3.00001 6.81676 3.02085 6.6501 3.06251 6.5001C3.10418 6.3501 3.16668 6.2001 3.25001 6.0501L2.10001 4.9001C1.91668 4.71676 1.82501 4.48343 1.82501 4.2001C1.82501 3.91676 1.91668 3.68343 2.10001 3.5001C2.28335 3.31676 2.51668 3.2251 2.80001 3.2251C3.08335 3.2251 3.31668 3.31676 3.50001 3.5001L20.5 20.5001C20.6833 20.6834 20.775 20.9168 20.775 21.2001C20.775 21.4834 20.6833 21.7168 20.5 21.9001C20.3167 22.0834 20.0833 22.1751 19.8 22.1751C19.5167 22.1751 19.2833 22.0834 19.1 21.9001L15.95 18.7501C15.8 18.8334 15.65 18.8959 15.5 18.9376C15.35 18.9793 15.1833 19.0001 15 19.0001H5.00001ZM14.2 17.0001L5.00001 7.8001V17.0001H14.2Z" fill="currentColor"/>
</svg>
