<svg width="24" height="24" viewBox="0 0 24 24" fill="none" xmlns="http://www.w3.org/2000/svg">
<path d="M10 19V17C8.61667 17 7.4375 16.5125 6.4625 15.5375C5.4875 14.5625 5 13.3833 5 12C5 10.9833 5.27917 10.0583 5.8375 9.225C6.39583 8.39167 7.15 7.78334 8.1 7.4C8.23333 6.83334 8.52917 6.375 8.9875 6.025C9.44583 5.675 9.96667 5.5 10.55 5.5L10.325 4.875C10.2417 4.60834 10.2542 4.35417 10.3625 4.1125C10.4708 3.87084 10.6583 3.7 10.925 3.6H10.95C10.85 3.35 10.8583 3.10417 10.975 2.8625C11.0917 2.62084 11.2917 2.45 11.575 2.35C11.825 2.26667 12.0708 2.27917 12.3125 2.3875C12.5542 2.49584 12.7167 2.68334 12.8 2.95C13.0667 2.85 13.325 2.85834 13.575 2.975C13.825 3.09167 14 3.28334 14.1 3.55L16.15 9.175C16.25 9.44167 16.2458 9.69584 16.1375 9.9375C16.0292 10.1792 15.8417 10.35 15.575 10.45H15.55C15.65 10.7167 15.6417 10.975 15.525 11.225C15.4083 11.475 15.2083 11.65 14.925 11.75C14.675 11.8333 14.4292 11.8208 14.1875 11.7125C13.9458 11.6042 13.7833 11.4167 13.7 11.15C13.4333 11.25 13.175 11.2417 12.925 11.125C12.675 11.0083 12.5 10.8167 12.4 10.55L12.15 9.85C11.9 10.0833 11.6125 10.2583 11.2875 10.375C10.9625 10.4917 10.6333 10.5333 10.3 10.5C9.93333 10.4667 9.59167 10.3542 9.275 10.1625C8.95833 9.97084 8.68333 9.73334 8.45 9.45C8 9.71667 7.64583 10.075 7.3875 10.525C7.12917 10.975 7 11.4667 7 12C7 12.8333 7.29167 13.5417 7.875 14.125C8.45833 14.7083 9.16667 15 10 15H17C17.2833 15 17.5208 15.0958 17.7125 15.2875C17.9042 15.4792 18 15.7167 18 16C18 16.2833 17.9042 16.5208 17.7125 16.7125C17.5208 16.9042 17.2833 17 17 17H13V19H18C18.2833 19 18.5208 19.0958 18.7125 19.2875C18.9042 19.4792 19 19.7167 19 20C19 20.2833 18.9042 20.5208 18.7125 20.7125C18.5208 20.9042 18.2833 21 18 21H6C5.71667 21 5.47917 20.9042 5.2875 20.7125C5.09583 20.5208 5 20.2833 5 20C5 19.7167 5.09583 19.4792 5.2875 19.2875C5.47917 19.0958 5.71667 19 6 19H10ZM13.65 9.55L14.55 9.2L12.85 4.5L11.9 4.85L13.65 9.55ZM10.5 9C10.7833 9 11.0208 8.90417 11.2125 8.7125C11.4042 8.52084 11.5 8.28334 11.5 8C11.5 7.71667 11.4042 7.47917 11.2125 7.2875C11.0208 7.09584 10.7833 7 10.5 7C10.2167 7 9.97917 7.09584 9.7875 7.2875C9.59583 7.47917 9.5 7.71667 9.5 8C9.5 8.28334 9.59583 8.52084 9.7875 8.7125C9.97917 8.90417 10.2167 9 10.5 9Z" fill="currentColor"/>
</svg>
