<svg xmlns="http://www.w3.org/2000/svg" width="24" height="24" viewBox="0 0 24 24" fill="none">
  <path d="M4.30005 7.78394C4.30005 7.23165 4.74776 6.78394 5.30005 6.78394H13.5467C14.099 6.78394 14.5467 7.23165 14.5467 7.78394C14.5467 8.33622 14.099 8.78394 13.5467 8.78394H5.30005C4.74776 8.78394 4.30005 8.33622 4.30005 7.78394Z" fill="currentColor"/>
  <path d="M4.30005 11.8613C4.30005 11.309 4.74776 10.8613 5.30005 10.8613H13.5467C14.099 10.8613 14.5467 11.309 14.5467 11.8613C14.5467 12.4136 14.099 12.8613 13.5467 12.8613H5.30005C4.74776 12.8613 4.30005 12.4136 4.30005 11.8613Z" fill="currentColor"/>
  <path fill-rule="evenodd" clip-rule="evenodd" d="M1.03857 3.16211C1.03857 2.60982 1.48629 2.16211 2.03857 2.16211H16.8078C17.3601 2.16211 17.8078 2.60982 17.8078 3.16211V15.467H22.0001C22.5524 15.467 23.0001 15.9148 23.0001 16.467C23.0001 19.2886 20.6954 21.5621 17.8707 21.5621H6.16821C6.15905 21.5621 6.14992 21.562 6.14081 21.5617H6.07782C3.30287 21.5617 1.03857 19.3283 1.03857 16.5561V3.16211ZM3.03857 4.16211V16.5561C3.03857 18.208 4.39165 19.5617 6.07782 19.5617H6.16802C7.90399 19.5617 9.29746 18.1679 9.29746 16.4667C9.29746 15.9144 9.74518 15.4667 10.2975 15.4667H15.8078V4.16211H3.03857ZM10.2431 19.5621H17.8707C19.25 19.5621 20.4132 18.6821 20.8328 17.467H11.199C11.0434 18.2442 10.71 18.9568 10.2431 19.5621Z" fill="currentColor"/>
</svg>