<svg width="24" height="24" viewBox="0 0 24 24" fill="none" xmlns="http://www.w3.org/2000/svg">
<path d="M5.52502 21C5.07503 21 4.67502 20.8625 4.32502 20.5875C3.97502 20.3125 3.73336 19.9583 3.60002 19.525L1.05002 10.275C0.966691 9.95833 1.02086 9.66667 1.21252 9.4C1.40419 9.13333 1.66669 9 2.00002 9H6.75002L11.15 2.45C11.2334 2.31667 11.35 2.20833 11.5 2.125C11.65 2.04167 11.8084 2 11.975 2C12.1417 2 12.3 2.04167 12.45 2.125C12.6 2.20833 12.7167 2.31667 12.8 2.45L17.2 9H22C22.3334 9 22.5959 9.13333 22.7875 9.4C22.9792 9.66667 23.0334 9.95833 22.95 10.275L20.4 19.525C20.2667 19.9583 20.025 20.3125 19.675 20.5875C19.325 20.8625 18.925 21 18.475 21H5.52502ZM5.50002 19H18.5L20.7 11H3.30002L5.50002 19ZM12 17C12.55 17 13.0209 16.8042 13.4125 16.4125C13.8042 16.0208 14 15.55 14 15C14 14.45 13.8042 13.9792 13.4125 13.5875C13.0209 13.1958 12.55 13 12 13C11.45 13 10.9792 13.1958 10.5875 13.5875C10.1959 13.9792 10 14.45 10 15C10 15.55 10.1959 16.0208 10.5875 16.4125C10.9792 16.8042 11.45 17 12 17ZM9.17502 9H14.8L11.975 4.8L9.17502 9Z" fill="currentColor"/>
</svg>
