<svg width="24" height="24" viewBox="0 0 24 24" fill="none" xmlns="http://www.w3.org/2000/svg">
<path d="M7 21H5C4.45 21 3.97917 20.8042 3.5875 20.4125C3.19583 20.0208 3 19.55 3 19V17C3 16.7167 3.09583 16.4792 3.2875 16.2875C3.47917 16.0958 3.71667 16 4 16C4.28333 16 4.52083 16.0958 4.7125 16.2875C4.90417 16.4792 5 16.7167 5 17V19H7C7.28333 19 7.52083 19.0958 7.7125 19.2875C7.90417 19.4792 8 19.7167 8 20C8 20.2833 7.90417 20.5208 7.7125 20.7125C7.52083 20.9042 7.28333 21 7 21ZM19 21H17C16.7167 21 16.4792 20.9042 16.2875 20.7125C16.0958 20.5208 16 20.2833 16 20C16 19.7167 16.0958 19.4792 16.2875 19.2875C16.4792 19.0958 16.7167 19 17 19H19V17C19 16.7167 19.0958 16.4792 19.2875 16.2875C19.4792 16.0958 19.7167 16 20 16C20.2833 16 20.5208 16.0958 20.7125 16.2875C20.9042 16.4792 21 16.7167 21 17V19C21 19.55 20.8042 20.0208 20.4125 20.4125C20.0208 20.8042 19.55 21 19 21ZM12 19C10.0667 19 8.41667 18.3167 7.05 16.95C5.68333 15.5833 5 13.9333 5 12C5 10.0667 5.68333 8.41667 7.05 7.05C8.41667 5.68333 10.0667 5 12 5C13.9333 5 15.5833 5.68333 16.95 7.05C18.3167 8.41667 19 10.0667 19 12C19 13.9333 18.3167 15.5833 16.95 16.95C15.5833 18.3167 13.9333 19 12 19ZM12 17C13.3833 17 14.5625 16.5125 15.5375 15.5375C16.5125 14.5625 17 13.3833 17 12C17 10.6167 16.5125 9.4375 15.5375 8.4625C14.5625 7.4875 13.3833 7 12 7C10.6167 7 9.4375 7.4875 8.4625 8.4625C7.4875 9.4375 7 10.6167 7 12C7 13.3833 7.4875 14.5625 8.4625 15.5375C9.4375 16.5125 10.6167 17 12 17ZM3 5C3 4.45 3.19583 3.97917 3.5875 3.5875C3.97917 3.19583 4.45 3 5 3H7C7.28333 3 7.52083 3.09583 7.7125 3.2875C7.90417 3.47917 8 3.71667 8 4C8 4.28333 7.90417 4.52083 7.7125 4.7125C7.52083 4.90417 7.28333 5 7 5H5V7C5 7.28333 4.90417 7.52083 4.7125 7.7125C4.52083 7.90417 4.28333 8 4 8C3.71667 8 3.47917 7.90417 3.2875 7.7125C3.09583 7.52083 3 7.28333 3 7V5ZM20 8C19.7167 8 19.4792 7.90417 19.2875 7.7125C19.0958 7.52083 19 7.28333 19 7V5H17C16.7167 5 16.4792 4.90417 16.2875 4.7125C16.0958 4.52083 16 4.28333 16 4C16 3.71667 16.0958 3.47917 16.2875 3.2875C16.4792 3.09583 16.7167 3 17 3H19C19.55 3 20.0208 3.19583 20.4125 3.5875C20.8042 3.97917 21 4.45 21 5V7C21 7.28333 20.9042 7.52083 20.7125 7.7125C20.5208 7.90417 20.2833 8 20 8Z" fill="currentColor"/>
</svg>
