<svg width="24" height="24" viewBox="0 0 24 24" fill="none" xmlns="http://www.w3.org/2000/svg">
<path d="M8 16H5C4.71667 16 4.47917 15.9042 4.2875 15.7125C4.09583 15.5208 4 15.2833 4 15C4 14.7167 4.09583 14.4792 4.2875 14.2875C4.47917 14.0958 4.71667 14 5 14H8V10H5C4.71667 10 4.47917 9.90417 4.2875 9.7125C4.09583 9.52083 4 9.28333 4 9C4 8.71667 4.09583 8.47917 4.2875 8.2875C4.47917 8.09583 4.71667 8 5 8H8V5C8 4.71667 8.09583 4.47917 8.2875 4.2875C8.47917 4.09583 8.71667 4 9 4C9.28333 4 9.52083 4.09583 9.7125 4.2875C9.90417 4.47917 10 4.71667 10 5V8H14V5C14 4.71667 14.0958 4.47917 14.2875 4.2875C14.4792 4.09583 14.7167 4 15 4C15.2833 4 15.5208 4.09583 15.7125 4.2875C15.9042 4.47917 16 4.71667 16 5V8H19C19.2833 8 19.5208 8.09583 19.7125 8.2875C19.9042 8.47917 20 8.71667 20 9C20 9.28333 19.9042 9.52083 19.7125 9.7125C19.5208 9.90417 19.2833 10 19 10H16V14H19C19.2833 14 19.5208 14.0958 19.7125 14.2875C19.9042 14.4792 20 14.7167 20 15C20 15.2833 19.9042 15.5208 19.7125 15.7125C19.5208 15.9042 19.2833 16 19 16H16V19C16 19.2833 15.9042 19.5208 15.7125 19.7125C15.5208 19.9042 15.2833 20 15 20C14.7167 20 14.4792 19.9042 14.2875 19.7125C14.0958 19.5208 14 19.2833 14 19V16H10V19C10 19.2833 9.90417 19.5208 9.7125 19.7125C9.52083 19.9042 9.28333 20 9 20C8.71667 20 8.47917 19.9042 8.2875 19.7125C8.09583 19.5208 8 19.2833 8 19V16ZM10 14H14V10H10V14Z" fill="currentColor"/>
</svg>
