<svg width="24" height="24" viewBox="0 0 24 24" fill="none" xmlns="http://www.w3.org/2000/svg">
<path d="M10.8251 2H18.0001C18.5501 2 19.0209 2.19583 19.4126 2.5875C19.8042 2.97917 20.0001 3.45 20.0001 4V15.175C20.0001 15.4583 19.9042 15.6958 19.7126 15.8875C19.5209 16.0792 19.2834 16.175 19.0001 16.175C18.7167 16.175 18.4792 16.0792 18.2876 15.8875C18.0959 15.6958 18.0001 15.4583 18.0001 15.175V4H10.8501L9.55006 5.3C9.35006 5.5 9.11673 5.59583 8.85006 5.5875C8.58339 5.57917 8.35006 5.48333 8.15006 5.3C7.95006 5.1 7.84589 4.8625 7.83756 4.5875C7.82923 4.3125 7.92506 4.075 8.12506 3.875L9.42506 2.575C9.60839 2.39167 9.82089 2.25 10.0626 2.15C10.3042 2.05 10.5584 2 10.8251 2ZM6.00006 22C5.45006 22 4.97923 21.8042 4.58756 21.4125C4.19589 21.0208 4.00006 20.55 4.00006 20V8.825C4.00006 8.55833 4.05006 8.30417 4.15006 8.0625C4.25006 7.82083 4.39173 7.60833 4.57506 7.425L4.60006 7.4L1.40006 4.2C1.20006 4 1.10423 3.76667 1.11256 3.5C1.12089 3.23333 1.22506 3 1.42506 2.8C1.62506 2.61667 1.85839 2.52083 2.12506 2.5125C2.39173 2.50417 2.62506 2.6 2.82506 2.8L21.2001 21.175C21.3834 21.3583 21.4751 21.5875 21.4751 21.8625C21.4751 22.1375 21.3834 22.375 21.2001 22.575C21.0001 22.775 20.7626 22.875 20.4876 22.875C20.2126 22.875 19.9751 22.775 19.7751 22.575L6.00006 8.8V20H18.0001V17.975L20.0001 19.975V20C20.0001 20.55 19.8042 21.0208 19.4126 21.4125C19.0209 21.8042 18.5501 22 18.0001 22H6.00006Z" fill="currentColor"/>
</svg>
