<svg width="24" height="24" viewBox="0 0 24 24" fill="none" xmlns="http://www.w3.org/2000/svg">
<path d="M15.5 15H13C12.8667 15 12.75 14.95 12.65 14.85C12.55 14.75 12.5 14.6333 12.5 14.5V9.5C12.5 9.36667 12.55 9.25 12.65 9.15C12.75 9.05 12.8667 9 13 9H15.5C15.7833 9 16.0208 9.09583 16.2125 9.2875C16.4042 9.47917 16.5 9.71667 16.5 10V14C16.5 14.2833 16.4042 14.5208 16.2125 14.7125C16.0208 14.9042 15.7833 15 15.5 15ZM10.5 15H8.25C8.03333 15 7.85417 14.9292 7.7125 14.7875C7.57083 14.6458 7.5 14.4667 7.5 14.25C7.5 14.0333 7.57083 13.8542 7.7125 13.7125C7.85417 13.5708 8.03333 13.5 8.25 13.5H10V12.5H9C8.86667 12.5 8.75 12.45 8.65 12.35C8.55 12.25 8.5 12.1333 8.5 12C8.5 11.8667 8.55 11.75 8.65 11.65C8.75 11.55 8.86667 11.5 9 11.5H10V10.5H8.25C8.03333 10.5 7.85417 10.4292 7.7125 10.2875C7.57083 10.1458 7.5 9.96667 7.5 9.75C7.5 9.53333 7.57083 9.35417 7.7125 9.2125C7.85417 9.07083 8.03333 9 8.25 9H10.5C10.7833 9 11.0208 9.09583 11.2125 9.2875C11.4042 9.47917 11.5 9.71667 11.5 10V14C11.5 14.2833 11.4042 14.5208 11.2125 14.7125C11.0208 14.9042 10.7833 15 10.5 15ZM14 13.5H15V10.5H14V13.5ZM21 13C20.7167 13 20.4792 12.9042 20.2875 12.7125C20.0958 12.5208 20 12.2833 20 12C20 10.0833 19.3958 8.39167 18.1875 6.925C16.9792 5.45833 15.4333 4.53333 13.55 4.15L14.3 4.9C14.4833 5.08333 14.575 5.31667 14.575 5.6C14.575 5.88333 14.4833 6.11667 14.3 6.3C14.1167 6.48333 13.8833 6.575 13.6 6.575C13.3167 6.575 13.0833 6.48333 12.9 6.3L9.675 3.075C9.54167 2.94167 9.5 2.775 9.55 2.575C9.6 2.375 9.725 2.25 9.925 2.2C10.2583 2.11667 10.6 2.0625 10.95 2.0375C11.3 2.0125 11.65 2 12 2C13.3833 2 14.6833 2.2625 15.9 2.7875C17.1167 3.3125 18.175 4.025 19.075 4.925C19.975 5.825 20.6875 6.88333 21.2125 8.1C21.7375 9.31667 22 10.6167 22 12C22 12.2833 21.9042 12.5208 21.7125 12.7125C21.5208 12.9042 21.2833 13 21 13ZM12 22C10.6167 22 9.31667 21.7375 8.1 21.2125C6.88333 20.6875 5.825 19.975 4.925 19.075C4.025 18.175 3.3125 17.1167 2.7875 15.9C2.2625 14.6833 2 13.3833 2 12C2 11.7167 2.09583 11.4792 2.2875 11.2875C2.47917 11.0958 2.71667 11 3 11C3.28333 11 3.52083 11.0958 3.7125 11.2875C3.90417 11.4792 4 11.7167 4 12C4 13.9167 4.60417 15.6083 5.8125 17.075C7.02083 18.5417 8.56667 19.4667 10.45 19.85L9.7 19.1C9.51667 18.9167 9.425 18.6833 9.425 18.4C9.425 18.1167 9.51667 17.8833 9.7 17.7C9.88333 17.5167 10.1167 17.425 10.4 17.425C10.6833 17.425 10.9167 17.5167 11.1 17.7L14.325 20.925C14.4583 21.0583 14.5 21.225 14.45 21.425C14.4 21.625 14.275 21.75 14.075 21.8C13.7417 21.8833 13.4 21.9375 13.05 21.9625C12.7 21.9875 12.35 22 12 22Z" fill="currentColor"/>
</svg>
