<svg width="24" height="24" viewBox="0 0 24 24" fill="none" xmlns="http://www.w3.org/2000/svg">
<path d="M12 22C10.6333 22 9.34167 21.7375 8.125 21.2125C6.90833 20.6875 5.84583 19.9708 4.9375 19.0625C4.02917 18.1542 3.3125 17.0917 2.7875 15.875C2.2625 14.6583 2 13.3667 2 12C2 10.6167 2.2625 9.32083 2.7875 8.1125C3.3125 6.90417 4.02917 5.84583 4.9375 4.9375C5.84583 4.02917 6.90833 3.3125 8.125 2.7875C9.34167 2.2625 10.6333 2 12 2C13.3833 2 14.6792 2.2625 15.8875 2.7875C17.0958 3.3125 18.1542 4.02917 19.0625 4.9375C19.9708 5.84583 20.6875 6.90417 21.2125 8.1125C21.7375 9.32083 22 10.6167 22 12C22 13.3667 21.7375 14.6583 21.2125 15.875C20.6875 17.0917 19.9708 18.1542 19.0625 19.0625C18.1542 19.9708 17.0958 20.6875 15.8875 21.2125C14.6792 21.7375 13.3833 22 12 22ZM7.5 13C7.91667 13 8.27083 12.8542 8.5625 12.5625C8.85417 12.2708 9 11.9167 9 11.5C9 11.0833 8.85417 10.7292 8.5625 10.4375C8.27083 10.1458 7.91667 10 7.5 10C7.08333 10 6.72917 10.1458 6.4375 10.4375C6.14583 10.7292 6 11.0833 6 11.5C6 11.9167 6.14583 12.2708 6.4375 12.5625C6.72917 12.8542 7.08333 13 7.5 13ZM16.5 13C16.9167 13 17.2708 12.8542 17.5625 12.5625C17.8542 12.2708 18 11.9167 18 11.5C18 11.0833 17.8542 10.7292 17.5625 10.4375C17.2708 10.1458 16.9167 10 16.5 10C16.0833 10 15.7292 10.1458 15.4375 10.4375C15.1458 10.7292 15 11.0833 15 11.5C15 11.9167 15.1458 12.2708 15.4375 12.5625C15.7292 12.8542 16.0833 13 16.5 13ZM9 17.5C9.41667 17.5 9.77083 17.3542 10.0625 17.0625C10.3542 16.7708 10.5 16.4167 10.5 16C10.5 15.5833 10.3542 15.2292 10.0625 14.9375C9.77083 14.6458 9.41667 14.5 9 14.5C8.58333 14.5 8.22917 14.6458 7.9375 14.9375C7.64583 15.2292 7.5 15.5833 7.5 16C7.5 16.4167 7.64583 16.7708 7.9375 17.0625C8.22917 17.3542 8.58333 17.5 9 17.5ZM15 17.5C15.4167 17.5 15.7708 17.3542 16.0625 17.0625C16.3542 16.7708 16.5 16.4167 16.5 16C16.5 15.5833 16.3542 15.2292 16.0625 14.9375C15.7708 14.6458 15.4167 14.5 15 14.5C14.5833 14.5 14.2292 14.6458 13.9375 14.9375C13.6458 15.2292 13.5 15.5833 13.5 16C13.5 16.4167 13.6458 16.7708 13.9375 17.0625C14.2292 17.3542 14.5833 17.5 15 17.5ZM10.5 9H13.5C13.9333 9 14.2917 8.85833 14.575 8.575C14.8583 8.29167 15 7.93333 15 7.5C15 7.06667 14.8583 6.70833 14.575 6.425C14.2917 6.14167 13.9333 6 13.5 6H10.5C10.0667 6 9.70833 6.14167 9.425 6.425C9.14167 6.70833 9 7.06667 9 7.5C9 7.93333 9.14167 8.29167 9.425 8.575C9.70833 8.85833 10.0667 9 10.5 9ZM12 20C14.2167 20 16.1042 19.2208 17.6625 17.6625C19.2208 16.1042 20 14.2167 20 12C20 9.78333 19.2208 7.89583 17.6625 6.3375C16.1042 4.77917 14.2167 4 12 4C9.78333 4 7.89583 4.77917 6.3375 6.3375C4.77917 7.89583 4 9.78333 4 12C4 14.2167 4.77917 16.1042 6.3375 17.6625C7.89583 19.2208 9.78333 20 12 20Z" fill="currentColor"/>
</svg>
