<svg width="24" height="24" viewBox="0 0 24 24" fill="none" xmlns="http://www.w3.org/2000/svg">
<g clip-path="url(#clip0_1_53)">
<path d="M13.2901 10.7299H21.6401C21.3401 8.55988 20.4201 6.68988 18.8701 5.12988C17.3201 3.56988 15.4601 2.64988 13.2901 2.37988V10.7299ZM10.7401 21.6199V2.37988C8.35011 2.69988 6.36011 3.76988 4.76011 5.58988C3.16011 7.41988 2.36011 9.54988 2.36011 11.9999C2.36011 14.4499 3.16011 16.5799 4.76011 18.4099C6.36011 20.2399 8.35011 21.3099 10.7401 21.6199ZM13.2901 21.6199C15.4401 21.2799 17.2901 20.3499 18.8301 18.8199C20.3701 17.2899 21.3101 15.4399 21.6401 13.2699H13.2901V21.6199Z" fill="currentColor"/>
</g>
<defs>
<clipPath id="clip0_1_53">
<rect width="24" height="24" fill="white"/>
</clipPath>
</defs>
</svg>
