<svg width="24" height="24" viewBox="0 0 24 24" fill="none" xmlns="http://www.w3.org/2000/svg">
<path d="M5.49999 21.5C5.21665 21.5 4.92915 21.4125 4.63749 21.2375C4.34582 21.0625 4.13332 20.8583 3.99999 20.625L1.49999 16.25C1.36665 16.0167 1.29999 15.7292 1.29999 15.3875C1.29999 15.0458 1.36665 14.7583 1.49999 14.525L7.99999 3.375C8.13332 3.14167 8.34582 2.9375 8.63749 2.7625C8.92915 2.5875 9.21665 2.5 9.49999 2.5H14.5C14.7833 2.5 15.0708 2.5875 15.3625 2.7625C15.6542 2.9375 15.8667 3.14167 16 3.375L19.6 9.55C19.8 9.9 19.7958 10.2458 19.5875 10.5875C19.3792 10.9292 19.075 11.0833 18.675 11.05C18.5083 11.0333 18.3542 10.9875 18.2125 10.9125C18.0708 10.8375 17.9583 10.725 17.875 10.575L14.35 4.5H9.64999L3.29999 15.4L5.64999 19.5H13.05C13.2167 19.5 13.3667 19.5333 13.5 19.6C13.6333 19.6667 13.75 19.7667 13.85 19.9C14.0833 20.2333 14.1125 20.5833 13.9375 20.95C13.7625 21.3167 13.4667 21.5 13.05 21.5H5.49999ZM7.82499 17C7.64165 17 7.47082 16.9583 7.31249 16.875C7.15415 16.7917 7.03332 16.6667 6.94999 16.5L6.79999 16.225C6.71665 16.075 6.67499 15.9083 6.67499 15.725C6.67499 15.5417 6.71665 15.375 6.79999 15.225L10.8 8.25C10.8833 8.1 11.0042 7.97917 11.1625 7.8875C11.3208 7.79583 11.4917 7.75 11.675 7.75H12.325C12.5083 7.75 12.6792 7.79583 12.8375 7.8875C12.9958 7.97917 13.1167 8.1 13.2 8.25L15.05 11.5C15.1667 11.6833 15.2125 11.8875 15.1875 12.1125C15.1625 12.3375 15.075 12.5333 14.925 12.7C14.6917 12.95 14.4083 13.05 14.075 13C13.7417 12.95 13.4917 12.7833 13.325 12.5L12 10.2L9.24999 15H12.175C12.4917 15 12.7458 15.1167 12.9375 15.35C13.1292 15.5833 13.2 15.8583 13.15 16.175C13.1167 16.4083 13 16.6042 12.8 16.7625C12.6 16.9208 12.3833 17 12.15 17H7.82499ZM18 18H16C15.7167 18 15.4792 17.9042 15.2875 17.7125C15.0958 17.5208 15 17.2833 15 17C15 16.7167 15.0958 16.4792 15.2875 16.2875C15.4792 16.0958 15.7167 16 16 16H18V14C18 13.7167 18.0958 13.4792 18.2875 13.2875C18.4792 13.0958 18.7167 13 19 13C19.2833 13 19.5208 13.0958 19.7125 13.2875C19.9042 13.4792 20 13.7167 20 14V16H22C22.2833 16 22.5208 16.0958 22.7125 16.2875C22.9042 16.4792 23 16.7167 23 17C23 17.2833 22.9042 17.5208 22.7125 17.7125C22.5208 17.9042 22.2833 18 22 18H20V20C20 20.2833 19.9042 20.5208 19.7125 20.7125C19.5208 20.9042 19.2833 21 19 21C18.7167 21 18.4792 20.9042 18.2875 20.7125C18.0958 20.5208 18 20.2833 18 20V18Z" fill="currentColor"/>
</svg>
