<svg width="24" height="24" viewBox="0 0 24 24" fill="none" xmlns="http://www.w3.org/2000/svg">
<path d="M4.45386 3C3.09863 3 2 4.09863 2 5.45387V15.5461C2 16.9014 3.09863 18 4.45386 18H12.4999L12.4999 16H6.92567C6.56165 14.5667 5.43331 13.4384 4 13.0744V7.92567C5.43331 7.56167 6.56164 6.43332 6.92564 5H17.0744C17.4384 6.4333 18.5667 7.56163 20 7.92563V9.5H22V5.45386C22 4.09863 20.9014 3 19.5461 3H4.45386Z" fill="currentColor"/>
<path fill-rule="evenodd" clip-rule="evenodd" d="M18.5258 10.1184C16.926 10.1184 15.629 11.4153 15.629 13.0151V13.6542C14.7796 13.7462 14.1183 14.4657 14.1183 15.3397V19.7574C14.1183 20.6938 14.8774 21.4529 15.8137 21.4529H21.2391C22.1755 21.4529 22.9345 20.6938 22.9345 19.7574V15.3397C22.9345 14.4653 22.2726 13.7455 21.4226 13.6541V13.0151C21.4226 11.4153 20.1256 10.1184 18.5258 10.1184ZM15.8815 15.4081H21.1713V19.6896H15.8815V15.4081ZM19.6593 13.6443V13.0151C19.6593 12.3891 19.1518 11.8816 18.5258 11.8816C17.8998 11.8816 17.3923 12.3891 17.3923 13.0151V13.6443H19.6593Z" fill="currentColor"/>
<path d="M14.5 10.5C14.5 11.8807 13.3807 13 12 13C10.6193 13 9.5 11.8807 9.5 10.5C9.5 9.11929 10.6193 8 12 8C13.3807 8 14.5 9.11929 14.5 10.5Z" fill="#7C7E8C"/>
</svg>
