<svg width="24" height="24" viewBox="0 0 24 24" fill="none" xmlns="http://www.w3.org/2000/svg">
<path d="M23 9.00014C23 10.1501 22.7958 11.246 22.3875 12.2876C21.9792 13.3293 21.425 14.2751 20.725 15.1251C20.525 15.3585 20.275 15.4835 19.975 15.5001C19.675 15.5168 19.4083 15.4085 19.175 15.1751C18.9583 14.9585 18.8583 14.7001 18.875 14.4001C18.8917 14.1001 18.9917 13.8251 19.175 13.5751C19.675 12.9418 20.0625 12.2335 20.3375 11.4501C20.6125 10.6668 20.75 9.85014 20.75 9.00014C20.75 8.15014 20.6125 7.3418 20.3375 6.57514C20.0625 5.80847 19.675 5.10847 19.175 4.47514C18.975 4.22514 18.8708 3.95014 18.8625 3.65014C18.8542 3.35014 18.9583 3.08347 19.175 2.85014C19.3917 2.6168 19.6542 2.5043 19.9625 2.51264C20.2708 2.52097 20.525 2.6418 20.725 2.87514C21.425 3.72514 21.9792 4.67097 22.3875 5.71264C22.7958 6.7543 23 7.85014 23 9.00014ZM18.45 9.00014C18.45 9.53347 18.3667 10.046 18.2 10.5376C18.0333 11.0293 17.8 11.4835 17.5 11.9001C17.3167 12.1501 17.0708 12.2793 16.7625 12.2876C16.4542 12.296 16.1833 12.1835 15.95 11.9501C15.7333 11.7335 15.6208 11.471 15.6125 11.1626C15.6042 10.8543 15.675 10.5585 15.825 10.2751C15.925 10.0918 16.0042 9.8918 16.0625 9.67514C16.1208 9.45847 16.15 9.23347 16.15 9.00014C16.15 8.76681 16.1208 8.5418 16.0625 8.32514C16.0042 8.10847 15.925 7.90014 15.825 7.70014C15.675 7.4168 15.6042 7.12514 15.6125 6.82514C15.6208 6.52514 15.7333 6.2668 15.95 6.05014C16.1833 5.8168 16.4542 5.7043 16.7625 5.71264C17.0708 5.72097 17.3167 5.85014 17.5 6.10014C17.8 6.5168 18.0333 6.97097 18.2 7.46264C18.3667 7.95431 18.45 8.4668 18.45 9.00014ZM9 13.0001C7.9 13.0001 6.95833 12.6085 6.175 11.8251C5.39167 11.0418 5 10.1001 5 9.00014C5 7.90014 5.39167 6.95847 6.175 6.17514C6.95833 5.3918 7.9 5.00014 9 5.00014C10.1 5.00014 11.0417 5.3918 11.825 6.17514C12.6083 6.95847 13 7.90014 13 9.00014C13 10.1001 12.6083 11.0418 11.825 11.8251C11.0417 12.6085 10.1 13.0001 9 13.0001ZM1 19.0001V18.2001C1 17.6501 1.14167 17.1335 1.425 16.6501C1.70833 16.1668 2.1 15.8001 2.6 15.5501C3.45 15.1168 4.40833 14.7501 5.475 14.4501C6.54167 14.1501 7.71667 14.0001 9 14.0001C10.2833 14.0001 11.4583 14.1501 12.525 14.4501C13.5917 14.7501 14.55 15.1168 15.4 15.5501C15.9 15.8001 16.2917 16.1668 16.575 16.6501C16.8583 17.1335 17 17.6501 17 18.2001V19.0001C17 19.5501 16.8042 20.021 16.4125 20.4126C16.0208 20.8043 15.55 21.0001 15 21.0001H3C2.45 21.0001 1.97917 20.8043 1.5875 20.4126C1.19583 20.021 1 19.5501 1 19.0001ZM3 19.0001H15V18.2001C15 18.0168 14.9542 17.8501 14.8625 17.7001C14.7708 17.5501 14.65 17.4335 14.5 17.3501C13.9 17.0501 13.1292 16.7501 12.1875 16.4501C11.2458 16.1501 10.1833 16.0001 9 16.0001C7.81667 16.0001 6.75417 16.1501 5.8125 16.4501C4.87083 16.7501 4.1 17.0501 3.5 17.3501C3.35 17.4335 3.22917 17.5501 3.1375 17.7001C3.04583 17.8501 3 18.0168 3 18.2001V19.0001ZM9 11.0001C9.55 11.0001 10.0208 10.8043 10.4125 10.4126C10.8042 10.021 11 9.55014 11 9.00014C11 8.45014 10.8042 7.97931 10.4125 7.58764C10.0208 7.19597 9.55 7.00014 9 7.00014C8.45 7.00014 7.97917 7.19597 7.5875 7.58764C7.19583 7.97931 7 8.45014 7 9.00014C7 9.55014 7.19583 10.021 7.5875 10.4126C7.97917 10.8043 8.45 11.0001 9 11.0001Z" fill="currentColor"/>
</svg>
