<svg width="24" height="24" viewBox="0 0 24 24" fill="none" xmlns="http://www.w3.org/2000/svg">
<path d="M4 21C3.45 21 2.97917 20.8042 2.5875 20.4125C2.19583 20.0208 2 19.55 2 19V7C2 6.45 2.19583 5.97917 2.5875 5.5875C2.97917 5.19583 3.45 5 4 5H7.15L8.4 3.65C8.58333 3.45 8.80417 3.29167 9.0625 3.175C9.32083 3.05833 9.59167 3 9.875 3H14.125C14.4083 3 14.6792 3.05833 14.9375 3.175C15.1958 3.29167 15.4167 3.45 15.6 3.65L16.85 5H20C20.55 5 21.0208 5.19583 21.4125 5.5875C21.8042 5.97917 22 6.45 22 7V19C22 19.55 21.8042 20.0208 21.4125 20.4125C21.0208 20.8042 20.55 21 20 21H16C15.7167 21 15.4792 20.9042 15.2875 20.7125C15.0958 20.5208 15 20.2833 15 20C15 19.7167 15.0958 19.4792 15.2875 19.2875C15.4792 19.0958 15.7167 19 16 19H20V7H15.95L14.125 5H9.875L8.05 7H4V19H8C8.28333 19 8.52083 19.0958 8.7125 19.2875C8.90417 19.4792 9 19.7167 9 20C9 20.2833 8.90417 20.5208 8.7125 20.7125C8.52083 20.9042 8.28333 21 8 21H4ZM12 14C12.55 14 13.0208 13.8042 13.4125 13.4125C13.8042 13.0208 14 12.55 14 12V8C14 7.45 13.8042 6.97917 13.4125 6.5875C13.0208 6.19583 12.55 6 12 6C11.45 6 10.9792 6.19583 10.5875 6.5875C10.1958 6.97917 10 7.45 10 8V12C10 12.55 10.1958 13.0208 10.5875 13.4125C10.9792 13.8042 11.45 14 12 14ZM12 16C11.0833 16 10.2708 15.725 9.5625 15.175C8.85417 14.625 8.38333 13.925 8.15 13.075C8.06667 12.7917 7.925 12.5417 7.725 12.325C7.525 12.1083 7.28333 12 7 12C6.71667 12 6.48333 12.1167 6.3 12.35C6.11667 12.5833 6.05 12.8417 6.1 13.125C6.33333 14.3583 6.89583 15.4125 7.7875 16.2875C8.67917 17.1625 9.75 17.7 11 17.9V20C11 20.2833 11.0958 20.5208 11.2875 20.7125C11.4792 20.9042 11.7167 21 12 21C12.2833 21 12.5208 20.9042 12.7125 20.7125C12.9042 20.5208 13 20.2833 13 20V17.9C14.25 17.7 15.3208 17.1625 16.2125 16.2875C17.1042 15.4125 17.6667 14.3583 17.9 13.125C17.95 12.8417 17.8833 12.5833 17.7 12.35C17.5167 12.1167 17.2833 12 17 12C16.7167 12 16.475 12.1083 16.275 12.325C16.075 12.5417 15.9333 12.7917 15.85 13.075C15.6167 13.925 15.1458 14.625 14.4375 15.175C13.7292 15.725 12.9167 16 12 16Z" fill="currentColor"/>
</svg>
