<svg width="24" height="24" viewBox="0 0 24 24" fill="none" xmlns="http://www.w3.org/2000/svg">
<path d="M4.00001 20.0001C3.45001 20.0001 2.97918 19.8043 2.58751 19.4126C2.19585 19.0209 2.00001 18.5501 2.00001 18.0001V6.0001C2.00001 5.4501 2.19585 4.97926 2.58751 4.5876C2.97918 4.19593 3.45001 4.0001 4.00001 4.0001L6.00001 6.0001H4.00001V18.0001H15.15L13.15 16.0001H7.00001C6.71668 16.0001 6.47918 15.9043 6.28751 15.7126C6.09585 15.5209 6.00001 15.2834 6.00001 15.0001C6.00001 14.7168 6.09585 14.4793 6.28751 14.2876C6.47918 14.0959 6.71668 14.0001 7.00001 14.0001H11.15L1.35001 4.1501C1.16668 3.96676 1.07085 3.7376 1.06251 3.4626C1.05418 3.1876 1.15001 2.9501 1.35001 2.7501C1.53335 2.56676 1.76668 2.4751 2.05001 2.4751C2.33335 2.4751 2.56668 2.56676 2.75001 2.7501L21.25 21.2501C21.4333 21.4334 21.5292 21.6626 21.5375 21.9376C21.5458 22.2126 21.45 22.4501 21.25 22.6501C21.0667 22.8334 20.8333 22.9251 20.55 22.9251C20.2667 22.9251 20.0333 22.8334 19.85 22.6501L17.15 20.0001H4.00001ZM22 6.0001V16.7501C22 17.0834 21.8958 17.3334 21.6875 17.5001C21.4792 17.6668 21.25 17.7501 21 17.7501C20.7167 17.7501 20.4792 17.6501 20.2875 17.4501C20.0958 17.2501 20 17.0084 20 16.7251V6.0001H9.27501C8.94168 6.0001 8.69168 5.89593 8.52501 5.6876C8.35835 5.47926 8.27501 5.2501 8.27501 5.0001C8.27501 4.71676 8.37085 4.47926 8.56251 4.2876C8.75418 4.09593 8.99168 4.0001 9.27501 4.0001H20C20.55 4.0001 21.0208 4.19593 21.4125 4.5876C21.8042 4.97926 22 5.4501 22 6.0001ZM17 12.0001H15.275C14.9417 12.0001 14.6917 11.8959 14.525 11.6876C14.3583 11.4793 14.275 11.2501 14.275 11.0001C14.275 10.7501 14.3583 10.5209 14.525 10.3126C14.6917 10.1043 14.9417 10.0001 15.275 10.0001H17C17.2833 10.0001 17.5208 10.0959 17.7125 10.2876C17.9042 10.4793 18 10.7168 18 11.0001C18 11.2834 17.9042 11.5209 17.7125 11.7126C17.5208 11.9043 17.2833 12.0001 17 12.0001ZM7.00001 12.0001C6.71668 12.0001 6.47918 11.9043 6.28751 11.7126C6.09585 11.5209 6.00001 11.2834 6.00001 11.0001C6.00001 10.7168 6.09585 10.4793 6.28751 10.2876C6.47918 10.0959 6.71668 10.0001 7.00001 10.0001C7.28335 10.0001 7.52085 10.0959 7.71251 10.2876C7.90418 10.4793 8.00001 10.7168 8.00001 11.0001C8.00001 11.2834 7.90418 11.5209 7.71251 11.7126C7.52085 11.9043 7.28335 12.0001 7.00001 12.0001Z" fill="currentColor"/>
</svg>
