<svg width="24" height="24" viewBox="0 0 24 24" fill="none" xmlns="http://www.w3.org/2000/svg">
<path d="M4.82505 11L8.72505 14.9C8.92505 15.1 9.02088 15.3334 9.01255 15.6C9.00422 15.8667 8.90005 16.1 8.70005 16.3C8.50005 16.4834 8.26672 16.5792 8.00005 16.5875C7.73338 16.5959 7.50005 16.5 7.30005 16.3L2.70005 11.7C2.60005 11.6 2.52922 11.4917 2.48755 11.375C2.44588 11.2584 2.42505 11.1334 2.42505 11C2.42505 10.8667 2.44588 10.7417 2.48755 10.625C2.52922 10.5084 2.60005 10.4 2.70005 10.3L7.30005 5.70005C7.48338 5.51672 7.71255 5.42505 7.98755 5.42505C8.26255 5.42505 8.50005 5.51672 8.70005 5.70005C8.90005 5.90005 9.00005 6.13755 9.00005 6.41255C9.00005 6.68755 8.90005 6.92505 8.70005 7.12505L4.82505 11ZM10.825 12L13.725 14.9C13.925 15.1 14.0209 15.3334 14.0125 15.6C14.0042 15.8667 13.9 16.1 13.7 16.3C13.5 16.4834 13.2667 16.5792 13 16.5875C12.7334 16.5959 12.5 16.5 12.3 16.3L7.70005 11.7C7.60005 11.6 7.52922 11.4917 7.48755 11.375C7.44588 11.2584 7.42505 11.1334 7.42505 11C7.42505 10.8667 7.44588 10.7417 7.48755 10.625C7.52922 10.5084 7.60005 10.4 7.70005 10.3L12.3 5.70005C12.4834 5.51672 12.7125 5.42505 12.9875 5.42505C13.2625 5.42505 13.5 5.51672 13.7 5.70005C13.9 5.90005 14 6.13755 14 6.41255C14 6.68755 13.9 6.92505 13.7 7.12505L10.825 10H17C18.3834 10 19.5625 10.4875 20.5375 11.4625C21.5126 12.4375 22 13.6167 22 15V18C22 18.2834 21.9042 18.5209 21.7125 18.7125C21.5209 18.9042 21.2834 19 21 19C20.7167 19 20.4792 18.9042 20.2875 18.7125C20.0959 18.5209 20 18.2834 20 18V15C20 14.1667 19.7084 13.4584 19.125 12.875C18.5417 12.2917 17.8334 12 17 12H10.825Z" fill="currentColor"/>
</svg>
