<svg width="24" height="24" viewBox="0 0 24 24" fill="none" xmlns="http://www.w3.org/2000/svg">
<g id="mds_ic_positions_outline">
<path id="Union" fill-rule="evenodd" clip-rule="evenodd" d="M8 4C4.13401 4 1 7.13401 1 11V14C1 17.866 4.13401 21 8 21H16C19.866 21 23 17.866 23 14V11C23 7.13401 19.866 4 16 4H8ZM3 11C3 8.23858 5.23858 6 8 6H16C18.7614 6 21 8.23858 21 11V14C21 16.7614 18.7614 19 16 19H8C5.23858 19 3 16.7614 3 14V11Z" fill="currentColor"/>
<g id="Union_2">
<path d="M9.343 16.4625H8.40783C8.30216 16.4625 8.21234 16.4308 8.13837 16.3674C8.07497 16.2935 8.04327 16.2036 8.04327 16.098V13.2925H5.36456C5.25889 13.2925 5.16907 13.2608 5.0951 13.1974C5.0317 13.1234 5 13.0336 5 12.9279V12.072C5 11.9663 5.0317 11.8765 5.0951 11.8025C5.16907 11.7286 5.25889 11.6916 5.36456 11.6916H8.04327V8.91776C8.04327 8.81209 8.07497 8.72227 8.13837 8.64831C8.21234 8.57434 8.30216 8.53735 8.40783 8.53735H9.343C9.44867 8.53735 9.53849 8.57434 9.61246 8.64831C9.68643 8.72227 9.72341 8.81209 9.72341 8.91776V11.6916H12.3863C12.4919 11.6916 12.5818 11.7286 12.6557 11.8025C12.7297 11.8765 12.7667 11.9663 12.7667 12.072V12.9279C12.7667 13.0336 12.7297 13.1234 12.6557 13.1974C12.5818 13.2608 12.4919 13.2925 12.3863 13.2925H9.72341V16.098C9.72341 16.2036 9.68643 16.2935 9.61246 16.3674C9.53849 16.4308 9.44867 16.4625 9.343 16.4625Z" fill="currentColor"/>
<path d="M18.6196 13.34H14.8789C14.7732 13.34 14.6834 13.3083 14.6094 13.2449C14.546 13.1709 14.5143 13.0811 14.5143 12.9755V12.0878C14.5143 11.9822 14.546 11.8923 14.6094 11.8184C14.6834 11.7444 14.7732 11.7074 14.8789 11.7074H18.6196C18.7253 11.7074 18.8151 11.7444 18.889 11.8184C18.963 11.8923 19 11.9822 19 12.0878V12.9755C19 13.0811 18.963 13.1709 18.889 13.2449C18.8151 13.3083 18.7253 13.34 18.6196 13.34Z" fill="currentColor"/>
</g>
</g>
</svg>
