<svg width="24" height="24" viewBox="0 0 24 24" fill="none" xmlns="http://www.w3.org/2000/svg">
<g id="mds_ic_list_alt_filled">
<path id="vector" fill-rule="evenodd" clip-rule="evenodd" d="M3.5875 20.4125C3.97917 20.8042 4.45 21 5 21H19C19.55 21 20.0208 20.8042 20.4125 20.4125C20.8042 20.0208 21 19.55 21 19V5C21 4.45 20.8042 3.97917 20.4125 3.5875C20.0208 3.19583 19.55 3 19 3H5C4.45 3 3.97917 3.19583 3.5875 3.5875C3.19583 3.97917 3 4.45 3 5V19C3 19.55 3.19583 20.0208 3.5875 20.4125ZM8.38375 8.38375C8.17292 8.59458 7.91167 8.7 7.6 8.7C7.28833 8.7 7.02708 8.59458 6.81625 8.38375C6.60542 8.17292 6.5 7.91167 6.5 7.6C6.5 7.28833 6.60542 7.02708 6.81625 6.81625C7.02708 6.60542 7.28833 6.5 7.6 6.5C7.91167 6.5 8.17292 6.60542 8.38375 6.81625C8.59458 7.02708 8.7 7.28833 8.7 7.6C8.7 7.91167 8.59458 8.17292 8.38375 8.38375ZM7.6 13.1C7.91167 13.1 8.17292 12.9946 8.38375 12.7838C8.59458 12.5729 8.7 12.3117 8.7 12C8.7 11.6883 8.59458 11.4271 8.38375 11.2163C8.17292 11.0054 7.91167 10.9 7.6 10.9C7.28833 10.9 7.02708 11.0054 6.81625 11.2163C6.60542 11.4271 6.5 11.6883 6.5 12C6.5 12.3117 6.60542 12.5729 6.81625 12.7838C7.02708 12.9946 7.28833 13.1 7.6 13.1ZM7.6 17.5C7.91167 17.5 8.17292 17.3946 8.38375 17.1838C8.59458 16.9729 8.7 16.7117 8.7 16.4C8.7 16.0883 8.59458 15.8271 8.38375 15.6163C8.17292 15.4054 7.91167 15.3 7.6 15.3C7.28833 15.3 7.02708 15.4054 6.81625 15.6163C6.60542 15.8271 6.5 16.0883 6.5 16.4C6.5 16.7117 6.60542 16.9729 6.81625 17.1838C7.02708 17.3946 7.28833 17.5 7.6 17.5ZM12 17.5H16.4C16.7117 17.5 16.9729 17.3946 17.1838 17.1838C17.3946 16.9729 17.5 16.7117 17.5 16.4C17.5 16.0883 17.3946 15.8271 17.1838 15.6163C16.9729 15.4054 16.7117 15.3 16.4 15.3H12C11.6883 15.3 11.4271 15.4054 11.2163 15.6163C11.0054 15.8271 10.9 16.0883 10.9 16.4C10.9 16.7117 11.0054 16.9729 11.2163 17.1838C11.4271 17.3946 11.6883 17.5 12 17.5ZM16.4 13.1H12C11.6883 13.1 11.4271 12.9946 11.2163 12.7838C11.0054 12.5729 10.9 12.3117 10.9 12C10.9 11.6883 11.0054 11.4271 11.2163 11.2163C11.4271 11.0054 11.6883 10.9 12 10.9H16.4C16.7117 10.9 16.9729 11.0054 17.1838 11.2163C17.3946 11.4271 17.5 11.6883 17.5 12C17.5 12.3117 17.3946 12.5729 17.1838 12.7838C16.9729 12.9946 16.7117 13.1 16.4 13.1ZM12 8.7H16.4C16.7117 8.7 16.9729 8.59458 17.1838 8.38375C17.3946 8.17292 17.5 7.91167 17.5 7.6C17.5 7.28833 17.3946 7.02708 17.1838 6.81625C16.9729 6.60542 16.7117 6.5 16.4 6.5H12C11.6883 6.5 11.4271 6.60542 11.2163 6.81625C11.0054 7.02708 10.9 7.28833 10.9 7.6C10.9 7.91167 11.0054 8.17292 11.2163 8.38375C11.4271 8.59458 11.6883 8.7 12 8.7Z" fill="currentColor"/>
</g>
</svg>
