<svg width="24" height="24" viewBox="0 0 24 24" fill="none" xmlns="http://www.w3.org/2000/svg">
<path d="M18 16C16.9 16 15.9583 15.6083 15.175 14.825C14.3917 14.0417 14 13.1 14 12C14 10.9 14.3917 9.95833 15.175 9.175C15.9583 8.39167 16.9 8 18 8C19.1 8 20.0417 8.39167 20.825 9.175C21.6083 9.95833 22 10.9 22 12C22 13.1 21.6083 14.0417 20.825 14.825C20.0417 15.6083 19.1 16 18 16ZM18 14.5C18.2 14.5 18.3958 14.475 18.5875 14.425C18.7792 14.375 18.9667 14.3 19.15 14.2L15.8 10.85C15.7 11.0333 15.625 11.2208 15.575 11.4125C15.525 11.6042 15.5 11.8 15.5 12C15.5 12.7 15.7417 13.2917 16.225 13.775C16.7083 14.2583 17.3 14.5 18 14.5ZM20.2 13.15C20.3 12.9667 20.375 12.7792 20.425 12.5875C20.475 12.3958 20.5 12.2 20.5 12C20.5 11.3 20.2583 10.7083 19.775 10.225C19.2917 9.74167 18.7 9.5 18 9.5C17.8 9.5 17.6042 9.525 17.4125 9.575C17.2208 9.625 17.0333 9.7 16.85 9.8L20.2 13.15ZM7 23C6.45 23 5.97917 22.8042 5.5875 22.4125C5.19583 22.0208 5 21.55 5 21V3C5 2.45 5.19583 1.97917 5.5875 1.5875C5.97917 1.19583 6.45 1 7 1H17C17.55 1 18.0208 1.19583 18.4125 1.5875C18.8042 1.97917 19 2.45 19 3V6C19 6.28333 18.9042 6.52083 18.7125 6.7125C18.5208 6.90417 18.2833 7 18 7C17.7167 7 17.4792 6.90417 17.2875 6.7125C17.0958 6.52083 17 6.28333 17 6H7V18H17C17 17.7167 17.0958 17.4792 17.2875 17.2875C17.4792 17.0958 17.7167 17 18 17C18.2833 17 18.5208 17.0958 18.7125 17.2875C18.9042 17.4792 19 17.7167 19 18V21C19 21.55 18.8042 22.0208 18.4125 22.4125C18.0208 22.8042 17.55 23 17 23H7ZM7 20V21H17V20H7ZM7 4H17V3H7V4Z" fill="currentColor"/>
</svg>
