<svg width="24" height="24" viewBox="0 0 24 24" fill="none" xmlns="http://www.w3.org/2000/svg">
<path d="M12 22C10.9833 22 9.94167 21.8167 8.875 21.45C7.80833 21.0833 6.84167 20.5833 5.975 19.95C5.10833 19.3167 4.39583 18.575 3.8375 17.725C3.27917 16.875 3 15.9667 3 15V13C3 12.8 3.09167 12.65 3.275 12.55C3.45833 12.45 3.63333 12.4667 3.8 12.6L6.075 14.3C6.30833 14.4833 6.4375 14.7292 6.4625 15.0375C6.4875 15.3458 6.39167 15.6083 6.175 15.825L5.45 16.55C5.93333 17.4 6.7 18.1333 7.75 18.75C8.8 19.3667 9.88333 19.7583 11 19.925V11H9C8.71667 11 8.47917 10.9042 8.2875 10.7125C8.09583 10.5208 8 10.2833 8 10C8 9.71667 8.09583 9.47917 8.2875 9.2875C8.47917 9.09583 8.71667 9 9 9H11V7.825C10.4167 7.60833 9.9375 7.24583 9.5625 6.7375C9.1875 6.22917 9 5.65 9 5C9 4.16667 9.29167 3.45833 9.875 2.875C10.4583 2.29167 11.1667 2 12 2C12.8333 2 13.5417 2.29167 14.125 2.875C14.7083 3.45833 15 4.16667 15 5C15 5.65 14.8125 6.22917 14.4375 6.7375C14.0625 7.24583 13.5833 7.60833 13 7.825V9H15C15.2833 9 15.5208 9.09583 15.7125 9.2875C15.9042 9.47917 16 9.71667 16 10C16 10.2833 15.9042 10.5208 15.7125 10.7125C15.5208 10.9042 15.2833 11 15 11H13V19.925C14.1167 19.7583 15.2 19.3667 16.25 18.75C17.3 18.1333 18.0667 17.4 18.55 16.55L17.825 15.825C17.6083 15.6083 17.5125 15.3458 17.5375 15.0375C17.5625 14.7292 17.6917 14.4833 17.925 14.3L20.2 12.6C20.3667 12.4667 20.5417 12.45 20.725 12.55C20.9083 12.65 21 12.8 21 13V15C21 15.9667 20.7208 16.875 20.1625 17.725C19.6042 18.575 18.8917 19.3167 18.025 19.95C17.1583 20.5833 16.1917 21.0833 15.125 21.45C14.0583 21.8167 13.0167 22 12 22ZM12 6C12.2833 6 12.5208 5.90417 12.7125 5.7125C12.9042 5.52083 13 5.28333 13 5C13 4.71667 12.9042 4.47917 12.7125 4.2875C12.5208 4.09583 12.2833 4 12 4C11.7167 4 11.4792 4.09583 11.2875 4.2875C11.0958 4.47917 11 4.71667 11 5C11 5.28333 11.0958 5.52083 11.2875 5.7125C11.4792 5.90417 11.7167 6 12 6Z" fill="currentColor"/>
</svg>
