<svg width="24" height="24" viewBox="0 0 24 24" fill="none" xmlns="http://www.w3.org/2000/svg">
<path d="M4.975 15C4.69167 15 4.45833 14.9042 4.275 14.7125C4.09167 14.5208 4 14.2833 4 14C4 13.7167 4.09583 13.4792 4.2875 13.2875C4.47917 13.0958 4.71667 13 5 13H19.025C19.3083 13 19.5417 13.0958 19.725 13.2875C19.9083 13.4792 20 13.7167 20 14C20 14.2833 19.9042 14.5208 19.7125 14.7125C19.5208 14.9042 19.2833 15 19 15H4.975ZM4.975 19C4.69167 19 4.45833 18.9042 4.275 18.7125C4.09167 18.5208 4 18.2833 4 18C4 17.7167 4.09583 17.4792 4.2875 17.2875C4.47917 17.0958 4.71667 17 5 17H19.025C19.3083 17 19.5417 17.0958 19.725 17.2875C19.9083 17.4792 20 17.7167 20 18C20 18.2833 19.9042 18.5208 19.7125 18.7125C19.5208 18.9042 19.2833 19 19 19H4.975ZM4.975 11C4.69167 11 4.45833 10.9042 4.275 10.7125C4.09167 10.5208 4 10.2833 4 10C4 9.71667 4.09583 9.47917 4.2875 9.2875C4.47917 9.09583 4.71667 9 5 9H19.025C19.3083 9 19.5417 9.09583 19.725 9.2875C19.9083 9.47917 20 9.71667 20 10C20 10.2833 19.9042 10.5208 19.7125 10.7125C19.5208 10.9042 19.2833 11 19 11H4.975ZM4.975 7C4.69167 7 4.45833 6.90417 4.275 6.7125C4.09167 6.52083 4 6.28333 4 6C4 5.71667 4.09583 5.47917 4.2875 5.2875C4.47917 5.09583 4.71667 5 5 5H19.025C19.3083 5 19.5417 5.09583 19.725 5.2875C19.9083 5.47917 20 5.71667 20 6C20 6.28333 19.9042 6.52083 19.7125 6.7125C19.5208 6.90417 19.2833 7 19 7H4.975Z" fill="currentColor"/>
</svg>
