<svg width="24" height="24" viewBox="0 0 24 24" fill="none" xmlns="http://www.w3.org/2000/svg">
<path d="M17.7 21.5C17.5 21.4166 17.3125 21.3291 17.1375 21.2375C16.9625 21.1458 16.7833 21.0333 16.6 20.9L15.875 21.125C15.6583 21.1916 15.4458 21.1833 15.2375 21.1C15.0292 21.0166 14.8667 20.8833 14.75 20.7L14.55 20.35C14.4333 20.15 14.3917 19.9333 14.425 19.7C14.4583 19.4666 14.5667 19.275 14.75 19.125L15.3 18.65C15.2667 18.45 15.25 18.2333 15.25 18C15.25 17.7666 15.2667 17.55 15.3 17.35L14.75 16.875C14.5667 16.725 14.4583 16.5375 14.425 16.3125C14.3917 16.0875 14.4333 15.875 14.55 15.675L14.775 15.3C14.8917 15.1166 15.05 14.9833 15.25 14.9C15.45 14.8166 15.6583 14.8083 15.875 14.875L16.6 15.1C16.7833 14.9666 16.9625 14.8541 17.1375 14.7625C17.3125 14.6708 17.5 14.5833 17.7 14.5L17.85 13.775C17.9 13.5416 18.0125 13.3541 18.1875 13.2125C18.3625 13.0708 18.5667 13 18.8 13H19.2C19.4333 13 19.6375 13.075 19.8125 13.225C19.9875 13.375 20.1 13.5666 20.15 13.8L20.3 14.5C20.5 14.5833 20.6875 14.6708 20.8625 14.7625C21.0375 14.8541 21.2167 14.9666 21.4 15.1L22.125 14.875C22.3417 14.8083 22.5542 14.8166 22.7625 14.9C22.9708 14.9833 23.1333 15.1166 23.25 15.3L23.45 15.65C23.5667 15.85 23.6083 16.0666 23.575 16.3C23.5417 16.5333 23.4333 16.725 23.25 16.875L22.7 17.35C22.7333 17.55 22.75 17.7666 22.75 18C22.75 18.2333 22.7333 18.45 22.7 18.65L23.25 19.125C23.4333 19.275 23.5417 19.4625 23.575 19.6875C23.6083 19.9125 23.5667 20.125 23.45 20.325L23.225 20.7C23.1083 20.8833 22.95 21.0166 22.75 21.1C22.55 21.1833 22.3417 21.1916 22.125 21.125L21.4 20.9C21.2167 21.0333 21.0375 21.1458 20.8625 21.2375C20.6875 21.3291 20.5 21.4166 20.3 21.5L20.15 22.225C20.1 22.4583 19.9875 22.6458 19.8125 22.7875C19.6375 22.9291 19.4333 23 19.2 23H18.8C18.5667 23 18.3625 22.925 18.1875 22.775C18.0125 22.625 17.9 22.4333 17.85 22.2L17.7 21.5ZM19 20C19.55 20 20.0208 19.8041 20.4125 19.4125C20.8042 19.0208 21 18.55 21 18C21 17.45 20.8042 16.9791 20.4125 16.5875C20.0208 16.1958 19.55 16 19 16C18.45 16 17.9792 16.1958 17.5875 16.5875C17.1958 16.9791 17 17.45 17 18C17 18.55 17.1958 19.0208 17.5875 19.4125C17.9792 19.8041 18.45 20 19 20ZM4.42501 22C3.97501 22 3.66251 21.7958 3.48751 21.3875C3.31251 20.9791 3.38334 20.6166 3.70001 20.3L20.3 3.69998C20.6167 3.38331 20.9792 3.31248 21.3875 3.48748C21.7958 3.66248 22 3.97498 22 4.42498V10.025C22 10.3083 21.9042 10.5416 21.7125 10.725C21.5208 10.9083 21.2833 11 21 11C20.7167 11 20.4792 10.9083 20.2875 10.725C20.0958 10.5416 20 10.3083 20 10.025V6.82498L6.82501 20H11.525C11.8083 20 12.0417 20.0958 12.225 20.2875C12.4083 20.4791 12.5 20.7166 12.5 21C12.5 21.2833 12.4083 21.5208 12.225 21.7125C12.0417 21.9041 11.8083 22 11.525 22H4.42501Z" fill="currentColor"/>
</svg>
