<svg width="24" height="24" viewBox="0 0 24 24" fill="none" xmlns="http://www.w3.org/2000/svg">
<path d="M9.11827 7.51557L9.14 7.51666C9.37438 7.52656 9.49206 7.54042 9.64665 7.90773C9.70424 8.04547 9.78676 8.24422 9.87535 8.4576C10.0828 8.95717 10.3246 9.53971 10.3637 9.62152C10.4206 9.73835 10.4774 9.89676 10.3976 10.0502C10.3275 10.1988 10.2652 10.2698 10.1607 10.3892L10.1393 10.4136C10.0901 10.4699 10.0419 10.5207 9.99388 10.5713C9.92713 10.6417 9.86071 10.7117 9.79226 10.7957L9.78637 10.8026C9.71429 10.8867 9.63819 10.9754 9.63845 11.0952C9.63853 11.1291 9.64469 11.1654 9.65874 11.2047C9.66822 11.2313 9.68129 11.2592 9.69851 11.2888C9.83415 11.5165 10.3029 12.2759 10.993 12.8857C11.8113 13.6089 12.4873 13.8799 12.7921 14.0021L12.82 14.0133L12.864 14.0312C12.9448 14.0645 13.032 14.0804 13.1164 14.0768C13.2333 14.0719 13.3449 14.0294 13.4265 13.9431C13.5809 13.7779 13.7666 13.5187 13.9591 13.2499L14.0499 13.1234C14.2094 12.8996 14.4109 12.8719 14.6223 12.9511C14.8378 13.0253 15.9777 13.5847 16.2121 13.7006C16.2605 13.7247 16.3055 13.7462 16.347 13.766C16.5062 13.8421 16.6128 13.8931 16.6579 13.9708C16.7137 14.0689 16.7138 14.5292 16.5213 15.0698C16.3288 15.6094 15.5648 16.0569 14.9555 16.1876C14.5816 16.2666 14.1052 16.3313 12.689 15.7998C12.5386 15.7434 12.3776 15.6802 12.205 15.6096L12.2016 15.6083L12.1609 15.5916L12.1476 15.5861C11.2724 15.2237 10.5139 14.6664 9.90131 14.1031C9.00074 13.275 8.41549 12.4336 8.23808 12.1786L8.222 12.1555L8.21281 12.1423C8.20194 12.1268 8.19384 12.1154 8.18855 12.1085L8.17795 12.0942C8.14725 12.0526 8.08816 11.9726 8.01397 11.8619C7.73464 11.4452 7.24108 10.5935 7.24108 9.71954C7.24108 8.61557 7.78964 8.06175 8.03589 7.81314L8.0569 7.79189C8.24939 7.59685 8.56754 7.50775 8.87272 7.50775C8.96257 7.50775 9.04418 7.51185 9.11827 7.51557Z" fill="currentColor"/>
<path fill-rule="evenodd" clip-rule="evenodd" d="M2 11.8056C2 6.39592 6.42761 2 11.8747 2H11.8787C17.3259 2 21.7534 6.39707 21.7534 11.8056C21.7534 17.2141 17.3259 21.6112 11.8787 21.6112C10.2104 21.6112 8.63754 21.2003 7.2558 20.4703L3.32242 21.7186C2.53756 21.9676 1.80264 21.2189 2.06626 20.4388L3.32627 16.7102C2.48216 15.2662 2 13.5882 2 11.8056ZM11.8747 4.0101C7.54367 4.0101 4.02304 7.5073 4.02304 11.8056C4.02304 13.5107 4.57652 15.0908 5.51777 16.374C5.54186 16.4069 5.54843 16.4494 5.53539 16.488L4.62007 19.1966L7.45162 18.298C7.48752 18.2867 7.52664 18.2921 7.55811 18.3127C8.79988 19.1294 10.2811 19.601 11.8787 19.601C16.2097 19.601 19.7304 16.1029 19.7304 11.8056C19.7304 7.50828 16.2097 4.0101 11.8787 4.0101H11.8747Z" fill="currentColor"/>
</svg>
