<svg width="24" height="24" viewBox="0 0 24 24" fill="none" xmlns="http://www.w3.org/2000/svg">
<g clip-path="url(#clip0_5709_542)">
<path d="M12 20.75C10.1333 20.75 8.4526 20.2177 6.95781 19.1531C5.46302 18.0885 4.40208 16.6958 3.775 14.975C3.70208 14.7563 3.72396 14.5521 3.84062 14.3625C3.95729 14.1729 4.13229 14.0417 4.36563 13.9688C4.59896 13.8958 4.82135 13.9214 5.03281 14.0453C5.24427 14.1693 5.39375 14.3406 5.48125 14.5594C6.00625 15.8865 6.85938 16.9583 8.04063 17.775C9.22187 18.5917 10.5417 19 12 19C13.2542 19 14.4208 18.6901 15.5 18.0703C16.5792 17.4505 17.425 16.5938 18.0375 15.5H16.375C16.1271 15.5 15.9193 15.4161 15.7516 15.2484C15.5839 15.0807 15.5 14.8729 15.5 14.625C15.5 14.3771 15.5839 14.1693 15.7516 14.0016C15.9193 13.8339 16.1271 13.75 16.375 13.75H19.875C20.1229 13.75 20.3307 13.8339 20.4984 14.0016C20.6661 14.1693 20.75 14.3771 20.75 14.625V18.125C20.75 18.3729 20.6661 18.5807 20.4984 18.7484C20.3307 18.9161 20.1229 19 19.875 19C19.6271 19 19.4193 18.9161 19.2516 18.7484C19.0839 18.5807 19 18.3729 19 18.125V17.25C18.1687 18.3583 17.1406 19.2188 15.9156 19.8313C14.6906 20.4438 13.3854 20.75 12 20.75ZM12 5C10.7458 5 9.57917 5.3099 8.5 5.92969C7.42083 6.54948 6.575 7.40625 5.9625 8.5H7.625C7.87292 8.5 8.08073 8.58385 8.24844 8.75156C8.41615 8.91927 8.5 9.12708 8.5 9.375C8.5 9.62292 8.41615 9.83073 8.24844 9.99844C8.08073 10.1661 7.87292 10.25 7.625 10.25H4.125C3.87708 10.25 3.66927 10.1661 3.50156 9.99844C3.33385 9.83073 3.25 9.62292 3.25 9.375V5.875C3.25 5.62708 3.33385 5.41927 3.50156 5.25156C3.66927 5.08385 3.87708 5 4.125 5C4.37292 5 4.58073 5.08385 4.74844 5.25156C4.91615 5.41927 5 5.62708 5 5.875V6.75C5.83125 5.64167 6.85938 4.78125 8.08437 4.16875C9.30938 3.55625 10.6146 3.25 12 3.25C13.8667 3.25 15.5474 3.78229 17.0422 4.84688C18.537 5.91146 19.5979 7.30417 20.225 9.025C20.2979 9.24375 20.276 9.44792 20.1594 9.6375C20.0427 9.82708 19.8677 9.95833 19.6344 10.0312C19.401 10.1042 19.1786 10.0786 18.9672 9.95469C18.7557 9.83073 18.6063 9.65938 18.5188 9.44063C17.9938 8.11354 17.1406 7.04167 15.9594 6.225C14.7781 5.40833 13.4583 5 12 5ZM12 14.625C11.2708 14.625 10.651 14.3698 10.1406 13.8594C9.63021 13.349 9.375 12.7292 9.375 12C9.375 11.2708 9.63021 10.651 10.1406 10.1406C10.651 9.63021 11.2708 9.375 12 9.375C12.7292 9.375 13.349 9.63021 13.8594 10.1406C14.3698 10.651 14.625 11.2708 14.625 12C14.625 12.7292 14.3698 13.349 13.8594 13.8594C13.349 14.3698 12.7292 14.625 12 14.625Z" fill="#44475B"/>
</g>
<defs>
<clipPath id="clip0_5709_542">
<rect width="24" height="24" fill="white"/>
</clipPath>
</defs>
</svg>
