<svg width="24" height="24" viewBox="0 0 24 24" fill="none" xmlns="http://www.w3.org/2000/svg">
<path d="M13.1284 2.84629C13.1284 2.51296 13.2534 2.24629 13.5034 2.04629C13.7534 1.84629 14.0368 1.77962 14.3534 1.84629C16.2701 2.27962 17.9076 3.18379 19.2659 4.55879C20.6243 5.93379 21.5034 7.57962 21.9034 9.49629C21.9701 9.77962 21.9076 10.0338 21.7159 10.2588C21.5243 10.4838 21.2618 10.5963 20.9284 10.5963H15.1534C15.0868 10.5963 15.0284 10.5796 14.9784 10.5463C14.9284 10.513 14.8868 10.463 14.8534 10.3963C14.7034 10.0463 14.4951 9.73379 14.2284 9.45879C13.9618 9.18379 13.6618 8.97129 13.3284 8.82129C13.2618 8.78796 13.2118 8.75046 13.1784 8.70879C13.1451 8.66712 13.1284 8.61296 13.1284 8.54629V2.84629ZM9.82842 21.3213C7.59509 20.8046 5.75342 19.6463 4.30342 17.8463C2.85342 16.0463 2.12842 13.963 2.12842 11.5963C2.12842 9.22962 2.85342 7.15046 4.30342 5.35879C5.75342 3.56712 7.59509 2.40462 9.82842 1.87129C10.1618 1.78796 10.4618 1.85879 10.7284 2.08379C10.9951 2.30879 11.1284 2.59629 11.1284 2.94629V8.59629C11.1284 8.61296 11.0784 8.67962 10.9784 8.79629C10.4118 9.02962 9.96175 9.40046 9.62842 9.90879C9.29508 10.4171 9.12842 10.9796 9.12842 11.5963C9.12842 12.213 9.29508 12.7671 9.62842 13.2588C9.96175 13.7505 10.4118 14.113 10.9784 14.3463C11.0118 14.363 11.0618 14.4296 11.1284 14.5463V20.2463C11.1284 20.5963 10.9951 20.8838 10.7284 21.1088C10.4618 21.3338 10.1618 21.4046 9.82842 21.3213ZM14.2284 21.3713C13.9451 21.438 13.6909 21.3755 13.4659 21.1838C13.2409 20.9921 13.1284 20.7463 13.1284 20.4463V14.6213C13.1284 14.5546 13.1451 14.4963 13.1784 14.4463C13.2118 14.3963 13.2618 14.3546 13.3284 14.3213C13.6618 14.1713 13.9618 13.963 14.2284 13.6963C14.4951 13.4296 14.7034 13.1296 14.8534 12.7963C14.8701 12.763 14.9618 12.6963 15.1284 12.5963H20.9284C21.2284 12.5963 21.4784 12.7213 21.6784 12.9713C21.8784 13.2213 21.9451 13.5046 21.8784 13.8213C21.4618 15.738 20.5618 17.3755 19.1784 18.7338C17.7951 20.0921 16.1451 20.9713 14.2284 21.3713Z" fill="currentColor"/>
</svg>
