<svg width="24" height="24" viewBox="0 0 24 24" fill="none" xmlns="http://www.w3.org/2000/svg">
<g clip-path="url(#clip0_5709_540)">
<path fill-rule="evenodd" clip-rule="evenodd" d="M4.11829 20.1218C4.46374 20.4673 4.87903 20.64 5.36414 20.64H10.6563C10.9062 20.64 11.1157 20.5555 11.2847 20.3864C11.4538 20.2174 11.5383 20.0079 11.5383 19.758C11.5383 19.5081 11.4538 19.2986 11.2847 19.1296C11.1157 18.9605 10.9062 18.876 10.6563 18.876H5.36414V10.056H17.7124V10.938C17.7124 11.1879 17.797 11.3974 17.966 11.5664C18.1351 11.7355 18.3446 11.82 18.5945 11.82C18.8444 11.82 19.0539 11.7355 19.2229 11.5664C19.392 11.3974 19.4765 11.1879 19.4765 10.938V6.528C19.4765 6.0429 19.3038 5.62762 18.9583 5.28218C18.6128 4.93673 18.1976 4.764 17.7124 4.764H16.8304V3.882C16.8304 3.6321 16.7459 3.42262 16.5768 3.25357C16.4078 3.08452 16.1983 3 15.9484 3C15.6985 3 15.489 3.08452 15.32 3.25357C15.1509 3.42262 15.0664 3.6321 15.0664 3.882V4.764H8.01021V3.882C8.01021 3.6321 7.92568 3.42262 7.75662 3.25357C7.58757 3.08452 7.37809 3 7.12818 3C6.87828 3 6.6688 3.08452 6.49974 3.25357C6.33069 3.42262 6.24616 3.6321 6.24616 3.882V4.764H5.36414C4.87903 4.764 4.46374 4.93673 4.11829 5.28218C3.77283 5.62762 3.6001 6.0429 3.6001 6.528V18.876C3.6001 19.3611 3.77283 19.7764 4.11829 20.1218ZM17.7124 8.292H5.36414V6.528H17.7124V8.292Z" fill="#44475B"/>
<path d="M18.5648 17.752H12.983C12.7626 17.752 12.5778 17.6774 12.4287 17.5283C12.2796 17.3792 12.2051 17.1945 12.2051 16.974C12.2051 16.7536 12.2796 16.5689 12.4287 16.4198C12.5778 16.2707 12.7626 16.1961 12.983 16.1961H18.5648L17.1061 14.7181C16.9635 14.5754 16.8889 14.3972 16.8825 14.1832C16.876 13.9693 16.9505 13.7846 17.1061 13.629C17.2487 13.4863 17.4303 13.415 17.6507 13.415C17.8711 13.415 18.0526 13.4863 18.1952 13.629L20.9958 16.4295C21.1514 16.5851 21.2292 16.7666 21.2292 16.974C21.2292 17.1815 21.1514 17.363 20.9958 17.5186L18.1952 20.3191C18.0526 20.4617 17.8743 20.5363 17.6604 20.5428C17.4465 20.5492 17.2617 20.4747 17.1061 20.3191C16.9635 20.1765 16.8922 19.995 16.8922 19.7746C16.8922 19.5542 16.9635 19.3726 17.1061 19.23L18.5648 17.752Z" fill="#44475B"/>
</g>
<defs>
<clipPath id="clip0_5709_540">
<rect width="24" height="24" fill="white"/>
</clipPath>
</defs>
</svg>
