<svg width="24" height="24" viewBox="0 0 24 24" fill="none" xmlns="http://www.w3.org/2000/svg">
<path d="M19.025 12.3998L10.425 20.9998C10.2417 21.1832 10.0083 21.2748 9.72499 21.2748C9.44165 21.2748 9.20832 21.1832 9.02499 20.9998C8.84165 20.8165 8.74999 20.5832 8.74999 20.2998C8.74999 20.0165 8.84165 19.7832 9.02499 19.5998L17.625 10.9998H17.025C16.7417 10.9998 16.5042 10.904 16.3125 10.7123C16.1208 10.5207 16.025 10.2832 16.025 9.99983C16.025 9.7165 16.1208 9.479 16.3125 9.28733C16.5042 9.09567 16.7417 8.99983 17.025 8.99983H20.025C20.3083 8.99983 20.5458 9.09567 20.7375 9.28733C20.9292 9.479 21.025 9.7165 21.025 9.99983V12.9998C21.025 13.2832 20.9292 13.5207 20.7375 13.7123C20.5458 13.904 20.3083 13.9998 20.025 13.9998C19.7417 13.9998 19.5042 13.904 19.3125 13.7123C19.1208 13.5207 19.025 13.2832 19.025 12.9998V12.3998ZM8.32499 12.0998L9.29999 14.1998C9.38332 14.3665 9.41249 14.5373 9.38749 14.7123C9.36248 14.8873 9.28332 15.0415 9.14999 15.1748C8.91665 15.4082 8.64999 15.4957 8.34999 15.4373C8.04998 15.379 7.83332 15.2082 7.69999 14.9248L3.64999 5.97483C3.56665 5.7915 3.54165 5.60817 3.57499 5.42483C3.60832 5.2415 3.69165 5.08317 3.82499 4.94983L4.32499 4.44983C4.45832 4.3165 4.61665 4.23317 4.79999 4.19983C4.98332 4.1665 5.16665 4.1915 5.34999 4.27483L14.325 8.37483C14.6083 8.50817 14.775 8.72483 14.825 9.02483C14.875 9.32483 14.7917 9.58317 14.575 9.79983C14.4417 9.93317 14.2833 10.0165 14.1 10.0498C13.9167 10.0832 13.7333 10.0582 13.55 9.97483L11.475 8.94983L8.32499 12.0998ZM7.57499 10.5498L9.92499 8.24983L5.57499 6.14983L5.52499 6.19983L7.57499 10.5498Z" fill="currentColor"/>
</svg>
