<svg width="24" height="24" viewBox="0 0 24 24" fill="none" xmlns="http://www.w3.org/2000/svg">
<path d="M5 22C4.71667 22 4.47917 21.9042 4.2875 21.7125C4.09583 21.5208 4 21.2833 4 21C4 20.7167 4.09583 20.4792 4.2875 20.2875C4.47917 20.0958 4.71667 20 5 20H19C19.2833 20 19.5208 20.0958 19.7125 20.2875C19.9042 20.4792 20 20.7167 20 21C20 21.2833 19.9042 21.5208 19.7125 21.7125C19.5208 21.9042 19.2833 22 19 22H5ZM12 18.575C11.8667 18.575 11.7417 18.5542 11.625 18.5125C11.5083 18.4708 11.4 18.4 11.3 18.3L8.7 15.7C8.51667 15.5167 8.42083 15.2875 8.4125 15.0125C8.40417 14.7375 8.5 14.5 8.7 14.3C8.88333 14.1167 9.1125 14.0208 9.3875 14.0125C9.6625 14.0042 9.9 14.0917 10.1 14.275L11 15.15V8.85L10.1 9.725C9.91667 9.90833 9.6875 10 9.4125 10C9.1375 10 8.9 9.9 8.7 9.7C8.51667 9.51667 8.425 9.28333 8.425 9C8.425 8.71667 8.51667 8.48333 8.7 8.3L11.3 5.7C11.4 5.6 11.5083 5.52917 11.625 5.4875C11.7417 5.44583 11.8667 5.425 12 5.425C12.1333 5.425 12.2583 5.44583 12.375 5.4875C12.4917 5.52917 12.6 5.6 12.7 5.7L15.3 8.3C15.4833 8.48333 15.5792 8.7125 15.5875 8.9875C15.5958 9.2625 15.5 9.5 15.3 9.7C15.1167 9.88333 14.8875 9.97917 14.6125 9.9875C14.3375 9.99583 14.1 9.90833 13.9 9.725L13 8.85V15.15L13.9 14.275C14.0833 14.0917 14.3125 14 14.5875 14C14.8625 14 15.1 14.1 15.3 14.3C15.4833 14.4833 15.575 14.7167 15.575 15C15.575 15.2833 15.4833 15.5167 15.3 15.7L12.7 18.3C12.6 18.4 12.4917 18.4708 12.375 18.5125C12.2583 18.5542 12.1333 18.575 12 18.575ZM5 4C4.71667 4 4.47917 3.90417 4.2875 3.7125C4.09583 3.52083 4 3.28333 4 3C4 2.71667 4.09583 2.47917 4.2875 2.2875C4.47917 2.09583 4.71667 2 5 2H19C19.2833 2 19.5208 2.09583 19.7125 2.2875C19.9042 2.47917 20 2.71667 20 3C20 3.28333 19.9042 3.52083 19.7125 3.7125C19.5208 3.90417 19.2833 4 19 4H5Z" fill="currentColor"/>
</svg>
