<svg width="24" height="24" viewBox="0 0 24 24" fill="none" xmlns="http://www.w3.org/2000/svg">
    <path d="M5.163 14.6761C5.163 14.5193 5.28618 14.3961 5.44296 14.3961H6.19324C6.35002 14.3961 6.42841 14.5305 6.462 14.6425C6.5068 14.8217 6.58518 15.4936 7.57064 15.4936C8.28733 15.4936 8.57848 15.292 8.57848 14.7433C8.57848 13.4555 5.27498 14.2618 5.27498 11.8093C5.27498 10.7343 6.01407 10.0064 7.60423 10.0064C9.04881 10.0064 9.81032 10.8575 9.81032 11.7869C9.81032 11.9437 9.68714 12.0669 9.53034 12.0669H8.76886C8.61208 12.0669 8.52249 11.9885 8.4777 11.8093C8.38811 11.507 8.19774 11.1598 7.59303 11.1598C6.98832 11.1598 6.61878 11.283 6.61878 11.7981C6.61878 12.974 9.9223 12.1789 9.9223 14.7321C9.9223 16.1431 8.75766 16.647 7.55944 16.647C5.89089 16.647 5.1518 15.5272 5.1518 14.6649L5.163 14.6761Z" fill="currentColor"/>
    <path d="M11.3333 16.5799C11.1765 16.5799 11.0533 16.4567 11.0533 16.3V10.3984C11.0533 10.2417 11.1765 10.1185 11.3333 10.1185H12.0948C12.2516 10.1185 12.3747 10.2417 12.3747 10.3984V16.3C12.3747 16.4567 12.2516 16.5799 12.0948 16.5799H11.3333Z" fill="currentColor"/>
    <path d="M14.3904 16.5799C14.2336 16.5799 14.1105 16.4567 14.1105 16.3V10.3984C14.1105 10.2417 14.2336 10.1185 14.3904 10.1185H16.8764C18.0187 10.1185 18.8697 10.8576 18.8697 12.1566V12.4365C18.8697 13.7355 18.0187 14.553 16.8764 14.553H15.4431V16.3C15.4431 16.4567 15.3199 16.5799 15.1631 16.5799H14.3904ZM15.4431 13.2876H16.7645C17.2012 13.2876 17.5259 12.9741 17.5259 12.3918V12.2686C17.5259 11.6863 17.19 11.3727 16.7645 11.3727H15.4431V13.2988V13.2876Z" fill="currentColor"/>
    <path d="M17.6045 1.97729C17.9964 1.97729 18.2988 2.29085 18.2988 2.67159V3.36589H18.993C20.4152 3.36589 21.5575 4.51931 21.5575 5.9303V19.4579C21.5575 20.8801 20.404 22.0223 18.993 22.0223H5.00631C3.59532 22.0447 2.44189 20.8913 2.44189 19.4803V5.9415C2.44189 4.53051 3.59532 3.37708 5.00631 3.37708H5.7006V2.68279C5.7006 2.29085 6.01416 1.98849 6.3949 1.98849C6.77564 1.98849 7.0892 2.30205 7.0892 2.68279V3.37708H16.8878V2.68279C16.8878 2.29085 17.2013 1.98849 17.5821 1.98849L17.6045 1.97729ZM5.00631 4.77687C4.35681 4.77687 3.84168 5.30319 3.84168 5.9415V19.4691C3.84168 20.1186 4.368 20.6337 5.00631 20.6337H19.0042C19.6538 20.6337 20.1689 20.1074 20.1689 19.4691V5.9415C20.1689 5.292 19.6426 4.77687 19.0042 4.77687H18.31V5.47117C18.31 5.86311 17.9964 6.16546 17.6157 6.16546C17.2349 6.16546 16.9214 5.85191 16.9214 5.47117V4.77687H7.11159V5.47117C7.11159 5.86311 6.79804 6.16546 6.4173 6.16546C6.03655 6.16546 5.723 5.85191 5.723 5.47117V4.77687H5.00631Z" fill="currentColor"/>
</svg>
