<svg width="24" height="24" viewBox="0 0 24 24" fill="none" xmlns="http://www.w3.org/2000/svg">
<path d="M7 23C6.45 23 5.97917 22.8042 5.5875 22.4125C5.19583 22.0208 5 21.55 5 21V3C5 2.45 5.19583 1.97917 5.5875 1.5875C5.97917 1.19583 6.45 1 7 1H17C17.55 1 18.0208 1.19583 18.4125 1.5875C18.8042 1.97917 19 2.45 19 3V6C19 6.28333 18.9042 6.52083 18.7125 6.7125C18.5208 6.90417 18.2833 7 18 7C17.7167 7 17.4792 6.90417 17.2875 6.7125C17.0958 6.52083 17 6.28333 17 6H7V18H17C17 17.7167 17.0958 17.4792 17.2875 17.2875C17.4792 17.0958 17.7167 17 18 17C18.2833 17 18.5208 17.0958 18.7125 17.2875C18.9042 17.4792 19 17.7167 19 18V21C19 21.55 18.8042 22.0208 18.4125 22.4125C18.0208 22.8042 17.55 23 17 23H7ZM7 20V21H17V20H7ZM7 4H17V3H7V4ZM23.025 12C23.025 12.8333 22.8917 13.6375 22.625 14.4125C22.3583 15.1875 21.975 15.9 21.475 16.55C21.3083 16.7667 21.0875 16.8792 20.8125 16.8875C20.5375 16.8958 20.3 16.8 20.1 16.6C19.9167 16.4167 19.8208 16.1833 19.8125 15.9C19.8042 15.6167 19.8833 15.3583 20.05 15.125C20.3667 14.675 20.6083 14.1833 20.775 13.65C20.9417 13.1167 21.025 12.5667 21.025 12C21.025 11.4333 20.9417 10.8833 20.775 10.35C20.6083 9.81667 20.3667 9.325 20.05 8.875C19.8833 8.64167 19.8042 8.38333 19.8125 8.1C19.8208 7.81667 19.9167 7.58333 20.1 7.4C20.3 7.2 20.5375 7.10417 20.8125 7.1125C21.0875 7.12083 21.3083 7.23333 21.475 7.45C21.975 8.1 22.3583 8.8125 22.625 9.5875C22.8917 10.3625 23.025 11.1667 23.025 12ZM19.525 12C19.525 12.5333 19.4208 13.0458 19.2125 13.5375C19.0042 14.0292 18.7167 14.4667 18.35 14.85C18.2667 14.9333 18.1583 15.0042 18.025 15.0625C17.8917 15.1208 17.7583 15.15 17.625 15.15C17.3417 15.15 17.1 15.05 16.9 14.85C16.7 14.65 16.6 14.4083 16.6 14.125C16.6 13.9917 16.6292 13.8583 16.6875 13.725C16.7458 13.5917 16.8167 13.4833 16.9 13.4C17.1 13.2 17.2542 12.9875 17.3625 12.7625C17.4708 12.5375 17.525 12.2833 17.525 12C17.525 11.75 17.4667 11.5 17.35 11.25C17.2333 11 17.0833 10.7833 16.9 10.6C16.8167 10.5167 16.7458 10.4083 16.6875 10.275C16.6292 10.1417 16.6 10.0083 16.6 9.875C16.6 9.59167 16.7 9.35 16.9 9.15C17.1 8.95 17.3417 8.85 17.625 8.85C17.7583 8.85 17.8917 8.87917 18.025 8.9375C18.1583 8.99583 18.2667 9.06667 18.35 9.15C18.7167 9.53333 19.0042 9.97083 19.2125 10.4625C19.4208 10.9542 19.525 11.4667 19.525 12Z" fill="currentColor"/>
</svg>
