<svg width="24" height="24" viewBox="0 0 24 24" fill="none" xmlns="http://www.w3.org/2000/svg">
<path d="M9.5 10.95L8.125 12.025C8.025 12.1083 7.925 12.1125 7.825 12.0375C7.725 11.9625 7.69167 11.8667 7.725 11.75L8.25 10.05L6.8 8.9C6.71667 8.81667 6.69583 8.72083 6.7375 8.6125C6.77917 8.50417 6.85833 8.45 6.975 8.45H8.7L9.25 6.725C9.28333 6.60833 9.36667 6.55 9.5 6.55C9.63333 6.55 9.71667 6.60833 9.75 6.725L10.3 8.45H12.025C12.1417 8.45 12.2208 8.50417 12.2625 8.6125C12.3042 8.72083 12.2833 8.81667 12.2 8.9L10.75 10.05L11.275 11.75C11.3083 11.8667 11.275 11.9625 11.175 12.0375C11.075 12.1125 10.975 12.1083 10.875 12.025L9.5 10.95ZM9.5 16C7.68333 16 6.14583 15.3708 4.8875 14.1125C3.62917 12.8542 3 11.3167 3 9.5C3 7.68333 3.62917 6.14583 4.8875 4.8875C6.14583 3.62917 7.68333 3 9.5 3C11.3167 3 12.8542 3.62917 14.1125 4.8875C15.3708 6.14583 16 7.68333 16 9.5C16 10.2333 15.8833 10.925 15.65 11.575C15.4167 12.225 15.1 12.8 14.7 13.3L20.3 18.9C20.4833 19.0833 20.575 19.3167 20.575 19.6C20.575 19.8833 20.4833 20.1167 20.3 20.3C20.1167 20.4833 19.8833 20.575 19.6 20.575C19.3167 20.575 19.0833 20.4833 18.9 20.3L13.3 14.7C12.8 15.1 12.225 15.4167 11.575 15.65C10.925 15.8833 10.2333 16 9.5 16ZM9.5 14C10.75 14 11.8125 13.5625 12.6875 12.6875C13.5625 11.8125 14 10.75 14 9.5C14 8.25 13.5625 7.1875 12.6875 6.3125C11.8125 5.4375 10.75 5 9.5 5C8.25 5 7.1875 5.4375 6.3125 6.3125C5.4375 7.1875 5 8.25 5 9.5C5 10.75 5.4375 11.8125 6.3125 12.6875C7.1875 13.5625 8.25 14 9.5 14Z" fill="currentColor"/>
</svg>
