<svg width="24" height="24" viewBox="0 0 24 24" fill="none" xmlns="http://www.w3.org/2000/svg">
<g clip-path="url(#clip0_1_168)">
<path d="M16.1 12.3001L14.65 10.8501C14.8333 9.96676 14.6042 9.2126 13.9625 8.5876C13.3208 7.9626 12.55 7.71676 11.65 7.8501L10.2 6.4001C10.4833 6.26676 10.775 6.16676 11.075 6.1001C11.375 6.03343 11.6833 6.0001 12 6.0001C13.25 6.0001 14.3125 6.4376 15.1875 7.3126C16.0625 8.1876 16.5 9.2501 16.5 10.5001C16.5 10.8168 16.4667 11.1251 16.4 11.4251C16.3333 11.7251 16.2333 12.0168 16.1 12.3001ZM19.3 15.4501L17.85 14.0501C18.4833 13.5668 19.05 13.0293 19.55 12.4376C20.05 11.8459 20.4667 11.2001 20.8 10.5001C19.9667 8.81676 18.7625 7.47926 17.1875 6.4876C15.6125 5.49593 13.8833 5.0001 12 5.0001C11.5167 5.0001 11.0458 5.03343 10.5875 5.1001C10.1292 5.16676 9.66667 5.26676 9.2 5.4001L7.65 3.8501C8.35 3.56676 9.0625 3.35426 9.7875 3.2126C10.5125 3.07093 11.25 3.0001 12 3.0001C14.2833 3.0001 16.3708 3.6001 18.2625 4.8001C20.1542 6.0001 21.6 7.61676 22.6 9.6501C22.6667 9.78343 22.7167 9.92093 22.75 10.0626C22.7833 10.2043 22.8 10.3501 22.8 10.5001C22.8 10.6501 22.7875 10.7959 22.7625 10.9376C22.7375 11.0793 22.6917 11.2168 22.625 11.3501C22.2583 12.1668 21.7917 12.9209 21.225 13.6126C20.6583 14.3043 20.0167 14.9168 19.3 15.4501ZM12 18.0001C9.76667 18.0001 7.725 17.3959 5.875 16.1876C4.025 14.9793 2.56667 13.3918 1.5 11.4251C1.41667 11.2918 1.35417 11.1459 1.3125 10.9876C1.27083 10.8293 1.25 10.6668 1.25 10.5001C1.25 10.3334 1.26667 10.1751 1.3 10.0251C1.33333 9.8751 1.39167 9.7251 1.475 9.5751C1.80833 8.90843 2.19583 8.27093 2.6375 7.6626C3.07917 7.05426 3.58333 6.5001 4.15 6.0001L2.075 3.9001C1.89167 3.7001 1.80417 3.4626 1.8125 3.1876C1.82083 2.9126 1.91667 2.68343 2.1 2.5001C2.28333 2.31676 2.51667 2.2251 2.8 2.2251C3.08333 2.2251 3.31667 2.31676 3.5 2.5001L20.5 19.5001C20.6833 19.6834 20.7792 19.9126 20.7875 20.1876C20.7958 20.4626 20.7 20.7001 20.5 20.9001C20.3167 21.0834 20.0833 21.1751 19.8 21.1751C19.5167 21.1751 19.2833 21.0834 19.1 20.9001L15.6 17.4501C15.0167 17.6334 14.425 17.7709 13.825 17.8626C13.225 17.9543 12.6167 18.0001 12 18.0001ZM5.55 7.4001C5.06667 7.83343 4.625 8.30843 4.225 8.8251C3.825 9.34176 3.48333 9.9001 3.2 10.5001C4.03333 12.1834 5.2375 13.5209 6.8125 14.5126C8.3875 15.5043 10.1167 16.0001 12 16.0001C12.3333 16.0001 12.6583 15.9793 12.975 15.9376C13.2917 15.8959 13.6167 15.8501 13.95 15.8001L13.05 14.8501C12.8667 14.9001 12.6917 14.9376 12.525 14.9626C12.3583 14.9876 12.1833 15.0001 12 15.0001C10.75 15.0001 9.6875 14.5626 8.8125 13.6876C7.9375 12.8126 7.5 11.7501 7.5 10.5001C7.5 10.3168 7.5125 10.1418 7.5375 9.9751C7.5625 9.80843 7.6 9.63343 7.65 9.4501L5.55 7.4001Z" fill="currentColor"/>
</g>
<defs>
<clipPath id="clip0_1_168">
<rect width="24" height="24" fill="white"/>
</clipPath>
</defs>
</svg>
