<svg width="24" height="24" viewBox="0 0 24 24" fill="none" xmlns="http://www.w3.org/2000/svg">
<path d="M9.225 14.788L17.725 6.288C17.925 6.088 18.1583 5.99217 18.425 6.0005C18.6917 6.00883 18.925 6.113 19.125 6.313C19.3083 6.513 19.4042 6.74633 19.4125 7.013C19.4208 7.27967 19.325 7.513 19.125 7.713L9.925 16.913C9.725 17.113 9.49167 17.213 9.225 17.213C8.95833 17.213 8.725 17.113 8.525 16.913L4.275 12.663C4.09167 12.4797 4 12.2505 4 11.9755C4 11.7005 4.09167 11.463 4.275 11.263C4.475 11.063 4.7125 10.963 4.9875 10.963C5.2625 10.963 5.5 11.063 5.7 11.263L9.225 14.788Z" fill="currentColor"/>
</svg>
