<svg width="24" height="24" viewBox="0 0 24 24" fill="none" xmlns="http://www.w3.org/2000/svg">
<path d="M8.85 12L10.3 10.55C10.5 10.35 10.5958 10.1167 10.5875 9.85C10.5792 9.58333 10.4833 9.35 10.3 9.15C10.1 8.95 9.8625 8.84583 9.5875 8.8375C9.3125 8.82917 9.075 8.925 8.875 9.125L6.7 11.3C6.5 11.5 6.4 11.7333 6.4 12C6.4 12.2667 6.5 12.5 6.7 12.7L8.875 14.875C9.075 15.075 9.3125 15.1708 9.5875 15.1625C9.8625 15.1542 10.1 15.05 10.3 14.85C10.4833 14.65 10.5792 14.4167 10.5875 14.15C10.5958 13.8833 10.5 13.65 10.3 13.45L8.85 12ZM15.15 12L13.7 13.45C13.5 13.65 13.4042 13.8833 13.4125 14.15C13.4208 14.4167 13.5167 14.65 13.7 14.85C13.9 15.05 14.1375 15.1542 14.4125 15.1625C14.6875 15.1708 14.925 15.075 15.125 14.875L17.3 12.7C17.5 12.5 17.6 12.2667 17.6 12C17.6 11.7333 17.5 11.5 17.3 11.3L15.125 9.125C14.925 8.925 14.6875 8.82917 14.4125 8.8375C14.1375 8.84583 13.9 8.95 13.7 9.15C13.5167 9.35 13.4208 9.58333 13.4125 9.85C13.4042 10.1167 13.5 10.35 13.7 10.55L15.15 12ZM5 21C4.45 21 3.97917 20.8042 3.5875 20.4125C3.19583 20.0208 3 19.55 3 19V5C3 4.45 3.19583 3.97917 3.5875 3.5875C3.97917 3.19583 4.45 3 5 3H9.2C9.41667 2.4 9.77917 1.91667 10.2875 1.55C10.7958 1.18333 11.3667 1 12 1C12.6333 1 13.2042 1.18333 13.7125 1.55C14.2208 1.91667 14.5833 2.4 14.8 3H19C19.55 3 20.0208 3.19583 20.4125 3.5875C20.8042 3.97917 21 4.45 21 5V19C21 19.55 20.8042 20.0208 20.4125 20.4125C20.0208 20.8042 19.55 21 19 21H5ZM5 19H19V5H5V19ZM12 4.25C12.2167 4.25 12.3958 4.17917 12.5375 4.0375C12.6792 3.89583 12.75 3.71667 12.75 3.5C12.75 3.28333 12.6792 3.10417 12.5375 2.9625C12.3958 2.82083 12.2167 2.75 12 2.75C11.7833 2.75 11.6042 2.82083 11.4625 2.9625C11.3208 3.10417 11.25 3.28333 11.25 3.5C11.25 3.71667 11.3208 3.89583 11.4625 4.0375C11.6042 4.17917 11.7833 4.25 12 4.25Z" fill="currentColor"/>
</svg>
