<svg width="24" height="24" viewBox="0 0 24 24" fill="none" xmlns="http://www.w3.org/2000/svg">
<g clip-path="url(#clip0_1_242)">
<path d="M6.3 9.00005C6.3 8.86672 6.325 8.74172 6.375 8.62505C6.425 8.50838 6.5 8.40005 6.6 8.30005L11.2 3.70005C11.3 3.60005 11.4083 3.52922 11.525 3.48755C11.6417 3.44588 11.7667 3.42505 11.9 3.42505C12.0333 3.42505 12.1583 3.44588 12.275 3.48755C12.3917 3.52922 12.5 3.60005 12.6 3.70005L17.2 8.30005C17.3 8.40005 17.375 8.50838 17.425 8.62505C17.475 8.74172 17.5 8.86672 17.5 9.00005C17.5 9.26672 17.4042 9.50005 17.2125 9.70005C17.0208 9.90005 16.775 10 16.475 10L7.325 10C7.025 10 6.77917 9.90005 6.5875 9.70005C6.39583 9.50005 6.3 9.26672 6.3 9.00005ZM8.525 8.50005L15.275 8.50005L11.9 5.12505L8.525 8.50005ZM6.3 15C6.3 14.7334 6.39583 14.5 6.5875 14.3C6.77917 14.1 7.025 14 7.325 14L16.475 14C16.775 14 17.0208 14.1 17.2125 14.3C17.4042 14.5 17.5 14.7334 17.5 15C17.5 15.1334 17.475 15.2584 17.425 15.375C17.375 15.4917 17.3 15.6 17.2 15.7L12.6 20.3C12.5 20.4 12.3917 20.4709 12.275 20.5125C12.1583 20.5542 12.0333 20.575 11.9 20.575C11.7667 20.575 11.6417 20.5542 11.525 20.5125C11.4083 20.4709 11.3 20.4 11.2 20.3L6.6 15.7C6.5 15.6 6.425 15.4917 6.375 15.375C6.325 15.2584 6.3 15.1334 6.3 15Z" fill="currentColor"/>
</g>
<defs>
<clipPath id="clip0_1_242">
<rect width="24" height="24" fill="white"/>
</clipPath>
</defs>
</svg>
