<svg width="24" height="24" viewBox="0 0 24 24" fill="none" xmlns="http://www.w3.org/2000/svg">
<path d="M22.95 12.0501C22.95 12.3334 22.8542 12.5709 22.6625 12.7626C22.4709 12.9543 22.2334 13.0501 21.95 13.0501H20.95C20.9 13.4834 20.8251 13.8959 20.725 14.2876C20.625 14.6793 20.4917 15.0668 20.325 15.4501C20.225 15.7001 20.0417 15.8668 19.775 15.9501C19.5084 16.0334 19.2584 16.0084 19.025 15.8751C18.7917 15.7418 18.6334 15.5459 18.55 15.2876C18.4667 15.0293 18.475 14.7668 18.575 14.5001C18.7084 14.1168 18.8125 13.7209 18.8875 13.3126C18.9625 12.9043 19 12.4834 19 12.0501C19 10.1168 18.3167 8.46676 16.95 7.1001C15.5834 5.73343 13.9334 5.0501 12 5.0501C11.5667 5.0501 11.1459 5.0876 10.7375 5.1626C10.3292 5.2376 9.93338 5.34176 9.55005 5.4751C9.28338 5.5751 9.02088 5.58343 8.76255 5.5001C8.50422 5.41676 8.30838 5.25843 8.17505 5.0251C8.04172 4.79176 8.01672 4.54176 8.10005 4.2751C8.18338 4.00843 8.35005 3.8251 8.60005 3.7251C8.98338 3.55843 9.37088 3.4251 9.76255 3.3251C10.1542 3.2251 10.5667 3.1501 11 3.1001V2.1001C11 1.81676 11.0959 1.57926 11.2875 1.3876C11.4792 1.19593 11.7167 1.1001 12 1.1001C12.2834 1.1001 12.5209 1.19593 12.7125 1.3876C12.9042 1.57926 13 1.81676 13 2.1001V3.1001C15.0834 3.33343 16.8709 4.19593 18.3625 5.6876C19.8542 7.17926 20.7167 8.96676 20.95 11.0501H21.95C22.2334 11.0501 22.4709 11.1459 22.6625 11.3376C22.8542 11.5293 22.95 11.7668 22.95 12.0501ZM11 22.0001V21.0001C8.91672 20.7668 7.12922 19.9043 5.63755 18.4126C4.14588 16.9209 3.28338 15.1334 3.05005 13.0501H2.05005C1.76672 13.0501 1.52922 12.9543 1.33755 12.7626C1.14588 12.5709 1.05005 12.3334 1.05005 12.0501C1.05005 11.7668 1.14588 11.5293 1.33755 11.3376C1.52922 11.1459 1.76672 11.0501 2.05005 11.0501H3.05005C3.13338 10.3501 3.29172 9.6876 3.52505 9.0626C3.75838 8.4376 4.05005 7.83343 4.40005 7.2501L2.10005 4.9501C1.91672 4.76676 1.82505 4.53343 1.82505 4.2501C1.82505 3.96676 1.91672 3.73343 2.10005 3.5501C2.28338 3.36676 2.51672 3.2751 2.80005 3.2751C3.08338 3.2751 3.31672 3.36676 3.50005 3.5501L20.475 20.5251C20.6751 20.7251 20.775 20.9626 20.775 21.2376C20.775 21.5126 20.6751 21.7501 20.475 21.9501C20.275 22.1334 20.0375 22.2293 19.7625 22.2376C19.4875 22.2459 19.25 22.1501 19.05 21.9501L16.8 19.6501C16.2167 20.0001 15.6125 20.2918 14.9875 20.5251C14.3625 20.7584 13.7 20.9168 13 21.0001V22.0001C13 22.2834 12.9042 22.5209 12.7125 22.7126C12.5209 22.9043 12.2834 23.0001 12 23.0001C11.7167 23.0001 11.4792 22.9043 11.2875 22.7126C11.0959 22.5209 11 22.2834 11 22.0001ZM12 19.0501C12.6 19.0501 13.1834 18.9793 13.75 18.8376C14.3167 18.6959 14.85 18.4834 15.35 18.2001L5.85005 8.7001C5.56672 9.2001 5.35422 9.73343 5.21255 10.3001C5.07088 10.8668 5.00005 11.4501 5.00005 12.0501C5.00005 13.9834 5.68338 15.6334 7.05005 17.0001C8.41672 18.3668 10.0667 19.0501 12 19.0501Z" fill="currentColor"/>
</svg>
