<svg width="24" height="24" viewBox="0 0 24 24" fill="none" xmlns="http://www.w3.org/2000/svg">
<g clip-path="url(#clip0_1_212)">
<path d="M5.89997 12L8.22497 14.325C8.42497 14.525 8.52497 14.7667 8.52497 15.05C8.52497 15.3334 8.42497 15.575 8.22497 15.775C8.02497 15.975 7.78331 16.075 7.49997 16.075C7.21664 16.075 6.97497 15.975 6.77497 15.775L3.69997 12.7C3.59997 12.6 3.52914 12.4917 3.48747 12.375C3.44581 12.2584 3.42497 12.1334 3.42497 12C3.42497 11.8667 3.44581 11.7417 3.48747 11.625C3.52914 11.5084 3.59997 11.4 3.69997 11.3L6.77497 8.22505C6.97497 8.02505 7.21664 7.92505 7.49997 7.92505C7.78331 7.92505 8.02497 8.02505 8.22497 8.22505C8.42497 8.42505 8.52497 8.66672 8.52497 8.95005C8.52497 9.23338 8.42497 9.47505 8.22497 9.67505L5.89997 12ZM18 12L15.675 9.67505C15.475 9.47505 15.375 9.23338 15.375 8.95005C15.375 8.66672 15.475 8.42505 15.675 8.22505C15.875 8.02505 16.1166 7.92505 16.4 7.92505C16.6833 7.92505 16.925 8.02505 17.125 8.22505L20.2 11.3C20.3 11.4 20.3708 11.5084 20.4125 11.625C20.4541 11.7417 20.475 11.8667 20.475 12C20.475 12.1334 20.4541 12.2584 20.4125 12.375C20.3708 12.4917 20.3 12.6 20.2 12.7L17.125 15.775C16.925 15.975 16.6833 16.075 16.4 16.075C16.1166 16.075 15.875 15.975 15.675 15.775C15.475 15.575 15.375 15.3334 15.375 15.05C15.375 14.7667 15.475 14.525 15.675 14.325L18 12Z" fill="currentColor"/>
</g>
<defs>
<clipPath id="clip0_1_212">
<rect width="24" height="24" fill="white"/>
</clipPath>
</defs>
</svg>
