<svg width="24" height="24" viewBox="0 0 24 24" fill="none" xmlns="http://www.w3.org/2000/svg">
<g clip-path="url(#clip0_1_316)">
<path d="M16.6 11L11.7 6.09995C11.5 5.89995 11.4042 5.66662 11.4125 5.39995C11.4208 5.13328 11.525 4.89995 11.725 4.69995C11.925 4.51662 12.1583 4.42078 12.425 4.41245C12.6917 4.40412 12.925 4.49995 13.125 4.69995L19.725 11.3C19.825 11.4 19.8958 11.5083 19.9375 11.625C19.9792 11.7416 20 11.8666 20 12C20 12.1333 19.9792 12.2583 19.9375 12.375C19.8958 12.4916 19.825 12.6 19.725 12.7L13.125 19.3C12.9417 19.4833 12.7125 19.575 12.4375 19.575C12.1625 19.575 11.925 19.4833 11.725 19.3C11.525 19.1 11.425 18.8625 11.425 18.5875C11.425 18.3125 11.525 18.075 11.725 17.875L16.6 13L5.425 12.9999C5.14167 12.9999 4.90417 12.9041 4.7125 12.7124C4.52083 12.5208 4.425 12.2833 4.425 11.9999C4.425 11.7166 4.52083 11.4791 4.7125 11.2874C4.90417 11.0958 5.14167 11 5.425 11L16.6 11Z" fill="currentColor"/>
</g>
<defs>
<clipPath id="clip0_1_316">
<rect width="24" height="24" fill="white"/>
</clipPath>
</defs>
</svg>
