<svg width="24" height="24" viewBox="0 0 24 24" fill="none" xmlns="http://www.w3.org/2000/svg">
<g clip-path="url(#clip0_1_56)">
<path fill-rule="evenodd" clip-rule="evenodd" d="M5.2698 3.25995L12.9798 11.31H12.9898C13.3598 11.69 13.3598 12.3 12.9898 12.69L5.2698 20.74C5.0698 20.9499 4.8098 21.0499 4.5598 21.0499C4.0398 21.0499 3.5498 20.65 3.5498 20.0499V3.94995C3.5498 3.34995 4.0498 2.94995 4.5598 2.94995C4.8098 2.94995 5.0598 3.04995 5.2698 3.25995ZM12.4602 3.25995L20.1802 11.31V11.3C20.5502 11.68 20.5502 12.29 20.1802 12.68L12.4602 20.7299C12.2602 20.9399 12.0002 21.04 11.7502 21.04C11.2302 21.04 10.7402 20.64 10.7402 20.04V18.04C10.7402 17.96 10.7702 17.89 10.8202 17.83L15.0902 13.38C15.8302 12.6 15.8302 11.38 15.0902 10.61L10.8202 6.15995C10.7702 6.09995 10.7402 6.02995 10.7402 5.94995V3.94995C10.7402 3.34995 11.2402 2.94995 11.7502 2.94995C12.0002 2.94995 12.2502 3.04995 12.4602 3.25995Z" fill="currentColor"/>
</g>
<defs>
<clipPath id="clip0_1_56">
<rect width="24" height="24" fill="white"/>
</clipPath>
</defs>
</svg>
