<svg width="24" height="24" viewBox="0 0 24 24" fill="none" xmlns="http://www.w3.org/2000/svg">
<path d="M9.00005 13C8.71672 13 8.47922 12.9042 8.28755 12.7125C8.09588 12.5209 8.00005 12.2834 8.00005 12V5.82505L6.12505 7.70005C5.94172 7.88338 5.71255 7.97505 5.43755 7.97505C5.16255 7.97505 4.92505 7.88338 4.72505 7.70005C4.52505 7.50005 4.42505 7.26255 4.42505 6.98755C4.42505 6.71255 4.52505 6.47505 4.72505 6.27505L8.30005 2.70005C8.40005 2.60005 8.50838 2.52922 8.62505 2.48755C8.74172 2.44588 8.86672 2.42505 9.00005 2.42505C9.13338 2.42505 9.25838 2.44588 9.37505 2.48755C9.49172 2.52922 9.60005 2.60005 9.70005 2.70005L13.3 6.30005C13.5 6.50005 13.5959 6.73338 13.5875 7.00005C13.5792 7.26672 13.475 7.50005 13.275 7.70005C13.075 7.88338 12.8417 7.97922 12.575 7.98755C12.3084 7.99588 12.075 7.90005 11.875 7.70005L10 5.82505V12C10 12.2834 9.90422 12.5209 9.71255 12.7125C9.52088 12.9042 9.28338 13 9.00005 13ZM15 21.575C14.8667 21.575 14.7417 21.5542 14.625 21.5125C14.5084 21.4709 14.4 21.4 14.3 21.3L10.7 17.7C10.5 17.5 10.4042 17.2667 10.4125 17C10.4209 16.7334 10.525 16.5 10.725 16.3C10.925 16.1167 11.1584 16.0209 11.425 16.0125C11.6917 16.0042 11.925 16.1 12.125 16.3L14 18.175V12C14 11.7167 14.0959 11.4792 14.2875 11.2875C14.4792 11.0959 14.7167 11 15 11C15.2834 11 15.5209 11.0959 15.7125 11.2875C15.9042 11.4792 16 11.7167 16 12V18.175L17.875 16.3C18.0584 16.1167 18.2875 16.025 18.5625 16.025C18.8375 16.025 19.075 16.1167 19.275 16.3C19.475 16.5 19.575 16.7375 19.575 17.0125C19.575 17.2875 19.475 17.525 19.275 17.725L15.7 21.3C15.6 21.4 15.4917 21.4709 15.375 21.5125C15.2584 21.5542 15.1334 21.575 15 21.575Z" fill="currentColor"/>
</svg>
