<svg width="24" height="24" viewBox="0 0 24 24" fill="none" xmlns="http://www.w3.org/2000/svg">
<g clip-path="url(#clip0_1_649)">
<path d="M5 21.4087C4.45 21.4087 3.97917 21.2129 3.5875 20.8212C3.19583 20.4295 3 19.9587 3 19.4087V5.40869C3 4.85869 3.19583 4.38786 3.5875 3.99619C3.97917 3.60452 4.45 3.40869 5 3.40869H19C19.55 3.40869 20.0208 3.60452 20.4125 3.99619C20.8042 4.38786 21 4.85869 21 5.40869V19.4087C21 19.9587 20.8042 20.4295 20.4125 20.8212C20.0208 21.2129 19.55 21.4087 19 21.4087H5ZM6 17.4087H18L14.25 12.4087L11.25 16.4087L9 13.4087L6 17.4087Z" fill="currentColor"/>
</g>
<defs>
<clipPath id="clip0_1_649">
<rect width="24" height="24" fill="white"/>
</clipPath>
</defs>
</svg>
