<svg width="24" height="24" viewBox="0 0 24 24" fill="none" xmlns="http://www.w3.org/2000/svg">
<path d="M21.6412 9.29513C21.467 8.55743 21.2117 7.86016 20.8875 7.20994C20.8843 7.20351 20.8811 7.19697 20.8779 7.19054C20.8577 7.15025 20.8371 7.11024 20.8163 7.07031C20.8058 7.05003 20.7954 7.0297 20.7847 7.00953C20.7637 6.96975 20.7423 6.9303 20.7207 6.89091C20.7098 6.87091 20.6989 6.85084 20.6879 6.83094C20.6661 6.79174 20.6439 6.75285 20.6216 6.71404C20.6103 6.69433 20.599 6.67456 20.5875 6.65494C20.565 6.61637 20.5421 6.5781 20.519 6.53991C20.5073 6.52042 20.4956 6.50086 20.4837 6.48146C20.4604 6.44349 20.4368 6.40583 20.413 6.36825C20.4009 6.34904 20.3888 6.32978 20.3765 6.31068C20.3525 6.27337 20.3282 6.23638 20.3037 6.19948C20.2911 6.18046 20.2786 6.16138 20.2659 6.14244C20.2412 6.10584 20.2162 6.06959 20.1911 6.03337C20.1781 6.01454 20.1651 5.99568 20.152 5.97696C20.1267 5.94104 20.101 5.90547 20.0753 5.86996C20.0618 5.85137 20.0484 5.8327 20.0348 5.81421C20.0089 5.77901 19.9827 5.74414 19.9563 5.70932C19.9424 5.69095 19.9286 5.67253 19.9145 5.65426C19.888 5.61976 19.8611 5.58558 19.8342 5.55147C19.8198 5.53333 19.8056 5.5151 19.7911 5.49707C19.764 5.46332 19.7366 5.42989 19.709 5.39655C19.6942 5.37858 19.6795 5.36055 19.6645 5.34269C19.6369 5.30973 19.609 5.27712 19.581 5.24457C19.5656 5.22675 19.5504 5.20887 19.5349 5.19118C19.5068 5.159 19.4784 5.12718 19.4499 5.0954C19.4341 5.0778 19.4183 5.06013 19.4024 5.04266C19.3738 5.01129 19.3449 4.98024 19.3159 4.94928C19.2996 4.93184 19.2834 4.91433 19.2669 4.89702C19.2379 4.86645 19.2086 4.83621 19.1791 4.80605C19.1623 4.78881 19.1456 4.7715 19.1287 4.75441C19.0992 4.72463 19.0694 4.69521 19.0396 4.66584C19.0223 4.64881 19.0051 4.6317 18.9876 4.61481C18.9578 4.58586 18.9276 4.55724 18.8974 4.5287C18.8795 4.51184 18.8618 4.49493 18.8438 4.47822C18.8136 4.45011 18.7831 4.42235 18.7525 4.39464C18.7341 4.378 18.7158 4.36128 18.6973 4.34477C18.6668 4.31747 18.6359 4.29054 18.605 4.26366C18.5861 4.24721 18.5673 4.2307 18.5482 4.21443C18.5173 4.18799 18.4862 4.16189 18.455 4.13586C18.4355 4.11963 18.4161 4.10334 18.3966 4.08728C18.3654 4.06165 18.3339 4.03639 18.3024 4.01118C18.2824 3.99521 18.2625 3.97917 18.2425 3.96334C18.211 3.93856 18.1792 3.91413 18.1475 3.88973C18.127 3.87399 18.1065 3.85819 18.0859 3.8426C18.0541 3.81863 18.0221 3.79503 17.99 3.77144C17.969 3.756 17.9481 3.74048 17.927 3.72519C17.8949 3.70203 17.8627 3.67924 17.8304 3.65649C17.8088 3.64131 17.7873 3.62604 17.7656 3.61106C17.7334 3.58873 17.7009 3.5668 17.6684 3.54489C17.6463 3.52998 17.6243 3.515 17.6021 3.50029C17.5696 3.4788 17.537 3.45768 17.5043 3.43658C17.4816 3.42198 17.4591 3.40729 17.4363 3.39289C17.4037 3.37222 17.3709 3.35193 17.338 3.33167C17.3148 3.31737 17.2917 3.303 17.2684 3.28889C17.2356 3.26906 17.2026 3.24959 17.1696 3.23014C17.1458 3.21618 17.1222 3.20214 17.0984 3.18837C17.0654 3.16936 17.0323 3.1507 16.9991 3.13207C16.9749 3.11845 16.9506 3.10475 16.9263 3.09135C16.8932 3.07312 16.8599 3.05529 16.8266 3.03745C16.8018 3.02419 16.7771 3.01086 16.7523 2.99784C16.719 2.98043 16.6856 2.96339 16.6522 2.94636C16.6269 2.9335 16.6017 2.92055 16.5763 2.90789C16.543 2.89128 16.5094 2.87505 16.4759 2.85881C16.4501 2.84634 16.4244 2.83377 16.3985 2.82153C16.3651 2.80572 16.3315 2.79031 16.2979 2.77489C16.2715 2.7628 16.2453 2.75064 16.2188 2.73881C16.1853 2.7238 16.1516 2.70915 16.1179 2.69453C16.0911 2.68289 16.0644 2.67116 16.0374 2.65975C16.0038 2.64551 15.97 2.63164 15.9362 2.61777C15.909 2.6066 15.8818 2.59534 15.8544 2.5844C15.8207 2.57092 15.7868 2.55782 15.7529 2.54471C15.7252 2.53402 15.6975 2.52323 15.6697 2.51279C15.6359 2.50007 15.6019 2.48777 15.568 2.47542C15.5398 2.46519 15.5117 2.4549 15.4835 2.44492C15.4496 2.43298 15.4155 2.42142 15.3815 2.40985C15.3529 2.40013 15.3244 2.39033 15.2957 2.38088C15.2617 2.36969 15.2276 2.35888 15.1934 2.34805C15.1645 2.33887 15.1355 2.32961 15.1065 2.32069C15.0724 2.31025 15.0382 2.30019 15.004 2.29014C14.9747 2.28147 14.9453 2.27275 14.9158 2.26436C14.8817 2.25467 14.8474 2.24537 14.8132 2.23604C14.7834 2.22796 14.7537 2.21979 14.7239 2.21196C14.6897 2.203 14.6553 2.19442 14.6209 2.18584C14.5908 2.17832 14.5608 2.17073 14.5306 2.1635C14.4964 2.15529 14.462 2.14749 14.4275 2.13964C14.3971 2.13269 14.3667 2.12568 14.3361 2.11901C14.3018 2.11153 14.2674 2.10447 14.2329 2.09738C14.2021 2.09103 14.1713 2.0846 14.1404 2.07853C14.1061 2.0718 14.0716 2.06549 14.0372 2.05912C14.006 2.05338 13.9748 2.04755 13.9436 2.0421C13.9092 2.03612 13.8747 2.03054 13.8403 2.02492C13.8088 2.0198 13.7773 2.01459 13.7458 2.00977C13.7114 2.00451 13.6768 1.99967 13.6423 1.99478C13.6105 1.99027 13.5788 1.98573 13.547 1.98155C13.5125 1.97702 13.4779 1.97293 13.4433 1.96877C13.4113 1.96493 13.3793 1.96101 13.3472 1.95747C13.3127 1.95367 13.2781 1.95033 13.2435 1.94692C13.2112 1.94372 13.1789 1.94047 13.1465 1.93759C13.1119 1.93455 13.0773 1.93191 13.0427 1.92923C13.0101 1.92672 12.9776 1.92413 12.945 1.92194C12.9104 1.91962 12.8757 1.91774 12.8411 1.91581C12.8083 1.91396 12.7756 1.91205 12.7427 1.91055C12.7081 1.90897 12.6735 1.90783 12.6388 1.90663C12.6058 1.90547 12.5727 1.90425 12.5396 1.90346C12.5051 1.90262 12.4705 1.90221 12.4359 1.90176C12.4026 1.90131 12.3693 1.9008 12.336 1.90069C12.3267 1.90067 12.3175 1.90039 12.3083 1.90039C12.2599 1.90039 12.2115 1.90082 12.1631 1.90155C12.1563 1.90166 12.1495 1.90187 12.1427 1.902C12.088 1.90294 12.0332 1.90444 11.9783 1.90635C11.9635 1.90687 11.9488 1.90736 11.934 1.90794C11.8734 1.91032 11.8128 1.91313 11.7521 1.91666C11.7463 1.91701 11.7405 1.91744 11.7347 1.9178C11.6789 1.92117 11.6229 1.92511 11.567 1.92947C11.5521 1.93062 11.5372 1.93178 11.5223 1.93303C11.4614 1.93806 11.4004 1.94351 11.3393 1.94973C11.3348 1.9502 11.3302 1.95076 11.3256 1.95123C11.2685 1.95713 11.2114 1.96367 11.1542 1.97061C11.1391 1.97246 11.124 1.9743 11.1089 1.97621C11.0477 1.98395 10.9865 1.99208 10.9252 2.00102C10.922 2.00149 10.9188 2.00202 10.9156 2.0025C10.8572 2.01107 10.7987 2.02038 10.7402 2.03007C10.725 2.0326 10.7097 2.03515 10.6945 2.03775C10.6331 2.04823 10.5717 2.0591 10.5102 2.07081C10.5086 2.07113 10.507 2.07147 10.5053 2.07177C10.4454 2.08322 10.3855 2.09545 10.3256 2.10808C10.3102 2.11131 10.2948 2.11459 10.2794 2.11792C10.2179 2.13119 10.1564 2.14485 10.0949 2.15936C9.40976 2.32112 8.75924 2.55256 8.14912 2.84445C8.11323 2.86162 8.07748 2.87899 8.04187 2.89657C7.75699 3.03725 7.48113 3.1912 7.21489 3.35744C7.18161 3.37822 7.14848 3.39919 7.11551 3.42035C6.9836 3.505 6.85409 3.59268 6.72709 3.68329C6.6636 3.7286 6.60071 3.77463 6.53847 3.82138C6.28951 4.00839 6.05067 4.20684 5.8226 4.41576C5.76558 4.468 5.70924 4.52089 5.65355 4.57441C5.45871 4.76175 5.27219 4.95693 5.09442 5.15932C4.96744 5.30388 4.8449 5.45209 4.72697 5.60374C4.6798 5.6644 4.63336 5.72562 4.58769 5.78735C4.542 5.8491 4.49706 5.91137 4.45286 5.97417C4.36448 6.09975 4.27914 6.22744 4.19687 6.35706C4.13519 6.45427 4.07521 6.55258 4.01704 6.65196C3.93947 6.78445 3.86504 6.91881 3.79383 7.0549C3.74045 7.15696 3.68886 7.26003 3.63911 7.364C3.55622 7.53729 3.47845 7.71318 3.40596 7.8914C3.39146 7.92704 3.37716 7.96278 3.36309 7.99861C3.33494 8.07027 3.30765 8.14231 3.28119 8.21468C3.20185 8.43182 3.13024 8.65216 3.06658 8.87524C3.04537 8.9496 3.02502 9.02428 3.0056 9.09924C2.99589 9.13672 2.98639 9.17428 2.97712 9.21189C2.95858 9.28715 2.94095 9.36267 2.92423 9.43849C2.89914 9.55219 2.87609 9.6665 2.85512 9.78139C2.83415 9.89625 2.81526 10.0117 2.79847 10.1276C2.79288 10.1662 2.78752 10.2049 2.78239 10.2437C2.72602 10.67 2.69815 11.1028 2.70031 11.5397C2.70387 12.2545 2.78786 12.9802 2.95913 13.7057C2.97384 13.768 2.98932 13.83 3.00519 13.8918C3.00999 13.9104 3.01495 13.929 3.01984 13.9476C3.03159 13.9922 3.04361 14.0367 3.05594 14.081C3.06135 14.1004 3.06671 14.1198 3.07224 14.1391C3.08699 14.1909 3.10215 14.2424 3.11769 14.2937C3.12055 14.3031 3.12325 14.3126 3.12614 14.322C3.14445 14.3818 3.16339 14.4411 3.18277 14.5002C3.18867 14.5182 3.19476 14.5361 3.20074 14.554C3.21493 14.5964 3.22936 14.6387 3.24409 14.6808C3.25119 14.7011 3.25833 14.7214 3.26556 14.7416C3.28134 14.7858 3.29746 14.8297 3.31384 14.8735C3.31946 14.8886 3.32493 14.9037 3.33063 14.9187C3.35218 14.9754 3.37424 15.0318 3.39678 15.088C3.40383 15.1055 3.4111 15.1229 3.41824 15.1404C3.43464 15.1805 3.45124 15.2206 3.46814 15.2604C3.4771 15.2815 3.48613 15.3025 3.49522 15.3235C3.51198 15.3623 3.52903 15.4008 3.54625 15.4392C3.55448 15.4575 3.56257 15.4759 3.57091 15.4942C3.59546 15.548 3.62044 15.6015 3.64591 15.6547C3.65378 15.6711 3.66188 15.6874 3.66982 15.7037C3.68868 15.7425 3.7077 15.7812 3.72707 15.8197C3.73766 15.8408 3.74838 15.8617 3.7591 15.8827C3.77717 15.918 3.79546 15.9531 3.81395 15.9881C3.8243 16.0077 3.83455 16.0274 3.84504 16.0469C3.84804 16.0525 3.85091 16.0581 3.85394 16.0637C3.85389 16.0637 3.85398 16.0636 3.85394 16.0637C5.51881 19.1497 8.77125 21.1004 12.2921 21.1004C12.9645 21.1004 13.6465 21.0291 14.3292 20.8811C14.3523 20.8762 14.3759 20.871 14.399 20.8658C14.4343 20.8579 14.4695 20.8499 14.5048 20.8416C14.5046 20.8417 14.5051 20.8415 14.5048 20.8416C14.5616 20.8282 14.6187 20.814 14.675 20.7996C14.687 20.7966 14.699 20.7935 14.711 20.7904C14.7668 20.7759 14.8223 20.7611 14.8776 20.7457C14.8832 20.7442 14.8888 20.7425 14.8944 20.741C14.948 20.726 15.0014 20.7105 15.0545 20.6946C15.0615 20.6925 15.0685 20.6905 15.0754 20.6884C15.1327 20.6711 15.1898 20.6534 15.2466 20.6351C15.3715 20.595 15.4951 20.5524 15.6174 20.5076C15.7356 20.4642 15.8525 20.4187 15.9681 20.371C16.0745 20.3272 16.1798 20.2816 16.2839 20.2342C16.4006 20.1811 16.5159 20.1259 16.6297 20.0685C16.9012 19.9316 17.1643 19.7826 17.4186 19.6224C17.4297 19.6154 17.4407 19.6084 17.4518 19.6014C19.0403 18.5913 20.2805 17.1413 21.0432 15.4605C21.0641 15.4145 21.0847 15.3684 21.1049 15.3221C21.1407 15.2398 21.1752 15.157 21.2087 15.0737C21.2135 15.0617 21.2182 15.0498 21.223 15.0379C21.3557 14.704 21.4701 14.3622 21.5649 14.0137C21.5852 13.9391 21.6047 13.8641 21.6232 13.7888C21.614 13.8265 21.6045 13.864 21.5947 13.9015C21.6336 13.7516 21.6689 13.6004 21.7006 13.4483C21.7111 13.3976 21.7211 13.3467 21.7308 13.2958C21.7332 13.2831 21.7356 13.2704 21.738 13.2577C21.8333 12.7477 21.8877 12.2266 21.8983 11.699C21.8998 11.6198 21.9004 11.5405 21.9 11.4611C21.8965 10.7462 21.8124 10.0206 21.6412 9.29513ZM20.624 12.9104C20.4412 13.9861 20.0562 15.0046 19.4796 15.9375C18.903 16.8704 18.1643 17.6703 17.284 18.3149C16.3731 18.9818 15.3487 19.4527 14.2394 19.7147C13.5986 19.8659 12.9434 19.9426 12.292 19.9426C11.3498 19.9426 10.4195 19.7846 9.52689 19.4731C8.64912 19.1667 7.83204 18.7206 7.09835 18.1473C6.35842 17.5691 5.72542 16.8785 5.21698 16.0946C5.05692 15.8479 4.91051 15.5934 4.7777 15.3321C6.08849 14.2947 8.4519 12.4251 9.57597 11.5358C9.95335 11.2378 10.4744 11.2013 10.8903 11.4436L13.459 12.9488C13.9029 13.2083 14.4647 13.1482 14.842 12.7987L19.9969 8.03331C20.2164 8.52203 20.3895 9.03268 20.5143 9.56118C20.7762 10.6706 20.8131 11.7974 20.624 12.9104Z" fill="currentColor"/>
</svg>
