<svg width="24" height="24" viewBox="0 0 24 24" fill="none" xmlns="http://www.w3.org/2000/svg">
<g clip-path="url(#clip0_1_46)">
<path fill-rule="evenodd" clip-rule="evenodd" d="M19.8651 2C20.5951 2 21.2251 2.26 21.7351 2.77V2.76C22.2451 3.27 22.5051 3.9 22.5051 4.63V19.37C22.5051 20.1 22.2451 20.73 21.7351 21.24C21.2251 21.75 20.5951 22.01 19.8651 22.01H4.13512C3.40512 22.01 2.77512 21.75 2.26512 21.24C1.75512 20.73 1.49512 20.1 1.49512 19.37V16.0999H4.49512V13.8999H1.49512V10.0999H4.49512V7.8999H1.49512V4.64C1.49512 3.91 1.75512 3.28 2.26512 2.77C2.77512 2.26 3.40512 2 4.13512 2H19.8651ZM12.4951 16C14.7043 16 16.4951 14.2091 16.4951 12C16.4951 9.79086 14.7043 8 12.4951 8C10.286 8 8.49512 9.79086 8.49512 12C8.49512 14.2091 10.286 16 12.4951 16Z" fill="currentColor"/>
</g>
<defs>
<clipPath id="clip0_1_46">
<rect width="24" height="24" fill="white"/>
</clipPath>
</defs>
</svg>
