<svg width="24" height="24" viewBox="0 0 24 24" fill="none" xmlns="http://www.w3.org/2000/svg">
<path d="M5 21C4.45 21 3.97917 20.8042 3.5875 20.4125C3.19583 20.0208 3 19.55 3 19V5C3 4.45 3.19583 3.97917 3.5875 3.5875C3.97917 3.19583 4.45 3 5 3H13C13.2833 3 13.5208 3.09583 13.7125 3.2875C13.9042 3.47917 14 3.71667 14 4C14 4.28333 13.9042 4.52083 13.7125 4.7125C13.5208 4.90417 13.2833 5 13 5H5V19H19V11C19 10.7167 19.0958 10.4792 19.2875 10.2875C19.4792 10.0958 19.7167 10 20 10C20.2833 10 20.5208 10.0958 20.7125 10.2875C20.9042 10.4792 21 10.7167 21 11V19C21 19.55 20.8042 20.0208 20.4125 20.4125C20.0208 20.8042 19.55 21 19 21H5ZM9 17C8.71667 17 8.47917 16.9042 8.2875 16.7125C8.09583 16.5208 8 16.2833 8 16C8 15.7167 8.09583 15.4792 8.2875 15.2875C8.47917 15.0958 8.71667 15 9 15H15C15.2833 15 15.5208 15.0958 15.7125 15.2875C15.9042 15.4792 16 15.7167 16 16C16 16.2833 15.9042 16.5208 15.7125 16.7125C15.5208 16.9042 15.2833 17 15 17H9ZM9 14C8.71667 14 8.47917 13.9042 8.2875 13.7125C8.09583 13.5208 8 13.2833 8 13C8 12.7167 8.09583 12.4792 8.2875 12.2875C8.47917 12.0958 8.71667 12 9 12H15C15.2833 12 15.5208 12.0958 15.7125 12.2875C15.9042 12.4792 16 12.7167 16 13C16 13.2833 15.9042 13.5208 15.7125 13.7125C15.5208 13.9042 15.2833 14 15 14H9ZM9 11C8.71667 11 8.47917 10.9042 8.2875 10.7125C8.09583 10.5208 8 10.2833 8 10C8 9.71667 8.09583 9.47917 8.2875 9.2875C8.47917 9.09583 8.71667 9 9 9H15C15.2833 9 15.5208 9.09583 15.7125 9.2875C15.9042 9.47917 16 9.71667 16 10C16 10.2833 15.9042 10.5208 15.7125 10.7125C15.5208 10.9042 15.2833 11 15 11H9ZM18 9C17.7167 9 17.4792 8.90417 17.2875 8.7125C17.0958 8.52083 17 8.28333 17 8V7H16C15.7167 7 15.4792 6.90417 15.2875 6.7125C15.0958 6.52083 15 6.28333 15 6C15 5.71667 15.0958 5.47917 15.2875 5.2875C15.4792 5.09583 15.7167 5 16 5H17V4C17 3.71667 17.0958 3.47917 17.2875 3.2875C17.4792 3.09583 17.7167 3 18 3C18.2833 3 18.5208 3.09583 18.7125 3.2875C18.9042 3.47917 19 3.71667 19 4V5H20C20.2833 5 20.5208 5.09583 20.7125 5.2875C20.9042 5.47917 21 5.71667 21 6C21 6.28333 20.9042 6.52083 20.7125 6.7125C20.5208 6.90417 20.2833 7 20 7H19V8C19 8.28333 18.9042 8.52083 18.7125 8.7125C18.5208 8.90417 18.2833 9 18 9Z" fill="currentColor"/>
</svg>
