<svg width="24" height="24" viewBox="0 0 24 24" fill="none" xmlns="http://www.w3.org/2000/svg">
<g clip-path="url(#clip0_1_707)">
<path d="M7.74895 17.0022H13.1316C13.3359 17.0022 13.5182 16.9246 13.6783 16.7695C13.8384 16.6144 13.9185 16.4218 13.9185 16.1918C13.9185 15.9878 13.8384 15.8054 13.6783 15.6446C13.5182 15.4837 13.3359 15.4032 13.1316 15.4032H7.74895C7.51849 15.4032 7.32554 15.4841 7.17013 15.6458C7.01471 15.8076 6.937 15.9942 6.937 16.2056C6.937 16.4337 7.01471 16.6235 7.17013 16.775C7.32554 16.9264 7.51849 17.0022 7.74895 17.0022ZM7.74895 12.8011H16.2903C16.4946 12.8011 16.6769 12.7226 16.837 12.5655C16.9971 12.4085 17.0772 12.2136 17.0772 11.9808C17.0772 11.7646 16.9971 11.5808 16.837 11.4293C16.6769 11.2779 16.4946 11.2022 16.2903 11.2022H7.74895C7.51849 11.2022 7.32554 11.2797 7.17013 11.4348C7.01471 11.59 6.937 11.7742 6.937 11.9876C6.937 12.2176 7.01471 12.4107 7.17013 12.5668C7.32554 12.723 7.51849 12.8011 7.74895 12.8011ZM7.75365 8.57174H16.2903C16.4946 8.57174 16.6769 8.49322 16.837 8.33619C16.9971 8.17919 17.0772 7.98427 17.0772 7.75142C17.0772 7.54467 16.9971 7.36322 16.837 7.20707C16.6769 7.0509 16.4946 6.97282 16.2903 6.97282H7.75365C7.52185 6.97282 7.32779 7.05273 7.17148 7.21257C7.01516 7.3724 6.937 7.55664 6.937 7.76529C6.937 7.99059 7.01516 8.18132 7.17148 8.33749C7.32779 8.49366 7.52185 8.57174 7.75365 8.57174ZM4.6272 21.4522C4.06427 21.4522 3.57698 21.2463 3.16533 20.8347C2.75368 20.423 2.54785 19.9357 2.54785 19.3728V4.62717C2.54785 4.06035 2.75368 3.56973 3.16533 3.15532C3.57698 2.7409 4.06427 2.53369 4.6272 2.53369H19.3729C19.9397 2.53369 20.4303 2.7409 20.8447 3.15532C21.2591 3.56973 21.4663 4.06035 21.4663 4.62717V19.3728C21.4663 19.9357 21.2591 20.423 20.8447 20.8347C20.4303 21.2463 19.9397 21.4522 19.3729 21.4522H4.6272ZM4.6272 19.3728H19.3729V4.62717H4.6272V19.3728Z" fill="currentColor"/>
</g>
<defs>
<clipPath id="clip0_1_707">
<rect width="24" height="24" fill="white"/>
</clipPath>
</defs>
</svg>
