<svg width="24" height="24" viewBox="0 0 24 24" fill="none" xmlns="http://www.w3.org/2000/svg">
<path d="M11.9999 22.3238C11.887 22.3238 11.7802 22.3166 11.6794 22.3021C11.5786 22.2876 11.4882 22.2575 11.408 22.2119C8.99931 21.4325 7.09297 19.9742 5.68898 17.8368C4.285 15.6994 3.58301 13.3946 3.58301 10.9223V6.02872C3.58301 5.61514 3.69828 5.24152 3.92883 4.90787C4.15938 4.57422 4.46802 4.33063 4.85476 4.17709L11.339 1.75099C11.5469 1.68034 11.7672 1.64502 11.9999 1.64502C12.2325 1.64502 12.4611 1.68034 12.6857 1.75099L19.17 4.17709C19.5404 4.32298 19.8417 4.56392 20.0741 4.89992C20.3065 5.23594 20.4227 5.6122 20.4227 6.02872V10.9223C20.4227 13.3946 19.7197 15.6994 18.3137 17.8368C16.9077 19.9742 15.0087 21.4325 12.6167 22.2119C12.5199 22.2492 12.4211 22.2772 12.3203 22.2958C12.2195 22.3145 12.1127 22.3238 11.9999 22.3238Z" fill="currentColor"/>
<path d="M8.68439 7.19035C8.56146 7.31805 8.5 7.4726 8.5 7.6546C8.5 7.8366 8.56146 7.98936 8.68439 8.11229C8.80731 8.23521 8.95948 8.29668 9.14207 8.29668H11.19C11.5815 8.29668 11.9502 8.41065 12.2963 8.638C12.6424 8.86535 12.8608 9.16133 12.9515 9.52533H9.14207C8.96007 9.52533 8.80731 9.58679 8.68439 9.70971C8.56146 9.83264 8.5 9.9848 8.5 10.1674C8.5 10.35 8.56146 10.5022 8.68439 10.6251C8.80731 10.748 8.95948 10.8095 9.14207 10.8095H12.9515C12.8787 11.2648 12.6806 11.6061 12.3578 11.8334C12.0344 12.0608 11.668 12.1748 11.2586 12.1748H9.9751C9.7567 12.1748 9.56992 12.2523 9.41537 12.4069C9.26082 12.5614 9.18325 12.7482 9.18325 12.9666C9.18325 13.0943 9.2107 13.2286 9.265 13.3694C9.3193 13.5102 9.38792 13.6218 9.46967 13.7042L12.8561 17.3227C12.9289 17.3865 13.0064 17.4367 13.0882 17.4731C13.1699 17.5095 13.2565 17.528 13.3478 17.528C13.639 17.528 13.8419 17.4003 13.9552 17.1455C14.0692 16.8907 14.0256 16.6538 13.8257 16.4354L10.9991 13.4452H11.477C12.1871 13.4177 12.8059 13.1743 13.334 12.7148C13.8621 12.2553 14.176 11.6204 14.2763 10.8101H14.8772C15.0592 10.8101 15.2119 10.7486 15.3349 10.6257C15.4578 10.5028 15.5192 10.3506 15.5192 10.168C15.5192 9.9854 15.4578 9.83323 15.3349 9.71031C15.2119 9.58739 15.0598 9.52592 14.8772 9.52592H14.29C14.2351 9.33497 14.1372 9.1118 13.9964 8.857C13.8556 8.6022 13.7028 8.41542 13.5387 8.29727H14.8766C15.0586 8.29727 15.2113 8.23581 15.3343 8.11289C15.4572 7.98996 15.5186 7.8378 15.5186 7.6552C15.5186 7.4726 15.4572 7.31865 15.3343 7.19095C15.2113 7.06325 15.0592 7 14.8766 7H9.14148C8.95948 7 8.80731 7.06325 8.68439 7.19035Z" fill="white"/>
</svg>
