<svg width="24" height="24" viewBox="0 0 24 24" fill="none" xmlns="http://www.w3.org/2000/svg">
<path d="M1.89793 10.5339C2.43151 10.3913 2.9796 10.7084 3.12213 11.2419C3.13986 11.3083 3.16574 11.3733 3.20227 11.4387L3.20814 11.4493C4.11125 13.1146 5.33577 14.4466 6.88806 15.4592C8.41789 16.4556 10.1026 16.953 11.967 16.953C13.8314 16.953 15.5162 16.4556 17.046 15.4592C18.5981 14.4477 19.8228 13.1158 20.727 11.4491L20.7327 11.4387C20.7713 11.3695 20.7961 11.3063 20.8113 11.2481C20.9504 10.7136 21.4964 10.3931 22.0309 10.5322C22.5654 10.6714 22.8859 11.2174 22.7468 11.7519C22.6864 11.9837 22.5963 12.2025 22.4824 12.4077C22.1056 13.1015 21.6794 13.7485 21.204 14.3479L22.715 16.2312C23.0606 16.662 22.9916 17.2914 22.5608 17.637C22.1301 17.9826 21.5007 17.9136 21.155 17.4828L19.8269 15.8274C19.3058 16.3047 18.7428 16.7407 18.138 17.1348C17.5942 17.489 17.0327 17.7916 16.4545 18.0423L17.1122 20.1892C17.274 20.7172 16.977 21.2765 16.449 21.4382C15.9209 21.6 15.3617 21.3031 15.1999 20.775L14.554 18.6665C13.7211 18.8575 12.8583 18.953 11.967 18.953C11.0761 18.953 10.2136 18.8575 9.38108 18.6667L8.73522 20.775C8.57345 21.3031 8.01423 21.6 7.48617 21.4382C6.95811 21.2765 6.66117 20.7172 6.82293 20.1892L7.48048 18.0427C6.90194 17.7919 6.34032 17.4893 5.79624 17.1349C5.19197 16.7408 4.62877 16.3045 4.10808 15.8275L2.78002 17.4828C2.43441 17.9136 1.80501 17.9826 1.37424 17.637C0.943465 17.2914 0.874432 16.662 1.22005 16.2312L2.7309 14.3481C2.25544 13.7485 1.8292 13.1014 1.45257 12.4075C1.33669 12.1988 1.24961 11.9817 1.18988 11.7581C1.04735 11.2245 1.36436 10.6764 1.89793 10.5339Z" fill="currentColor"/>
</svg>
