<svg xmlns="http://www.w3.org/2000/svg" width="24" height="24" fill="none" xmlns:v="https://vecta.io/nano"><g clip-path="url(#A)"><path d="M12 22c-1.383 0-2.683-.262-3.9-.788s-2.275-1.237-3.175-2.137-1.612-1.958-2.137-3.175S2 13.383 2 12s.263-2.683.788-3.9 1.238-2.275 2.137-3.175S6.883 3.313 8.1 2.788 10.617 2 12 2s2.683.263 3.9.788 2.275 1.238 3.175 2.137 1.613 1.958 2.137 3.175S22 10.617 22 12s-.262 2.683-.788 3.9-1.237 2.275-2.137 3.175-1.958 1.613-3.175 2.137S13.383 22 12 22zm0-2c2.233 0 4.125-.775 5.675-2.325S20 14.233 20 12s-.775-4.125-2.325-5.675S14.233 4 12 4s-4.125.775-5.675 2.325S4 9.767 4 12s.775 4.125 2.325 5.675S9.767 20 12 20z" fill="currentColor"/><path d="M14.349 18h-1.194a.38.38 0 0 1-.251-.079.61.61 0 0 1-.142-.22l-2.074-4.054H8.409c-.094 0-.178-.031-.251-.094-.073-.073-.11-.162-.11-.267v-.66c0-.105.037-.194.11-.267s.157-.11.251-.11h2.703c.283 0 .55-.047.802-.141a1.54 1.54 0 0 0 .644-.471c.178-.22.288-.492.33-.817h-4.51c-.105 0-.194-.037-.267-.11-.063-.073-.094-.157-.094-.252v-.471c0-.094.031-.178.094-.251.073-.073.162-.11.267-.11h4.51c-.052-.356-.168-.639-.346-.849-.168-.21-.377-.356-.628-.44-.252-.094-.519-.141-.802-.141h-2.75c-.105 0-.194-.031-.267-.094C8.031 8.027 8 7.938 8 7.833v-.456c0-.105.031-.194.094-.267.073-.073.162-.11.267-.11h7.386c.073 0 .142.031.204.094a.24.24 0 0 1 .11.204v.597c0 .084-.037.157-.11.22-.063.052-.131.079-.204.079h-1.948a2 2 0 0 1 .487.613c.126.241.215.513.267.817h1.194c.073 0 .142.031.204.094a.24.24 0 0 1 .11.204v.597c0 .084-.037.157-.11.22-.063.052-.131.079-.204.079h-1.131c-.042.649-.236 1.215-.581 1.697s-.875.828-1.587 1.037l2.043 3.866.079.173a.35.35 0 0 1 .031.157c0 .168-.084.251-.251.251z" fill="currentColor"/></g><defs><clipPath id="A"><path fill="currentColor" d="M0 0h24v24H0z"/></clipPath></defs></svg>