<svg width="24" height="24" viewBox="0 0 24 24" fill="none" xmlns="http://www.w3.org/2000/svg">
<path d="M15.85 16C15.6167 16 15.4167 15.9167 15.25 15.75C15.0833 15.5833 15 15.3833 15 15.15V11.85C15 11.6167 15.0833 11.4167 15.25 11.25C15.4167 11.0833 15.6167 11 15.85 11H16V10C16 9.45 16.1958 8.97917 16.5875 8.5875C16.9792 8.19583 17.45 8 18 8C18.55 8 19.0208 8.19583 19.4125 8.5875C19.8042 8.97917 20 9.45 20 10V11H20.15C20.3833 11 20.5833 11.0833 20.75 11.25C20.9167 11.4167 21 11.6167 21 11.85V15.15C21 15.3833 20.9167 15.5833 20.75 15.75C20.5833 15.9167 20.3833 16 20.15 16H15.85ZM17 11H19V10C19 9.71667 18.9042 9.47917 18.7125 9.2875C18.5208 9.09583 18.2833 9 18 9C17.7167 9 17.4792 9.09583 17.2875 9.2875C17.0958 9.47917 17 9.71667 17 10V11ZM7 23C6.45 23 5.97917 22.8042 5.5875 22.4125C5.19583 22.0208 5 21.55 5 21V3C5 2.45 5.19583 1.97917 5.5875 1.5875C5.97917 1.19583 6.45 1 7 1H17C17.55 1 18.0208 1.19583 18.4125 1.5875C18.8042 1.97917 19 2.45 19 3V6C19 6.28333 18.9042 6.52083 18.7125 6.7125C18.5208 6.90417 18.2833 7 18 7C17.7167 7 17.4792 6.90417 17.2875 6.7125C17.0958 6.52083 17 6.28333 17 6H7V18H17C17 17.7167 17.0958 17.4792 17.2875 17.2875C17.4792 17.0958 17.7167 17 18 17C18.2833 17 18.5208 17.0958 18.7125 17.2875C18.9042 17.4792 19 17.7167 19 18V21C19 21.55 18.8042 22.0208 18.4125 22.4125C18.0208 22.8042 17.55 23 17 23H7ZM7 20V21H17V20H7ZM7 4H17V3H7V4Z" fill="currentColor"/>
</svg>
