<svg width="24" height="24" viewBox="0 0 24 24" fill="none" xmlns="http://www.w3.org/2000/svg">
<g clip-path="url(#clip0_1_261)">
<path d="M11 12V4C11 3.71667 11.0958 3.47917 11.2875 3.2875C11.4792 3.09583 11.7167 3 12 3C12.2833 3 12.5208 3.09583 12.7125 3.2875C12.9042 3.47917 13 3.71667 13 4V12C13 12.2833 12.9042 12.5208 12.7125 12.7125C12.5208 12.9042 12.2833 13 12 13C11.7167 13 11.4792 12.9042 11.2875 12.7125C11.0958 12.5208 11 12.2833 11 12ZM12 21C10.7667 21 9.60417 20.7625 8.5125 20.2875C7.42083 19.8125 6.46667 19.1667 5.65 18.35C4.83333 17.5333 4.1875 16.5792 3.7125 15.4875C3.2375 14.3958 3 13.2333 3 12C3 10.85 3.2125 9.74583 3.6375 8.6875C4.0625 7.62917 4.65833 6.68333 5.425 5.85C5.60833 5.65 5.84167 5.55 6.125 5.55C6.40833 5.55 6.65 5.65 6.85 5.85C7.03333 6.03333 7.11667 6.2625 7.1 6.5375C7.08333 6.8125 6.98333 7.05833 6.8 7.275C6.23333 7.90833 5.79167 8.62917 5.475 9.4375C5.15833 10.2458 5 11.1 5 12C5 13.9333 5.68333 15.5833 7.05 16.95C8.41667 18.3167 10.0667 19 12 19C13.95 19 15.6042 18.3167 16.9625 16.95C18.3208 15.5833 19 13.9333 19 12C19 11.1 18.8417 10.2375 18.525 9.4125C18.2083 8.5875 17.7583 7.85833 17.175 7.225C16.9917 7.025 16.8958 6.79167 16.8875 6.525C16.8792 6.25833 16.9667 6.03333 17.15 5.85C17.35 5.65 17.5917 5.55 17.875 5.55C18.1583 5.55 18.3917 5.65 18.575 5.85C19.3583 6.68333 19.9583 7.62917 20.375 8.6875C20.7917 9.74583 21 10.85 21 12C21 13.2333 20.7625 14.3958 20.2875 15.4875C19.8125 16.5792 19.1708 17.5333 18.3625 18.35C17.5542 19.1667 16.6042 19.8125 15.5125 20.2875C14.4208 20.7625 13.25 21 12 21Z" fill="currentColor"/>
</g>
<defs>
<clipPath id="clip0_1_261">
<rect width="24" height="24" fill="white"/>
</clipPath>
</defs>
</svg>
