<svg width="24" height="24" viewBox="0 0 24 24" fill="none" xmlns="http://www.w3.org/2000/svg">
<path d="M21 16.55C21 16.8334 20.9042 17.0709 20.7125 17.2625C20.5208 17.4542 20.2833 17.55 20 17.55C19.7167 17.55 19.4792 17.4542 19.2875 17.2625C19.0958 17.0709 19 16.8334 19 16.55C18.9 15.7167 18.7292 14.9209 18.4875 14.1625C18.2458 13.4042 17.9333 12.6834 17.55 12L15 14.875C14.6167 15.3084 14.1417 15.5334 13.575 15.55C13.0083 15.5667 12.5167 15.375 12.1 14.975L9.50001 12.4L4.12501 17.775C3.92501 17.975 3.68751 18.0709 3.41251 18.0625C3.13751 18.0542 2.90001 17.95 2.70001 17.75C2.51668 17.55 2.42085 17.3167 2.41251 17.05C2.40418 16.7834 2.50001 16.55 2.70001 16.35L8.07501 10.975C8.45835 10.5917 8.93335 10.4 9.50001 10.4C10.0667 10.4 10.5417 10.5917 10.925 10.975L13.5 13.55L16.4 10.3C15.55 9.30005 14.55 8.50838 13.4 7.92505C12.25 7.34172 10.9833 7.05005 9.60001 7.05005C8.41668 7.05005 7.30001 7.27088 6.25001 7.71255C5.20001 8.15422 4.25001 8.75005 3.40001 9.50005C3.30001 9.58338 3.19168 9.65005 3.07501 9.70005C2.95835 9.75005 2.83335 9.77505 2.70001 9.77505C2.41668 9.77505 2.17918 9.67922 1.98751 9.48755C1.79585 9.29588 1.70001 9.05838 1.70001 8.77505C1.70001 8.64172 1.72501 8.50838 1.77501 8.37505C1.82501 8.24172 1.90001 8.13338 2.00001 8.05005C3.01668 7.13338 4.17501 6.40422 5.47501 5.86255C6.77501 5.32088 8.15001 5.05005 9.60001 5.05005C11.2333 5.05005 12.7417 5.37922 14.125 6.03755C15.5083 6.69588 16.7167 7.61672 17.75 8.80005L19.875 6.37505C20.0583 6.14172 20.3 6.02088 20.6 6.01255C20.9 6.00422 21.15 6.10838 21.35 6.32505C21.5333 6.50838 21.6292 6.73338 21.6375 7.00005C21.6458 7.26672 21.5583 7.50005 21.375 7.70005L19 10.4C19.4833 11.1834 19.9375 12.175 20.3625 13.375C20.7875 14.575 21 15.6334 21 16.55Z" fill="currentColor"/>
</svg>
