<svg width="24" height="24" viewBox="0 0 24 24" fill="none" xmlns="http://www.w3.org/2000/svg">
<g clip-path="url(#clip0_1_61)">
<path d="M20.6701 4.57007H3.33011C2.67011 4.57007 2.04011 4.83007 1.58011 5.30007C1.12011 5.76007 0.860107 6.39007 0.860107 7.05007V16.9601C0.860107 17.6201 1.12011 18.2501 1.58011 18.7101C2.04011 19.1701 2.67011 19.4401 3.33011 19.4401H20.6701C21.3301 19.4401 21.9601 19.1801 22.4201 18.7101C22.8801 18.2501 23.1401 17.6201 23.1401 16.9601V7.05007C23.1401 6.39007 22.8801 5.76007 22.4201 5.30007C21.9601 4.84007 21.3301 4.57007 20.6701 4.57007ZM12.0001 15.5001C11.3101 15.5001 10.6301 15.2901 10.0501 14.9101C9.47011 14.5201 9.02011 13.9801 8.76011 13.3401C8.50011 12.7001 8.43011 12.0001 8.56011 11.3201C8.70011 10.6401 9.03011 10.0201 9.52011 9.53007C10.0101 9.04007 10.6301 8.71007 11.3101 8.57007C11.9901 8.43007 12.6901 8.50007 13.3301 8.77007C13.9701 9.04007 14.5201 9.48007 14.9001 10.0601C15.2901 10.6401 15.4901 11.3101 15.4901 12.0101C15.4901 12.9401 15.1201 13.8301 14.4601 14.4901C13.8001 15.1501 12.9101 15.5201 11.9801 15.5201L12.0001 15.5001Z" fill="currentColor"/>
</g>
<defs>
<clipPath id="clip0_1_61">
<rect width="24" height="24" fill="white"/>
</clipPath>
</defs>
</svg>
