<svg width="24" height="24" viewBox="0 0 24 24" fill="none" xmlns="http://www.w3.org/2000/svg">
<path d="M19.8 22.6L1.4 4.2C1.21667 4.01667 1.125 3.78333 1.125 3.5C1.125 3.21667 1.21667 2.98333 1.4 2.8C1.58333 2.61667 1.81667 2.525 2.1 2.525C2.38333 2.525 2.61667 2.61667 2.8 2.8L21.2 21.2C21.3833 21.3833 21.475 21.6167 21.475 21.9C21.475 22.1833 21.3833 22.4167 21.2 22.6C21.0167 22.7833 20.7833 22.875 20.5 22.875C20.2167 22.875 19.9833 22.7833 19.8 22.6ZM5 6.425L7 8.425V18H16.6L19 20.4V21C19 21.55 18.8042 22.0208 18.4125 22.4125C18.0208 22.8042 17.55 23 17 23H7C6.45 23 5.97917 22.8042 5.5875 22.4125C5.19583 22.0208 5 21.55 5 21V6.425ZM7 20V21H17V20H7ZM8.975 6C8.69167 6 8.45833 5.90417 8.275 5.7125C8.09167 5.52083 8 5.28333 8 5C8 4.71667 8.09583 4.47917 8.2875 4.2875C8.47917 4.09583 8.71667 4 9 4H17V3H6.5C6.21667 3 5.97917 2.90417 5.7875 2.7125C5.59583 2.52083 5.5 2.28333 5.5 2C5.5 1.71667 5.59583 1.47917 5.7875 1.2875C5.97917 1.09583 6.21667 1 6.5 1H17C17.55 1 18.0208 1.19583 18.4125 1.5875C18.8042 1.97917 19 2.45 19 3V15C19 15.2833 18.9042 15.5208 18.7125 15.7125C18.5208 15.9042 18.2833 16 18 16C17.7167 16 17.4792 15.9042 17.2875 15.7125C17.0958 15.5208 17 15.2833 17 15V6H8.975Z" fill="currentColor"/>
</svg>
