<svg width="24" height="24" viewBox="0 0 24 24" fill="none" xmlns="http://www.w3.org/2000/svg">
<g clip-path="url(#clip0_1_245)">
<path d="M15.075 17.5001C14.8083 17.5001 14.575 17.4042 14.375 17.2126C14.175 17.0209 14.075 16.7751 14.075 16.4751V7.32505C14.075 7.02505 14.175 6.77922 14.375 6.58755C14.575 6.39588 14.8083 6.30005 15.075 6.30005C15.2083 6.30005 15.3333 6.32505 15.45 6.37505C15.5667 6.42505 15.675 6.50005 15.775 6.60005L20.375 11.2001C20.475 11.3001 20.5458 11.4084 20.5875 11.5251C20.6292 11.6417 20.65 11.7667 20.65 11.9001C20.65 12.0334 20.6292 12.1584 20.5875 12.2751C20.5458 12.3917 20.475 12.5001 20.375 12.6001L15.775 17.2001C15.675 17.3001 15.5667 17.3751 15.45 17.4251C15.3333 17.4751 15.2083 17.5001 15.075 17.5001Z" fill="currentColor"/>
<path d="M9.075 6.30005C9.34167 6.30005 9.575 6.39588 9.775 6.58755C9.975 6.77921 10.075 7.02505 10.075 7.32505L10.075 16.475C10.075 16.775 9.975 17.0209 9.775 17.2125C9.575 17.4042 9.34167 17.5 9.075 17.5C8.94167 17.5 8.81667 17.475 8.7 17.425C8.58333 17.375 8.475 17.3 8.375 17.2L3.775 12.6C3.675 12.5 3.60417 12.3917 3.5625 12.275C3.52083 12.1584 3.5 12.0334 3.5 11.9C3.5 11.7667 3.52083 11.6417 3.5625 11.525C3.60417 11.4084 3.675 11.3 3.775 11.2L8.375 6.60005C8.475 6.50005 8.58333 6.42505 8.7 6.37505C8.81667 6.32505 8.94167 6.30005 9.075 6.30005Z" fill="currentColor"/>
</g>
<defs>
<clipPath id="clip0_1_245">
<rect width="24" height="24" fill="white"/>
</clipPath>
</defs>
</svg>
