<svg width="24" height="24" viewBox="0 0 24 24" fill="none" xmlns="http://www.w3.org/2000/svg">
<g clip-path="url(#clip0_1_145)">
<path d="M3.54889 21.4299C3.26229 21.4299 3.02751 21.3384 2.84454 21.1554C2.66156 20.9724 2.57007 20.7377 2.57007 20.4511V18.4282C2.57007 18.1795 2.62245 17.9312 2.72722 17.6834C2.83198 17.4355 2.9729 17.2225 3.14997 17.0445L17.1965 2.99806C17.3325 2.87471 17.4908 2.77571 17.6712 2.70106C17.8517 2.62643 18.0481 2.58911 18.2603 2.58911C18.4419 2.58911 18.619 2.62326 18.7918 2.69156C18.9646 2.75986 19.132 2.85434 19.294 2.97499L21.0309 4.69999C21.1722 4.86194 21.2751 5.03319 21.3394 5.21374C21.4037 5.3943 21.4358 5.57585 21.4358 5.75839C21.4358 5.95785 21.3995 6.15107 21.3269 6.33804C21.2542 6.52499 21.1556 6.68079 21.0309 6.80544L6.96737 20.85C6.7854 21.0271 6.57147 21.168 6.32557 21.2727C6.07967 21.3775 5.83237 21.4299 5.58367 21.4299H3.54889ZM18.3282 6.74674L19.3282 5.73369L18.2972 4.69674L17.2722 5.69674L18.3282 6.74674Z" fill="currentColor"/>
</g>
<defs>
<clipPath id="clip0_1_145">
<rect width="24" height="24" fill="white"/>
</clipPath>
</defs>
</svg>
