<svg width="24" height="24" viewBox="0 0 24 24" fill="none" xmlns="http://www.w3.org/2000/svg">
<path d="M2 12C1.71666 12 1.475 11.9125 1.275 11.7375C1.075 11.5625 0.991662 11.35 1.025 11.1C1.14166 9.68333 1.50833 8.35833 2.125 7.125C2.74166 5.89167 3.54166 4.82083 4.525 3.9125C5.50833 3.00417 6.64166 2.29167 7.925 1.775C9.20833 1.25833 10.5667 1 12 1C13.4333 1 14.7917 1.25833 16.075 1.775C17.3583 2.29167 18.4917 3.00417 19.475 3.9125C20.4583 4.82083 21.2583 5.89167 21.875 7.125C22.4917 8.35833 22.8583 9.68333 22.975 11.1C23.0083 11.35 22.925 11.5625 22.725 11.7375C22.525 11.9125 22.2833 12 22 12C21.7333 12 21.5 11.9167 21.3 11.75C21.1 11.5833 20.9833 11.3667 20.95 11.1C20.7167 8.8 19.75 6.875 18.05 5.325C16.35 3.775 14.3333 3 12 3C9.66666 3 7.65 3.775 5.95 5.325C4.25 6.875 3.28333 8.8 3.05 11.1C3.01666 11.3667 2.9 11.5833 2.7 11.75C2.5 11.9167 2.26666 12 2 12ZM6 12C5.71666 12 5.47916 11.9083 5.2875 11.725C5.09583 11.5417 5.01666 11.325 5.05 11.075C5.28333 9.34167 6.05416 7.89583 7.3625 6.7375C8.67083 5.57917 10.2167 5 12 5C13.7833 5 15.3292 5.57917 16.6375 6.7375C17.9458 7.89583 18.7167 9.34167 18.95 11.075C18.9833 11.325 18.9042 11.5417 18.7125 11.725C18.5208 11.9083 18.2833 12 18 12C17.7333 12 17.4958 11.9292 17.2875 11.7875C17.0792 11.6458 16.9583 11.45 16.925 11.2C16.725 10 16.1667 9 15.25 8.2C14.3333 7.4 13.25 7 12 7C10.75 7 9.66666 7.4 8.75 8.2C7.83333 9 7.275 10 7.075 11.2C7.04166 11.45 6.92083 11.6458 6.7125 11.7875C6.50416 11.9292 6.26666 12 6 12ZM12 19.4L9.7 21.7C9.51666 21.8833 9.28333 21.975 9 21.975C8.71666 21.975 8.48333 21.8833 8.3 21.7C8.11666 21.5167 8.025 21.2833 8.025 21C8.025 20.7167 8.11666 20.4833 8.3 20.3L11 17.6V14.3C10.55 14.1 10.1875 13.7917 9.9125 13.375C9.6375 12.9583 9.5 12.5 9.5 12C9.5 11.3 9.74166 10.7083 10.225 10.225C10.7083 9.74167 11.3 9.5 12 9.5C12.7 9.5 13.2917 9.74167 13.775 10.225C14.2583 10.7083 14.5 11.3 14.5 12C14.5 12.5 14.3625 12.9583 14.0875 13.375C13.8125 13.7917 13.45 14.1 13 14.3V17.6L15.7 20.3C15.8833 20.4833 15.975 20.7167 15.975 21C15.975 21.2833 15.8833 21.5167 15.7 21.7C15.5167 21.8833 15.2833 21.975 15 21.975C14.7167 21.975 14.4833 21.8833 14.3 21.7L12 19.4Z" fill="currentColor"/>
</svg>
