<svg width="24" height="24" viewBox="0 0 24 24" fill="none" xmlns="http://www.w3.org/2000/svg">
<path d="M19.075 21.9L14.175 17H12C11.45 17 10.9792 16.8042 10.5875 16.4125C10.1958 16.0208 10 15.55 10 15V12.825L2.10001 4.925C1.91668 4.74167 1.82501 4.5125 1.82501 4.2375C1.82501 3.9625 1.91668 3.725 2.10001 3.525C2.30001 3.325 2.53751 3.225 2.81251 3.225C3.08751 3.225 3.32501 3.325 3.52501 3.525L20.5 20.5C20.7 20.7 20.7958 20.9333 20.7875 21.2C20.7792 21.4667 20.675 21.7 20.475 21.9C20.275 22.0833 20.0417 22.1792 19.775 22.1875C19.5083 22.1958 19.275 22.1 19.075 21.9ZM10 22C8.61668 22 7.43751 21.5125 6.46251 20.5375C5.48751 19.5625 5.00001 18.3833 5.00001 17C5.00001 15.7833 5.37918 14.7208 6.13751 13.8125C6.89585 12.9042 7.85001 12.3333 9.00001 12.1V14.175C8.41668 14.3917 7.93751 14.7542 7.56251 15.2625C7.18751 15.7708 7.00001 16.35 7.00001 17C7.00001 17.8333 7.29168 18.5417 7.87501 19.125C8.45835 19.7083 9.16668 20 10 20C10.65 20 11.2333 19.8125 11.75 19.4375C12.2667 19.0625 12.625 18.5833 12.825 18H14.9C14.6667 19.15 14.0958 20.1042 13.1875 20.8625C12.2792 21.6208 11.2167 22 10 22ZM12 6C11.45 6 10.9792 5.80417 10.5875 5.4125C10.1958 5.02083 10 4.55 10 4C10 3.45 10.1958 2.97917 10.5875 2.5875C10.9792 2.19583 11.45 2 12 2C12.55 2 13.0208 2.19583 13.4125 2.5875C13.8042 2.97917 14 3.45 14 4C14 4.55 13.8042 5.02083 13.4125 5.4125C13.0208 5.80417 12.55 6 12 6ZM19 12C19 12.2833 18.8958 12.5167 18.6875 12.7C18.4792 12.8833 18.2417 12.95 17.975 12.9C17.2417 12.7667 16.5292 12.5333 15.8375 12.2C15.1458 11.8667 14.5333 11.4833 14 11.05L10.575 7.625C10.7417 7.44167 10.9333 7.29583 11.15 7.1875C11.3667 7.07917 11.65 7.025 12 7.025C12.25 7.025 12.525 7.08333 12.825 7.2C13.125 7.31667 13.4 7.5 13.65 7.75L14.925 9.175C15.3083 9.60833 15.7667 9.975 16.3 10.275C16.8333 10.575 17.3917 10.7833 17.975 10.9C18.2583 10.95 18.5 11.075 18.7 11.275C18.9 11.475 19 11.7167 19 12Z" fill="currentColor"/>
</svg>
