<svg width="24" height="24" viewBox="0 0 24 24" fill="none" xmlns="http://www.w3.org/2000/svg">
<path d="M10.6249 21C10.2416 21 9.91658 20.85 9.64991 20.55C9.38325 20.25 9.28325 19.9083 9.34991 19.525C9.39991 19.2083 9.54575 18.95 9.78741 18.75C10.0291 18.55 10.3082 18.45 10.6249 18.45H11.8499L13.8999 5.55H11.3999L10.8499 8.95C10.7999 9.26667 10.6541 9.52917 10.4124 9.7375C10.1707 9.94583 9.88325 10.05 9.54991 10.05C9.14991 10.05 8.82075 9.89583 8.56241 9.5875C8.30408 9.27917 8.20825 8.925 8.27491 8.525L8.94991 4.25C9.01658 3.88333 9.18741 3.58333 9.46241 3.35C9.73741 3.11667 10.0582 3 10.4249 3H20.3749C20.8416 3 21.2249 3.175 21.5249 3.525C21.8249 3.875 21.9332 4.275 21.8499 4.725L21.1749 8.95C21.1249 9.26667 20.9791 9.52917 20.7374 9.7375C20.4957 9.94583 20.2082 10.05 19.8749 10.05C19.4749 10.05 19.1416 9.9 18.8749 9.6C18.6082 9.3 18.5082 8.95 18.5749 8.55L19.0499 5.55H16.5499L14.4999 18.45H15.3249C15.7082 18.45 16.0332 18.6 16.2999 18.9C16.5666 19.2 16.6666 19.5417 16.5999 19.925C16.5499 20.2417 16.4041 20.5 16.1624 20.7C15.9207 20.9 15.6416 21 15.3249 21H10.6249ZM4.92491 7C4.60825 7 4.35408 6.88333 4.16241 6.65C3.97075 6.41667 3.89991 6.15 3.94991 5.85C3.98325 5.61667 4.09158 5.41667 4.27491 5.25C4.45825 5.08333 4.67491 5 4.92491 5H7.82491L7.49991 7H4.92491ZM4.29991 11C3.98325 11 3.72908 10.8833 3.53741 10.65C3.34575 10.4167 3.27491 10.15 3.32491 9.85C3.35825 9.61667 3.46658 9.41667 3.64991 9.25C3.83325 9.08333 4.04991 9 4.29991 9H7.19991L6.87491 11H4.29991ZM3.02491 19C2.72491 19 2.47491 18.8833 2.27491 18.65C2.07491 18.4167 1.99991 18.15 2.04991 17.85C2.08325 17.6 2.19158 17.3958 2.37491 17.2375C2.55825 17.0792 2.77491 17 3.02491 17H8.42491L8.12491 19H3.02491ZM3.67491 15C3.35825 15 3.10408 14.8833 2.91241 14.65C2.72075 14.4167 2.64991 14.15 2.69991 13.85C2.73325 13.6167 2.84158 13.4167 3.02491 13.25C3.20825 13.0833 3.42491 13 3.67491 13H9.07491L8.74991 15H3.67491Z" fill="currentColor"/>
</svg>
