<svg width="24" height="24" viewBox="0 0 24 24" fill="none" xmlns="http://www.w3.org/2000/svg">
<path d="M15.825 12.9999L13.825 10.9999H15.55L18.3 5.9999H8.825L6.825 3.9999H19.95C20.3333 3.9999 20.6292 4.1624 20.8375 4.4874C21.0458 4.8124 21.05 5.16657 20.85 5.5499L17.3 11.9499C17.1167 12.2832 16.8792 12.5416 16.5875 12.7249C16.2958 12.9082 16.0417 12.9999 15.825 12.9999ZM7 21.9999C6.45 21.9999 5.97917 21.8041 5.5875 21.4124C5.19583 21.0207 5 20.5499 5 19.9999C5 19.4499 5.19583 18.9791 5.5875 18.5874C5.97917 18.1957 6.45 17.9999 7 17.9999C7.55 17.9999 8.02083 18.1957 8.4125 18.5874C8.80417 18.9791 9 19.4499 9 19.9999C9 20.5499 8.80417 21.0207 8.4125 21.4124C8.02083 21.8041 7.55 21.9999 7 21.9999ZM19.8 22.5999L14.15 16.9999H7.6C6.86667 16.9999 6.30833 16.6874 5.925 16.0624C5.54167 15.4374 5.51667 14.7832 5.85 14.0999L6.9 11.9499L5.1 7.8999L1.4 4.1999C1.21667 4.01657 1.125 3.78324 1.125 3.4999C1.125 3.21657 1.21667 2.98324 1.4 2.7999C1.58333 2.61657 1.81667 2.5249 2.1 2.5249C2.38333 2.5249 2.61667 2.61657 2.8 2.7999L21.2 21.1999C21.3833 21.3832 21.4792 21.6124 21.4875 21.8874C21.4958 22.1624 21.4 22.3999 21.2 22.5999C21.0167 22.7832 20.7833 22.8749 20.5 22.8749C20.2167 22.8749 19.9833 22.7832 19.8 22.5999ZM12.15 14.9999L10.15 12.9999H8.6L7.6 14.9999H12.15ZM17 21.9999C16.45 21.9999 15.9792 21.8041 15.5875 21.4124C15.1958 21.0207 15 20.5499 15 19.9999C15 19.4499 15.1958 18.9791 15.5875 18.5874C15.9792 18.1957 16.45 17.9999 17 17.9999C17.55 17.9999 18.0208 18.1957 18.4125 18.5874C18.8042 18.9791 19 19.4499 19 19.9999C19 20.5499 18.8042 21.0207 18.4125 21.4124C18.0208 21.8041 17.55 21.9999 17 21.9999Z" fill="currentColor"/>
</svg>
