<svg width="24" height="24" viewBox="0 0 24 24" fill="none" xmlns="http://www.w3.org/2000/svg">
<path d="M12.123 17.0789C11.407 17.0789 10.7659 16.9139 10.2009 16.5819L10.2 16.581C9.64395 16.249 9.20496 15.787 8.88194 15.196C8.55894 14.6039 8.39795 13.9189 8.39795 13.1389V11.3369C8.39795 10.5479 8.55894 9.86295 8.88194 9.27994C9.20496 8.68796 9.64395 8.22696 10.2 7.89496C10.7639 7.56393 11.405 7.39795 12.1219 7.39795C12.8389 7.39795 13.4529 7.54996 13.9639 7.85495C14.4839 8.15094 14.8869 8.54095 15.174 9.02496C15.461 9.49994 15.6219 10.011 15.6579 10.558C15.6759 10.782 15.577 10.894 15.362 10.894H13.991C13.9189 10.894 13.8479 10.8669 13.776 10.813C13.713 10.7599 13.6729 10.6649 13.655 10.5309C13.6189 10.3159 13.543 10.11 13.4259 9.91296C13.31 9.71594 13.144 9.55396 12.929 9.42896C12.7229 9.29395 12.4539 9.22696 12.1219 9.22696C11.7999 9.22696 11.504 9.31195 11.235 9.48196C10.9659 9.64395 10.7509 9.88095 10.59 10.1949C10.429 10.5089 10.3479 10.899 10.3479 11.365V13.14C10.3479 13.597 10.429 13.982 10.59 14.296C10.7509 14.61 10.9659 14.848 11.235 15.0089C11.504 15.17 11.799 15.2509 12.1219 15.2509C12.6149 15.2509 12.9819 15.1259 13.224 14.8749C13.4749 14.615 13.618 14.3239 13.6539 14.0009C13.672 13.903 13.6989 13.809 13.735 13.719C13.78 13.6289 13.8699 13.584 14.004 13.584H15.3889C15.4879 13.584 15.5639 13.62 15.618 13.692C15.672 13.7639 15.694 13.835 15.685 13.907C15.6499 14.4359 15.4839 14.942 15.1879 15.426C14.8929 15.9089 14.485 16.308 13.965 16.6219C13.4539 16.9269 12.8389 17.0789 12.123 17.0789Z" fill="currentColor"/>
<path fill-rule="evenodd" clip-rule="evenodd" d="M5 3H19C20.105 3 21 3.89499 21 5V19C21 20.105 20.105 21 19 21H5C3.895 21 3 20.105 3 19V5C3 3.89499 3.895 3 5 3ZM5 19H19V5H5V19Z" fill="currentColor"/>
</svg>
