<svg width="24" height="24" viewBox="0 0 24 24" fill="none" xmlns="http://www.w3.org/2000/svg">
<path d="M11.45 17C11.75 17 12.0458 16.9625 12.3375 16.8875C12.6292 16.8125 12.9 16.7 13.15 16.55L14.9 18.3C15.0833 18.4833 15.3167 18.575 15.6 18.575C15.8833 18.575 16.1167 18.4833 16.3 18.3C16.4833 18.1167 16.575 17.8833 16.575 17.6C16.575 17.3167 16.4833 17.0833 16.3 16.9L14.55 15.15C14.7 14.9 14.8125 14.6292 14.8875 14.3375C14.9625 14.0458 15 13.75 15 13.45C15 12.4833 14.6583 11.6667 13.975 11C13.2917 10.3333 12.4667 10 11.5 10C10.5333 10 9.70833 10.3417 9.025 11.025C8.34167 11.7083 8 12.5333 8 13.5C8 14.4667 8.33333 15.2917 9 15.975C9.66667 16.6583 10.4833 17 11.45 17ZM11.5 15C11.0833 15 10.7292 14.8542 10.4375 14.5625C10.1458 14.2708 10 13.9167 10 13.5C10 13.0833 10.1458 12.7292 10.4375 12.4375C10.7292 12.1458 11.0833 12 11.5 12C11.9167 12 12.2708 12.1458 12.5625 12.4375C12.8542 12.7292 13 13.0833 13 13.5C13 13.9167 12.8542 14.2708 12.5625 14.5625C12.2708 14.8542 11.9167 15 11.5 15ZM6 22C5.45 22 4.97917 21.8042 4.5875 21.4125C4.19583 21.0208 4 20.55 4 20V4C4 3.45 4.19583 2.97917 4.5875 2.5875C4.97917 2.19583 5.45 2 6 2H13.175C13.4417 2 13.6958 2.05 13.9375 2.15C14.1792 2.25 14.3917 2.39167 14.575 2.575L19.425 7.425C19.6083 7.60833 19.75 7.82083 19.85 8.0625C19.95 8.30417 20 8.55833 20 8.825V20C20 20.55 19.8042 21.0208 19.4125 21.4125C19.0208 21.8042 18.55 22 18 22H6ZM13 8V4H6V20H18V9H14C13.7167 9 13.4792 8.90417 13.2875 8.7125C13.0958 8.52083 13 8.28333 13 8Z" fill="currentColor"/>
</svg>
