<svg width="24" height="24" viewBox="0 0 24 24" fill="none" xmlns="http://www.w3.org/2000/svg">
<path d="M4 20C3.45 20 2.97917 19.8042 2.5875 19.4125C2.19583 19.0208 2 18.55 2 18V6C2 5.45 2.19583 4.97917 2.5875 4.5875C2.97917 4.19583 3.45 4 4 4H20C20.55 4 21.0208 4.19583 21.4125 4.5875C21.8042 4.97917 22 5.45 22 6V18C22 18.55 21.8042 19.0208 21.4125 19.4125C21.0208 19.8042 20.55 20 20 20H4ZM4 18H11V6H4V18ZM13 18H20V6H13V18ZM18.25 15C18.4667 15 18.6458 14.9292 18.7875 14.7875C18.9292 14.6458 19 14.4667 19 14.25C19 14.0333 18.9292 13.8542 18.7875 13.7125C18.6458 13.5708 18.4667 13.5 18.25 13.5H14.75C14.5333 13.5 14.3542 13.5708 14.2125 13.7125C14.0708 13.8542 14 14.0333 14 14.25C14 14.4667 14.0708 14.6458 14.2125 14.7875C14.3542 14.9292 14.5333 15 14.75 15H18.25ZM18.25 12.5C18.4667 12.5 18.6458 12.4292 18.7875 12.2875C18.9292 12.1458 19 11.9667 19 11.75C19 11.5333 18.9292 11.3542 18.7875 11.2125C18.6458 11.0708 18.4667 11 18.25 11H14.75C14.5333 11 14.3542 11.0708 14.2125 11.2125C14.0708 11.3542 14 11.5333 14 11.75C14 11.9667 14.0708 12.1458 14.2125 12.2875C14.3542 12.4292 14.5333 12.5 14.75 12.5H18.25ZM18.25 10C18.4667 10 18.6458 9.92917 18.7875 9.7875C18.9292 9.64583 19 9.46667 19 9.25C19 9.03333 18.9292 8.85417 18.7875 8.7125C18.6458 8.57083 18.4667 8.5 18.25 8.5H14.75C14.5333 8.5 14.3542 8.57083 14.2125 8.7125C14.0708 8.85417 14 9.03333 14 9.25C14 9.46667 14.0708 9.64583 14.2125 9.7875C14.3542 9.92917 14.5333 10 14.75 10H18.25Z" fill="currentColor"/>
</svg>
