<svg width="24" height="24" viewBox="0 0 24 24" fill="none" xmlns="http://www.w3.org/2000/svg">
<path d="M7 18.9499C6.18333 18.9499 5.53333 19.1332 5.05 19.4999C4.56667 19.8666 3.89167 20.1249 3.025 20.2749C2.74167 20.3249 2.5 20.2582 2.3 20.0749C2.1 19.8916 2 19.6582 2 19.3749C2 19.0916 2.09583 18.8541 2.2875 18.6624C2.47917 18.4707 2.71667 18.3332 3 18.2499C3.6 18.0666 4.16667 17.8124 4.7 17.4874C5.23333 17.1624 6 16.9999 7 16.9999C7.63333 16.9999 8.15417 17.0707 8.5625 17.2124C8.97083 17.3541 9.35 17.5124 9.7 17.6874C10.05 17.8624 10.4 18.0249 10.75 18.1749C11.1 18.3249 11.5167 18.3999 12 18.3999C12.4833 18.3999 12.9 18.3249 13.25 18.1749C13.6 18.0249 13.95 17.8624 14.3 17.6874C14.65 17.5124 15.0333 17.3541 15.45 17.2124C15.8667 17.0707 16.3833 16.9999 17 16.9999C18 16.9999 18.7667 17.1624 19.3 17.4874C19.8333 17.8124 20.4 18.0666 21 18.2499C21.2833 18.3332 21.5208 18.4707 21.7125 18.6624C21.9042 18.8541 22 19.0916 22 19.3749C22 19.6582 21.9 19.8916 21.7 20.0749C21.5 20.2582 21.2583 20.3249 20.975 20.2749C20.1083 20.1249 19.4333 19.8666 18.95 19.4999C18.4667 19.1332 17.8167 18.9499 17 18.9499C16.5333 18.9499 16.1292 19.0207 15.7875 19.1624C15.4458 19.3041 15.1042 19.4624 14.7625 19.6374C14.4208 19.8124 14.0375 19.9749 13.6125 20.1249C13.1875 20.2749 12.65 20.3499 12 20.3499C11.35 20.3499 10.8125 20.2749 10.3875 20.1249C9.9625 19.9749 9.57917 19.8124 9.2375 19.6374C8.89583 19.4624 8.55833 19.3041 8.225 19.1624C7.89167 19.0207 7.48333 18.9499 7 18.9499ZM7 14.4999C6.18333 14.4999 5.53333 14.6832 5.05 15.0499C4.56667 15.4166 3.89167 15.6749 3.025 15.8249C2.74167 15.8749 2.5 15.8082 2.3 15.6249C2.1 15.4416 2 15.2082 2 14.9249C2 14.6416 2.09583 14.4041 2.2875 14.2124C2.47917 14.0207 2.71667 13.8832 3 13.7999C3.6 13.6166 4.16667 13.3624 4.7 13.0374C5.23333 12.7124 6 12.5499 7 12.5499C7.63333 12.5499 8.15417 12.6207 8.5625 12.7624C8.97083 12.9041 9.35 13.0624 9.7 13.2374C10.05 13.4124 10.4 13.5749 10.75 13.7249C11.1 13.8749 11.5167 13.9499 12 13.9499C12.4833 13.9499 12.9 13.8749 13.25 13.7249C13.6 13.5749 13.95 13.4124 14.3 13.2374C14.65 13.0624 15.0333 12.9041 15.45 12.7624C15.8667 12.6207 16.3833 12.5499 17 12.5499C18 12.5499 18.7667 12.7124 19.3 13.0374C19.8333 13.3624 20.4 13.6166 21 13.7999C21.2833 13.8832 21.5208 14.0207 21.7125 14.2124C21.9042 14.4041 22 14.6416 22 14.9249C22 15.2082 21.9 15.4416 21.7 15.6249C21.5 15.8082 21.2583 15.8749 20.975 15.8249C20.1083 15.6749 19.4333 15.4166 18.95 15.0499C18.4667 14.6832 17.8167 14.4999 17 14.4999C16.5167 14.4999 16.1042 14.5707 15.7625 14.7124C15.4208 14.8541 15.0792 15.0124 14.7375 15.1874C14.3958 15.3624 14.0167 15.5249 13.6 15.6749C13.1833 15.8249 12.65 15.8999 12 15.8999C11.35 15.8999 10.8125 15.8249 10.3875 15.6749C9.9625 15.5249 9.57917 15.3624 9.2375 15.1874C8.89583 15.0124 8.55833 14.8541 8.225 14.7124C7.89167 14.5707 7.48333 14.4999 7 14.4999ZM7 10.0499C6.18333 10.0499 5.53333 10.2332 5.05 10.5999C4.56667 10.9666 3.89167 11.2249 3.025 11.3749C2.74167 11.4249 2.5 11.3582 2.3 11.1749C2.1 10.9916 2 10.7582 2 10.4749C2 10.1916 2.09583 9.95407 2.2875 9.7624C2.47917 9.57074 2.71667 9.43324 3 9.3499C3.6 9.16657 4.16667 8.9124 4.7 8.5874C5.23333 8.2624 6 8.0999 7 8.0999C7.63333 8.0999 8.15417 8.17074 8.5625 8.3124C8.97083 8.45407 9.35 8.6124 9.7 8.7874C10.05 8.9624 10.4 9.1249 10.75 9.2749C11.1 9.4249 11.5167 9.4999 12 9.4999C12.4833 9.4999 12.9 9.4249 13.25 9.2749C13.6 9.1249 13.95 8.9624 14.3 8.7874C14.65 8.6124 15.0333 8.45407 15.45 8.3124C15.8667 8.17074 16.3833 8.0999 17 8.0999C18 8.0999 18.7667 8.2624 19.3 8.5874C19.8333 8.9124 20.4 9.16657 21 9.3499C21.2833 9.43324 21.5208 9.57074 21.7125 9.7624C21.9042 9.95407 22 10.1916 22 10.4749C22 10.7582 21.9 10.9916 21.7 11.1749C21.5 11.3582 21.2583 11.4249 20.975 11.3749C20.1083 11.2249 19.4333 10.9666 18.95 10.5999C18.4667 10.2332 17.8167 10.0499 17 10.0499C16.5333 10.0499 16.1292 10.1207 15.7875 10.2624C15.4458 10.4041 15.1042 10.5624 14.7625 10.7374C14.4208 10.9124 14.0375 11.0749 13.6125 11.2249C13.1875 11.3749 12.65 11.4499 12 11.4499C11.35 11.4499 10.8125 11.3749 10.3875 11.2249C9.9625 11.0749 9.57917 10.9124 9.2375 10.7374C8.89583 10.5624 8.55833 10.4041 8.225 10.2624C7.89167 10.1207 7.48333 10.0499 7 10.0499ZM7 5.5999C6.18333 5.5999 5.53333 5.78324 5.05 6.1499C4.56667 6.51657 3.89167 6.7749 3.025 6.9249C2.74167 6.9749 2.5 6.90824 2.3 6.7249C2.1 6.54157 2 6.30824 2 6.0249C2 5.74157 2.09583 5.50407 2.2875 5.3124C2.47917 5.12074 2.71667 4.98324 3 4.8999C3.6 4.71657 4.16667 4.4624 4.7 4.1374C5.23333 3.8124 6 3.6499 7 3.6499C7.63333 3.6499 8.15417 3.72074 8.5625 3.8624C8.97083 4.00407 9.35 4.1624 9.7 4.3374C10.05 4.5124 10.4 4.6749 10.75 4.8249C11.1 4.9749 11.5167 5.0499 12 5.0499C12.4833 5.0499 12.9 4.9749 13.25 4.8249C13.6 4.6749 13.95 4.5124 14.3 4.3374C14.65 4.1624 15.0333 4.00407 15.45 3.8624C15.8667 3.72074 16.3833 3.6499 17 3.6499C18 3.6499 18.7667 3.8124 19.3 4.1374C19.8333 4.4624 20.4 4.71657 21 4.8999C21.2833 4.98324 21.5208 5.12074 21.7125 5.3124C21.9042 5.50407 22 5.74157 22 6.0249C22 6.30824 21.9 6.54157 21.7 6.7249C21.5 6.90824 21.2583 6.9749 20.975 6.9249C20.1083 6.7749 19.4333 6.51657 18.95 6.1499C18.4667 5.78324 17.8167 5.5999 17 5.5999C16.5333 5.5999 16.1292 5.67074 15.7875 5.8124C15.4458 5.95407 15.1042 6.1124 14.7625 6.2874C14.4208 6.4624 14.0375 6.6249 13.6125 6.7749C13.1875 6.9249 12.65 6.9999 12 6.9999C11.35 6.9999 10.8125 6.9249 10.3875 6.7749C9.9625 6.6249 9.57917 6.4624 9.2375 6.2874C8.89583 6.1124 8.55833 5.95407 8.225 5.8124C7.89167 5.67074 7.48333 5.5999 7 5.5999Z" fill="currentColor"/>
</svg>
