<svg width="24" height="24" viewBox="0 0 24 24" fill="none" xmlns="http://www.w3.org/2000/svg">
<g clip-path="url(#clip0_1_67)">
<path d="M11.218 12.7914L9.37146 10.9448C9.22757 10.801 9.03573 10.729 8.79592 10.729C8.55611 10.729 8.35627 10.809 8.1964 10.9688C8.05251 11.1127 7.98057 11.3046 7.98057 11.5444C7.98057 11.7842 8.05251 11.976 8.1964 12.1199L10.3787 14.3261C10.5705 14.5659 10.8263 14.6859 11.146 14.6859C11.4658 14.6859 11.7296 14.5659 11.9374 14.3261L16.182 10.1055C16.3419 9.96163 16.4218 9.77778 16.4218 9.55396C16.4218 9.33014 16.3419 9.1303 16.182 8.95444C16.0062 8.79456 15.8063 8.71863 15.5825 8.72662C15.3587 8.73461 15.1748 8.81854 15.0309 8.97842L11.218 12.7914ZM12.2012 22C12.0733 22 11.9494 21.988 11.8295 21.964C11.7096 21.94 11.6017 21.9041 11.5058 21.8561C9.21958 21.1207 7.39704 19.7178 6.03813 17.6475C4.67921 15.5771 3.99976 13.3589 3.99976 10.9928V6.46043C3.99976 5.9968 4.12765 5.57314 4.38345 5.18945C4.63924 4.80576 4.99096 4.53397 5.4386 4.3741L11.4578 2.1199C11.6816 2.03997 11.9294 2 12.2012 2C12.473 2 12.7288 2.03997 12.9686 2.1199L18.9878 4.3741C19.4194 4.53397 19.7671 4.80576 20.0309 5.18945C20.2947 5.57314 20.4266 5.9968 20.4266 6.46043V10.9928C20.4266 13.3589 19.7432 15.5771 18.3763 17.6475C17.0093 19.7178 15.1908 21.1207 12.9206 21.8561C12.8087 21.9041 12.6928 21.94 12.5729 21.964C12.453 21.988 12.3291 22 12.2012 22Z" fill="currentColor"/>
</g>
<defs>
<clipPath id="clip0_1_67">
<rect width="24" height="24" fill="white"/>
</clipPath>
</defs>
</svg>
