<svg width="24" height="24" viewBox="0 0 24 24" fill="none" xmlns="http://www.w3.org/2000/svg">
<g id="mds_ic_positions_filled">
<path id="Subtract" fill-rule="evenodd" clip-rule="evenodd" d="M7.80952 4C4.04873 4 1 7.04873 1 10.8095V13.9524C1 17.7132 4.04873 20.7619 7.80952 20.7619H16.1905C19.9513 20.7619 23 17.7132 23 13.9524V10.8095C23 7.04873 19.9513 4 16.1905 4H7.80952ZM9.29217 16.5714H8.30321C8.19147 16.5714 8.09648 16.5379 8.01826 16.4709C7.95121 16.3926 7.91769 16.2977 7.91769 16.1859V13.219H5.08493C4.97318 13.219 4.8782 13.1855 4.79998 13.1185C4.73293 13.0403 4.6994 12.9453 4.6994 12.8335V11.9284C4.6994 11.8166 4.73293 11.7217 4.79998 11.6434C4.8782 11.5652 4.97318 11.5261 5.08493 11.5261H7.91769V8.59276C7.91769 8.48102 7.95121 8.38603 8.01826 8.30781C8.09648 8.22959 8.19147 8.19048 8.30321 8.19048H9.29217C9.40391 8.19048 9.4989 8.22959 9.57712 8.30781C9.65534 8.38603 9.69445 8.48102 9.69445 8.59276V11.5261H12.5105C12.6222 11.5261 12.7172 11.5652 12.7954 11.6434C12.8736 11.7217 12.9127 11.8166 12.9127 11.9284V12.8335C12.9127 12.9453 12.8736 13.0403 12.7954 13.1185C12.7172 13.1855 12.6222 13.219 12.5105 13.219H9.69445V16.1859C9.69445 16.2977 9.65534 16.3926 9.57712 16.4709C9.4989 16.5379 9.40391 16.5714 9.29217 16.5714ZM15.1458 13.2706H19.1016C19.2133 13.2706 19.3083 13.237 19.3865 13.17C19.4647 13.0918 19.5039 12.9968 19.5039 12.885V11.9464C19.5039 11.8346 19.4647 11.7396 19.3865 11.6614C19.3083 11.5832 19.2133 11.5441 19.1016 11.5441H15.1458C15.034 11.5441 14.939 11.5832 14.8608 11.6614C14.7938 11.7396 14.7602 11.8346 14.7602 11.9464V12.885C14.7602 12.9968 14.7938 13.0918 14.8608 13.17C14.939 13.237 15.034 13.2706 15.1458 13.2706Z" fill="#44475B"/>
</g>
</svg>
