<svg width="24" height="24" viewBox="0 0 24 24" fill="none" xmlns="http://www.w3.org/2000/svg">
<path d="M6 22C5.45 22 4.97917 21.8042 4.5875 21.4125C4.19583 21.0208 4 20.55 4 20V16C4 15.45 4.19583 14.9792 4.5875 14.5875C4.97917 14.1958 5.45 14 6 14H18C18.55 14 19.0208 14.1958 19.4125 14.5875C19.8042 14.9792 20 15.45 20 16V20C20 20.55 19.8042 21.0208 19.4125 21.4125C19.0208 21.8042 18.55 22 18 22H6ZM7 18H17C17.2833 18 17.5208 17.9042 17.7125 17.7125C17.9042 17.5208 18 17.2833 18 17C18 16.7167 17.9042 16.4792 17.7125 16.2875C17.5208 16.0958 17.2833 16 17 16H7C6.71667 16 6.47917 16.0958 6.2875 16.2875C6.09583 16.4792 6 16.7167 6 17C6 17.2833 6.09583 17.5208 6.2875 17.7125C6.47917 17.9042 6.71667 18 7 18ZM11.175 12.85L7.475 7.675C7.325 7.45833 7.22083 7.22083 7.1625 6.9625C7.10417 6.70417 7.09167 6.44167 7.125 6.175C7.325 4.95833 7.875 3.95833 8.775 3.175C9.675 2.39167 10.75 2 12 2C13.25 2 14.325 2.39167 15.225 3.175C16.125 3.95833 16.675 4.95833 16.875 6.175C16.9083 6.44167 16.8958 6.70417 16.8375 6.9625C16.7792 7.22083 16.675 7.45833 16.525 7.675L12.825 12.85C12.625 13.1333 12.35 13.275 12 13.275C11.65 13.275 11.375 13.1333 11.175 12.85ZM12 11.2L15 7C15 6.16667 14.7083 5.45833 14.125 4.875C13.5417 4.29167 12.8333 4 12 4C11.1667 4 10.4583 4.29167 9.875 4.875C9.29167 5.45833 9 6.16667 9 7L12 11.2Z" fill="currentColor"/>
</svg>
