<svg width="24" height="24" viewBox="0 0 24 24" fill="none" xmlns="http://www.w3.org/2000/svg">
<path d="M9.00005 14.3999L5.10005 18.2999C4.91672 18.4832 4.68338 18.5749 4.40005 18.5749C4.11672 18.5749 3.88338 18.4832 3.70005 18.2999C3.51672 18.1166 3.42505 17.8832 3.42505 17.5999C3.42505 17.3166 3.51672 17.0832 3.70005 16.8999L8.60005 11.9999L3.70005 7.0999C3.51672 6.91657 3.42505 6.68324 3.42505 6.3999C3.42505 6.11657 3.51672 5.88324 3.70005 5.6999C3.88338 5.51657 4.11672 5.4249 4.40005 5.4249C4.68338 5.4249 4.91672 5.51657 5.10005 5.6999L9.00005 9.5999V3.4249C9.00005 3.1249 9.10005 2.87907 9.30005 2.6874C9.50005 2.49574 9.73338 2.3999 10 2.3999C10.1334 2.3999 10.2584 2.4249 10.375 2.4749C10.4917 2.5249 10.6 2.5999 10.7 2.6999L15 6.9999C15.1 7.0999 15.1709 7.20824 15.2125 7.3249C15.2542 7.44157 15.275 7.56657 15.275 7.6999C15.275 7.83324 15.2542 7.95824 15.2125 8.0749C15.1709 8.19157 15.1 8.2999 15 8.3999L11.4 11.9999L15 15.5999C15.1 15.6999 15.1709 15.8082 15.2125 15.9249C15.2542 16.0416 15.275 16.1666 15.275 16.2999C15.275 16.4332 15.2542 16.5582 15.2125 16.6749C15.1709 16.7916 15.1 16.8999 15 16.9999L10.7 21.2999C10.6 21.3999 10.4917 21.4749 10.375 21.5249C10.2584 21.5749 10.1334 21.5999 10 21.5999C9.73338 21.5999 9.50005 21.5041 9.30005 21.3124C9.10005 21.1207 9.00005 20.8749 9.00005 20.5749V14.3999ZM11 9.5999L12.9 7.6999L11 5.8499V9.5999ZM11 18.1499L12.9 16.2999L11 14.3999V18.1499ZM15.85 13.6249L14.6 12.3499C14.5 12.2499 14.45 12.1332 14.45 11.9999C14.45 11.8666 14.5 11.7499 14.6 11.6499L15.85 10.3999C16.05 10.1999 16.2542 10.1249 16.4625 10.1749C16.6709 10.2249 16.8084 10.3832 16.875 10.6499C16.9417 10.8832 16.9875 11.1082 17.0125 11.3249C17.0375 11.5416 17.05 11.7666 17.05 11.9999C17.05 12.2332 17.0375 12.4666 17.0125 12.6999C16.9875 12.9332 16.9417 13.1666 16.875 13.3999C16.8084 13.6666 16.6709 13.8207 16.4625 13.8624C16.2542 13.9041 16.05 13.8249 15.85 13.6249ZM18.675 16.4249C18.5584 16.3082 18.4834 16.1582 18.45 15.9749C18.4167 15.7916 18.4417 15.6249 18.525 15.4749C18.775 14.9416 18.9667 14.3791 19.1 13.7874C19.2334 13.1957 19.3 12.5999 19.3 11.9999C19.3 11.3999 19.2334 10.8082 19.1 10.2249C18.9667 9.64157 18.775 9.08324 18.525 8.5499C18.4417 8.38324 18.4167 8.20824 18.45 8.0249C18.4834 7.84157 18.5667 7.68324 18.7 7.5499C18.9334 7.31657 19.1917 7.23324 19.475 7.2999C19.7584 7.36657 19.9667 7.55824 20.1 7.8749C20.4 8.5249 20.625 9.19574 20.775 9.8874C20.925 10.5791 21 11.2832 21 11.9999C21 12.7166 20.9209 13.4166 20.7625 14.0999C20.6042 14.7832 20.3834 15.4416 20.1 16.0749C19.9667 16.3916 19.7542 16.5874 19.4625 16.6624C19.1709 16.7374 18.9084 16.6582 18.675 16.4249Z" fill="currentColor"/>
</svg>
