<svg width="24" height="24" viewBox="0 0 24 24" fill="none" xmlns="http://www.w3.org/2000/svg">
<path d="M17.25 20C16.9667 20 16.7292 19.9042 16.5375 19.7125C16.3458 19.5208 16.25 19.2833 16.25 19V14C16.25 13.7167 16.3458 13.4792 16.5375 13.2875C16.7292 13.0958 16.9667 13 17.25 13H18.75C19.0333 13 19.2708 13.0958 19.4625 13.2875C19.6542 13.4792 19.75 13.7167 19.75 14V19C19.75 19.2833 19.6542 19.5208 19.4625 19.7125C19.2708 19.9042 19.0333 20 18.75 20H17.25ZM11.25 20C10.9667 20 10.7292 19.9042 10.5375 19.7125C10.3458 19.5208 10.25 19.2833 10.25 19V5C10.25 4.71667 10.3458 4.47917 10.5375 4.2875C10.7292 4.09583 10.9667 4 11.25 4H12.75C13.0333 4 13.2708 4.09583 13.4625 4.2875C13.6542 4.47917 13.75 4.71667 13.75 5V19C13.75 19.2833 13.6542 19.5208 13.4625 19.7125C13.2708 19.9042 13.0333 20 12.75 20H11.25ZM5.25 20C4.96667 20 4.72917 19.9042 4.5375 19.7125C4.34583 19.5208 4.25 19.2833 4.25 19V10C4.25 9.71667 4.34583 9.47917 4.5375 9.2875C4.72917 9.09583 4.96667 9 5.25 9H6.75C7.03333 9 7.27083 9.09583 7.4625 9.2875C7.65417 9.47917 7.75 9.71667 7.75 10V19C7.75 19.2833 7.65417 19.5208 7.4625 19.7125C7.27083 19.9042 7.03333 20 6.75 20H5.25Z" fill="currentColor"/>
</svg>
