<svg width="24" height="24" viewBox="0 0 24 24" fill="none" xmlns="http://www.w3.org/2000/svg">
<path d="M4.4249 21.9999C4.1249 21.9999 3.87907 21.8999 3.6874 21.6999C3.49574 21.4999 3.3999 21.2666 3.3999 20.9999C3.3999 20.8666 3.4249 20.7416 3.4749 20.6249C3.5249 20.5082 3.5999 20.3999 3.6999 20.2999L20.2999 3.6999C20.3999 3.5999 20.5082 3.5249 20.6249 3.4749C20.7416 3.4249 20.8666 3.3999 20.9999 3.3999C21.2666 3.3999 21.4999 3.49574 21.6999 3.6874C21.8999 3.87907 21.9999 4.1249 21.9999 4.4249V20.4999C21.9999 20.9166 21.8541 21.2707 21.5624 21.5624C21.2707 21.8541 20.9166 21.9999 20.4999 21.9999H4.4249ZM16.9999 19.9999H19.9999V6.8499L16.9999 9.8499V19.9999Z" fill="currentColor"/>
</svg>
