<svg width="24" height="24" viewBox="0 0 24 24" fill="none" xmlns="http://www.w3.org/2000/svg">
<path d="M12 22C10.6167 22 9.31667 21.7375 8.1 21.2125C6.88333 20.6875 5.825 19.975 4.925 19.075C4.025 18.175 3.3125 17.1167 2.7875 15.9C2.2625 14.6833 2 13.3833 2 12C2 10.6167 2.2625 9.31667 2.7875 8.1C3.3125 6.88333 4.025 5.825 4.925 4.925C5.825 4.025 6.88333 3.3125 8.1 2.7875C9.31667 2.2625 10.6167 2 12 2C13.3833 2 14.6833 2.2625 15.9 2.7875C17.1167 3.3125 18.175 4.025 19.075 4.925C19.975 5.825 20.6875 6.88333 21.2125 8.1C21.7375 9.31667 22 10.6167 22 12C22 13.3833 21.7375 14.6833 21.2125 15.9C20.6875 17.1167 19.975 18.175 19.075 19.075C18.175 19.975 17.1167 20.6875 15.9 21.2125C14.6833 21.7375 13.3833 22 12 22ZM12 20C14.2333 20 16.125 19.225 17.675 17.675C19.225 16.125 20 14.2333 20 12C20 9.76667 19.225 7.875 17.675 6.325C16.125 4.775 14.2333 4 12 4C9.76667 4 7.875 4.775 6.325 6.325C4.775 7.875 4 9.76667 4 12C4 14.2333 4.775 16.125 6.325 17.675C7.875 19.225 9.76667 20 12 20Z" fill="currentColor"/>
<path d="M12.26 17C11.4733 17 10.7533 16.82 10.1 16.46C9.46 16.0867 8.94667 15.56 8.56 14.88C8.18667 14.2 8 13.3933 8 12.46V11.16C8 10.2267 8.18667 9.42 8.56 8.74C8.93333 8.06 9.44 7.53333 10.08 7.16C10.7333 6.78667 11.4533 6.6 12.24 6.6C12.8 6.6 13.3067 6.68667 13.76 6.86C14.2133 7.02 14.6133 7.25333 14.96 7.56C15.3067 7.86667 15.5933 8.22 15.82 8.62C16.0467 9.02 16.2133 9.44667 16.32 9.9C16.3333 9.96667 16.34 10.02 16.34 10.06C16.3533 10.1 16.36 10.1333 16.36 10.16C16.36 10.3733 16.2533 10.48 16.04 10.48H14.68C14.5733 10.48 14.4933 10.4533 14.44 10.4C14.3867 10.3333 14.3467 10.26 14.32 10.18C14.2 9.66 13.9733 9.24 13.64 8.92C13.3067 8.6 12.84 8.44 12.24 8.44C11.6267 8.44 11.1133 8.65333 10.7 9.08C10.2867 9.50667 10.08 10.1133 10.08 10.9V12.7C10.08 13.5 10.2867 14.1133 10.7 14.54C11.1133 14.9533 11.6333 15.16 12.26 15.16C12.7933 15.16 13.2333 15.02 13.58 14.74C13.94 14.4467 14.18 14.0067 14.3 13.42C14.3267 13.3133 14.3667 13.24 14.42 13.2C14.4867 13.1467 14.56 13.12 14.64 13.12H16.02C16.1133 13.12 16.1867 13.1533 16.24 13.22C16.3067 13.2867 16.34 13.3667 16.34 13.46C16.34 13.5 16.34 13.5533 16.34 13.62C16.34 13.6733 16.3333 13.72 16.32 13.76C16.2533 14.1067 16.12 14.4667 15.92 14.84C15.7333 15.2133 15.4667 15.5667 15.12 15.9C14.7867 16.2333 14.38 16.5 13.9 16.7C13.4333 16.9 12.8867 17 12.26 17Z" fill="currentColor"/>
</svg>
