<svg width="24" height="24" viewBox="0 0 24 24" fill="none" xmlns="http://www.w3.org/2000/svg">
<path d="M14 10C14 9.45 13.8041 8.97917 13.4125 8.5875C13.0208 8.19583 12.55 8 12 8C11.8333 8 11.675 8.01667 11.525 8.05C11.375 8.08333 11.2333 8.14167 11.1 8.225L13.775 10.9C13.8583 10.7667 13.9166 10.625 13.95 10.475C13.9833 10.325 14 10.1667 14 10ZM18.2 15.325L16.75 13.875C17.1666 13.175 17.4791 12.5208 17.6875 11.9125C17.8958 11.3042 18 10.7333 18 10.2C18 8.38333 17.4208 6.89583 16.2625 5.7375C15.1041 4.57917 13.6833 4 12 4C11.2666 4 10.5791 4.1125 9.93745 4.3375C9.29578 4.5625 8.71662 4.89167 8.19995 5.325L6.77495 3.9C7.49162 3.28333 8.29995 2.8125 9.19995 2.4875C10.1 2.1625 11.0333 2 12 2C14.1166 2 15.9791 2.74167 17.5875 4.225C19.1958 5.70833 20 7.7 20 10.2C20 11 19.85 11.8208 19.55 12.6625C19.25 13.5042 18.8 14.3917 18.2 15.325ZM14.275 17.1L6.09995 8.925C6.06662 9.125 6.04162 9.33333 6.02495 9.55C6.00828 9.76667 5.99995 9.98333 5.99995 10.2C5.99995 11.3833 6.49162 12.7375 7.47495 14.2625C8.45828 15.7875 9.96662 17.4833 12 19.35C12.4333 18.9667 12.8375 18.5875 13.2125 18.2125C13.5875 17.8375 13.9416 17.4667 14.275 17.1ZM12 21.325C11.7666 21.325 11.5333 21.2833 11.3 21.2C11.0666 21.1167 10.8583 20.9917 10.675 20.825C9.59162 19.825 8.63328 18.85 7.79995 17.9C6.96662 16.95 6.27078 16.0292 5.71245 15.1375C5.15412 14.2458 4.72912 13.3875 4.43745 12.5625C4.14578 11.7375 3.99995 10.95 3.99995 10.2C3.99995 9.66667 4.04162 9.15833 4.12495 8.675C4.20828 8.19167 4.32495 7.73333 4.47495 7.3L1.37495 4.2C1.17495 4 1.07495 3.7625 1.07495 3.4875C1.07495 3.2125 1.17495 2.975 1.37495 2.775C1.57495 2.575 1.81245 2.475 2.08745 2.475C2.36245 2.475 2.59995 2.575 2.79995 2.775L21.2 21.175C21.4 21.375 21.4958 21.6083 21.4875 21.875C21.4791 22.1417 21.375 22.375 21.175 22.575C20.975 22.775 20.7375 22.875 20.4625 22.875C20.1875 22.875 19.95 22.775 19.75 22.575L15.675 18.5C15.3916 18.8 15.075 19.125 14.725 19.475C14.375 19.825 13.9083 20.275 13.325 20.825C13.1416 20.9917 12.9333 21.1167 12.7 21.2C12.4666 21.2833 12.2333 21.325 12 21.325Z" fill="currentColor"/>
</svg>
