<svg width="24" height="24" viewBox="0 0 24 24" fill="none" xmlns="http://www.w3.org/2000/svg">
<path d="M10 15C9.71667 15 9.47917 14.9042 9.2875 14.7125C9.09583 14.5208 9 14.2833 9 14V13.5C9 12.6667 9.29167 11.9583 9.875 11.375C10.4583 10.7917 11.1667 10.5 12 10.5H13V9.1C13 8.98333 13.05 8.90417 13.15 8.8625C13.25 8.82083 13.3417 8.84167 13.425 8.925L15.65 11.15C15.75 11.25 15.8 11.3667 15.8 11.5C15.8 11.6333 15.75 11.75 15.65 11.85L13.425 14.075C13.3417 14.1583 13.25 14.1792 13.15 14.1375C13.05 14.0958 13 14.0167 13 13.9V12.5H12C11.7167 12.5 11.4792 12.5958 11.2875 12.7875C11.0958 12.9792 11 13.2167 11 13.5V14C11 14.2833 10.9042 14.5208 10.7125 14.7125C10.5208 14.9042 10.2833 15 10 15ZM7 23C6.45 23 5.97917 22.8042 5.5875 22.4125C5.19583 22.0208 5 21.55 5 21V3C5 2.45 5.19583 1.97917 5.5875 1.5875C5.97917 1.19583 6.45 1 7 1H17C17.55 1 18.0208 1.19583 18.4125 1.5875C18.8042 1.97917 19 2.45 19 3V21C19 21.55 18.8042 22.0208 18.4125 22.4125C18.0208 22.8042 17.55 23 17 23H7ZM7 20V21H17V20H7ZM7 18H17V6H7V18ZM7 4H17V3H7V4Z" fill="currentColor"/>
</svg>
