<svg width="72" height="72" viewBox="0 0 72 72" fill="none" xmlns="http://www.w3.org/2000/svg">
<path d="M64.13 10.6921C64.4105 11.1165 64.2939 11.6877 63.8695 11.9682L58.5134 15.5087C58.0891 15.7892 57.5177 15.6729 57.2372 15.2487C56.9566 14.8243 57.0733 14.2527 57.4977 13.9721L62.8538 10.4316C63.2782 10.1511 63.8494 10.2677 64.13 10.6921Z" fill="#0B4D5E"/>
<path d="M49.0002 10.0249C49.0383 10.5322 48.658 10.9741 48.1508 11.0123C47.6435 11.0504 47.2012 10.67 47.163 10.1628L46.6818 3.76035C46.6437 3.25307 47.0241 2.81074 47.5313 2.77261C48.0385 2.73459 48.4805 3.11489 48.5187 3.62206L49.0002 10.0249Z" fill="#0B4D5E"/>
<path d="M56.7071 4.37744C57.1741 4.57899 57.3895 5.12125 57.188 5.58832L54.644 11.4835C54.4425 11.9505 53.9002 12.1659 53.4331 11.9644C52.9662 11.7628 52.7511 11.2206 52.9526 10.7536L55.4962 4.85836C55.6977 4.39129 56.24 4.17591 56.7071 4.37744Z" fill="#0B4D5E"/>
<path d="M46.141 59.9131L31.7046 57.5785L26.1795 43.4883L40.6164 45.824L46.141 59.9131Z" fill="#0B4D5E"/>
<path d="M26.1143 43.4356C26.1332 43.4123 26.1635 43.401 26.1931 43.4058L40.6298 45.7415C40.659 45.7462 40.6836 45.766 40.6944 45.7936L40.6163 45.824L40.616 45.8242L40.6944 45.7936L46.2188 59.8827L46.2243 59.9039C46.2267 59.9258 46.2203 59.9482 46.2061 59.9658C46.192 59.9833 46.1716 59.994 46.1498 59.9963L46.1278 59.9958L31.6912 57.661C31.662 57.6563 31.6373 57.6365 31.6265 57.609L26.1016 43.5187L26.0961 43.4975C26.0937 43.4756 26.1001 43.4532 26.1143 43.4356ZM31.7651 57.5035L46.0091 59.8069L40.5552 45.8988L26.3106 43.5939L31.7651 57.5035Z" fill="#0B4D5E"/>
<path d="M45.7709 24.5929C45.8687 24.5147 45.9676 24.4507 46.0656 24.4018C46.0739 24.3983 46.0832 24.3944 46.0915 24.3908C46.1971 24.3424 46.3012 24.3081 46.4032 24.2917C46.4063 24.2904 46.4093 24.2916 46.4124 24.2903C46.5194 24.2743 46.6245 24.2738 46.7259 24.2908L32.289 21.9551C32.2536 21.9493 32.2175 21.945 32.1802 21.9437C32.1425 21.9413 32.1061 21.9421 32.0676 21.9437C32.0367 21.9458 32.0056 21.9504 31.9745 21.955C31.9714 21.9564 31.9689 21.9562 31.9663 21.956C31.9632 21.9574 31.9592 21.9566 31.9557 21.9569C31.9169 21.9635 31.878 21.9727 31.8395 21.9829C31.7999 21.9936 31.7596 22.0082 31.7197 22.0239C31.698 22.0331 31.6756 22.0438 31.6542 22.0541C31.6459 22.0576 31.6376 22.0611 31.6283 22.0651C31.6138 22.0713 31.6003 22.077 31.5872 22.0837C31.5382 22.1094 31.4894 22.1387 31.4398 22.1719C31.405 22.1965 31.3688 22.2266 31.3331 22.2551C31.3193 22.2659 31.3061 22.2751 31.2928 22.2869C31.2816 22.2953 31.2711 22.3022 31.2604 22.3116C31.1659 22.3946 31.0724 22.4917 30.9801 22.6031L29.125 24.8522L43.5618 27.1878L45.417 24.9388C45.5197 24.8144 45.6237 24.7104 45.7296 24.6226C45.7434 24.6119 45.7566 24.6026 45.7704 24.5918L45.7709 24.5929Z" fill="#8AE5CC"/>
<path d="M31.3842 22.3211C31.3666 22.3349 31.3592 22.3402 31.3484 22.3496L31.2911 22.2847L31.343 22.3537L31.3159 22.3745C31.2251 22.4541 31.1346 22.548 31.0447 22.6565L30.9803 22.603L30.9155 22.5496L30.9158 22.5495L30.9872 22.4664C31.0588 22.3859 31.1315 22.3133 31.2052 22.2487L31.2424 22.2201C31.2565 22.2081 31.2718 22.197 31.2807 22.1901L31.2806 22.1897C31.3145 22.1625 31.3542 22.1299 31.3919 22.1034L31.3932 22.1024L31.4708 22.0531C31.4966 22.0376 31.5224 22.0231 31.5483 22.0096L31.5487 22.0094L31.5956 21.9882L31.6178 21.9787C31.639 21.9686 31.6634 21.9568 31.6873 21.9466L31.6891 21.9458L31.7525 21.9225C31.7739 21.9151 31.7957 21.908 31.8175 21.9021L31.8179 21.9019L31.9417 21.8743L31.9492 21.8733C31.9538 21.873 31.9577 21.873 31.9593 21.873C31.9603 21.8729 31.9612 21.8724 31.9621 21.8723C31.9926 21.8678 32.0273 21.8624 32.0622 21.8601L32.064 21.8602L32.1236 21.8584C32.1438 21.8583 32.1645 21.8588 32.1856 21.8601L32.1852 21.8603C32.2262 21.8618 32.2654 21.8662 32.3026 21.8722L32.3023 21.8724L46.7393 24.208L46.7389 24.2081L46.7398 24.2082C46.7853 24.2158 46.816 24.2588 46.8085 24.3043C46.801 24.3498 46.7582 24.3807 46.7126 24.3733L46.7121 24.3731L46.7122 24.3735C46.6204 24.3581 46.5242 24.3584 46.4248 24.3732L46.4245 24.3725C46.423 24.3727 46.4215 24.3737 46.4202 24.3739C46.4193 24.374 46.4184 24.374 46.4176 24.3741L46.4165 24.3746C46.3469 24.3857 46.2751 24.4062 46.2011 24.4352L46.1029 24.4769L46.0337 24.5138C45.964 24.5537 45.8935 24.6019 45.8232 24.6581L45.8123 24.6649C45.8079 24.6682 45.8039 24.6717 45.8 24.6746C45.7931 24.6797 45.7871 24.6841 45.7811 24.6888C45.6802 24.7726 45.5806 24.8723 45.4817 24.992L43.6265 27.2412L43.6105 27.256C43.5928 27.2686 43.5706 27.2738 43.5486 27.2703L29.1116 24.9347C29.0821 24.9299 29.0572 24.9098 29.0466 24.8819C29.036 24.8538 29.0412 24.822 29.0602 24.7988L30.9155 22.5496L31.0447 22.6565L29.2824 24.793L43.5272 27.0973L45.3526 24.8856L45.3525 24.8852C45.4582 24.7572 45.5662 24.6496 45.6765 24.5582L45.6784 24.5565L45.7003 24.5401C45.7072 24.535 45.7132 24.5306 45.7192 24.5259C45.7216 24.524 45.7242 24.5225 45.7268 24.5209C45.826 24.4424 45.9271 24.3774 46.0282 24.3269L46.0669 24.4047L46.0657 24.4016L46.0282 24.3269L46.033 24.3245L46.0331 24.3249L46.0568 24.3148C46.0836 24.3025 46.1104 24.2909 46.1372 24.2803L32.2756 22.0378L32.1775 22.0274L32.1802 21.9406L32.1799 21.9482L32.1775 22.0274L32.1748 22.0272L32.1746 22.0268C32.1421 22.0248 32.1099 22.0256 32.0735 22.0271L31.9869 22.0376L31.9866 22.0369C31.9816 22.0378 31.9773 22.0391 31.9734 22.0393C31.9707 22.0396 31.9683 22.0401 31.9662 22.0402C31.9319 22.0462 31.8967 22.0545 31.8609 22.064L31.8607 22.0636C31.826 22.073 31.7896 22.0865 31.7512 22.1016C31.7319 22.1098 31.7117 22.1194 31.6906 22.1295L31.6534 22.052L31.6543 22.0543L31.6906 22.1295L31.687 22.1315L31.6869 22.1311L31.6609 22.1421C31.646 22.1484 31.6353 22.1525 31.6257 22.1575L31.6262 22.1577C31.5804 22.1817 31.5343 22.2091 31.4873 22.2406C31.4554 22.2631 31.4228 22.2908 31.3858 22.3205L31.3188 22.237L31.3332 22.2553L31.3858 22.3205L31.3848 22.3213L31.3842 22.3211ZM31.3484 22.3496C31.3468 22.351 31.3447 22.3524 31.343 22.3537L31.293 22.287L31.3484 22.3496ZM31.9554 21.9559L31.9557 21.9567L31.9533 21.9249L31.9554 21.9559ZM31.9716 21.8727C31.9736 21.8728 31.9691 21.8721 31.9636 21.8726C31.9629 21.8726 31.9623 21.8733 31.9617 21.8734C31.965 21.8732 31.9683 21.8725 31.9716 21.8727Z" fill="#0B4D5E"/>
<path d="M38.6927 12.2063C38.7777 12.1384 38.8647 12.0807 38.9506 12.0382C38.9579 12.0351 38.9652 12.032 38.9724 12.0289C39.0634 11.9867 39.1557 11.9561 39.245 11.9415C39.2471 11.9406 39.2511 11.9414 39.2511 11.9414C39.3454 11.9271 39.4368 11.9263 39.5273 11.9405L25.0904 9.60485C25.0589 9.59984 25.0283 9.59692 24.9967 9.59443C24.964 9.59238 24.9322 9.5924 24.9002 9.59494C24.8718 9.5972 24.8438 9.60049 24.8152 9.60526C24.8132 9.60614 24.8107 9.60599 24.8086 9.60687C24.8065 9.60774 24.804 9.60759 24.8015 9.60743C24.7683 9.61292 24.734 9.62137 24.7011 9.63042C24.6661 9.64034 24.631 9.65278 24.5963 9.66626C24.5766 9.67462 24.5563 9.68445 24.536 9.69429C24.5288 9.69736 24.5215 9.70044 24.5142 9.70352C24.5039 9.70792 24.4935 9.71232 24.4821 9.71716C24.4398 9.73874 24.3979 9.76388 24.3562 9.79257C24.3229 9.81522 24.2894 9.84291 24.2554 9.86956C24.2464 9.87707 24.2369 9.88354 24.2268 9.89149C24.2193 9.89709 24.2125 9.9012 24.2066 9.90739C24.1233 9.97942 24.0413 10.0631 23.9625 10.1602L23.9593 10.164L38.3961 12.4997C38.4831 12.3931 38.5731 12.3023 38.6647 12.2267C38.6737 12.2192 38.6843 12.2123 38.6933 12.2048L38.6927 12.2063Z" fill="#8AE5CC"/>
<path d="M24.4035 9.86173C24.3734 9.88227 24.3437 9.90687 24.3073 9.93538L24.3068 9.93516C24.3011 9.93978 24.2959 9.94414 24.2915 9.94739C24.2863 9.95127 24.2827 9.95417 24.2788 9.95722L24.2771 9.95839L24.2269 9.89132L24.2201 9.88265L24.2771 9.95839C24.2744 9.96045 24.2718 9.96234 24.27 9.96363C24.268 9.96507 24.2669 9.96597 24.266 9.96667C24.2645 9.96775 24.2655 9.96697 24.2671 9.96528C24.2653 9.96715 24.2634 9.96909 24.2615 9.97079C24.2144 10.0115 24.1679 10.0564 24.1219 10.1055L38.3633 12.409C38.4435 12.3147 38.5263 12.2323 38.6112 12.1622L38.6293 12.1483C38.6345 12.1445 38.6377 12.1422 38.64 12.1402L38.6457 12.1369C38.7327 12.068 38.8227 12.008 38.9135 11.963L38.9372 11.953C38.9499 11.947 38.9629 11.9417 38.9758 11.9362L25.0774 9.68747L25.0908 9.60496L25.1037 9.52224L25.104 9.52208L39.5407 11.8578C39.5862 11.8652 39.6173 11.9081 39.6101 11.9536C39.6028 11.9992 39.56 12.0302 39.5144 12.023L39.5274 11.9407L39.5289 11.9316L39.5144 12.023L39.5138 12.0228L39.514 12.0232L39.5096 12.0224C39.4502 12.0134 39.39 12.0119 39.3279 12.0169L39.2635 12.0242L39.2586 12.024L39.1977 12.0365C39.1359 12.0518 39.0721 12.0752 39.0079 12.105L38.9842 12.1151C38.9059 12.1542 38.8253 12.2075 38.745 12.2716C38.7439 12.2725 38.7422 12.2728 38.741 12.2737C38.7363 12.2774 38.7319 12.281 38.7287 12.2833L38.7183 12.2913L38.7179 12.2915C38.631 12.3632 38.5448 12.45 38.461 12.5527L38.4452 12.5678C38.4275 12.5806 38.4051 12.5858 38.383 12.5822L23.946 10.2466L23.9246 10.2402C23.9046 10.231 23.8885 10.2143 23.8806 10.1931C23.8702 10.1647 23.8758 10.1326 23.8954 10.1096L23.8987 10.1059C23.9802 10.0057 24.0653 9.91899 24.1518 9.84411L24.1521 9.84486C24.1578 9.83962 24.1624 9.83508 24.1663 9.8322C24.1764 9.8247 24.1699 9.82972 24.1765 9.82478C24.1822 9.82033 24.1876 9.81603 24.1915 9.81308C24.1961 9.80964 24.1992 9.80734 24.2019 9.80512L24.204 9.80379L24.3089 9.72336L24.4035 9.86173ZM39.2359 12.0239L39.2363 12.0237L39.2372 12.0238C39.2377 12.0239 39.2382 12.0244 39.2388 12.0245C39.2399 12.0246 39.2417 12.0244 39.2437 12.0246C39.2456 12.0247 39.249 12.0248 39.2534 12.0245C39.2538 12.0244 39.2544 12.0239 39.2549 12.0238C39.2485 12.0241 39.2421 12.0247 39.2357 12.0235L39.2359 12.0239ZM24.5659 9.58817L24.6784 9.5498L24.6788 9.54964L24.7877 9.52478C24.7892 9.52453 24.791 9.52469 24.7925 9.52453L24.7969 9.52352L24.7975 9.52374C24.797 9.52383 24.7964 9.52387 24.7958 9.524C24.7954 9.5241 24.7949 9.5245 24.7943 9.52464C24.795 9.52458 24.7958 9.52464 24.7965 9.5246C24.7982 9.52419 24.7998 9.52319 24.8016 9.5229C24.8327 9.5177 24.863 9.51387 24.8935 9.51144C24.9117 9.51 24.93 9.50926 24.948 9.50919L25.002 9.51074L25.0034 9.51101L25.1037 9.52224L25.0774 9.68747C25.0495 9.68304 25.0218 9.68009 24.9915 9.67769L24.9917 9.67806C24.9625 9.67623 24.9346 9.67625 24.907 9.67843C24.8818 9.68044 24.8571 9.68343 24.8323 9.68748L24.8319 9.68764C24.8307 9.6879 24.8294 9.688 24.8286 9.68817L24.8293 9.68785L24.8288 9.68672C24.8235 9.68814 24.8189 9.68909 24.8149 9.68951L24.8151 9.68989C24.7863 9.69467 24.7554 9.70213 24.724 9.71074L24.7242 9.71111C24.6927 9.72004 24.6603 9.73139 24.6272 9.74423C24.6104 9.75145 24.5926 9.75994 24.5727 9.76957L24.5344 9.69079L24.536 9.69455L24.5727 9.76957L24.5687 9.7717L24.5685 9.77133L24.5204 9.79175L24.4621 9.824C24.4427 9.83563 24.4233 9.84819 24.4039 9.86157L24.4035 9.86173L24.3564 9.79246L24.3089 9.72336C24.3533 9.69279 24.3985 9.66577 24.4442 9.64245L24.4995 9.61899C24.5194 9.60935 24.5417 9.59844 24.5637 9.58913L24.5659 9.58817ZM24.8052 9.54621L24.8068 9.52378C24.8051 9.52367 24.8034 9.52419 24.8017 9.52419L24.8015 9.52381C24.801 9.52383 24.8006 9.52441 24.8 9.52445C24.8006 9.52444 24.8011 9.52419 24.8017 9.52419L24.8052 9.54621ZM24.8034 9.5776L24.8024 9.59182L24.8013 9.60824L24.8036 9.57798L24.8034 9.5776ZM24.8068 9.52378L24.8051 9.54583L24.8017 9.52419C24.8034 9.52419 24.8051 9.52367 24.8068 9.52378ZM24.7842 9.52804L24.7834 9.52836L24.7825 9.5283C24.783 9.52811 24.7837 9.52822 24.7842 9.52804ZM24.8152 9.60545L24.8156 9.60621L24.8085 9.56656L24.8152 9.60545Z" fill="#0B4D5E"/>
<path d="M28.2979 24.871L13.8611 22.5353L23.959 10.1665L38.3955 12.5012L28.2979 24.871Z" fill="#8AE5CC"/>
<path d="M23.9102 10.0985C23.9279 10.0857 23.9503 10.0805 23.9725 10.084L38.409 12.4185C38.4385 12.4233 38.463 12.4435 38.4736 12.4715C38.4842 12.4994 38.4793 12.5312 38.4604 12.5543L38.3956 12.501L38.3952 12.5012L38.4604 12.5543L28.3628 24.924L28.347 24.9391C28.3293 24.9518 28.3069 24.957 28.2847 24.9535L13.8477 22.6179L13.8265 22.6118C13.8066 22.6028 13.7907 22.5861 13.7827 22.5651C13.7721 22.5371 13.7776 22.5056 13.7965 22.4824L23.8944 10.1136L23.9102 10.0985ZM14.0175 22.4758L28.2637 24.7804L38.2383 12.5606L23.9933 10.2568L14.0175 22.4758Z" fill="#0B4D5E"/>
<mask id="mask0_11448_17214" style="mask-type:luminance" maskUnits="userSpaceOnUse" x="13" y="22" width="25" height="27">
<path d="M37.7359 48.7379L23.299 46.4022C23.0586 46.3634 22.8406 46.1841 22.6899 45.8662C20.9262 42.1249 15.5181 30.6776 13.3682 26.1295C12.8812 25.1048 13.1136 23.4508 13.8608 22.5343L28.2977 24.87C27.5495 25.7869 27.317 27.441 27.8051 28.4652C29.955 33.0133 35.3641 44.4601 37.1268 48.2019C37.2775 48.5198 37.4955 48.6991 37.7359 48.7379Z" fill="white"/>
</mask>
<g mask="url(#mask0_11448_17214)">
<path d="M37.7362 48.7379L23.2993 46.4022C23.0589 46.3634 22.8409 46.1842 22.6902 45.8662C20.9264 42.1249 15.5184 30.6776 13.3685 26.1296C13.3007 25.987 13.2473 25.8321 13.2065 25.6695L27.6434 28.0052C27.6842 28.1678 27.7376 28.3226 27.8054 28.4652C29.9553 33.0133 35.3643 44.4602 37.1271 48.2019C37.2778 48.5198 37.4958 48.6991 37.7362 48.7379Z" fill="#0B4D5E"/>
<path d="M13.1447 25.6131C13.1637 25.5924 13.192 25.5825 13.2198 25.587L27.6568 27.9226L27.643 28.0053L27.7245 27.9849C27.7542 28.1036 27.7908 28.2173 27.8347 28.3245L27.8809 28.4292L27.8065 28.4643L27.8052 28.4653L27.8809 28.4292C30.0308 32.9773 35.4396 44.4238 37.2025 48.1659L37.2586 48.2722C37.3951 48.5041 37.5697 48.6261 37.7492 48.6552L37.7657 48.6597C37.8022 48.6735 37.8252 48.7114 37.8188 48.7513C37.8114 48.7969 37.7681 48.8279 37.7225 48.8206L23.2859 46.4848C23.0446 46.4459 22.8327 46.2851 22.6773 46.0213L22.6142 45.902L13.2927 26.1653C13.2222 26.017 13.1671 25.8568 13.1252 25.6897L13.1227 25.6691C13.1228 25.6486 13.1305 25.6286 13.1447 25.6131ZM13.3217 25.7729C13.3556 25.8856 13.3961 25.9931 13.4439 26.0937L18.2497 36.2648C20.0909 40.1628 21.8841 43.9599 22.766 45.8305C22.9089 46.1318 23.1074 46.2863 23.3125 46.3194L37.2819 48.5793C37.2208 48.5163 37.1645 48.4421 37.1143 48.3569L37.0513 48.2375L32.5353 38.6717C30.6941 34.774 28.8048 30.7754 27.7298 28.5013L27.6794 28.3877C27.639 28.2887 27.6048 28.1853 27.5761 28.0789L13.3217 25.7729ZM27.6568 27.9226C27.6897 27.928 27.7164 27.9525 27.7245 27.9849L27.643 28.0053L27.6568 27.9226Z" fill="#0B4D5E"/>
<path d="M13.8612 22.5353C13.7748 22.6405 13.6958 22.7572 13.623 22.8799C13.554 22.9972 13.4917 23.1216 13.4366 23.2514C13.4035 23.3291 13.3722 23.4084 13.3434 23.4904C13.32 23.5566 13.2986 23.6244 13.2793 23.6914C13.2619 23.7514 13.2454 23.8135 13.2309 23.8747C13.2172 23.9319 13.204 23.9901 13.1928 24.0475C13.1822 24.1034 13.1717 24.1592 13.1632 24.2142C13.1547 24.2692 13.1472 24.3238 13.1408 24.3779C13.1344 24.4321 13.1294 24.4868 13.1255 24.5411C13.1216 24.5954 13.1177 24.6496 13.1163 24.7041C13.1143 24.76 13.1134 24.8155 13.1134 24.8705C13.1134 24.9281 13.1148 24.9862 13.1182 25.0435C13.121 25.1048 13.1262 25.1662 13.132 25.2261C13.1389 25.2942 13.1473 25.3604 13.1583 25.4267C13.1713 25.5093 13.1885 25.5901 13.2073 25.6691L27.6441 28.0048C27.6243 27.9263 27.6082 27.845 27.5952 27.7624C27.5842 27.6961 27.5757 27.6299 27.5689 27.5618C27.5631 27.5019 27.5578 27.4404 27.5551 27.3792C27.5516 27.3219 27.5507 27.2648 27.5503 27.2062C27.5502 27.1512 27.5512 27.0957 27.5532 27.0398C27.555 26.9864 27.5585 26.931 27.5624 26.8768C27.5663 26.8225 27.5717 26.7688 27.5781 26.7147C27.5845 26.6605 27.5915 26.6049 27.6005 26.551C27.609 26.496 27.6191 26.439 27.6301 26.3842C27.6413 26.3268 27.6545 26.2686 27.6682 26.2114C27.6827 26.1502 27.6996 26.0892 27.7166 26.0281C27.7369 25.9607 27.7584 25.8929 27.7807 25.8271C27.8085 25.7456 27.8397 25.6663 27.8739 25.5881C27.929 25.4583 27.9913 25.3339 28.0603 25.2166C28.1327 25.0929 28.2121 24.9772 28.2985 24.872L13.8612 22.5353Z" fill="#8AE5CC"/>
<path d="M13.514 23.2844C13.4815 23.3606 13.4509 23.4384 13.4227 23.5184L13.3602 23.7145L13.3129 23.894C13.2993 23.9507 13.2864 24.0078 13.2755 24.0635L13.275 24.0633C13.2644 24.1192 13.2544 24.1736 13.2462 24.2269C13.2379 24.2809 13.2307 24.3349 13.2244 24.388C13.2182 24.4405 13.2131 24.4939 13.2093 24.5471C13.2053 24.6017 13.2017 24.6541 13.2004 24.7063L13.2003 24.7072L13.1236 24.7042L13.1165 24.7042L13.2003 24.7072L13.1976 24.8704C13.1975 24.9266 13.1989 24.9833 13.2023 25.0385L13.2024 25.0398L13.2158 25.218C13.2224 25.2845 13.2306 25.349 13.2412 25.4132L13.2414 25.4136L13.2631 25.5327C13.2673 25.5537 13.2721 25.5745 13.2767 25.5953L27.5351 27.9023L27.5353 27.9017L27.5128 27.7754C27.5015 27.7073 27.4931 27.6394 27.4861 27.57L27.4718 27.3843L27.467 27.2065L27.4701 27.0369L27.4792 26.871C27.4832 26.8151 27.4888 26.7598 27.4953 26.7047C27.5017 26.6507 27.5089 26.5939 27.518 26.5384L27.5483 26.3679C27.5598 26.309 27.5732 26.2497 27.587 26.1921L27.6363 26.0056L27.6369 26.004L27.7019 25.8001L27.7473 25.6757C27.7632 25.6348 27.78 25.5944 27.7975 25.5545C27.8539 25.4218 27.9177 25.2946 27.9884 25.1742L28.1328 25.2591C28.0658 25.3732 28.005 25.4941 27.9513 25.6207L27.9508 25.6218L27.8744 25.588L27.874 25.5882L27.9508 25.6218C27.9342 25.6599 27.9184 25.6983 27.9033 25.7369L27.8602 25.8542C27.8384 25.9188 27.8174 25.9856 27.7973 26.0523C27.7804 26.1129 27.7641 26.1717 27.7502 26.2303L27.6354 26.2035L27.75 26.2309C27.7364 26.2875 27.7235 26.3447 27.7126 26.4004L27.7128 26.4007L27.6679 26.3913L27.6303 26.3842L27.7128 26.4007C27.702 26.4543 27.692 26.5099 27.6837 26.5636L27.6833 26.5647L27.6173 26.5536L27.6006 26.5509L27.6833 26.5647C27.6747 26.6166 27.6681 26.6705 27.6617 26.7243C27.6554 26.7774 27.6501 26.83 27.6463 26.8827L27.6373 27.0428C27.6354 27.0977 27.6345 27.1521 27.6346 27.206C27.635 27.264 27.6359 27.3193 27.6393 27.3741L27.639 27.3756L27.5617 27.3786L27.5553 27.3791L27.639 27.3756L27.6528 27.5536C27.6594 27.6201 27.6676 27.6845 27.6782 27.7488L27.6784 27.7491L27.6997 27.8684C27.7076 27.9077 27.7162 27.9465 27.7258 27.9844L27.7283 28.0051C27.7282 28.0256 27.7207 28.0459 27.7065 28.0614C27.6922 28.0769 27.6726 28.0862 27.652 28.088L27.6314 28.0875L13.1944 25.7519C13.161 25.7465 13.134 25.7213 13.1262 25.6884C13.1071 25.6084 13.0899 25.5256 13.0765 25.4404L13.0761 25.4406C13.0648 25.3722 13.0561 25.304 13.0491 25.2344L13.049 25.2341L13.035 25.0473C13.0315 24.9884 13.0301 24.9289 13.0302 24.8704L13.0329 24.7009C13.0344 24.6446 13.0386 24.5885 13.0424 24.5348C13.0464 24.4796 13.0513 24.4236 13.0578 24.368C13.0644 24.3129 13.0723 24.2574 13.0809 24.2015C13.0897 24.1449 13.1006 24.0876 13.1112 24.0319L13.111 24.0316L13.1499 23.8552L13.1994 23.6682L13.2648 23.4624C13.2943 23.3786 13.3263 23.2977 13.36 23.2187L13.514 23.2844ZM13.813 22.4671C13.8307 22.4545 13.8529 22.4493 13.8749 22.4528L28.3124 24.7896C28.3419 24.7944 28.3665 24.8145 28.3771 24.8425C28.3876 24.8705 28.3826 24.9019 28.3636 24.925L28.3021 25.003C28.2421 25.0829 28.1859 25.1687 28.1331 25.259L27.9884 25.1742C28.0378 25.0898 28.0908 25.009 28.1469 24.9321L13.8967 22.6257C13.825 22.7171 13.7581 22.8173 13.6954 22.9228C13.6285 23.0368 13.568 23.1577 13.5143 23.2842L13.36 23.2187C13.4164 23.0856 13.4805 22.958 13.5513 22.8374L13.6086 22.7443C13.6671 22.6524 13.7297 22.5643 13.7969 22.4824L13.813 22.4671Z" fill="#0B4D5E"/>
</g>
<path d="M38.3955 12.5012C39.2066 11.5074 40.2436 11.8461 40.5407 13.2194L43.5624 27.1899L45.4175 24.9408C46.6008 23.5029 48.0587 24.5369 47.998 26.7693L47.1312 59.2386C47.1225 59.5703 47.0159 59.8443 46.8726 60.0201C46.6385 60.3079 46.3048 60.3319 46.1416 59.9152L40.6165 45.8251L38.5777 48.3221C38.0822 48.9288 37.4484 48.883 37.1271 48.2029C35.3633 44.4616 29.9553 33.0143 27.8054 28.4662C27.3183 27.4416 27.5508 25.7875 28.2979 24.871L38.3955 12.5012Z" fill="#F0F4FF"/>
<path d="M48.0815 26.7715L47.2148 59.2408C47.2057 59.5883 47.0942 59.881 46.9376 60.0731L46.8883 60.1287C46.7695 60.2517 46.6237 60.3267 46.4742 60.3154C46.2977 60.302 46.1519 60.1715 46.0634 59.9456L40.5907 45.9887L38.6426 48.3749C38.3843 48.6911 38.0775 48.852 37.7803 48.8285C37.4811 48.8047 37.2204 48.5968 37.0512 48.2389L37.2028 48.1671C37.355 48.489 37.5718 48.6441 37.7935 48.6617C38.0175 48.6794 38.2757 48.5596 38.5129 48.2692L40.5517 45.7721C40.5705 45.7491 40.6002 45.7376 40.6296 45.7422C40.6589 45.7468 40.6836 45.767 40.6944 45.7946L46.2197 59.8847L46.2489 59.9505C46.3199 60.091 46.4084 60.1424 46.4869 60.1484C46.5822 60.1556 46.7001 60.0996 46.8076 59.9675L46.8074 59.9672C46.9374 59.8077 47.039 59.5521 47.0472 59.2363L47.914 26.767L48.0815 26.7715ZM38.4101 12.356C38.811 11.9133 39.2723 11.7554 39.6871 11.8931C40.0972 12.0293 40.4272 12.4439 40.5918 13.0729L40.6224 13.2016L43.6071 27.003L45.3527 24.8878L45.4679 24.7564C45.7386 24.4662 46.0251 24.2909 46.3094 24.2246C46.6362 24.1485 46.9517 24.2184 47.2224 24.4103C47.7596 24.791 48.1122 25.6416 48.0815 26.7715L47.9979 26.7692L47.914 26.767L47.9143 26.7668C47.9443 25.6646 47.5983 24.8821 47.1259 24.5471C46.8919 24.3812 46.6248 24.3228 46.3474 24.3875C46.0681 24.4525 45.7699 24.6444 45.4821 24.9941L43.6269 27.2433L43.6096 27.2591C43.5903 27.2723 43.5658 27.2769 43.5423 27.2712C43.5113 27.2636 43.4872 27.239 43.4804 27.2078L40.459 13.2371L40.4295 13.1142C40.2732 12.5168 39.97 12.1638 39.6343 12.0523C39.3033 11.9424 38.9062 12.0569 38.5344 12.468L38.4603 12.554L28.3629 24.924C28.0013 25.3676 27.7606 25.9945 27.6716 26.6394C27.5825 27.2845 27.6462 27.9367 27.8807 28.4302L27.805 28.4663L27.8064 28.4653L27.8807 28.4302L27.8809 28.4306L32.6866 38.6013C34.5278 42.4993 36.3209 46.2964 37.2028 48.1671L37.127 48.2028L37.0512 48.2389L37.0511 48.2385C35.2873 44.4972 29.8796 33.0504 27.7297 28.5023L27.6844 28.4007C27.4698 27.8851 27.4192 27.2419 27.5056 26.6165C27.5978 25.9491 27.8476 25.2907 28.2331 24.8179L38.3307 12.4483L38.4101 12.356Z" fill="#0B4D5E"/>
<path d="M12.1636 63.4339C11.8626 63.0237 11.9512 62.4475 12.3613 62.1466L17.538 58.3485C17.9481 58.0476 18.5244 58.1359 18.8254 58.5459C19.1264 58.956 19.0378 59.5327 18.6276 59.8336L13.4509 63.6316C13.0407 63.9326 12.4645 63.844 12.1636 63.4339Z" fill="#0B4D5E"/>
<path d="M19.8867 69.3777C19.4103 69.1992 19.1687 68.6681 19.3471 68.1918L21.6 62.1793C21.7784 61.703 22.3095 61.4613 22.7859 61.6398C23.2621 61.8184 23.5035 62.3494 23.325 62.8257L21.0726 68.8382C20.8941 69.3145 20.363 69.5562 19.8867 69.3777Z" fill="#0B4D5E"/>
</svg>
