<svg width="72" height="72" viewBox="0 0 72 72" fill="none" xmlns="http://www.w3.org/2000/svg">
<path d="M64.13 10.692C64.4105 11.1164 64.2939 11.6876 63.8695 11.9681L58.5134 15.5086C58.0891 15.7891 57.5177 15.6728 57.2372 15.2486C56.9566 14.8242 57.0733 14.2526 57.4977 13.972L62.8539 10.4315C63.2782 10.151 63.8494 10.2676 64.13 10.692Z" fill="#C8DAE8"/>
<path d="M49.0002 10.0249C49.0383 10.5321 48.658 10.974 48.1508 11.0122C47.6435 11.0503 47.2012 10.67 47.163 10.1627L46.6818 3.76026C46.6437 3.25298 47.0241 2.81065 47.5313 2.77252C48.0385 2.7345 48.4805 3.1148 48.5187 3.62197L49.0002 10.0249Z" fill="#C8DAE8"/>
<path d="M56.7071 4.37735C57.1741 4.5789 57.3895 5.12116 57.188 5.58823L54.644 11.4834C54.4425 11.9505 53.9002 12.1658 53.4331 11.9643C52.9662 11.7627 52.7511 11.2205 52.9526 10.7535L55.4962 4.85827C55.6977 4.3912 56.24 4.17582 56.7071 4.37735Z" fill="#C8DAE8"/>
<path d="M46.141 59.9131L31.7046 57.5785L26.1795 43.4883L40.6164 45.824L46.141 59.9131Z" fill="#155C6D"/>
<path d="M26.1143 43.4356C26.1332 43.4123 26.1635 43.401 26.1931 43.4058L40.6298 45.7415C40.659 45.7462 40.6836 45.766 40.6944 45.7936L40.6163 45.824L40.616 45.8242L40.6944 45.7936L46.2188 59.8827L46.2243 59.9039C46.2267 59.9258 46.2203 59.9482 46.2061 59.9658C46.192 59.9833 46.1716 59.994 46.1498 59.9963L46.1278 59.9958L31.6912 57.661C31.662 57.6563 31.6373 57.6365 31.6265 57.609L26.1016 43.5187L26.0961 43.4975C26.0937 43.4756 26.1001 43.4532 26.1143 43.4356ZM31.7651 57.5035L46.0091 59.8069L40.5552 45.8988L26.3106 43.5939L31.7651 57.5035Z" fill="#155C6D"/>
<path d="M45.7709 24.593C45.8687 24.5148 45.9676 24.4508 46.0656 24.4019C46.0739 24.3984 46.0832 24.3944 46.0915 24.3909C46.1971 24.3425 46.3012 24.3081 46.4032 24.2918C46.4063 24.2905 46.4093 24.2917 46.4124 24.2904C46.5194 24.2744 46.6245 24.2739 46.7259 24.2909L32.289 21.9552C32.2536 21.9494 32.2175 21.9451 32.1802 21.9438C32.1425 21.9414 32.1061 21.9422 32.0676 21.9438C32.0367 21.9459 32.0056 21.9505 31.9745 21.9551C31.9714 21.9564 31.9689 21.9563 31.9663 21.9561C31.9632 21.9575 31.9592 21.9567 31.9557 21.957C31.9169 21.9636 31.878 21.9728 31.8395 21.983C31.7999 21.9937 31.7596 22.0083 31.7197 22.024C31.698 22.0332 31.6756 22.0439 31.6542 22.0542C31.6459 22.0577 31.6376 22.0612 31.6283 22.0652C31.6138 22.0714 31.6003 22.0771 31.5872 22.0838C31.5382 22.1095 31.4894 22.1388 31.4398 22.172C31.405 22.1966 31.3688 22.2266 31.3331 22.2552C31.3193 22.266 31.3061 22.2752 31.2928 22.287C31.2816 22.2954 31.2711 22.3023 31.2604 22.3117C31.1659 22.3947 31.0724 22.4918 30.9801 22.6032L29.125 24.8522L43.5618 27.1879L45.417 24.9388C45.5197 24.8145 45.6237 24.7105 45.7296 24.6227C45.7434 24.6119 45.7566 24.6027 45.7704 24.5919L45.7709 24.593Z" fill="#70C5AD"/>
<path d="M31.3843 22.3212C31.3666 22.335 31.3592 22.3403 31.3484 22.3498L31.2911 22.2848L31.343 22.3538L31.3159 22.3746C31.2251 22.4542 31.1346 22.5482 31.0447 22.6566L30.9803 22.6031L30.9155 22.5497L30.9158 22.5496L30.9872 22.4665C31.0588 22.3861 31.1315 22.3135 31.2052 22.2488L31.2424 22.2202C31.2565 22.2083 31.2718 22.1971 31.2807 22.1902L31.2806 22.1898C31.3145 22.1626 31.3542 22.1301 31.3919 22.1035L31.3932 22.1025L31.4709 22.0532C31.4966 22.0378 31.5224 22.0233 31.5483 22.0097L31.5487 22.0095L31.5956 21.9883L31.6178 21.9789C31.639 21.9687 31.6634 21.9569 31.6873 21.9468L31.6891 21.946L31.7525 21.9226C31.7739 21.9152 31.7957 21.9081 31.8175 21.9022L31.8179 21.902L31.9417 21.8744L31.9492 21.8734C31.9538 21.8731 31.9577 21.8731 31.9593 21.8732C31.9603 21.873 31.9612 21.8726 31.9621 21.8724C31.9926 21.8679 32.0273 21.8625 32.0622 21.8602L32.064 21.8603L32.1236 21.8585C32.1438 21.8584 32.1645 21.8589 32.1856 21.8602L32.1852 21.8604C32.2262 21.862 32.2654 21.8663 32.3026 21.8723L32.3023 21.8725L46.7393 24.2081L46.7389 24.2082L46.7398 24.2083C46.7853 24.2159 46.816 24.2589 46.8085 24.3044C46.801 24.3499 46.7582 24.3808 46.7126 24.3735L46.7121 24.3732L46.7122 24.3736C46.6204 24.3583 46.5242 24.3585 46.4248 24.3734L46.4245 24.3726C46.423 24.3729 46.4215 24.3738 46.4202 24.374C46.4193 24.3741 46.4184 24.3741 46.4176 24.3742L46.4165 24.3747C46.3469 24.3858 46.2751 24.4063 46.2011 24.4354L46.1029 24.477L46.0337 24.5139C45.964 24.5538 45.8935 24.602 45.8232 24.6582L45.8123 24.665C45.8079 24.6684 45.8039 24.6718 45.8 24.6747C45.7931 24.6798 45.7871 24.6843 45.7811 24.6889C45.6802 24.7727 45.5806 24.8724 45.4817 24.9922L43.6265 27.2414L43.6105 27.2561C43.5928 27.2687 43.5706 27.2739 43.5486 27.2704L29.1116 24.9348C29.0821 24.93 29.0572 24.91 29.0466 24.882C29.036 24.854 29.0412 24.8221 29.0602 24.799L30.9155 22.5497L31.0447 22.6566L29.2824 24.7931L43.5272 27.0974L45.3526 24.8857L45.3525 24.8853C45.4582 24.7573 45.5662 24.6497 45.6765 24.5583L45.6784 24.5566L45.7003 24.5402C45.7072 24.5352 45.7132 24.5307 45.7192 24.526C45.7216 24.5241 45.7242 24.5226 45.7268 24.521C45.826 24.4425 45.9271 24.3775 46.0282 24.3271L46.0669 24.4048L46.0657 24.4018L46.0282 24.3271L46.033 24.3246L46.0331 24.325L46.0568 24.3149C46.0836 24.3027 46.1104 24.291 46.1372 24.2804L32.2756 22.0379L32.1775 22.0275L32.1802 21.9407L32.1799 21.9484L32.1775 22.0275L32.1748 22.0273L32.1746 22.027C32.1421 22.025 32.1099 22.0257 32.0735 22.0272L31.9869 22.0377L31.9866 22.037C31.9816 22.0379 31.9773 22.0393 31.9734 22.0394C31.9707 22.0398 31.9683 22.0402 31.9662 22.0403C31.9319 22.0463 31.8967 22.0546 31.8609 22.0641L31.8607 22.0637C31.826 22.0731 31.7896 22.0866 31.7512 22.1017C31.7319 22.1099 31.7117 22.1195 31.6906 22.1296L31.6534 22.0522L31.6543 22.0544L31.6906 22.1296L31.687 22.1316L31.6869 22.1312L31.6609 22.1422C31.646 22.1485 31.6353 22.1526 31.6257 22.1576L31.6262 22.1578C31.5804 22.1818 31.5343 22.2092 31.4873 22.2407C31.4554 22.2632 31.4228 22.2909 31.3858 22.3206L31.3188 22.2371L31.3332 22.2554L31.3858 22.3206L31.3848 22.3214L31.3843 22.3212ZM31.3484 22.3498C31.3468 22.3512 31.3447 22.3525 31.343 22.3538L31.293 22.2871L31.3484 22.3498ZM31.9554 21.9561L31.9557 21.9568L31.9533 21.925L31.9554 21.9561ZM31.9716 21.8728C31.9736 21.873 31.9691 21.8723 31.9636 21.8727C31.9629 21.8727 31.9623 21.8734 31.9617 21.8735C31.965 21.8733 31.9683 21.8726 31.9716 21.8728Z" fill="#155C6D"/>
<path d="M38.6927 12.2061C38.7777 12.1382 38.8647 12.0806 38.9506 12.038C38.9579 12.0349 38.9652 12.0318 38.9724 12.0288C39.0634 11.9865 39.1557 11.9559 39.245 11.9413C39.2471 11.9405 39.2511 11.9412 39.2511 11.9412C39.3454 11.9269 39.4368 11.9261 39.5273 11.9404L25.0904 9.60467C25.0589 9.59966 25.0283 9.59673 24.9967 9.59424C24.964 9.59219 24.9322 9.59222 24.9002 9.59476C24.8718 9.59701 24.8438 9.60031 24.8152 9.60508C24.8132 9.60596 24.8107 9.6058 24.8086 9.60668C24.8065 9.60756 24.804 9.6074 24.8015 9.60725C24.7683 9.61274 24.734 9.62119 24.7011 9.63023C24.6661 9.64016 24.631 9.6526 24.5963 9.66608C24.5766 9.67443 24.5563 9.68427 24.536 9.6941C24.5288 9.69718 24.5215 9.70026 24.5142 9.70334C24.5039 9.70774 24.4935 9.71214 24.4821 9.71697C24.4398 9.73856 24.3979 9.7637 24.3562 9.79239C24.3229 9.81504 24.2894 9.84273 24.2554 9.86937C24.2464 9.87689 24.2369 9.88336 24.2268 9.89131C24.2193 9.8969 24.2125 9.90102 24.2066 9.90721C24.1233 9.97924 24.0413 10.063 23.9625 10.16L23.9593 10.1638L38.3961 12.4995C38.4831 12.3929 38.5731 12.3021 38.6647 12.2266C38.6737 12.219 38.6842 12.2121 38.6933 12.2046L38.6927 12.2061Z" fill="#70C5AD"/>
<path d="M24.4035 9.86154C24.3734 9.88209 24.3437 9.90669 24.3073 9.93519L24.3068 9.93498C24.3011 9.9396 24.2959 9.94396 24.2915 9.94721C24.2863 9.95109 24.2827 9.95398 24.2788 9.95704L24.2771 9.95821L24.2269 9.89113L24.2201 9.88247L24.2771 9.95821C24.2744 9.96026 24.2718 9.96216 24.27 9.96344C24.268 9.96488 24.2669 9.96579 24.266 9.96649C24.2645 9.96757 24.2655 9.96678 24.2671 9.9651C24.2653 9.96697 24.2634 9.96891 24.2615 9.9706C24.2144 10.0113 24.1679 10.0562 24.1219 10.1053L38.3633 12.4088C38.4435 12.3145 38.5263 12.2321 38.6112 12.162L38.6293 12.1482C38.6345 12.1443 38.6377 12.142 38.64 12.14L38.6457 12.1367C38.7327 12.0678 38.8227 12.0078 38.9135 11.9628L38.9372 11.9528C38.9499 11.9469 38.9629 11.9415 38.9758 11.936L25.0774 9.68728L25.0908 9.60478L25.1037 9.52206L25.104 9.5219L39.5407 11.8576C39.5862 11.865 39.6173 11.9079 39.6101 11.9534C39.6028 11.999 39.56 12.0301 39.5144 12.0229L39.5274 11.9405L39.5289 11.9315L39.5144 12.0229L39.5138 12.0226L39.514 12.023L39.5096 12.0222C39.4502 12.0132 39.39 12.0117 39.3279 12.0167L39.2635 12.024L39.2586 12.0239L39.1977 12.0363C39.1359 12.0516 39.0721 12.075 39.0079 12.1049L38.9842 12.1149C38.9059 12.1541 38.8253 12.2073 38.745 12.2714C38.7439 12.2723 38.7422 12.2726 38.741 12.2735C38.7363 12.2772 38.7319 12.2808 38.7287 12.2832L38.7183 12.2911L38.7179 12.2913C38.631 12.363 38.5448 12.4498 38.461 12.5525L38.4452 12.5676C38.4275 12.5804 38.4051 12.5856 38.383 12.582L23.946 10.2465L23.9246 10.24C23.9046 10.2309 23.8885 10.2141 23.8806 10.1929C23.8702 10.1645 23.8758 10.1324 23.8954 10.1094L23.8987 10.1058C23.9802 10.0056 24.0653 9.91881 24.1518 9.84393L24.1521 9.84468C24.1578 9.83943 24.1624 9.83489 24.1663 9.83202C24.1764 9.82451 24.1699 9.82953 24.1765 9.82459C24.1822 9.82015 24.1876 9.81585 24.1915 9.8129C24.1961 9.80946 24.1992 9.80715 24.2019 9.80494L24.204 9.8036L24.3089 9.72317L24.4035 9.86154ZM39.2359 12.0237L39.2363 12.0236L39.2372 12.0236C39.2377 12.0237 39.2382 12.0242 39.2388 12.0243C39.2399 12.0244 39.2417 12.0243 39.2437 12.0244C39.2456 12.0245 39.249 12.0246 39.2534 12.0243C39.2538 12.0242 39.2544 12.0237 39.2549 12.0236C39.2485 12.0239 39.2421 12.0245 39.2357 12.0233L39.2359 12.0237ZM24.5659 9.58799L24.6784 9.54961L24.6788 9.54945L24.7877 9.52459C24.7892 9.52434 24.791 9.52451 24.7925 9.52434L24.7969 9.52334L24.7975 9.52356C24.797 9.52365 24.7964 9.52368 24.7958 9.52382C24.7954 9.52392 24.7949 9.52432 24.7943 9.52446C24.795 9.52439 24.7958 9.52446 24.7965 9.52441C24.7982 9.52401 24.7998 9.52301 24.8016 9.52271C24.8327 9.51751 24.863 9.51369 24.8935 9.51126C24.9117 9.50981 24.93 9.50908 24.948 9.509L25.002 9.51055L25.0034 9.51083L25.1037 9.52206L25.0774 9.68728C25.0495 9.68286 25.0218 9.67991 24.9915 9.6775L24.9917 9.67788C24.9625 9.67605 24.9346 9.67607 24.907 9.67825C24.8818 9.68026 24.8571 9.68324 24.8323 9.6873L24.8319 9.68746C24.8307 9.68771 24.8294 9.68782 24.8286 9.68799L24.8293 9.68767L24.8288 9.68654C24.8235 9.68795 24.8189 9.6889 24.8149 9.68933L24.8151 9.6897C24.7863 9.69448 24.7554 9.70195 24.724 9.71055L24.7242 9.71093C24.6927 9.71986 24.6603 9.7312 24.6272 9.74405C24.6104 9.75127 24.5926 9.75976 24.5727 9.76939L24.5344 9.6906L24.536 9.69437L24.5727 9.76939L24.5687 9.77152L24.5685 9.77115L24.5204 9.79157L24.4621 9.82382C24.4427 9.83545 24.4233 9.84801 24.4039 9.86138L24.4035 9.86154L24.3564 9.79228L24.3089 9.72317C24.3533 9.6926 24.3985 9.66558 24.4442 9.64227L24.4995 9.61881C24.5194 9.60917 24.5417 9.59826 24.5637 9.58894L24.5659 9.58799ZM24.8052 9.54603L24.8068 9.52359C24.8051 9.52349 24.8034 9.52401 24.8017 9.524L24.8015 9.52363C24.801 9.52365 24.8006 9.52423 24.8 9.52427C24.8006 9.52425 24.8011 9.524 24.8017 9.524L24.8052 9.54603ZM24.8034 9.57742L24.8024 9.59164L24.8013 9.60806L24.8036 9.5778L24.8034 9.57742ZM24.8068 9.52359L24.8051 9.54565L24.8017 9.524C24.8034 9.52401 24.8051 9.52349 24.8068 9.52359ZM24.7842 9.52785L24.7834 9.52817L24.7825 9.52812C24.783 9.52792 24.7837 9.52804 24.7842 9.52785ZM24.8152 9.60527L24.8156 9.60602L24.8085 9.56638L24.8152 9.60527Z" fill="#155C6D"/>
<path d="M28.2984 24.8711L13.8615 22.5354L23.9595 10.1667L38.3959 12.5013L28.2984 24.8711Z" fill="#70C5AD"/>
<path d="M23.9102 10.0986C23.9279 10.0859 23.9503 10.0806 23.9725 10.0842L38.409 12.4186C38.4385 12.4234 38.463 12.4437 38.4736 12.4716C38.4842 12.4996 38.4793 12.5313 38.4604 12.5545L38.3956 12.5011L38.3952 12.5013L38.4604 12.5545L28.3628 24.9241L28.347 24.9392C28.3293 24.952 28.3069 24.9572 28.2847 24.9536L13.8477 22.6181L13.8265 22.612C13.8066 22.603 13.7907 22.5862 13.7827 22.5653C13.7721 22.5373 13.7776 22.5058 13.7965 22.4826L23.8944 10.1137L23.9102 10.0986ZM14.0175 22.4759L28.2637 24.7805L38.2383 12.5607L23.9933 10.257L14.0175 22.4759Z" fill="#155C6D"/>
<mask id="mask0_11448_17210" style="mask-type:luminance" maskUnits="userSpaceOnUse" x="13" y="22" width="25" height="27">
<path d="M37.7359 48.738L23.299 46.4023C23.0586 46.3635 22.8406 46.1842 22.6899 45.8662C20.9262 42.125 15.5181 30.6777 13.3682 26.1296C12.8812 25.1049 13.1136 23.4508 13.8608 22.5343L28.2977 24.87C27.5495 25.7869 27.317 27.441 27.8051 28.4653C29.955 33.0134 35.3641 44.4602 37.1268 48.2019C37.2775 48.5199 37.4955 48.6991 37.7359 48.738Z" fill="white"/>
</mask>
<g mask="url(#mask0_11448_17210)">
<path d="M37.7357 48.7379L23.2988 46.4023C23.0584 46.3635 22.8404 46.1842 22.6897 45.8662C20.926 42.125 15.5179 30.6777 13.3681 26.1296C13.3003 25.987 13.2468 25.8322 13.2061 25.6696L27.6429 28.0053C27.6837 28.1679 27.7371 28.3227 27.8049 28.4653C29.9548 33.0134 35.3639 44.4602 37.1266 48.2019C37.2773 48.5199 37.4953 48.6991 37.7357 48.7379Z" fill="#155C6D"/>
<path d="M13.1447 25.6132C13.1637 25.5924 13.192 25.5826 13.2198 25.5871L27.6568 27.9227L27.643 28.0053L27.7245 27.985C27.7542 28.1036 27.7908 28.2174 27.8347 28.3246L27.8809 28.4293L27.8065 28.4644L27.8052 28.4654L27.8809 28.4293C30.0308 32.9774 35.4396 44.4238 37.2025 48.1659L37.2586 48.2722C37.3951 48.5042 37.5697 48.6262 37.7492 48.6552L37.7657 48.6598C37.8022 48.6735 37.8252 48.7114 37.8188 48.7514C37.8114 48.797 37.7681 48.828 37.7225 48.8206L23.2859 46.4849C23.0447 46.4459 22.8327 46.2851 22.6773 46.0214L22.6142 45.902L13.2927 26.1654C13.2222 26.0171 13.1671 25.8568 13.1252 25.6898L13.1227 25.6691C13.1228 25.6486 13.1305 25.6287 13.1447 25.6132ZM13.3217 25.773C13.3556 25.8857 13.3961 25.9931 13.4439 26.0937L18.2497 36.2649C20.0909 40.1628 21.8841 43.9599 22.766 45.8306C22.9089 46.1318 23.1074 46.2864 23.3125 46.3195L37.2819 48.5794C37.2208 48.5163 37.1645 48.4421 37.1143 48.357L37.0513 48.2376L32.5354 38.6717C30.6941 34.774 28.8048 30.7754 27.7298 28.5013L27.6794 28.3877C27.639 28.2888 27.6048 28.1854 27.5761 28.079L13.3217 25.773ZM27.6568 27.9227C27.6897 27.9281 27.7164 27.9526 27.7245 27.985L27.643 28.0053L27.6568 27.9227Z" fill="#155C6D"/>
<path d="M13.8612 22.5354C13.7748 22.6405 13.6958 22.7573 13.623 22.8799C13.554 22.9973 13.4917 23.1216 13.4366 23.2515C13.4035 23.3292 13.3722 23.4085 13.3434 23.4905C13.32 23.5567 13.2986 23.6245 13.2793 23.6914C13.2619 23.7514 13.2454 23.8135 13.2309 23.8747C13.2172 23.9319 13.204 23.9902 13.1928 24.0475C13.1822 24.1034 13.1717 24.1593 13.1632 24.2143C13.1547 24.2693 13.1472 24.3239 13.1408 24.378C13.1344 24.4321 13.1294 24.4869 13.1255 24.5411C13.1216 24.5954 13.1177 24.6497 13.1163 24.7041C13.1143 24.7601 13.1134 24.8155 13.1134 24.8706C13.1134 24.9281 13.1148 24.9863 13.1182 25.0436C13.121 25.1048 13.1262 25.1662 13.132 25.2262C13.1389 25.2943 13.1473 25.3604 13.1583 25.4268C13.1713 25.5094 13.1885 25.5902 13.2073 25.6691L27.6441 28.0048C27.6243 27.9263 27.6082 27.845 27.5952 27.7624C27.5842 27.6961 27.5757 27.6299 27.5689 27.5619C27.5631 27.5019 27.5578 27.4405 27.5551 27.3792C27.5516 27.322 27.5507 27.2649 27.5503 27.2063C27.5502 27.1512 27.5512 27.0957 27.5532 27.0398C27.555 26.9864 27.5585 26.9311 27.5624 26.8768C27.5663 26.8225 27.5717 26.7689 27.5781 26.7147C27.5845 26.6606 27.5915 26.605 27.6005 26.551C27.609 26.496 27.6191 26.4391 27.6301 26.3843C27.6413 26.3269 27.6545 26.2687 27.6682 26.2114C27.6827 26.1502 27.6996 26.0892 27.7166 26.0282C27.7369 25.9608 27.7584 25.893 27.7807 25.8272C27.8085 25.7456 27.8397 25.6663 27.8739 25.5882C27.929 25.4583 27.9913 25.334 28.0603 25.2167C28.1327 25.093 28.2121 24.9773 28.2985 24.8721L13.8612 22.5354Z" fill="#70C5AD"/>
<path d="M13.5135 23.2844C13.481 23.3606 13.4504 23.4384 13.4222 23.5185L13.3597 23.7146L13.3124 23.8941C13.2988 23.9507 13.2859 24.0078 13.275 24.0635L13.2745 24.0633C13.2639 24.1193 13.254 24.1737 13.2457 24.2269C13.2374 24.281 13.2302 24.3349 13.2239 24.388C13.2177 24.4406 13.2126 24.494 13.2088 24.5472C13.2049 24.6018 13.2012 24.6542 13.1999 24.7064L13.1998 24.7073L13.1231 24.7043L13.116 24.7042L13.1998 24.7073L13.1971 24.8705C13.1971 24.9267 13.1984 24.9833 13.2018 25.0386L13.2019 25.0399L13.2153 25.218C13.2219 25.2845 13.2301 25.349 13.2408 25.4132L13.2409 25.4136L13.2626 25.5328C13.2669 25.5537 13.2716 25.5745 13.2762 25.5954L27.5346 27.9023L27.5348 27.9018L27.5123 27.7755C27.5011 27.7073 27.4926 27.6394 27.4856 27.5701L27.4713 27.3844L27.4665 27.2066L27.4696 27.037L27.4787 26.871C27.4828 26.8152 27.4883 26.7599 27.4948 26.7048C27.5013 26.6508 27.5084 26.594 27.5175 26.5384L27.5478 26.368C27.5593 26.3091 27.5727 26.2497 27.5865 26.1921L27.6358 26.0056L27.6364 26.004L27.7014 25.8002L27.7468 25.6757C27.7627 25.6349 27.7796 25.5945 27.797 25.5545C27.8534 25.4218 27.9173 25.2946 27.9879 25.1743L28.1323 25.2592C28.0653 25.3732 28.0045 25.4942 27.9508 25.6208L27.9504 25.6218L27.8739 25.5881L27.8735 25.5883L27.9504 25.6218C27.9337 25.6599 27.918 25.6983 27.9028 25.737L27.8598 25.8543C27.8379 25.9188 27.8169 25.9857 27.7968 26.0524C27.78 26.113 27.7636 26.1717 27.7497 26.2304L27.6349 26.2036L27.7495 26.2309C27.7359 26.2876 27.723 26.3447 27.7121 26.4004L27.7123 26.4008L27.6674 26.3914L27.6298 26.3843L27.7123 26.4008C27.7015 26.4544 27.6915 26.51 27.6832 26.5636L27.6828 26.5647L27.6168 26.5536L27.6001 26.5509L27.6828 26.5647C27.6742 26.6166 27.6676 26.6706 27.6612 26.7244C27.6549 26.7775 27.6496 26.8301 27.6458 26.8828L27.6369 27.0429C27.6349 27.0977 27.634 27.1521 27.6341 27.2061C27.6345 27.2641 27.6355 27.3193 27.6388 27.3742L27.6385 27.3756L27.5612 27.3786L27.5548 27.3792L27.6385 27.3756L27.6523 27.5536C27.659 27.6202 27.6671 27.6846 27.6778 27.7488L27.6779 27.7492L27.6992 27.8685C27.7071 27.9078 27.7157 27.9466 27.7253 27.9844L27.7278 28.0051C27.7277 28.0257 27.7202 28.0459 27.706 28.0614C27.6917 28.077 27.6721 28.0862 27.6515 28.0881L27.6309 28.0875L13.1939 25.7519C13.1605 25.7465 13.1335 25.7214 13.1257 25.6885C13.1066 25.6085 13.0894 25.5256 13.076 25.4405L13.0756 25.4406C13.0643 25.3723 13.0556 25.3041 13.0486 25.2345L13.0485 25.2341L13.0345 25.0473C13.031 24.9885 13.0296 24.929 13.0297 24.8704L13.0325 24.701C13.0339 24.6446 13.0381 24.5885 13.042 24.5349C13.0459 24.4797 13.0508 24.4237 13.0574 24.3681C13.0639 24.313 13.0718 24.2575 13.0804 24.2016C13.0892 24.1449 13.1001 24.0876 13.1107 24.032L13.1105 24.0316L13.1494 23.8553L13.1989 23.6682L13.2644 23.4624C13.2939 23.3787 13.3258 23.2978 13.3595 23.2187L13.5135 23.2844ZM13.8126 22.4672C13.8303 22.4546 13.8524 22.4493 13.8744 22.4529L28.3119 24.7896C28.3414 24.7945 28.366 24.8146 28.3766 24.8426C28.3871 24.8706 28.3821 24.9019 28.3632 24.9251L28.3017 25.0031C28.2416 25.083 28.1855 25.1688 28.1327 25.259L27.9879 25.1743C28.0373 25.0899 28.0903 25.009 28.1464 24.9322L13.8962 22.6257C13.8245 22.7171 13.7576 22.8174 13.695 22.9229C13.628 23.0368 13.5675 23.1578 13.5138 23.2843L13.3595 23.2187C13.416 23.0857 13.48 22.958 13.5508 22.8374L13.6082 22.7443C13.6666 22.6525 13.7292 22.5643 13.7964 22.4825L13.8126 22.4672Z" fill="#155C6D"/>
</g>
<path d="M38.3955 12.5012C39.2066 11.5074 40.2436 11.8461 40.5407 13.2194L43.5624 27.1899L45.4175 24.9408C46.6008 23.5029 48.0587 24.5369 47.998 26.7693L47.1312 59.2386C47.1225 59.5703 47.0159 59.8443 46.8726 60.0201C46.6385 60.3079 46.3048 60.3319 46.1416 59.9152L40.6165 45.8251L38.5777 48.3221C38.0822 48.9287 37.4484 48.8829 37.1271 48.2029C35.3633 44.4616 29.9553 33.0143 27.8054 28.4662C27.3183 27.4416 27.5508 25.7875 28.2979 24.871L38.3955 12.5012Z" fill="#C8DAE8"/>
<path d="M48.0815 26.7714L47.2148 59.2407C47.2057 59.5882 47.0942 59.881 46.9376 60.0731L46.8883 60.1286C46.7695 60.2517 46.6237 60.3267 46.4742 60.3153C46.2977 60.3019 46.1519 60.1715 46.0634 59.9456L40.5907 45.9887L38.6426 48.3749C38.3843 48.6911 38.0775 48.852 37.7803 48.8284C37.4811 48.8047 37.2204 48.5968 37.0512 48.2389L37.2028 48.167C37.355 48.489 37.5718 48.6441 37.7935 48.6617C38.0175 48.6794 38.2757 48.5596 38.5129 48.2692L40.5517 45.7721C40.5705 45.7491 40.6002 45.7376 40.6296 45.7422C40.6589 45.7468 40.6836 45.7669 40.6944 45.7946L46.2197 59.8847L46.2489 59.9504C46.3199 60.0909 46.4084 60.1424 46.4869 60.1483C46.5822 60.1555 46.7001 60.0996 46.8076 59.9675L46.8074 59.9671C46.9374 59.8076 47.039 59.5521 47.0472 59.2363L47.914 26.767L48.0815 26.7714ZM38.4101 12.356C38.811 11.9133 39.2723 11.7554 39.6871 11.8931C40.0972 12.0293 40.4272 12.4438 40.5918 13.0729L40.6224 13.2016L43.6071 27.003L45.3527 24.8878L45.4679 24.7563C45.7386 24.4662 46.0251 24.2908 46.3094 24.2246C46.6362 24.1485 46.9517 24.2184 47.2224 24.4103C47.7596 24.791 48.1122 25.6416 48.0815 26.7714L47.9979 26.7691L47.914 26.767L47.9143 26.7668C47.9443 25.6646 47.5983 24.882 47.1259 24.5471C46.8919 24.3812 46.6248 24.3228 46.3474 24.3874C46.0681 24.4525 45.7699 24.6444 45.4821 24.9941L43.6269 27.2433L43.6096 27.2591C43.5903 27.2723 43.5658 27.2768 43.5423 27.2712C43.5113 27.2635 43.4872 27.239 43.4804 27.2077L40.459 13.2371L40.4295 13.1142C40.2732 12.5168 39.97 12.1638 39.6343 12.0523C39.3033 11.9424 38.9062 12.0569 38.5344 12.468L38.4603 12.554L28.3629 24.924C28.0013 25.3676 27.7606 25.9945 27.6716 26.6393C27.5825 27.2844 27.6462 27.9367 27.8807 28.4302L27.805 28.4663L27.8064 28.4653L27.8807 28.4302L27.8809 28.4306L32.6866 38.6013C34.5278 42.4993 36.3209 46.2963 37.2028 48.167L37.127 48.2028L37.0512 48.2389L37.0511 48.2385C35.2873 44.4971 29.8796 33.0504 27.7297 28.5022L27.6844 28.4007C27.4698 27.885 27.4192 27.2419 27.5056 26.6165C27.5978 25.949 27.8476 25.2907 28.2331 24.8179L38.3307 12.4482L38.4101 12.356Z" fill="#155C6D"/>
<path d="M12.1631 63.4339C11.8622 63.0237 11.9507 62.4475 12.3608 62.1465L17.5376 58.3485C17.9476 58.0476 18.524 58.1359 18.8249 58.5458C19.1259 58.956 19.0373 59.5326 18.6271 59.8336L13.4504 63.6316C13.0402 63.9325 12.464 63.844 12.1631 63.4339Z" fill="#C8DAE8"/>
<path d="M19.8867 69.3776C19.4103 69.1992 19.1687 68.6681 19.3471 68.1917L21.6 62.1793C21.7784 61.7029 22.3095 61.4613 22.7859 61.6398C23.2621 61.8183 23.5035 62.3493 23.325 62.8256L21.0726 68.8381C20.8941 69.3145 20.363 69.5561 19.8867 69.3776Z" fill="#C8DAE8"/>
</svg>
