<svg width="72" height="72" viewBox="0 0 72 72" fill="none" xmlns="http://www.w3.org/2000/svg">
<g clip-path="url(#clip0_11448_17212)">
<path d="M21.9695 58.1667H21.9685L21.0193 49.8734H21.0205C20.7531 47.4848 21.9181 44.826 24.6205 42.3674C30.4835 37.0338 41.3571 34.6642 48.9074 37.0747C52.3876 38.1858 54.5531 40.1189 55.3035 42.402H55.3046L57.8924 50.3382H57.8914C57.9507 50.5241 58.002 50.7119 58.0434 50.9016C58.6226 53.5597 57.4454 56.6002 54.3747 59.3937C48.2333 64.9806 36.8434 67.4627 28.9345 64.9378C24.98 63.6753 22.6447 61.4002 22.0655 58.7423C22.0242 58.5524 21.9928 58.3604 21.9695 58.1669V58.1667Z" fill="#2B545E"/>
<path d="M48.5686 36.9079C44.8502 35.8088 40.3838 35.8288 36.1187 36.7583C31.7162 37.7177 27.5216 39.6476 24.5805 42.3232L24.3308 42.555C21.7995 44.9543 20.7016 47.5366 20.9607 49.8736C20.9607 49.8758 20.9596 49.8779 20.9599 49.8801L21.9091 58.1733C21.9093 58.1754 21.9107 58.1774 21.9111 58.1795C21.9287 58.324 21.9505 58.4679 21.9778 58.6107L22.0072 58.755C22.5743 61.3572 24.8045 63.585 28.5495 64.873L28.9166 64.9949C32.8834 66.2612 37.7191 66.2712 42.3304 65.2663C46.9416 64.2614 51.3348 62.2403 54.4151 59.4381C57.4951 56.6362 58.6874 53.5753 58.102 50.889L58.0689 50.7455C58.0346 50.6054 57.9954 50.4664 57.9516 50.3286C57.9511 50.3256 57.9505 50.3225 57.9496 50.3196L55.3619 42.3833L55.3582 42.3755C54.5975 40.0714 52.4132 38.1309 48.9258 37.0174L48.5686 36.9079ZM36.1441 36.8756C40.3945 35.9493 44.8396 35.9308 48.5342 37.0227L48.8895 37.1319C52.3584 38.2394 54.5042 40.1621 55.2466 42.4209L55.3038 42.4017V42.4021L55.2466 42.4209C55.2474 42.4231 55.2493 42.4249 55.2503 42.427L57.8326 50.3474C57.8331 50.3504 57.8337 50.3534 57.8347 50.3564C57.8788 50.4946 57.9181 50.6337 57.9524 50.7737L57.9851 50.9144C58.5582 53.5441 57.396 56.5644 54.3346 59.3494C51.2736 62.1341 46.9011 64.1473 42.305 65.149C37.7088 66.1506 32.895 66.1392 28.953 64.8808L28.588 64.7598C24.8676 63.4803 22.6793 61.277 22.1241 58.7297L22.0955 58.5882C22.0684 58.4466 22.0466 58.3037 22.0293 58.1598H22.0285C22.0284 58.1591 22.0281 58.1585 22.028 58.1578L21.08 49.8724C21.08 49.8705 21.0807 49.8685 21.0805 49.8666C20.8242 47.5774 21.8967 45.0271 24.4129 42.642L24.6611 42.4119C27.5829 39.7538 31.7566 37.8317 36.1441 36.8756Z" fill="#07303A"/>
<path d="M48.9078 37.0748C52.6829 38.28 54.9126 40.4521 55.4654 42.9895C56.0183 45.5269 54.8946 48.4298 51.9631 51.0966C46.1001 56.4303 35.2265 58.7999 27.6762 56.3893C23.901 55.1842 21.6714 53.0121 21.1186 50.4747C20.5657 47.9373 21.6894 45.0343 24.6209 42.3675C30.4838 37.0338 41.3575 34.6642 48.9078 37.0748Z" fill="#94B2C9"/>
<path d="M48.5684 36.908C44.8499 35.8089 40.3836 35.8289 36.1186 36.7583C31.7159 37.7178 27.5214 39.6477 24.5803 42.3233C21.6396 44.9985 20.5009 47.9216 21.0598 50.4873C21.6014 52.9728 23.7314 55.1004 27.307 56.3302L27.6577 56.4463C31.4453 57.6555 36.0622 57.6653 40.4648 56.7058C44.8675 55.7464 49.062 53.8165 52.003 51.1409C54.9438 48.4657 56.0825 45.5426 55.5236 42.9769C54.9646 40.4112 52.7128 38.2265 48.9256 37.0175L48.5684 36.908ZM36.1439 36.8757C40.3943 35.9494 44.8394 35.9309 48.534 37.0228L48.8893 37.132C52.6524 38.3333 54.86 40.4932 55.4067 43.0023C55.9533 45.5113 54.8446 48.3939 51.9225 51.0522C49.0007 53.7103 44.827 55.6324 40.4395 56.5885C36.052 57.5447 31.4569 57.5335 27.6941 56.3322C23.931 55.1308 21.7234 52.971 21.1767 50.4619C20.63 47.9528 21.7388 45.0703 24.6609 42.412C27.5827 39.7539 31.7564 37.8318 36.1439 36.8757Z" fill="#07303A"/>
<path d="M41.6435 58.3068L42.734 63.3105C42.8133 63.6747 42.5844 64.0432 42.2207 64.1243C42.1328 64.1438 42.0448 64.163 41.9567 64.1818C41.5922 64.2595 41.2306 64.0196 41.1514 63.6555L40.0608 58.6518C39.9815 58.2875 40.2142 57.9369 40.5787 57.8592C40.6668 57.8405 40.7547 57.8213 40.8428 57.8017C41.2067 57.7206 41.5642 57.9427 41.6435 58.3068ZM23.1656 54.8451C23.334 55.0157 23.5131 55.1818 23.7031 55.3434C23.9869 55.5849 24.2673 56.0616 24.3097 56.432L24.8378 61.0458C24.8801 61.4161 24.679 61.5263 24.4103 61.2679C24.1749 61.0412 23.9591 60.8069 23.763 60.5654C23.5279 60.2762 23.3284 59.722 23.2859 59.3516L22.7893 55.0155C22.747 54.6451 22.9036 54.5796 23.1654 54.8449L23.1656 54.8451ZM35.8201 58.4838C35.8914 58.4804 35.9625 58.4766 36.0338 58.4726C36.4059 58.4517 36.7592 58.7241 36.8237 59.0912L37.7046 64.1101C37.7691 64.4772 37.5198 64.7978 37.1475 64.8159C37.076 64.8193 37.0047 64.8225 36.9334 64.8255C36.5609 64.8407 36.2064 64.5469 36.1419 64.1798L35.2622 59.1717C35.1977 58.8046 35.4476 58.5016 35.8199 58.4836L35.8201 58.4838ZM26.7129 57.1292C26.7976 57.1644 26.883 57.1989 26.9697 57.2329C27.3167 57.3691 27.642 57.7648 27.6896 58.1345L28.3135 62.9798C28.3611 63.3495 28.1158 63.5458 27.7722 63.4008C27.6782 63.3613 27.5855 63.3209 27.4938 63.2798C27.1537 63.1276 26.8467 62.6888 26.7992 62.3191L26.182 57.5247C26.1344 57.155 26.3683 56.986 26.7127 57.1288L26.7129 57.1292ZM31.0543 58.2791C31.1196 58.2885 31.1851 58.2975 31.2506 58.3062C31.6201 58.3558 31.965 58.6841 32.0196 59.0528L32.7538 64.0158C32.8083 64.3845 32.5523 64.6496 32.1833 64.5952C32.1158 64.5852 32.0483 64.5751 31.9812 64.5645C31.6129 64.5067 31.2722 64.15 31.2176 63.7813L30.4866 58.8397C30.4321 58.471 30.6854 58.2259 31.0543 58.2791ZM53.7934 51.5077L55.2271 56.1242C55.3376 56.4801 55.2409 57.007 54.9948 57.287C54.9287 57.3621 54.8614 57.4372 54.7925 57.5119C54.5402 57.7863 54.235 57.7096 54.1246 57.3535L52.6763 52.6892C52.5659 52.3332 52.6965 51.8377 52.9556 51.5695C53.0201 51.5025 53.0836 51.4354 53.1461 51.3683C53.4 51.0953 53.683 51.1516 53.7936 51.5075L53.7934 51.5077ZM55.8337 47.8115L57.1871 51.9637C57.3025 52.3181 57.3515 52.9049 57.258 53.2656C57.1799 53.5668 57.0808 53.87 56.9608 54.1742C56.824 54.5209 56.5951 54.5043 56.4796 54.15L55.0398 49.7335C54.9243 49.3792 54.9812 48.8293 55.1394 48.4918C55.2455 48.2651 55.3398 48.039 55.4219 47.8131C55.5495 47.463 55.7183 47.457 55.8337 47.8115ZM50.4263 54.4943L51.8175 59.2907C51.9213 59.6486 51.7602 60.1156 51.4494 60.3215C51.3926 60.3593 51.3355 60.3966 51.278 60.434C50.9654 60.6369 50.6221 60.5025 50.5182 60.1444L49.1209 55.3258C49.017 54.9679 49.1944 54.5257 49.5098 54.327C49.5657 54.2918 49.6214 54.2563 49.6767 54.2207C49.9903 54.019 50.3223 54.1362 50.4261 54.4941L50.4263 54.4943ZM46.2232 56.7833L47.5072 61.7033C47.6013 62.064 47.4012 62.4787 47.0562 62.6197C46.9897 62.6468 46.9232 62.6736 46.8563 62.7004C46.51 62.8384 46.1499 62.6498 46.0558 62.2891L44.7687 57.3601C44.6744 56.9994 44.8826 56.6047 45.2297 56.4689C45.2966 56.4427 45.3633 56.4164 45.4298 56.3896C45.7758 56.251 46.1289 56.4226 46.2232 56.7833Z" fill="#07303A"/>
<path d="M36.0304 58.4129H36.0308C35.9601 58.4169 35.8895 58.4202 35.819 58.4236C35.8184 58.4236 35.8176 58.4235 35.817 58.4236C35.4354 58.4421 35.1676 58.7376 35.194 59.1071L35.2034 59.1819L36.0831 64.19C36.1483 64.561 36.4862 64.8619 36.8606 64.8846L36.9358 64.8854L37.1505 64.876C37.5598 64.856 37.8342 64.5013 37.7637 64.0997L36.8827 59.0809L36.8664 59.0073C36.7654 58.6475 36.4068 58.3917 36.0304 58.4129ZM36.1011 58.5319C36.4195 58.5448 36.7095 58.7864 36.765 59.1018L37.6455 64.1205C37.7039 64.4531 37.48 64.7398 37.1447 64.7562L36.9309 64.7656L36.8672 64.7648C36.5494 64.7451 36.2566 64.4868 36.2008 64.1696L35.3215 59.1614L35.3138 59.1001C35.2916 58.7984 35.5059 58.5593 35.8215 58.5433C35.822 58.5433 35.8226 58.5438 35.8231 58.5438L36.0373 58.5323L36.1011 58.5319ZM30.9895 58.2126C30.8207 58.2047 30.6733 58.2569 30.5697 58.3586C30.4661 58.4604 30.4121 58.606 30.4201 58.7747L30.4274 58.8483L31.1584 63.7902C31.1878 63.989 31.2937 64.1812 31.4388 64.331C31.5839 64.4809 31.7728 64.5921 31.9723 64.6233L31.9719 64.6237L32.1746 64.6544C32.3755 64.684 32.5521 64.627 32.6705 64.506C32.7887 64.3852 32.8428 64.2069 32.8132 64.0069L32.079 59.0441L32.0643 58.9705C31.9743 58.6056 31.6287 58.2966 31.2585 58.247L31.0631 58.2196L30.9895 58.2126ZM30.9838 58.3324L31.0459 58.3385L31.2426 58.3655C31.5651 58.4088 31.8694 58.6828 31.9477 58.9979L31.9604 59.0617L32.6946 64.0244C32.7195 64.193 32.673 64.3319 32.5846 64.4222C32.4965 64.5123 32.3602 64.5606 32.1922 64.5358L31.9907 64.5052L31.9277 64.4921C31.781 64.4542 31.6397 64.3659 31.5251 64.2477C31.3942 64.1125 31.302 63.9425 31.2769 63.7726L30.546 58.8311L30.5399 58.7694C30.5331 58.6297 30.5781 58.5184 30.6539 58.444C30.7299 58.3695 30.8431 58.3258 30.9838 58.3324ZM41.6823 58.2216C41.5668 57.8679 41.2008 57.6608 40.83 57.7433L40.5663 57.8006C40.195 57.8797 39.948 58.2204 39.9899 58.5904L40.0022 58.6643L41.0929 63.6684C41.1791 64.0638 41.5717 64.325 41.9693 64.2403L42.2338 64.1827C42.6306 64.0942 42.8788 63.6931 42.7926 63.2976L41.702 58.294L41.6823 58.2216ZM40.8558 57.8602C41.1674 57.7908 41.4725 57.9646 41.5687 58.2592L41.5851 58.3197L42.6757 63.3234C42.7481 63.6561 42.5383 63.992 42.2076 64.0657L41.9444 64.123C41.613 64.1936 41.2827 63.9754 41.2102 63.6426L40.1195 58.639L40.1093 58.5773C40.0743 58.2692 40.2792 57.9845 40.5913 57.9179L40.8558 57.8602ZM26.7356 57.0733C26.5533 56.9977 26.3838 56.9984 26.2647 57.0864C26.16 57.1639 26.1105 57.2968 26.1167 57.4604L26.1228 57.5324L26.7397 62.3267C26.765 62.5236 26.8588 62.7349 26.9883 62.9158C27.1015 63.074 27.2452 63.2134 27.4016 63.3005L27.4694 63.3344C27.5615 63.3757 27.6545 63.4165 27.749 63.4562V63.4558C27.9336 63.5337 28.1057 63.5252 28.2265 63.4305C28.3468 63.336 28.3987 63.1701 28.3733 62.9722L27.749 58.1268L27.6898 58.1346L27.6301 58.1419V58.1423L28.2543 62.9873C28.2764 63.1591 28.2288 63.2761 28.1525 63.336C28.0767 63.3955 27.9545 63.4125 27.7956 63.3454L27.5185 63.2253L27.4596 63.1954C27.3228 63.1192 27.1914 62.9942 27.0856 62.8463C26.9647 62.6774 26.8809 62.4844 26.8587 62.3116L26.2414 57.5169L26.2365 57.4551C26.2313 57.3177 26.2738 57.229 26.3362 57.1829C26.408 57.1299 26.5274 57.1168 26.6886 57.1833C26.6891 57.1835 26.6893 57.1843 26.6898 57.1845L26.9482 57.2883L26.9478 57.2888C27.1097 57.3523 27.2699 57.478 27.3954 57.6338C27.5209 57.7896 27.608 57.9707 27.6301 58.1419L27.749 58.1268C27.7235 57.9283 27.6243 57.727 27.4886 57.5586C27.3529 57.3901 27.1769 57.2498 26.9919 57.1772H26.9915C26.9055 57.1435 26.8209 57.1086 26.7369 57.0737L26.7356 57.0733ZM46.2584 56.6964C46.1286 56.3493 45.7625 56.1917 45.4077 56.3338L45.2082 56.4131L45.1395 56.4438C44.8289 56.6013 44.6414 56.9568 44.6956 57.3014L44.7107 57.3754L45.998 62.3042C46.0944 62.6741 46.4493 62.881 46.807 62.7805L46.8785 62.756L47.0788 62.675H47.0792C47.4527 62.5222 47.6667 62.077 47.5653 61.6882L46.2813 56.768L46.2584 56.6964ZM45.4522 56.4454C45.7657 56.3198 46.0803 56.4738 46.1652 56.7986L47.4492 61.7184C47.5359 62.051 47.3501 62.4349 47.0339 62.5642L46.8344 62.6448L46.7759 62.6648C46.4831 62.7476 46.194 62.5805 46.1141 62.274L44.8268 57.3448L44.8137 57.2826C44.7681 56.9907 44.928 56.6856 45.1931 56.5509L45.2515 56.5247C45.3186 56.4985 45.3855 56.4719 45.4522 56.445V56.4454ZM23.0172 54.6541C22.9591 54.625 22.8958 54.6117 22.839 54.6369C22.7815 54.6624 22.7501 54.7186 22.7352 54.7816C22.7239 54.8292 22.7206 54.8867 22.7241 54.9529L22.7299 55.0224L23.2265 59.3585C23.2485 59.5498 23.3107 59.7861 23.3966 60.0105C23.4716 60.2065 23.566 60.3975 23.6709 60.5436L23.7167 60.6033C23.865 60.7858 24.0242 60.9643 24.1946 61.1384L24.3691 61.3109C24.44 61.379 24.5099 61.4267 24.5764 61.4507C24.6433 61.4748 24.7108 61.4765 24.7689 61.4458C24.8267 61.4152 24.8641 61.3586 24.8842 61.29C24.9043 61.2216 24.9084 61.1366 24.8973 61.039L24.3695 56.425L24.3581 56.3506C24.3254 56.1747 24.2483 55.9847 24.1492 55.8097C24.0358 55.6096 23.8905 55.4242 23.742 55.2979L23.6026 55.1765C23.4652 55.0545 23.3339 54.9298 23.2086 54.8029H23.2081L23.1579 54.7546C23.1085 54.7101 23.0615 54.6762 23.0172 54.6541ZM22.8877 54.7465C22.8975 54.7421 22.9202 54.7395 22.9637 54.7612C22.9956 54.7771 23.0337 54.804 23.0773 54.8434L23.1227 54.8871H23.1231C23.2503 55.0159 23.3836 55.1423 23.5229 55.266L23.6644 55.3891C23.7997 55.5042 23.9366 55.6779 24.0449 55.869C24.1398 56.0364 24.2108 56.2133 24.2404 56.3718L24.2502 56.4389L24.7783 61.0525C24.7883 61.14 24.7835 61.2078 24.7693 61.2561C24.7553 61.3041 24.7336 61.3285 24.7129 61.3395C24.6926 61.3503 24.6618 61.3541 24.6169 61.3379C24.5714 61.3214 24.5155 61.2856 24.4521 61.2246L24.2804 61.0546C24.1124 60.883 23.9554 60.7073 23.8095 60.5276L23.7678 60.4728C23.6714 60.3385 23.5812 60.1582 23.5082 59.9676C23.425 59.7501 23.3661 59.524 23.3455 59.345L22.8488 55.0085L22.8435 54.946C22.8404 54.8878 22.8438 54.8424 22.8517 54.809C22.8624 54.764 22.8786 54.7505 22.8877 54.7465ZM50.1505 54.0912C49.9946 54.0349 49.8138 54.0615 49.6444 54.1705L49.478 54.2764L49.4167 54.3189C49.1385 54.5315 48.9807 54.9246 49.0459 55.2693L49.0635 55.3425L50.4608 60.1609C50.5172 60.3553 50.6406 60.4947 50.7984 60.5554C50.9368 60.6086 51.095 60.5989 51.2465 60.5215L51.3107 60.4843C51.3683 60.4469 51.4258 60.4094 51.4828 60.3715L51.4161 60.2717C51.3598 60.3092 51.303 60.3465 51.2457 60.3837L51.1921 60.4148C51.0676 60.4785 50.9444 60.4834 50.8414 60.4438C50.7235 60.3985 50.6236 60.2915 50.5761 60.1278L49.1784 55.309L49.1637 55.246C49.1078 54.9481 49.2457 54.601 49.4883 54.4149L49.5418 54.3777L49.7094 54.271C49.8536 54.1784 49.9957 54.1627 50.11 54.204C50.2241 54.2453 50.3213 54.3472 50.3688 54.511L51.7599 59.3074C51.8078 59.4723 51.7953 59.6657 51.7325 59.8433C51.6698 60.0209 51.5589 60.1774 51.4165 60.2717H51.4161L51.4497 60.3216L51.4828 60.3715C51.6511 60.2599 51.7758 60.0797 51.8454 59.883C51.9149 59.6861 51.9312 59.4669 51.8752 59.2739L50.4841 54.4775L50.4825 54.473C50.4256 54.2813 50.3055 54.1472 50.1505 54.0912ZM53.7941 51.5072H53.7937L53.8509 51.4896C53.7921 51.3005 53.6818 51.174 53.5361 51.1434C53.3912 51.1129 53.2369 51.1828 53.1024 51.3273L53.1903 51.4091C53.3096 51.2809 53.4236 51.2424 53.5112 51.2607C53.598 51.2789 53.6846 51.3586 53.7364 51.5252V51.5256L55.1701 56.1421C55.2217 56.3084 55.2257 56.5187 55.186 56.7226C55.1463 56.9267 55.0638 57.1176 54.9497 57.2475H54.9502L54.7486 57.4711V57.4715L54.7049 57.5148C54.6028 57.6063 54.5017 57.6307 54.4195 57.6109C54.3251 57.5881 54.2333 57.5012 54.182 57.3358L52.7337 52.6714L52.7169 52.6081C52.684 52.4564 52.6926 52.2808 52.7357 52.111C52.7788 51.9413 52.8554 51.7816 52.9548 51.6605L52.999 51.611L53.1899 51.4091H53.1903L53.1461 51.3682L53.1024 51.3273C53.0402 51.3941 52.9773 51.4611 52.9131 51.5276H52.9127C52.7746 51.6707 52.6729 51.8718 52.6196 52.0815C52.5731 52.2651 52.5622 52.46 52.6 52.6338L52.6192 52.707L54.0676 57.3713C54.1267 57.5619 54.2426 57.6914 54.3913 57.7274C54.5408 57.7635 54.7013 57.6999 54.8369 57.5524V57.552C54.9061 57.477 54.9739 57.402 55.0401 57.3268V57.3264L54.9951 57.2871L54.9923 57.2843L55.0401 57.3264C55.172 57.1762 55.2613 56.9637 55.3038 56.7455C55.3463 56.5271 55.3433 56.2961 55.2845 56.1065L53.8509 51.49V51.4896L53.7941 51.5072ZM55.6316 47.4879C55.5696 47.4888 55.5177 47.5273 55.4771 47.5779C55.4462 47.6164 55.4175 47.6669 55.3912 47.7279L55.3655 47.7925L55.3021 47.9609C55.2366 48.129 55.1644 48.2974 55.0855 48.4662L55.0556 48.5348C54.9894 48.7001 54.9448 48.9005 54.9273 49.101C54.9098 49.3014 54.9186 49.5063 54.962 49.6799L54.9829 49.7522L56.4226 54.1684C56.453 54.2618 56.4924 54.3373 56.5391 54.3912C56.5859 54.4452 56.6435 54.4811 56.7088 54.4848C56.7745 54.4886 56.8353 54.4591 56.8862 54.4092C56.924 54.3721 56.9581 54.3223 56.988 54.2612L57.0166 54.1962C57.1073 53.9664 57.1863 53.7371 57.2533 53.5086L57.3163 53.2805C57.3652 53.0916 57.376 52.8478 57.3608 52.6085C57.3456 52.3687 57.304 52.1281 57.2443 51.945L55.8908 47.7929L55.8675 47.7275C55.8432 47.6657 55.8161 47.6148 55.7861 47.5762C55.7464 47.5251 55.6945 47.4871 55.6316 47.4879ZM55.6332 47.6081C55.6429 47.608 55.6629 47.6133 55.6913 47.6498C55.7123 47.6769 55.7345 47.7166 55.7559 47.7708L55.7767 47.8301L57.1303 51.9822C57.186 52.1535 57.2263 52.3838 57.241 52.6162C57.2558 52.849 57.2447 53.0789 57.2002 53.2507L57.138 53.4751C57.0721 53.6999 56.9944 53.9256 56.905 54.1521L56.8805 54.2089C56.8551 54.2607 56.8283 54.2984 56.8024 54.3238C56.7683 54.3572 56.7387 54.3664 56.7157 54.3651C56.6923 54.3637 56.6627 54.3505 56.6299 54.3127C56.5969 54.2747 56.564 54.215 56.5367 54.1312L55.0969 49.715L55.0781 49.65C55.0391 49.4936 55.0299 49.3032 55.0466 49.1117C55.0634 48.9202 55.1059 48.7318 55.1668 48.5798L55.1938 48.5173C55.3005 48.2891 55.3956 48.0614 55.4783 47.8338L55.5016 47.7749C55.5249 47.7209 55.5483 47.6805 55.5707 47.6527C55.6011 47.6148 55.6227 47.6083 55.6332 47.6081Z" fill="#07303A"/>
<path d="M47.9427 37.5936C51.3981 38.6967 53.4388 40.6848 53.9447 43.0073C54.4508 45.3298 53.4222 47.9868 50.739 50.4276C45.3726 55.3094 35.4201 57.4783 28.5095 55.2721C25.0541 54.169 23.0135 52.1808 22.5074 49.8583C22.0012 47.5358 23.0299 44.8788 25.7131 42.4379C31.0795 37.556 41.032 35.3873 47.9427 37.5936Z" fill="#94B2C9"/>
<path d="M47.9613 37.5363C44.4936 36.4292 40.2666 36.421 36.2363 37.2992C32.206 38.1775 28.3659 39.9439 25.6731 42.3936C22.9806 44.843 21.9366 47.5205 22.4489 49.8712C22.9453 52.1485 24.8967 54.0968 28.1704 55.2228L28.4913 55.329C31.959 56.4361 36.186 56.4449 40.2163 55.5666C44.1207 54.7157 47.8464 53.031 50.5236 50.6995L50.7796 50.4718C53.472 48.0226 54.5156 45.3453 54.0033 42.9945L53.951 42.775C53.3611 40.5195 51.3202 38.6087 47.9613 37.5363ZM36.2617 37.4161C40.2768 36.5411 44.4816 36.5516 47.9245 37.6508C51.2604 38.7157 53.2589 40.6033 53.8349 42.8061L53.8864 43.0199C54.3863 45.314 53.3728 47.9508 50.699 50.3831L50.4448 50.6091C47.7862 52.9243 44.0803 54.6015 40.1906 55.4492C36.1755 56.3242 31.9709 56.3141 28.5281 55.215C25.0847 54.1157 23.0662 52.1397 22.5663 49.8455C22.0663 47.5513 23.0798 44.9147 25.7536 42.4823C28.4272 40.0501 32.2465 38.2911 36.2617 37.4161Z" fill="#07303A"/>
<path d="M19.6685 27.1195L22.4192 49.3895C22.1388 47.1836 23.2025 44.7177 25.7054 42.44C31.0724 37.5583 41.0247 35.3894 47.9351 37.5955C51.1617 38.6261 53.1553 40.4269 53.8162 42.5526H53.8174L47.0496 21.1523C46.4688 19.3047 44.7321 17.738 41.9243 16.8412C35.8976 14.9178 27.2168 16.8095 22.5356 21.0666C21.4463 22.0582 20.6683 23.0913 20.1954 24.1159C19.721 25.1407 19.5492 26.159 19.6687 27.1195H19.6685Z" fill="#94B2C9"/>
<path d="M41.6573 16.6963C38.6868 15.8187 35.1193 15.8354 31.713 16.5778C28.1967 17.344 24.8457 18.8849 22.4955 21.0222L22.2939 21.2094C21.3048 22.1479 20.5884 23.1219 20.1412 24.0906L20.055 24.2843C19.6521 25.229 19.5042 26.1674 19.6024 27.0596H19.6008L19.6094 27.1267L22.3602 49.3969L22.4791 49.3822L22.4767 49.3593C22.218 47.2533 23.1959 44.899 25.5165 42.6976L25.7458 42.4842C28.4197 40.0522 32.2395 38.2935 36.2547 37.4185C40.1443 36.5708 44.2117 36.5536 47.5921 37.5526L47.9171 37.6527C51.1325 38.6797 53.1061 40.4698 53.7592 42.5705L53.7723 42.6126H53.8994L53.8749 42.5345L47.1069 21.1342L47.0484 20.9596C46.4076 19.164 44.6736 17.6565 41.9426 16.7842L41.6573 16.6963ZM31.7383 16.6947C35.13 15.9556 38.6763 15.9407 41.6229 16.8112L41.9062 16.8983C44.6154 17.7635 46.3113 19.2509 46.9356 21.0001L46.9928 21.1702L53.408 41.4561C52.474 39.7834 50.6336 38.3943 47.9535 37.5383L47.6261 37.4377C44.2219 36.4317 40.1332 36.4503 36.2289 37.3012C32.1986 38.1795 28.3584 39.946 25.6653 42.3955L25.4339 42.6106C23.505 44.4405 22.4854 46.3873 22.3361 48.2233L19.7365 27.1794H19.7369L19.7284 27.112L19.7095 26.9337C19.6378 26.0979 19.7867 25.2192 20.1654 24.3314L20.25 24.1409C20.6896 23.1884 21.3962 22.2266 22.3765 21.2965L22.5764 21.1109C24.9074 18.9911 28.2373 17.4577 31.7383 16.6947Z" fill="#07303A"/>
<path d="M24.4946 46.3763C24.0728 44.4411 24.9297 42.2271 27.1657 40.193C31.6371 36.1253 39.9306 34.3179 45.6887 36.1562C48.5682 37.0754 50.2686 38.7318 50.6904 40.6674C50.9464 41.8424 51.0405 42.274 51.2966 43.4493C51.7182 45.3845 50.861 47.5987 48.6255 49.6324C44.1535 53.7003 35.8606 55.5075 30.1019 53.6692C27.2224 52.75 25.5225 51.0932 25.1008 49.158C24.8448 47.983 24.7507 47.5514 24.4946 46.3761V46.3763Z" fill="#2B545E"/>
<path d="M45.4343 36.0155C42.5957 35.1765 39.1869 35.1922 35.9323 35.9015C32.5726 36.6336 29.3709 38.1062 27.1256 40.1488L26.9192 40.341C24.8272 42.3308 24.0216 44.487 24.4362 46.3891L25.0424 49.1709C25.4702 51.1344 27.1925 52.8035 30.0841 53.7265C32.9757 54.6496 36.4996 54.6565 39.8591 53.9244C43.1137 53.2151 46.2202 51.8109 48.4528 49.8667L48.6662 49.6766C50.9107 47.6345 51.7829 45.4002 51.3552 43.4368L50.749 40.6545L50.7052 40.4714C50.2123 38.5872 48.5081 36.9935 45.7069 36.0993L45.4343 36.0155ZM35.9576 36.0184C39.1976 35.3123 42.5851 35.2985 45.3999 36.1304L45.6705 36.2134C48.4484 37.1001 50.1105 38.6707 50.5896 40.502L50.6321 40.6803L51.2383 43.4621C51.6538 45.369 50.8113 47.5631 48.5852 49.5883L48.3739 49.7763C46.1601 51.7042 43.0737 53.101 39.8338 53.807C36.4893 54.5359 32.9874 54.5273 30.1204 53.612L29.8551 53.5242C27.1493 52.5937 25.5622 50.9925 25.1597 49.1452L24.5535 46.3633C24.151 44.5161 24.9281 42.3996 27.0013 40.4276L27.2061 40.2375C29.4322 38.2124 32.6131 36.7473 35.9576 36.0184Z" fill="#07303A"/>
<path d="M45.6888 36.1563C48.5682 37.0755 50.2685 38.7321 50.6901 40.6675C51.1118 42.6027 50.2547 44.8167 48.0189 46.8508C43.5473 50.9188 35.254 52.726 29.4955 50.8876C26.6161 49.9684 24.9158 48.3119 24.4942 46.3765C24.0725 44.4412 24.9296 42.2272 27.1654 40.1931C31.637 36.1252 39.9303 34.3178 45.6888 36.1563Z" fill="#94B2C9"/>
<path d="M45.4344 36.0155C42.5956 35.1764 39.1867 35.1921 35.932 35.9014C32.5724 36.6336 29.3708 38.1061 27.1254 40.1488L26.919 40.3409C24.8945 42.2666 24.0748 44.348 24.3996 46.2042L24.4359 46.3894C24.8504 48.2916 26.4798 49.917 29.2098 50.8559L29.4776 50.9446C32.3692 51.8677 35.8931 51.8746 39.2527 51.1425C42.5073 50.4332 45.6135 49.029 47.8459 47.0848L48.0593 46.8951C50.3044 44.8526 51.1765 42.6183 50.7488 40.6549L50.705 40.4717C50.2124 38.5876 48.5082 36.9935 45.7071 36.0993L45.4344 36.0155ZM35.9574 36.0183C39.1974 35.3122 42.5851 35.2984 45.4001 36.1303L45.6707 36.2133C48.4485 37.1001 50.1101 38.6712 50.5889 40.5024L50.6318 40.6802C51.0473 42.5871 50.2052 44.7808 47.9788 46.8064L47.7674 46.9948C45.5538 48.9227 42.4673 50.3195 39.2273 51.0255C35.8828 51.7544 32.3808 51.7457 29.514 50.8305C26.6466 49.9152 24.9683 48.2708 24.5529 46.3637L24.5177 46.1842C24.2019 44.3801 24.9949 42.3364 27.0011 40.428L27.2059 40.2375C29.4321 38.2123 32.6129 36.7472 35.9574 36.0183Z" fill="#07303A"/>
<path d="M33.7677 40.9531C33.6675 40.4927 33.8712 39.9663 34.4031 39.4823C35.4667 38.5148 37.4394 38.0848 38.809 38.5222C39.4939 38.7409 39.8983 39.1348 39.9988 39.5951C40.0597 39.8746 40.6727 42.6872 40.7336 42.9668C40.8339 43.4272 40.63 43.9539 40.0983 44.4377C39.0345 45.4052 37.0619 45.8352 35.6922 45.3978C35.0073 45.1791 34.6028 44.785 34.5026 44.3248C34.4416 44.0454 33.8287 41.2328 33.7677 40.9531Z" fill="#2B545E"/>
<path d="M38.6947 38.4258C38.0244 38.243 37.2332 38.2524 36.4787 38.4169C35.6738 38.5923 34.9041 38.9455 34.3627 39.438L34.265 39.5308C33.8267 39.9673 33.6355 40.4401 33.6931 40.8737L33.7091 40.9657L34.4441 44.3374C34.5505 44.8259 34.9773 45.2325 35.6742 45.4551C36.3713 45.6776 37.2179 45.6787 38.0227 45.5033C38.7772 45.3389 39.5007 45.0181 40.0343 44.5729L40.1386 44.4821C40.6796 43.9899 40.8987 43.4427 40.7922 42.9541L40.0572 39.5823L40.0335 39.4916C39.8962 39.0436 39.4804 38.6737 38.8272 38.4651L38.6947 38.4258ZM36.504 38.5338C37.2444 38.3724 38.0153 38.3649 38.6628 38.5415L38.7908 38.5791C39.4216 38.7806 39.7969 39.1288 39.9191 39.5275L39.9403 39.6081L40.6749 42.9794C40.769 43.4115 40.5804 43.9182 40.0581 44.3934L39.9575 44.4809C39.442 44.9109 38.7377 45.2246 37.9973 45.386C37.2076 45.5581 36.383 45.5553 35.7105 45.3406C35.0377 45.1257 34.6551 44.744 34.561 44.3121L33.8264 40.9403L33.8121 40.8586C33.7608 40.4728 33.9284 40.0353 34.3493 39.6163L34.4433 39.5267C34.9654 39.0517 35.7142 38.7059 36.504 38.5338Z" fill="#07303A"/>
<path d="M38.8091 38.5222C39.494 38.7409 39.8985 39.135 39.9988 39.5952C40.099 40.0556 39.8951 40.5821 39.3634 41.066C38.2998 42.0337 36.3271 42.4635 34.9573 42.0261C34.2724 41.8074 33.868 41.4133 33.7677 40.9532C33.6674 40.4928 33.8712 39.9663 34.403 39.4823C35.4666 38.5146 37.4394 38.0848 38.8091 38.5222Z" fill="#07303A"/>
<path d="M38.8273 38.4651C38.1301 38.2424 37.2833 38.2415 36.4784 38.4168C35.6736 38.5922 34.9043 38.9455 34.3629 39.438L34.2652 39.5308C33.8268 39.9673 33.6353 40.4401 33.6929 40.8737L33.7092 40.9661C33.8157 41.4545 34.2425 41.8608 34.9393 42.0833C35.6365 42.3059 36.483 42.3069 37.2878 42.1316C38.0424 41.9671 38.7659 41.6464 39.2995 41.2011L39.4037 41.1104C39.9447 40.618 40.1638 40.071 40.0574 39.5823L40.0337 39.492C39.8966 39.044 39.4807 38.6737 38.8273 38.4651ZM36.5042 38.5338C37.2939 38.3617 38.1185 38.3644 38.7909 38.5791C39.4218 38.7806 39.7972 39.1289 39.9192 39.5275L39.9401 39.6081C40.0341 40.0401 39.8455 40.5463 39.3232 41.0217L39.2226 41.1092C38.7072 41.5392 38.0029 41.8529 37.2625 42.0142C36.4727 42.1863 35.6482 42.1836 34.9757 41.9689C34.3028 41.754 33.9202 41.3722 33.8261 40.9403L33.8118 40.8586C33.7606 40.4727 33.9285 40.0353 34.3494 39.6162L34.4434 39.5267C34.9656 39.0516 35.7143 38.7059 36.5042 38.5338Z" fill="#07303A"/>
<path opacity="0.1" d="M25.8119 33.9016C25.4472 28.6366 29.4197 24.073 34.6846 23.7083C39.9495 23.3437 44.5132 27.3161 44.8778 32.581C45.2425 37.846 41.27 42.4096 36.0051 42.7743C30.7402 43.1389 26.1765 39.1665 25.8119 33.9016Z" fill="#F35F5F"/>
<path opacity="0.1" d="M34.6884 23.768C39.9203 23.4056 44.4553 27.3532 44.8177 32.585C45.1801 37.8169 41.2326 42.352 36.0007 42.7143C30.7688 43.0766 26.2337 39.1291 25.8714 33.8973C25.5091 28.6655 29.4567 24.1304 34.6884 23.768ZM34.6802 23.6485C29.3824 24.0155 25.385 28.6077 25.7519 33.9055C26.1188 39.2034 30.7111 43.2011 36.009 42.8342C41.3069 42.4673 45.3046 37.8747 44.9376 32.5767C44.5706 27.2789 39.9781 23.2816 34.6802 23.6485Z" fill="#07303A"/>
<path opacity="0.1" d="M30.3838 37.8409C27.8436 35.1012 28.0052 30.8209 30.7449 28.2806C33.4846 25.7403 37.7649 25.902 40.3052 28.6417C42.8455 31.3814 42.6838 35.6617 39.9441 38.2019C37.2044 40.7422 32.9241 40.5806 30.3838 37.8409Z" fill="#F35F5F"/>
<path opacity="0.1" d="M30.7855 28.3245C33.5009 25.8068 37.7432 25.9671 40.261 28.6824C42.7788 31.3978 42.6186 35.6402 39.9032 38.158C37.1877 40.6757 32.9453 40.5155 30.4276 37.8001C27.91 35.0847 28.0702 30.8423 30.7855 28.3245ZM30.704 28.2367C27.9402 30.7994 27.7771 35.1176 30.3397 37.8815C32.9025 40.6455 37.2209 40.8088 39.9849 38.2461C42.7488 35.6833 42.912 31.3647 40.3492 28.6007C37.7864 25.8368 33.4679 25.6739 30.704 28.2367Z" fill="#07303A"/>
<path d="M34.5158 29.4387C38.4622 28.5786 39.6401 33.9856 40.2914 36.9716C40.2914 36.972 40.2916 36.9724 40.2918 36.973C40.7667 39.1527 39.385 41.3046 37.2053 41.7795C35.0257 42.2545 32.8738 40.8728 32.3988 38.6931C31.7481 35.7067 30.5693 30.2987 34.5158 29.4387Z" fill="#F35F5F"/>
<path d="M37.0237 29.7825C36.3344 29.3411 35.5047 29.162 34.5031 29.3802C33.5015 29.5985 32.8213 30.1067 32.3782 30.795C31.9363 31.4814 31.7324 32.3427 31.6734 33.2646C31.5703 34.8769 31.9094 36.6918 32.2134 38.1194L32.3402 38.706C32.8222 40.9179 35.006 42.3201 37.2179 41.8382C39.4299 41.3562 40.8325 39.1721 40.3505 36.9601L40.3501 36.9588L40.3497 36.9572H40.3501C40.0248 35.4661 39.5656 33.3601 38.692 31.7344C38.2548 30.9209 37.7111 30.2226 37.0237 29.7825ZM34.5284 29.4971C35.5 29.2854 36.2973 29.4596 36.9591 29.8834C37.6229 30.3085 38.1545 30.9874 38.5865 31.7913C39.451 33.3999 39.9067 35.4894 40.2327 36.9842L40.234 36.9838C40.2341 36.9843 40.2338 36.9849 40.234 36.9854L40.2331 36.9858C40.701 39.1331 39.3398 41.2529 37.1925 41.7209C35.0452 42.1888 32.925 40.8276 32.4571 38.6803L32.3303 38.0936C32.0266 36.6671 31.6911 34.8674 31.7932 33.2723C31.8515 32.3615 32.0521 31.5228 32.4787 30.86C32.9042 30.1992 33.5568 29.7089 34.5284 29.4971ZM40.3059 36.9682L40.2965 36.9715H40.2957L40.3047 36.9686L40.3059 36.9682Z" fill="#07303A"/>
<path d="M34.5158 29.4387C38.4622 28.5786 39.6401 33.9856 40.2914 36.9716C40.2914 36.972 40.2916 36.9724 40.2918 36.973C40.7667 39.1527 39.385 41.3046 37.2053 41.7795C35.0257 42.2545 32.8738 40.8728 32.3988 38.6931C31.7481 35.7067 30.5693 30.2987 34.5158 29.4387Z" fill="#F35F5F"/>
<path d="M37.0237 29.7825C36.3344 29.3411 35.5047 29.162 34.5031 29.3802C33.5015 29.5985 32.8213 30.1067 32.3782 30.795C31.9363 31.4814 31.7324 32.3427 31.6734 33.2646C31.5703 34.8769 31.9094 36.6918 32.2134 38.1194L32.3402 38.706C32.8222 40.9179 35.006 42.3201 37.2179 41.8382C39.4299 41.3562 40.8325 39.1721 40.3505 36.9601L40.3501 36.9588L40.3497 36.9572H40.3501C40.0248 35.4661 39.5656 33.3601 38.692 31.7344C38.2548 30.9209 37.7111 30.2226 37.0237 29.7825ZM34.5284 29.4971C35.5 29.2854 36.2973 29.4596 36.9591 29.8834C37.6229 30.3085 38.1545 30.9874 38.5865 31.7913C39.451 33.3999 39.9067 35.4894 40.2327 36.9842L40.234 36.9838C40.2341 36.9843 40.2338 36.9849 40.234 36.9854L40.2331 36.9858C40.701 39.1331 39.3398 41.2529 37.1925 41.7209C35.0452 42.1888 32.925 40.8276 32.4571 38.6803L32.3303 38.0936C32.0266 36.6671 31.6911 34.8674 31.7932 33.2723C31.8515 32.3615 32.0521 31.5228 32.4787 30.86C32.9042 30.1992 33.5568 29.7089 34.5284 29.4971ZM40.3059 36.9682L40.2965 36.9715H40.2957L40.3047 36.9686L40.3059 36.9682Z" fill="#07303A"/>
<path opacity="0.6" d="M32.7951 35.0313C32.6699 35.0101 32.5446 34.9254 32.4795 34.8327C32.3852 34.6983 32.3549 34.5303 32.3341 34.3676C32.2205 33.4722 32.3699 32.5935 32.6912 31.7566C33.0076 30.933 33.597 30.2337 34.4904 30.0395C34.8623 29.9587 35.2758 29.9431 35.5981 30.145C35.725 30.2245 35.8368 30.3447 35.8594 30.4925C35.8748 30.5926 35.8478 30.6947 35.8081 30.7877C35.5754 31.3308 34.9638 31.5811 34.5006 31.9478C33.7316 32.5562 33.4458 33.6593 33.2169 34.5755C33.175 34.7437 33.1161 34.9815 32.9213 35.0287C32.881 35.0385 32.838 35.0387 32.7953 35.0313H32.7951ZM33.1806 35.6794C33.1979 35.707 33.2121 35.7387 33.2223 35.7747C33.3575 36.2498 32.6063 36.4638 32.428 36.0301C32.2558 35.6113 32.9651 35.3365 33.1806 35.6794Z" fill="#94B2C9"/>
<path opacity="0.6" d="M33.2313 35.6473C33.1009 35.44 32.831 35.4303 32.6353 35.514C32.535 35.557 32.4444 35.6275 32.3908 35.7205C32.343 35.8036 32.3266 35.9022 32.3569 36.0074L32.3728 36.0528C32.4776 36.3075 32.7483 36.3649 32.9603 36.3005C33.0675 36.268 33.1669 36.2031 33.2301 36.1096C33.2943 36.0147 33.3185 35.8937 33.28 35.7581C33.2741 35.7376 33.2672 35.7181 33.2591 35.6996L33.2313 35.6473ZM32.6827 35.624C32.8524 35.5515 33.0448 35.576 33.1299 35.7115L33.1496 35.7479C33.1554 35.7612 33.1603 35.7757 33.1647 35.7912L33.1737 35.8284C33.1889 35.9137 33.1694 35.9855 33.1308 36.0426C33.0856 36.1093 33.0113 36.1596 32.9255 36.1857C32.7512 36.2386 32.5573 36.1863 32.4836 36.0074L32.4722 35.9751C32.4507 35.9013 32.4626 35.8358 32.4947 35.7802C32.5324 35.7146 32.6004 35.6592 32.6827 35.624ZM35.5647 30.0566C35.2333 29.8822 34.8305 29.9043 34.4777 29.981L34.3927 30.0014C33.5208 30.2261 32.946 30.9261 32.6353 31.7351L32.5768 31.8942C32.3124 32.6375 32.1845 33.4136 32.2563 34.2051L32.2747 34.3751C32.2929 34.5175 32.3193 34.6742 32.3949 34.8101L32.4305 34.8673C32.5044 34.9725 32.6436 35.0666 32.7853 35.0905L32.7902 35.0913H32.7947C32.8288 35.0965 32.8636 35.098 32.8981 35.0938L32.9358 35.0868C33.0567 35.0575 33.1314 34.969 33.1798 34.8747C33.2038 34.8279 33.2226 34.7775 33.2379 34.7283L33.2751 34.5902C33.3896 34.1316 33.5175 33.6311 33.7116 33.1696C33.8936 32.7371 34.1322 32.3426 34.4691 32.0515L34.5378 31.9947C34.6514 31.9048 34.7748 31.8215 34.9008 31.738C35.0262 31.6549 35.1551 31.5713 35.2765 31.4821C35.5194 31.3036 35.7405 31.0974 35.8631 30.8113L35.7532 30.7643C35.6431 31.0211 35.4422 31.2116 35.2054 31.3856C35.0869 31.4727 34.9614 31.5543 34.8346 31.6383C34.7085 31.7218 34.5814 31.8073 34.4634 31.9007L34.3911 31.9608C34.0349 32.2684 33.7872 32.6811 33.6013 33.123C33.403 33.5942 33.2733 34.1035 33.159 34.5611L33.1234 34.6928C33.1097 34.737 33.0934 34.7807 33.0731 34.8203C33.033 34.8985 32.9811 34.9525 32.9075 34.9703L32.8585 34.9765C32.8415 34.9768 32.8238 34.9755 32.8058 34.9724L32.8004 34.9711C32.6932 34.9514 32.5841 34.8772 32.5286 34.7982L32.4996 34.7512C32.4368 34.6383 32.4119 34.5024 32.3937 34.36L32.3757 34.1944C32.3056 33.423 32.43 32.6642 32.6897 31.9342L32.7473 31.7781C33.0496 30.9911 33.6006 30.329 34.4229 30.1171L34.5035 30.0979C34.8479 30.023 35.2154 30.0083 35.5087 30.1625L35.5663 30.1956C35.6859 30.2705 35.7813 30.3781 35.8002 30.5014V30.5018L35.8594 30.4924L35.9187 30.4834C35.8924 30.3112 35.7642 30.1783 35.6301 30.0942L35.5647 30.0566ZM35.8002 30.5018C35.813 30.5858 35.791 30.6756 35.7532 30.7643L35.8382 30.8002L35.8631 30.8113H35.8635L35.8922 30.7352C35.9178 30.6565 35.9321 30.5705 35.9187 30.4834L35.8002 30.5018Z" fill="#07303A"/>
<g opacity="0.6">
<path d="M41.5538 17.1841C44.4329 18.1033 46.1332 19.7599 46.5549 21.6951C46.9765 23.6303 46.1194 25.8442 43.8836 27.878C39.4122 31.9458 31.1193 33.753 25.361 31.9146C22.4819 30.9955 20.7815 29.3389 20.3599 27.4037C19.9383 25.4685 20.7953 23.2546 23.0311 21.2207C27.5026 17.153 35.7955 15.3458 41.5538 17.1841Z" fill="#94B2C9"/>
<path d="M30.3523 32.691C35.2593 32.691 40.6331 30.9164 43.9241 27.9224C46.1032 25.9401 47.0583 23.724 46.6135 21.6824C46.1687 19.6409 44.3783 18.0231 41.572 17.1273C35.8048 15.2859 27.4693 17.1025 22.9909 21.1766C20.8118 23.159 19.8567 25.375 20.3015 27.4167C20.7463 29.4584 22.5367 31.076 25.343 31.972C26.8721 32.4601 28.5818 32.6912 30.3523 32.6912V32.691ZM36.5578 16.5267C38.3174 16.5267 40.0155 16.7561 41.5355 17.2413C44.2992 18.1235 46.061 19.7098 46.4965 21.7079C46.9317 23.7058 45.9895 25.8815 43.8436 27.8339C40.5734 30.8087 35.2329 32.5722 30.3573 32.5724C28.5976 32.5724 26.8995 32.3429 25.3795 31.8577C22.6158 30.9755 20.854 29.389 20.4186 27.3911C19.9833 25.3932 20.9255 23.2175 23.0714 21.2653C26.3416 18.2905 31.6821 16.5267 36.5578 16.5267Z" fill="#07303A"/>
</g>
<g opacity="0.6">
<path d="M24.5433 53.1467C25.5342 54.0165 26.8604 54.7458 28.51 55.2719C35.4204 57.4781 45.3725 55.3092 50.7397 50.4273C53.4225 47.986 54.4513 45.3288 53.9452 43.0063C53.9118 42.8533 53.8703 42.7007 53.8238 42.5505H53.8249L47.0572 21.1501C47.0993 21.2859 47.1295 21.4245 47.1597 21.563C47.6009 23.5875 46.7047 25.9034 44.3656 28.0323C44.1046 28.27 43.8309 28.5001 43.5461 28.7226C42.4913 29.5467 42.0285 30.9186 42.4048 32.2031C43.5677 36.171 44.0988 38.0349 45.0289 41.3834C46.2693 45.8449 46.9707 52.348 37.7634 54.9998C31.4457 56.8188 26.8223 54.6723 24.5433 53.1465V53.1467Z" fill="#94B2C9"/>
<path d="M34.4996 56.1915C40.3858 56.1915 46.8313 54.0629 50.7797 50.4717C53.3916 48.0947 54.5364 45.4391 54.0035 42.9935C53.9762 42.8677 53.9412 42.7341 53.8999 42.5955H53.9007L53.8821 42.5322L47.1144 21.132L46.9999 21.1677C47.0413 21.3012 47.0716 21.4406 47.101 21.5756C47.5568 23.6666 46.5709 25.944 44.3251 27.9878C44.0674 28.2221 43.7928 28.4536 43.509 28.6753C42.4212 29.525 41.9653 30.9163 42.3471 32.22C43.4768 36.0746 44.0163 37.9621 44.971 41.3995C46.2375 45.9554 46.8667 52.3157 37.7467 54.9423C31.411 56.7663 26.7756 54.569 24.5765 53.0966L24.5036 53.1915C25.5308 54.0933 26.8727 54.8123 28.4915 55.3286C30.325 55.914 32.3765 56.1913 34.4996 56.1913V56.1915ZM53.7521 42.519L53.7663 42.5685C53.8152 42.7263 53.8555 42.8779 53.8865 43.0193C54.41 45.4211 53.2779 48.0364 50.6992 50.3832C45.3549 55.2441 35.4088 57.4116 28.5282 55.2148C27.3762 54.8475 26.3667 54.3769 25.5131 53.8107C27.988 55.1942 32.2391 56.6531 37.7801 55.0576C41.8656 53.881 44.4196 51.8055 45.3711 48.889C46.2453 46.2092 45.6276 43.3129 45.0867 41.3675C44.1318 37.9293 43.5923 36.0416 42.4624 32.1864C42.0943 30.9303 42.5341 29.5893 43.5829 28.77C43.8691 28.5463 44.1461 28.3132 44.406 28.0767C46.4736 26.195 47.4875 24.1124 47.3101 22.148L53.7525 42.519H53.7521Z" fill="#07303A"/>
</g>
<g opacity="0.6">
<path d="M26.8227 33.2972C27.461 33.4118 28.3023 33.4771 28.3836 34.1207C28.4417 34.5808 28.072 34.9374 27.7225 35.1733C26.8696 35.7489 25.9826 36.2896 25.5346 37.2589C25.4211 37.5043 25.3373 37.7624 25.264 38.0226C24.5118 40.6929 24.8681 43.5325 24.7085 46.302C24.6881 46.6543 24.651 47.0286 24.4333 47.3062C23.6307 48.3289 23.0977 46.7899 23.0188 46.2135C22.5763 42.983 22.0846 39.7597 21.8691 36.5043C21.7868 35.2607 21.7151 34.0042 21.7355 32.7575C21.7572 31.4217 22.7016 32.0762 23.586 32.4163C24.6342 32.8194 25.7173 33.0986 26.8227 33.2972Z" fill="#94B2C9"/>
<path d="M23.9077 47.7089C24.0975 47.7089 24.2896 47.5865 24.4804 47.3434C24.7077 47.0538 24.7472 46.6719 24.7684 46.3056C24.8191 45.4242 24.8179 44.522 24.8165 43.6496C24.8137 41.7833 24.8107 39.8533 25.3216 38.0393C25.4097 37.7267 25.4922 37.4938 25.5891 37.2843C25.9967 36.4023 26.7941 35.868 27.5652 35.3513L27.756 35.223C28.2617 34.8815 28.493 34.5082 28.4431 34.1133C28.3646 33.4934 27.6609 33.3767 27.0401 33.2737C26.9696 33.2619 26.9003 33.2505 26.8332 33.2383C25.642 33.0244 24.5866 32.7372 23.6073 32.3605C23.4723 32.3085 23.3359 32.2492 23.2017 32.1909C22.7149 31.9794 22.2553 31.7795 21.9605 31.9696C21.7754 32.0888 21.6819 32.3463 21.6753 32.7567C21.6543 34.038 21.7298 35.3127 21.8089 36.5085C21.9919 39.272 22.38 42.0577 22.7553 44.7517C22.8236 45.2416 22.8919 45.7318 22.959 46.2219C23.0145 46.6274 23.3007 47.5607 23.7891 47.6932C23.8284 47.7037 23.868 47.7091 23.9075 47.7091L23.9077 47.7089ZM26.812 33.3563C26.8797 33.3685 26.9496 33.3801 27.0206 33.3919C27.6002 33.488 28.2569 33.597 28.324 34.1285C28.3678 34.4748 28.154 34.8098 27.6887 35.124L27.4983 35.2518C26.7134 35.7777 25.9019 36.3214 25.48 37.234C25.3803 37.4495 25.2961 37.6877 25.2062 38.0067C24.6907 39.8369 24.6937 41.7753 24.6965 43.6498C24.6979 44.5206 24.6993 45.421 24.6485 46.2988C24.6284 46.6462 24.5918 47.0071 24.3859 47.2695C24.1877 47.5218 23.9972 47.6256 23.8204 47.5775C23.4182 47.4685 23.134 46.6164 23.0776 46.2058C23.0105 45.7154 22.9422 45.2253 22.8739 44.7351C22.4988 42.0433 22.1109 39.2596 21.9284 36.5005C21.8493 35.3073 21.774 34.0354 21.7949 32.7587C21.8009 32.3916 21.8762 32.1663 22.0252 32.0705C22.2665 31.9153 22.6973 32.1026 23.1537 32.301C23.2895 32.3599 23.4276 32.42 23.564 32.4723C24.5505 32.8518 25.613 33.141 26.8116 33.3563H26.812Z" fill="#07303A"/>
</g>
<g opacity="0.6">
<path d="M25.0855 48.5249C25.3643 48.7907 25.5243 49.1906 25.4307 49.6007C25.2741 50.2864 24.3773 50.5756 23.8096 50.1927C23.1695 49.7611 23.1098 48.8211 23.7767 48.3761C24.2271 48.0755 24.7452 48.2003 25.0855 48.5249Z" fill="#94B2C9"/>
<path d="M24.3898 50.4229C24.5404 50.4229 24.6938 50.3945 24.8392 50.3372C25.1776 50.2033 25.4143 49.9399 25.4886 49.6141C25.581 49.2095 25.4456 48.786 25.1264 48.4816C24.7951 48.1659 24.2388 47.9957 23.7429 48.3267C23.4255 48.5386 23.2428 48.8751 23.242 49.2504C23.241 49.6457 23.4405 50.0166 23.7757 50.2427C23.9524 50.3619 24.1683 50.4229 24.3898 50.4229ZM25.044 48.5683C25.3324 48.8432 25.455 49.2243 25.3719 49.5874C25.3064 49.874 25.0963 50.1067 24.7953 50.2255C24.4725 50.3531 24.1076 50.3216 23.8426 50.143C23.5408 49.9393 23.361 49.6057 23.3618 49.2504C23.3626 48.9159 23.5258 48.6153 23.8094 48.4261C24.2808 48.1117 24.7689 48.3061 25.0438 48.5683H25.044Z" fill="#07303A"/>
</g>
<g opacity="0.6">
<path d="M31.6022 18.0394C31.748 18.1085 31.8233 18.1706 31.8968 18.2631C32.1177 18.5415 31.7684 18.9104 31.4606 19.0884C29.7057 20.1026 27.8762 21.0364 26.3768 22.4002C24.8772 23.7639 23.7185 25.66 23.7687 27.6863C23.7799 28.1399 23.8508 28.5893 23.9067 29.0395C23.9335 29.2542 23.956 29.4769 23.8913 29.6834C23.8266 29.8899 23.6512 30.0773 23.4349 30.0875C23.2765 30.0949 23.1297 30.0096 22.9997 29.9187C21.4576 28.8407 20.9742 26.6595 21.4873 24.8491C22.0004 23.0387 23.3275 21.5637 24.8023 20.3954C26.5657 18.9985 30.6916 17.6072 31.6022 18.0394Z" fill="#94B2C9"/>
<path d="M23.4156 30.1478C23.423 30.1478 23.4302 30.1478 23.4376 30.1474C23.6963 30.135 23.8836 29.9076 23.9483 29.7014C24.015 29.4887 23.9947 29.2634 23.9659 29.0321C23.9547 28.9422 23.9429 28.8524 23.9311 28.7623C23.885 28.4094 23.8371 28.0446 23.8283 27.6847C23.7841 25.8907 24.7277 23.9809 26.4168 22.4445C27.6623 21.3119 29.1615 20.4628 30.6112 19.6417C30.9052 19.4753 31.1988 19.3087 31.4904 19.1404C31.7043 19.0167 31.9712 18.7834 32.0189 18.5328C32.0405 18.4193 32.0151 18.3161 31.9438 18.226C31.8597 18.1199 31.7742 18.0548 31.628 17.9855C30.6755 17.5337 26.5067 18.969 24.7652 20.3485C22.9988 21.7479 21.8765 23.2567 21.4299 24.8327C20.864 26.8289 21.4958 28.9402 22.9656 29.9679C23.0939 30.0574 23.2469 30.1478 23.416 30.1478H23.4156ZM31.0896 18.0119C31.2927 18.0119 31.4585 18.0376 31.5765 18.0938C31.7231 18.1633 31.7876 18.2222 31.8497 18.3005C31.8993 18.3628 31.9161 18.4315 31.9011 18.5104C31.8635 18.7077 31.6376 18.9169 31.4305 19.0367C31.1391 19.2051 30.8457 19.3713 30.5523 19.5376C29.0968 20.3619 27.5918 21.2144 26.3365 22.3561C24.6214 23.9158 23.6637 25.8592 23.7086 27.6879C23.7176 28.0542 23.766 28.4221 23.8125 28.7781C23.8243 28.8677 23.8361 28.9574 23.8471 29.0471C23.8752 29.273 23.8936 29.4757 23.8341 29.6657C23.7813 29.8335 23.6331 30.0184 23.432 30.0278C23.2922 30.0354 23.1512 29.9515 23.0339 29.8696C21.4409 28.7561 21.079 26.5093 21.5447 24.8655C21.9843 23.314 23.0929 21.8258 24.8393 20.4424C26.1979 19.3661 29.6197 18.0119 31.0896 18.0119Z" fill="#07303A"/>
</g>
<path d="M38.332 5.80636C38.5644 5.81827 38.7422 6.01525 38.7305 6.24696L38.4732 11.3739C38.4615 11.6056 38.2642 11.7839 38.0328 11.7723C38.002 11.7708 37.9721 11.766 37.9435 11.7583C37.7569 11.7077 37.6243 11.5327 37.6343 11.3317L37.8916 6.20476C37.9033 5.97305 38.1006 5.79477 38.332 5.80636ZM52.3395 10.6358C52.4656 10.4411 52.7256 10.3849 52.9203 10.511C53.115 10.637 53.171 10.897 53.0452 11.0917L50.2589 15.4032C50.157 15.5606 49.968 15.6273 49.7962 15.5807C49.7554 15.5696 49.7156 15.5522 49.6781 15.528C49.4834 15.4019 49.4274 15.142 49.5533 14.9472L52.3395 10.6358ZM23.346 9.02625C23.5526 8.92063 23.8055 9.00223 23.9114 9.20869L26.252 13.7776C26.3577 13.984 26.2763 14.2372 26.0696 14.343C25.9728 14.3925 25.8658 14.4009 25.7684 14.3745C25.6582 14.3446 25.5604 14.2701 25.5042 14.1605L23.1636 9.59161C23.0579 9.3852 23.1394 9.13206 23.346 9.02625ZM62.6367 21.6971C62.8429 21.5916 63.096 21.673 63.2021 21.8795C63.3077 22.086 63.2263 22.3391 63.0196 22.4449L58.4507 24.7856C58.3539 24.8351 58.2469 24.8435 58.1493 24.8171C58.0393 24.7872 57.9415 24.7127 57.8853 24.6031C57.7797 24.3967 57.8611 24.1436 58.0678 24.0378L62.6367 21.6971ZM7.71368 33.4977L12.8409 33.755C13.0716 33.7663 13.2507 33.9638 13.2392 34.1956C13.2275 34.4273 13.0302 34.6056 12.7986 34.5939L7.67148 34.3366C7.64084 34.3351 7.61089 34.3303 7.58236 34.3225C7.39576 34.272 7.26316 34.0969 7.27314 33.896C7.28484 33.6643 7.48198 33.486 7.71368 33.4977ZM11.9774 19.308C12.1031 19.1132 12.363 19.0574 12.5582 19.1832L16.8698 21.9695C17.0645 22.0955 17.1205 22.3555 16.9945 22.5502C16.8928 22.7077 16.7036 22.7743 16.532 22.7278C16.4911 22.7167 16.4512 22.6993 16.4137 22.675L12.1021 19.8887C11.9073 19.7629 11.8514 19.5027 11.9774 19.308Z" fill="#F35F5F"/>
<path d="M7.56661 34.3803C7.59938 34.3892 7.63372 34.3946 7.66843 34.3964L12.7956 34.6537C13.0598 34.667 13.2857 34.4627 13.2989 34.1985C13.3053 34.0705 13.2614 33.9477 13.1752 33.8525C13.0891 33.7571 12.9712 33.7014 12.8437 33.6952L7.71658 33.4378C7.45239 33.4245 7.22649 33.6288 7.21323 33.893C7.20203 34.1168 7.3507 34.3218 7.56661 34.3803ZM12.9145 33.8271C12.9803 33.845 13.0395 33.8813 13.0863 33.9331C13.151 34.0046 13.1841 34.0968 13.1794 34.1928C13.1694 34.391 12.9999 34.5444 12.8016 34.5345L7.67446 34.2771C7.47664 34.2672 7.32334 34.093 7.33298 33.8994C7.34305 33.7012 7.51251 33.5478 7.71077 33.5577L12.8379 33.8151C12.8641 33.8164 12.8899 33.8205 12.9145 33.8271ZM16.5167 22.7857C16.7189 22.8405 16.9311 22.759 17.0451 22.583C17.1887 22.3607 17.125 22.063 16.9026 21.9194L12.591 19.133C12.3682 18.9892 12.0708 19.0535 11.9274 19.2756C11.7837 19.4978 11.8475 19.7955 12.0699 19.9392L16.3815 22.7255C16.4234 22.7526 16.4688 22.7727 16.5167 22.7857ZM12.4249 19.1884C12.4598 19.1978 12.4938 19.2127 12.5259 19.2334L16.8375 22.0197C17.0042 22.1276 17.0522 22.3508 16.9444 22.5176C16.8389 22.681 16.6114 22.7307 16.4465 22.6245L12.1349 19.8382C12.0541 19.7861 11.9985 19.7054 11.9783 19.6114C11.9581 19.5173 11.9757 19.4211 12.028 19.3403C12.115 19.2056 12.2776 19.1485 12.4249 19.1884ZM58.134 24.875C58.2494 24.9063 58.3717 24.8935 58.4781 24.8389L63.0471 22.4981C63.2826 22.3775 63.3761 22.0877 63.2555 21.8522C63.1345 21.6168 62.8447 21.5234 62.6095 21.6438L58.0405 23.9844C57.8051 24.105 57.7116 24.3948 57.8321 24.6303C57.8937 24.7504 58.0038 24.8397 58.134 24.875ZM62.922 21.7237C63.0167 21.7494 63.1006 21.8131 63.1486 21.9068C63.239 22.0834 63.1691 22.3008 62.9922 22.3913L58.4233 24.732C58.253 24.8191 58.0257 24.7454 57.9387 24.5756C57.8483 24.399 57.9182 24.1816 58.095 24.0911L62.664 21.7504C62.7468 21.7081 62.8385 21.7011 62.922 21.7237ZM25.7529 14.4324C25.8681 14.4636 25.9904 14.4508 26.0971 14.3964C26.3326 14.2756 26.4261 13.9858 26.3055 13.7503L23.9649 9.18137C23.8443 8.94608 23.5544 8.85261 23.319 8.97297C23.0835 9.0937 22.99 9.38354 23.1105 9.61902L25.4512 14.1879C25.5128 14.3081 25.6227 14.3971 25.7529 14.4324ZM23.6317 9.05298C23.7262 9.07859 23.8101 9.14231 23.8581 9.23605L26.1989 13.8048C26.2892 13.9816 26.2193 14.199 26.0424 14.2895C25.8717 14.3766 25.6448 14.3027 25.5578 14.133L23.217 9.56429C23.1267 9.38769 23.1966 9.17012 23.3735 9.07962C23.4563 9.03731 23.5482 9.03035 23.6317 9.05298ZM49.7807 15.6386C49.9829 15.6934 50.1954 15.6119 50.3093 15.4359L53.0956 11.1244C53.2392 10.9022 53.1753 10.6045 52.9531 10.4608C52.8455 10.3911 52.717 10.3675 52.5917 10.3945C52.4665 10.4214 52.359 10.4956 52.2895 10.6034L49.5032 14.9148C49.3596 15.137 49.4235 15.4347 49.6457 15.5784C49.6876 15.6055 49.7331 15.6256 49.7807 15.6386ZM52.7863 10.5158C52.8219 10.5254 52.8561 10.5407 52.888 10.5612C53.0547 10.6691 53.1028 10.8923 52.9949 11.0591L50.2087 15.3705C50.1029 15.5339 49.8756 15.5838 49.7108 15.4774C49.544 15.3695 49.4959 15.1462 49.6038 14.9795L52.3901 10.6681C52.4424 10.5873 52.5229 10.5317 52.6169 10.5115C52.6739 10.4992 52.7317 10.501 52.7863 10.5158ZM37.9279 11.8163C37.9607 11.8252 37.995 11.8306 38.0299 11.8326C38.2941 11.8456 38.5199 11.6416 38.5333 11.3772L38.7906 6.2502C38.8039 5.98645 38.5996 5.76074 38.3354 5.74685C38.0712 5.73359 37.8455 5.93791 37.8322 6.20209L37.5749 11.3291C37.5637 11.5528 37.712 11.7578 37.9279 11.8163ZM38.4051 5.87832C38.5653 5.92175 38.6795 6.07212 38.671 6.24405L38.4137 11.371C38.4036 11.5692 38.2341 11.7226 38.0361 11.7128C37.837 11.7029 37.6848 11.5283 37.6944 11.335L37.9517 6.20799C37.9618 6.00978 38.1312 5.85644 38.3293 5.86626C38.3554 5.86755 38.3808 5.87173 38.4051 5.87832Z" fill="#07303A"/>
</g>
<defs>
<clipPath id="clip0_11448_17212">
<rect width="72" height="72" fill="white"/>
</clipPath>
</defs>
</svg>
