<svg xmlns="http://www.w3.org/2000/svg" width="24" height="24" viewBox="0 0 24 24" fill="none"><g clip-path="url(#clip0_1_191)"><path d="M10.845 22C10.395 22 10.0075 21.85 9.6825 21.55C9.3575 21.25 9.16167 20.8833 9.095 20.45L8.87 18.8C8.65333 18.7167 8.44917 18.6167 8.2575 18.5C8.06583 18.3833 7.87833 18.2583 7.695 18.125L6.145 18.775C5.72833 18.9583 5.31167 18.975 4.895 18.825C4.47833 18.675 4.15333 18.4083 3.92 18.025L2.745 15.975C2.51167 15.5917 2.445 15.1833 2.545 14.75C2.645 14.3167 2.87 13.9583 3.22 13.675L4.545 12.675C4.52833 12.5583 4.52 12.4458 4.52 12.3375V11.6625C4.52 11.5542 4.52833 11.4417 4.545 11.325L3.22 10.325C2.87 10.0417 2.645 9.68333 2.545 9.25C2.445 8.81667 2.51167 8.40833 2.745 8.025L3.92 5.975C4.15333 5.59167 4.47833 5.325 4.895 5.175C5.31167 5.025 5.72833 5.04167 6.145 5.225L7.695 5.875C7.87833 5.74167 8.07 5.61667 8.27 5.5C8.47 5.38333 8.67 5.28333 8.87 5.2L9.095 3.55C9.16167 3.11667 9.3575 2.75 9.6825 2.45C10.0075 2.15 10.395 2 10.845 2H13.195C13.645 2 14.0325 2.15 14.3575 2.45C14.6825 2.75 14.8783 3.11667 14.945 3.55L15.17 5.2C15.3867 5.28333 15.5908 5.38333 15.7825 5.5C15.9742 5.61667 16.1617 5.74167 16.345 5.875L17.895 5.225C18.3117 5.04167 18.7283 5.025 19.145 5.175C19.5617 5.325 19.8867 5.59167 20.12 5.975L21.295 8.025C21.5283 8.40833 21.595 8.81667 21.495 9.25C21.395 9.68333 21.17 10.0417 20.82 10.325L19.495 11.325C19.5117 11.4417 19.52 11.5542 19.52 11.6625V12.3375C19.52 12.4458 19.5033 12.5583 19.47 12.675L20.795 13.675C21.145 13.9583 21.37 14.3167 21.47 14.75C21.57 15.1833 21.5033 15.5917 21.27 15.975L20.07 18.025C19.8367 18.4083 19.5117 18.675 19.095 18.825C18.6783 18.975 18.2617 18.9583 17.845 18.775L16.345 18.125C16.1617 18.2583 15.97 18.3833 15.77 18.5C15.57 18.6167 15.37 18.7167 15.17 18.8L14.945 20.45C14.8783 20.8833 14.6825 21.25 14.3575 21.55C14.0325 21.85 13.645 22 13.195 22H10.845ZM11.02 20H12.995L13.345 17.35C13.8617 17.2167 14.3408 17.0208 14.7825 16.7625C15.2242 16.5042 15.6283 16.1917 15.995 15.825L18.47 16.85L19.445 15.15L17.295 13.525C17.3783 13.2917 17.4367 13.0458 17.47 12.7875C17.5033 12.5292 17.52 12.2667 17.52 12C17.52 11.7333 17.5033 11.4708 17.47 11.2125C17.4367 10.9542 17.3783 10.7083 17.295 10.475L19.445 8.85L18.47 7.15L15.995 8.2C15.6283 7.81667 15.2242 7.49583 14.7825 7.2375C14.3408 6.97917 13.8617 6.78333 13.345 6.65L13.02 4H11.045L10.695 6.65C10.1783 6.78333 9.69917 6.97917 9.2575 7.2375C8.81583 7.49583 8.41167 7.80833 8.045 8.175L5.57 7.15L4.595 8.85L6.745 10.45C6.66167 10.7 6.60333 10.95 6.57 11.2C6.53667 11.45 6.52 11.7167 6.52 12C6.52 12.2667 6.53667 12.525 6.57 12.775C6.60333 13.025 6.66167 13.275 6.745 13.525L4.595 15.15L5.57 16.85L8.045 15.8C8.41167 16.1833 8.81583 16.5042 9.2575 16.7625C9.69917 17.0208 10.1783 17.2167 10.695 17.35L11.02 20ZM12.07 15.5C13.0367 15.5 13.8617 15.1583 14.545 14.475C15.2283 13.7917 15.57 12.9667 15.57 12C15.57 11.0333 15.2283 10.2083 14.545 9.525C13.8617 8.84167 13.0367 8.5 12.07 8.5C11.0867 8.5 10.2575 8.84167 9.5825 9.525C8.9075 10.2083 8.57 11.0333 8.57 12C8.57 12.9667 8.9075 13.7917 9.5825 14.475C10.2575 15.1583 11.0867 15.5 12.07 15.5Z" fill="currentColor"/></g><defs><clipPath id="clip0_1_191"><rect width="24" height="24" fill="currentColor"/></clipPath></defs></svg>