<svg width="48" height="48" viewBox="0 0 48 48" fill="none" xmlns="http://www.w3.org/2000/svg">
<mask id="mask0_11133_27439" style="mask-type:alpha" maskUnits="userSpaceOnUse" x="0" y="0" width="48" height="48">
<rect width="48" height="48" fill="#D9D9D9"/>
</mask>
<g mask="url(#mask0_11133_27439)">
<path d="M18.0382 7.81952H17.2433C16.7315 7.81952 16.3069 8.23329 16.3069 8.75594V13.0678C16.3069 13.5796 16.7207 14.0043 17.2433 14.0043H18.0382C18.5499 14.0043 18.9746 13.5905 18.9746 13.0678V8.75594C18.9746 8.24418 18.5608 7.81952 18.0382 7.81952Z" fill="#04B488" stroke="#0B4D5E" stroke-width="0.4" stroke-miterlimit="10"/>
<path d="M31.3441 7.81952H30.5492C30.0374 7.81952 29.6128 8.23329 29.6128 8.75594V13.0678C29.6128 13.5796 30.0266 14.0043 30.5492 14.0043H31.3441C31.8558 14.0043 32.2805 13.5905 32.2805 13.0678V8.75594C32.2805 8.24418 31.8667 7.81952 31.3441 7.81952Z" fill="#04B488" stroke="#0B4D5E" stroke-width="0.4" stroke-miterlimit="10"/>
<path d="M6.76843 33.0593H37.9208V37.9483C37.9208 39.1788 36.919 40.1805 35.6886 40.1805H10.3399C8.36906 40.1805 6.76843 38.5799 6.76843 36.609V33.0593Z" fill="#8AE5CC" stroke="#0B4D5E" stroke-width="0.4" stroke-miterlimit="10"/>
<path d="M6.76843 32.9287H37.9208V25.568H6.76843V32.9287Z" fill="#04B488" stroke="#0B4D5E" stroke-width="0.4" stroke-miterlimit="10"/>
<path d="M6.76843 25.4808H37.9208V18.1201H6.76843V25.4808Z" fill="#04B488" stroke="#0B4D5E" stroke-width="0.4" stroke-miterlimit="10"/>
<path d="M10.3399 10.8792H35.6886C36.919 10.8792 37.9208 11.881 37.9208 13.1114V18.1093H6.76843V14.4507C6.76843 12.4798 8.36906 10.8792 10.3399 10.8792Z" fill="#0B4D5E" stroke="#0B4D5E" stroke-width="0.4" stroke-miterlimit="10"/>
<path d="M37.0716 10.9554H12.2346C11.0913 10.9554 10.1658 11.9572 10.1658 13.1876V37.9483C10.1658 39.1788 11.0913 40.1805 12.2346 40.1805H37.0607C38.204 40.1805 39.1295 39.1788 39.1295 37.9483V13.1767C39.1295 11.9463 38.204 10.9445 37.0607 10.9445L37.0716 10.9554Z" fill="#F0F4FF" stroke="#0B4D5E" stroke-width="0.4" stroke-miterlimit="10"/>
<path d="M12.2346 10.9336H37.0607C38.204 10.9336 39.1295 11.9354 39.1295 13.1658V16.8897H10.1658V13.1658C10.1658 11.9354 11.0913 10.9336 12.2346 10.9336Z" fill="#04B488" stroke="#0B4D5E" stroke-width="0.4" stroke-miterlimit="10"/>
<path d="M18.0491 15.3109C18.9528 15.3109 19.6824 14.5814 19.6824 13.6776C19.6824 12.7738 18.9528 12.0443 18.0491 12.0443C17.1453 12.0443 16.4158 12.7738 16.4158 13.6776C16.4158 14.5814 17.1453 15.3109 18.0491 15.3109Z" fill="#0B4D5E" stroke="#0B4D5E" stroke-width="0.4" stroke-miterlimit="10"/>
<path d="M31.2244 15.3109C32.1281 15.3109 32.8577 14.5814 32.8577 13.6776C32.8577 12.7738 32.1281 12.0443 31.2244 12.0443C30.3206 12.0443 29.5911 12.7738 29.5911 13.6776C29.5911 14.5814 30.3206 15.3109 31.2244 15.3109Z" fill="#0B4D5E" stroke="#0B4D5E" stroke-width="0.4" stroke-miterlimit="10"/>
<path d="M18.9747 8.75594C18.9747 8.24418 18.5609 7.81952 18.0382 7.81952C17.5156 7.81952 17.1018 8.23329 17.1018 8.75594V13.0678C17.1018 13.5796 17.5156 14.0043 18.0382 14.0043C18.5609 14.0043 18.9747 13.5905 18.9747 13.0678V8.75594Z" fill="#F0F4FF" stroke="#0B4D5E" stroke-width="0.4" stroke-miterlimit="10"/>
<path d="M32.2696 8.75594C32.2696 8.24418 31.8558 7.81952 31.3332 7.81952C30.8105 7.81952 30.3967 8.23329 30.3967 8.75594V13.0678C30.3967 13.5796 30.8105 14.0043 31.3332 14.0043C31.8558 14.0043 32.2696 13.5905 32.2696 13.0678V8.75594Z" fill="#F0F4FF" stroke="#0B4D5E" stroke-width="0.4" stroke-miterlimit="10"/>
<path d="M10.1658 16.8789C10.1658 23.7931 10.5795 34.0176 15.9803 37.2188H44.9549C39.5433 34.0067 39.1404 23.7823 39.1404 16.8789H10.1658Z" fill="#F0F4FF" stroke="#0B4D5E" stroke-width="0.4" stroke-linecap="round" stroke-linejoin="round"/>
<path d="M27.6202 24.2722H24.0379C23.641 24.2722 23.3192 24.594 23.3192 24.9909V28.5732C23.3192 28.9701 23.641 29.2919 24.0379 29.2919H27.6202C28.0171 29.2919 28.3389 28.9701 28.3389 28.5732V24.9909C28.3389 24.594 28.0171 24.2722 27.6202 24.2722Z" fill="#04B488" stroke="#0B4D5E" stroke-width="0.4" stroke-miterlimit="10"/>
<path d="M19.5845 24.2722H16.0021C15.6052 24.2722 15.2834 24.594 15.2834 24.9909V28.5732C15.2834 28.9701 15.6052 29.2919 16.0021 29.2919H19.5845C19.9814 29.2919 20.3031 28.9701 20.3031 28.5732V24.9909C20.3031 24.594 19.9814 24.2722 19.5845 24.2722Z" fill="#04B488" stroke="#0B4D5E" stroke-width="0.4" stroke-miterlimit="10"/>
<path d="M35.6451 24.2722H32.0628C31.6659 24.2722 31.3441 24.594 31.3441 24.9909V28.5732C31.3441 28.9701 31.6659 29.2919 32.0628 29.2919H35.6451C36.042 29.2919 36.3638 28.9701 36.3638 28.5732V24.9909C36.3638 24.594 36.042 24.2722 35.6451 24.2722Z" fill="#04B488" stroke="#0B4D5E" stroke-width="0.4" stroke-miterlimit="10"/>
</g>
</svg>
