<svg width="48" height="48" viewBox="0 0 48 48" fill="none" xmlns="http://www.w3.org/2000/svg">
<mask id="mask0_11133_27463" style="mask-type:alpha" maskUnits="userSpaceOnUse" x="0" y="0" width="48" height="48">
<rect width="48" height="48" fill="#D9D9D9"/>
</mask>
<g mask="url(#mask0_11133_27463)">
<path d="M18.0136 7.81952H17.2188C16.707 7.81952 16.2823 8.23329 16.2823 8.75594V13.0678C16.2823 13.5796 16.6961 14.0043 17.2188 14.0043H18.0136C18.5254 14.0043 18.9501 13.5905 18.9501 13.0678V8.75594C18.9501 8.24418 18.5363 7.81952 18.0136 7.81952Z" fill="#04B488" stroke="#155C6D" stroke-width="0.4" stroke-miterlimit="10"/>
<path d="M31.3195 7.81952H30.5247C30.0129 7.81952 29.5883 8.23329 29.5883 8.75594V13.0678C29.5883 13.5796 30.002 14.0043 30.5247 14.0043H31.3195C31.8313 14.0043 32.256 13.5905 32.256 13.0678V8.75594C32.256 8.24418 31.8422 7.81952 31.3195 7.81952Z" fill="#04B488" stroke="#155C6D" stroke-width="0.4" stroke-miterlimit="10"/>
<path d="M6.7439 33.0593H37.8962V37.9483C37.8962 39.1788 36.8945 40.1805 35.6641 40.1805H10.3154C8.34452 40.1805 6.7439 38.5799 6.7439 36.609V33.0593Z" fill="#70C5AD" stroke="#155C6D" stroke-width="0.4" stroke-miterlimit="10"/>
<path d="M6.7439 32.9287H37.8962V25.568H6.7439V32.9287Z" fill="#04B488" stroke="#155C6D" stroke-width="0.4" stroke-miterlimit="10"/>
<path d="M6.7439 25.4808H37.8962V18.1201H6.7439V25.4808Z" fill="#04B488" stroke="#155C6D" stroke-width="0.4" stroke-miterlimit="10"/>
<path d="M10.3154 10.8792H35.6641C36.8945 10.8792 37.8962 11.881 37.8962 13.1114V18.1093H6.7439V14.4507C6.7439 12.4798 8.34452 10.8792 10.3154 10.8792Z" fill="#155C6D" stroke="#155C6D" stroke-width="0.4" stroke-miterlimit="10"/>
<path d="M37.047 10.9554H12.2101C11.0668 10.9554 10.1412 11.9572 10.1412 13.1876V37.9483C10.1412 39.1788 11.0668 40.1805 12.2101 40.1805H37.0361C38.1794 40.1805 39.105 39.1788 39.105 37.9483V13.1767C39.105 11.9463 38.1794 10.9445 37.0361 10.9445L37.047 10.9554Z" fill="#C8DAE8" stroke="#155C6D" stroke-width="0.4" stroke-miterlimit="10"/>
<path d="M12.2101 10.9336H37.0361C38.1794 10.9336 39.105 11.9354 39.105 13.1658V16.8897H10.1412V13.1658C10.1412 11.9354 11.0668 10.9336 12.2101 10.9336Z" fill="#04B488" stroke="#155C6D" stroke-width="0.4" stroke-miterlimit="10"/>
<path d="M18.0245 15.3109C18.9283 15.3109 19.6578 14.5814 19.6578 13.6776C19.6578 12.7738 18.9283 12.0443 18.0245 12.0443C17.1208 12.0443 16.3912 12.7738 16.3912 13.6776C16.3912 14.5814 17.1208 15.3109 18.0245 15.3109Z" fill="#155C6D" stroke="#155C6D" stroke-width="0.4" stroke-miterlimit="10"/>
<path d="M31.1998 15.3109C32.1036 15.3109 32.8331 14.5814 32.8331 13.6776C32.8331 12.7738 32.1036 12.0443 31.1998 12.0443C30.2961 12.0443 29.5665 12.7738 29.5665 13.6776C29.5665 14.5814 30.2961 15.3109 31.1998 15.3109Z" fill="#155C6D" stroke="#155C6D" stroke-width="0.4" stroke-miterlimit="10"/>
<path d="M18.9501 8.75594C18.9501 8.24418 18.5363 7.81952 18.0137 7.81952C17.491 7.81952 17.0773 8.23329 17.0773 8.75594V13.0678C17.0773 13.5796 17.491 14.0043 18.0137 14.0043C18.5363 14.0043 18.9501 13.5905 18.9501 13.0678V8.75594Z" fill="#C8DAE8" stroke="#155C6D" stroke-width="0.4" stroke-miterlimit="10"/>
<path d="M32.245 8.75594C32.245 8.24418 31.8313 7.81952 31.3086 7.81952C30.786 7.81952 30.3722 8.23329 30.3722 8.75594V13.0678C30.3722 13.5796 30.786 14.0043 31.3086 14.0043C31.8313 14.0043 32.245 13.5905 32.245 13.0678V8.75594Z" fill="#C8DAE8" stroke="#155C6D" stroke-width="0.4" stroke-miterlimit="10"/>
<path d="M10.1412 16.8789C10.1412 23.7931 10.555 34.0176 15.9558 37.2188H44.9304C39.5187 34.0067 39.1159 23.7822 39.1159 16.8789H10.1412Z" fill="#C8DAE8" stroke="#155C6D" stroke-width="0.4" stroke-linecap="round" stroke-linejoin="round"/>
<path d="M27.5957 24.2722H24.0133C23.6164 24.2722 23.2947 24.594 23.2947 24.9909V28.5732C23.2947 28.9701 23.6164 29.2919 24.0133 29.2919H27.5957C27.9926 29.2919 28.3143 28.9701 28.3143 28.5732V24.9909C28.3143 24.594 27.9926 24.2722 27.5957 24.2722Z" fill="#04B488" stroke="#155C6D" stroke-width="0.4" stroke-miterlimit="10"/>
<path d="M19.5599 24.2722H15.9776C15.5807 24.2722 15.2589 24.594 15.2589 24.9909V28.5732C15.2589 28.9701 15.5807 29.2919 15.9776 29.2919H19.5599C19.9568 29.2919 20.2786 28.9701 20.2786 28.5732V24.9909C20.2786 24.594 19.9568 24.2722 19.5599 24.2722Z" fill="#04B488" stroke="#155C6D" stroke-width="0.4" stroke-miterlimit="10"/>
<path d="M35.6206 24.2722H32.0382C31.6413 24.2722 31.3196 24.594 31.3196 24.9909V28.5732C31.3196 28.9701 31.6413 29.2919 32.0382 29.2919H35.6206C36.0175 29.2919 36.3392 28.9701 36.3392 28.5732V24.9909C36.3392 24.594 36.0175 24.2722 35.6206 24.2722Z" fill="#04B488" stroke="#155C6D" stroke-width="0.4" stroke-miterlimit="10"/>
</g>
</svg>
