<svg width="72" height="72" viewBox="0 0 72 72" fill="none" xmlns="http://www.w3.org/2000/svg">
<path d="M43.2668 42.0473L23.6218 5.95432C23.0711 4.95705 21.6292 5.00615 21.1486 6.03646L7.59135 35.495C7.34103 36.0417 7.36104 36.6725 7.6414 37.2031L13.589 48.3603L43.2668 42.0473Z" fill="#C8DAE8"/>
<path d="M13.4555 48.6495L7.41774 37.3231C7.10134 36.7243 7.07931 36.0024 7.36066 35.3886L20.918 5.93011C21.1813 5.3654 21.73 5.00193 22.3498 4.98091C22.9606 4.95988 23.5433 5.28633 23.8447 5.83203L43.6529 42.2253L13.4555 48.6495ZM22.4078 5.48857C22.3938 5.48857 22.3808 5.48857 22.3668 5.48857C21.9322 5.50359 21.5628 5.74789 21.3795 6.1434L7.82225 35.5999C7.60698 36.0705 7.624 36.6242 7.86631 37.0828L13.7238 48.0708L42.8809 41.8679L23.3991 6.07434C23.1948 5.70487 22.8264 5.48656 22.4089 5.48656L22.4078 5.48857Z" fill="#155C6D"/>
<path d="M39.8816 35.8168L23.5808 5.89477C23.2804 5.34607 22.4794 5.37211 22.2191 5.93883L8.41156 35.7297C8.36149 35.8409 8.44157 35.967 8.57173 35.966L39.8816 35.8168Z" fill="#70C5AD"/>
<path d="M8.5705 36.2205C8.42331 36.2205 8.28909 36.1484 8.20999 36.0272C8.13189 35.9061 8.12089 35.7559 8.18097 35.6247L21.9896 5.83279C22.1498 5.48435 22.4892 5.25906 22.8747 5.24605C23.2812 5.24004 23.6186 5.43426 23.8049 5.77369L40.3099 36.0702L8.57447 36.2214H8.57148L8.5705 36.2205ZM22.9107 5.75267C22.9047 5.75267 22.8977 5.75267 22.8907 5.75267C22.6965 5.75968 22.5313 5.86881 22.4502 6.04504L8.70067 35.7118L39.4548 35.5656L23.3583 6.01705C23.2672 5.85084 23.101 5.75267 22.9117 5.75267H22.9107Z" fill="#155C6D"/>
<path d="M32.5526 35.8802L37.8293 24.4036C38.0396 23.941 38.0196 23.4053 37.7692 22.9618L27.2759 4.37312C27.0055 3.8845 26.2946 3.90753 26.0644 4.41217L11.3556 35.752C11.3156 35.8512 11.3856 35.9633 11.4958 35.9633L32.5526 35.8802Z" fill="#155C6D"/>
<path d="M11.4967 36.2189C11.3606 36.2189 11.2344 36.1529 11.1593 36.0407C11.0832 35.9276 11.0682 35.7844 11.1193 35.6582L25.834 4.30631C25.9781 3.98991 26.2866 3.78266 26.639 3.76864C27.0025 3.75062 27.3259 3.93989 27.4971 4.25229L37.9894 22.8389C38.2778 23.3496 38.3038 23.9744 38.0605 24.511L32.7147 36.1369L11.4967 36.22V36.2189ZM26.679 4.27533H26.66C26.4988 4.28133 26.3627 4.37243 26.2966 4.51862L11.6569 35.7093L32.3893 35.6272L37.5989 24.2978C37.7752 23.9093 37.7561 23.4567 37.5469 23.0872L27.0545 4.49961C26.9754 4.35743 26.8372 4.27533 26.679 4.27533Z" fill="#155C6D"/>
<path d="M33.0534 35.884L38.3401 24.4074C38.5504 23.9448 38.5304 23.4092 38.28 22.9656L27.7767 4.37693C27.5163 3.88831 26.8055 3.91134 26.5652 4.41598L11.8664 35.7559C11.8163 35.855 11.8965 35.9671 11.9966 35.9671L33.0534 35.884Z" fill="#70C5AD"/>
<path d="M11.9973 36.2217C11.8591 36.2217 11.7279 36.1476 11.6558 36.0284C11.5827 35.9093 11.5757 35.7651 11.6378 35.6419L26.3345 4.30806C26.4877 3.98365 26.8061 3.77842 27.1626 3.76941C27.5441 3.77241 27.8364 3.94764 28.0006 4.25703L38.5 22.8407C38.7884 23.3503 38.8134 23.9751 38.5701 24.5128L33.2143 36.1376L11.9962 36.2207L11.9973 36.2217ZM12.0974 35.8602L12.0954 35.8642C12.0954 35.8642 12.0974 35.8612 12.0974 35.8602ZM27.1856 4.27903H27.1746C27.0083 4.28303 26.8652 4.37516 26.7941 4.52635L12.1665 35.7141L32.8889 35.6319L38.1085 24.3025C38.2847 23.914 38.2657 23.4614 38.0585 23.093L27.555 4.50429C27.4789 4.36111 27.3418 4.27903 27.1856 4.27903Z" fill="#155C6D"/>
<path d="M31.8818 17.1646L29.9494 21.4921C29.8492 21.7184 29.5388 21.7334 29.4187 21.5171L27.336 17.8114C27.1858 17.5491 27.1758 17.2307 27.306 16.9573L29.2585 12.754C29.3586 12.5317 29.679 12.5187 29.7992 12.732L31.8417 16.3185C31.9919 16.5778 32.002 16.8913 31.8818 17.1646Z" fill="#155C6D"/>
<path d="M29.678 21.9256C29.4777 21.9256 29.2955 21.8184 29.1974 21.6412L27.1147 17.9365C26.9265 17.6061 26.9115 17.1985 27.0767 16.8491L29.0281 12.6478C29.1133 12.4595 29.2995 12.3353 29.5108 12.3263C29.705 12.3223 29.9183 12.4255 30.0214 12.6087L32.063 16.1943C32.2502 16.5147 32.2693 16.9172 32.1151 17.2676L30.1826 21.5971C30.0985 21.7894 29.9143 21.9156 29.704 21.9256C29.695 21.9256 29.686 21.9256 29.679 21.9256H29.678ZM29.5779 12.858L29.4888 12.861L27.5363 17.0643C27.4411 17.2656 27.4491 17.4969 27.5573 17.6851L29.6409 21.3928L29.718 21.3889L31.6495 17.0624C31.7386 16.8591 31.7286 16.6288 31.6224 16.4465L29.5779 12.858Z" fill="#155C6D"/>
<path d="M38.1 32.6432L25.9145 59.5495L14.1295 35.3216C13.9292 34.9191 13.9292 34.4515 14.1195 34.046L24.2724 12.066C24.6429 11.266 25.7643 11.2159 26.2049 11.9799L38.1 32.6432Z" fill="#C8DAE8"/>
<path d="M25.9222 60.1484L13.9009 35.4329C13.6686 34.9653 13.6636 34.4207 13.8879 33.939L24.0418 11.9601C24.2531 11.5025 24.6977 11.2051 25.2013 11.1831C25.724 11.1561 26.1746 11.4184 26.4249 11.8529L38.3851 32.6294L25.9222 60.1484ZM25.2634 11.6897C25.2493 11.6897 25.2373 11.6897 25.2233 11.6897C24.9059 11.7037 24.6356 11.884 24.5024 12.1723L14.3485 34.1523C14.1893 34.4938 14.1923 34.8782 14.3565 35.2076L25.9052 58.9499L37.8133 32.6554L25.9843 12.1052C25.8331 11.8419 25.5647 11.6877 25.2634 11.6877V11.6897Z" fill="#155C6D"/>
<path d="M37.779 34.439L26.1642 60.0846L14.93 36.9912C14.7397 36.6087 14.7397 36.1622 14.9099 35.7757L25.4433 13.0077L37.779 34.439Z" fill="#155C6D"/>
<path d="M26.1721 60.6836L14.7015 37.1036C14.4812 36.6611 14.4722 36.1394 14.6784 35.6738L25.4201 12.4562L38.0662 34.4262L26.1721 60.6836ZM25.4682 13.5607L15.142 35.8831C14.9989 36.2055 15.0038 36.5699 15.159 36.8783L26.157 59.4871L37.4945 34.4532L25.4682 13.5607Z" fill="#155C6D"/>
<path d="M63.9226 45.5904L28.5876 60.253C27.4962 60.7026 26.2446 60.23 25.734 59.1747L13.979 35.0139C14.2994 35.6748 15.0804 35.9711 15.7612 35.6898L51.7771 20.8319C52.8785 20.3773 54.1401 20.8709 54.6407 21.9493L64.6835 43.6429C65.0339 44.3898 64.6835 45.274 63.9226 45.5904Z" fill="#C8DAE8"/>
<path d="M27.7343 60.6762C26.8101 60.6762 25.928 60.1595 25.5045 59.2844L13.7515 35.1286C13.7515 35.1286 13.7515 35.1257 13.7495 35.1247L14.2071 34.9023V34.9053C14.4724 35.443 15.1132 35.6834 15.6639 35.4541L51.6797 20.5962C52.9073 20.0905 54.3121 20.6352 54.8719 21.8417L64.9136 43.5364C65.1109 43.9559 65.1279 44.4275 64.9596 44.862C64.7894 45.3016 64.456 45.643 64.0205 45.8243L28.6855 60.4869C28.3741 60.6151 28.0527 60.6751 27.7353 60.6751L27.7343 60.6762ZM14.7268 35.9707L25.9631 59.0621C26.4146 59.9963 27.522 60.4158 28.4903 60.0173L63.8242 45.3547C64.1316 45.2275 64.3659 44.9872 64.485 44.6778C64.6022 44.3734 64.5902 44.044 64.453 43.7496L54.4103 22.055C53.9657 21.0968 52.8513 20.6602 51.874 21.0658L15.8582 35.9237C15.4867 36.0768 15.0872 36.0849 14.7268 35.9707Z" fill="#155C6D"/>
<path d="M25.5938 58.8817L14.8501 36.8146L15.0103 37.144C15.2506 37.6207 15.8213 37.8319 16.3119 37.6287L52.5581 22.7177C52.5781 22.7087 52.5981 22.7037 52.6282 22.7037C52.6382 22.7037 52.7383 22.7067 52.7884 22.8048L62.5708 43.9407L27.7966 58.367C27.7765 58.3771 26.585 58.9588 25.5938 58.8817Z" fill="#155C6D"/>
<path d="M52.3074 26.4717C53.8394 26.4717 55.091 25.2241 55.091 23.6862C55.091 22.1482 53.8394 20.9006 52.3074 20.9006C50.7755 20.9006 49.5239 22.1482 49.5239 23.6862C49.5239 25.2241 50.7755 26.4717 52.3074 26.4717Z" fill="#C8DAE8"/>
<path d="M25.3231 16.2883C26.1242 16.2883 26.775 15.2329 26.775 13.9313C26.775 12.6296 26.1242 11.5743 25.3231 11.5743C24.5121 11.5743 23.8613 12.6296 23.8613 13.9313C23.8613 15.2329 24.5121 16.2883 25.3231 16.2883Z" fill="#C8DAE8"/>
<path d="M60.9588 46.1925C62.4808 46.1925 63.7224 44.95 63.7224 43.418C63.7224 41.8861 62.4808 40.6425 60.9588 40.6425C59.4269 40.6425 58.1953 41.8851 58.1953 43.418C58.1953 44.951 59.4269 46.1925 60.9588 46.1925Z" fill="#C8DAE8"/>
<path d="M26.3049 20.7802L24.8931 23.9373C24.6628 24.4619 23.9119 24.4569 23.6916 23.9283L23.6515 23.8491C23.4412 23.3485 23.4513 22.7798 23.6816 22.2862L25.1034 19.2163C25.3437 18.7026 26.0746 18.7106 26.3049 19.2293C26.5252 19.7239 26.5252 20.2876 26.3049 20.7802Z" fill="#C8DAE8"/>
<path d="M24.2941 24.582H24.2841C23.9146 24.578 23.5972 24.3657 23.457 24.0263L23.4249 23.9642C23.1786 23.3805 23.1916 22.7357 23.451 22.179L24.8728 19.1101C25.025 18.7837 25.3424 18.5824 25.6999 18.5824H25.7099C26.0723 18.5864 26.3897 18.7946 26.5369 19.1271C26.7862 19.6868 26.7862 20.3276 26.5369 20.8853L25.1261 24.0413C24.9799 24.3748 24.6615 24.583 24.2951 24.583L24.2941 24.582ZM25.6999 19.09C25.5397 19.09 25.4025 19.1772 25.3344 19.3243L23.9125 22.3932C23.7133 22.8208 23.7033 23.3154 23.8865 23.751L23.9186 23.813C23.9887 23.9802 24.1249 24.0714 24.2891 24.0734H24.2941C24.4583 24.0734 24.5954 23.9843 24.6605 23.8351L26.0723 20.676C26.2626 20.2505 26.2626 19.7599 26.0723 19.3323C26.0053 19.1822 25.8681 19.0911 25.7049 19.0891L25.6999 19.09Z" fill="#155C6D"/>
<path d="M53.4796 56.3211L58.4659 65.695C59.1167 66.9196 58.2256 68.3944 56.8338 68.3944H25.5239C24.793 68.3944 24.1322 67.9939 23.7817 67.3541L7.34082 36.6471L7.35084 36.6581C7.6312 37.1817 8.18188 37.5071 8.77264 37.5041L39.682 37.3479C41.9649 37.3479 44.0676 38.6095 45.1389 40.6281L49.9751 49.7197C52.228 50.3024 54.3707 47.603 54.9114 47.1174C55.8125 46.3073 56.9639 45.9759 57.9953 46.3504C59.6373 46.9482 60.3583 49.1239 59.5873 51.2106C59.4171 51.6912 59.1768 52.1247 58.8964 52.5012C57.9452 53.7568 54.8513 56.0878 53.4796 56.3211Z" fill="#70C5AD"/>
<path d="M56.8335 68.6488H25.5236C24.7076 68.6488 23.9536 68.1992 23.5581 67.4763L7.11621 36.7672L7.53172 36.4808L7.57376 36.5389C7.80906 36.9785 8.26365 37.2508 8.76229 37.2508H8.77029L39.6807 37.0946C42.0677 37.0946 44.2454 38.4033 45.3639 40.51L50.145 49.4994C51.8992 49.8619 53.6564 48.0435 54.4134 47.2585C54.5526 47.1143 54.6627 47.0002 54.7408 46.9291C55.7481 46.024 56.9967 45.7186 58.0821 46.1131C58.813 46.3794 59.4148 46.9531 59.7742 47.7301C60.2588 48.7755 60.2778 50.0771 59.8253 51.3007C59.656 51.7793 59.4117 52.2359 59.1003 52.6544C58.2382 53.7919 55.4387 55.9857 53.8557 56.4903L58.6908 65.5779C59.0373 66.2307 59.0162 66.9987 58.6358 67.6335C58.2523 68.2703 57.5784 68.6507 56.8325 68.6507L56.8335 68.6488ZM8.17255 37.6623L24.0047 67.234C24.3101 67.7927 24.8928 68.1401 25.5236 68.1401H56.8335C57.3982 68.1401 57.9098 67.8518 58.2002 67.3691C58.4886 66.8895 58.5046 66.3078 58.2413 65.8142L53.0887 56.1298L53.4361 56.0708C54.7068 55.8545 57.7446 53.6006 58.6938 52.348C58.9732 51.9715 59.1935 51.56 59.3467 51.1265C59.7532 50.0261 59.7412 48.8666 59.3126 47.9424C59.0052 47.2806 58.5196 46.813 57.9078 46.5897C57.0057 46.2623 55.9463 46.5296 55.0812 47.3066C55.0092 47.3707 54.907 47.4768 54.7798 47.61C53.9458 48.4761 51.9983 50.5037 49.9116 49.967L49.8035 49.9389L44.9143 40.7482C43.885 38.8078 41.8804 37.6032 39.6816 37.6032L8.77329 37.7594H8.76229C8.55903 37.7594 8.35979 37.7254 8.17255 37.6623Z" fill="#155C6D"/>
<path d="M40.3225 35.8162C42.6054 35.8162 44.7081 37.0777 45.7794 39.0953L51.4266 49.6868C50.956 49.8169 50.4654 49.847 49.9748 49.7189L45.1386 40.6263C44.0672 38.6087 41.9645 37.3471 39.6816 37.3471L40.3225 35.8162Z" fill="#C8DAE8"/>
<path d="M50.6227 50.0554C50.3794 50.0554 50.1421 50.0254 49.9108 49.9653L49.8037 49.9372L44.9145 40.7455C43.8852 38.8061 41.8796 37.6016 39.6818 37.6016H39.2993L40.1534 35.562H40.3227C42.7097 35.562 44.8874 36.8707 46.0049 38.9763L51.8013 49.8472L51.4959 49.9312C51.1985 50.0144 50.9071 50.0554 50.6227 50.0554ZM50.1452 49.4987C50.4325 49.5588 50.7329 49.5628 51.0453 49.5117L45.5553 39.2156C44.552 37.3252 42.6226 36.1327 40.4899 36.0736L40.0583 37.104C42.2941 37.2341 44.3027 38.5127 45.3631 40.5073L50.1441 49.4977L50.1452 49.4987Z" fill="#155C6D"/>
<path d="M54.701 55.8378C54.2304 56.0901 53.8099 56.2663 53.4795 56.3214L58.4558 65.6963C58.7161 66.1879 58.7361 66.7206 58.5659 67.1822L59.2067 65.9937C59.4971 65.464 59.4971 64.8272 59.2168 64.2965L54.701 55.8378Z" fill="#C8DAE8"/>
<path d="M58.7901 67.3037L58.3275 67.0954C58.4807 66.6779 58.4467 66.2242 58.2304 65.8167L53.0889 56.1304L53.4373 56.0723C53.7166 56.0253 54.1021 55.8721 54.5808 55.6148L54.806 55.4936L59.4419 64.1777C59.7653 64.7905 59.7604 65.5143 59.4299 66.1171L58.7901 67.3037ZM53.8568 56.4899L58.68 65.5775C58.7661 65.7397 58.8291 65.9079 58.8712 66.0781L58.9814 65.8728C59.2307 65.4193 59.2336 64.8746 58.9913 64.415L54.5938 56.1785C54.3164 56.3177 54.0721 56.4208 53.8558 56.4889L53.8568 56.4899Z" fill="#155C6D"/>
<path d="M59.0058 50.6952C59.5765 49.1342 59.0959 47.5271 57.9344 47.1056C56.7729 46.683 55.3711 47.6062 54.8004 49.1672C54.2297 50.7282 54.7103 52.3353 55.8718 52.7568C57.0333 53.1793 58.4351 52.2561 59.0058 50.6952Z" fill="#155C6D"/>
<path d="M58.816 51.1236C58.8861 50.9844 58.9562 50.8443 59.0063 50.6921C59.1364 50.3467 59.2066 50.0002 59.2266 49.6638L55.9624 47.5341C55.602 47.8154 55.2816 48.1929 55.0312 48.6555L58.816 51.1236Z" fill="#C8DAE8"/>
<path d="M58.5759 51.5319L54.8311 49.0917C54.8211 49.1178 54.8111 49.1408 54.8011 49.1678C54.721 49.3861 54.6709 49.6044 54.6309 49.8217L58.1153 52.0976C58.2855 51.9334 58.4357 51.7401 58.5759 51.5319Z" fill="#C8DAE8"/>
<path d="M58.8259 50.6239C59.2665 49.4113 58.896 48.1618 57.9949 47.8333C57.0837 47.5059 55.9923 48.2228 55.5517 49.4363C55.1112 50.6499 55.4817 51.8985 56.3828 52.2269C57.294 52.5553 58.3754 51.8374 58.8259 50.6239Z" fill="#70C5AD"/>
<path d="M8.55225 35.9933L40.3227 35.8141L39.6819 37.347L8.77256 37.5032" fill="#C8DAE8"/>
<path d="M8.77354 37.7577L8.77158 37.249L39.5117 37.0949L39.9402 36.0716L8.55329 36.2478L8.55127 35.7402L40.7042 35.5579L39.8521 37.6005L8.77354 37.7577Z" fill="#155C6D"/>
</svg>
