<svg width="72" height="72" viewBox="0 0 72 72" fill="none" xmlns="http://www.w3.org/2000/svg">
<path d="M43.2668 42.0474L23.6218 5.95445C23.0711 4.95718 21.6292 5.00627 21.1486 6.03658L7.59135 35.4951C7.34103 36.0418 7.36104 36.6726 7.6414 37.2033L13.589 48.3605L43.2668 42.0474Z" fill="#F0F4FF"/>
<path d="M13.4555 48.6496L7.41774 37.3232C7.10134 36.7245 7.07931 36.0025 7.36066 35.3887L20.918 5.93024C21.1813 5.36552 21.73 5.00206 22.3498 4.98103C22.9606 4.96 23.5433 5.28646 23.8447 5.83215L43.6529 42.2255L13.4555 48.6496ZM22.4078 5.48869C22.3938 5.48869 22.3808 5.48869 22.3668 5.48869C21.9322 5.50371 21.5628 5.74802 21.3795 6.14352L7.82225 35.6C7.60698 36.0706 7.624 36.6243 7.86631 37.0829L13.7238 48.0709L42.8809 41.868L23.3991 6.07446C23.1948 5.70499 22.8264 5.48668 22.4089 5.48668L22.4078 5.48869Z" fill="#0B4D5E"/>
<path d="M39.8816 35.8169L23.5808 5.89489C23.2804 5.3462 22.4794 5.37224 22.2191 5.93896L8.41156 35.7299C8.36149 35.841 8.44157 35.9671 8.57173 35.9661L39.8816 35.8169Z" fill="#8AE5CC"/>
<path d="M8.5705 36.2206C8.42331 36.2206 8.28909 36.1485 8.20999 36.0273C8.13189 35.9062 8.12089 35.756 8.18097 35.6249L21.9896 5.83291C22.1498 5.48447 22.4892 5.25918 22.8747 5.24617C23.2812 5.24016 23.6186 5.43439 23.8049 5.77382L40.3099 36.0704L8.57447 36.2216H8.57148L8.5705 36.2206ZM22.9107 5.75279C22.9047 5.75279 22.8977 5.75279 22.8907 5.75279C22.6965 5.7598 22.5313 5.86893 22.4502 6.04516L8.70067 35.7119L39.4548 35.5658L23.3583 6.01717C23.2672 5.85096 23.101 5.75279 22.9117 5.75279H22.9107Z" fill="#0B4D5E"/>
<path d="M32.5526 35.8803L37.8293 24.4037C38.0396 23.9411 38.0196 23.4055 37.7692 22.9619L27.2759 4.37324C27.0055 3.88462 26.2946 3.90765 26.0643 4.41229L11.3556 35.7522C11.3156 35.8513 11.3856 35.9634 11.4958 35.9634L32.5526 35.8803Z" fill="#0B4D5E"/>
<path d="M11.4967 36.2191C11.3606 36.2191 11.2344 36.153 11.1593 36.0409C11.0832 35.9277 11.0682 35.7845 11.1193 35.6583L25.834 4.30643C25.9781 3.99003 26.2866 3.78278 26.639 3.76876C27.0025 3.75074 27.3259 3.94001 27.4971 4.25241L37.9894 22.8391C38.2778 23.3497 38.3038 23.9745 38.0605 24.5112L32.7147 36.137L11.4967 36.2201V36.2191ZM26.679 4.27545H26.66C26.4988 4.28146 26.3627 4.37255 26.2966 4.51874L11.6569 35.7094L32.3893 35.6273L37.5989 24.2979C37.7752 23.9094 37.7561 23.4568 37.5469 23.0874L27.0545 4.49973C26.9754 4.35755 26.8372 4.27545 26.679 4.27545Z" fill="#0B4D5E"/>
<path d="M33.0534 35.8841L38.3401 24.4076C38.5504 23.945 38.5304 23.4093 38.28 22.9657L27.7767 4.37705C27.5163 3.88843 26.8055 3.91146 26.5652 4.41611L11.8664 35.756C11.8163 35.8551 11.8965 35.9672 11.9966 35.9672L33.0534 35.8841Z" fill="#8AE5CC"/>
<path d="M11.9973 36.2218C11.8591 36.2218 11.7279 36.1477 11.6558 36.0285C11.5827 35.9094 11.5757 35.7652 11.6378 35.6421L26.3345 4.30818C26.4877 3.98377 26.8061 3.77854 27.1626 3.76953C27.5441 3.77254 27.8364 3.94776 28.0006 4.25715L38.5 22.8408C38.7884 23.3504 38.8134 23.9752 38.5701 24.5129L33.2143 36.1377L11.9962 36.2208L11.9973 36.2218ZM12.0974 35.8604L12.0954 35.8643C12.0954 35.8643 12.0974 35.8614 12.0974 35.8604ZM27.1856 4.27915H27.1746C27.0083 4.28316 26.8652 4.37528 26.7941 4.52648L12.1665 35.7142L32.8889 35.632L38.1085 24.3026C38.2847 23.9141 38.2657 23.4615 38.0585 23.0931L27.555 4.50441C27.4789 4.36123 27.3418 4.27915 27.1856 4.27915Z" fill="#0B4D5E"/>
<path d="M31.8818 17.1647L29.9494 21.4922C29.8492 21.7185 29.5388 21.7335 29.4187 21.5173L27.336 17.8116C27.1858 17.5492 27.1758 17.2308 27.306 16.9574L29.2585 12.7541C29.3586 12.5318 29.679 12.5188 29.7992 12.7321L31.8417 16.3186C31.9919 16.578 32.002 16.8914 31.8818 17.1647Z" fill="#0B4D5E"/>
<path d="M29.678 21.9257C29.4777 21.9257 29.2955 21.8186 29.1974 21.6413L27.1147 17.9366C26.9265 17.6062 26.9115 17.1987 27.0767 16.8492L29.0281 12.6479C29.1133 12.4597 29.2995 12.3354 29.5108 12.3264C29.705 12.3224 29.9183 12.4256 30.0214 12.6088L32.063 16.1944C32.2502 16.5148 32.2693 16.9173 32.1151 17.2677L30.1826 21.5973C30.0985 21.7895 29.9143 21.9157 29.704 21.9257C29.695 21.9257 29.686 21.9257 29.679 21.9257H29.678ZM29.5779 12.8581L29.4888 12.8611L27.5363 17.0645C27.4411 17.2657 27.4491 17.497 27.5573 17.6852L29.6409 21.393L29.718 21.389L31.6495 17.0625C31.7386 16.8592 31.7286 16.6289 31.6224 16.4467L29.5779 12.8581Z" fill="#0B4D5E"/>
<path d="M38.1 32.6433L25.9145 59.5496L14.1295 35.3217C13.9292 34.9192 13.9292 34.4516 14.1195 34.0461L24.2724 12.0661C24.6429 11.2661 25.7643 11.216 26.2049 11.98L38.1 32.6433Z" fill="#F0F4FF"/>
<path d="M25.9222 60.1485L13.9009 35.4331C13.6686 34.9655 13.6636 34.4208 13.8879 33.9392L24.0418 11.9602C24.2531 11.5026 24.6977 11.2052 25.2013 11.1832C25.724 11.1562 26.1746 11.4185 26.4249 11.8531L38.3851 32.6295L25.9222 60.1485ZM25.2634 11.6898C25.2493 11.6898 25.2373 11.6898 25.2233 11.6898C24.9059 11.7039 24.6356 11.8841 24.5024 12.1724L14.3485 34.1524C14.1893 34.4939 14.1923 34.8783 14.3565 35.2077L25.9052 58.95L37.8133 32.6555L25.9843 12.1053C25.8331 11.842 25.5647 11.6878 25.2634 11.6878V11.6898Z" fill="#0B4D5E"/>
<path d="M37.779 34.4391L26.1642 60.0847L14.93 36.9913C14.7397 36.6089 14.7397 36.1623 14.9099 35.7758L25.4433 13.0078L37.779 34.4391Z" fill="#0B4D5E"/>
<path d="M26.1721 60.6838L14.7015 37.1038C14.4812 36.6612 14.4722 36.1395 14.6784 35.6739L25.4201 12.4564L38.0662 34.4263L26.1721 60.6838ZM25.4682 13.5608L15.142 35.8832C14.9989 36.2056 15.0038 36.57 15.159 36.8784L26.157 59.4872L37.4945 34.4533L25.4682 13.5608Z" fill="#0B4D5E"/>
<path d="M63.9226 45.5905L28.5876 60.2531C27.4962 60.7027 26.2446 60.2301 25.734 59.1748L13.979 35.014C14.2994 35.6749 15.0804 35.9712 15.7612 35.6899L51.7771 20.832C52.8785 20.3774 54.1401 20.871 54.6407 21.9494L64.6835 43.643C65.0339 44.3899 64.6835 45.2741 63.9226 45.5905Z" fill="#F0F4FF"/>
<path d="M27.7343 60.6763C26.8101 60.6763 25.928 60.1596 25.5045 59.2845L13.7515 35.1288C13.7515 35.1288 13.7515 35.1258 13.7495 35.1248L14.2071 34.9025V34.9055C14.4724 35.4431 15.1132 35.6835 15.6639 35.4542L51.6797 20.5963C52.9073 20.0906 54.3121 20.6353 54.8719 21.8418L64.9136 43.5365C65.1109 43.956 65.1279 44.4276 64.9596 44.8622C64.7894 45.3017 64.456 45.6431 64.0205 45.8244L28.6855 60.487C28.3741 60.6152 28.0527 60.6752 27.7353 60.6752L27.7343 60.6763ZM14.7268 35.9708L25.9631 59.0622C26.4146 59.9964 27.522 60.4159 28.4903 60.0174L63.8242 45.3548C64.1316 45.2276 64.3659 44.9873 64.485 44.6779C64.6022 44.3735 64.5902 44.0441 64.453 43.7497L54.4103 22.0551C53.9657 21.0969 52.8513 20.6604 51.874 21.0659L15.8582 35.9238C15.4867 36.077 15.0872 36.085 14.7268 35.9708Z" fill="#0B4D5E"/>
<path d="M25.5938 58.8819L14.8501 36.8148L15.0103 37.1442C15.2506 37.6208 15.8213 37.8321 16.3119 37.6288L52.5581 22.7178C52.5781 22.7088 52.5981 22.7038 52.6282 22.7038C52.6382 22.7038 52.7383 22.7068 52.7884 22.8049L62.5708 43.9408L27.7966 58.3672C27.7765 58.3772 26.585 58.959 25.5938 58.8819Z" fill="#0B4D5E"/>
<path d="M52.3074 26.4718C53.8394 26.4718 55.091 25.2243 55.091 23.6863C55.091 22.1484 53.8394 20.9007 52.3074 20.9007C50.7755 20.9007 49.5239 22.1484 49.5239 23.6863C49.5239 25.2243 50.7755 26.4718 52.3074 26.4718Z" fill="#F0F4FF"/>
<path d="M25.3231 16.2884C26.1242 16.2884 26.775 15.2331 26.775 13.9314C26.775 12.6297 26.1242 11.5744 25.3231 11.5744C24.5121 11.5744 23.8613 12.6297 23.8613 13.9314C23.8613 15.2331 24.5121 16.2884 25.3231 16.2884Z" fill="#F0F4FF"/>
<path d="M60.9588 46.1927C62.4808 46.1927 63.7224 44.9501 63.7224 43.4181C63.7224 41.8862 62.4808 40.6426 60.9588 40.6426C59.4269 40.6426 58.1953 41.8852 58.1953 43.4181C58.1953 44.9511 59.4269 46.1927 60.9588 46.1927Z" fill="#F0F4FF"/>
<path d="M26.3049 20.7803L24.8931 23.9374C24.6628 24.462 23.9119 24.4571 23.6916 23.9284L23.6515 23.8493C23.4412 23.3486 23.4513 22.7799 23.6816 22.2863L25.1034 19.2164C25.3437 18.7027 26.0746 18.7108 26.3049 19.2294C26.5252 19.7241 26.5252 20.2877 26.3049 20.7803Z" fill="#F0F4FF"/>
<path d="M24.2941 24.5821H24.2841C23.9146 24.5781 23.5972 24.3659 23.457 24.0264L23.4249 23.9643C23.1786 23.3806 23.1916 22.7358 23.451 22.1791L24.8728 19.1102C25.025 18.7838 25.3424 18.5825 25.6999 18.5825H25.7099C26.0723 18.5865 26.3897 18.7948 26.5369 19.1272C26.7862 19.6869 26.7862 20.3278 26.5369 20.8855L25.1261 24.0415C24.9799 24.3749 24.6615 24.5832 24.2951 24.5832L24.2941 24.5821ZM25.6999 19.0902C25.5397 19.0902 25.4025 19.1773 25.3344 19.3245L23.9125 22.3934C23.7133 22.8209 23.7033 23.3156 23.8865 23.7511L23.9186 23.8131C23.9887 23.9804 24.1249 24.0715 24.2891 24.0735H24.2941C24.4583 24.0735 24.5954 23.9844 24.6605 23.8352L26.0723 20.6762C26.2626 20.2506 26.2626 19.76 26.0723 19.3325C26.0053 19.1823 25.8681 19.0912 25.7049 19.0892L25.6999 19.0902Z" fill="#0B4D5E"/>
<path d="M53.4796 56.3212L58.4659 65.6951C59.1167 66.9197 58.2256 68.3946 56.8338 68.3946H25.5239C24.793 68.3946 24.1322 67.994 23.7817 67.3542L7.34082 36.6472L7.35084 36.6582C7.6312 37.1819 8.18188 37.5072 8.77264 37.5042L39.682 37.348C41.9649 37.348 44.0676 38.6096 45.1389 40.6282L49.9751 49.7198C52.228 50.3025 54.3707 47.6031 54.9114 47.1175C55.8125 46.3074 56.9639 45.976 57.9953 46.3505C59.6373 46.9483 60.3583 49.124 59.5873 51.2107C59.4171 51.6913 59.1768 52.1249 58.8964 52.5013C57.9452 53.7569 54.8513 56.0879 53.4796 56.3212Z" fill="#8AE5CC"/>
<path d="M56.8335 68.6489H25.5236C24.7076 68.6489 23.9536 68.1993 23.5581 67.4764L7.11621 36.7673L7.53172 36.481L7.57376 36.539C7.80906 36.9786 8.26365 37.2509 8.76229 37.2509H8.77029L39.6807 37.0947C42.0677 37.0947 44.2454 38.4034 45.3639 40.5101L50.145 49.4995C51.8992 49.862 53.6564 48.0437 54.4134 47.2587C54.5526 47.1145 54.6627 47.0003 54.7408 46.9293C55.7481 46.0241 56.9967 45.7187 58.0821 46.1132C58.813 46.3795 59.4148 46.9533 59.7742 47.7303C60.2588 48.7756 60.2778 50.0772 59.8253 51.3008C59.656 51.7794 59.4117 52.236 59.1003 52.6546C58.2382 53.792 55.4387 55.9858 53.8557 56.4904L58.6908 65.578C59.0373 66.2308 59.0162 66.9988 58.6358 67.6336C58.2523 68.2704 57.5784 68.6509 56.8325 68.6509L56.8335 68.6489ZM8.17255 37.6625L24.0047 67.2341C24.3101 67.7928 24.8928 68.1403 25.5236 68.1403H56.8335C57.3982 68.1403 57.9098 67.8519 58.2002 67.3693C58.4886 66.8897 58.5046 66.3079 58.2413 65.8143L53.0887 56.1299L53.4361 56.0709C54.7068 55.8546 57.7446 53.6007 58.6938 52.3481C58.9732 51.9717 59.1935 51.5602 59.3467 51.1266C59.7532 50.0262 59.7412 48.8667 59.3126 47.9426C59.0052 47.2807 58.5196 46.8131 57.9078 46.5898C57.0057 46.2624 55.9463 46.5298 55.0812 47.3067C55.0092 47.3708 54.907 47.4769 54.7798 47.6101C53.9458 48.4762 51.9983 50.5038 49.9116 49.9671L49.8035 49.9391L44.9143 40.7484C43.885 38.8079 41.8804 37.6034 39.6816 37.6034L8.77329 37.7596H8.76229C8.55903 37.7596 8.35979 37.7255 8.17255 37.6625Z" fill="#0B4D5E"/>
<path d="M40.3225 35.8163C42.6054 35.8163 44.7081 37.0779 45.7794 39.0955L51.4266 49.6869C50.956 49.8171 50.4654 49.8472 49.9748 49.719L45.1386 40.6265C44.0672 38.6089 41.9645 37.3473 39.6816 37.3473L40.3225 35.8163Z" fill="#F0F4FF"/>
<path d="M50.6227 50.0556C50.3794 50.0556 50.1421 50.0255 49.9108 49.9654L49.8037 49.9374L44.9145 40.7457C43.8852 38.8062 41.8796 37.6017 39.6818 37.6017H39.2993L40.1534 35.5621H40.3227C42.7097 35.5621 44.8874 36.8708 46.0049 38.9765L51.8012 49.8473L51.4959 49.9314C51.1985 50.0145 50.9071 50.0556 50.6227 50.0556ZM50.1451 49.4988C50.4325 49.5589 50.7329 49.5629 51.0453 49.5118L45.5553 39.2158C44.552 37.3254 42.6226 36.1328 40.4899 36.0738L40.0583 37.1041C42.2941 37.2342 44.3027 38.5129 45.3631 40.5074L50.1441 49.4978L50.1451 49.4988Z" fill="#0B4D5E"/>
<path d="M54.7005 55.8379C54.2299 56.0902 53.8094 56.2665 53.479 56.3216L58.4553 65.6965C58.7156 66.1881 58.7356 66.7208 58.5654 67.1824L59.2063 65.9939C59.4966 65.4642 59.4966 64.8274 59.2163 64.2967L54.7005 55.8379Z" fill="#F0F4FF"/>
<path d="M58.7896 67.3038L58.327 67.0955C58.4802 66.678 58.4462 66.2244 58.2299 65.8169L53.0884 56.1305L53.4368 56.0725C53.7161 56.0254 54.1017 55.8723 54.5803 55.6149L54.8055 55.4937L59.4414 64.1778C59.7648 64.7906 59.7599 65.5145 59.4295 66.1172L58.7896 67.3038ZM53.8563 56.49L58.6795 65.5776C58.7656 65.7398 58.8286 65.908 58.8707 66.0783L58.9809 65.873C59.2302 65.4194 59.2332 64.8747 58.9909 64.4151L54.5933 56.1786C54.3159 56.3178 54.0716 56.4209 53.8553 56.489L53.8563 56.49Z" fill="#0B4D5E"/>
<path d="M59.0058 50.6953C59.5765 49.1343 59.0959 47.5272 57.9344 47.1057C56.7729 46.6832 55.3711 47.6064 54.8004 49.1673C54.2297 50.7283 54.7103 52.3354 55.8718 52.7569C57.0333 53.1795 58.4351 52.2563 59.0058 50.6953Z" fill="#0B4D5E"/>
<path d="M58.816 51.1237C58.8861 50.9846 58.9562 50.8444 59.0063 50.6922C59.1364 50.3468 59.2066 50.0004 59.2266 49.6639L55.9624 47.5342C55.602 47.8156 55.2816 48.193 55.0312 48.6556L58.816 51.1237Z" fill="#F0F4FF"/>
<path d="M58.5759 51.532L54.8311 49.0919C54.8211 49.1179 54.8111 49.1409 54.8011 49.1679C54.721 49.3862 54.6709 49.6045 54.6309 49.8218L58.1153 52.0977C58.2855 51.9335 58.4357 51.7402 58.5759 51.532Z" fill="#F0F4FF"/>
<path d="M58.8259 50.624C59.2665 49.4115 58.896 48.1619 57.9949 47.8335C57.0837 47.506 55.9923 48.2229 55.5517 49.4364C55.1112 50.65 55.4817 51.8986 56.3828 52.227C57.294 52.5555 58.3754 51.8375 58.8259 50.624Z" fill="#8AE5CC"/>
<path d="M8.55225 35.9935L40.3227 35.8142L39.6819 37.3472L8.77256 37.5034" fill="#F0F4FF"/>
<path d="M8.77354 37.7578L8.77158 37.2492L39.5117 37.095L39.9402 36.0717L8.55329 36.2479L8.55127 35.7403L40.7042 35.558L39.8521 37.6006L8.77354 37.7578Z" fill="#0B4D5E"/>
</svg>
